<?xml version='1.0' encoding='ASCII' standalone='yes'?>
<svg xmlns="http://www.w3.org/2000/svg" xmlns:rdkit="http://www.rdkit.org/xml" xmlns:xlink="http://www.w3.org/1999/xlink" style="background-color: white;" version="1.1" baseProfile="full" xml:space="preserve" width="1000px" height="1000px" viewBox="0 0 1000 1000">
<!-- END OF HEADER -->
<rect style="opacity:1.0;fill:#FFFFFF;stroke:none" width="1000.0" height="1000.0" x="0.0" y="0.0"> </rect>
<ellipse cx="575.7" cy="714.5" rx="37.1" ry="37.1" class="atom-11" style="fill:#B20000;fill-rule:evenodd;stroke:#B20000;stroke-width:1.0px;stroke-linecap:butt;stroke-linejoin:miter;stroke-opacity:1"/>
<ellipse cx="424.0" cy="714.2" rx="37.1" ry="37.1" class="atom-14" style="fill:#B20000;fill-rule:evenodd;stroke:#B20000;stroke-width:1.0px;stroke-linecap:butt;stroke-linejoin:miter;stroke-opacity:1"/>
<path class="bond-0 atom-1 atom-0" d="M 586.4,484.6 L 552.6,468.2" style="fill:none;fill-rule:evenodd;stroke:#000000;stroke-width:2.0px;stroke-linecap:butt;stroke-linejoin:miter;stroke-opacity:1"/>
<path class="bond-0 atom-1 atom-0" d="M 552.6,468.2 L 518.8,451.8" style="fill:none;fill-rule:evenodd;stroke:#0000FF;stroke-width:2.0px;stroke-linecap:butt;stroke-linejoin:miter;stroke-opacity:1"/>
<path class="bond-1 atom-2 atom-0" d="M 414.5,484.6 L 448.9,468.1" style="fill:none;fill-rule:evenodd;stroke:#000000;stroke-width:2.0px;stroke-linecap:butt;stroke-linejoin:miter;stroke-opacity:1"/>
<path class="bond-1 atom-2 atom-0" d="M 448.9,468.1 L 483.3,451.7" style="fill:none;fill-rule:evenodd;stroke:#0000FF;stroke-width:2.0px;stroke-linecap:butt;stroke-linejoin:miter;stroke-opacity:1"/>
<path class="bond-2 atom-3 atom-0" d="M 501.3,332.5 L 501.2,381.4" style="fill:none;fill-rule:evenodd;stroke:#000000;stroke-width:2.0px;stroke-linecap:butt;stroke-linejoin:miter;stroke-opacity:1"/>
<path class="bond-2 atom-3 atom-0" d="M 501.2,381.4 L 501.1,430.2" style="fill:none;fill-rule:evenodd;stroke:#0000FF;stroke-width:2.0px;stroke-linecap:butt;stroke-linejoin:miter;stroke-opacity:1"/>
<path class="bond-3 atom-4 atom-1" d="M 636.7,605.0 L 615.3,510.2" style="fill:none;fill-rule:evenodd;stroke:#000000;stroke-width:2.0px;stroke-linecap:butt;stroke-linejoin:miter;stroke-opacity:1"/>
<path class="bond-3 atom-4 atom-1" d="M 654.8,601.0 L 633.4,506.1" style="fill:none;fill-rule:evenodd;stroke:#000000;stroke-width:2.0px;stroke-linecap:butt;stroke-linejoin:miter;stroke-opacity:1"/>
<path class="bond-4 atom-5 atom-1" d="M 688.9,426.6 L 622.4,487.9" style="fill:none;fill-rule:evenodd;stroke:#000000;stroke-width:2.0px;stroke-linecap:butt;stroke-linejoin:miter;stroke-opacity:1"/>
<path class="bond-5 atom-6 atom-2" d="M 364.6,604.1 L 386.4,509.8" style="fill:none;fill-rule:evenodd;stroke:#000000;stroke-width:2.0px;stroke-linecap:butt;stroke-linejoin:miter;stroke-opacity:1"/>
<path class="bond-5 atom-6 atom-2" d="M 346.5,599.9 L 368.3,505.6" style="fill:none;fill-rule:evenodd;stroke:#000000;stroke-width:2.0px;stroke-linecap:butt;stroke-linejoin:miter;stroke-opacity:1"/>
<path class="bond-6 atom-7 atom-2" d="M 313.2,425.4 L 378.5,486.4" style="fill:none;fill-rule:evenodd;stroke:#000000;stroke-width:2.0px;stroke-linecap:butt;stroke-linejoin:miter;stroke-opacity:1"/>
<path class="bond-7 atom-8 atom-3" d="M 597.9,264.1 L 555.1,288.7" style="fill:none;fill-rule:evenodd;stroke:#0000FF;stroke-width:2.0px;stroke-linecap:butt;stroke-linejoin:miter;stroke-opacity:1"/>
<path class="bond-7 atom-8 atom-3" d="M 555.1,288.7 L 512.3,313.2" style="fill:none;fill-rule:evenodd;stroke:#000000;stroke-width:2.0px;stroke-linecap:butt;stroke-linejoin:miter;stroke-opacity:1"/>
<path class="bond-8 atom-9 atom-3" d="M 409.6,255.4 L 446.6,276.9" style="fill:none;fill-rule:evenodd;stroke:#FF0000;stroke-width:2.0px;stroke-linecap:butt;stroke-linejoin:miter;stroke-opacity:1"/>
<path class="bond-8 atom-9 atom-3" d="M 446.6,276.9 L 483.6,298.4" style="fill:none;fill-rule:evenodd;stroke:#000000;stroke-width:2.0px;stroke-linecap:butt;stroke-linejoin:miter;stroke-opacity:1"/>
<path class="bond-8 atom-9 atom-3" d="M 400.3,271.5 L 437.3,293.0" style="fill:none;fill-rule:evenodd;stroke:#FF0000;stroke-width:2.0px;stroke-linecap:butt;stroke-linejoin:miter;stroke-opacity:1"/>
<path class="bond-8 atom-9 atom-3" d="M 437.3,293.0 L 474.3,314.5" style="fill:none;fill-rule:evenodd;stroke:#000000;stroke-width:2.0px;stroke-linecap:butt;stroke-linejoin:miter;stroke-opacity:1"/>
<path class="bond-9 atom-10 atom-4" d="M 733.9,647.3 L 649.6,621.0" style="fill:none;fill-rule:evenodd;stroke:#000000;stroke-width:2.0px;stroke-linecap:butt;stroke-linejoin:miter;stroke-opacity:1"/>
<path class="bond-10 atom-11 atom-4" d="M 572.6,701.4 L 628.9,631.1" style="fill:none;fill-rule:evenodd;stroke:#000000;stroke-width:2.0px;stroke-linecap:butt;stroke-linejoin:miter;stroke-opacity:1"/>
<path class="bond-11 atom-12 atom-5" d="M 810.5,446.7 L 721.5,419.0" style="fill:none;fill-rule:evenodd;stroke:#000000;stroke-width:2.0px;stroke-linecap:butt;stroke-linejoin:miter;stroke-opacity:1"/>
<path class="bond-11 atom-12 atom-5" d="M 805.0,464.4 L 716.0,436.7" style="fill:none;fill-rule:evenodd;stroke:#000000;stroke-width:2.0px;stroke-linecap:butt;stroke-linejoin:miter;stroke-opacity:1"/>
<path class="bond-12 atom-13 atom-6" d="M 268.6,645.5 L 350.7,620.4" style="fill:none;fill-rule:evenodd;stroke:#000000;stroke-width:2.0px;stroke-linecap:butt;stroke-linejoin:miter;stroke-opacity:1"/>
<path class="bond-13 atom-14 atom-6" d="M 428.2,701.1 L 372.1,630.4" style="fill:none;fill-rule:evenodd;stroke:#000000;stroke-width:2.0px;stroke-linecap:butt;stroke-linejoin:miter;stroke-opacity:1"/>
<path class="bond-14 atom-14 atom-11" d="M 448.5,714.1 L 551.2,714.4" style="fill:none;fill-rule:evenodd;stroke:#000000;stroke-width:2.0px;stroke-linecap:butt;stroke-linejoin:miter;stroke-opacity:1"/>
<path class="bond-14 atom-14 atom-11" d="M 448.6,695.5 L 551.3,695.8" style="fill:none;fill-rule:evenodd;stroke:#000000;stroke-width:2.0px;stroke-linecap:butt;stroke-linejoin:miter;stroke-opacity:1"/>
<path class="bond-15 atom-15 atom-7" d="M 190.9,445.2 L 280.7,417.7" style="fill:none;fill-rule:evenodd;stroke:#000000;stroke-width:2.0px;stroke-linecap:butt;stroke-linejoin:miter;stroke-opacity:1"/>
<path class="bond-15 atom-15 atom-7" d="M 196.3,462.9 L 286.1,435.5" style="fill:none;fill-rule:evenodd;stroke:#000000;stroke-width:2.0px;stroke-linecap:butt;stroke-linejoin:miter;stroke-opacity:1"/>
<path class="bond-16 atom-16 atom-10" d="M 837.7,580.8 L 771.7,641.7" style="fill:none;fill-rule:evenodd;stroke:#000000;stroke-width:2.0px;stroke-linecap:butt;stroke-linejoin:miter;stroke-opacity:1"/>
<path class="bond-16 atom-16 atom-10" d="M 825.1,567.2 L 759.1,628.1" style="fill:none;fill-rule:evenodd;stroke:#000000;stroke-width:2.0px;stroke-linecap:butt;stroke-linejoin:miter;stroke-opacity:1"/>
<path class="bond-17 atom-16 atom-12" d="M 845.6,557.7 L 824.4,463.4" style="fill:none;fill-rule:evenodd;stroke:#000000;stroke-width:2.0px;stroke-linecap:butt;stroke-linejoin:miter;stroke-opacity:1"/>
<path class="bond-18 atom-17 atom-13" d="M 163.1,578.5 L 229.3,640.2" style="fill:none;fill-rule:evenodd;stroke:#000000;stroke-width:2.0px;stroke-linecap:butt;stroke-linejoin:miter;stroke-opacity:1"/>
<path class="bond-18 atom-17 atom-13" d="M 175.8,564.9 L 241.9,626.6" style="fill:none;fill-rule:evenodd;stroke:#000000;stroke-width:2.0px;stroke-linecap:butt;stroke-linejoin:miter;stroke-opacity:1"/>
<path class="bond-19 atom-17 atom-15" d="M 155.8,555.8 L 177.6,461.5" style="fill:none;fill-rule:evenodd;stroke:#000000;stroke-width:2.0px;stroke-linecap:butt;stroke-linejoin:miter;stroke-opacity:1"/>
<path class="atom-0" d="M 490.2 434.4 L 496.0 443.8 Q 496.5 444.7, 497.5 446.4 Q 498.4 448.1, 498.4 448.2 L 498.4 434.4 L 500.8 434.4 L 500.8 452.1 L 498.4 452.1 L 492.1 441.9 Q 491.4 440.7, 490.6 439.3 Q 489.9 437.9, 489.7 437.5 L 489.7 452.1 L 487.4 452.1 L 487.4 434.4 L 490.2 434.4 " fill="#0000FF"/>
<path class="atom-0" d="M 505.0 450.1 L 508.9 450.1 L 508.9 436.9 L 504.6 438.2 L 504.1 436.7 L 509.5 434.3 L 511.3 434.6 L 511.3 450.1 L 514.7 450.1 L 514.7 452.1 L 505.0 452.1 L 505.0 450.1 " fill="#0000FF"/>
<path class="atom-1" d="M 590.5 497.3 Q 590.5 492.9, 592.5 490.6 Q 594.6 488.2, 598.5 488.2 Q 602.2 488.2, 604.1 490.8 L 602.5 492.2 Q 601.0 490.3, 598.5 490.3 Q 595.8 490.3, 594.4 492.1 Q 593.0 493.9, 593.0 497.3 Q 593.0 500.8, 594.5 502.6 Q 595.9 504.4, 598.8 504.4 Q 600.7 504.4, 603.0 503.2 L 603.7 505.1 Q 602.8 505.7, 601.4 506.0 Q 600.0 506.4, 598.4 506.4 Q 594.6 506.4, 592.5 504.0 Q 590.5 501.7, 590.5 497.3 " fill="#000000"/>
<path class="atom-1" d="M 606.4 491.8 Q 607.1 490.1, 608.6 489.2 Q 610.2 488.2, 612.3 488.2 Q 615.0 488.2, 616.5 489.7 Q 618.0 491.1, 618.0 493.7 Q 618.0 496.3, 616.1 498.8 Q 614.1 501.2, 610.1 504.1 L 618.3 504.1 L 618.3 506.1 L 606.4 506.1 L 606.4 504.5 Q 609.7 502.1, 611.6 500.4 Q 613.6 498.6, 614.6 497.0 Q 615.5 495.5, 615.5 493.8 Q 615.5 492.1, 614.7 491.2 Q 613.8 490.2, 612.3 490.2 Q 610.9 490.2, 610.0 490.8 Q 609.0 491.4, 608.3 492.7 L 606.4 491.8 " fill="#000000"/>
<path class="atom-2" d="M 382.6 496.7 Q 382.6 492.3, 384.7 490.0 Q 386.7 487.6, 390.7 487.6 Q 394.3 487.6, 396.3 490.2 L 394.6 491.6 Q 393.2 489.7, 390.7 489.7 Q 388.0 489.7, 386.6 491.5 Q 385.2 493.3, 385.2 496.7 Q 385.2 500.2, 386.6 502.0 Q 388.1 503.8, 390.9 503.8 Q 392.9 503.8, 395.2 502.6 L 395.9 504.5 Q 394.9 505.1, 393.5 505.4 Q 392.1 505.8, 390.6 505.8 Q 386.7 505.8, 384.7 503.4 Q 382.6 501.1, 382.6 496.7 " fill="#000000"/>
<path class="atom-2" d="M 407.0 496.2 Q 408.8 496.7, 409.6 497.8 Q 410.4 498.9, 410.4 500.7 Q 410.4 502.2, 409.7 503.4 Q 408.9 504.5, 407.6 505.2 Q 406.2 505.8, 404.4 505.8 Q 402.5 505.8, 401.1 505.1 Q 399.7 504.5, 398.5 503.1 L 400.0 501.7 Q 401.1 502.9, 402.0 503.3 Q 402.9 503.8, 404.4 503.8 Q 406.0 503.8, 407.0 502.9 Q 407.9 502.1, 407.9 500.7 Q 407.9 498.9, 406.9 498.1 Q 405.9 497.2, 403.7 497.2 L 402.5 497.2 L 402.5 495.4 L 403.6 495.4 Q 405.5 495.4, 406.5 494.6 Q 407.6 493.7, 407.6 492.2 Q 407.6 491.0, 406.7 490.3 Q 405.9 489.6, 404.4 489.6 Q 402.9 489.6, 402.0 490.2 Q 401.1 490.7, 400.4 492.0 L 398.7 491.1 Q 399.3 489.6, 400.8 488.6 Q 402.3 487.6, 404.4 487.6 Q 407.0 487.6, 408.5 488.9 Q 410.1 490.1, 410.1 492.2 Q 410.1 493.6, 409.3 494.6 Q 408.5 495.6, 407.0 496.2 " fill="#000000"/>
<path class="atom-3" d="M 478.6 319.5 Q 478.6 315.1, 480.6 312.8 Q 482.7 310.5, 486.6 310.5 Q 490.3 310.5, 492.2 313.1 L 490.6 314.4 Q 489.1 312.6, 486.6 312.6 Q 483.9 312.6, 482.5 314.4 Q 481.1 316.1, 481.1 319.5 Q 481.1 323.0, 482.6 324.8 Q 484.0 326.6, 486.9 326.6 Q 488.8 326.6, 491.1 325.5 L 491.8 327.3 Q 490.9 327.9, 489.5 328.3 Q 488.1 328.6, 486.5 328.6 Q 482.7 328.6, 480.6 326.3 Q 478.6 323.9, 478.6 319.5 " fill="#000000"/>
<path class="atom-3" d="M 506.1 322.3 L 508.2 322.3 L 508.2 324.3 L 506.1 324.3 L 506.1 328.4 L 503.7 328.4 L 503.7 324.3 L 494.6 324.3 L 494.6 322.8 L 502.3 310.7 L 506.1 310.7 L 506.1 322.3 M 497.5 322.3 L 503.7 322.3 L 503.7 312.3 L 497.5 322.3 " fill="#000000"/>
<path class="atom-4" d="M 617.6 617.9 Q 617.6 613.5, 619.7 611.2 Q 621.8 608.9, 625.7 608.9 Q 629.3 608.9, 631.3 611.5 L 629.6 612.8 Q 628.2 611.0, 625.7 611.0 Q 623.0 611.0, 621.6 612.8 Q 620.2 614.5, 620.2 617.9 Q 620.2 621.4, 621.6 623.2 Q 623.1 625.0, 626.0 625.0 Q 627.9 625.0, 630.2 623.9 L 630.9 625.7 Q 630.0 626.3, 628.6 626.7 Q 627.2 627.0, 625.6 627.0 Q 621.8 627.0, 619.7 624.7 Q 617.6 622.3, 617.6 617.9 " fill="#000000"/>
<path class="atom-4" d="M 640.0 615.7 Q 641.5 615.7, 642.8 616.4 Q 644.1 617.1, 644.8 618.3 Q 645.5 619.5, 645.5 621.2 Q 645.5 623.0, 644.6 624.4 Q 643.8 625.7, 642.3 626.3 Q 640.9 627.0, 639.2 627.0 Q 637.6 627.0, 636.1 626.4 Q 634.6 625.8, 633.6 624.7 L 635.1 623.1 Q 635.9 624.0, 637.0 624.5 Q 638.1 625.0, 639.3 625.0 Q 640.9 625.0, 641.9 624.0 Q 643.0 623.0, 643.0 621.3 Q 643.0 619.4, 641.9 618.5 Q 640.9 617.6, 639.1 617.6 Q 637.6 617.6, 635.9 618.3 L 634.5 617.6 L 635.3 609.1 L 644.4 609.1 L 644.2 611.1 L 637.4 611.1 L 636.9 616.4 Q 638.4 615.7, 640.0 615.7 " fill="#000000"/>
<path class="atom-5" d="M 689.2 413.4 Q 689.2 409.0, 691.2 406.7 Q 693.3 404.4, 697.2 404.4 Q 700.9 404.4, 702.8 406.9 L 701.2 408.3 Q 699.7 406.4, 697.2 406.4 Q 694.5 406.4, 693.1 408.2 Q 691.7 410.0, 691.7 413.4 Q 691.7 416.9, 693.2 418.7 Q 694.6 420.5, 697.5 420.5 Q 699.4 420.5, 701.7 419.3 L 702.4 421.2 Q 701.5 421.8, 700.1 422.1 Q 698.7 422.5, 697.1 422.5 Q 693.3 422.5, 691.2 420.1 Q 689.2 417.8, 689.2 413.4 " fill="#000000"/>
<path class="atom-5" d="M 712.0 411.2 Q 713.6 411.2, 714.8 411.9 Q 716.0 412.6, 716.7 413.8 Q 717.4 415.0, 717.4 416.6 Q 717.4 418.3, 716.6 419.6 Q 715.9 421.0, 714.5 421.7 Q 713.2 422.5, 711.4 422.5 Q 708.3 422.5, 706.7 420.3 Q 705.1 418.2, 705.1 413.9 Q 705.1 409.2, 707.1 406.8 Q 709.0 404.4, 712.8 404.4 Q 713.9 404.4, 714.8 404.6 Q 715.8 404.9, 716.7 405.4 L 715.7 407.1 Q 714.4 406.4, 712.8 406.4 Q 710.3 406.4, 709.1 408.0 Q 707.8 409.6, 707.6 412.9 Q 708.5 412.1, 709.7 411.7 Q 710.8 411.2, 712.0 411.2 M 711.5 420.4 Q 712.4 420.4, 713.2 419.9 Q 714.0 419.4, 714.4 418.5 Q 714.9 417.7, 714.9 416.6 Q 714.9 415.0, 714.0 414.1 Q 713.1 413.2, 711.6 413.2 Q 710.5 413.2, 709.4 413.7 Q 708.4 414.1, 707.6 414.8 Q 707.7 417.8, 708.7 419.1 Q 709.6 420.4, 711.5 420.4 " fill="#000000"/>
<path class="atom-6" d="M 354.7 617.2 Q 354.7 612.8, 356.8 610.5 Q 358.9 608.1, 362.8 608.1 Q 366.4 608.1, 368.4 610.7 L 366.7 612.1 Q 365.3 610.2, 362.8 610.2 Q 360.1 610.2, 358.7 612.0 Q 357.3 613.8, 357.3 617.2 Q 357.3 620.7, 358.7 622.5 Q 360.2 624.3, 363.1 624.3 Q 365.0 624.3, 367.3 623.1 L 368.0 625.0 Q 367.1 625.6, 365.7 625.9 Q 364.3 626.3, 362.7 626.3 Q 358.9 626.3, 356.8 623.9 Q 354.7 621.6, 354.7 617.2 " fill="#000000"/>
<path class="atom-6" d="M 379.9 610.3 L 370.7 610.3 L 370.7 608.3 L 382.4 608.3 L 382.4 610.1 L 375.3 626.0 L 372.9 626.0 L 379.9 610.3 " fill="#000000"/>
<path class="atom-7" d="M 284.8 412.2 Q 284.8 407.8, 286.8 405.5 Q 288.9 403.2, 292.8 403.2 Q 296.5 403.2, 298.4 405.8 L 296.8 407.1 Q 295.3 405.3, 292.8 405.3 Q 290.1 405.3, 288.7 407.1 Q 287.3 408.8, 287.3 412.2 Q 287.3 415.7, 288.8 417.5 Q 290.2 419.3, 293.1 419.3 Q 295.0 419.3, 297.3 418.2 L 298.0 420.0 Q 297.1 420.6, 295.7 421.0 Q 294.3 421.3, 292.7 421.3 Q 288.9 421.3, 286.8 419.0 Q 284.8 416.6, 284.8 412.2 " fill="#000000"/>
<path class="atom-7" d="M 309.7 411.7 Q 311.4 412.4, 312.3 413.5 Q 313.2 414.5, 313.2 416.3 Q 313.2 417.8, 312.4 418.9 Q 311.7 420.1, 310.3 420.7 Q 308.9 421.4, 307.1 421.4 Q 304.1 421.4, 302.4 420.0 Q 300.7 418.6, 300.7 416.3 Q 300.7 414.8, 301.5 413.7 Q 302.2 412.6, 303.8 411.8 Q 302.6 411.2, 302.0 410.2 Q 301.4 409.2, 301.4 407.7 Q 301.4 405.7, 302.9 404.4 Q 304.4 403.2, 307.0 403.2 Q 309.5 403.2, 311.0 404.4 Q 312.6 405.7, 312.6 407.7 Q 312.6 409.0, 311.8 410.0 Q 311.1 411.0, 309.7 411.7 M 307.0 405.1 Q 305.5 405.1, 304.7 405.8 Q 303.9 406.5, 303.9 407.7 Q 303.9 408.7, 304.4 409.3 Q 305.0 409.9, 305.7 410.2 Q 306.5 410.6, 308.1 411.1 Q 309.1 410.4, 309.6 409.6 Q 310.1 408.8, 310.1 407.7 Q 310.1 406.5, 309.2 405.8 Q 308.4 405.1, 307.0 405.1 M 307.1 419.5 Q 308.7 419.5, 309.7 418.6 Q 310.7 417.7, 310.7 416.2 Q 310.7 415.3, 310.2 414.7 Q 309.7 414.1, 308.9 413.7 Q 308.1 413.4, 306.7 412.9 L 305.6 412.6 Q 304.3 413.3, 303.8 414.2 Q 303.2 415.1, 303.2 416.2 Q 303.2 417.7, 304.3 418.6 Q 305.3 419.5, 307.1 419.5 " fill="#000000"/>
<path class="atom-8" d="M 604.8 249.2 L 610.6 258.5 Q 611.2 259.5, 612.1 261.1 Q 613.0 262.8, 613.1 262.9 L 613.1 249.2 L 615.4 249.2 L 615.4 266.9 L 613.0 266.9 L 606.8 256.6 Q 606.0 255.4, 605.3 254.0 Q 604.5 252.7, 604.3 252.2 L 604.3 266.9 L 602.0 266.9 L 602.0 249.2 L 604.8 249.2 " fill="#0000FF"/>
<path class="atom-8" d="M 624.7 249.0 Q 627.9 249.0, 629.4 251.1 Q 631.0 253.2, 631.0 257.5 Q 631.0 262.2, 629.1 264.6 Q 627.1 267.1, 623.3 267.1 Q 622.2 267.1, 621.3 266.8 Q 620.4 266.6, 619.5 266.0 L 620.4 264.4 Q 621.7 265.1, 623.3 265.1 Q 625.8 265.1, 627.1 263.5 Q 628.4 261.8, 628.5 258.5 Q 627.6 259.3, 626.5 259.8 Q 625.3 260.2, 624.1 260.2 Q 622.6 260.2, 621.3 259.5 Q 620.1 258.9, 619.4 257.6 Q 618.8 256.4, 618.8 254.9 Q 618.8 253.1, 619.5 251.8 Q 620.3 250.5, 621.6 249.7 Q 623.0 249.0, 624.7 249.0 M 621.3 254.8 Q 621.3 256.4, 622.1 257.3 Q 623.0 258.2, 624.6 258.2 Q 625.6 258.2, 626.7 257.8 Q 627.8 257.3, 628.5 256.6 Q 628.4 253.7, 627.5 252.3 Q 626.6 251.0, 624.7 251.0 Q 623.7 251.0, 622.9 251.5 Q 622.2 252.0, 621.7 252.9 Q 621.3 253.8, 621.3 254.8 " fill="#0000FF"/>
<path class="atom-9" d="M 356.1 257.4 Q 356.1 253.1, 358.2 250.8 Q 360.3 248.4, 364.2 248.4 Q 368.1 248.4, 370.2 250.8 Q 372.3 253.1, 372.3 257.4 Q 372.3 261.7, 370.2 264.1 Q 368.1 266.6, 364.2 266.6 Q 360.3 266.6, 358.2 264.1 Q 356.1 261.7, 356.1 257.4 M 364.2 264.6 Q 366.9 264.6, 368.3 262.8 Q 369.8 260.9, 369.8 257.4 Q 369.8 253.9, 368.3 252.2 Q 366.9 250.4, 364.2 250.4 Q 361.5 250.4, 360.0 252.1 Q 358.6 253.9, 358.6 257.4 Q 358.6 261.0, 360.0 262.8 Q 361.5 264.6, 364.2 264.6 " fill="#FF0000"/>
<path class="atom-9" d="M 375.9 264.3 L 379.7 264.3 L 379.7 251.1 L 375.5 252.4 L 374.9 250.9 L 380.3 248.5 L 382.1 248.8 L 382.1 264.3 L 385.6 264.3 L 385.6 266.3 L 375.9 266.3 L 375.9 264.3 " fill="#FF0000"/>
<path class="atom-9" d="M 394.4 266.5 Q 391.2 266.5, 389.5 264.1 Q 387.9 261.7, 387.9 257.4 Q 387.9 253.1, 389.5 250.8 Q 391.1 248.4, 394.4 248.4 Q 397.7 248.4, 399.3 250.8 Q 400.9 253.1, 400.9 257.4 Q 400.9 261.7, 399.3 264.1 Q 397.7 266.5, 394.4 266.5 M 394.4 264.5 Q 396.3 264.5, 397.4 262.7 Q 398.4 260.9, 398.4 257.4 Q 398.4 253.9, 397.4 252.2 Q 396.3 250.4, 394.4 250.4 Q 392.5 250.4, 391.5 252.2 Q 390.4 253.9, 390.4 257.4 Q 390.4 260.9, 391.5 262.7 Q 392.5 264.5, 394.4 264.5 " fill="#FF0000"/>
<path class="atom-10" d="M 737.9 654.7 Q 737.9 650.3, 740.0 648.0 Q 742.1 645.7, 746.0 645.7 Q 749.6 645.7, 751.6 648.3 L 749.9 649.6 Q 748.5 647.8, 746.0 647.8 Q 743.3 647.8, 741.9 649.6 Q 740.5 651.3, 740.5 654.7 Q 740.5 658.2, 741.9 660.0 Q 743.4 661.8, 746.3 661.8 Q 748.2 661.8, 750.5 660.7 L 751.2 662.5 Q 750.3 663.1, 748.9 663.5 Q 747.5 663.8, 745.9 663.8 Q 742.1 663.8, 740.0 661.5 Q 737.9 659.1, 737.9 654.7 " fill="#000000"/>
<path class="atom-10" d="M 754.7 661.6 L 758.6 661.6 L 758.6 648.4 L 754.3 649.7 L 753.8 648.2 L 759.2 645.8 L 761.0 646.1 L 761.0 661.6 L 764.4 661.6 L 764.4 663.6 L 754.7 663.6 L 754.7 661.6 " fill="#000000"/>
<path class="atom-10" d="M 767.6 661.6 L 771.5 661.6 L 771.5 648.4 L 767.2 649.7 L 766.7 648.2 L 772.1 645.8 L 773.9 646.1 L 773.9 661.6 L 777.3 661.6 L 777.3 663.6 L 767.6 663.6 L 767.6 661.6 " fill="#000000"/>
<path class="atom-11" d="M 555.3 714.5 Q 555.3 710.1, 557.4 707.8 Q 559.4 705.4, 563.4 705.4 Q 567.0 705.4, 569.0 708.0 L 567.3 709.4 Q 565.9 707.5, 563.4 707.5 Q 560.7 707.5, 559.3 709.3 Q 557.9 711.1, 557.9 714.5 Q 557.9 718.0, 559.3 719.8 Q 560.8 721.6, 563.6 721.6 Q 565.6 721.6, 567.9 720.4 L 568.6 722.3 Q 567.6 722.9, 566.2 723.2 Q 564.8 723.6, 563.3 723.6 Q 559.4 723.6, 557.4 721.2 Q 555.3 718.9, 555.3 714.5 " fill="#000000"/>
<path class="atom-11" d="M 572.2 721.3 L 576.0 721.3 L 576.0 708.1 L 571.8 709.4 L 571.2 708.0 L 576.6 705.5 L 578.4 705.8 L 578.4 721.3 L 581.9 721.3 L 581.9 723.3 L 572.2 723.3 L 572.2 721.3 " fill="#000000"/>
<path class="atom-11" d="M 584.2 709.0 Q 584.8 707.3, 586.4 706.4 Q 587.9 705.4, 590.1 705.4 Q 592.7 705.4, 594.2 706.9 Q 595.7 708.3, 595.7 710.9 Q 595.7 713.5, 593.8 716.0 Q 591.9 718.4, 587.9 721.3 L 596.0 721.3 L 596.0 723.3 L 584.1 723.3 L 584.1 721.7 Q 587.4 719.3, 589.4 717.6 Q 591.3 715.8, 592.3 714.2 Q 593.2 712.7, 593.2 711.0 Q 593.2 709.3, 592.4 708.4 Q 591.5 707.4, 590.1 707.4 Q 588.6 707.4, 587.7 708.0 Q 586.7 708.6, 586.1 709.9 L 584.2 709.0 " fill="#000000"/>
<path class="atom-12" d="M 814.6 450.2 Q 814.6 445.8, 816.6 443.5 Q 818.7 441.2, 822.6 441.2 Q 826.3 441.2, 828.2 443.7 L 826.6 445.1 Q 825.2 443.2, 822.6 443.2 Q 820.0 443.2, 818.5 445.0 Q 817.1 446.8, 817.1 450.2 Q 817.1 453.7, 818.6 455.5 Q 820.1 457.3, 822.9 457.3 Q 824.9 457.3, 827.1 456.1 L 827.8 458.0 Q 826.9 458.6, 825.5 458.9 Q 824.1 459.3, 822.6 459.3 Q 818.7 459.3, 816.6 456.9 Q 814.6 454.6, 814.6 450.2 " fill="#000000"/>
<path class="atom-12" d="M 831.4 457.1 L 835.3 457.1 L 835.3 443.8 L 831.0 445.2 L 830.4 443.7 L 835.9 441.3 L 837.6 441.6 L 837.6 457.1 L 841.1 457.1 L 841.1 459.1 L 831.4 459.1 L 831.4 457.1 " fill="#000000"/>
<path class="atom-12" d="M 851.9 449.7 Q 853.6 450.2, 854.4 451.4 Q 855.3 452.5, 855.3 454.2 Q 855.3 455.7, 854.5 456.9 Q 853.8 458.0, 852.4 458.7 Q 851.0 459.3, 849.2 459.3 Q 847.3 459.3, 845.9 458.7 Q 844.5 458.0, 843.4 456.6 L 844.8 455.2 Q 845.9 456.4, 846.8 456.9 Q 847.7 457.3, 849.2 457.3 Q 850.8 457.3, 851.8 456.5 Q 852.8 455.6, 852.8 454.2 Q 852.8 452.4, 851.7 451.6 Q 850.7 450.8, 848.6 450.8 L 847.3 450.8 L 847.3 449.0 L 848.4 449.0 Q 850.3 448.9, 851.4 448.1 Q 852.4 447.3, 852.4 445.7 Q 852.4 444.5, 851.5 443.9 Q 850.7 443.2, 849.2 443.2 Q 847.8 443.2, 846.8 443.7 Q 845.9 444.2, 845.2 445.5 L 843.5 444.6 Q 844.1 443.1, 845.6 442.2 Q 847.1 441.2, 849.2 441.2 Q 851.8 441.2, 853.4 442.4 Q 854.9 443.6, 854.9 445.7 Q 854.9 447.1, 854.1 448.1 Q 853.3 449.2, 851.9 449.7 " fill="#000000"/>
<path class="atom-13" d="M 222.0 653.3 Q 222.0 648.9, 224.0 646.6 Q 226.1 644.3, 230.0 644.3 Q 233.7 644.3, 235.6 646.8 L 234.0 648.2 Q 232.5 646.3, 230.0 646.3 Q 227.3 646.3, 225.9 648.1 Q 224.5 649.9, 224.5 653.3 Q 224.5 656.8, 226.0 658.6 Q 227.4 660.4, 230.3 660.4 Q 232.2 660.4, 234.5 659.2 L 235.2 661.1 Q 234.3 661.7, 232.9 662.0 Q 231.5 662.4, 229.9 662.4 Q 226.1 662.4, 224.0 660.0 Q 222.0 657.7, 222.0 653.3 " fill="#000000"/>
<path class="atom-13" d="M 238.9 660.2 L 242.7 660.2 L 242.7 646.9 L 238.5 648.3 L 237.9 646.8 L 243.3 644.4 L 245.1 644.7 L 245.1 660.2 L 248.6 660.2 L 248.6 662.2 L 238.9 662.2 L 238.9 660.2 " fill="#000000"/>
<path class="atom-13" d="M 262.4 656.1 L 264.5 656.1 L 264.5 658.1 L 262.4 658.1 L 262.4 662.2 L 260.0 662.2 L 260.0 658.1 L 250.9 658.1 L 250.9 656.5 L 258.6 644.5 L 262.4 644.5 L 262.4 656.1 M 253.8 656.1 L 260.0 656.1 L 260.0 646.1 L 253.8 656.1 " fill="#000000"/>
<path class="atom-14" d="M 403.7 714.1 Q 403.7 709.7, 405.7 707.4 Q 407.8 705.1, 411.7 705.1 Q 415.4 705.1, 417.3 707.7 L 415.7 709.0 Q 414.2 707.1, 411.7 707.1 Q 409.0 707.1, 407.6 708.9 Q 406.2 710.7, 406.2 714.1 Q 406.2 717.6, 407.7 719.4 Q 409.1 721.2, 412.0 721.2 Q 413.9 721.2, 416.2 720.0 L 416.9 721.9 Q 416.0 722.5, 414.6 722.9 Q 413.2 723.2, 411.6 723.2 Q 407.8 723.2, 405.7 720.9 Q 403.7 718.5, 403.7 714.1 " fill="#000000"/>
<path class="atom-14" d="M 420.5 721.0 L 424.4 721.0 L 424.4 707.8 L 420.1 709.1 L 419.5 707.6 L 424.9 705.2 L 426.7 705.5 L 426.7 721.0 L 430.2 721.0 L 430.2 723.0 L 420.5 723.0 L 420.5 721.0 " fill="#000000"/>
<path class="atom-14" d="M 438.9 711.9 Q 440.4 711.9, 441.7 712.6 Q 443.0 713.2, 443.7 714.5 Q 444.4 715.7, 444.4 717.4 Q 444.4 719.2, 443.5 720.5 Q 442.6 721.8, 441.2 722.5 Q 439.7 723.2, 438.1 723.2 Q 436.5 723.2, 435.0 722.6 Q 433.5 722.0, 432.4 720.8 L 433.9 719.3 Q 434.8 720.2, 435.9 720.7 Q 437.0 721.2, 438.2 721.2 Q 439.7 721.2, 440.8 720.2 Q 441.9 719.2, 441.9 717.4 Q 441.9 715.6, 440.8 714.7 Q 439.7 713.8, 438.0 713.8 Q 436.5 713.8, 434.7 714.5 L 433.4 713.8 L 434.2 705.3 L 443.3 705.3 L 443.1 707.3 L 436.3 707.3 L 435.7 712.5 Q 437.3 711.9, 438.9 711.9 " fill="#000000"/>
<path class="atom-15" d="M 145.7 448.4 Q 145.7 444.0, 147.8 441.7 Q 149.9 439.3, 153.8 439.3 Q 157.4 439.3, 159.4 441.9 L 157.7 443.3 Q 156.3 441.4, 153.8 441.4 Q 151.1 441.4, 149.7 443.2 Q 148.3 445.0, 148.3 448.4 Q 148.3 451.9, 149.7 453.7 Q 151.2 455.5, 154.1 455.5 Q 156.0 455.5, 158.3 454.3 L 159.0 456.2 Q 158.1 456.8, 156.7 457.1 Q 155.3 457.5, 153.7 457.5 Q 149.9 457.5, 147.8 455.1 Q 145.7 452.8, 145.7 448.4 " fill="#000000"/>
<path class="atom-15" d="M 162.6 455.2 L 166.5 455.2 L 166.5 442.0 L 162.2 443.3 L 161.6 441.9 L 167.0 439.4 L 168.8 439.7 L 168.8 455.2 L 172.3 455.2 L 172.3 457.2 L 162.6 457.2 L 162.6 455.2 " fill="#000000"/>
<path class="atom-15" d="M 181.5 446.2 Q 183.0 446.2, 184.3 446.9 Q 185.5 447.5, 186.2 448.8 Q 186.8 450.0, 186.8 451.5 Q 186.8 453.3, 186.1 454.6 Q 185.3 455.9, 184.0 456.7 Q 182.6 457.4, 180.9 457.4 Q 177.7 457.4, 176.1 455.3 Q 174.6 453.2, 174.6 448.9 Q 174.6 444.2, 176.5 441.8 Q 178.5 439.3, 182.3 439.3 Q 183.4 439.3, 184.3 439.6 Q 185.2 439.8, 186.1 440.4 L 185.2 442.0 Q 183.9 441.3, 182.3 441.3 Q 179.8 441.3, 178.5 443.0 Q 177.2 444.6, 177.1 447.9 Q 178.0 447.1, 179.1 446.6 Q 180.3 446.2, 181.5 446.2 M 180.9 455.4 Q 181.9 455.4, 182.6 454.9 Q 183.4 454.4, 183.9 453.5 Q 184.3 452.6, 184.3 451.6 Q 184.3 450.0, 183.5 449.1 Q 182.6 448.2, 181.0 448.2 Q 180.0 448.2, 178.9 448.6 Q 177.8 449.1, 177.1 449.8 Q 177.2 452.7, 178.1 454.1 Q 179.0 455.4, 180.9 455.4 " fill="#000000"/>
<path class="atom-16" d="M 841.7 570.9 Q 841.7 566.5, 843.8 564.2 Q 845.9 561.8, 849.8 561.8 Q 853.4 561.8, 855.4 564.4 L 853.7 565.8 Q 852.3 563.9, 849.8 563.9 Q 847.1 563.9, 845.7 565.7 Q 844.3 567.5, 844.3 570.9 Q 844.3 574.4, 845.7 576.2 Q 847.2 578.0, 850.1 578.0 Q 852.0 578.0, 854.3 576.8 L 855.0 578.7 Q 854.1 579.3, 852.7 579.6 Q 851.3 580.0, 849.7 580.0 Q 845.9 580.0, 843.8 577.6 Q 841.7 575.3, 841.7 570.9 " fill="#000000"/>
<path class="atom-16" d="M 858.6 577.7 L 862.4 577.7 L 862.4 564.5 L 858.2 565.8 L 857.6 564.4 L 863.0 561.9 L 864.8 562.2 L 864.8 577.7 L 868.3 577.7 L 868.3 579.7 L 858.6 579.7 L 858.6 577.7 " fill="#000000"/>
<path class="atom-16" d="M 879.8 564.0 L 870.5 564.0 L 870.5 562.0 L 882.3 562.0 L 882.3 563.8 L 875.1 579.7 L 872.7 579.7 L 879.8 564.0 " fill="#000000"/>
<path class="atom-17" d="M 117.7 568.9 Q 117.7 564.5, 119.8 562.2 Q 121.8 559.9, 125.8 559.9 Q 129.4 559.9, 131.4 562.4 L 129.7 563.8 Q 128.3 561.9, 125.8 561.9 Q 123.1 561.9, 121.7 563.7 Q 120.3 565.5, 120.3 568.9 Q 120.3 572.4, 121.7 574.2 Q 123.2 576.0, 126.0 576.0 Q 128.0 576.0, 130.3 574.8 L 131.0 576.7 Q 130.0 577.3, 128.6 577.6 Q 127.2 578.0, 125.7 578.0 Q 121.8 578.0, 119.8 575.6 Q 117.7 573.3, 117.7 568.9 " fill="#000000"/>
<path class="atom-17" d="M 134.6 575.8 L 138.5 575.8 L 138.5 562.5 L 134.2 563.9 L 133.6 562.4 L 139.0 560.0 L 140.8 560.3 L 140.8 575.8 L 144.3 575.8 L 144.3 577.8 L 134.6 577.8 L 134.6 575.8 " fill="#000000"/>
<path class="atom-17" d="M 155.6 568.4 Q 157.2 569.1, 158.1 570.1 Q 159.1 571.2, 159.1 572.9 Q 159.1 574.4, 158.3 575.6 Q 157.5 576.7, 156.1 577.4 Q 154.7 578.0, 152.9 578.0 Q 150.0 578.0, 148.3 576.7 Q 146.6 575.3, 146.6 572.9 Q 146.6 571.5, 147.3 570.4 Q 148.1 569.3, 149.6 568.5 Q 148.5 567.8, 147.8 566.9 Q 147.2 565.9, 147.2 564.4 Q 147.2 562.3, 148.7 561.1 Q 150.2 559.9, 152.8 559.9 Q 155.4 559.9, 156.9 561.1 Q 158.4 562.3, 158.4 564.4 Q 158.4 565.7, 157.7 566.7 Q 157.0 567.6, 155.6 568.4 M 152.8 561.7 Q 151.3 561.7, 150.5 562.4 Q 149.7 563.1, 149.7 564.4 Q 149.7 565.3, 150.3 565.9 Q 150.8 566.5, 151.6 566.9 Q 152.4 567.2, 153.9 567.8 Q 155.0 567.0, 155.4 566.2 Q 155.9 565.4, 155.9 564.4 Q 155.9 563.1, 155.1 562.4 Q 154.3 561.7, 152.8 561.7 M 152.9 576.1 Q 154.6 576.1, 155.6 575.3 Q 156.6 574.4, 156.6 572.9 Q 156.6 571.9, 156.0 571.3 Q 155.5 570.7, 154.7 570.4 Q 153.9 570.0, 152.5 569.6 L 151.4 569.2 Q 150.2 570.0, 149.6 570.9 Q 149.1 571.7, 149.1 572.9 Q 149.1 574.4, 150.1 575.3 Q 151.2 576.1, 152.9 576.1 " fill="#000000"/>
<text x="1000" y="50" font-size="8" font-family="Verdana" font-weight="normal" letter-spacing="0" text-anchor="start" fill="black">Highlighted Atoms:
Primary SOM: Red
Secondary SOM: Green
Tertiary SOM: Cyan
</text></svg>
