<?xml version='1.0' encoding='ASCII' standalone='yes'?>
<svg xmlns="http://www.w3.org/2000/svg" xmlns:rdkit="http://www.rdkit.org/xml" xmlns:xlink="http://www.w3.org/1999/xlink" style="background-color: white;" version="1.1" baseProfile="full" xml:space="preserve" width="1000px" height="1000px" viewBox="0 0 1000 1000">
<!-- END OF HEADER -->
<rect style="opacity:1.0;fill:#FFFFFF;stroke:none" width="1000.0" height="1000.0" x="0.0" y="0.0"> </rect>
<ellipse cx="423.3" cy="694.7" rx="28.8" ry="25.4" class="atom-12" style="fill:#B20000;fill-rule:evenodd;stroke:#B20000;stroke-width:1.0px;stroke-linecap:butt;stroke-linejoin:miter;stroke-opacity:1"/>
<path class="bond-0 atom-1 atom-0" d="M 517.1,556.2 L 549.2,537.7" style="fill:none;fill-rule:evenodd;stroke:#000000;stroke-width:2.0px;stroke-linecap:butt;stroke-linejoin:miter;stroke-opacity:1"/>
<path class="bond-1 atom-2 atom-0" d="M 569.8,453.3 L 570.0,514.1" style="fill:none;fill-rule:evenodd;stroke:#000000;stroke-width:2.0px;stroke-linecap:butt;stroke-linejoin:miter;stroke-opacity:1"/>
<path class="bond-2 atom-3 atom-0" d="M 632.8,546.2 L 578.1,528.4" style="fill:none;fill-rule:evenodd;stroke:#000000;stroke-width:2.0px;stroke-linecap:butt;stroke-linejoin:miter;stroke-opacity:1"/>
<path class="bond-3 atom-4 atom-1" d="M 432.2,530.6 L 487.1,562.4" style="fill:none;fill-rule:evenodd;stroke:#000000;stroke-width:2.0px;stroke-linecap:butt;stroke-linejoin:miter;stroke-opacity:1"/>
<path class="bond-4 atom-5 atom-1" d="M 496.6,640.8 L 496.7,579.8" style="fill:none;fill-rule:evenodd;stroke:#000000;stroke-width:2.0px;stroke-linecap:butt;stroke-linejoin:miter;stroke-opacity:1"/>
<path class="bond-5 atom-6 atom-2" d="M 625.9,423.1 L 586.5,435.9" style="fill:none;fill-rule:evenodd;stroke:#000000;stroke-width:2.0px;stroke-linecap:butt;stroke-linejoin:miter;stroke-opacity:1"/>
<path class="bond-6 atom-7 atom-2" d="M 513.6,408.7 L 553.1,431.6" style="fill:none;fill-rule:evenodd;stroke:#000000;stroke-width:2.0px;stroke-linecap:butt;stroke-linejoin:miter;stroke-opacity:1"/>
<path class="bond-7 atom-8 atom-2" d="M 571.6,386.4 L 570.2,429.6" style="fill:none;fill-rule:evenodd;stroke:#000000;stroke-width:2.0px;stroke-linecap:butt;stroke-linejoin:miter;stroke-opacity:1"/>
<path class="bond-8 atom-9 atom-3" d="M 691.4,495.4 L 658.8,540.4" style="fill:none;fill-rule:evenodd;stroke:#000000;stroke-width:2.0px;stroke-linecap:butt;stroke-linejoin:miter;stroke-opacity:1"/>
<path class="bond-9 atom-9 atom-6" d="M 691.5,471.7 L 658.9,426.8" style="fill:none;fill-rule:evenodd;stroke:#000000;stroke-width:2.0px;stroke-linecap:butt;stroke-linejoin:miter;stroke-opacity:1"/>
<path class="bond-10 atom-10 atom-4" d="M 370.4,556.2 L 402.7,537.5" style="fill:none;fill-rule:evenodd;stroke:#000000;stroke-width:2.0px;stroke-linecap:butt;stroke-linejoin:miter;stroke-opacity:1"/>
<path class="bond-11 atom-11 atom-4" d="M 423.5,453.0 L 423.5,514.1" style="fill:none;fill-rule:evenodd;stroke:#000000;stroke-width:2.0px;stroke-linecap:butt;stroke-linejoin:miter;stroke-opacity:1"/>
<path class="bond-12 atom-11 atom-7" d="M 443.8,429.3 L 479.6,408.6" style="fill:none;fill-rule:evenodd;stroke:#000000;stroke-width:2.0px;stroke-linecap:butt;stroke-linejoin:miter;stroke-opacity:1"/>
<path class="bond-13 atom-12 atom-5" d="M 443.7,682.9 L 487.0,658.0" style="fill:none;fill-rule:evenodd;stroke:#000000;stroke-width:2.0px;stroke-linecap:butt;stroke-linejoin:miter;stroke-opacity:1"/>
<path class="bond-14 atom-13 atom-6" d="M 714.5,379.0 L 659.1,410.2" style="fill:none;fill-rule:evenodd;stroke:#000000;stroke-width:2.0px;stroke-linecap:butt;stroke-linejoin:miter;stroke-opacity:1"/>
<path class="bond-15 atom-14 atom-6" d="M 625.1,347.9 L 635.6,375.7" style="fill:none;fill-rule:evenodd;stroke:#FF0000;stroke-width:2.0px;stroke-linecap:butt;stroke-linejoin:miter;stroke-opacity:1"/>
<path class="bond-15 atom-14 atom-6" d="M 635.6,375.7 L 646.1,403.5" style="fill:none;fill-rule:evenodd;stroke:#000000;stroke-width:2.0px;stroke-linecap:butt;stroke-linejoin:miter;stroke-opacity:1"/>
<path class="bond-16 atom-15 atom-10" d="M 350.1,640.6 L 350.2,579.5" style="fill:none;fill-rule:evenodd;stroke:#000000;stroke-width:2.0px;stroke-linecap:butt;stroke-linejoin:miter;stroke-opacity:1"/>
<path class="bond-17 atom-15 atom-12" d="M 359.0,657.5 L 403.0,682.9" style="fill:none;fill-rule:evenodd;stroke:#000000;stroke-width:2.0px;stroke-linecap:butt;stroke-linejoin:miter;stroke-opacity:1"/>
<path class="bond-18 atom-16 atom-10" d="M 297.2,537.2 L 329.9,556.1" style="fill:none;fill-rule:evenodd;stroke:#000000;stroke-width:2.0px;stroke-linecap:butt;stroke-linejoin:miter;stroke-opacity:1"/>
<path class="bond-19 atom-17 atom-10" d="M 350.2,495.2 L 350.2,556.2" style="fill:none;fill-rule:evenodd;stroke:#000000;stroke-width:2.0px;stroke-linecap:butt;stroke-linejoin:miter;stroke-opacity:1"/>
<path class="bond-20 atom-18 atom-11" d="M 359.2,403.8 L 386.6,419.6" style="fill:none;fill-rule:evenodd;stroke:#FF0000;stroke-width:2.0px;stroke-linecap:butt;stroke-linejoin:miter;stroke-opacity:1"/>
<path class="bond-20 atom-18 atom-11" d="M 386.6,419.6 L 413.9,435.5" style="fill:none;fill-rule:evenodd;stroke:#000000;stroke-width:2.0px;stroke-linecap:butt;stroke-linejoin:miter;stroke-opacity:1"/>
<path class="bond-21 atom-19 atom-13" d="M 776.8,404.1 L 744.3,385.3" style="fill:none;fill-rule:evenodd;stroke:#000000;stroke-width:2.0px;stroke-linecap:butt;stroke-linejoin:miter;stroke-opacity:1"/>
<path class="bond-22 atom-20 atom-13" d="M 730.6,300.9 L 730.5,331.4" style="fill:none;fill-rule:evenodd;stroke:#FF0000;stroke-width:2.0px;stroke-linecap:butt;stroke-linejoin:miter;stroke-opacity:1"/>
<path class="bond-22 atom-20 atom-13" d="M 730.5,331.4 L 730.4,361.9" style="fill:none;fill-rule:evenodd;stroke:#000000;stroke-width:2.0px;stroke-linecap:butt;stroke-linejoin:miter;stroke-opacity:1"/>
<path class="bond-22 atom-20 atom-13" d="M 718.0,300.8 L 717.9,331.3" style="fill:none;fill-rule:evenodd;stroke:#FF0000;stroke-width:2.0px;stroke-linecap:butt;stroke-linejoin:miter;stroke-opacity:1"/>
<path class="bond-22 atom-20 atom-13" d="M 717.9,331.3 L 717.8,361.8" style="fill:none;fill-rule:evenodd;stroke:#000000;stroke-width:2.0px;stroke-linecap:butt;stroke-linejoin:miter;stroke-opacity:1"/>
<path class="bond-23 atom-21 atom-15" d="M 297.2,682.8 L 329.3,664.3" style="fill:none;fill-rule:evenodd;stroke:#000000;stroke-width:2.0px;stroke-linecap:butt;stroke-linejoin:miter;stroke-opacity:1"/>
<path class="bond-23 atom-21 atom-15" d="M 291.0,671.9 L 323.0,653.4" style="fill:none;fill-rule:evenodd;stroke:#000000;stroke-width:2.0px;stroke-linecap:butt;stroke-linejoin:miter;stroke-opacity:1"/>
<path class="bond-24 atom-22 atom-16" d="M 212.5,562.6 L 256.2,537.5" style="fill:none;fill-rule:evenodd;stroke:#000000;stroke-width:2.0px;stroke-linecap:butt;stroke-linejoin:miter;stroke-opacity:1"/>
<path class="bond-25 atom-23 atom-19" d="M 859.3,379.6 L 838.2,391.8" style="fill:none;fill-rule:evenodd;stroke:#FF0000;stroke-width:2.0px;stroke-linecap:butt;stroke-linejoin:miter;stroke-opacity:1"/>
<path class="bond-25 atom-23 atom-19" d="M 838.2,391.8 L 817.1,404.1" style="fill:none;fill-rule:evenodd;stroke:#000000;stroke-width:2.0px;stroke-linecap:butt;stroke-linejoin:miter;stroke-opacity:1"/>
<path class="bond-26 atom-24 atom-21" d="M 212.3,657.3 L 256.6,682.8" style="fill:none;fill-rule:evenodd;stroke:#000000;stroke-width:2.0px;stroke-linecap:butt;stroke-linejoin:miter;stroke-opacity:1"/>
<path class="bond-27 atom-24 atom-22" d="M 203.6,640.8 L 203.7,579.6" style="fill:none;fill-rule:evenodd;stroke:#000000;stroke-width:2.0px;stroke-linecap:butt;stroke-linejoin:miter;stroke-opacity:1"/>
<path class="bond-28 atom-25 atom-24" d="M 136.2,683.9 L 157.9,671.3" style="fill:none;fill-rule:evenodd;stroke:#FF0000;stroke-width:2.0px;stroke-linecap:butt;stroke-linejoin:miter;stroke-opacity:1"/>
<path class="bond-28 atom-25 atom-24" d="M 157.9,671.3 L 179.7,658.8" style="fill:none;fill-rule:evenodd;stroke:#000000;stroke-width:2.0px;stroke-linecap:butt;stroke-linejoin:miter;stroke-opacity:1"/>
<path class="bond-28 atom-25 atom-24" d="M 142.5,694.8 L 164.2,682.2" style="fill:none;fill-rule:evenodd;stroke:#FF0000;stroke-width:2.0px;stroke-linecap:butt;stroke-linejoin:miter;stroke-opacity:1"/>
<path class="bond-28 atom-25 atom-24" d="M 164.2,682.2 L 186.0,669.7" style="fill:none;fill-rule:evenodd;stroke:#000000;stroke-width:2.0px;stroke-linecap:butt;stroke-linejoin:miter;stroke-opacity:1"/>
<path class="atom-0" d="M 548.8 525.8 Q 548.8 521.4, 550.8 519.1 Q 552.9 516.8, 556.8 516.8 Q 560.5 516.8, 562.4 519.4 L 560.8 520.7 Q 559.4 518.9, 556.8 518.9 Q 554.2 518.9, 552.7 520.7 Q 551.3 522.4, 551.3 525.8 Q 551.3 529.3, 552.8 531.1 Q 554.3 532.9, 557.1 532.9 Q 559.1 532.9, 561.3 531.8 L 562.0 533.6 Q 561.1 534.2, 559.7 534.6 Q 558.3 534.9, 556.8 534.9 Q 552.9 534.9, 550.8 532.6 Q 548.8 530.2, 548.8 525.8 " fill="#000000"/>
<path class="atom-0" d="M 565.6 532.7 L 569.5 532.7 L 569.5 519.5 L 565.2 520.8 L 564.6 519.3 L 570.1 516.9 L 571.8 517.2 L 571.8 532.7 L 575.3 532.7 L 575.3 534.7 L 565.6 534.7 L 565.6 532.7 " fill="#000000"/>
<path class="atom-1" d="M 489.9 568.0 Q 489.9 563.6, 491.9 561.3 Q 494.0 558.9, 497.9 558.9 Q 501.6 558.9, 503.5 561.5 L 501.9 562.9 Q 500.5 561.0, 497.9 561.0 Q 495.3 561.0, 493.8 562.8 Q 492.4 564.6, 492.4 568.0 Q 492.4 571.5, 493.9 573.3 Q 495.4 575.1, 498.2 575.1 Q 500.2 575.1, 502.4 573.9 L 503.1 575.8 Q 502.2 576.4, 500.8 576.7 Q 499.4 577.1, 497.9 577.1 Q 494.0 577.1, 491.9 574.7 Q 489.9 572.4, 489.9 568.0 " fill="#000000"/>
<path class="atom-1" d="M 505.9 562.5 Q 506.5 560.8, 508.1 559.9 Q 509.6 558.9, 511.8 558.9 Q 514.4 558.9, 515.9 560.4 Q 517.4 561.8, 517.4 564.4 Q 517.4 567.0, 515.5 569.5 Q 513.6 571.9, 509.6 574.8 L 517.7 574.8 L 517.7 576.8 L 505.8 576.8 L 505.8 575.2 Q 509.1 572.8, 511.1 571.1 Q 513.0 569.3, 514.0 567.7 Q 514.9 566.2, 514.9 564.5 Q 514.9 562.8, 514.1 561.9 Q 513.2 560.9, 511.8 560.9 Q 510.3 560.9, 509.4 561.5 Q 508.4 562.1, 507.8 563.4 L 505.9 562.5 " fill="#000000"/>
<path class="atom-2" d="M 555.9 441.4 Q 555.9 437.0, 557.9 434.7 Q 560.0 432.4, 563.9 432.4 Q 567.6 432.4, 569.5 435.0 L 567.9 436.3 Q 566.5 434.4, 563.9 434.4 Q 561.3 434.4, 559.8 436.2 Q 558.4 438.0, 558.4 441.4 Q 558.4 444.9, 559.9 446.7 Q 561.4 448.5, 564.2 448.5 Q 566.2 448.5, 568.4 447.3 L 569.1 449.2 Q 568.2 449.8, 566.8 450.2 Q 565.4 450.5, 563.9 450.5 Q 560.0 450.5, 557.9 448.2 Q 555.9 445.8, 555.9 441.4 " fill="#000000"/>
<path class="atom-2" d="M 580.3 441.0 Q 582.0 441.5, 582.9 442.6 Q 583.7 443.7, 583.7 445.4 Q 583.7 446.9, 583.0 448.1 Q 582.2 449.3, 580.8 449.9 Q 579.5 450.5, 577.7 450.5 Q 575.8 450.5, 574.3 449.9 Q 572.9 449.2, 571.8 447.9 L 573.2 446.4 Q 574.3 447.6, 575.3 448.1 Q 576.2 448.5, 577.7 448.5 Q 579.3 448.5, 580.2 447.7 Q 581.2 446.8, 581.2 445.4 Q 581.2 443.6, 580.2 442.8 Q 579.2 442.0, 577.0 442.0 L 575.7 442.0 L 575.7 440.2 L 576.9 440.2 Q 578.8 440.2, 579.8 439.3 Q 580.8 438.5, 580.8 436.9 Q 580.8 435.8, 580.0 435.1 Q 579.1 434.4, 577.7 434.4 Q 576.2 434.4, 575.3 434.9 Q 574.4 435.4, 573.7 436.8 L 572.0 435.8 Q 572.6 434.4, 574.1 433.4 Q 575.6 432.4, 577.7 432.4 Q 580.3 432.4, 581.8 433.6 Q 583.3 434.8, 583.3 436.9 Q 583.3 438.3, 582.6 439.4 Q 581.8 440.4, 580.3 441.0 " fill="#000000"/>
<path class="atom-3" d="M 635.6 552.0 Q 635.6 547.6, 637.6 545.3 Q 639.7 543.0, 643.6 543.0 Q 647.3 543.0, 649.2 545.5 L 647.6 546.9 Q 646.2 545.0, 643.6 545.0 Q 641.0 545.0, 639.5 546.8 Q 638.1 548.6, 638.1 552.0 Q 638.1 555.5, 639.6 557.3 Q 641.1 559.1, 643.9 559.1 Q 645.9 559.1, 648.1 557.9 L 648.8 559.8 Q 647.9 560.4, 646.5 560.7 Q 645.1 561.1, 643.6 561.1 Q 639.7 561.1, 637.6 558.7 Q 635.6 556.4, 635.6 552.0 " fill="#000000"/>
<path class="atom-3" d="M 663.1 554.8 L 665.2 554.8 L 665.2 556.8 L 663.1 556.8 L 663.1 560.9 L 660.8 560.9 L 660.8 556.8 L 651.6 556.8 L 651.6 555.2 L 659.4 543.2 L 663.1 543.2 L 663.1 554.8 M 654.5 554.8 L 660.8 554.8 L 660.8 544.8 L 654.5 554.8 " fill="#000000"/>
<path class="atom-4" d="M 401.5 525.7 Q 401.5 521.3, 403.6 519.0 Q 405.6 516.6, 409.6 516.6 Q 413.2 516.6, 415.2 519.2 L 413.5 520.6 Q 412.1 518.7, 409.6 518.7 Q 406.9 518.7, 405.5 520.5 Q 404.1 522.3, 404.1 525.7 Q 404.1 529.2, 405.5 531.0 Q 407.0 532.8, 409.8 532.8 Q 411.8 532.8, 414.1 531.6 L 414.8 533.5 Q 413.8 534.1, 412.4 534.4 Q 411.0 534.8, 409.5 534.8 Q 405.6 534.8, 403.6 532.4 Q 401.5 530.1, 401.5 525.7 " fill="#000000"/>
<path class="atom-4" d="M 423.9 523.5 Q 425.4 523.5, 426.7 524.1 Q 428.0 524.8, 428.7 526.0 Q 429.4 527.3, 429.4 528.9 Q 429.4 530.8, 428.5 532.1 Q 427.7 533.4, 426.2 534.1 Q 424.8 534.7, 423.1 534.7 Q 421.5 534.7, 420.0 534.1 Q 418.5 533.5, 417.5 532.4 L 419.0 530.8 Q 419.8 531.7, 420.9 532.2 Q 422.0 532.7, 423.2 532.7 Q 424.8 532.7, 425.8 531.7 Q 426.9 530.8, 426.9 529.0 Q 426.9 527.1, 425.8 526.2 Q 424.8 525.3, 423.0 525.3 Q 421.5 525.3, 419.8 526.0 L 418.4 525.4 L 419.2 516.8 L 428.3 516.8 L 428.1 518.8 L 421.3 518.8 L 420.8 524.1 Q 422.3 523.5, 423.9 523.5 " fill="#000000"/>
<path class="atom-5" d="M 489.8 652.6 Q 489.8 648.2, 491.8 645.9 Q 493.9 643.6, 497.8 643.6 Q 501.5 643.6, 503.4 646.2 L 501.8 647.5 Q 500.4 645.6, 497.8 645.6 Q 495.2 645.6, 493.7 647.4 Q 492.3 649.2, 492.3 652.6 Q 492.3 656.1, 493.8 657.9 Q 495.3 659.7, 498.1 659.7 Q 500.1 659.7, 502.3 658.5 L 503.0 660.4 Q 502.1 661.0, 500.7 661.4 Q 499.3 661.7, 497.8 661.7 Q 493.9 661.7, 491.8 659.4 Q 489.8 657.0, 489.8 652.6 " fill="#000000"/>
<path class="atom-5" d="M 512.7 650.4 Q 514.2 650.4, 515.4 651.1 Q 516.7 651.8, 517.3 653.0 Q 518.0 654.2, 518.0 655.8 Q 518.0 657.5, 517.2 658.9 Q 516.5 660.2, 515.1 660.9 Q 513.8 661.7, 512.1 661.7 Q 508.9 661.7, 507.3 659.6 Q 505.7 657.4, 505.7 653.2 Q 505.7 648.5, 507.7 646.0 Q 509.7 643.6, 513.4 643.6 Q 514.5 643.6, 515.5 643.8 Q 516.4 644.1, 517.3 644.6 L 516.3 646.3 Q 515.0 645.6, 513.5 645.6 Q 511.0 645.6, 509.7 647.2 Q 508.4 648.8, 508.3 652.1 Q 509.2 651.3, 510.3 650.9 Q 511.4 650.4, 512.7 650.4 M 512.1 659.6 Q 513.0 659.6, 513.8 659.1 Q 514.6 658.6, 515.1 657.8 Q 515.5 656.9, 515.5 655.8 Q 515.5 654.2, 514.6 653.3 Q 513.8 652.4, 512.2 652.4 Q 511.1 652.4, 510.1 652.9 Q 509.0 653.3, 508.3 654.1 Q 508.4 657.0, 509.3 658.3 Q 510.2 659.6, 512.1 659.6 " fill="#000000"/>
<path class="atom-6" d="M 628.7 415.1 Q 628.7 410.7, 630.7 408.4 Q 632.8 406.1, 636.7 406.1 Q 640.4 406.1, 642.3 408.7 L 640.7 410.0 Q 639.2 408.1, 636.7 408.1 Q 634.0 408.1, 632.6 409.9 Q 631.2 411.7, 631.2 415.1 Q 631.2 418.6, 632.7 420.4 Q 634.1 422.2, 637.0 422.2 Q 638.9 422.2, 641.2 421.0 L 641.9 422.9 Q 641.0 423.5, 639.6 423.9 Q 638.2 424.2, 636.6 424.2 Q 632.8 424.2, 630.7 421.9 Q 628.7 419.5, 628.7 415.1 " fill="#000000"/>
<path class="atom-6" d="M 653.8 408.3 L 644.6 408.3 L 644.6 406.3 L 656.3 406.3 L 656.3 408.1 L 649.2 424.0 L 646.8 424.0 L 653.8 408.3 " fill="#000000"/>
<path class="atom-7" d="M 482.4 398.9 Q 482.4 394.5, 484.4 392.2 Q 486.5 389.8, 490.4 389.8 Q 494.1 389.8, 496.0 392.4 L 494.4 393.8 Q 493.0 391.9, 490.4 391.9 Q 487.8 391.9, 486.3 393.7 Q 484.9 395.5, 484.9 398.9 Q 484.9 402.4, 486.4 404.2 Q 487.9 406.0, 490.7 406.0 Q 492.7 406.0, 494.9 404.8 L 495.6 406.7 Q 494.7 407.3, 493.3 407.6 Q 491.9 408.0, 490.4 408.0 Q 486.5 408.0, 484.4 405.6 Q 482.4 403.3, 482.4 398.9 " fill="#000000"/>
<path class="atom-7" d="M 507.4 398.4 Q 509.0 399.1, 509.9 400.1 Q 510.8 401.1, 510.8 402.9 Q 510.8 404.4, 510.1 405.6 Q 509.3 406.7, 507.9 407.4 Q 506.5 408.0, 504.7 408.0 Q 501.7 408.0, 500.0 406.6 Q 498.3 405.3, 498.3 402.9 Q 498.3 401.4, 499.1 400.4 Q 499.8 399.3, 501.4 398.4 Q 500.2 397.8, 499.6 396.8 Q 499.0 395.9, 499.0 394.4 Q 499.0 392.3, 500.5 391.1 Q 502.0 389.8, 504.6 389.8 Q 507.2 389.8, 508.7 391.1 Q 510.2 392.3, 510.2 394.4 Q 510.2 395.7, 509.5 396.6 Q 508.8 397.6, 507.4 398.4 M 504.6 391.7 Q 503.1 391.7, 502.3 392.4 Q 501.5 393.1, 501.5 394.4 Q 501.5 395.3, 502.0 395.9 Q 502.6 396.5, 503.4 396.9 Q 504.2 397.2, 505.7 397.7 Q 506.8 397.0, 507.2 396.2 Q 507.7 395.4, 507.7 394.4 Q 507.7 393.1, 506.9 392.4 Q 506.1 391.7, 504.6 391.7 M 504.7 406.1 Q 506.3 406.1, 507.3 405.2 Q 508.3 404.3, 508.3 402.9 Q 508.3 401.9, 507.8 401.3 Q 507.3 400.7, 506.5 400.4 Q 505.7 400.0, 504.3 399.6 L 503.2 399.2 Q 501.9 399.9, 501.4 400.8 Q 500.8 401.7, 500.8 402.9 Q 500.8 404.3, 501.9 405.2 Q 502.9 406.1, 504.7 406.1 " fill="#000000"/>
<path class="atom-8" d="M 565.2 374.5 Q 565.2 370.1, 567.2 367.8 Q 569.3 365.5, 573.2 365.5 Q 576.9 365.5, 578.8 368.0 L 577.2 369.4 Q 575.7 367.5, 573.2 367.5 Q 570.5 367.5, 569.1 369.3 Q 567.7 371.1, 567.7 374.5 Q 567.7 378.0, 569.2 379.8 Q 570.6 381.6, 573.5 381.6 Q 575.4 381.6, 577.7 380.4 L 578.4 382.3 Q 577.5 382.9, 576.1 383.2 Q 574.7 383.6, 573.1 383.6 Q 569.3 383.6, 567.2 381.2 Q 565.2 378.9, 565.2 374.5 " fill="#000000"/>
<path class="atom-8" d="M 587.1 365.5 Q 590.2 365.5, 591.8 367.6 Q 593.4 369.7, 593.4 374.0 Q 593.4 378.7, 591.4 381.1 Q 589.5 383.6, 585.7 383.6 Q 584.6 383.6, 583.6 383.3 Q 582.7 383.1, 581.8 382.5 L 582.8 380.9 Q 584.1 381.6, 585.7 381.6 Q 588.2 381.6, 589.4 380.0 Q 590.7 378.3, 590.9 375.0 Q 590.0 375.8, 588.8 376.3 Q 587.7 376.7, 586.5 376.7 Q 584.9 376.7, 583.7 376.0 Q 582.5 375.4, 581.8 374.1 Q 581.1 372.9, 581.1 371.4 Q 581.1 369.6, 581.9 368.3 Q 582.6 367.0, 584.0 366.2 Q 585.3 365.5, 587.1 365.5 M 583.6 371.3 Q 583.6 372.9, 584.5 373.8 Q 585.4 374.7, 586.9 374.7 Q 588.0 374.7, 589.0 374.3 Q 590.1 373.8, 590.9 373.1 Q 590.8 370.2, 589.8 368.8 Q 588.9 367.5, 587.0 367.5 Q 586.1 367.5, 585.3 368.0 Q 584.5 368.5, 584.1 369.4 Q 583.6 370.3, 583.6 371.3 " fill="#000000"/>
<path class="atom-9" d="M 693.2 483.5 Q 693.2 479.1, 695.3 476.8 Q 697.3 474.5, 701.3 474.5 Q 704.9 474.5, 706.9 477.0 L 705.2 478.4 Q 703.8 476.5, 701.3 476.5 Q 698.6 476.5, 697.2 478.3 Q 695.8 480.1, 695.8 483.5 Q 695.8 487.0, 697.2 488.8 Q 698.7 490.6, 701.5 490.6 Q 703.5 490.6, 705.8 489.4 L 706.5 491.3 Q 705.5 491.9, 704.1 492.2 Q 702.7 492.6, 701.2 492.6 Q 697.3 492.6, 695.3 490.2 Q 693.2 487.9, 693.2 483.5 " fill="#000000"/>
<path class="atom-9" d="M 710.1 490.4 L 713.9 490.4 L 713.9 477.1 L 709.7 478.5 L 709.1 477.0 L 714.5 474.6 L 716.3 474.9 L 716.3 490.4 L 719.8 490.4 L 719.8 492.4 L 710.1 492.4 L 710.1 490.4 " fill="#000000"/>
<path class="atom-9" d="M 728.5 492.6 Q 725.3 492.6, 723.7 490.2 Q 722.1 487.8, 722.1 483.5 Q 722.1 479.2, 723.7 476.8 Q 725.3 474.5, 728.5 474.5 Q 731.8 474.5, 733.4 476.8 Q 735.0 479.2, 735.0 483.5 Q 735.0 487.8, 733.4 490.2 Q 731.8 492.6, 728.5 492.6 M 728.5 490.6 Q 730.5 490.6, 731.5 488.8 Q 732.5 487.0, 732.5 483.5 Q 732.5 480.0, 731.5 478.2 Q 730.5 476.5, 728.5 476.5 Q 726.6 476.5, 725.6 478.2 Q 724.6 480.0, 724.6 483.5 Q 724.6 487.0, 725.6 488.8 Q 726.6 490.6, 728.5 490.6 " fill="#000000"/>
<path class="atom-10" d="M 330.5 567.9 Q 330.5 563.5, 332.6 561.2 Q 334.6 558.8, 338.6 558.8 Q 342.2 558.8, 344.2 561.4 L 342.5 562.8 Q 341.1 560.9, 338.6 560.9 Q 335.9 560.9, 334.5 562.7 Q 333.1 564.5, 333.1 567.9 Q 333.1 571.4, 334.5 573.2 Q 336.0 575.0, 338.8 575.0 Q 340.8 575.0, 343.1 573.8 L 343.8 575.7 Q 342.8 576.3, 341.4 576.6 Q 340.0 577.0, 338.5 577.0 Q 334.6 577.0, 332.6 574.6 Q 330.5 572.3, 330.5 567.9 " fill="#000000"/>
<path class="atom-10" d="M 347.3 574.7 L 351.2 574.7 L 351.2 561.5 L 346.9 562.8 L 346.3 561.4 L 351.8 558.9 L 353.5 559.2 L 353.5 574.7 L 357.0 574.7 L 357.0 576.7 L 347.3 576.7 L 347.3 574.7 " fill="#000000"/>
<path class="atom-10" d="M 360.2 574.7 L 364.1 574.7 L 364.1 561.5 L 359.8 562.8 L 359.2 561.4 L 364.6 558.9 L 366.4 559.2 L 366.4 574.7 L 369.9 574.7 L 369.9 576.7 L 360.2 576.7 L 360.2 574.7 " fill="#000000"/>
<path class="atom-11" d="M 416.7 441.1 Q 416.7 436.7, 418.8 434.4 Q 420.8 432.1, 424.8 432.1 Q 428.4 432.1, 430.4 434.7 L 428.7 436.0 Q 427.3 434.1, 424.8 434.1 Q 422.1 434.1, 420.7 435.9 Q 419.3 437.7, 419.3 441.1 Q 419.3 444.6, 420.7 446.4 Q 422.2 448.2, 425.0 448.2 Q 427.0 448.2, 429.3 447.0 L 430.0 448.9 Q 429.0 449.5, 427.6 449.9 Q 426.2 450.2, 424.7 450.2 Q 420.8 450.2, 418.8 447.9 Q 416.7 445.5, 416.7 441.1 " fill="#000000"/>
<path class="atom-11" d="M 433.5 448.0 L 437.4 448.0 L 437.4 434.8 L 433.1 436.1 L 432.6 434.6 L 438.0 432.2 L 439.8 432.5 L 439.8 448.0 L 443.2 448.0 L 443.2 450.0 L 433.5 450.0 L 433.5 448.0 " fill="#000000"/>
<path class="atom-11" d="M 445.5 435.6 Q 446.2 434.0, 447.7 433.0 Q 449.3 432.1, 451.4 432.1 Q 454.1 432.1, 455.6 433.5 Q 457.1 435.0, 457.1 437.6 Q 457.1 440.2, 455.2 442.6 Q 453.2 445.1, 449.2 448.0 L 457.4 448.0 L 457.4 450.0 L 445.5 450.0 L 445.5 448.3 Q 448.8 446.0, 450.7 444.2 Q 452.7 442.5, 453.7 440.9 Q 454.6 439.3, 454.6 437.7 Q 454.6 436.0, 453.8 435.0 Q 452.9 434.1, 451.4 434.1 Q 450.0 434.1, 449.1 434.7 Q 448.1 435.2, 447.4 436.5 L 445.5 435.6 " fill="#000000"/>
<path class="atom-12" d="M 403.0 694.7 Q 403.0 690.3, 405.0 688.0 Q 407.1 685.7, 411.0 685.7 Q 414.7 685.7, 416.6 688.2 L 415.0 689.6 Q 413.5 687.7, 411.0 687.7 Q 408.3 687.7, 406.9 689.5 Q 405.5 691.3, 405.5 694.7 Q 405.5 698.2, 407.0 700.0 Q 408.4 701.8, 411.3 701.8 Q 413.2 701.8, 415.5 700.6 L 416.2 702.5 Q 415.3 703.1, 413.9 703.4 Q 412.5 703.8, 410.9 703.8 Q 407.1 703.8, 405.0 701.4 Q 403.0 699.1, 403.0 694.7 " fill="#000000"/>
<path class="atom-12" d="M 419.8 701.6 L 423.7 701.6 L 423.7 688.3 L 419.4 689.7 L 418.8 688.2 L 424.2 685.8 L 426.0 686.1 L 426.0 701.6 L 429.5 701.6 L 429.5 703.6 L 419.8 703.6 L 419.8 701.6 " fill="#000000"/>
<path class="atom-12" d="M 440.3 694.2 Q 442.0 694.7, 442.8 695.9 Q 443.7 697.0, 443.7 698.7 Q 443.7 700.2, 442.9 701.4 Q 442.2 702.5, 440.8 703.2 Q 439.4 703.8, 437.6 703.8 Q 435.7 703.8, 434.3 703.2 Q 432.9 702.5, 431.8 701.1 L 433.2 699.7 Q 434.3 700.9, 435.2 701.4 Q 436.1 701.8, 437.6 701.8 Q 439.2 701.8, 440.2 701.0 Q 441.2 700.1, 441.2 698.7 Q 441.2 696.9, 440.1 696.1 Q 439.1 695.3, 437.0 695.3 L 435.7 695.3 L 435.7 693.5 L 436.8 693.5 Q 438.7 693.4, 439.8 692.6 Q 440.8 691.8, 440.8 690.2 Q 440.8 689.0, 439.9 688.4 Q 439.1 687.7, 437.6 687.7 Q 436.2 687.7, 435.2 688.2 Q 434.3 688.7, 433.6 690.0 L 431.9 689.1 Q 432.5 687.6, 434.0 686.7 Q 435.5 685.7, 437.6 685.7 Q 440.2 685.7, 441.8 686.9 Q 443.3 688.1, 443.3 690.2 Q 443.3 691.6, 442.5 692.6 Q 441.7 693.7, 440.3 694.2 " fill="#000000"/>
<path class="atom-13" d="M 717.2 373.7 Q 717.2 369.3, 719.3 367.0 Q 721.4 364.6, 725.3 364.6 Q 728.9 364.6, 730.9 367.2 L 729.2 368.6 Q 727.8 366.7, 725.3 366.7 Q 722.6 366.7, 721.2 368.5 Q 719.8 370.3, 719.8 373.7 Q 719.8 377.2, 721.2 379.0 Q 722.7 380.8, 725.6 380.8 Q 727.5 380.8, 729.8 379.6 L 730.5 381.5 Q 729.6 382.1, 728.2 382.4 Q 726.8 382.8, 725.2 382.8 Q 721.4 382.8, 719.3 380.4 Q 717.2 378.1, 717.2 373.7 " fill="#000000"/>
<path class="atom-13" d="M 734.1 380.5 L 738.0 380.5 L 738.0 367.3 L 733.7 368.6 L 733.1 367.2 L 738.6 364.7 L 740.3 365.0 L 740.3 380.5 L 743.8 380.5 L 743.8 382.5 L 734.1 382.5 L 734.1 380.5 " fill="#000000"/>
<path class="atom-13" d="M 757.6 376.5 L 759.8 376.5 L 759.8 378.5 L 757.6 378.5 L 757.6 382.5 L 755.3 382.5 L 755.3 378.5 L 746.1 378.5 L 746.1 376.9 L 753.9 364.8 L 757.6 364.8 L 757.6 376.5 M 749.0 376.5 L 755.3 376.5 L 755.3 366.4 L 749.0 376.5 " fill="#000000"/>
<path class="atom-14" d="M 582.8 336.0 Q 582.8 331.8, 584.9 329.4 Q 587.0 327.0, 591.0 327.0 Q 594.9 327.0, 597.0 329.4 Q 599.1 331.8, 599.1 336.0 Q 599.1 340.3, 597.0 342.8 Q 594.8 345.2, 591.0 345.2 Q 587.1 345.2, 584.9 342.8 Q 582.8 340.3, 582.8 336.0 M 591.0 343.2 Q 593.7 343.2, 595.1 341.4 Q 596.6 339.6, 596.6 336.0 Q 596.6 332.5, 595.1 330.8 Q 593.7 329.0, 591.0 329.0 Q 588.3 329.0, 586.8 330.8 Q 585.3 332.5, 585.3 336.0 Q 585.3 339.6, 586.8 341.4 Q 588.3 343.2, 591.0 343.2 " fill="#FF0000"/>
<path class="atom-14" d="M 602.6 342.9 L 606.5 342.9 L 606.5 329.7 L 602.2 331.0 L 601.6 329.5 L 607.1 327.1 L 608.8 327.4 L 608.8 342.9 L 612.3 342.9 L 612.3 344.9 L 602.6 344.9 L 602.6 342.9 " fill="#FF0000"/>
<path class="atom-14" d="M 621.1 333.8 Q 622.6 333.8, 623.9 334.5 Q 625.2 335.2, 625.9 336.4 Q 626.6 337.6, 626.6 339.3 Q 626.6 341.1, 625.7 342.5 Q 624.9 343.8, 623.4 344.4 Q 622.0 345.1, 620.3 345.1 Q 618.7 345.1, 617.2 344.5 Q 615.7 343.9, 614.7 342.8 L 616.2 341.2 Q 617.0 342.1, 618.1 342.6 Q 619.2 343.1, 620.4 343.1 Q 622.0 343.1, 623.0 342.1 Q 624.1 341.1, 624.1 339.4 Q 624.1 337.5, 623.0 336.6 Q 622.0 335.7, 620.2 335.7 Q 618.7 335.7, 617.0 336.4 L 615.6 335.7 L 616.4 327.2 L 625.5 327.2 L 625.3 329.2 L 618.5 329.2 L 618.0 334.5 Q 619.5 333.8, 621.1 333.8 " fill="#FF0000"/>
<path class="atom-15" d="M 315.1 652.4 Q 315.1 648.0, 317.1 645.7 Q 319.2 643.4, 323.1 643.4 Q 326.8 643.4, 328.7 646.0 L 327.1 647.3 Q 325.7 645.4, 323.1 645.4 Q 320.5 645.4, 319.0 647.2 Q 317.6 649.0, 317.6 652.4 Q 317.6 655.9, 319.1 657.7 Q 320.6 659.5, 323.4 659.5 Q 325.4 659.5, 327.6 658.3 L 328.3 660.2 Q 327.4 660.8, 326.0 661.2 Q 324.6 661.5, 323.1 661.5 Q 319.2 661.5, 317.1 659.2 Q 315.1 656.8, 315.1 652.4 " fill="#000000"/>
<path class="atom-15" d="M 331.9 659.3 L 335.8 659.3 L 335.8 646.1 L 331.5 647.4 L 331.0 645.9 L 336.4 643.5 L 338.2 643.8 L 338.2 659.3 L 341.6 659.3 L 341.6 661.3 L 331.9 661.3 L 331.9 659.3 " fill="#000000"/>
<path class="atom-15" d="M 350.8 650.2 Q 352.4 650.2, 353.6 650.9 Q 354.8 651.6, 355.5 652.8 Q 356.2 654.0, 356.2 655.6 Q 356.2 657.3, 355.4 658.7 Q 354.7 660.0, 353.3 660.7 Q 352.0 661.5, 350.2 661.5 Q 347.1 661.5, 345.5 659.4 Q 343.9 657.2, 343.9 653.0 Q 343.9 648.3, 345.9 645.8 Q 347.8 643.4, 351.6 643.4 Q 352.7 643.4, 353.6 643.6 Q 354.6 643.9, 355.5 644.4 L 354.5 646.1 Q 353.2 645.4, 351.6 645.4 Q 349.1 645.4, 347.9 647.0 Q 346.6 648.6, 346.4 651.9 Q 347.3 651.1, 348.5 650.7 Q 349.6 650.2, 350.8 650.2 M 350.3 659.4 Q 351.2 659.4, 352.0 658.9 Q 352.8 658.4, 353.2 657.6 Q 353.7 656.7, 353.7 655.6 Q 353.7 654.0, 352.8 653.1 Q 351.9 652.2, 350.4 652.2 Q 349.3 652.2, 348.2 652.7 Q 347.2 653.1, 346.4 653.9 Q 346.5 656.8, 347.5 658.1 Q 348.4 659.4, 350.3 659.4 " fill="#000000"/>
<path class="atom-16" d="M 256.6 525.6 Q 256.6 521.2, 258.7 518.9 Q 260.8 516.6, 264.7 516.6 Q 268.3 516.6, 270.3 519.1 L 268.6 520.5 Q 267.2 518.6, 264.7 518.6 Q 262.0 518.6, 260.6 520.4 Q 259.2 522.2, 259.2 525.6 Q 259.2 529.1, 260.6 530.9 Q 262.1 532.7, 265.0 532.7 Q 266.9 532.7, 269.2 531.5 L 269.9 533.4 Q 269.0 534.0, 267.6 534.3 Q 266.2 534.7, 264.6 534.7 Q 260.8 534.7, 258.7 532.3 Q 256.6 530.0, 256.6 525.6 " fill="#000000"/>
<path class="atom-16" d="M 273.5 532.5 L 277.3 532.5 L 277.3 519.2 L 273.1 520.6 L 272.5 519.1 L 277.9 516.7 L 279.7 517.0 L 279.7 532.5 L 283.2 532.5 L 283.2 534.5 L 273.5 534.5 L 273.5 532.5 " fill="#000000"/>
<path class="atom-16" d="M 294.7 518.8 L 285.4 518.8 L 285.4 516.8 L 297.2 516.8 L 297.2 518.5 L 290.0 534.5 L 287.6 534.5 L 294.7 518.8 " fill="#000000"/>
<path class="atom-17" d="M 343.4 483.3 Q 343.4 478.9, 345.4 476.6 Q 347.5 474.3, 351.4 474.3 Q 355.1 474.3, 357.0 476.9 L 355.4 478.2 Q 354.0 476.3, 351.4 476.3 Q 348.8 476.3, 347.3 478.1 Q 345.9 479.9, 345.9 483.3 Q 345.9 486.8, 347.4 488.6 Q 348.9 490.4, 351.7 490.4 Q 353.7 490.4, 355.9 489.2 L 356.6 491.1 Q 355.7 491.7, 354.3 492.1 Q 352.9 492.4, 351.4 492.4 Q 347.5 492.4, 345.4 490.1 Q 343.4 487.7, 343.4 483.3 " fill="#000000"/>
<path class="atom-17" d="M 360.2 490.2 L 364.1 490.2 L 364.1 477.0 L 359.8 478.3 L 359.3 476.8 L 364.7 474.4 L 366.5 474.7 L 366.5 490.2 L 369.9 490.2 L 369.9 492.2 L 360.2 492.2 L 360.2 490.2 " fill="#000000"/>
<path class="atom-17" d="M 381.2 482.8 Q 382.9 483.5, 383.8 484.6 Q 384.7 485.6, 384.7 487.3 Q 384.7 488.8, 383.9 490.0 Q 383.2 491.2, 381.8 491.8 Q 380.4 492.4, 378.6 492.4 Q 375.6 492.4, 373.9 491.1 Q 372.2 489.7, 372.2 487.3 Q 372.2 485.9, 373.0 484.8 Q 373.7 483.7, 375.3 482.9 Q 374.1 482.2, 373.5 481.3 Q 372.9 480.3, 372.9 478.8 Q 372.9 476.7, 374.4 475.5 Q 375.9 474.3, 378.5 474.3 Q 381.0 474.3, 382.5 475.5 Q 384.1 476.7, 384.1 478.8 Q 384.1 480.1, 383.3 481.1 Q 382.6 482.0, 381.2 482.8 M 378.5 476.2 Q 377.0 476.2, 376.2 476.9 Q 375.4 477.6, 375.4 478.8 Q 375.4 479.7, 375.9 480.4 Q 376.5 481.0, 377.2 481.3 Q 378.0 481.7, 379.6 482.2 Q 380.6 481.4, 381.1 480.6 Q 381.6 479.8, 381.6 478.8 Q 381.6 477.6, 380.7 476.9 Q 379.9 476.2, 378.5 476.2 M 378.6 490.6 Q 380.2 490.6, 381.2 489.7 Q 382.2 488.8, 382.2 487.3 Q 382.2 486.4, 381.7 485.8 Q 381.2 485.2, 380.4 484.8 Q 379.6 484.5, 378.2 484.0 L 377.1 483.6 Q 375.8 484.4, 375.3 485.3 Q 374.7 486.2, 374.7 487.3 Q 374.7 488.8, 375.8 489.7 Q 376.8 490.6, 378.6 490.6 " fill="#000000"/>
<path class="atom-18" d="M 312.3 398.7 Q 312.3 394.5, 314.4 392.1 Q 316.5 389.7, 320.4 389.7 Q 324.3 389.7, 326.4 392.1 Q 328.5 394.5, 328.5 398.7 Q 328.5 403.0, 326.4 405.5 Q 324.3 407.9, 320.4 407.9 Q 316.5 407.9, 314.4 405.5 Q 312.3 403.0, 312.3 398.7 M 320.4 405.9 Q 323.1 405.9, 324.6 404.1 Q 326.0 402.3, 326.0 398.7 Q 326.0 395.2, 324.6 393.5 Q 323.1 391.7, 320.4 391.7 Q 317.7 391.7, 316.2 393.5 Q 314.8 395.2, 314.8 398.7 Q 314.8 402.3, 316.2 404.1 Q 317.7 405.9, 320.4 405.9 " fill="#FF0000"/>
<path class="atom-18" d="M 332.1 405.6 L 336.0 405.6 L 336.0 392.4 L 331.7 393.7 L 331.1 392.2 L 336.5 389.8 L 338.3 390.1 L 338.3 405.6 L 341.8 405.6 L 341.8 407.6 L 332.1 407.6 L 332.1 405.6 " fill="#FF0000"/>
<path class="atom-18" d="M 350.1 389.7 Q 353.2 389.7, 354.8 391.9 Q 356.4 394.0, 356.4 398.2 Q 356.4 402.9, 354.4 405.4 Q 352.5 407.8, 348.7 407.8 Q 347.6 407.8, 346.7 407.6 Q 345.7 407.3, 344.8 406.8 L 345.8 405.1 Q 347.1 405.8, 348.7 405.8 Q 351.2 405.8, 352.5 404.2 Q 353.7 402.6, 353.9 399.3 Q 353.0 400.1, 351.8 400.5 Q 350.7 401.0, 349.5 401.0 Q 347.9 401.0, 346.7 400.3 Q 345.5 399.6, 344.8 398.4 Q 344.1 397.2, 344.1 395.6 Q 344.1 393.9, 344.9 392.6 Q 345.7 391.2, 347.0 390.5 Q 348.4 389.7, 350.1 389.7 M 346.6 395.6 Q 346.6 397.2, 347.5 398.1 Q 348.4 399.0, 349.9 399.0 Q 351.0 399.0, 352.1 398.5 Q 353.1 398.1, 353.9 397.3 Q 353.8 394.4, 352.9 393.1 Q 351.9 391.8, 350.1 391.8 Q 349.1 391.8, 348.3 392.3 Q 347.5 392.8, 347.1 393.6 Q 346.6 394.5, 346.6 395.6 " fill="#FF0000"/>
<path class="atom-19" d="M 775.2 415.9 Q 775.2 411.5, 777.3 409.2 Q 779.3 406.8, 783.3 406.8 Q 786.9 406.8, 788.9 409.4 L 787.2 410.8 Q 785.8 408.9, 783.3 408.9 Q 780.6 408.9, 779.2 410.7 Q 777.8 412.5, 777.8 415.9 Q 777.8 419.4, 779.2 421.2 Q 780.7 423.0, 783.5 423.0 Q 785.5 423.0, 787.8 421.8 L 788.5 423.7 Q 787.5 424.3, 786.1 424.6 Q 784.7 425.0, 783.2 425.0 Q 779.3 425.0, 777.3 422.6 Q 775.2 420.3, 775.2 415.9 " fill="#000000"/>
<path class="atom-19" d="M 791.2 410.4 Q 791.8 408.7, 793.4 407.8 Q 794.9 406.8, 797.1 406.8 Q 799.8 406.8, 801.3 408.3 Q 802.8 409.7, 802.8 412.3 Q 802.8 414.9, 800.8 417.4 Q 798.9 419.8, 794.9 422.7 L 803.1 422.7 L 803.1 424.7 L 791.1 424.7 L 791.1 423.1 Q 794.4 420.7, 796.4 419.0 Q 798.4 417.2, 799.3 415.6 Q 800.3 414.1, 800.3 412.4 Q 800.3 410.7, 799.4 409.8 Q 798.6 408.8, 797.1 408.8 Q 795.7 408.8, 794.7 409.4 Q 793.8 410.0, 793.1 411.3 L 791.2 410.4 " fill="#000000"/>
<path class="atom-19" d="M 812.3 424.9 Q 809.1 424.9, 807.5 422.5 Q 805.9 420.1, 805.9 415.9 Q 805.9 411.6, 807.5 409.2 Q 809.1 406.8, 812.3 406.8 Q 815.6 406.8, 817.2 409.2 Q 818.8 411.6, 818.8 415.9 Q 818.8 420.1, 817.2 422.5 Q 815.6 424.9, 812.3 424.9 M 812.3 422.9 Q 814.3 422.9, 815.3 421.2 Q 816.3 419.4, 816.3 415.9 Q 816.3 412.4, 815.3 410.6 Q 814.3 408.8, 812.3 408.8 Q 810.4 408.8, 809.4 410.6 Q 808.4 412.4, 808.4 415.9 Q 808.4 419.4, 809.4 421.2 Q 810.4 422.9, 812.3 422.9 " fill="#000000"/>
<path class="atom-20" d="M 716.2 288.9 Q 716.2 284.7, 718.3 282.3 Q 720.4 279.9, 724.3 279.9 Q 728.2 279.9, 730.3 282.3 Q 732.4 284.7, 732.4 288.9 Q 732.4 293.2, 730.3 295.7 Q 728.2 298.1, 724.3 298.1 Q 720.4 298.1, 718.3 295.7 Q 716.2 293.2, 716.2 288.9 M 724.3 296.1 Q 727.0 296.1, 728.5 294.3 Q 729.9 292.5, 729.9 288.9 Q 729.9 285.4, 728.5 283.7 Q 727.0 281.9, 724.3 281.9 Q 721.6 281.9, 720.1 283.7 Q 718.7 285.4, 718.7 288.9 Q 718.7 292.5, 720.1 294.3 Q 721.6 296.1, 724.3 296.1 " fill="#FF0000"/>
<path class="atom-20" d="M 735.0 283.5 Q 735.7 281.8, 737.2 280.9 Q 738.8 279.9, 740.9 279.9 Q 743.6 279.9, 745.1 281.4 Q 746.6 282.8, 746.6 285.4 Q 746.6 288.0, 744.7 290.5 Q 742.7 292.9, 738.7 295.8 L 746.9 295.8 L 746.9 297.8 L 735.0 297.8 L 735.0 296.1 Q 738.3 293.8, 740.2 292.0 Q 742.2 290.3, 743.2 288.7 Q 744.1 287.1, 744.1 285.5 Q 744.1 283.8, 743.3 282.9 Q 742.4 281.9, 740.9 281.9 Q 739.5 281.9, 738.6 282.5 Q 737.6 283.1, 736.9 284.3 L 735.0 283.5 " fill="#FF0000"/>
<path class="atom-20" d="M 750.7 295.8 L 754.6 295.8 L 754.6 282.6 L 750.3 283.9 L 749.7 282.4 L 755.1 280.0 L 756.9 280.3 L 756.9 295.8 L 760.4 295.8 L 760.4 297.8 L 750.7 297.8 L 750.7 295.8 " fill="#FF0000"/>
<path class="atom-21" d="M 255.7 694.6 Q 255.7 690.2, 257.7 687.9 Q 259.8 685.5, 263.7 685.5 Q 267.4 685.5, 269.3 688.1 L 267.7 689.5 Q 266.2 687.6, 263.7 687.6 Q 261.0 687.6, 259.6 689.4 Q 258.2 691.2, 258.2 694.6 Q 258.2 698.1, 259.7 699.9 Q 261.1 701.7, 264.0 701.7 Q 265.9 701.7, 268.2 700.5 L 268.9 702.4 Q 268.0 703.0, 266.6 703.3 Q 265.2 703.7, 263.6 703.7 Q 259.8 703.7, 257.7 701.3 Q 255.7 699.0, 255.7 694.6 " fill="#000000"/>
<path class="atom-21" d="M 271.6 689.1 Q 272.3 687.4, 273.8 686.5 Q 275.4 685.5, 277.5 685.5 Q 280.2 685.5, 281.7 687.0 Q 283.2 688.4, 283.2 691.0 Q 283.2 693.6, 281.2 696.1 Q 279.3 698.5, 275.3 701.4 L 283.5 701.4 L 283.5 703.4 L 271.6 703.4 L 271.6 701.8 Q 274.9 699.4, 276.8 697.7 Q 278.8 695.9, 279.7 694.3 Q 280.7 692.8, 280.7 691.1 Q 280.7 689.4, 279.8 688.5 Q 279.0 687.5, 277.5 687.5 Q 276.1 687.5, 275.1 688.1 Q 274.2 688.7, 273.5 690.0 L 271.6 689.1 " fill="#000000"/>
<path class="atom-21" d="M 286.3 689.1 Q 286.9 687.4, 288.5 686.5 Q 290.0 685.5, 292.2 685.5 Q 294.9 685.5, 296.4 687.0 Q 297.9 688.4, 297.9 691.0 Q 297.9 693.6, 295.9 696.1 Q 294.0 698.5, 290.0 701.4 L 298.2 701.4 L 298.2 703.4 L 286.2 703.4 L 286.2 701.8 Q 289.5 699.4, 291.5 697.7 Q 293.5 695.9, 294.4 694.3 Q 295.4 692.8, 295.4 691.1 Q 295.4 689.4, 294.5 688.5 Q 293.7 687.5, 292.2 687.5 Q 290.8 687.5, 289.8 688.1 Q 288.9 688.7, 288.2 690.0 L 286.3 689.1 " fill="#000000"/>
<path class="atom-22" d="M 167.3 567.7 Q 167.3 563.3, 169.3 561.0 Q 171.4 558.7, 175.3 558.7 Q 179.0 558.7, 180.9 561.3 L 179.3 562.6 Q 177.8 560.8, 175.3 560.8 Q 172.6 560.8, 171.2 562.6 Q 169.8 564.3, 169.8 567.7 Q 169.8 571.2, 171.3 573.0 Q 172.7 574.8, 175.6 574.8 Q 177.5 574.8, 179.8 573.7 L 180.5 575.5 Q 179.6 576.1, 178.2 576.5 Q 176.8 576.8, 175.2 576.8 Q 171.4 576.8, 169.3 574.5 Q 167.3 572.1, 167.3 567.7 " fill="#000000"/>
<path class="atom-22" d="M 183.2 562.3 Q 183.9 560.6, 185.4 559.7 Q 187.0 558.7, 189.1 558.7 Q 191.8 558.7, 193.3 560.2 Q 194.8 561.6, 194.8 564.2 Q 194.8 566.8, 192.8 569.3 Q 190.9 571.7, 186.9 574.6 L 195.1 574.6 L 195.1 576.6 L 183.2 576.6 L 183.2 574.9 Q 186.5 572.6, 188.4 570.8 Q 190.4 569.1, 191.3 567.5 Q 192.3 565.9, 192.3 564.3 Q 192.3 562.6, 191.4 561.7 Q 190.6 560.7, 189.1 560.7 Q 187.7 560.7, 186.7 561.3 Q 185.8 561.9, 185.1 563.1 L 183.2 562.3 " fill="#000000"/>
<path class="atom-22" d="M 206.3 567.3 Q 208.0 567.8, 208.9 568.9 Q 209.7 570.0, 209.7 571.8 Q 209.7 573.3, 209.0 574.4 Q 208.2 575.6, 206.8 576.2 Q 205.5 576.9, 203.7 576.9 Q 201.8 576.9, 200.3 576.2 Q 198.9 575.5, 197.8 574.2 L 199.2 572.7 Q 200.3 573.9, 201.3 574.4 Q 202.2 574.9, 203.7 574.9 Q 205.3 574.9, 206.2 574.0 Q 207.2 573.1, 207.2 571.7 Q 207.2 569.9, 206.2 569.1 Q 205.2 568.3, 203.0 568.3 L 201.7 568.3 L 201.7 566.5 L 202.9 566.5 Q 204.8 566.5, 205.8 565.7 Q 206.8 564.8, 206.8 563.2 Q 206.8 562.1, 206.0 561.4 Q 205.1 560.7, 203.7 560.7 Q 202.2 560.7, 201.3 561.2 Q 200.4 561.8, 199.7 563.1 L 198.0 562.2 Q 198.6 560.7, 200.1 559.7 Q 201.6 558.7, 203.7 558.7 Q 206.3 558.7, 207.8 559.9 Q 209.3 561.2, 209.3 563.2 Q 209.3 564.7, 208.6 565.7 Q 207.8 566.7, 206.3 567.3 " fill="#000000"/>
<path class="atom-23" d="M 862.0 373.3 Q 862.0 369.0, 864.1 366.6 Q 866.2 364.3, 870.1 364.3 Q 874.1 364.3, 876.2 366.6 Q 878.3 369.0, 878.3 373.3 Q 878.3 377.6, 876.1 380.0 Q 874.0 382.4, 870.1 382.4 Q 866.2 382.4, 864.1 380.0 Q 862.0 377.6, 862.0 373.3 M 870.1 380.4 Q 872.8 380.4, 874.3 378.6 Q 875.8 376.8, 875.8 373.3 Q 875.8 369.8, 874.3 368.0 Q 872.8 366.3, 870.1 366.3 Q 867.4 366.3, 866.0 368.0 Q 864.5 369.8, 864.5 373.3 Q 864.5 376.8, 866.0 378.6 Q 867.4 380.4, 870.1 380.4 " fill="#FF0000"/>
<path class="atom-23" d="M 881.0 367.8 Q 881.6 366.1, 883.2 365.2 Q 884.7 364.3, 886.9 364.3 Q 889.5 364.3, 891.0 365.7 Q 892.5 367.2, 892.5 369.7 Q 892.5 372.4, 890.6 374.8 Q 888.7 377.3, 884.7 380.2 L 892.8 380.2 L 892.8 382.2 L 880.9 382.2 L 880.9 380.5 Q 884.2 378.1, 886.2 376.4 Q 888.1 374.6, 889.1 373.1 Q 890.0 371.5, 890.0 369.9 Q 890.0 368.2, 889.2 367.2 Q 888.3 366.3, 886.9 366.3 Q 885.4 366.3, 884.5 366.8 Q 883.5 367.4, 882.9 368.7 L 881.0 367.8 " fill="#FF0000"/>
<path class="atom-23" d="M 907.2 376.1 L 909.4 376.1 L 909.4 378.1 L 907.2 378.1 L 907.2 382.2 L 904.9 382.2 L 904.9 378.1 L 895.7 378.1 L 895.7 376.5 L 903.5 364.5 L 907.2 364.5 L 907.2 376.1 M 898.6 376.1 L 904.9 376.1 L 904.9 366.1 L 898.6 376.1 " fill="#FF0000"/>
<path class="atom-24" d="M 167.0 652.4 Q 167.0 648.0, 169.1 645.7 Q 171.1 643.3, 175.1 643.3 Q 178.7 643.3, 180.7 645.9 L 179.0 647.3 Q 177.6 645.4, 175.1 645.4 Q 172.4 645.4, 171.0 647.2 Q 169.6 649.0, 169.6 652.4 Q 169.6 655.9, 171.0 657.7 Q 172.5 659.5, 175.3 659.5 Q 177.3 659.5, 179.6 658.3 L 180.3 660.2 Q 179.3 660.8, 177.9 661.1 Q 176.5 661.5, 175.0 661.5 Q 171.1 661.5, 169.1 659.1 Q 167.0 656.8, 167.0 652.4 " fill="#000000"/>
<path class="atom-24" d="M 183.0 646.9 Q 183.6 645.2, 185.2 644.3 Q 186.7 643.3, 188.9 643.3 Q 191.5 643.3, 193.0 644.8 Q 194.5 646.2, 194.5 648.8 Q 194.5 651.4, 192.6 653.9 Q 190.7 656.3, 186.7 659.2 L 194.8 659.2 L 194.8 661.2 L 182.9 661.2 L 182.9 659.6 Q 186.2 657.2, 188.2 655.5 Q 190.1 653.7, 191.1 652.1 Q 192.0 650.6, 192.0 648.9 Q 192.0 647.2, 191.2 646.3 Q 190.3 645.3, 188.9 645.3 Q 187.4 645.3, 186.5 645.9 Q 185.5 646.5, 184.9 647.8 L 183.0 646.9 " fill="#000000"/>
<path class="atom-24" d="M 204.0 650.2 Q 205.6 650.2, 206.9 650.8 Q 208.1 651.5, 208.9 652.7 Q 209.6 654.0, 209.6 655.6 Q 209.6 657.5, 208.7 658.8 Q 207.8 660.1, 206.4 660.8 Q 204.9 661.4, 203.3 661.4 Q 201.6 661.4, 200.1 660.8 Q 198.6 660.2, 197.6 659.1 L 199.1 657.5 Q 199.9 658.4, 201.1 658.9 Q 202.2 659.4, 203.3 659.4 Q 204.9 659.4, 206.0 658.4 Q 207.1 657.5, 207.1 655.7 Q 207.1 653.8, 206.0 652.9 Q 204.9 652.0, 203.2 652.0 Q 201.6 652.0, 199.9 652.7 L 198.5 652.1 L 199.4 643.5 L 208.5 643.5 L 208.2 645.5 L 201.4 645.5 L 200.9 650.8 Q 202.5 650.2, 204.0 650.2 " fill="#000000"/>
<path class="atom-25" d="M 90.6 694.5 Q 90.6 690.3, 92.7 687.9 Q 94.8 685.5, 98.8 685.5 Q 102.7 685.5, 104.8 687.9 Q 106.9 690.3, 106.9 694.5 Q 106.9 698.8, 104.8 701.3 Q 102.6 703.7, 98.8 703.7 Q 94.9 703.7, 92.7 701.3 Q 90.6 698.8, 90.6 694.5 M 98.8 701.7 Q 101.5 701.7, 102.9 699.9 Q 104.4 698.1, 104.4 694.5 Q 104.4 691.0, 102.9 689.3 Q 101.5 687.5, 98.8 687.5 Q 96.1 687.5, 94.6 689.3 Q 93.1 691.0, 93.1 694.5 Q 93.1 698.1, 94.6 699.9 Q 96.1 701.7, 98.8 701.7 " fill="#FF0000"/>
<path class="atom-25" d="M 109.5 689.1 Q 110.2 687.4, 111.7 686.5 Q 113.3 685.5, 115.4 685.5 Q 118.1 685.5, 119.6 687.0 Q 121.1 688.4, 121.1 691.0 Q 121.1 693.6, 119.2 696.1 Q 117.2 698.5, 113.2 701.4 L 121.4 701.4 L 121.4 703.4 L 109.5 703.4 L 109.5 701.7 Q 112.8 699.4, 114.7 697.6 Q 116.7 695.9, 117.7 694.3 Q 118.6 692.7, 118.6 691.1 Q 118.6 689.4, 117.8 688.5 Q 116.9 687.5, 115.4 687.5 Q 114.0 687.5, 113.1 688.1 Q 112.1 688.7, 111.4 689.9 L 109.5 689.1 " fill="#FF0000"/>
<path class="atom-25" d="M 131.2 692.4 Q 132.7 692.4, 134.0 693.0 Q 135.2 693.7, 135.9 694.9 Q 136.5 696.2, 136.5 697.7 Q 136.5 699.4, 135.8 700.8 Q 135.0 702.1, 133.7 702.9 Q 132.3 703.6, 130.6 703.6 Q 127.4 703.6, 125.8 701.5 Q 124.3 699.3, 124.3 695.1 Q 124.3 690.4, 126.2 688.0 Q 128.2 685.5, 132.0 685.5 Q 133.1 685.5, 134.0 685.8 Q 134.9 686.0, 135.8 686.5 L 134.9 688.2 Q 133.6 687.5, 132.0 687.5 Q 129.5 687.5, 128.2 689.1 Q 126.9 690.7, 126.8 694.1 Q 127.7 693.2, 128.8 692.8 Q 130.0 692.4, 131.2 692.4 M 130.6 701.6 Q 131.6 701.6, 132.3 701.1 Q 133.1 700.6, 133.6 699.7 Q 134.0 698.8, 134.0 697.7 Q 134.0 696.2, 133.2 695.3 Q 132.3 694.4, 130.7 694.4 Q 129.7 694.4, 128.6 694.8 Q 127.5 695.2, 126.8 696.0 Q 126.9 698.9, 127.8 700.2 Q 128.7 701.6, 130.6 701.6 " fill="#FF0000"/>
<text x="1000" y="50" font-size="8" font-family="Verdana" font-weight="normal" letter-spacing="0" text-anchor="start" fill="black">Highlighted Atoms:
Primary SOM: Red
Secondary SOM: Green
Tertiary SOM: Cyan
</text></svg>
