<?xml version='1.0' encoding='ASCII' standalone='yes'?>
<svg xmlns="http://www.w3.org/2000/svg" xmlns:rdkit="http://www.rdkit.org/xml" xmlns:xlink="http://www.w3.org/1999/xlink" style="background-color: white;" version="1.1" baseProfile="full" xml:space="preserve" width="1000px" height="1000px" viewBox="0 0 1000 1000">
<!-- END OF HEADER -->
<rect style="opacity:1.0;fill:#FFFFFF;stroke:none" width="1000.0" height="1000.0" x="0.0" y="0.0"> </rect>
<ellipse cx="537.0" cy="570.8" rx="28.4" ry="28.4" class="atom-0" style="fill:#B20000;fill-rule:evenodd;stroke:#B20000;stroke-width:1.0px;stroke-linecap:butt;stroke-linejoin:miter;stroke-opacity:1"/>
<ellipse cx="540.5" cy="760.0" rx="30.7" ry="28.4" class="atom-13" style="fill:#B20000;fill-rule:evenodd;stroke:#B20000;stroke-width:1.0px;stroke-linecap:butt;stroke-linejoin:miter;stroke-opacity:1"/>
<path class="bond-0 atom-1 atom-0" d="M 531.1,430.7 L 536.5,558.5" style="fill:none;fill-rule:evenodd;stroke:#000000;stroke-width:2.0px;stroke-linecap:butt;stroke-linejoin:miter;stroke-opacity:1"/>
<path class="bond-1 atom-2 atom-0" d="M 465.4,614.1 L 520.6,580.7" style="fill:none;fill-rule:evenodd;stroke:#000000;stroke-width:2.0px;stroke-linecap:butt;stroke-linejoin:miter;stroke-opacity:1"/>
<path class="bond-2 atom-3 atom-0" d="M 597.9,604.6 L 553.5,579.8" style="fill:none;fill-rule:evenodd;stroke:#000000;stroke-width:2.0px;stroke-linecap:butt;stroke-linejoin:miter;stroke-opacity:1"/>
<path class="bond-3 atom-4 atom-1" d="M 469.8,379.5 L 513.4,407.4" style="fill:none;fill-rule:evenodd;stroke:#000000;stroke-width:2.0px;stroke-linecap:butt;stroke-linejoin:miter;stroke-opacity:1"/>
<path class="bond-3 atom-4 atom-1" d="M 477.6,367.3 L 521.2,395.2" style="fill:none;fill-rule:evenodd;stroke:#000000;stroke-width:2.0px;stroke-linecap:butt;stroke-linejoin:miter;stroke-opacity:1"/>
<path class="bond-4 atom-5 atom-1" d="M 604.4,379.7 L 547.7,409.4" style="fill:none;fill-rule:evenodd;stroke:#000000;stroke-width:2.0px;stroke-linecap:butt;stroke-linejoin:miter;stroke-opacity:1"/>
<path class="bond-5 atom-6 atom-2" d="M 457.5,702.2 L 456.4,632.1" style="fill:none;fill-rule:evenodd;stroke:#000000;stroke-width:2.0px;stroke-linecap:butt;stroke-linejoin:miter;stroke-opacity:1"/>
<path class="bond-5 atom-6 atom-2" d="M 472.0,701.9 L 470.9,631.8" style="fill:none;fill-rule:evenodd;stroke:#000000;stroke-width:2.0px;stroke-linecap:butt;stroke-linejoin:miter;stroke-opacity:1"/>
<path class="bond-6 atom-7 atom-2" d="M 400.8,587.2 L 435.6,607.5" style="fill:none;fill-rule:evenodd;stroke:#000000;stroke-width:2.0px;stroke-linecap:butt;stroke-linejoin:miter;stroke-opacity:1"/>
<path class="bond-7 atom-8 atom-3" d="M 621.4,699.3 L 620.0,628.8" style="fill:none;fill-rule:evenodd;stroke:#000000;stroke-width:2.0px;stroke-linecap:butt;stroke-linejoin:miter;stroke-opacity:1"/>
<path class="bond-7 atom-8 atom-3" d="M 606.9,699.6 L 605.5,629.1" style="fill:none;fill-rule:evenodd;stroke:#000000;stroke-width:2.0px;stroke-linecap:butt;stroke-linejoin:miter;stroke-opacity:1"/>
<path class="bond-8 atom-9 atom-3" d="M 680.3,581.1 L 629.7,610.8" style="fill:none;fill-rule:evenodd;stroke:#000000;stroke-width:2.0px;stroke-linecap:butt;stroke-linejoin:miter;stroke-opacity:1"/>
<path class="bond-9 atom-10 atom-4" d="M 453.9,284.6 L 451.0,355.0" style="fill:none;fill-rule:evenodd;stroke:#000000;stroke-width:2.0px;stroke-linecap:butt;stroke-linejoin:miter;stroke-opacity:1"/>
<path class="bond-10 atom-11 atom-4" d="M 372.3,405.1 L 406.4,388.5" style="fill:none;fill-rule:evenodd;stroke:#00CC00;stroke-width:2.0px;stroke-linecap:butt;stroke-linejoin:miter;stroke-opacity:1"/>
<path class="bond-10 atom-11 atom-4" d="M 406.4,388.5 L 440.5,372.0" style="fill:none;fill-rule:evenodd;stroke:#000000;stroke-width:2.0px;stroke-linecap:butt;stroke-linejoin:miter;stroke-opacity:1"/>
<path class="bond-11 atom-12 atom-5" d="M 618.1,292.2 L 614.9,362.3" style="fill:none;fill-rule:evenodd;stroke:#000000;stroke-width:2.0px;stroke-linecap:butt;stroke-linejoin:miter;stroke-opacity:1"/>
<path class="bond-11 atom-12 atom-5" d="M 603.6,291.5 L 600.5,361.7" style="fill:none;fill-rule:evenodd;stroke:#000000;stroke-width:2.0px;stroke-linecap:butt;stroke-linejoin:miter;stroke-opacity:1"/>
<path class="bond-12 atom-13 atom-6" d="M 518.8,748.0 L 496.8,735.9" style="fill:none;fill-rule:evenodd;stroke:#0000FF;stroke-width:2.0px;stroke-linecap:butt;stroke-linejoin:miter;stroke-opacity:1"/>
<path class="bond-12 atom-13 atom-6" d="M 496.8,735.9 L 474.8,723.7" style="fill:none;fill-rule:evenodd;stroke:#000000;stroke-width:2.0px;stroke-linecap:butt;stroke-linejoin:miter;stroke-opacity:1"/>
<path class="bond-13 atom-13 atom-8" d="M 560.5,748.0 L 586.1,732.7" style="fill:none;fill-rule:evenodd;stroke:#0000FF;stroke-width:2.0px;stroke-linecap:butt;stroke-linejoin:miter;stroke-opacity:1"/>
<path class="bond-13 atom-13 atom-8" d="M 586.1,732.7 L 611.6,717.4" style="fill:none;fill-rule:evenodd;stroke:#000000;stroke-width:2.0px;stroke-linecap:butt;stroke-linejoin:miter;stroke-opacity:1"/>
<path class="bond-14 atom-14 atom-6" d="M 385.8,757.2 L 440.7,724.5" style="fill:none;fill-rule:evenodd;stroke:#000000;stroke-width:2.0px;stroke-linecap:butt;stroke-linejoin:miter;stroke-opacity:1"/>
<path class="bond-15 atom-15 atom-7" d="M 318.9,608.6 L 344.3,594.5" style="fill:none;fill-rule:evenodd;stroke:#FF0000;stroke-width:2.0px;stroke-linecap:butt;stroke-linejoin:miter;stroke-opacity:1"/>
<path class="bond-15 atom-15 atom-7" d="M 344.3,594.5 L 369.7,580.4" style="fill:none;fill-rule:evenodd;stroke:#000000;stroke-width:2.0px;stroke-linecap:butt;stroke-linejoin:miter;stroke-opacity:1"/>
<path class="bond-16 atom-16 atom-7" d="M 390.1,495.3 L 388.8,529.1" style="fill:none;fill-rule:evenodd;stroke:#FF0000;stroke-width:2.0px;stroke-linecap:butt;stroke-linejoin:miter;stroke-opacity:1"/>
<path class="bond-16 atom-16 atom-7" d="M 388.8,529.1 L 387.5,562.9" style="fill:none;fill-rule:evenodd;stroke:#000000;stroke-width:2.0px;stroke-linecap:butt;stroke-linejoin:miter;stroke-opacity:1"/>
<path class="bond-16 atom-16 atom-7" d="M 375.6,494.7 L 374.3,528.5" style="fill:none;fill-rule:evenodd;stroke:#FF0000;stroke-width:2.0px;stroke-linecap:butt;stroke-linejoin:miter;stroke-opacity:1"/>
<path class="bond-16 atom-16 atom-7" d="M 374.3,528.5 L 373.0,562.4" style="fill:none;fill-rule:evenodd;stroke:#000000;stroke-width:2.0px;stroke-linecap:butt;stroke-linejoin:miter;stroke-opacity:1"/>
<path class="bond-17 atom-17 atom-8" d="M 694.1,751.8 L 643.8,723.7" style="fill:none;fill-rule:evenodd;stroke:#000000;stroke-width:2.0px;stroke-linecap:butt;stroke-linejoin:miter;stroke-opacity:1"/>
<path class="bond-18 atom-18 atom-9" d="M 762.5,603.7 L 742.7,592.4" style="fill:none;fill-rule:evenodd;stroke:#FF0000;stroke-width:2.0px;stroke-linecap:butt;stroke-linejoin:miter;stroke-opacity:1"/>
<path class="bond-18 atom-18 atom-9" d="M 742.7,592.4 L 722.9,581.1" style="fill:none;fill-rule:evenodd;stroke:#000000;stroke-width:2.0px;stroke-linecap:butt;stroke-linejoin:miter;stroke-opacity:1"/>
<path class="bond-19 atom-19 atom-9" d="M 708.3,486.8 L 708.4,521.7" style="fill:none;fill-rule:evenodd;stroke:#FF0000;stroke-width:2.0px;stroke-linecap:butt;stroke-linejoin:miter;stroke-opacity:1"/>
<path class="bond-19 atom-19 atom-9" d="M 708.4,521.7 L 708.6,556.7" style="fill:none;fill-rule:evenodd;stroke:#000000;stroke-width:2.0px;stroke-linecap:butt;stroke-linejoin:miter;stroke-opacity:1"/>
<path class="bond-19 atom-19 atom-9" d="M 693.8,486.9 L 693.9,521.8" style="fill:none;fill-rule:evenodd;stroke:#FF0000;stroke-width:2.0px;stroke-linecap:butt;stroke-linejoin:miter;stroke-opacity:1"/>
<path class="bond-19 atom-19 atom-9" d="M 693.9,521.8 L 694.1,556.8" style="fill:none;fill-rule:evenodd;stroke:#000000;stroke-width:2.0px;stroke-linecap:butt;stroke-linejoin:miter;stroke-opacity:1"/>
<path class="bond-20 atom-20 atom-10" d="M 514.9,241.2 L 463.0,268.0" style="fill:none;fill-rule:evenodd;stroke:#000000;stroke-width:2.0px;stroke-linecap:butt;stroke-linejoin:miter;stroke-opacity:1"/>
<path class="bond-20 atom-20 atom-10" d="M 521.5,254.1 L 469.6,280.9" style="fill:none;fill-rule:evenodd;stroke:#000000;stroke-width:2.0px;stroke-linecap:butt;stroke-linejoin:miter;stroke-opacity:1"/>
<path class="bond-21 atom-20 atom-12" d="M 557.7,241.1 L 608.6,273.4" style="fill:none;fill-rule:evenodd;stroke:#000000;stroke-width:2.0px;stroke-linecap:butt;stroke-linejoin:miter;stroke-opacity:1"/>
<path class="bond-22 atom-21 atom-10" d="M 384.3,227.0 L 410.0,243.7" style="fill:none;fill-rule:evenodd;stroke:#00CC00;stroke-width:2.0px;stroke-linecap:butt;stroke-linejoin:miter;stroke-opacity:1"/>
<path class="bond-22 atom-21 atom-10" d="M 410.0,243.7 L 435.7,260.3" style="fill:none;fill-rule:evenodd;stroke:#000000;stroke-width:2.0px;stroke-linecap:butt;stroke-linejoin:miter;stroke-opacity:1"/>
<path class="bond-23 atom-22 atom-15" d="M 236.8,585.4 L 256.6,597.0" style="fill:none;fill-rule:evenodd;stroke:#000000;stroke-width:2.0px;stroke-linecap:butt;stroke-linejoin:miter;stroke-opacity:1"/>
<path class="bond-23 atom-22 atom-15" d="M 256.6,597.0 L 276.4,608.6" style="fill:none;fill-rule:evenodd;stroke:#FF0000;stroke-width:2.0px;stroke-linecap:butt;stroke-linejoin:miter;stroke-opacity:1"/>
<path class="bond-24 atom-23 atom-18" d="M 855.5,574.3 L 830.1,589.0" style="fill:none;fill-rule:evenodd;stroke:#000000;stroke-width:2.0px;stroke-linecap:butt;stroke-linejoin:miter;stroke-opacity:1"/>
<path class="bond-24 atom-23 atom-18" d="M 830.1,589.0 L 804.6,603.7" style="fill:none;fill-rule:evenodd;stroke:#FF0000;stroke-width:2.0px;stroke-linecap:butt;stroke-linejoin:miter;stroke-opacity:1"/>
<path class="bond-25 atom-24 atom-22" d="M 142.7,614.9 L 194.1,585.4" style="fill:none;fill-rule:evenodd;stroke:#000000;stroke-width:2.0px;stroke-linecap:butt;stroke-linejoin:miter;stroke-opacity:1"/>
<path class="atom-0" d="M 523.8 570.7 Q 523.8 566.3, 525.8 564.0 Q 527.9 561.7, 531.8 561.7 Q 535.5 561.7, 537.4 564.3 L 535.8 565.6 Q 534.3 563.8, 531.8 563.8 Q 529.1 563.8, 527.7 565.6 Q 526.3 567.3, 526.3 570.7 Q 526.3 574.2, 527.8 576.0 Q 529.2 577.8, 532.1 577.8 Q 534.0 577.8, 536.3 576.7 L 537.0 578.5 Q 536.1 579.1, 534.7 579.5 Q 533.3 579.8, 531.7 579.8 Q 527.9 579.8, 525.8 577.5 Q 523.8 575.1, 523.8 570.7 " fill="#000000"/>
<path class="atom-0" d="M 540.6 577.6 L 544.5 577.6 L 544.5 564.4 L 540.2 565.7 L 539.6 564.2 L 545.1 561.8 L 546.8 562.1 L 546.8 577.6 L 550.3 577.6 L 550.3 579.6 L 540.6 579.6 L 540.6 577.6 " fill="#000000"/>
<path class="atom-1" d="M 516.6 418.4 Q 516.6 414.0, 518.7 411.7 Q 520.7 409.4, 524.7 409.4 Q 528.3 409.4, 530.3 412.0 L 528.6 413.3 Q 527.2 411.5, 524.7 411.5 Q 522.0 411.5, 520.6 413.3 Q 519.2 415.0, 519.2 418.4 Q 519.2 421.9, 520.6 423.7 Q 522.1 425.5, 524.9 425.5 Q 526.9 425.5, 529.2 424.4 L 529.9 426.2 Q 528.9 426.8, 527.5 427.2 Q 526.1 427.5, 524.6 427.5 Q 520.7 427.5, 518.7 425.2 Q 516.6 422.8, 516.6 418.4 " fill="#000000"/>
<path class="atom-1" d="M 532.6 413.0 Q 533.2 411.3, 534.8 410.4 Q 536.3 409.4, 538.5 409.4 Q 541.2 409.4, 542.7 410.9 Q 544.2 412.3, 544.2 414.9 Q 544.2 417.5, 542.2 420.0 Q 540.3 422.4, 536.3 425.3 L 544.5 425.3 L 544.5 427.3 L 532.5 427.3 L 532.5 425.6 Q 535.8 423.3, 537.8 421.5 Q 539.8 419.8, 540.7 418.2 Q 541.7 416.6, 541.7 415.0 Q 541.7 413.3, 540.8 412.4 Q 540.0 411.4, 538.5 411.4 Q 537.1 411.4, 536.1 412.0 Q 535.2 412.6, 534.5 413.8 L 532.6 413.0 " fill="#000000"/>
<path class="atom-2" d="M 434.4 619.8 Q 434.4 615.4, 436.4 613.1 Q 438.5 610.7, 442.4 610.7 Q 446.1 610.7, 448.0 613.3 L 446.4 614.7 Q 444.9 612.8, 442.4 612.8 Q 439.7 612.8, 438.3 614.6 Q 436.9 616.4, 436.9 619.8 Q 436.9 623.3, 438.4 625.1 Q 439.8 626.9, 442.7 626.9 Q 444.6 626.9, 446.9 625.7 L 447.6 627.6 Q 446.7 628.2, 445.3 628.5 Q 443.9 628.9, 442.3 628.9 Q 438.5 628.9, 436.4 626.5 Q 434.4 624.2, 434.4 619.8 " fill="#000000"/>
<path class="atom-2" d="M 458.8 619.3 Q 460.5 619.8, 461.3 620.9 Q 462.2 622.0, 462.2 623.8 Q 462.2 625.3, 461.4 626.5 Q 460.7 627.6, 459.3 628.3 Q 457.9 628.9, 456.1 628.9 Q 454.2 628.9, 452.8 628.2 Q 451.4 627.6, 450.3 626.2 L 451.7 624.8 Q 452.8 626.0, 453.7 626.4 Q 454.7 626.9, 456.1 626.9 Q 457.7 626.9, 458.7 626.0 Q 459.7 625.2, 459.7 623.8 Q 459.7 622.0, 458.7 621.2 Q 457.7 620.3, 455.5 620.3 L 454.2 620.3 L 454.2 618.5 L 455.3 618.5 Q 457.3 618.5, 458.3 617.7 Q 459.3 616.8, 459.3 615.3 Q 459.3 614.1, 458.5 613.4 Q 457.6 612.7, 456.2 612.7 Q 454.7 612.7, 453.8 613.3 Q 452.9 613.8, 452.2 615.1 L 450.4 614.2 Q 451.1 612.7, 452.6 611.7 Q 454.1 610.7, 456.2 610.7 Q 458.8 610.7, 460.3 612.0 Q 461.8 613.2, 461.8 615.3 Q 461.8 616.7, 461.0 617.7 Q 460.3 618.7, 458.8 619.3 " fill="#000000"/>
<path class="atom-3" d="M 596.9 616.8 Q 596.9 612.4, 599.0 610.1 Q 601.0 607.8, 605.0 607.8 Q 608.6 607.8, 610.6 610.3 L 608.9 611.7 Q 607.5 609.8, 605.0 609.8 Q 602.3 609.8, 600.9 611.6 Q 599.5 613.4, 599.5 616.8 Q 599.5 620.3, 600.9 622.1 Q 602.4 623.9, 605.2 623.9 Q 607.2 623.9, 609.5 622.7 L 610.2 624.6 Q 609.2 625.2, 607.8 625.5 Q 606.4 625.9, 604.9 625.9 Q 601.0 625.9, 599.0 623.5 Q 596.9 621.2, 596.9 616.8 " fill="#000000"/>
<path class="atom-3" d="M 624.4 619.6 L 626.5 619.6 L 626.5 621.6 L 624.4 621.6 L 624.4 625.7 L 622.1 625.7 L 622.1 621.6 L 612.9 621.6 L 612.9 620.0 L 620.7 608.0 L 624.4 608.0 L 624.4 619.6 M 615.8 619.6 L 622.1 619.6 L 622.1 609.6 L 615.8 619.6 " fill="#000000"/>
<path class="atom-4" d="M 443.7 367.2 Q 443.7 362.8, 445.7 360.5 Q 447.8 358.2, 451.7 358.2 Q 455.4 358.2, 457.3 360.8 L 455.7 362.1 Q 454.2 360.3, 451.7 360.3 Q 449.0 360.3, 447.6 362.1 Q 446.2 363.8, 446.2 367.2 Q 446.2 370.7, 447.7 372.5 Q 449.1 374.3, 452.0 374.3 Q 453.9 374.3, 456.2 373.2 L 456.9 375.0 Q 456.0 375.6, 454.6 376.0 Q 453.2 376.3, 451.6 376.3 Q 447.8 376.3, 445.7 374.0 Q 443.7 371.6, 443.7 367.2 " fill="#000000"/>
<path class="atom-4" d="M 466.0 365.0 Q 467.6 365.0, 468.8 365.7 Q 470.1 366.4, 470.8 367.6 Q 471.6 368.8, 471.6 370.5 Q 471.6 372.3, 470.7 373.7 Q 469.8 375.0, 468.3 375.6 Q 466.9 376.3, 465.2 376.3 Q 463.6 376.3, 462.1 375.7 Q 460.6 375.1, 459.6 374.0 L 461.1 372.4 Q 461.9 373.3, 463.0 373.8 Q 464.2 374.3, 465.3 374.3 Q 466.9 374.3, 468.0 373.3 Q 469.1 372.3, 469.1 370.6 Q 469.1 368.7, 468.0 367.8 Q 466.9 366.9, 465.2 366.9 Q 463.6 366.9, 461.9 367.6 L 460.5 366.9 L 461.4 358.4 L 470.5 358.4 L 470.2 360.4 L 463.4 360.4 L 462.9 365.7 Q 464.5 365.0, 466.0 365.0 " fill="#000000"/>
<path class="atom-5" d="M 607.6 374.5 Q 607.6 370.1, 609.6 367.8 Q 611.7 365.5, 615.6 365.5 Q 619.3 365.5, 621.2 368.1 L 619.6 369.4 Q 618.1 367.6, 615.6 367.6 Q 612.9 367.6, 611.5 369.4 Q 610.1 371.1, 610.1 374.5 Q 610.1 378.0, 611.6 379.8 Q 613.0 381.6, 615.9 381.6 Q 617.8 381.6, 620.1 380.5 L 620.8 382.3 Q 619.9 382.9, 618.5 383.3 Q 617.1 383.6, 615.5 383.6 Q 611.7 383.6, 609.6 381.3 Q 607.6 378.9, 607.6 374.5 " fill="#000000"/>
<path class="atom-5" d="M 630.4 372.4 Q 632.0 372.4, 633.2 373.0 Q 634.4 373.7, 635.1 374.9 Q 635.8 376.2, 635.8 377.7 Q 635.8 379.4, 635.0 380.8 Q 634.3 382.1, 632.9 382.9 Q 631.6 383.6, 629.8 383.6 Q 626.7 383.6, 625.1 381.5 Q 623.5 379.3, 623.5 375.1 Q 623.5 370.4, 625.5 368.0 Q 627.4 365.5, 631.2 365.5 Q 632.3 365.5, 633.2 365.8 Q 634.2 366.0, 635.1 366.5 L 634.1 368.2 Q 632.8 367.5, 631.2 367.5 Q 628.7 367.5, 627.5 369.1 Q 626.2 370.7, 626.0 374.1 Q 626.9 373.2, 628.1 372.8 Q 629.2 372.4, 630.4 372.4 M 629.9 381.6 Q 630.8 381.6, 631.6 381.1 Q 632.4 380.6, 632.8 379.7 Q 633.3 378.8, 633.3 377.7 Q 633.3 376.2, 632.4 375.3 Q 631.5 374.4, 630.0 374.4 Q 628.9 374.4, 627.8 374.8 Q 626.8 375.2, 626.0 376.0 Q 626.1 378.9, 627.1 380.2 Q 628.0 381.6, 629.9 381.6 " fill="#000000"/>
<path class="atom-6" d="M 443.9 714.4 Q 443.9 710.0, 445.9 707.7 Q 448.0 705.4, 451.9 705.4 Q 455.6 705.4, 457.5 707.9 L 455.9 709.3 Q 454.5 707.4, 451.9 707.4 Q 449.3 707.4, 447.8 709.2 Q 446.4 711.0, 446.4 714.4 Q 446.4 717.9, 447.9 719.7 Q 449.4 721.5, 452.2 721.5 Q 454.2 721.5, 456.4 720.3 L 457.1 722.2 Q 456.2 722.8, 454.8 723.1 Q 453.4 723.5, 451.9 723.5 Q 448.0 723.5, 445.9 721.1 Q 443.9 718.8, 443.9 714.4 " fill="#000000"/>
<path class="atom-6" d="M 469.1 707.6 L 459.8 707.6 L 459.8 705.6 L 471.6 705.6 L 471.6 707.3 L 464.4 723.3 L 462.0 723.3 L 469.1 707.6 " fill="#000000"/>
<path class="atom-7" d="M 372.9 574.9 Q 372.9 570.5, 375.0 568.2 Q 377.0 565.8, 381.0 565.8 Q 384.6 565.8, 386.6 568.4 L 384.9 569.8 Q 383.5 567.9, 381.0 567.9 Q 378.3 567.9, 376.9 569.7 Q 375.5 571.5, 375.5 574.9 Q 375.5 578.4, 376.9 580.2 Q 378.4 582.0, 381.2 582.0 Q 383.2 582.0, 385.5 580.8 L 386.2 582.7 Q 385.2 583.3, 383.8 583.6 Q 382.4 584.0, 380.9 584.0 Q 377.0 584.0, 375.0 581.6 Q 372.9 579.3, 372.9 574.9 " fill="#000000"/>
<path class="atom-7" d="M 397.9 574.4 Q 399.5 575.1, 400.4 576.1 Q 401.4 577.1, 401.4 578.9 Q 401.4 580.4, 400.6 581.6 Q 399.8 582.7, 398.4 583.4 Q 397.0 584.0, 395.2 584.0 Q 392.3 584.0, 390.6 582.6 Q 388.9 581.3, 388.9 578.9 Q 388.9 577.4, 389.6 576.4 Q 390.4 575.3, 391.9 574.4 Q 390.8 573.8, 390.1 572.8 Q 389.5 571.9, 389.5 570.4 Q 389.5 568.3, 391.0 567.1 Q 392.5 565.8, 395.1 565.8 Q 397.7 565.8, 399.2 567.1 Q 400.7 568.3, 400.7 570.4 Q 400.7 571.7, 400.0 572.6 Q 399.3 573.6, 397.9 574.4 M 395.1 567.7 Q 393.6 567.7, 392.8 568.4 Q 392.0 569.1, 392.0 570.4 Q 392.0 571.3, 392.6 571.9 Q 393.1 572.5, 393.9 572.9 Q 394.7 573.2, 396.2 573.7 Q 397.3 573.0, 397.7 572.2 Q 398.2 571.4, 398.2 570.4 Q 398.2 569.1, 397.4 568.4 Q 396.6 567.7, 395.1 567.7 M 395.2 582.1 Q 396.9 582.1, 397.9 581.2 Q 398.9 580.3, 398.9 578.9 Q 398.9 577.9, 398.3 577.3 Q 397.8 576.7, 397.0 576.4 Q 396.2 576.0, 394.8 575.6 L 393.7 575.2 Q 392.5 575.9, 391.9 576.8 Q 391.4 577.7, 391.4 578.9 Q 391.4 580.3, 392.4 581.2 Q 393.5 582.1, 395.2 582.1 " fill="#000000"/>
<path class="atom-8" d="M 614.8 711.5 Q 614.8 707.1, 616.9 704.8 Q 618.9 702.5, 622.9 702.5 Q 626.5 702.5, 628.5 705.0 L 626.8 706.4 Q 625.4 704.5, 622.9 704.5 Q 620.2 704.5, 618.8 706.3 Q 617.4 708.1, 617.4 711.5 Q 617.4 715.0, 618.8 716.8 Q 620.3 718.6, 623.1 718.6 Q 625.1 718.6, 627.4 717.4 L 628.1 719.3 Q 627.1 719.9, 625.7 720.2 Q 624.3 720.6, 622.8 720.6 Q 618.9 720.6, 616.9 718.2 Q 614.8 715.9, 614.8 711.5 " fill="#000000"/>
<path class="atom-8" d="M 636.7 702.5 Q 639.9 702.5, 641.4 704.6 Q 643.0 706.7, 643.0 711.0 Q 643.0 715.7, 641.1 718.1 Q 639.1 720.6, 635.3 720.6 Q 634.2 720.6, 633.3 720.3 Q 632.4 720.1, 631.5 719.5 L 632.4 717.9 Q 633.7 718.6, 635.3 718.6 Q 637.8 718.6, 639.1 717.0 Q 640.4 715.3, 640.5 712.0 Q 639.6 712.8, 638.5 713.3 Q 637.3 713.7, 636.1 713.7 Q 634.6 713.7, 633.3 713.0 Q 632.1 712.4, 631.4 711.1 Q 630.8 709.9, 630.8 708.4 Q 630.8 706.6, 631.5 705.3 Q 632.3 704.0, 633.6 703.2 Q 635.0 702.5, 636.7 702.5 M 633.3 708.3 Q 633.3 709.9, 634.1 710.8 Q 635.0 711.7, 636.6 711.7 Q 637.6 711.7, 638.7 711.3 Q 639.8 710.8, 640.5 710.1 Q 640.4 707.2, 639.5 705.8 Q 638.6 704.5, 636.7 704.5 Q 635.7 704.5, 634.9 705.0 Q 634.2 705.5, 633.7 706.4 Q 633.3 707.3, 633.3 708.3 " fill="#000000"/>
<path class="atom-9" d="M 680.5 568.8 Q 680.5 564.4, 682.5 562.1 Q 684.6 559.8, 688.5 559.8 Q 692.2 559.8, 694.1 562.4 L 692.5 563.7 Q 691.1 561.9, 688.5 561.9 Q 685.9 561.9, 684.4 563.7 Q 683.0 565.4, 683.0 568.8 Q 683.0 572.3, 684.5 574.1 Q 686.0 575.9, 688.8 575.9 Q 690.8 575.9, 693.0 574.8 L 693.7 576.6 Q 692.8 577.2, 691.4 577.6 Q 690.0 577.9, 688.5 577.9 Q 684.6 577.9, 682.5 575.6 Q 680.5 573.2, 680.5 568.8 " fill="#000000"/>
<path class="atom-9" d="M 697.3 575.7 L 701.2 575.7 L 701.2 562.5 L 696.9 563.8 L 696.4 562.3 L 701.8 559.9 L 703.6 560.2 L 703.6 575.7 L 707.0 575.7 L 707.0 577.7 L 697.3 577.7 L 697.3 575.7 " fill="#000000"/>
<path class="atom-9" d="M 715.8 577.9 Q 712.6 577.9, 710.9 575.5 Q 709.3 573.1, 709.3 568.8 Q 709.3 564.6, 710.9 562.2 Q 712.5 559.8, 715.8 559.8 Q 719.1 559.8, 720.7 562.2 Q 722.3 564.6, 722.3 568.8 Q 722.3 573.1, 720.7 575.5 Q 719.1 577.9, 715.8 577.9 M 715.8 575.9 Q 717.7 575.9, 718.8 574.1 Q 719.8 572.3, 719.8 568.8 Q 719.8 565.4, 718.8 563.6 Q 717.7 561.8, 715.8 561.8 Q 713.9 561.8, 712.9 563.6 Q 711.8 565.4, 711.8 568.8 Q 711.8 572.3, 712.9 574.1 Q 713.9 575.9, 715.8 575.9 " fill="#000000"/>
<path class="atom-10" d="M 420.4 272.5 Q 420.4 268.1, 422.4 265.8 Q 424.5 263.5, 428.4 263.5 Q 432.1 263.5, 434.0 266.1 L 432.4 267.4 Q 431.0 265.5, 428.4 265.5 Q 425.8 265.5, 424.3 267.3 Q 422.9 269.1, 422.9 272.5 Q 422.9 276.0, 424.4 277.8 Q 425.9 279.6, 428.7 279.6 Q 430.7 279.6, 432.9 278.4 L 433.6 280.3 Q 432.7 280.9, 431.3 281.3 Q 429.9 281.6, 428.4 281.6 Q 424.5 281.6, 422.4 279.3 Q 420.4 276.9, 420.4 272.5 " fill="#000000"/>
<path class="atom-10" d="M 437.2 279.4 L 441.1 279.4 L 441.1 266.2 L 436.8 267.5 L 436.2 266.0 L 441.6 263.6 L 443.4 263.9 L 443.4 279.4 L 446.9 279.4 L 446.9 281.4 L 437.2 281.4 L 437.2 279.4 " fill="#000000"/>
<path class="atom-10" d="M 450.1 279.4 L 454.0 279.4 L 454.0 266.2 L 449.7 267.5 L 449.1 266.0 L 454.5 263.6 L 456.3 263.9 L 456.3 279.4 L 459.8 279.4 L 459.8 281.4 L 450.1 281.4 L 450.1 279.4 " fill="#000000"/>
<path class="atom-11" d="M 323.5 410.1 Q 323.5 405.7, 325.5 403.4 Q 327.6 401.1, 331.5 401.1 Q 335.2 401.1, 337.1 403.7 L 335.5 405.0 Q 334.1 403.2, 331.5 403.2 Q 328.9 403.2, 327.4 405.0 Q 326.0 406.7, 326.0 410.1 Q 326.0 413.6, 327.5 415.4 Q 329.0 417.2, 331.8 417.2 Q 333.8 417.2, 336.0 416.1 L 336.7 417.9 Q 335.8 418.5, 334.4 418.9 Q 333.0 419.2, 331.5 419.2 Q 327.6 419.2, 325.5 416.9 Q 323.5 414.5, 323.5 410.1 " fill="#00CC00"/>
<path class="atom-11" d="M 339.1 400.0 L 341.4 400.0 L 341.4 419.0 L 339.1 419.0 L 339.1 400.0 " fill="#00CC00"/>
<path class="atom-11" d="M 345.5 417.0 L 349.4 417.0 L 349.4 403.8 L 345.1 405.1 L 344.5 403.6 L 349.9 401.2 L 351.7 401.5 L 351.7 417.0 L 355.2 417.0 L 355.2 419.0 L 345.5 419.0 L 345.5 417.0 " fill="#00CC00"/>
<path class="atom-11" d="M 357.3 404.7 Q 357.9 403.0, 359.5 402.1 Q 361.0 401.1, 363.2 401.1 Q 365.8 401.1, 367.3 402.6 Q 368.8 404.0, 368.8 406.6 Q 368.8 409.2, 366.9 411.7 Q 365.0 414.1, 361.0 417.0 L 369.1 417.0 L 369.1 419.0 L 357.2 419.0 L 357.2 417.3 Q 360.5 415.0, 362.5 413.2 Q 364.4 411.5, 365.4 409.9 Q 366.3 408.3, 366.3 406.7 Q 366.3 405.0, 365.5 404.1 Q 364.6 403.1, 363.2 403.1 Q 361.7 403.1, 360.8 403.7 Q 359.8 404.3, 359.2 405.5 L 357.3 404.7 " fill="#00CC00"/>
<path class="atom-12" d="M 611.8 279.9 Q 611.8 275.5, 613.9 273.2 Q 616.0 270.8, 619.9 270.8 Q 623.5 270.8, 625.5 273.4 L 623.8 274.8 Q 622.4 272.9, 619.9 272.9 Q 617.2 272.9, 615.8 274.7 Q 614.4 276.5, 614.4 279.9 Q 614.4 283.4, 615.8 285.2 Q 617.3 287.0, 620.2 287.0 Q 622.1 287.0, 624.4 285.8 L 625.1 287.7 Q 624.2 288.3, 622.8 288.6 Q 621.4 289.0, 619.8 289.0 Q 616.0 289.0, 613.9 286.6 Q 611.8 284.3, 611.8 279.9 " fill="#000000"/>
<path class="atom-12" d="M 628.7 286.7 L 632.5 286.7 L 632.5 273.5 L 628.3 274.8 L 627.7 273.4 L 633.1 270.9 L 634.9 271.2 L 634.9 286.7 L 638.4 286.7 L 638.4 288.7 L 628.7 288.7 L 628.7 286.7 " fill="#000000"/>
<path class="atom-12" d="M 649.1 279.4 Q 650.8 279.9, 651.7 281.0 Q 652.5 282.1, 652.5 283.9 Q 652.5 285.4, 651.8 286.6 Q 651.0 287.7, 649.6 288.4 Q 648.3 289.0, 646.5 289.0 Q 644.6 289.0, 643.1 288.3 Q 641.7 287.7, 640.6 286.3 L 642.0 284.9 Q 643.1 286.1, 644.1 286.5 Q 645.0 287.0, 646.5 287.0 Q 648.1 287.0, 649.0 286.1 Q 650.0 285.3, 650.0 283.9 Q 650.0 282.1, 649.0 281.3 Q 648.0 280.4, 645.8 280.4 L 644.5 280.4 L 644.5 278.6 L 645.7 278.6 Q 647.6 278.6, 648.6 277.8 Q 649.6 276.9, 649.6 275.4 Q 649.6 274.2, 648.8 273.5 Q 647.9 272.8, 646.5 272.8 Q 645.0 272.8, 644.1 273.4 Q 643.2 273.9, 642.5 275.2 L 640.8 274.3 Q 641.4 272.8, 642.9 271.8 Q 644.4 270.8, 646.5 270.8 Q 649.1 270.8, 650.6 272.1 Q 652.1 273.3, 652.1 275.4 Q 652.1 276.8, 651.4 277.8 Q 650.6 278.8, 649.1 279.4 " fill="#000000"/>
<path class="atom-13" d="M 521.6 751.2 L 527.4 760.6 Q 528.0 761.5, 528.9 763.2 Q 529.9 764.9, 529.9 765.0 L 529.9 751.2 L 532.3 751.2 L 532.3 768.9 L 529.8 768.9 L 523.6 758.7 Q 522.9 757.5, 522.1 756.1 Q 521.4 754.7, 521.1 754.3 L 521.1 768.9 L 518.8 768.9 L 518.8 751.2 L 521.6 751.2 " fill="#0000FF"/>
<path class="atom-13" d="M 536.6 766.9 L 540.4 766.9 L 540.4 753.7 L 536.2 755.0 L 535.6 753.5 L 541.0 751.1 L 542.8 751.4 L 542.8 766.9 L 546.3 766.9 L 546.3 768.9 L 536.6 768.9 L 536.6 766.9 " fill="#0000FF"/>
<path class="atom-13" d="M 560.1 762.8 L 562.2 762.8 L 562.2 764.8 L 560.1 764.8 L 560.1 768.9 L 557.7 768.9 L 557.7 764.8 L 548.6 764.8 L 548.6 763.3 L 556.3 751.2 L 560.1 751.2 L 560.1 762.8 M 551.5 762.8 L 557.7 762.8 L 557.7 752.8 L 551.5 762.8 " fill="#0000FF"/>
<path class="atom-14" d="M 341.8 762.8 Q 341.8 758.4, 343.8 756.1 Q 345.9 753.7, 349.8 753.7 Q 353.5 753.7, 355.4 756.3 L 353.8 757.7 Q 352.4 755.8, 349.8 755.8 Q 347.2 755.8, 345.7 757.6 Q 344.3 759.4, 344.3 762.8 Q 344.3 766.3, 345.8 768.1 Q 347.3 769.9, 350.1 769.9 Q 352.1 769.9, 354.3 768.7 L 355.0 770.6 Q 354.1 771.2, 352.7 771.5 Q 351.3 771.9, 349.8 771.9 Q 345.9 771.9, 343.8 769.5 Q 341.8 767.2, 341.8 762.8 " fill="#000000"/>
<path class="atom-14" d="M 358.6 769.6 L 362.5 769.6 L 362.5 756.4 L 358.2 757.7 L 357.7 756.3 L 363.1 753.8 L 364.9 754.1 L 364.9 769.6 L 368.3 769.6 L 368.3 771.6 L 358.6 771.6 L 358.6 769.6 " fill="#000000"/>
<path class="atom-14" d="M 377.0 760.6 Q 378.6 760.6, 379.8 761.2 Q 381.1 761.9, 381.8 763.1 Q 382.6 764.4, 382.6 766.0 Q 382.6 767.9, 381.7 769.2 Q 380.8 770.5, 379.3 771.2 Q 377.9 771.8, 376.2 771.8 Q 374.6 771.8, 373.1 771.2 Q 371.6 770.6, 370.6 769.5 L 372.1 767.9 Q 372.9 768.8, 374.0 769.3 Q 375.2 769.8, 376.3 769.8 Q 377.9 769.8, 379.0 768.8 Q 380.1 767.9, 380.1 766.1 Q 380.1 764.2, 379.0 763.3 Q 377.9 762.4, 376.2 762.4 Q 374.6 762.4, 372.9 763.1 L 371.5 762.5 L 372.4 753.9 L 381.5 753.9 L 381.2 755.9 L 374.4 755.9 L 373.9 761.2 Q 375.5 760.6, 377.0 760.6 " fill="#000000"/>
<path class="atom-15" d="M 275.1 620.8 Q 275.1 616.6, 277.2 614.2 Q 279.3 611.8, 283.2 611.8 Q 287.1 611.8, 289.2 614.2 Q 291.3 616.6, 291.3 620.8 Q 291.3 625.1, 289.2 627.6 Q 287.1 630.0, 283.2 630.0 Q 279.3 630.0, 277.2 627.6 Q 275.1 625.1, 275.1 620.8 M 283.2 628.0 Q 285.9 628.0, 287.3 626.2 Q 288.8 624.4, 288.8 620.8 Q 288.8 617.3, 287.3 615.6 Q 285.9 613.8, 283.2 613.8 Q 280.5 613.8, 279.0 615.6 Q 277.6 617.3, 277.6 620.8 Q 277.6 624.4, 279.0 626.2 Q 280.5 628.0, 283.2 628.0 " fill="#FF0000"/>
<path class="atom-15" d="M 294.8 627.7 L 298.7 627.7 L 298.7 614.5 L 294.4 615.8 L 293.9 614.3 L 299.3 611.9 L 301.1 612.2 L 301.1 627.7 L 304.5 627.7 L 304.5 629.7 L 294.8 629.7 L 294.8 627.7 " fill="#FF0000"/>
<path class="atom-15" d="M 313.8 618.7 Q 315.4 618.7, 316.6 619.3 Q 317.8 620.0, 318.5 621.2 Q 319.2 622.5, 319.2 624.0 Q 319.2 625.7, 318.4 627.1 Q 317.6 628.4, 316.3 629.2 Q 314.9 629.9, 313.2 629.9 Q 310.1 629.9, 308.5 627.8 Q 306.9 625.6, 306.9 621.4 Q 306.9 616.7, 308.8 614.3 Q 310.8 611.8, 314.6 611.8 Q 315.7 611.8, 316.6 612.1 Q 317.6 612.3, 318.5 612.8 L 317.5 614.5 Q 316.2 613.8, 314.6 613.8 Q 312.1 613.8, 310.8 615.4 Q 309.6 617.0, 309.4 620.4 Q 310.3 619.5, 311.4 619.1 Q 312.6 618.7, 313.8 618.7 M 313.2 627.9 Q 314.2 627.9, 315.0 627.4 Q 315.8 626.9, 316.2 626.0 Q 316.7 625.1, 316.7 624.0 Q 316.7 622.5, 315.8 621.6 Q 314.9 620.7, 313.4 620.7 Q 312.3 620.7, 311.2 621.1 Q 310.2 621.5, 309.4 622.3 Q 309.5 625.2, 310.4 626.5 Q 311.4 627.9, 313.2 627.9 " fill="#FF0000"/>
<path class="atom-16" d="M 375.2 482.6 Q 375.2 478.4, 377.3 476.0 Q 379.4 473.6, 383.3 473.6 Q 387.3 473.6, 389.4 476.0 Q 391.5 478.4, 391.5 482.6 Q 391.5 486.9, 389.3 489.4 Q 387.2 491.8, 383.3 491.8 Q 379.4 491.8, 377.3 489.4 Q 375.2 486.9, 375.2 482.6 M 383.3 489.8 Q 386.0 489.8, 387.5 488.0 Q 389.0 486.2, 389.0 482.6 Q 389.0 479.1, 387.5 477.4 Q 386.0 475.6, 383.3 475.6 Q 380.6 475.6, 379.2 477.4 Q 377.7 479.1, 377.7 482.6 Q 377.7 486.2, 379.2 488.0 Q 380.6 489.8, 383.3 489.8 " fill="#FF0000"/>
<path class="atom-16" d="M 395.0 489.5 L 398.9 489.5 L 398.9 476.3 L 394.6 477.6 L 394.0 476.1 L 399.4 473.7 L 401.2 474.0 L 401.2 489.5 L 404.7 489.5 L 404.7 491.5 L 395.0 491.5 L 395.0 489.5 " fill="#FF0000"/>
<path class="atom-16" d="M 416.3 475.8 L 407.0 475.8 L 407.0 473.8 L 418.8 473.8 L 418.8 475.6 L 411.6 491.5 L 409.2 491.5 L 416.3 475.8 " fill="#FF0000"/>
<path class="atom-17" d="M 697.3 757.5 Q 697.3 753.1, 699.4 750.8 Q 701.4 748.5, 705.4 748.5 Q 709.0 748.5, 711.0 751.1 L 709.3 752.4 Q 707.9 750.5, 705.4 750.5 Q 702.7 750.5, 701.3 752.3 Q 699.9 754.1, 699.9 757.5 Q 699.9 761.0, 701.3 762.8 Q 702.8 764.6, 705.6 764.6 Q 707.6 764.6, 709.9 763.4 L 710.6 765.3 Q 709.6 765.9, 708.2 766.3 Q 706.8 766.6, 705.3 766.6 Q 701.4 766.6, 699.4 764.3 Q 697.3 761.9, 697.3 757.5 " fill="#000000"/>
<path class="atom-17" d="M 714.2 764.4 L 718.0 764.4 L 718.0 751.2 L 713.8 752.5 L 713.2 751.0 L 718.6 748.6 L 720.4 748.9 L 720.4 764.4 L 723.9 764.4 L 723.9 766.4 L 714.2 766.4 L 714.2 764.4 " fill="#000000"/>
<path class="atom-17" d="M 735.2 757.0 Q 736.8 757.7, 737.7 758.8 Q 738.6 759.8, 738.6 761.5 Q 738.6 763.0, 737.9 764.2 Q 737.1 765.4, 735.7 766.0 Q 734.3 766.6, 732.5 766.6 Q 729.5 766.6, 727.8 765.3 Q 726.1 763.9, 726.1 761.5 Q 726.1 760.1, 726.9 759.0 Q 727.6 757.9, 729.2 757.1 Q 728.0 756.4, 727.4 755.5 Q 726.8 754.5, 726.8 753.0 Q 726.8 750.9, 728.3 749.7 Q 729.8 748.5, 732.4 748.5 Q 735.0 748.5, 736.5 749.7 Q 738.0 750.9, 738.0 753.0 Q 738.0 754.3, 737.3 755.3 Q 736.6 756.2, 735.2 757.0 M 732.4 750.4 Q 730.9 750.4, 730.1 751.1 Q 729.3 751.8, 729.3 753.0 Q 729.3 753.9, 729.8 754.6 Q 730.4 755.2, 731.2 755.5 Q 732.0 755.9, 733.5 756.4 Q 734.6 755.6, 735.0 754.8 Q 735.5 754.0, 735.5 753.0 Q 735.5 751.8, 734.7 751.1 Q 733.9 750.4, 732.4 750.4 M 732.5 764.8 Q 734.1 764.8, 735.1 763.9 Q 736.1 763.0, 736.1 761.5 Q 736.1 760.6, 735.6 760.0 Q 735.1 759.4, 734.3 759.0 Q 733.5 758.7, 732.1 758.2 L 731.0 757.8 Q 729.7 758.6, 729.2 759.5 Q 728.6 760.4, 728.6 761.5 Q 728.6 763.0, 729.7 763.9 Q 730.7 764.8, 732.5 764.8 " fill="#000000"/>
<path class="atom-18" d="M 761.6 615.9 Q 761.6 611.7, 763.7 609.3 Q 765.8 606.9, 769.8 606.9 Q 773.7 606.9, 775.8 609.3 Q 777.9 611.7, 777.9 615.9 Q 777.9 620.2, 775.8 622.7 Q 773.6 625.1, 769.8 625.1 Q 765.9 625.1, 763.7 622.7 Q 761.6 620.2, 761.6 615.9 M 769.8 623.1 Q 772.5 623.1, 773.9 621.3 Q 775.4 619.5, 775.4 615.9 Q 775.4 612.4, 773.9 610.7 Q 772.5 608.9, 769.8 608.9 Q 767.1 608.9, 765.6 610.7 Q 764.1 612.4, 764.1 615.9 Q 764.1 619.5, 765.6 621.3 Q 767.1 623.1, 769.8 623.1 " fill="#FF0000"/>
<path class="atom-18" d="M 781.4 622.8 L 785.3 622.8 L 785.3 609.6 L 781.0 610.9 L 780.4 609.4 L 785.9 607.0 L 787.6 607.3 L 787.6 622.8 L 791.1 622.8 L 791.1 624.8 L 781.4 624.8 L 781.4 622.8 " fill="#FF0000"/>
<path class="atom-18" d="M 799.4 606.9 Q 802.6 606.9, 804.1 609.1 Q 805.7 611.2, 805.7 615.4 Q 805.7 620.1, 803.8 622.6 Q 801.8 625.0, 798.0 625.0 Q 796.9 625.0, 796.0 624.8 Q 795.1 624.5, 794.2 624.0 L 795.1 622.3 Q 796.4 623.0, 798.0 623.0 Q 800.5 623.0, 801.8 621.4 Q 803.1 619.8, 803.2 616.5 Q 802.3 617.3, 801.2 617.7 Q 800.0 618.2, 798.8 618.2 Q 797.3 618.2, 796.0 617.5 Q 794.8 616.8, 794.1 615.6 Q 793.5 614.4, 793.5 612.8 Q 793.5 611.1, 794.2 609.8 Q 795.0 608.4, 796.3 607.7 Q 797.7 606.9, 799.4 606.9 M 796.0 612.8 Q 796.0 614.4, 796.8 615.3 Q 797.7 616.2, 799.3 616.2 Q 800.3 616.2, 801.4 615.7 Q 802.5 615.3, 803.2 614.5 Q 803.1 611.6, 802.2 610.3 Q 801.3 609.0, 799.4 609.0 Q 798.4 609.0, 797.6 609.5 Q 796.9 610.0, 796.4 610.8 Q 796.0 611.7, 796.0 612.8 " fill="#FF0000"/>
<path class="atom-19" d="M 692.8 474.5 Q 692.8 470.2, 694.9 467.9 Q 697.0 465.5, 700.9 465.5 Q 704.9 465.5, 707.0 467.9 Q 709.1 470.2, 709.1 474.5 Q 709.1 478.8, 706.9 481.2 Q 704.8 483.7, 700.9 483.7 Q 697.0 483.7, 694.9 481.2 Q 692.8 478.8, 692.8 474.5 M 700.9 481.7 Q 703.6 481.7, 705.1 479.9 Q 706.6 478.0, 706.6 474.5 Q 706.6 471.0, 705.1 469.3 Q 703.6 467.5, 700.9 467.5 Q 698.2 467.5, 696.8 469.2 Q 695.3 471.0, 695.3 474.5 Q 695.3 478.1, 696.8 479.9 Q 698.2 481.7, 700.9 481.7 " fill="#FF0000"/>
<path class="atom-19" d="M 711.7 469.0 Q 712.4 467.4, 713.9 466.4 Q 715.5 465.5, 717.6 465.5 Q 720.3 465.5, 721.8 466.9 Q 723.3 468.4, 723.3 471.0 Q 723.3 473.6, 721.4 476.0 Q 719.4 478.5, 715.4 481.4 L 723.6 481.4 L 723.6 483.4 L 711.7 483.4 L 711.7 481.7 Q 715.0 479.4, 716.9 477.6 Q 718.9 475.9, 719.9 474.3 Q 720.8 472.7, 720.8 471.1 Q 720.8 469.4, 720.0 468.4 Q 719.1 467.5, 717.6 467.5 Q 716.2 467.5, 715.3 468.1 Q 714.3 468.6, 713.6 469.9 L 711.7 469.0 " fill="#FF0000"/>
<path class="atom-19" d="M 733.0 483.6 Q 729.7 483.6, 728.1 481.2 Q 726.5 478.8, 726.5 474.5 Q 726.5 470.2, 728.1 467.9 Q 729.7 465.5, 733.0 465.5 Q 736.2 465.5, 737.8 467.9 Q 739.4 470.2, 739.4 474.5 Q 739.4 478.8, 737.8 481.2 Q 736.2 483.6, 733.0 483.6 M 733.0 481.6 Q 734.9 481.6, 735.9 479.8 Q 736.9 478.0, 736.9 474.5 Q 736.9 471.0, 735.9 469.3 Q 734.9 467.5, 733.0 467.5 Q 731.1 467.5, 730.0 469.3 Q 729.0 471.0, 729.0 474.5 Q 729.0 478.0, 730.0 479.8 Q 731.1 481.6, 733.0 481.6 " fill="#FF0000"/>
<path class="atom-20" d="M 518.1 229.0 Q 518.1 224.6, 520.1 222.3 Q 522.2 220.0, 526.1 220.0 Q 529.8 220.0, 531.7 222.6 L 530.1 223.9 Q 528.6 222.0, 526.1 222.0 Q 523.4 222.0, 522.0 223.8 Q 520.6 225.6, 520.6 229.0 Q 520.6 232.5, 522.1 234.3 Q 523.5 236.1, 526.4 236.1 Q 528.3 236.1, 530.6 234.9 L 531.3 236.8 Q 530.4 237.4, 529.0 237.8 Q 527.6 238.1, 526.0 238.1 Q 522.2 238.1, 520.1 235.8 Q 518.1 233.4, 518.1 229.0 " fill="#000000"/>
<path class="atom-20" d="M 534.0 223.5 Q 534.6 221.9, 536.2 220.9 Q 537.7 220.0, 539.9 220.0 Q 542.5 220.0, 544.0 221.4 Q 545.5 222.9, 545.5 225.5 Q 545.5 228.1, 543.6 230.5 Q 541.7 233.0, 537.7 235.9 L 545.8 235.9 L 545.8 237.9 L 533.9 237.9 L 533.9 236.2 Q 537.2 233.9, 539.2 232.1 Q 541.1 230.4, 542.1 228.8 Q 543.0 227.2, 543.0 225.6 Q 543.0 223.9, 542.2 222.9 Q 541.3 222.0, 539.9 222.0 Q 538.4 222.0, 537.5 222.6 Q 536.5 223.1, 535.9 224.4 L 534.0 223.5 " fill="#000000"/>
<path class="atom-20" d="M 549.5 235.9 L 553.4 235.9 L 553.4 222.7 L 549.1 224.0 L 548.5 222.5 L 554.0 220.1 L 555.7 220.4 L 555.7 235.9 L 559.2 235.9 L 559.2 237.9 L 549.5 237.9 L 549.5 235.9 " fill="#000000"/>
<path class="atom-21" d="M 333.7 221.7 Q 333.7 217.3, 335.7 215.0 Q 337.8 212.7, 341.7 212.7 Q 345.4 212.7, 347.3 215.3 L 345.7 216.6 Q 344.2 214.8, 341.7 214.8 Q 339.0 214.8, 337.6 216.6 Q 336.2 218.3, 336.2 221.7 Q 336.2 225.2, 337.7 227.0 Q 339.1 228.8, 342.0 228.8 Q 343.9 228.8, 346.2 227.7 L 346.9 229.5 Q 346.0 230.1, 344.6 230.5 Q 343.2 230.8, 341.6 230.8 Q 337.8 230.8, 335.7 228.5 Q 333.7 226.1, 333.7 221.7 " fill="#00CC00"/>
<path class="atom-21" d="M 349.3 211.6 L 351.6 211.6 L 351.6 230.6 L 349.3 230.6 L 349.3 211.6 " fill="#00CC00"/>
<path class="atom-21" d="M 354.8 216.3 Q 355.5 214.6, 357.0 213.7 Q 358.6 212.7, 360.7 212.7 Q 363.4 212.7, 364.9 214.2 Q 366.4 215.6, 366.4 218.2 Q 366.4 220.8, 364.4 223.3 Q 362.5 225.7, 358.5 228.6 L 366.7 228.6 L 366.7 230.6 L 354.8 230.6 L 354.8 228.9 Q 358.1 226.6, 360.0 224.8 Q 362.0 223.1, 362.9 221.5 Q 363.9 219.9, 363.9 218.3 Q 363.9 216.6, 363.0 215.7 Q 362.2 214.7, 360.7 214.7 Q 359.3 214.7, 358.3 215.3 Q 357.4 215.9, 356.7 217.1 L 354.8 216.3 " fill="#00CC00"/>
<path class="atom-21" d="M 369.2 216.3 Q 369.9 214.6, 371.4 213.7 Q 373.0 212.7, 375.1 212.7 Q 377.8 212.7, 379.3 214.2 Q 380.8 215.6, 380.8 218.2 Q 380.8 220.8, 378.9 223.3 Q 376.9 225.7, 372.9 228.6 L 381.1 228.6 L 381.1 230.6 L 369.2 230.6 L 369.2 228.9 Q 372.5 226.6, 374.4 224.8 Q 376.4 223.1, 377.4 221.5 Q 378.3 219.9, 378.3 218.3 Q 378.3 216.6, 377.5 215.7 Q 376.6 214.7, 375.1 214.7 Q 373.7 214.7, 372.8 215.3 Q 371.8 215.9, 371.1 217.1 L 369.2 216.3 " fill="#00CC00"/>
<path class="atom-22" d="M 194.5 573.1 Q 194.5 568.7, 196.5 566.4 Q 198.6 564.1, 202.5 564.1 Q 206.2 564.1, 208.1 566.7 L 206.5 568.0 Q 205.0 566.1, 202.5 566.1 Q 199.8 566.1, 198.4 567.9 Q 197.0 569.7, 197.0 573.1 Q 197.0 576.6, 198.5 578.4 Q 199.9 580.2, 202.8 580.2 Q 204.7 580.2, 207.0 579.0 L 207.7 580.9 Q 206.8 581.5, 205.4 581.9 Q 204.0 582.2, 202.4 582.2 Q 198.6 582.2, 196.5 579.9 Q 194.5 577.5, 194.5 573.1 " fill="#000000"/>
<path class="atom-22" d="M 210.4 567.6 Q 211.1 566.0, 212.6 565.0 Q 214.2 564.1, 216.3 564.1 Q 219.0 564.1, 220.5 565.5 Q 222.0 567.0, 222.0 569.6 Q 222.0 572.2, 220.0 574.6 Q 218.1 577.1, 214.1 580.0 L 222.3 580.0 L 222.3 582.0 L 210.4 582.0 L 210.4 580.3 Q 213.7 578.0, 215.6 576.2 Q 217.6 574.5, 218.5 572.9 Q 219.5 571.3, 219.5 569.7 Q 219.5 568.0, 218.6 567.0 Q 217.8 566.1, 216.3 566.1 Q 214.9 566.1, 213.9 566.7 Q 213.0 567.2, 212.3 568.5 L 210.4 567.6 " fill="#000000"/>
<path class="atom-22" d="M 233.5 572.7 Q 235.3 573.2, 236.1 574.3 Q 236.9 575.4, 236.9 577.1 Q 236.9 578.6, 236.2 579.8 Q 235.4 581.0, 234.1 581.6 Q 232.7 582.2, 230.9 582.2 Q 229.0 582.2, 227.6 581.6 Q 226.2 580.9, 225.0 579.6 L 226.5 578.1 Q 227.6 579.3, 228.5 579.8 Q 229.4 580.2, 230.9 580.2 Q 232.5 580.2, 233.5 579.4 Q 234.4 578.5, 234.4 577.1 Q 234.4 575.3, 233.4 574.5 Q 232.4 573.7, 230.2 573.7 L 229.0 573.7 L 229.0 571.9 L 230.1 571.9 Q 232.0 571.9, 233.0 571.0 Q 234.1 570.2, 234.1 568.6 Q 234.1 567.5, 233.2 566.8 Q 232.4 566.1, 230.9 566.1 Q 229.4 566.1, 228.5 566.6 Q 227.6 567.1, 226.9 568.5 L 225.2 567.5 Q 225.8 566.1, 227.3 565.1 Q 228.8 564.1, 230.9 564.1 Q 233.5 564.1, 235.0 565.3 Q 236.6 566.5, 236.6 568.6 Q 236.6 570.0, 235.8 571.1 Q 235.0 572.1, 233.5 572.7 " fill="#000000"/>
<path class="atom-23" d="M 858.7 568.5 Q 858.7 564.1, 860.7 561.8 Q 862.8 559.5, 866.7 559.5 Q 870.4 559.5, 872.3 562.1 L 870.7 563.4 Q 869.3 561.6, 866.7 561.6 Q 864.1 561.6, 862.6 563.4 Q 861.2 565.1, 861.2 568.5 Q 861.2 572.0, 862.7 573.8 Q 864.2 575.6, 867.0 575.6 Q 869.0 575.6, 871.2 574.5 L 871.9 576.3 Q 871.0 576.9, 869.6 577.3 Q 868.2 577.6, 866.7 577.6 Q 862.8 577.6, 860.7 575.3 Q 858.7 572.9, 858.7 568.5 " fill="#000000"/>
<path class="atom-23" d="M 874.7 563.1 Q 875.3 561.4, 876.9 560.5 Q 878.4 559.5, 880.6 559.5 Q 883.3 559.5, 884.8 561.0 Q 886.3 562.4, 886.3 565.0 Q 886.3 567.6, 884.3 570.1 Q 882.4 572.5, 878.4 575.4 L 886.6 575.4 L 886.6 577.4 L 874.6 577.4 L 874.6 575.7 Q 877.9 573.4, 879.9 571.6 Q 881.9 569.9, 882.8 568.3 Q 883.8 566.7, 883.8 565.1 Q 883.8 563.4, 882.9 562.5 Q 882.1 561.5, 880.6 561.5 Q 879.2 561.5, 878.2 562.1 Q 877.3 562.7, 876.6 563.9 L 874.7 563.1 " fill="#000000"/>
<path class="atom-23" d="M 900.9 571.3 L 903.0 571.3 L 903.0 573.3 L 900.9 573.3 L 900.9 577.4 L 898.5 577.4 L 898.5 573.3 L 889.4 573.3 L 889.4 571.8 L 897.1 559.7 L 900.9 559.7 L 900.9 571.3 M 892.3 571.3 L 898.5 571.3 L 898.5 561.3 L 892.3 571.3 " fill="#000000"/>
<path class="atom-24" d="M 97.0 620.2 Q 97.0 615.8, 99.1 613.5 Q 101.1 611.2, 105.1 611.2 Q 108.7 611.2, 110.7 613.8 L 109.0 615.1 Q 107.6 613.2, 105.1 613.2 Q 102.4 613.2, 101.0 615.0 Q 99.6 616.8, 99.6 620.2 Q 99.6 623.7, 101.0 625.5 Q 102.5 627.3, 105.3 627.3 Q 107.3 627.3, 109.6 626.1 L 110.3 628.0 Q 109.3 628.6, 107.9 629.0 Q 106.5 629.3, 105.0 629.3 Q 101.1 629.3, 99.1 627.0 Q 97.0 624.6, 97.0 620.2 " fill="#000000"/>
<path class="atom-24" d="M 113.0 614.7 Q 113.6 613.1, 115.2 612.1 Q 116.7 611.2, 118.9 611.2 Q 121.5 611.2, 123.0 612.6 Q 124.5 614.1, 124.5 616.7 Q 124.5 619.3, 122.6 621.7 Q 120.7 624.2, 116.7 627.1 L 124.8 627.1 L 124.8 629.1 L 112.9 629.1 L 112.9 627.4 Q 116.2 625.1, 118.2 623.3 Q 120.1 621.6, 121.1 620.0 Q 122.0 618.4, 122.0 616.8 Q 122.0 615.1, 121.2 614.1 Q 120.3 613.2, 118.9 613.2 Q 117.4 613.2, 116.5 613.8 Q 115.5 614.3, 114.9 615.6 L 113.0 614.7 " fill="#000000"/>
<path class="atom-24" d="M 134.0 618.0 Q 135.6 618.0, 136.8 618.7 Q 138.1 619.3, 138.8 620.6 Q 139.6 621.8, 139.6 623.5 Q 139.6 625.3, 138.7 626.6 Q 137.8 627.9, 136.3 628.6 Q 134.9 629.3, 133.2 629.3 Q 131.6 629.3, 130.1 628.7 Q 128.6 628.1, 127.6 626.9 L 129.1 625.4 Q 129.9 626.3, 131.0 626.8 Q 132.2 627.3, 133.3 627.3 Q 134.9 627.3, 136.0 626.3 Q 137.1 625.3, 137.1 623.5 Q 137.1 621.7, 136.0 620.8 Q 134.9 619.9, 133.2 619.9 Q 131.6 619.9, 129.9 620.6 L 128.5 619.9 L 129.4 611.4 L 138.5 611.4 L 138.2 613.4 L 131.4 613.4 L 130.9 618.6 Q 132.5 618.0, 134.0 618.0 " fill="#000000"/>
<text x="1000" y="50" font-size="8" font-family="Verdana" font-weight="normal" letter-spacing="0" text-anchor="start" fill="black">Highlighted Atoms:
Primary SOM: Red
Secondary SOM: Green
Tertiary SOM: Cyan
</text></svg>
