<?xml version='1.0' encoding='ASCII' standalone='yes'?>
<svg xmlns="http://www.w3.org/2000/svg" xmlns:rdkit="http://www.rdkit.org/xml" xmlns:xlink="http://www.w3.org/1999/xlink" style="background-color: white;" version="1.1" baseProfile="full" xml:space="preserve" width="1000px" height="1000px" viewBox="0 0 1000 1000">
<!-- END OF HEADER -->
<rect style="opacity:1.0;fill:#FFFFFF;stroke:none" width="1000.0" height="1000.0" x="0.0" y="0.0"> </rect>
<ellipse cx="350.5" cy="647.8" rx="36.7" ry="36.7" class="atom-0" style="fill:#B20000;fill-rule:evenodd;stroke:#B20000;stroke-width:1.0px;stroke-linecap:butt;stroke-linejoin:miter;stroke-opacity:1"/>
<ellipse cx="138.9" cy="647.4" rx="36.7" ry="36.7" class="atom-7" style="fill:#B20000;fill-rule:evenodd;stroke:#B20000;stroke-width:1.0px;stroke-linecap:butt;stroke-linejoin:miter;stroke-opacity:1"/>
<path class="bond-0 atom-1 atom-0" d="M 430.8,711.1 L 361.8,660.6" style="fill:none;fill-rule:evenodd;stroke:#000000;stroke-width:2.0px;stroke-linecap:butt;stroke-linejoin:miter;stroke-opacity:1"/>
<path class="bond-1 atom-2 atom-0" d="M 255.1,712.5 L 294.2,684.0" style="fill:none;fill-rule:evenodd;stroke:#0000FF;stroke-width:2.0px;stroke-linecap:butt;stroke-linejoin:miter;stroke-opacity:1"/>
<path class="bond-1 atom-2 atom-0" d="M 294.2,684.0 L 333.3,655.6" style="fill:none;fill-rule:evenodd;stroke:#000000;stroke-width:2.0px;stroke-linecap:butt;stroke-linejoin:miter;stroke-opacity:1"/>
<path class="bond-2 atom-3 atom-0" d="M 309.7,544.8 L 339.8,634.8" style="fill:none;fill-rule:evenodd;stroke:#000000;stroke-width:2.0px;stroke-linecap:butt;stroke-linejoin:miter;stroke-opacity:1"/>
<path class="bond-3 atom-4 atom-1" d="M 407.6,821.4 L 437.2,732.1" style="fill:none;fill-rule:evenodd;stroke:#000000;stroke-width:2.0px;stroke-linecap:butt;stroke-linejoin:miter;stroke-opacity:1"/>
<path class="bond-4 atom-5 atom-1" d="M 512.8,662.7 L 485.4,684.4" style="fill:none;fill-rule:evenodd;stroke:#FF0000;stroke-width:2.0px;stroke-linecap:butt;stroke-linejoin:miter;stroke-opacity:1"/>
<path class="bond-4 atom-5 atom-1" d="M 485.4,684.4 L 457.9,706.1" style="fill:none;fill-rule:evenodd;stroke:#000000;stroke-width:2.0px;stroke-linecap:butt;stroke-linejoin:miter;stroke-opacity:1"/>
<path class="bond-5 atom-6 atom-2" d="M 278.8,821.5 L 264.1,777.2" style="fill:none;fill-rule:evenodd;stroke:#000000;stroke-width:2.0px;stroke-linecap:butt;stroke-linejoin:miter;stroke-opacity:1"/>
<path class="bond-5 atom-6 atom-2" d="M 264.1,777.2 L 249.5,732.9" style="fill:none;fill-rule:evenodd;stroke:#0000FF;stroke-width:2.0px;stroke-linecap:butt;stroke-linejoin:miter;stroke-opacity:1"/>
<path class="bond-6 atom-6 atom-4" d="M 292.9,834.4 L 392.5,834.3" style="fill:none;fill-rule:evenodd;stroke:#000000;stroke-width:2.0px;stroke-linecap:butt;stroke-linejoin:miter;stroke-opacity:1"/>
<path class="bond-7 atom-7 atom-2" d="M 157.1,654.8 L 192.5,680.9" style="fill:none;fill-rule:evenodd;stroke:#000000;stroke-width:2.0px;stroke-linecap:butt;stroke-linejoin:miter;stroke-opacity:1"/>
<path class="bond-7 atom-7 atom-2" d="M 192.5,680.9 L 227.9,707.0" style="fill:none;fill-rule:evenodd;stroke:#0000FF;stroke-width:2.0px;stroke-linecap:butt;stroke-linejoin:miter;stroke-opacity:1"/>
<path class="bond-8 atom-8 atom-3" d="M 194.0,532.7 L 286.6,532.0" style="fill:none;fill-rule:evenodd;stroke:#000000;stroke-width:2.0px;stroke-linecap:butt;stroke-linejoin:miter;stroke-opacity:1"/>
<path class="bond-8 atom-8 atom-3" d="M 194.1,550.8 L 286.7,550.1" style="fill:none;fill-rule:evenodd;stroke:#000000;stroke-width:2.0px;stroke-linecap:butt;stroke-linejoin:miter;stroke-opacity:1"/>
<path class="bond-9 atom-8 atom-7" d="M 179.6,545.9 L 151.0,634.3" style="fill:none;fill-rule:evenodd;stroke:#000000;stroke-width:2.0px;stroke-linecap:butt;stroke-linejoin:miter;stroke-opacity:1"/>
<path class="bond-10 atom-9 atom-3" d="M 390.4,473.2 L 323.8,519.2" style="fill:none;fill-rule:evenodd;stroke:#000000;stroke-width:2.0px;stroke-linecap:butt;stroke-linejoin:miter;stroke-opacity:1"/>
<path class="bond-11 atom-10 atom-5" d="M 631.2,694.1 L 590.2,676.1" style="fill:none;fill-rule:evenodd;stroke:#000000;stroke-width:2.0px;stroke-linecap:butt;stroke-linejoin:miter;stroke-opacity:1"/>
<path class="bond-11 atom-10 atom-5" d="M 590.2,676.1 L 549.1,658.1" style="fill:none;fill-rule:evenodd;stroke:#FF0000;stroke-width:2.0px;stroke-linecap:butt;stroke-linejoin:miter;stroke-opacity:1"/>
<path class="bond-12 atom-11 atom-9" d="M 394.8,370.9 L 397.6,411.9" style="fill:none;fill-rule:evenodd;stroke:#FF0000;stroke-width:2.0px;stroke-linecap:butt;stroke-linejoin:miter;stroke-opacity:1"/>
<path class="bond-12 atom-11 atom-9" d="M 397.6,411.9 L 400.4,452.8" style="fill:none;fill-rule:evenodd;stroke:#000000;stroke-width:2.0px;stroke-linecap:butt;stroke-linejoin:miter;stroke-opacity:1"/>
<path class="bond-13 atom-12 atom-10" d="M 729.0,635.6 L 659.6,686.0" style="fill:none;fill-rule:evenodd;stroke:#000000;stroke-width:2.0px;stroke-linecap:butt;stroke-linejoin:miter;stroke-opacity:1"/>
<path class="bond-14 atom-13 atom-10" d="M 644.9,809.1 L 639.7,761.0" style="fill:none;fill-rule:evenodd;stroke:#FF0000;stroke-width:2.0px;stroke-linecap:butt;stroke-linejoin:miter;stroke-opacity:1"/>
<path class="bond-14 atom-13 atom-10" d="M 639.7,761.0 L 634.5,713.0" style="fill:none;fill-rule:evenodd;stroke:#000000;stroke-width:2.0px;stroke-linecap:butt;stroke-linejoin:miter;stroke-opacity:1"/>
<path class="bond-14 atom-13 atom-10" d="M 662.8,807.1 L 657.6,759.1" style="fill:none;fill-rule:evenodd;stroke:#FF0000;stroke-width:2.0px;stroke-linecap:butt;stroke-linejoin:miter;stroke-opacity:1"/>
<path class="bond-14 atom-13 atom-10" d="M 657.6,759.1 L 652.4,711.0" style="fill:none;fill-rule:evenodd;stroke:#000000;stroke-width:2.0px;stroke-linecap:butt;stroke-linejoin:miter;stroke-opacity:1"/>
<path class="bond-15 atom-14 atom-11" d="M 473.6,300.0 L 438.7,325.4" style="fill:none;fill-rule:evenodd;stroke:#000000;stroke-width:2.0px;stroke-linecap:butt;stroke-linejoin:miter;stroke-opacity:1"/>
<path class="bond-15 atom-14 atom-11" d="M 438.7,325.4 L 403.9,350.8" style="fill:none;fill-rule:evenodd;stroke:#FF0000;stroke-width:2.0px;stroke-linecap:butt;stroke-linejoin:miter;stroke-opacity:1"/>
<path class="bond-16 atom-15 atom-12" d="M 727.6,519.5 L 738.3,614.8" style="fill:none;fill-rule:evenodd;stroke:#000000;stroke-width:2.0px;stroke-linecap:butt;stroke-linejoin:miter;stroke-opacity:1"/>
<path class="bond-17 atom-16 atom-12" d="M 835.9,680.0 L 766.0,649.2" style="fill:none;fill-rule:evenodd;stroke:#000000;stroke-width:2.0px;stroke-linecap:butt;stroke-linejoin:miter;stroke-opacity:1"/>
<path class="bond-17 atom-16 atom-12" d="M 843.2,663.5 L 773.3,632.6" style="fill:none;fill-rule:evenodd;stroke:#000000;stroke-width:2.0px;stroke-linecap:butt;stroke-linejoin:miter;stroke-opacity:1"/>
<path class="bond-18 atom-17 atom-14" d="M 574.4,324.2 L 501.6,291.4" style="fill:none;fill-rule:evenodd;stroke:#000000;stroke-width:2.0px;stroke-linecap:butt;stroke-linejoin:miter;stroke-opacity:1"/>
<path class="bond-19 atom-18 atom-14" d="M 489.5,177.7 L 494.4,225.5" style="fill:none;fill-rule:evenodd;stroke:#FF0000;stroke-width:2.0px;stroke-linecap:butt;stroke-linejoin:miter;stroke-opacity:1"/>
<path class="bond-19 atom-18 atom-14" d="M 494.4,225.5 L 499.3,273.2" style="fill:none;fill-rule:evenodd;stroke:#000000;stroke-width:2.0px;stroke-linecap:butt;stroke-linejoin:miter;stroke-opacity:1"/>
<path class="bond-19 atom-18 atom-14" d="M 471.5,179.5 L 476.5,227.3" style="fill:none;fill-rule:evenodd;stroke:#FF0000;stroke-width:2.0px;stroke-linecap:butt;stroke-linejoin:miter;stroke-opacity:1"/>
<path class="bond-19 atom-18 atom-14" d="M 476.5,227.3 L 481.4,275.1" style="fill:none;fill-rule:evenodd;stroke:#000000;stroke-width:2.0px;stroke-linecap:butt;stroke-linejoin:miter;stroke-opacity:1"/>
<path class="bond-20 atom-19 atom-15" d="M 626.2,461.9 L 715.4,501.6" style="fill:none;fill-rule:evenodd;stroke:#000000;stroke-width:2.0px;stroke-linecap:butt;stroke-linejoin:miter;stroke-opacity:1"/>
<path class="bond-21 atom-19 atom-17" d="M 614.3,444.4 L 604.4,350.3" style="fill:none;fill-rule:evenodd;stroke:#000000;stroke-width:2.0px;stroke-linecap:butt;stroke-linejoin:miter;stroke-opacity:1"/>
<path class="bond-22 atom-20 atom-16" d="M 862.1,783.7 L 851.8,689.6" style="fill:none;fill-rule:evenodd;stroke:#000000;stroke-width:2.0px;stroke-linecap:butt;stroke-linejoin:miter;stroke-opacity:1"/>
<path class="bond-23 atom-21 atom-17" d="M 629.3,233.1 L 606.3,324.2" style="fill:none;fill-rule:evenodd;stroke:#000000;stroke-width:2.0px;stroke-linecap:butt;stroke-linejoin:miter;stroke-opacity:1"/>
<path class="bond-24 atom-22 atom-17" d="M 711.4,344.8 L 662.3,341.3" style="fill:none;fill-rule:evenodd;stroke:#FF0000;stroke-width:2.0px;stroke-linecap:butt;stroke-linejoin:miter;stroke-opacity:1"/>
<path class="bond-24 atom-22 atom-17" d="M 662.3,341.3 L 613.2,337.9" style="fill:none;fill-rule:evenodd;stroke:#000000;stroke-width:2.0px;stroke-linecap:butt;stroke-linejoin:miter;stroke-opacity:1"/>
<path class="bond-25 atom-23 atom-19" d="M 528.8,520.6 L 598.0,470.2" style="fill:none;fill-rule:evenodd;stroke:#000000;stroke-width:2.0px;stroke-linecap:butt;stroke-linejoin:miter;stroke-opacity:1"/>
<path class="atom-0" d="M 337.3 647.8 Q 337.3 643.4, 339.3 641.1 Q 341.4 638.8, 345.3 638.8 Q 349.0 638.8, 350.9 641.3 L 349.3 642.7 Q 347.8 640.8, 345.3 640.8 Q 342.6 640.8, 341.2 642.6 Q 339.8 644.4, 339.8 647.8 Q 339.8 651.3, 341.3 653.1 Q 342.7 654.9, 345.6 654.9 Q 347.5 654.9, 349.8 653.7 L 350.5 655.6 Q 349.6 656.2, 348.2 656.5 Q 346.8 656.9, 345.2 656.9 Q 341.4 656.9, 339.3 654.5 Q 337.3 652.2, 337.3 647.8 " fill="#000000"/>
<path class="atom-0" d="M 354.1 654.7 L 358.0 654.7 L 358.0 641.4 L 353.7 642.8 L 353.1 641.3 L 358.6 638.9 L 360.3 639.2 L 360.3 654.7 L 363.8 654.7 L 363.8 656.7 L 354.1 656.7 L 354.1 654.7 " fill="#000000"/>
<path class="atom-1" d="M 434.7 719.1 Q 434.7 714.7, 436.8 712.4 Q 438.9 710.1, 442.8 710.1 Q 446.4 710.1, 448.4 712.6 L 446.7 714.0 Q 445.3 712.1, 442.8 712.1 Q 440.1 712.1, 438.7 713.9 Q 437.3 715.7, 437.3 719.1 Q 437.3 722.6, 438.7 724.4 Q 440.2 726.2, 443.1 726.2 Q 445.0 726.2, 447.3 725.0 L 448.0 726.9 Q 447.1 727.5, 445.7 727.8 Q 444.3 728.2, 442.7 728.2 Q 438.9 728.2, 436.8 725.8 Q 434.7 723.5, 434.7 719.1 " fill="#000000"/>
<path class="atom-1" d="M 450.7 713.6 Q 451.4 711.9, 452.9 711.0 Q 454.5 710.1, 456.6 710.1 Q 459.3 710.1, 460.8 711.5 Q 462.3 713.0, 462.3 715.5 Q 462.3 718.2, 460.3 720.6 Q 458.4 723.1, 454.4 726.0 L 462.6 726.0 L 462.6 728.0 L 450.7 728.0 L 450.7 726.3 Q 454.0 723.9, 455.9 722.2 Q 457.9 720.4, 458.8 718.9 Q 459.8 717.3, 459.8 715.7 Q 459.8 714.0, 458.9 713.0 Q 458.1 712.1, 456.6 712.1 Q 455.2 712.1, 454.2 712.6 Q 453.3 713.2, 452.6 714.5 L 450.7 713.6 " fill="#000000"/>
<path class="atom-2" d="M 225.3 711.0 L 231.1 720.4 Q 231.6 721.3, 232.6 723.0 Q 233.5 724.6, 233.5 724.7 L 233.5 711.0 L 235.9 711.0 L 235.9 728.7 L 233.5 728.7 L 227.2 718.4 Q 226.5 717.2, 225.7 715.9 Q 225.0 714.5, 224.8 714.1 L 224.8 728.7 L 222.5 728.7 L 222.5 711.0 L 225.3 711.0 " fill="#0000FF"/>
<path class="atom-2" d="M 247.7 719.4 Q 249.4 719.9, 250.3 721.0 Q 251.1 722.1, 251.1 723.8 Q 251.1 725.3, 250.4 726.5 Q 249.6 727.7, 248.2 728.3 Q 246.9 728.9, 245.1 728.9 Q 243.2 728.9, 241.7 728.3 Q 240.3 727.6, 239.2 726.3 L 240.6 724.8 Q 241.7 726.0, 242.7 726.5 Q 243.6 726.9, 245.1 726.9 Q 246.7 726.9, 247.6 726.1 Q 248.6 725.2, 248.6 723.8 Q 248.6 722.0, 247.6 721.2 Q 246.6 720.4, 244.4 720.4 L 243.1 720.4 L 243.1 718.6 L 244.3 718.6 Q 246.2 718.6, 247.2 717.7 Q 248.2 716.9, 248.2 715.3 Q 248.2 714.2, 247.4 713.5 Q 246.5 712.8, 245.1 712.8 Q 243.6 712.8, 242.7 713.3 Q 241.8 713.8, 241.1 715.2 L 239.4 714.2 Q 240.0 712.8, 241.5 711.8 Q 243.0 710.8, 245.1 710.8 Q 247.7 710.8, 249.2 712.0 Q 250.7 713.2, 250.7 715.3 Q 250.7 716.7, 250.0 717.8 Q 249.2 718.8, 247.7 719.4 " fill="#0000FF"/>
<path class="atom-3" d="M 290.5 532.0 Q 290.5 527.6, 292.6 525.3 Q 294.7 522.9, 298.6 522.9 Q 302.2 522.9, 304.2 525.5 L 302.5 526.9 Q 301.1 525.0, 298.6 525.0 Q 295.9 525.0, 294.5 526.8 Q 293.1 528.6, 293.1 532.0 Q 293.1 535.5, 294.5 537.3 Q 296.0 539.1, 298.9 539.1 Q 300.8 539.1, 303.1 537.9 L 303.8 539.8 Q 302.9 540.4, 301.5 540.7 Q 300.1 541.1, 298.5 541.1 Q 294.7 541.1, 292.6 538.7 Q 290.5 536.4, 290.5 532.0 " fill="#000000"/>
<path class="atom-3" d="M 318.1 534.8 L 320.2 534.8 L 320.2 536.8 L 318.1 536.8 L 318.1 540.8 L 315.7 540.8 L 315.7 536.8 L 306.6 536.8 L 306.6 535.2 L 314.3 523.1 L 318.1 523.1 L 318.1 534.8 M 309.5 534.8 L 315.7 534.8 L 315.7 524.7 L 309.5 534.8 " fill="#000000"/>
<path class="atom-4" d="M 396.5 834.4 Q 396.5 830.0, 398.6 827.7 Q 400.6 825.4, 404.6 825.4 Q 408.2 825.4, 410.2 828.0 L 408.5 829.3 Q 407.1 827.4, 404.6 827.4 Q 401.9 827.4, 400.5 829.2 Q 399.1 831.0, 399.1 834.4 Q 399.1 837.9, 400.5 839.7 Q 402.0 841.5, 404.8 841.5 Q 406.8 841.5, 409.1 840.3 L 409.8 842.2 Q 408.8 842.8, 407.4 843.2 Q 406.0 843.5, 404.5 843.5 Q 400.6 843.5, 398.6 841.2 Q 396.5 838.8, 396.5 834.4 " fill="#000000"/>
<path class="atom-4" d="M 418.9 832.2 Q 420.4 832.2, 421.7 832.9 Q 423.0 833.5, 423.7 834.8 Q 424.4 836.0, 424.4 837.7 Q 424.4 839.5, 423.5 840.8 Q 422.6 842.1, 421.2 842.8 Q 419.7 843.5, 418.1 843.5 Q 416.5 843.5, 415.0 842.9 Q 413.5 842.3, 412.4 841.1 L 413.9 839.6 Q 414.8 840.5, 415.9 841.0 Q 417.0 841.5, 418.2 841.5 Q 419.7 841.5, 420.8 840.5 Q 421.9 839.5, 421.9 837.7 Q 421.9 835.9, 420.8 835.0 Q 419.7 834.1, 418.0 834.1 Q 416.5 834.1, 414.7 834.8 L 413.4 834.1 L 414.2 825.6 L 423.3 825.6 L 423.1 827.6 L 416.3 827.6 L 415.7 832.8 Q 417.3 832.2, 418.9 832.2 " fill="#000000"/>
<path class="atom-5" d="M 513.9 649.5 Q 513.9 645.3, 516.0 642.9 Q 518.1 640.5, 522.1 640.5 Q 526.0 640.5, 528.1 642.9 Q 530.2 645.3, 530.2 649.5 Q 530.2 653.8, 528.1 656.3 Q 525.9 658.7, 522.1 658.7 Q 518.2 658.7, 516.0 656.3 Q 513.9 653.9, 513.9 649.5 M 522.1 656.7 Q 524.8 656.7, 526.2 654.9 Q 527.7 653.1, 527.7 649.5 Q 527.7 646.1, 526.2 644.3 Q 524.8 642.5, 522.1 642.5 Q 519.4 642.5, 517.9 644.3 Q 516.4 646.0, 516.4 649.5 Q 516.4 653.1, 517.9 654.9 Q 519.4 656.7, 522.1 656.7 " fill="#FF0000"/>
<path class="atom-5" d="M 539.8 647.4 Q 541.3 647.4, 542.6 648.1 Q 543.8 648.7, 544.5 650.0 Q 545.1 651.2, 545.1 652.7 Q 545.1 654.5, 544.4 655.8 Q 543.6 657.1, 542.3 657.9 Q 540.9 658.6, 539.2 658.6 Q 536.0 658.6, 534.4 656.5 Q 532.9 654.4, 532.9 650.1 Q 532.9 645.4, 534.8 643.0 Q 536.8 640.5, 540.6 640.5 Q 541.7 640.5, 542.6 640.8 Q 543.5 641.0, 544.4 641.6 L 543.5 643.2 Q 542.2 642.5, 540.6 642.5 Q 538.1 642.5, 536.8 644.2 Q 535.5 645.8, 535.4 649.1 Q 536.3 648.3, 537.4 647.8 Q 538.6 647.4, 539.8 647.4 M 539.2 656.6 Q 540.2 656.6, 540.9 656.1 Q 541.7 655.6, 542.2 654.7 Q 542.6 653.8, 542.6 652.8 Q 542.6 651.2, 541.8 650.3 Q 540.9 649.4, 539.3 649.4 Q 538.3 649.4, 537.2 649.8 Q 536.1 650.3, 535.4 651.0 Q 535.5 653.9, 536.4 655.3 Q 537.3 656.6, 539.2 656.6 " fill="#FF0000"/>
<path class="atom-6" d="M 261.3 834.5 Q 261.3 830.1, 263.3 827.8 Q 265.4 825.4, 269.3 825.4 Q 273.0 825.4, 274.9 828.0 L 273.3 829.4 Q 271.8 827.5, 269.3 827.5 Q 266.6 827.5, 265.2 829.3 Q 263.8 831.1, 263.8 834.5 Q 263.8 838.0, 265.3 839.8 Q 266.7 841.6, 269.6 841.6 Q 271.5 841.6, 273.8 840.4 L 274.5 842.3 Q 273.6 842.9, 272.2 843.2 Q 270.8 843.6, 269.2 843.6 Q 265.4 843.6, 263.3 841.2 Q 261.3 838.9, 261.3 834.5 " fill="#000000"/>
<path class="atom-6" d="M 286.4 827.6 L 277.2 827.6 L 277.2 825.6 L 288.9 825.6 L 288.9 827.4 L 281.8 843.3 L 279.4 843.3 L 286.4 827.6 " fill="#000000"/>
<path class="atom-7" d="M 124.6 647.3 Q 124.6 642.9, 126.7 640.6 Q 128.8 638.3, 132.7 638.3 Q 136.3 638.3, 138.3 640.9 L 136.6 642.2 Q 135.2 640.4, 132.7 640.4 Q 130.0 640.4, 128.6 642.2 Q 127.2 643.9, 127.2 647.3 Q 127.2 650.8, 128.6 652.6 Q 130.1 654.4, 133.0 654.4 Q 134.9 654.4, 137.2 653.3 L 137.9 655.1 Q 137.0 655.7, 135.6 656.1 Q 134.2 656.4, 132.6 656.4 Q 128.8 656.4, 126.7 654.1 Q 124.6 651.7, 124.6 647.3 " fill="#000000"/>
<path class="atom-7" d="M 149.6 646.8 Q 151.2 647.5, 152.2 648.6 Q 153.1 649.6, 153.1 651.4 Q 153.1 652.9, 152.3 654.0 Q 151.5 655.2, 150.1 655.8 Q 148.8 656.5, 146.9 656.5 Q 144.0 656.5, 142.3 655.1 Q 140.6 653.7, 140.6 651.4 Q 140.6 649.9, 141.3 648.8 Q 142.1 647.7, 143.6 646.9 Q 142.5 646.3, 141.9 645.3 Q 141.2 644.3, 141.2 642.8 Q 141.2 640.8, 142.7 639.5 Q 144.3 638.3, 146.8 638.3 Q 149.4 638.3, 150.9 639.5 Q 152.4 640.8, 152.4 642.8 Q 152.4 644.1, 151.7 645.1 Q 151.0 646.1, 149.6 646.8 M 146.8 640.2 Q 145.4 640.2, 144.5 640.9 Q 143.7 641.6, 143.7 642.8 Q 143.7 643.8, 144.3 644.4 Q 144.8 645.0, 145.6 645.3 Q 146.4 645.7, 147.9 646.2 Q 149.0 645.5, 149.5 644.7 Q 149.9 643.9, 149.9 642.8 Q 149.9 641.6, 149.1 640.9 Q 148.3 640.2, 146.8 640.2 M 146.9 654.6 Q 148.6 654.6, 149.6 653.7 Q 150.6 652.8, 150.6 651.3 Q 150.6 650.4, 150.1 649.8 Q 149.5 649.2, 148.7 648.8 Q 148.0 648.5, 146.6 648.0 L 145.4 647.7 Q 144.2 648.4, 143.6 649.3 Q 143.1 650.2, 143.1 651.3 Q 143.1 652.8, 144.1 653.7 Q 145.2 654.6, 146.9 654.6 " fill="#000000"/>
<path class="atom-8" d="M 161.8 532.9 Q 161.8 528.5, 163.8 526.2 Q 165.9 523.8, 169.8 523.8 Q 173.5 523.8, 175.4 526.4 L 173.8 527.8 Q 172.4 525.9, 169.8 525.9 Q 167.2 525.9, 165.7 527.7 Q 164.3 529.5, 164.3 532.9 Q 164.3 536.4, 165.8 538.2 Q 167.3 540.0, 170.1 540.0 Q 172.1 540.0, 174.3 538.8 L 175.0 540.7 Q 174.1 541.3, 172.7 541.6 Q 171.3 542.0, 169.8 542.0 Q 165.9 542.0, 163.8 539.6 Q 161.8 537.3, 161.8 532.9 " fill="#000000"/>
<path class="atom-8" d="M 183.7 523.8 Q 186.8 523.8, 188.4 526.0 Q 190.0 528.1, 190.0 532.4 Q 190.0 537.1, 188.0 539.5 Q 186.1 541.9, 182.3 541.9 Q 181.2 541.9, 180.3 541.7 Q 179.3 541.4, 178.4 540.9 L 179.4 539.2 Q 180.7 539.9, 182.3 539.9 Q 184.8 539.9, 186.1 538.3 Q 187.3 536.7, 187.5 533.4 Q 186.6 534.2, 185.4 534.7 Q 184.3 535.1, 183.1 535.1 Q 181.5 535.1, 180.3 534.4 Q 179.1 533.7, 178.4 532.5 Q 177.7 531.3, 177.7 529.7 Q 177.7 528.0, 178.5 526.7 Q 179.3 525.3, 180.6 524.6 Q 182.0 523.8, 183.7 523.8 M 180.2 529.7 Q 180.2 531.3, 181.1 532.2 Q 182.0 533.1, 183.5 533.1 Q 184.6 533.1, 185.7 532.7 Q 186.7 532.2, 187.5 531.5 Q 187.4 528.5, 186.5 527.2 Q 185.5 525.9, 183.7 525.9 Q 182.7 525.9, 181.9 526.4 Q 181.1 526.9, 180.7 527.8 Q 180.2 528.6, 180.2 529.7 " fill="#000000"/>
<path class="atom-9" d="M 394.4 465.8 Q 394.4 461.4, 396.5 459.1 Q 398.5 456.8, 402.5 456.8 Q 406.1 456.8, 408.1 459.4 L 406.4 460.7 Q 405.0 458.8, 402.5 458.8 Q 399.8 458.8, 398.4 460.6 Q 397.0 462.4, 397.0 465.8 Q 397.0 469.3, 398.4 471.1 Q 399.9 472.9, 402.7 472.9 Q 404.7 472.9, 407.0 471.7 L 407.7 473.6 Q 406.7 474.2, 405.3 474.6 Q 403.9 474.9, 402.4 474.9 Q 398.5 474.9, 396.5 472.6 Q 394.4 470.2, 394.4 465.8 " fill="#000000"/>
<path class="atom-9" d="M 411.3 472.7 L 415.2 472.7 L 415.2 459.5 L 410.9 460.8 L 410.3 459.3 L 415.7 456.9 L 417.5 457.2 L 417.5 472.7 L 421.0 472.7 L 421.0 474.7 L 411.3 474.7 L 411.3 472.7 " fill="#000000"/>
<path class="atom-9" d="M 429.7 474.9 Q 426.5 474.9, 424.9 472.5 Q 423.3 470.1, 423.3 465.8 Q 423.3 461.5, 424.9 459.2 Q 426.5 456.8, 429.7 456.8 Q 433.0 456.8, 434.6 459.2 Q 436.2 461.5, 436.2 465.8 Q 436.2 470.1, 434.6 472.5 Q 433.0 474.9, 429.7 474.9 M 429.7 472.9 Q 431.7 472.9, 432.7 471.1 Q 433.7 469.3, 433.7 465.8 Q 433.7 462.3, 432.7 460.6 Q 431.7 458.8, 429.7 458.8 Q 427.8 458.8, 426.8 460.6 Q 425.8 462.3, 425.8 465.8 Q 425.8 469.3, 426.8 471.1 Q 427.8 472.9, 429.7 472.9 " fill="#000000"/>
<path class="atom-10" d="M 635.2 698.9 Q 635.2 694.5, 637.2 692.2 Q 639.3 689.9, 643.2 689.9 Q 646.9 689.9, 648.8 692.5 L 647.2 693.8 Q 645.8 692.0, 643.2 692.0 Q 640.6 692.0, 639.1 693.8 Q 637.7 695.5, 637.7 698.9 Q 637.7 702.4, 639.2 704.2 Q 640.7 706.0, 643.5 706.0 Q 645.5 706.0, 647.7 704.9 L 648.4 706.7 Q 647.5 707.3, 646.1 707.7 Q 644.7 708.0, 643.2 708.0 Q 639.3 708.0, 637.2 705.7 Q 635.2 703.3, 635.2 698.9 " fill="#000000"/>
<path class="atom-10" d="M 652.0 705.8 L 655.9 705.8 L 655.9 692.6 L 651.6 693.9 L 651.0 692.4 L 656.4 690.0 L 658.2 690.3 L 658.2 705.8 L 661.7 705.8 L 661.7 707.8 L 652.0 707.8 L 652.0 705.8 " fill="#000000"/>
<path class="atom-10" d="M 664.9 705.8 L 668.8 705.8 L 668.8 692.6 L 664.5 693.9 L 663.9 692.4 L 669.3 690.0 L 671.1 690.3 L 671.1 705.8 L 674.6 705.8 L 674.6 707.8 L 664.9 707.8 L 664.9 705.8 " fill="#000000"/>
<path class="atom-11" d="M 356.2 358.1 Q 356.2 353.8, 358.3 351.4 Q 360.4 349.1, 364.3 349.1 Q 368.2 349.1, 370.3 351.4 Q 372.4 353.8, 372.4 358.1 Q 372.4 362.4, 370.3 364.8 Q 368.2 367.2, 364.3 367.2 Q 360.4 367.2, 358.3 364.8 Q 356.2 362.4, 356.2 358.1 M 364.3 365.2 Q 367.0 365.2, 368.4 363.4 Q 369.9 361.6, 369.9 358.1 Q 369.9 354.6, 368.4 352.8 Q 367.0 351.1, 364.3 351.1 Q 361.6 351.1, 360.1 352.8 Q 358.7 354.6, 358.7 358.1 Q 358.7 361.6, 360.1 363.4 Q 361.6 365.2, 364.3 365.2 " fill="#FF0000"/>
<path class="atom-11" d="M 375.9 365.0 L 379.8 365.0 L 379.8 351.7 L 375.5 353.1 L 375.0 351.6 L 380.4 349.2 L 382.2 349.5 L 382.2 365.0 L 385.6 365.0 L 385.6 367.0 L 375.9 367.0 L 375.9 365.0 " fill="#FF0000"/>
<path class="atom-11" d="M 388.0 352.6 Q 388.7 350.9, 390.2 350.0 Q 391.8 349.1, 393.9 349.1 Q 396.6 349.1, 398.1 350.5 Q 399.6 352.0, 399.6 354.5 Q 399.6 357.2, 397.7 359.6 Q 395.7 362.1, 391.7 365.0 L 399.9 365.0 L 399.9 367.0 L 388.0 367.0 L 388.0 365.3 Q 391.3 362.9, 393.2 361.2 Q 395.2 359.4, 396.2 357.9 Q 397.1 356.3, 397.1 354.7 Q 397.1 353.0, 396.3 352.0 Q 395.4 351.1, 393.9 351.1 Q 392.5 351.1, 391.6 351.6 Q 390.6 352.2, 389.9 353.5 L 388.0 352.6 " fill="#FF0000"/>
<path class="atom-12" d="M 732.9 627.8 Q 732.9 623.4, 735.0 621.1 Q 737.0 618.8, 741.0 618.8 Q 744.6 618.8, 746.6 621.4 L 744.9 622.7 Q 743.5 620.8, 741.0 620.8 Q 738.3 620.8, 736.9 622.6 Q 735.5 624.4, 735.5 627.8 Q 735.5 631.3, 736.9 633.1 Q 738.4 634.9, 741.2 634.9 Q 743.2 634.9, 745.5 633.7 L 746.2 635.6 Q 745.2 636.2, 743.8 636.6 Q 742.4 636.9, 740.9 636.9 Q 737.0 636.9, 735.0 634.6 Q 732.9 632.2, 732.9 627.8 " fill="#000000"/>
<path class="atom-12" d="M 749.8 634.7 L 753.6 634.7 L 753.6 621.5 L 749.4 622.8 L 748.8 621.3 L 754.2 618.9 L 756.0 619.2 L 756.0 634.7 L 759.5 634.7 L 759.5 636.7 L 749.8 636.7 L 749.8 634.7 " fill="#000000"/>
<path class="atom-12" d="M 770.2 627.4 Q 771.9 627.9, 772.8 629.0 Q 773.6 630.1, 773.6 631.8 Q 773.6 633.3, 772.9 634.5 Q 772.1 635.7, 770.7 636.3 Q 769.4 636.9, 767.6 636.9 Q 765.7 636.9, 764.2 636.3 Q 762.8 635.6, 761.7 634.3 L 763.1 632.8 Q 764.2 634.0, 765.2 634.5 Q 766.1 634.9, 767.6 634.9 Q 769.2 634.9, 770.1 634.1 Q 771.1 633.2, 771.1 631.8 Q 771.1 630.0, 770.1 629.2 Q 769.1 628.4, 766.9 628.4 L 765.6 628.4 L 765.6 626.6 L 766.8 626.6 Q 768.7 626.6, 769.7 625.7 Q 770.7 624.9, 770.7 623.3 Q 770.7 622.2, 769.9 621.5 Q 769.0 620.8, 767.6 620.8 Q 766.1 620.8, 765.2 621.3 Q 764.3 621.8, 763.6 623.2 L 761.9 622.2 Q 762.5 620.8, 764.0 619.8 Q 765.5 618.8, 767.6 618.8 Q 770.2 618.8, 771.7 620.0 Q 773.2 621.2, 773.2 623.3 Q 773.2 624.7, 772.5 625.8 Q 771.7 626.8, 770.2 627.4 " fill="#000000"/>
<path class="atom-13" d="M 647.1 821.1 Q 647.1 816.8, 649.2 814.4 Q 651.3 812.1, 655.3 812.1 Q 659.2 812.1, 661.3 814.4 Q 663.4 816.8, 663.4 821.1 Q 663.4 825.4, 661.3 827.8 Q 659.1 830.2, 655.3 830.2 Q 651.4 830.2, 649.2 827.8 Q 647.1 825.4, 647.1 821.1 M 655.3 828.2 Q 658.0 828.2, 659.4 826.4 Q 660.9 824.6, 660.9 821.1 Q 660.9 817.6, 659.4 815.8 Q 658.0 814.1, 655.3 814.1 Q 652.6 814.1, 651.1 815.8 Q 649.6 817.6, 649.6 821.1 Q 649.6 824.6, 651.1 826.4 Q 652.6 828.2, 655.3 828.2 " fill="#FF0000"/>
<path class="atom-13" d="M 667.0 828.0 L 670.8 828.0 L 670.8 814.7 L 666.6 816.1 L 666.0 814.6 L 671.4 812.2 L 673.2 812.5 L 673.2 828.0 L 676.7 828.0 L 676.7 830.0 L 667.0 830.0 L 667.0 828.0 " fill="#FF0000"/>
<path class="atom-13" d="M 690.6 823.9 L 692.7 823.9 L 692.7 825.9 L 690.6 825.9 L 690.6 830.0 L 688.2 830.0 L 688.2 825.9 L 679.1 825.9 L 679.1 824.3 L 686.8 812.3 L 690.6 812.3 L 690.6 823.9 M 682.0 823.9 L 688.2 823.9 L 688.2 813.9 L 682.0 823.9 " fill="#FF0000"/>
<path class="atom-14" d="M 456.9 287.0 Q 456.9 282.6, 458.9 280.3 Q 461.0 277.9, 464.9 277.9 Q 468.6 277.9, 470.5 280.5 L 468.9 281.9 Q 467.5 280.0, 464.9 280.0 Q 462.3 280.0, 460.8 281.8 Q 459.4 283.6, 459.4 287.0 Q 459.4 290.5, 460.9 292.3 Q 462.4 294.1, 465.2 294.1 Q 467.2 294.1, 469.4 292.9 L 470.1 294.8 Q 469.2 295.4, 467.8 295.7 Q 466.4 296.1, 464.9 296.1 Q 461.0 296.1, 458.9 293.7 Q 456.9 291.4, 456.9 287.0 " fill="#000000"/>
<path class="atom-14" d="M 473.7 293.8 L 477.6 293.8 L 477.6 280.6 L 473.3 281.9 L 472.8 280.5 L 478.2 278.0 L 480.0 278.3 L 480.0 293.8 L 483.4 293.8 L 483.4 295.8 L 473.7 295.8 L 473.7 293.8 " fill="#000000"/>
<path class="atom-14" d="M 492.1 284.8 Q 493.7 284.8, 494.9 285.4 Q 496.2 286.1, 496.9 287.3 Q 497.7 288.6, 497.7 290.2 Q 497.7 292.1, 496.8 293.4 Q 495.9 294.7, 494.4 295.4 Q 493.0 296.0, 491.3 296.0 Q 489.7 296.0, 488.2 295.4 Q 486.7 294.8, 485.7 293.7 L 487.2 292.1 Q 488.0 293.0, 489.1 293.5 Q 490.3 294.0, 491.4 294.0 Q 493.0 294.0, 494.1 293.0 Q 495.2 292.1, 495.2 290.3 Q 495.2 288.4, 494.1 287.5 Q 493.0 286.6, 491.3 286.6 Q 489.7 286.6, 488.0 287.3 L 486.6 286.7 L 487.5 278.1 L 496.6 278.1 L 496.3 280.1 L 489.5 280.1 L 489.0 285.4 Q 490.6 284.8, 492.1 284.8 " fill="#000000"/>
<path class="atom-15" d="M 719.3 506.4 Q 719.3 502.0, 721.4 499.7 Q 723.5 497.4, 727.4 497.4 Q 731.0 497.4, 733.0 500.0 L 731.3 501.3 Q 729.9 499.5, 727.4 499.5 Q 724.7 499.5, 723.3 501.3 Q 721.9 503.0, 721.9 506.4 Q 721.9 509.9, 723.3 511.7 Q 724.8 513.5, 727.7 513.5 Q 729.6 513.5, 731.9 512.4 L 732.6 514.2 Q 731.7 514.8, 730.3 515.2 Q 728.9 515.5, 727.3 515.5 Q 723.5 515.5, 721.4 513.2 Q 719.3 510.8, 719.3 506.4 " fill="#000000"/>
<path class="atom-15" d="M 736.2 513.3 L 740.1 513.3 L 740.1 500.1 L 735.8 501.4 L 735.2 499.9 L 740.6 497.5 L 742.4 497.8 L 742.4 513.3 L 745.9 513.3 L 745.9 515.3 L 736.2 515.3 L 736.2 513.3 " fill="#000000"/>
<path class="atom-15" d="M 755.1 504.3 Q 756.6 504.3, 757.9 504.9 Q 759.1 505.6, 759.8 506.8 Q 760.4 508.1, 760.4 509.6 Q 760.4 511.3, 759.7 512.7 Q 758.9 514.0, 757.6 514.8 Q 756.2 515.5, 754.5 515.5 Q 751.3 515.5, 749.7 513.4 Q 748.2 511.2, 748.2 507.0 Q 748.2 502.3, 750.1 499.9 Q 752.1 497.4, 755.9 497.4 Q 757.0 497.4, 757.9 497.7 Q 758.8 497.9, 759.7 498.4 L 758.8 500.1 Q 757.5 499.4, 755.9 499.4 Q 753.4 499.4, 752.1 501.0 Q 750.8 502.6, 750.7 506.0 Q 751.6 505.1, 752.7 504.7 Q 753.9 504.3, 755.1 504.3 M 754.5 513.5 Q 755.5 513.5, 756.2 513.0 Q 757.0 512.5, 757.5 511.6 Q 757.9 510.7, 757.9 509.6 Q 757.9 508.1, 757.1 507.2 Q 756.2 506.3, 754.6 506.3 Q 753.6 506.3, 752.5 506.7 Q 751.4 507.1, 750.7 507.9 Q 750.8 510.8, 751.7 512.1 Q 752.6 513.5, 754.5 513.5 " fill="#000000"/>
<path class="atom-16" d="M 843.6 676.5 Q 843.6 672.1, 845.6 669.8 Q 847.7 667.5, 851.6 667.5 Q 855.3 667.5, 857.2 670.1 L 855.6 671.4 Q 854.1 669.6, 851.6 669.6 Q 848.9 669.6, 847.5 671.4 Q 846.1 673.1, 846.1 676.5 Q 846.1 680.0, 847.6 681.8 Q 849.0 683.6, 851.9 683.6 Q 853.8 683.6, 856.1 682.5 L 856.8 684.3 Q 855.9 684.9, 854.5 685.3 Q 853.1 685.6, 851.5 685.6 Q 847.7 685.6, 845.6 683.3 Q 843.6 680.9, 843.6 676.5 " fill="#000000"/>
<path class="atom-16" d="M 860.4 683.4 L 864.3 683.4 L 864.3 670.2 L 860.0 671.5 L 859.4 670.0 L 864.8 667.6 L 866.6 667.9 L 866.6 683.4 L 870.1 683.4 L 870.1 685.4 L 860.4 685.4 L 860.4 683.4 " fill="#000000"/>
<path class="atom-16" d="M 881.6 669.7 L 872.3 669.7 L 872.3 667.7 L 884.1 667.7 L 884.1 669.5 L 876.9 685.4 L 874.5 685.4 L 881.6 669.7 " fill="#000000"/>
<path class="atom-17" d="M 567.9 337.2 Q 567.9 332.8, 570.0 330.5 Q 572.0 328.2, 576.0 328.2 Q 579.6 328.2, 581.6 330.8 L 579.9 332.1 Q 578.5 330.2, 576.0 330.2 Q 573.3 330.2, 571.9 332.0 Q 570.5 333.8, 570.5 337.2 Q 570.5 340.7, 571.9 342.5 Q 573.4 344.3, 576.2 344.3 Q 578.2 344.3, 580.5 343.1 L 581.2 345.0 Q 580.2 345.6, 578.8 346.0 Q 577.4 346.3, 575.9 346.3 Q 572.0 346.3, 570.0 344.0 Q 567.9 341.6, 567.9 337.2 " fill="#000000"/>
<path class="atom-17" d="M 584.8 344.1 L 588.6 344.1 L 588.6 330.9 L 584.4 332.2 L 583.8 330.7 L 589.2 328.3 L 591.0 328.6 L 591.0 344.1 L 594.5 344.1 L 594.5 346.1 L 584.8 346.1 L 584.8 344.1 " fill="#000000"/>
<path class="atom-17" d="M 605.8 336.7 Q 607.4 337.4, 608.3 338.5 Q 609.2 339.5, 609.2 341.2 Q 609.2 342.7, 608.5 343.9 Q 607.7 345.1, 606.3 345.7 Q 604.9 346.3, 603.1 346.3 Q 600.1 346.3, 598.4 345.0 Q 596.7 343.6, 596.7 341.2 Q 596.7 339.8, 597.5 338.7 Q 598.2 337.6, 599.8 336.8 Q 598.6 336.1, 598.0 335.2 Q 597.4 334.2, 597.4 332.7 Q 597.4 330.6, 598.9 329.4 Q 600.4 328.2, 603.0 328.2 Q 605.6 328.2, 607.1 329.4 Q 608.6 330.6, 608.6 332.7 Q 608.6 334.0, 607.9 335.0 Q 607.2 335.9, 605.8 336.7 M 603.0 330.1 Q 601.5 330.1, 600.7 330.8 Q 599.9 331.5, 599.9 332.7 Q 599.9 333.6, 600.4 334.3 Q 601.0 334.9, 601.8 335.2 Q 602.6 335.6, 604.1 336.1 Q 605.2 335.3, 605.6 334.5 Q 606.1 333.7, 606.1 332.7 Q 606.1 331.5, 605.3 330.8 Q 604.5 330.1, 603.0 330.1 M 603.1 344.5 Q 604.7 344.5, 605.7 343.6 Q 606.7 342.7, 606.7 341.2 Q 606.7 340.3, 606.2 339.7 Q 605.7 339.1, 604.9 338.7 Q 604.1 338.4, 602.7 337.9 L 601.6 337.5 Q 600.3 338.3, 599.8 339.2 Q 599.2 340.1, 599.2 341.2 Q 599.2 342.7, 600.3 343.6 Q 601.3 344.5, 603.1 344.5 " fill="#000000"/>
<path class="atom-18" d="M 471.0 165.4 Q 471.0 161.2, 473.1 158.8 Q 475.2 156.4, 479.1 156.4 Q 483.1 156.4, 485.2 158.8 Q 487.3 161.2, 487.3 165.4 Q 487.3 169.7, 485.1 172.2 Q 483.0 174.6, 479.1 174.6 Q 475.2 174.6, 473.1 172.2 Q 471.0 169.8, 471.0 165.4 M 479.1 172.6 Q 481.8 172.6, 483.3 170.8 Q 484.8 169.0, 484.8 165.4 Q 484.8 162.0, 483.3 160.2 Q 481.8 158.4, 479.1 158.4 Q 476.4 158.4, 475.0 160.2 Q 473.5 161.9, 473.5 165.4 Q 473.5 169.0, 475.0 170.8 Q 476.4 172.6, 479.1 172.6 " fill="#FF0000"/>
<path class="atom-18" d="M 490.8 172.3 L 494.7 172.3 L 494.7 159.1 L 490.4 160.4 L 489.8 159.0 L 495.3 156.5 L 497.0 156.8 L 497.0 172.3 L 500.5 172.3 L 500.5 174.3 L 490.8 174.3 L 490.8 172.3 " fill="#FF0000"/>
<path class="atom-18" d="M 508.8 156.4 Q 512.0 156.4, 513.5 158.6 Q 515.1 160.7, 515.1 165.0 Q 515.1 169.7, 513.2 172.1 Q 511.2 174.5, 507.4 174.5 Q 506.3 174.5, 505.4 174.3 Q 504.5 174.0, 503.6 173.5 L 504.5 171.8 Q 505.8 172.5, 507.4 172.5 Q 509.9 172.5, 511.2 170.9 Q 512.5 169.3, 512.6 166.0 Q 511.7 166.8, 510.6 167.3 Q 509.4 167.7, 508.2 167.7 Q 506.7 167.7, 505.4 167.0 Q 504.2 166.3, 503.5 165.1 Q 502.9 163.9, 502.9 162.3 Q 502.9 160.6, 503.6 159.3 Q 504.4 157.9, 505.7 157.2 Q 507.1 156.4, 508.8 156.4 M 505.4 162.3 Q 505.4 163.9, 506.2 164.8 Q 507.1 165.7, 508.7 165.7 Q 509.7 165.7, 510.8 165.3 Q 511.9 164.8, 512.6 164.1 Q 512.5 161.1, 511.6 159.8 Q 510.7 158.5, 508.8 158.5 Q 507.8 158.5, 507.0 159.0 Q 506.3 159.5, 505.8 160.4 Q 505.4 161.2, 505.4 162.3 " fill="#FF0000"/>
<path class="atom-19" d="M 578.6 457.4 Q 578.6 453.0, 580.6 450.7 Q 582.7 448.3, 586.6 448.3 Q 590.3 448.3, 592.2 450.9 L 590.6 452.3 Q 589.2 450.4, 586.6 450.4 Q 584.0 450.4, 582.5 452.2 Q 581.1 454.0, 581.1 457.4 Q 581.1 460.9, 582.6 462.7 Q 584.1 464.5, 586.9 464.5 Q 588.9 464.5, 591.1 463.3 L 591.8 465.2 Q 590.9 465.8, 589.5 466.1 Q 588.1 466.5, 586.6 466.5 Q 582.7 466.5, 580.6 464.1 Q 578.6 461.8, 578.6 457.4 " fill="#000000"/>
<path class="atom-19" d="M 594.6 451.9 Q 595.2 450.2, 596.8 449.3 Q 598.3 448.3, 600.5 448.3 Q 603.2 448.3, 604.7 449.8 Q 606.2 451.2, 606.2 453.8 Q 606.2 456.4, 604.2 458.9 Q 602.3 461.3, 598.3 464.2 L 606.5 464.2 L 606.5 466.2 L 594.5 466.2 L 594.5 464.6 Q 597.8 462.2, 599.8 460.5 Q 601.8 458.7, 602.7 457.1 Q 603.7 455.6, 603.7 453.9 Q 603.7 452.2, 602.8 451.3 Q 602.0 450.3, 600.5 450.3 Q 599.1 450.3, 598.1 450.9 Q 597.2 451.5, 596.5 452.8 L 594.6 451.9 " fill="#000000"/>
<path class="atom-19" d="M 615.7 466.4 Q 612.5 466.4, 610.8 464.0 Q 609.2 461.6, 609.2 457.4 Q 609.2 453.1, 610.8 450.7 Q 612.4 448.3, 615.7 448.3 Q 619.0 448.3, 620.6 450.7 Q 622.2 453.1, 622.2 457.4 Q 622.2 461.6, 620.6 464.0 Q 619.0 466.4, 615.7 466.4 M 615.7 464.4 Q 617.6 464.4, 618.7 462.7 Q 619.7 460.9, 619.7 457.4 Q 619.7 453.9, 618.7 452.1 Q 617.6 450.3, 615.7 450.3 Q 613.8 450.3, 612.8 452.1 Q 611.7 453.9, 611.7 457.4 Q 611.7 460.9, 612.8 462.7 Q 613.8 464.4, 615.7 464.4 " fill="#000000"/>
<path class="atom-20" d="M 856.7 796.7 Q 856.7 792.3, 858.7 790.0 Q 860.8 787.7, 864.7 787.7 Q 868.4 787.7, 870.3 790.3 L 868.7 791.6 Q 867.2 789.7, 864.7 789.7 Q 862.0 789.7, 860.6 791.5 Q 859.2 793.3, 859.2 796.7 Q 859.2 800.2, 860.7 802.0 Q 862.1 803.8, 865.0 803.8 Q 866.9 803.8, 869.2 802.6 L 869.9 804.5 Q 869.0 805.1, 867.6 805.5 Q 866.2 805.8, 864.6 805.8 Q 860.8 805.8, 858.7 803.5 Q 856.7 801.1, 856.7 796.7 " fill="#000000"/>
<path class="atom-20" d="M 872.6 791.2 Q 873.2 789.6, 874.8 788.6 Q 876.3 787.7, 878.5 787.7 Q 881.2 787.7, 882.7 789.1 Q 884.2 790.6, 884.2 793.2 Q 884.2 795.8, 882.2 798.2 Q 880.3 800.7, 876.3 803.6 L 884.5 803.6 L 884.5 805.6 L 872.5 805.6 L 872.5 803.9 Q 875.8 801.6, 877.8 799.8 Q 879.8 798.1, 880.7 796.5 Q 881.7 794.9, 881.7 793.3 Q 881.7 791.6, 880.8 790.6 Q 880.0 789.7, 878.5 789.7 Q 877.1 789.7, 876.1 790.3 Q 875.2 790.8, 874.5 792.1 L 872.6 791.2 " fill="#000000"/>
<path class="atom-20" d="M 888.1 803.6 L 892.0 803.6 L 892.0 790.4 L 887.7 791.7 L 887.2 790.2 L 892.6 787.8 L 894.4 788.1 L 894.4 803.6 L 897.8 803.6 L 897.8 805.6 L 888.1 805.6 L 888.1 803.6 " fill="#000000"/>
<path class="atom-21" d="M 625.7 220.0 Q 625.7 215.6, 627.8 213.3 Q 629.9 211.0, 633.8 211.0 Q 637.4 211.0, 639.4 213.6 L 637.7 214.9 Q 636.3 213.0, 633.8 213.0 Q 631.1 213.0, 629.7 214.8 Q 628.3 216.6, 628.3 220.0 Q 628.3 223.5, 629.7 225.3 Q 631.2 227.1, 634.1 227.1 Q 636.0 227.1, 638.3 225.9 L 639.0 227.8 Q 638.1 228.4, 636.7 228.8 Q 635.3 229.1, 633.7 229.1 Q 629.9 229.1, 627.8 226.8 Q 625.7 224.4, 625.7 220.0 " fill="#000000"/>
<path class="atom-21" d="M 641.7 214.5 Q 642.3 212.9, 643.9 211.9 Q 645.4 211.0, 647.6 211.0 Q 650.3 211.0, 651.8 212.4 Q 653.3 213.9, 653.3 216.5 Q 653.3 219.1, 651.3 221.5 Q 649.4 224.0, 645.4 226.9 L 653.6 226.9 L 653.6 228.9 L 641.6 228.9 L 641.6 227.2 Q 644.9 224.9, 646.9 223.1 Q 648.9 221.4, 649.8 219.8 Q 650.8 218.2, 650.8 216.6 Q 650.8 214.9, 649.9 213.9 Q 649.1 213.0, 647.6 213.0 Q 646.2 213.0, 645.2 213.6 Q 644.3 214.1, 643.6 215.4 L 641.7 214.5 " fill="#000000"/>
<path class="atom-21" d="M 656.4 214.5 Q 657.0 212.9, 658.6 211.9 Q 660.1 211.0, 662.3 211.0 Q 664.9 211.0, 666.4 212.4 Q 667.9 213.9, 667.9 216.5 Q 667.9 219.1, 666.0 221.5 Q 664.1 224.0, 660.1 226.9 L 668.2 226.9 L 668.2 228.9 L 656.3 228.9 L 656.3 227.2 Q 659.6 224.9, 661.6 223.1 Q 663.5 221.4, 664.5 219.8 Q 665.4 218.2, 665.4 216.6 Q 665.4 214.9, 664.6 213.9 Q 663.7 213.0, 662.3 213.0 Q 660.8 213.0, 659.9 213.6 Q 658.9 214.1, 658.3 215.4 L 656.4 214.5 " fill="#000000"/>
<path class="atom-22" d="M 715.4 345.7 Q 715.4 341.5, 717.5 339.1 Q 719.6 336.7, 723.5 336.7 Q 727.5 336.7, 729.6 339.1 Q 731.7 341.5, 731.7 345.7 Q 731.7 350.0, 729.5 352.5 Q 727.4 354.9, 723.5 354.9 Q 719.6 354.9, 717.5 352.5 Q 715.4 350.1, 715.4 345.7 M 723.5 352.9 Q 726.2 352.9, 727.7 351.1 Q 729.2 349.3, 729.2 345.7 Q 729.2 342.3, 727.7 340.5 Q 726.2 338.7, 723.5 338.7 Q 720.8 338.7, 719.4 340.5 Q 717.9 342.2, 717.9 345.7 Q 717.9 349.3, 719.4 351.1 Q 720.8 352.9, 723.5 352.9 " fill="#FF0000"/>
<path class="atom-22" d="M 734.3 340.3 Q 734.9 338.6, 736.5 337.7 Q 738.0 336.7, 740.2 336.7 Q 742.9 336.7, 744.4 338.2 Q 745.9 339.6, 745.9 342.2 Q 745.9 344.8, 743.9 347.3 Q 742.0 349.7, 738.0 352.6 L 746.2 352.6 L 746.2 354.6 L 734.2 354.6 L 734.2 353.0 Q 737.5 350.6, 739.5 348.9 Q 741.5 347.1, 742.4 345.5 Q 743.4 344.0, 743.4 342.3 Q 743.4 340.6, 742.5 339.7 Q 741.7 338.7, 740.2 338.7 Q 738.8 338.7, 737.8 339.3 Q 736.9 339.9, 736.2 341.2 L 734.3 340.3 " fill="#FF0000"/>
<path class="atom-22" d="M 757.5 345.3 Q 759.2 345.8, 760.0 346.9 Q 760.9 348.0, 760.9 349.8 Q 760.9 351.3, 760.1 352.5 Q 759.4 353.6, 758.0 354.3 Q 756.6 354.9, 754.8 354.9 Q 752.9 354.9, 751.5 354.2 Q 750.1 353.6, 749.0 352.2 L 750.4 350.8 Q 751.5 352.0, 752.4 352.4 Q 753.4 352.9, 754.8 352.9 Q 756.4 352.9, 757.4 352.0 Q 758.4 351.2, 758.4 349.8 Q 758.4 348.0, 757.4 347.2 Q 756.4 346.3, 754.2 346.3 L 752.9 346.3 L 752.9 344.5 L 754.0 344.5 Q 756.0 344.5, 757.0 343.7 Q 758.0 342.8, 758.0 341.3 Q 758.0 340.1, 757.2 339.4 Q 756.3 338.7, 754.9 338.7 Q 753.4 338.7, 752.5 339.3 Q 751.6 339.8, 750.9 341.1 L 749.1 340.2 Q 749.8 338.7, 751.3 337.7 Q 752.8 336.7, 754.9 336.7 Q 757.5 336.7, 759.0 338.0 Q 760.5 339.2, 760.5 341.3 Q 760.5 342.7, 759.7 343.7 Q 759.0 344.7, 757.5 345.3 " fill="#FF0000"/>
<path class="atom-23" d="M 480.5 528.5 Q 480.5 524.1, 482.6 521.8 Q 484.6 519.5, 488.6 519.5 Q 492.2 519.5, 494.2 522.1 L 492.5 523.4 Q 491.1 521.5, 488.6 521.5 Q 485.9 521.5, 484.5 523.3 Q 483.1 525.1, 483.1 528.5 Q 483.1 532.0, 484.5 533.8 Q 486.0 535.6, 488.8 535.6 Q 490.8 535.6, 493.1 534.4 L 493.8 536.3 Q 492.8 536.9, 491.4 537.3 Q 490.0 537.6, 488.5 537.6 Q 484.6 537.6, 482.6 535.3 Q 480.5 532.9, 480.5 528.5 " fill="#000000"/>
<path class="atom-23" d="M 496.5 523.0 Q 497.2 521.4, 498.7 520.4 Q 500.3 519.5, 502.4 519.5 Q 505.1 519.5, 506.6 520.9 Q 508.1 522.4, 508.1 525.0 Q 508.1 527.6, 506.1 530.0 Q 504.2 532.5, 500.2 535.4 L 508.4 535.4 L 508.4 537.4 L 496.5 537.4 L 496.5 535.7 Q 499.8 533.4, 501.7 531.6 Q 503.7 529.9, 504.6 528.3 Q 505.6 526.7, 505.6 525.1 Q 505.6 523.4, 504.7 522.4 Q 503.9 521.5, 502.4 521.5 Q 501.0 521.5, 500.0 522.1 Q 499.1 522.6, 498.4 523.9 L 496.5 523.0 " fill="#000000"/>
<path class="atom-23" d="M 522.7 531.3 L 524.8 531.3 L 524.8 533.3 L 522.7 533.3 L 522.7 537.4 L 520.3 537.4 L 520.3 533.3 L 511.2 533.3 L 511.2 531.7 L 518.9 519.7 L 522.7 519.7 L 522.7 531.3 M 514.1 531.3 L 520.3 531.3 L 520.3 521.3 L 514.1 531.3 " fill="#000000"/>
<text x="1000" y="50" font-size="8" font-family="Verdana" font-weight="normal" letter-spacing="0" text-anchor="start" fill="black">Highlighted Atoms:
Primary SOM: Red
Secondary SOM: Green
Tertiary SOM: Cyan
</text></svg>
