<?xml version='1.0' encoding='ASCII' standalone='yes'?>
<svg xmlns="http://www.w3.org/2000/svg" xmlns:rdkit="http://www.rdkit.org/xml" xmlns:xlink="http://www.w3.org/1999/xlink" style="background-color: white;" version="1.1" baseProfile="full" xml:space="preserve" width="1000px" height="1000px" viewBox="0 0 1000 1000">
<!-- END OF HEADER -->
<rect style="opacity:1.0;fill:#FFFFFF;stroke:none" width="1000.0" height="1000.0" x="0.0" y="0.0"> </rect>
<ellipse cx="426.4" cy="479.3" rx="29.6" ry="21.1" class="atom-9" style="fill:#B20000;fill-rule:evenodd;stroke:#B20000;stroke-width:1.0px;stroke-linecap:butt;stroke-linejoin:miter;stroke-opacity:1"/>
<path class="bond-0 atom-1 atom-0" d="M 234.4,491.7 L 286.6,499.1" style="fill:none;fill-rule:evenodd;stroke:#0000FF;stroke-width:2.0px;stroke-linecap:butt;stroke-linejoin:miter;stroke-opacity:1"/>
<path class="bond-0 atom-1 atom-0" d="M 235.8,481.3 L 288.1,488.7" style="fill:none;fill-rule:evenodd;stroke:#0000FF;stroke-width:2.0px;stroke-linecap:butt;stroke-linejoin:miter;stroke-opacity:1"/>
<path class="bond-1 atom-2 atom-1" d="M 216.0,432.8 L 224.1,479.3" style="fill:none;fill-rule:evenodd;stroke:#0000FF;stroke-width:2.0px;stroke-linecap:butt;stroke-linejoin:miter;stroke-opacity:1"/>
<path class="bond-2 atom-3 atom-2" d="M 258.9,397.5 L 240.6,407.2" style="fill:none;fill-rule:evenodd;stroke:#000000;stroke-width:2.0px;stroke-linecap:butt;stroke-linejoin:miter;stroke-opacity:1"/>
<path class="bond-2 atom-3 atom-2" d="M 240.6,407.2 L 222.2,416.9" style="fill:none;fill-rule:evenodd;stroke:#0000FF;stroke-width:2.0px;stroke-linecap:butt;stroke-linejoin:miter;stroke-opacity:1"/>
<path class="bond-3 atom-4 atom-0" d="M 321.1,448.5 L 301.1,489.3" style="fill:none;fill-rule:evenodd;stroke:#0000FF;stroke-width:2.0px;stroke-linecap:butt;stroke-linejoin:miter;stroke-opacity:1"/>
<path class="bond-4 atom-4 atom-3" d="M 317.6,428.6 L 302.7,414.2" style="fill:none;fill-rule:evenodd;stroke:#0000FF;stroke-width:2.0px;stroke-linecap:butt;stroke-linejoin:miter;stroke-opacity:1"/>
<path class="bond-4 atom-4 atom-3" d="M 302.7,414.2 L 287.7,399.7" style="fill:none;fill-rule:evenodd;stroke:#000000;stroke-width:2.0px;stroke-linecap:butt;stroke-linejoin:miter;stroke-opacity:1"/>
<path class="bond-5 atom-5 atom-4" d="M 386.6,426.8 L 368.8,430.0" style="fill:none;fill-rule:evenodd;stroke:#000000;stroke-width:2.0px;stroke-linecap:butt;stroke-linejoin:miter;stroke-opacity:1"/>
<path class="bond-5 atom-5 atom-4" d="M 368.8,430.0 L 351.0,433.1" style="fill:none;fill-rule:evenodd;stroke:#0000FF;stroke-width:2.0px;stroke-linecap:butt;stroke-linejoin:miter;stroke-opacity:1"/>
<path class="bond-6 atom-6 atom-3" d="M 289.6,331.1 L 286.2,354.6" style="fill:none;fill-rule:evenodd;stroke:#FF0000;stroke-width:2.0px;stroke-linecap:butt;stroke-linejoin:miter;stroke-opacity:1"/>
<path class="bond-6 atom-6 atom-3" d="M 286.2,354.6 L 282.9,378.1" style="fill:none;fill-rule:evenodd;stroke:#000000;stroke-width:2.0px;stroke-linecap:butt;stroke-linejoin:miter;stroke-opacity:1"/>
<path class="bond-6 atom-6 atom-3" d="M 279.1,329.6 L 275.8,353.1" style="fill:none;fill-rule:evenodd;stroke:#FF0000;stroke-width:2.0px;stroke-linecap:butt;stroke-linejoin:miter;stroke-opacity:1"/>
<path class="bond-6 atom-6 atom-3" d="M 275.8,353.1 L 272.4,376.7" style="fill:none;fill-rule:evenodd;stroke:#000000;stroke-width:2.0px;stroke-linecap:butt;stroke-linejoin:miter;stroke-opacity:1"/>
<path class="bond-7 atom-7 atom-2" d="M 167.4,398.5 L 179.4,404.4" style="fill:none;fill-rule:evenodd;stroke:#000000;stroke-width:2.0px;stroke-linecap:butt;stroke-linejoin:miter;stroke-opacity:1"/>
<path class="bond-7 atom-7 atom-2" d="M 179.4,404.4 L 191.3,410.2" style="fill:none;fill-rule:evenodd;stroke:#0000FF;stroke-width:2.0px;stroke-linecap:butt;stroke-linejoin:miter;stroke-opacity:1"/>
<path class="bond-8 atom-8 atom-7" d="M 101.0,424.0 L 134.3,401.6" style="fill:none;fill-rule:evenodd;stroke:#000000;stroke-width:2.0px;stroke-linecap:butt;stroke-linejoin:miter;stroke-opacity:1"/>
<path class="bond-9 atom-9 atom-5" d="M 431.5,468.0 L 405.4,436.7" style="fill:none;fill-rule:evenodd;stroke:#000000;stroke-width:2.0px;stroke-linecap:butt;stroke-linejoin:miter;stroke-opacity:1"/>
<path class="bond-10 atom-10 atom-9" d="M 472.9,473.6 L 461.3,475.6" style="fill:none;fill-rule:evenodd;stroke:#0000FF;stroke-width:2.0px;stroke-linecap:butt;stroke-linejoin:miter;stroke-opacity:1"/>
<path class="bond-10 atom-10 atom-9" d="M 461.3,475.6 L 449.7,477.6" style="fill:none;fill-rule:evenodd;stroke:#000000;stroke-width:2.0px;stroke-linecap:butt;stroke-linejoin:miter;stroke-opacity:1"/>
<path class="bond-11 atom-11 atom-10" d="M 545.8,509.8 L 531.8,493.0" style="fill:none;fill-rule:evenodd;stroke:#000000;stroke-width:2.0px;stroke-linecap:butt;stroke-linejoin:miter;stroke-opacity:1"/>
<path class="bond-11 atom-11 atom-10" d="M 531.8,493.0 L 517.7,476.3" style="fill:none;fill-rule:evenodd;stroke:#0000FF;stroke-width:2.0px;stroke-linecap:butt;stroke-linejoin:miter;stroke-opacity:1"/>
<path class="bond-12 atom-12 atom-11" d="M 615.3,510.6 L 563.5,519.5" style="fill:none;fill-rule:evenodd;stroke:#000000;stroke-width:2.0px;stroke-linecap:butt;stroke-linejoin:miter;stroke-opacity:1"/>
<path class="bond-13 atom-13 atom-12" d="M 644.5,454.1 L 628.6,497.7" style="fill:none;fill-rule:evenodd;stroke:#000000;stroke-width:2.0px;stroke-linecap:butt;stroke-linejoin:miter;stroke-opacity:1"/>
<path class="bond-14 atom-14 atom-13" d="M 613.0,400.3 L 639.3,431.7" style="fill:none;fill-rule:evenodd;stroke:#000000;stroke-width:2.0px;stroke-linecap:butt;stroke-linejoin:miter;stroke-opacity:1"/>
<path class="bond-15 atom-15 atom-10" d="M 530.1,412.5 L 522.1,434.2" style="fill:none;fill-rule:evenodd;stroke:#000000;stroke-width:2.0px;stroke-linecap:butt;stroke-linejoin:miter;stroke-opacity:1"/>
<path class="bond-15 atom-15 atom-10" d="M 522.1,434.2 L 514.2,455.9" style="fill:none;fill-rule:evenodd;stroke:#0000FF;stroke-width:2.0px;stroke-linecap:butt;stroke-linejoin:miter;stroke-opacity:1"/>
<path class="bond-16 atom-15 atom-14" d="M 542.7,399.5 L 594.3,390.6" style="fill:none;fill-rule:evenodd;stroke:#000000;stroke-width:2.0px;stroke-linecap:butt;stroke-linejoin:miter;stroke-opacity:1"/>
<path class="bond-17 atom-16 atom-13" d="M 684.7,400.0 L 657.8,432.0" style="fill:none;fill-rule:evenodd;stroke:#000000;stroke-width:2.0px;stroke-linecap:butt;stroke-linejoin:miter;stroke-opacity:1"/>
<path class="bond-18 atom-17 atom-13" d="M 690.2,467.0 L 674.0,457.6" style="fill:none;fill-rule:evenodd;stroke:#0000FF;stroke-width:2.0px;stroke-linecap:butt;stroke-linejoin:miter;stroke-opacity:1"/>
<path class="bond-18 atom-17 atom-13" d="M 674.0,457.6 L 657.8,448.2" style="fill:none;fill-rule:evenodd;stroke:#000000;stroke-width:2.0px;stroke-linecap:butt;stroke-linejoin:miter;stroke-opacity:1"/>
<path class="bond-19 atom-18 atom-16" d="M 674.1,334.6 L 682.0,356.2" style="fill:none;fill-rule:evenodd;stroke:#FF0000;stroke-width:2.0px;stroke-linecap:butt;stroke-linejoin:miter;stroke-opacity:1"/>
<path class="bond-19 atom-18 atom-16" d="M 682.0,356.2 L 689.8,377.9" style="fill:none;fill-rule:evenodd;stroke:#000000;stroke-width:2.0px;stroke-linecap:butt;stroke-linejoin:miter;stroke-opacity:1"/>
<path class="bond-20 atom-19 atom-18" d="M 609.5,312.3 L 634.5,316.8" style="fill:none;fill-rule:evenodd;stroke:#000000;stroke-width:2.0px;stroke-linecap:butt;stroke-linejoin:miter;stroke-opacity:1"/>
<path class="bond-20 atom-19 atom-18" d="M 634.5,316.8 L 659.5,321.2" style="fill:none;fill-rule:evenodd;stroke:#FF0000;stroke-width:2.0px;stroke-linecap:butt;stroke-linejoin:miter;stroke-opacity:1"/>
<path class="bond-21 atom-20 atom-17" d="M 750.3,454.6 L 734.1,463.9" style="fill:none;fill-rule:evenodd;stroke:#000000;stroke-width:2.0px;stroke-linecap:butt;stroke-linejoin:miter;stroke-opacity:1"/>
<path class="bond-21 atom-20 atom-17" d="M 734.1,463.9 L 717.9,473.2" style="fill:none;fill-rule:evenodd;stroke:#0000FF;stroke-width:2.0px;stroke-linecap:butt;stroke-linejoin:miter;stroke-opacity:1"/>
<path class="bond-22 atom-21 atom-17" d="M 709.3,537.1 L 709.3,513.4" style="fill:none;fill-rule:evenodd;stroke:#000000;stroke-width:2.0px;stroke-linecap:butt;stroke-linejoin:miter;stroke-opacity:1"/>
<path class="bond-22 atom-21 atom-17" d="M 709.3,513.4 L 709.4,489.7" style="fill:none;fill-rule:evenodd;stroke:#0000FF;stroke-width:2.0px;stroke-linecap:butt;stroke-linejoin:miter;stroke-opacity:1"/>
<path class="bond-23 atom-22 atom-20" d="M 811.7,467.1 L 778.0,447.6" style="fill:none;fill-rule:evenodd;stroke:#000000;stroke-width:2.0px;stroke-linecap:butt;stroke-linejoin:miter;stroke-opacity:1"/>
<path class="bond-24 atom-23 atom-22" d="M 882.9,448.6 L 850.7,467.1" style="fill:none;fill-rule:evenodd;stroke:#000000;stroke-width:2.0px;stroke-linecap:butt;stroke-linejoin:miter;stroke-opacity:1"/>
<path class="bond-25 atom-24 atom-21" d="M 760.9,578.4 L 728.7,559.7" style="fill:none;fill-rule:evenodd;stroke:#000000;stroke-width:2.0px;stroke-linecap:butt;stroke-linejoin:miter;stroke-opacity:1"/>
<path class="bond-25 atom-24 atom-21" d="M 755.6,587.5 L 723.4,568.8" style="fill:none;fill-rule:evenodd;stroke:#000000;stroke-width:2.0px;stroke-linecap:butt;stroke-linejoin:miter;stroke-opacity:1"/>
<path class="bond-26 atom-25 atom-24" d="M 770.0,642.7 L 770.0,595.2" style="fill:none;fill-rule:evenodd;stroke:#000000;stroke-width:2.0px;stroke-linecap:butt;stroke-linejoin:miter;stroke-opacity:1"/>
<path class="bond-27 atom-26 atom-25" d="M 728.3,678.0 L 760.8,659.2" style="fill:none;fill-rule:evenodd;stroke:#000000;stroke-width:2.0px;stroke-linecap:butt;stroke-linejoin:miter;stroke-opacity:1"/>
<path class="bond-27 atom-26 atom-25" d="M 723.0,668.8 L 755.6,650.1" style="fill:none;fill-rule:evenodd;stroke:#000000;stroke-width:2.0px;stroke-linecap:butt;stroke-linejoin:miter;stroke-opacity:1"/>
<path class="bond-28 atom-27 atom-26" d="M 656.8,658.7 L 689.6,677.8" style="fill:none;fill-rule:evenodd;stroke:#000000;stroke-width:2.0px;stroke-linecap:butt;stroke-linejoin:miter;stroke-opacity:1"/>
<path class="bond-29 atom-28 atom-21" d="M 656.8,578.6 L 700.1,553.7" style="fill:none;fill-rule:evenodd;stroke:#000000;stroke-width:2.0px;stroke-linecap:butt;stroke-linejoin:miter;stroke-opacity:1"/>
<path class="bond-30 atom-28 atom-27" d="M 648.3,594.9 L 648.3,642.5" style="fill:none;fill-rule:evenodd;stroke:#000000;stroke-width:2.0px;stroke-linecap:butt;stroke-linejoin:miter;stroke-opacity:1"/>
<path class="bond-30 atom-28 atom-27" d="M 658.9,594.9 L 658.8,642.5" style="fill:none;fill-rule:evenodd;stroke:#000000;stroke-width:2.0px;stroke-linecap:butt;stroke-linejoin:miter;stroke-opacity:1"/>
<path class="bond-31 atom-29 atom-20" d="M 775.7,384.4 L 775.7,408.2" style="fill:none;fill-rule:evenodd;stroke:#FF0000;stroke-width:2.0px;stroke-linecap:butt;stroke-linejoin:miter;stroke-opacity:1"/>
<path class="bond-31 atom-29 atom-20" d="M 775.7,408.2 L 775.6,432.0" style="fill:none;fill-rule:evenodd;stroke:#000000;stroke-width:2.0px;stroke-linecap:butt;stroke-linejoin:miter;stroke-opacity:1"/>
<path class="bond-31 atom-29 atom-20" d="M 765.2,384.4 L 765.1,408.2" style="fill:none;fill-rule:evenodd;stroke:#FF0000;stroke-width:2.0px;stroke-linecap:butt;stroke-linejoin:miter;stroke-opacity:1"/>
<path class="bond-31 atom-29 atom-20" d="M 765.1,408.2 L 765.1,431.9" style="fill:none;fill-rule:evenodd;stroke:#000000;stroke-width:2.0px;stroke-linecap:butt;stroke-linejoin:miter;stroke-opacity:1"/>
<path class="atom-0" d="M 291.7 491.6 L 297.5 501.0 Q 298.1 501.9, 299.0 503.6 Q 299.9 505.3, 300.0 505.4 L 300.0 491.6 L 302.3 491.6 L 302.3 509.3 L 299.9 509.3 L 293.7 499.1 Q 293.0 497.9, 292.2 496.5 Q 291.4 495.1, 291.2 494.7 L 291.2 509.3 L 288.9 509.3 L 288.9 491.6 L 291.7 491.6 " fill="#0000FF"/>
<path class="atom-0" d="M 306.6 507.3 L 310.5 507.3 L 310.5 494.1 L 306.2 495.4 L 305.6 493.9 L 311.0 491.5 L 312.8 491.8 L 312.8 507.3 L 316.3 507.3 L 316.3 509.3 L 306.6 509.3 L 306.6 507.3 " fill="#0000FF"/>
<path class="atom-1" d="M 206.1 481.8 L 211.9 491.2 Q 212.5 492.1, 213.4 493.8 Q 214.4 495.5, 214.4 495.6 L 214.4 481.8 L 216.8 481.8 L 216.8 499.5 L 214.3 499.5 L 208.1 489.3 Q 207.4 488.1, 206.6 486.7 Q 205.9 485.3, 205.6 484.9 L 205.6 499.5 L 203.3 499.5 L 203.3 481.8 L 206.1 481.8 " fill="#0000FF"/>
<path class="atom-1" d="M 220.2 485.2 Q 220.8 483.5, 222.4 482.6 Q 223.9 481.6, 226.1 481.6 Q 228.7 481.6, 230.2 483.1 Q 231.7 484.5, 231.7 487.1 Q 231.7 489.7, 229.8 492.2 Q 227.9 494.6, 223.9 497.5 L 232.0 497.5 L 232.0 499.5 L 220.1 499.5 L 220.1 497.9 Q 223.4 495.5, 225.4 493.8 Q 227.3 492.0, 228.3 490.4 Q 229.2 488.9, 229.2 487.2 Q 229.2 485.5, 228.4 484.6 Q 227.5 483.6, 226.1 483.6 Q 224.6 483.6, 223.7 484.2 Q 222.7 484.8, 222.1 486.1 L 220.2 485.2 " fill="#0000FF"/>
<path class="atom-2" d="M 194.1 412.5 L 199.9 421.9 Q 200.4 422.8, 201.4 424.5 Q 202.3 426.2, 202.3 426.3 L 202.3 412.5 L 204.7 412.5 L 204.7 430.2 L 202.3 430.2 L 196.0 420.0 Q 195.3 418.8, 194.5 417.4 Q 193.8 416.0, 193.6 415.6 L 193.6 430.2 L 191.3 430.2 L 191.3 412.5 L 194.1 412.5 " fill="#0000FF"/>
<path class="atom-2" d="M 216.5 420.9 Q 218.2 421.4, 219.1 422.5 Q 219.9 423.6, 219.9 425.4 Q 219.9 426.9, 219.2 428.1 Q 218.4 429.2, 217.0 429.9 Q 215.7 430.5, 213.9 430.5 Q 212.0 430.5, 210.5 429.8 Q 209.1 429.2, 208.0 427.8 L 209.4 426.4 Q 210.5 427.6, 211.5 428.0 Q 212.4 428.5, 213.9 428.5 Q 215.5 428.5, 216.4 427.6 Q 217.4 426.8, 217.4 425.4 Q 217.4 423.6, 216.4 422.8 Q 215.4 421.9, 213.2 421.9 L 211.9 421.9 L 211.9 420.1 L 213.1 420.1 Q 215.0 420.1, 216.0 419.3 Q 217.0 418.4, 217.0 416.9 Q 217.0 415.7, 216.2 415.0 Q 215.3 414.3, 213.9 414.3 Q 212.4 414.3, 211.5 414.9 Q 210.6 415.4, 209.9 416.7 L 208.2 415.8 Q 208.8 414.3, 210.3 413.3 Q 211.8 412.3, 213.9 412.3 Q 216.5 412.3, 218.0 413.6 Q 219.5 414.8, 219.5 416.9 Q 219.5 418.3, 218.8 419.3 Q 218.0 420.3, 216.5 420.9 " fill="#0000FF"/>
<path class="atom-3" d="M 261.3 388.5 Q 261.3 384.1, 263.3 381.8 Q 265.4 379.5, 269.3 379.5 Q 273.0 379.5, 274.9 382.1 L 273.3 383.4 Q 271.8 381.6, 269.3 381.6 Q 266.6 381.6, 265.2 383.4 Q 263.8 385.1, 263.8 388.5 Q 263.8 392.0, 265.3 393.8 Q 266.7 395.6, 269.6 395.6 Q 271.5 395.6, 273.8 394.5 L 274.5 396.3 Q 273.6 396.9, 272.2 397.3 Q 270.8 397.6, 269.2 397.6 Q 265.4 397.6, 263.3 395.3 Q 261.3 392.9, 261.3 388.5 " fill="#000000"/>
<path class="atom-3" d="M 288.8 391.3 L 290.9 391.3 L 290.9 393.3 L 288.8 393.3 L 288.8 397.4 L 286.4 397.4 L 286.4 393.3 L 277.3 393.3 L 277.3 391.8 L 285.0 379.7 L 288.8 379.7 L 288.8 391.3 M 280.2 391.3 L 286.4 391.3 L 286.4 381.3 L 280.2 391.3 " fill="#000000"/>
<path class="atom-4" d="M 322.7 428.5 L 328.5 437.8 Q 329.1 438.8, 330.0 440.4 Q 330.9 442.1, 331.0 442.2 L 331.0 428.5 L 333.3 428.5 L 333.3 446.2 L 330.9 446.2 L 324.7 435.9 Q 323.9 434.7, 323.2 433.3 Q 322.4 432.0, 322.2 431.5 L 322.2 446.2 L 319.9 446.2 L 319.9 428.5 L 322.7 428.5 " fill="#0000FF"/>
<path class="atom-4" d="M 343.1 435.1 Q 344.6 435.1, 345.9 435.8 Q 347.2 436.4, 347.9 437.7 Q 348.6 438.9, 348.6 440.6 Q 348.6 442.4, 347.7 443.7 Q 346.9 445.0, 345.4 445.7 Q 344.0 446.4, 342.3 446.4 Q 340.7 446.4, 339.2 445.8 Q 337.7 445.2, 336.7 444.0 L 338.2 442.5 Q 339.0 443.4, 340.1 443.9 Q 341.2 444.3, 342.4 444.3 Q 344.0 444.3, 345.0 443.4 Q 346.1 442.4, 346.1 440.6 Q 346.1 438.7, 345.0 437.9 Q 344.0 437.0, 342.2 437.0 Q 340.7 437.0, 339.0 437.6 L 337.6 437.0 L 338.4 428.5 L 347.5 428.5 L 347.3 430.5 L 340.5 430.5 L 340.0 435.7 Q 341.5 435.1, 343.1 435.1 " fill="#0000FF"/>
<path class="atom-5" d="M 389.0 425.3 Q 389.0 420.9, 391.0 418.6 Q 393.1 416.3, 397.0 416.3 Q 400.7 416.3, 402.6 418.9 L 401.0 420.2 Q 399.5 418.4, 397.0 418.4 Q 394.3 418.4, 392.9 420.2 Q 391.5 421.9, 391.5 425.3 Q 391.5 428.8, 393.0 430.6 Q 394.4 432.4, 397.3 432.4 Q 399.2 432.4, 401.5 431.3 L 402.2 433.1 Q 401.3 433.7, 399.9 434.1 Q 398.5 434.4, 396.9 434.4 Q 393.1 434.4, 391.0 432.1 Q 389.0 429.7, 389.0 425.3 " fill="#000000"/>
<path class="atom-5" d="M 411.8 423.2 Q 413.4 423.2, 414.6 423.8 Q 415.8 424.5, 416.5 425.7 Q 417.2 427.0, 417.2 428.5 Q 417.2 430.2, 416.4 431.6 Q 415.7 432.9, 414.3 433.7 Q 413.0 434.4, 411.2 434.4 Q 408.1 434.4, 406.5 432.3 Q 404.9 430.1, 404.9 425.9 Q 404.9 421.2, 406.9 418.8 Q 408.8 416.3, 412.6 416.3 Q 413.7 416.3, 414.6 416.6 Q 415.6 416.8, 416.5 417.3 L 415.5 419.0 Q 414.2 418.3, 412.6 418.3 Q 410.1 418.3, 408.9 419.9 Q 407.6 421.5, 407.4 424.9 Q 408.3 424.0, 409.5 423.6 Q 410.6 423.2, 411.8 423.2 M 411.3 432.4 Q 412.2 432.4, 413.0 431.9 Q 413.8 431.4, 414.2 430.5 Q 414.7 429.6, 414.7 428.5 Q 414.7 427.0, 413.8 426.1 Q 412.9 425.2, 411.4 425.2 Q 410.3 425.2, 409.2 425.6 Q 408.2 426.0, 407.4 426.8 Q 407.5 429.7, 408.5 431.0 Q 409.4 432.4, 411.3 432.4 " fill="#000000"/>
<path class="atom-6" d="M 277.9 318.9 Q 277.9 314.6, 280.0 312.2 Q 282.1 309.9, 286.0 309.9 Q 289.9 309.9, 292.0 312.2 Q 294.1 314.6, 294.1 318.9 Q 294.1 323.2, 292.0 325.6 Q 289.9 328.0, 286.0 328.0 Q 282.1 328.0, 280.0 325.6 Q 277.9 323.2, 277.9 318.9 M 286.0 326.0 Q 288.7 326.0, 290.1 324.2 Q 291.6 322.4, 291.6 318.9 Q 291.6 315.4, 290.1 313.6 Q 288.7 311.9, 286.0 311.9 Q 283.3 311.9, 281.8 313.6 Q 280.4 315.4, 280.4 318.9 Q 280.4 322.4, 281.8 324.2 Q 283.3 326.0, 286.0 326.0 " fill="#FF0000"/>
<path class="atom-6" d="M 306.0 312.1 L 296.8 312.1 L 296.8 310.1 L 308.5 310.1 L 308.5 311.8 L 301.4 327.8 L 299.0 327.8 L 306.0 312.1 " fill="#FF0000"/>
<path class="atom-7" d="M 136.6 390.5 Q 136.6 386.1, 138.7 383.8 Q 140.8 381.5, 144.7 381.5 Q 148.3 381.5, 150.3 384.1 L 148.6 385.4 Q 147.2 383.6, 144.7 383.6 Q 142.0 383.6, 140.6 385.4 Q 139.2 387.1, 139.2 390.5 Q 139.2 394.0, 140.6 395.8 Q 142.1 397.6, 145.0 397.6 Q 146.9 397.6, 149.2 396.5 L 149.9 398.3 Q 149.0 398.9, 147.6 399.3 Q 146.2 399.6, 144.6 399.6 Q 140.8 399.6, 138.7 397.3 Q 136.6 394.9, 136.6 390.5 " fill="#000000"/>
<path class="atom-7" d="M 161.6 390.0 Q 163.2 390.7, 164.2 391.8 Q 165.1 392.8, 165.1 394.6 Q 165.1 396.1, 164.3 397.2 Q 163.5 398.4, 162.1 399.0 Q 160.8 399.7, 158.9 399.7 Q 156.0 399.7, 154.3 398.3 Q 152.6 396.9, 152.6 394.6 Q 152.6 393.1, 153.3 392.0 Q 154.1 390.9, 155.6 390.1 Q 154.5 389.5, 153.9 388.5 Q 153.2 387.5, 153.2 386.0 Q 153.2 384.0, 154.7 382.7 Q 156.3 381.5, 158.8 381.5 Q 161.4 381.5, 162.9 382.7 Q 164.4 384.0, 164.4 386.0 Q 164.4 387.3, 163.7 388.3 Q 163.0 389.3, 161.6 390.0 M 158.8 383.4 Q 157.4 383.4, 156.5 384.1 Q 155.7 384.8, 155.7 386.0 Q 155.7 387.0, 156.3 387.6 Q 156.8 388.2, 157.6 388.5 Q 158.4 388.9, 159.9 389.4 Q 161.0 388.7, 161.5 387.9 Q 161.9 387.1, 161.9 386.0 Q 161.9 384.8, 161.1 384.1 Q 160.3 383.4, 158.8 383.4 M 158.9 397.8 Q 160.6 397.8, 161.6 396.9 Q 162.6 396.0, 162.6 394.5 Q 162.6 393.6, 162.1 393.0 Q 161.5 392.4, 160.7 392.0 Q 160.0 391.7, 158.6 391.2 L 157.4 390.9 Q 156.2 391.6, 155.6 392.5 Q 155.1 393.4, 155.1 394.5 Q 155.1 396.0, 156.1 396.9 Q 157.2 397.8, 158.9 397.8 " fill="#000000"/>
<path class="atom-8" d="M 70.5 429.7 Q 70.5 425.3, 72.5 423.0 Q 74.6 420.7, 78.5 420.7 Q 82.2 420.7, 84.1 423.3 L 82.5 424.6 Q 81.0 422.8, 78.5 422.8 Q 75.8 422.8, 74.4 424.6 Q 73.0 426.3, 73.0 429.7 Q 73.0 433.2, 74.5 435.0 Q 75.9 436.8, 78.8 436.8 Q 80.7 436.8, 83.0 435.7 L 83.7 437.5 Q 82.8 438.1, 81.4 438.5 Q 80.0 438.8, 78.4 438.8 Q 74.6 438.8, 72.5 436.5 Q 70.5 434.1, 70.5 429.7 " fill="#000000"/>
<path class="atom-8" d="M 92.4 420.7 Q 95.5 420.7, 97.1 422.9 Q 98.7 425.0, 98.7 429.2 Q 98.7 433.9, 96.7 436.4 Q 94.8 438.8, 91.0 438.8 Q 89.9 438.8, 88.9 438.6 Q 88.0 438.3, 87.1 437.8 L 88.1 436.1 Q 89.4 436.8, 91.0 436.8 Q 93.5 436.8, 94.7 435.2 Q 96.0 433.6, 96.2 430.3 Q 95.3 431.1, 94.1 431.5 Q 93.0 432.0, 91.8 432.0 Q 90.2 432.0, 89.0 431.3 Q 87.8 430.6, 87.1 429.4 Q 86.4 428.2, 86.4 426.6 Q 86.4 424.9, 87.2 423.6 Q 87.9 422.2, 89.3 421.5 Q 90.6 420.7, 92.4 420.7 M 88.9 426.6 Q 88.9 428.2, 89.8 429.1 Q 90.7 430.0, 92.2 430.0 Q 93.3 430.0, 94.3 429.5 Q 95.4 429.1, 96.2 428.3 Q 96.1 425.4, 95.1 424.1 Q 94.2 422.8, 92.3 422.8 Q 91.4 422.8, 90.6 423.3 Q 89.8 423.8, 89.4 424.6 Q 88.9 425.5, 88.9 426.6 " fill="#000000"/>
<path class="atom-9" d="M 405.5 479.3 Q 405.5 474.9, 407.6 472.6 Q 409.7 470.2, 413.6 470.2 Q 417.2 470.2, 419.2 472.8 L 417.5 474.2 Q 416.1 472.3, 413.6 472.3 Q 410.9 472.3, 409.5 474.1 Q 408.1 475.9, 408.1 479.3 Q 408.1 482.8, 409.5 484.6 Q 411.0 486.4, 413.9 486.4 Q 415.8 486.4, 418.1 485.2 L 418.8 487.1 Q 417.9 487.7, 416.5 488.0 Q 415.1 488.4, 413.5 488.4 Q 409.7 488.4, 407.6 486.0 Q 405.5 483.7, 405.5 479.3 " fill="#000000"/>
<path class="atom-9" d="M 422.4 486.1 L 426.3 486.1 L 426.3 472.9 L 422.0 474.2 L 421.4 472.8 L 426.9 470.3 L 428.6 470.6 L 428.6 486.1 L 432.1 486.1 L 432.1 488.1 L 422.4 488.1 L 422.4 486.1 " fill="#000000"/>
<path class="atom-9" d="M 440.9 488.3 Q 437.6 488.3, 436.0 485.9 Q 434.4 483.5, 434.4 479.3 Q 434.4 475.0, 436.0 472.6 Q 437.6 470.2, 440.9 470.2 Q 444.1 470.2, 445.7 472.6 Q 447.3 475.0, 447.3 479.3 Q 447.3 483.5, 445.7 485.9 Q 444.1 488.3, 440.9 488.3 M 440.9 486.3 Q 442.8 486.3, 443.8 484.6 Q 444.8 482.8, 444.8 479.3 Q 444.8 475.8, 443.8 474.0 Q 442.8 472.2, 440.9 472.2 Q 439.0 472.2, 437.9 474.0 Q 436.9 475.8, 436.9 479.3 Q 436.9 482.8, 437.9 484.6 Q 439.0 486.3, 440.9 486.3 " fill="#000000"/>
<path class="atom-10" d="M 478.0 458.4 L 483.8 467.7 Q 484.4 468.7, 485.3 470.3 Q 486.2 472.0, 486.3 472.1 L 486.3 458.4 L 488.6 458.4 L 488.6 476.1 L 486.2 476.1 L 480.0 465.8 Q 479.2 464.6, 478.5 463.2 Q 477.7 461.9, 477.5 461.4 L 477.5 476.1 L 475.2 476.1 L 475.2 458.4 L 478.0 458.4 " fill="#0000FF"/>
<path class="atom-10" d="M 492.8 474.1 L 496.7 474.1 L 496.7 460.8 L 492.4 462.2 L 491.8 460.7 L 497.3 458.3 L 499.0 458.6 L 499.0 474.1 L 502.5 474.1 L 502.5 476.1 L 492.8 476.1 L 492.8 474.1 " fill="#0000FF"/>
<path class="atom-10" d="M 505.7 474.1 L 509.6 474.1 L 509.6 460.8 L 505.3 462.2 L 504.7 460.7 L 510.1 458.3 L 511.9 458.6 L 511.9 474.1 L 515.4 474.1 L 515.4 476.1 L 505.7 476.1 L 505.7 474.1 " fill="#0000FF"/>
<path class="atom-11" d="M 520.5 521.0 Q 520.5 516.6, 522.5 514.3 Q 524.6 512.0, 528.5 512.0 Q 532.2 512.0, 534.1 514.6 L 532.5 515.9 Q 531.0 514.0, 528.5 514.0 Q 525.8 514.0, 524.4 515.8 Q 523.0 517.6, 523.0 521.0 Q 523.0 524.5, 524.5 526.3 Q 525.9 528.1, 528.8 528.1 Q 530.7 528.1, 533.0 526.9 L 533.7 528.8 Q 532.8 529.4, 531.4 529.8 Q 530.0 530.1, 528.4 530.1 Q 524.6 530.1, 522.5 527.8 Q 520.5 525.4, 520.5 521.0 " fill="#000000"/>
<path class="atom-11" d="M 537.3 527.9 L 541.2 527.9 L 541.2 514.7 L 536.9 516.0 L 536.3 514.5 L 541.8 512.1 L 543.5 512.4 L 543.5 527.9 L 547.0 527.9 L 547.0 529.9 L 537.3 529.9 L 537.3 527.9 " fill="#000000"/>
<path class="atom-11" d="M 549.3 515.5 Q 550.0 513.9, 551.5 512.9 Q 553.1 512.0, 555.2 512.0 Q 557.9 512.0, 559.4 513.4 Q 560.9 514.9, 560.9 517.5 Q 560.9 520.1, 558.9 522.5 Q 557.0 525.0, 553.0 527.9 L 561.2 527.9 L 561.2 529.9 L 549.3 529.9 L 549.3 528.2 Q 552.6 525.9, 554.5 524.1 Q 556.5 522.4, 557.4 520.8 Q 558.4 519.2, 558.4 517.6 Q 558.4 515.9, 557.5 514.9 Q 556.7 514.0, 555.2 514.0 Q 553.8 514.0, 552.8 514.6 Q 551.9 515.1, 551.2 516.4 L 549.3 515.5 " fill="#000000"/>
<path class="atom-12" d="M 617.6 509.1 Q 617.6 504.7, 619.7 502.4 Q 621.7 500.1, 625.7 500.1 Q 629.3 500.1, 631.3 502.6 L 629.6 504.0 Q 628.2 502.1, 625.7 502.1 Q 623.0 502.1, 621.6 503.9 Q 620.2 505.7, 620.2 509.1 Q 620.2 512.6, 621.6 514.4 Q 623.1 516.2, 625.9 516.2 Q 627.9 516.2, 630.2 515.0 L 630.9 516.9 Q 629.9 517.5, 628.5 517.8 Q 627.1 518.2, 625.6 518.2 Q 621.7 518.2, 619.7 515.8 Q 617.6 513.5, 617.6 509.1 " fill="#000000"/>
<path class="atom-12" d="M 634.4 516.0 L 638.3 516.0 L 638.3 502.7 L 634.0 504.1 L 633.5 502.6 L 638.9 500.2 L 640.7 500.5 L 640.7 516.0 L 644.1 516.0 L 644.1 518.0 L 634.4 518.0 L 634.4 516.0 " fill="#000000"/>
<path class="atom-12" d="M 654.9 508.6 Q 656.6 509.1, 657.5 510.3 Q 658.3 511.4, 658.3 513.1 Q 658.3 514.6, 657.6 515.8 Q 656.8 516.9, 655.4 517.6 Q 654.1 518.2, 652.3 518.2 Q 650.4 518.2, 648.9 517.6 Q 647.5 516.9, 646.4 515.5 L 647.8 514.1 Q 648.9 515.3, 649.9 515.8 Q 650.8 516.2, 652.3 516.2 Q 653.9 516.2, 654.8 515.4 Q 655.8 514.5, 655.8 513.1 Q 655.8 511.3, 654.8 510.5 Q 653.8 509.7, 651.6 509.7 L 650.3 509.7 L 650.3 507.9 L 651.5 507.9 Q 653.4 507.8, 654.4 507.0 Q 655.4 506.2, 655.4 504.6 Q 655.4 503.4, 654.6 502.8 Q 653.7 502.1, 652.3 502.1 Q 650.8 502.1, 649.9 502.6 Q 649.0 503.1, 648.3 504.4 L 646.6 503.5 Q 647.2 502.0, 648.7 501.1 Q 650.2 500.1, 652.3 500.1 Q 654.9 500.1, 656.4 501.3 Q 657.9 502.5, 657.9 504.6 Q 657.9 506.0, 657.2 507.0 Q 656.4 508.1, 654.9 508.6 " fill="#000000"/>
<path class="atom-13" d="M 612.9 442.9 Q 612.9 438.5, 615.0 436.2 Q 617.1 433.9, 621.0 433.9 Q 624.6 433.9, 626.6 436.5 L 624.9 437.8 Q 623.5 435.9, 621.0 435.9 Q 618.3 435.9, 616.9 437.7 Q 615.5 439.5, 615.5 442.9 Q 615.5 446.4, 616.9 448.2 Q 618.4 450.0, 621.3 450.0 Q 623.2 450.0, 625.5 448.8 L 626.2 450.7 Q 625.3 451.3, 623.9 451.7 Q 622.5 452.0, 620.9 452.0 Q 617.1 452.0, 615.0 449.7 Q 612.9 447.3, 612.9 442.9 " fill="#000000"/>
<path class="atom-13" d="M 629.8 449.8 L 633.7 449.8 L 633.7 436.6 L 629.4 437.9 L 628.9 436.4 L 634.3 434.0 L 636.1 434.3 L 636.1 449.8 L 639.5 449.8 L 639.5 451.8 L 629.8 451.8 L 629.8 449.8 " fill="#000000"/>
<path class="atom-13" d="M 653.3 445.7 L 655.5 445.7 L 655.5 447.7 L 653.3 447.7 L 653.3 451.8 L 651.0 451.8 L 651.0 447.7 L 641.8 447.7 L 641.8 446.1 L 649.6 434.1 L 653.3 434.1 L 653.3 445.7 M 644.7 445.7 L 651.0 445.7 L 651.0 435.7 L 644.7 445.7 " fill="#000000"/>
<path class="atom-14" d="M 596.7 389.1 Q 596.7 384.7, 598.7 382.4 Q 600.8 380.1, 604.7 380.1 Q 608.4 380.1, 610.3 382.7 L 608.7 384.0 Q 607.2 382.2, 604.7 382.2 Q 602.0 382.2, 600.6 384.0 Q 599.2 385.7, 599.2 389.1 Q 599.2 392.6, 600.7 394.4 Q 602.1 396.2, 605.0 396.2 Q 606.9 396.2, 609.2 395.1 L 609.9 396.9 Q 609.0 397.5, 607.6 397.9 Q 606.2 398.2, 604.6 398.2 Q 600.8 398.2, 598.7 395.9 Q 596.7 393.5, 596.7 389.1 " fill="#000000"/>
<path class="atom-14" d="M 613.5 396.0 L 617.4 396.0 L 617.4 382.8 L 613.1 384.1 L 612.5 382.6 L 618.0 380.2 L 619.7 380.5 L 619.7 396.0 L 623.2 396.0 L 623.2 398.0 L 613.5 398.0 L 613.5 396.0 " fill="#000000"/>
<path class="atom-14" d="M 631.9 386.9 Q 633.4 386.9, 634.7 387.6 Q 636.0 388.3, 636.7 389.5 Q 637.4 390.7, 637.4 392.4 Q 637.4 394.2, 636.5 395.6 Q 635.7 396.9, 634.2 397.5 Q 632.8 398.2, 631.1 398.2 Q 629.5 398.2, 628.0 397.6 Q 626.5 397.0, 625.5 395.9 L 627.0 394.3 Q 627.8 395.2, 628.9 395.7 Q 630.0 396.2, 631.2 396.2 Q 632.8 396.2, 633.8 395.2 Q 634.9 394.2, 634.9 392.5 Q 634.9 390.6, 633.8 389.7 Q 632.8 388.8, 631.0 388.8 Q 629.5 388.8, 627.8 389.5 L 626.4 388.8 L 627.2 380.3 L 636.3 380.3 L 636.1 382.3 L 629.3 382.3 L 628.8 387.6 Q 630.3 386.9, 631.9 386.9 " fill="#000000"/>
<path class="atom-15" d="M 499.3 401.1 Q 499.3 396.7, 501.4 394.4 Q 503.4 392.0, 507.4 392.0 Q 511.0 392.0, 513.0 394.6 L 511.3 396.0 Q 509.9 394.1, 507.4 394.1 Q 504.7 394.1, 503.3 395.9 Q 501.9 397.7, 501.9 401.1 Q 501.9 404.6, 503.3 406.4 Q 504.8 408.2, 507.6 408.2 Q 509.6 408.2, 511.9 407.0 L 512.6 408.9 Q 511.6 409.5, 510.2 409.8 Q 508.8 410.2, 507.3 410.2 Q 503.4 410.2, 501.4 407.8 Q 499.3 405.5, 499.3 401.1 " fill="#000000"/>
<path class="atom-15" d="M 516.2 407.9 L 520.0 407.9 L 520.0 394.7 L 515.8 396.0 L 515.2 394.6 L 520.6 392.1 L 522.4 392.4 L 522.4 407.9 L 525.9 407.9 L 525.9 409.9 L 516.2 409.9 L 516.2 407.9 " fill="#000000"/>
<path class="atom-15" d="M 535.1 398.9 Q 536.6 398.9, 537.8 399.6 Q 539.1 400.2, 539.7 401.5 Q 540.4 402.7, 540.4 404.2 Q 540.4 406.0, 539.6 407.3 Q 538.9 408.6, 537.5 409.4 Q 536.2 410.1, 534.5 410.1 Q 531.3 410.1, 529.7 408.0 Q 528.1 405.9, 528.1 401.6 Q 528.1 396.9, 530.1 394.5 Q 532.1 392.0, 535.8 392.0 Q 536.9 392.0, 537.9 392.3 Q 538.8 392.5, 539.7 393.1 L 538.7 394.7 Q 537.4 394.0, 535.9 394.0 Q 533.4 394.0, 532.1 395.7 Q 530.8 397.3, 530.7 400.6 Q 531.6 399.8, 532.7 399.3 Q 533.8 398.9, 535.1 398.9 M 534.5 408.1 Q 535.4 408.1, 536.2 407.6 Q 537.0 407.1, 537.5 406.2 Q 537.9 405.3, 537.9 404.3 Q 537.9 402.7, 537.0 401.8 Q 536.2 400.9, 534.6 400.9 Q 533.5 400.9, 532.5 401.3 Q 531.4 401.8, 530.7 402.5 Q 530.8 405.4, 531.7 406.8 Q 532.6 408.1, 534.5 408.1 " fill="#000000"/>
<path class="atom-16" d="M 687.0 389.2 Q 687.0 384.8, 689.1 382.5 Q 691.2 380.2, 695.1 380.2 Q 698.7 380.2, 700.7 382.8 L 699.0 384.1 Q 697.6 382.2, 695.1 382.2 Q 692.4 382.2, 691.0 384.0 Q 689.6 385.8, 689.6 389.2 Q 689.6 392.7, 691.0 394.5 Q 692.5 396.3, 695.4 396.3 Q 697.3 396.3, 699.6 395.1 L 700.3 397.0 Q 699.4 397.6, 698.0 398.0 Q 696.6 398.3, 695.0 398.3 Q 691.2 398.3, 689.1 396.0 Q 687.0 393.6, 687.0 389.2 " fill="#000000"/>
<path class="atom-16" d="M 703.9 396.1 L 707.8 396.1 L 707.8 382.9 L 703.5 384.2 L 702.9 382.7 L 708.3 380.3 L 710.1 380.6 L 710.1 396.1 L 713.6 396.1 L 713.6 398.1 L 703.9 398.1 L 703.9 396.1 " fill="#000000"/>
<path class="atom-16" d="M 725.1 382.4 L 715.8 382.4 L 715.8 380.4 L 727.6 380.4 L 727.6 382.2 L 720.4 398.1 L 718.0 398.1 L 725.1 382.4 " fill="#000000"/>
<path class="atom-17" d="M 676.3 469.4 L 682.1 478.8 Q 682.6 479.7, 683.6 481.4 Q 684.5 483.1, 684.5 483.2 L 684.5 469.4 L 686.9 469.4 L 686.9 487.1 L 684.5 487.1 L 678.2 476.9 Q 677.5 475.7, 676.7 474.3 Q 676.0 472.9, 675.8 472.5 L 675.8 487.1 L 673.5 487.1 L 673.5 469.4 L 676.3 469.4 " fill="#0000FF"/>
<path class="atom-17" d="M 691.2 485.1 L 695.0 485.1 L 695.0 471.9 L 690.8 473.2 L 690.2 471.7 L 695.6 469.3 L 697.4 469.6 L 697.4 485.1 L 700.9 485.1 L 700.9 487.1 L 691.2 487.1 L 691.2 485.1 " fill="#0000FF"/>
<path class="atom-17" d="M 712.2 477.7 Q 713.8 478.4, 714.7 479.5 Q 715.6 480.5, 715.6 482.3 Q 715.6 483.8, 714.9 484.9 Q 714.1 486.1, 712.7 486.7 Q 711.3 487.4, 709.5 487.4 Q 706.5 487.4, 704.8 486.0 Q 703.1 484.6, 703.1 482.3 Q 703.1 480.8, 703.9 479.7 Q 704.6 478.6, 706.2 477.8 Q 705.0 477.2, 704.4 476.2 Q 703.8 475.2, 703.8 473.7 Q 703.8 471.7, 705.3 470.4 Q 706.8 469.2, 709.4 469.2 Q 712.0 469.2, 713.5 470.4 Q 715.0 471.7, 715.0 473.7 Q 715.0 475.0, 714.3 476.0 Q 713.6 477.0, 712.2 477.7 M 709.4 471.1 Q 707.9 471.1, 707.1 471.8 Q 706.3 472.5, 706.3 473.7 Q 706.3 474.7, 706.8 475.3 Q 707.4 475.9, 708.2 476.2 Q 709.0 476.6, 710.5 477.1 Q 711.6 476.4, 712.0 475.6 Q 712.5 474.8, 712.5 473.7 Q 712.5 472.5, 711.7 471.8 Q 710.9 471.1, 709.4 471.1 M 709.5 485.5 Q 711.1 485.5, 712.1 484.6 Q 713.1 483.7, 713.1 482.2 Q 713.1 481.3, 712.6 480.7 Q 712.1 480.1, 711.3 479.7 Q 710.5 479.4, 709.1 478.9 L 708.0 478.6 Q 706.7 479.3, 706.2 480.2 Q 705.6 481.1, 705.6 482.2 Q 705.6 483.7, 706.7 484.6 Q 707.7 485.5, 709.5 485.5 " fill="#0000FF"/>
<path class="atom-18" d="M 661.8 323.1 Q 661.8 318.9, 663.9 316.5 Q 666.0 314.1, 669.9 314.1 Q 673.9 314.1, 676.0 316.5 Q 678.1 318.9, 678.1 323.1 Q 678.1 327.4, 675.9 329.9 Q 673.8 332.3, 669.9 332.3 Q 666.0 332.3, 663.9 329.9 Q 661.8 327.4, 661.8 323.1 M 669.9 330.3 Q 672.6 330.3, 674.1 328.5 Q 675.6 326.7, 675.6 323.1 Q 675.6 319.6, 674.1 317.9 Q 672.6 316.1, 669.9 316.1 Q 667.2 316.1, 665.8 317.9 Q 664.3 319.6, 664.3 323.1 Q 664.3 326.7, 665.8 328.5 Q 667.2 330.3, 669.9 330.3 " fill="#FF0000"/>
<path class="atom-18" d="M 681.6 330.0 L 685.5 330.0 L 685.5 316.8 L 681.2 318.1 L 680.6 316.6 L 686.0 314.2 L 687.8 314.5 L 687.8 330.0 L 691.3 330.0 L 691.3 332.0 L 681.6 332.0 L 681.6 330.0 " fill="#FF0000"/>
<path class="atom-18" d="M 699.6 314.1 Q 702.7 314.1, 704.3 316.3 Q 705.9 318.4, 705.9 322.6 Q 705.9 327.3, 703.9 329.8 Q 702.0 332.2, 698.2 332.2 Q 697.1 332.2, 696.2 332.0 Q 695.2 331.7, 694.3 331.2 L 695.3 329.5 Q 696.6 330.2, 698.2 330.2 Q 700.7 330.2, 702.0 328.6 Q 703.2 327.0, 703.4 323.7 Q 702.5 324.5, 701.3 324.9 Q 700.2 325.4, 699.0 325.4 Q 697.4 325.4, 696.2 324.7 Q 695.0 324.0, 694.3 322.8 Q 693.6 321.6, 693.6 320.0 Q 693.6 318.3, 694.4 317.0 Q 695.2 315.6, 696.5 314.9 Q 697.9 314.1, 699.6 314.1 M 696.1 320.0 Q 696.1 321.6, 697.0 322.5 Q 697.9 323.4, 699.4 323.4 Q 700.5 323.4, 701.6 322.9 Q 702.6 322.5, 703.4 321.7 Q 703.3 318.8, 702.4 317.5 Q 701.4 316.2, 699.6 316.2 Q 698.6 316.2, 697.8 316.7 Q 697.0 317.2, 696.6 318.0 Q 696.1 318.9, 696.1 320.0 " fill="#FF0000"/>
<path class="atom-19" d="M 563.6 310.8 Q 563.6 306.4, 565.7 304.1 Q 567.8 301.8, 571.7 301.8 Q 575.3 301.8, 577.3 304.4 L 575.6 305.7 Q 574.2 303.9, 571.7 303.9 Q 569.0 303.9, 567.6 305.7 Q 566.2 307.4, 566.2 310.8 Q 566.2 314.3, 567.6 316.1 Q 569.1 317.9, 572.0 317.9 Q 573.9 317.9, 576.2 316.8 L 576.9 318.6 Q 576.0 319.2, 574.6 319.6 Q 573.2 319.9, 571.6 319.9 Q 567.8 319.9, 565.7 317.6 Q 563.6 315.2, 563.6 310.8 " fill="#000000"/>
<path class="atom-19" d="M 579.6 305.4 Q 580.3 303.7, 581.8 302.8 Q 583.4 301.8, 585.5 301.8 Q 588.2 301.8, 589.7 303.3 Q 591.2 304.7, 591.2 307.3 Q 591.2 309.9, 589.2 312.4 Q 587.3 314.8, 583.3 317.7 L 591.5 317.7 L 591.5 319.7 L 579.6 319.7 L 579.6 318.0 Q 582.9 315.7, 584.8 313.9 Q 586.8 312.2, 587.7 310.6 Q 588.7 309.0, 588.7 307.4 Q 588.7 305.7, 587.8 304.8 Q 587.0 303.8, 585.5 303.8 Q 584.1 303.8, 583.1 304.4 Q 582.2 305.0, 581.5 306.2 L 579.6 305.4 " fill="#000000"/>
<path class="atom-19" d="M 600.8 319.9 Q 597.5 319.9, 595.9 317.5 Q 594.3 315.1, 594.3 310.8 Q 594.3 306.6, 595.9 304.2 Q 597.5 301.8, 600.8 301.8 Q 604.0 301.8, 605.6 304.2 Q 607.2 306.6, 607.2 310.8 Q 607.2 315.1, 605.6 317.5 Q 604.0 319.9, 600.8 319.9 M 600.8 317.9 Q 602.7 317.9, 603.7 316.1 Q 604.7 314.3, 604.7 310.8 Q 604.7 307.4, 603.7 305.6 Q 602.7 303.8, 600.8 303.8 Q 598.9 303.8, 597.8 305.6 Q 596.8 307.4, 596.8 310.8 Q 596.8 314.3, 597.8 316.1 Q 598.9 317.9, 600.8 317.9 " fill="#000000"/>
<path class="atom-20" d="M 734.5 443.2 Q 734.5 438.8, 736.5 436.5 Q 738.6 434.2, 742.5 434.2 Q 746.2 434.2, 748.1 436.7 L 746.5 438.1 Q 745.1 436.2, 742.5 436.2 Q 739.9 436.2, 738.4 438.0 Q 737.0 439.8, 737.0 443.2 Q 737.0 446.7, 738.5 448.5 Q 740.0 450.3, 742.8 450.3 Q 744.8 450.3, 747.0 449.1 L 747.7 451.0 Q 746.8 451.6, 745.4 451.9 Q 744.0 452.3, 742.5 452.3 Q 738.6 452.3, 736.5 449.9 Q 734.5 447.6, 734.5 443.2 " fill="#000000"/>
<path class="atom-20" d="M 750.4 437.7 Q 751.0 436.0, 752.6 435.1 Q 754.1 434.2, 756.3 434.2 Q 759.0 434.2, 760.5 435.6 Q 762.0 437.1, 762.0 439.6 Q 762.0 442.3, 760.0 444.7 Q 758.1 447.2, 754.1 450.1 L 762.3 450.1 L 762.3 452.1 L 750.3 452.1 L 750.3 450.4 Q 753.6 448.0, 755.6 446.3 Q 757.6 444.5, 758.5 443.0 Q 759.5 441.4, 759.5 439.8 Q 759.5 438.1, 758.6 437.1 Q 757.8 436.2, 756.3 436.2 Q 754.9 436.2, 753.9 436.7 Q 753.0 437.3, 752.3 438.6 L 750.4 437.7 " fill="#000000"/>
<path class="atom-20" d="M 766.0 450.1 L 769.8 450.1 L 769.8 436.8 L 765.6 438.2 L 765.0 436.7 L 770.4 434.3 L 772.2 434.6 L 772.2 450.1 L 775.7 450.1 L 775.7 452.1 L 766.0 452.1 L 766.0 450.1 " fill="#000000"/>
<path class="atom-21" d="M 702.5 548.5 Q 702.5 544.1, 704.5 541.8 Q 706.6 539.5, 710.5 539.5 Q 714.2 539.5, 716.1 542.0 L 714.5 543.4 Q 713.0 541.5, 710.5 541.5 Q 707.8 541.5, 706.4 543.3 Q 705.0 545.1, 705.0 548.5 Q 705.0 552.0, 706.5 553.8 Q 707.9 555.6, 710.8 555.6 Q 712.7 555.6, 715.0 554.4 L 715.7 556.3 Q 714.8 556.9, 713.4 557.2 Q 712.0 557.6, 710.4 557.6 Q 706.6 557.6, 704.5 555.2 Q 702.5 552.9, 702.5 548.5 " fill="#000000"/>
<path class="atom-21" d="M 718.4 543.0 Q 719.1 541.3, 720.6 540.4 Q 722.2 539.5, 724.3 539.5 Q 727.0 539.5, 728.5 540.9 Q 730.0 542.4, 730.0 544.9 Q 730.0 547.6, 728.0 550.0 Q 726.1 552.5, 722.1 555.4 L 730.3 555.4 L 730.3 557.4 L 718.4 557.4 L 718.4 555.7 Q 721.7 553.3, 723.6 551.6 Q 725.6 549.8, 726.5 548.3 Q 727.5 546.7, 727.5 545.1 Q 727.5 543.4, 726.6 542.4 Q 725.8 541.5, 724.3 541.5 Q 722.9 541.5, 721.9 542.0 Q 721.0 542.6, 720.3 543.9 L 718.4 543.0 " fill="#000000"/>
<path class="atom-21" d="M 733.1 543.0 Q 733.7 541.3, 735.3 540.4 Q 736.8 539.5, 739.0 539.5 Q 741.7 539.5, 743.2 540.9 Q 744.7 542.4, 744.7 544.9 Q 744.7 547.6, 742.7 550.0 Q 740.8 552.5, 736.8 555.4 L 745.0 555.4 L 745.0 557.4 L 733.0 557.4 L 733.0 555.7 Q 736.3 553.3, 738.3 551.6 Q 740.3 549.8, 741.2 548.3 Q 742.2 546.7, 742.2 545.1 Q 742.2 543.4, 741.3 542.4 Q 740.5 541.5, 739.0 541.5 Q 737.6 541.5, 736.6 542.0 Q 735.7 542.6, 735.0 543.9 L 733.1 543.0 " fill="#000000"/>
<path class="atom-22" d="M 809.9 478.4 Q 809.9 474.0, 811.9 471.7 Q 814.0 469.4, 817.9 469.4 Q 821.6 469.4, 823.5 472.0 L 821.9 473.3 Q 820.5 471.5, 817.9 471.5 Q 815.3 471.5, 813.8 473.3 Q 812.4 475.0, 812.4 478.4 Q 812.4 481.9, 813.9 483.7 Q 815.4 485.5, 818.2 485.5 Q 820.2 485.5, 822.4 484.4 L 823.1 486.2 Q 822.2 486.8, 820.8 487.2 Q 819.4 487.5, 817.9 487.5 Q 814.0 487.5, 811.9 485.2 Q 809.9 482.8, 809.9 478.4 " fill="#000000"/>
<path class="atom-22" d="M 825.8 473.0 Q 826.5 471.3, 828.0 470.4 Q 829.6 469.4, 831.7 469.4 Q 834.4 469.4, 835.9 470.9 Q 837.4 472.3, 837.4 474.9 Q 837.4 477.5, 835.5 480.0 Q 833.5 482.4, 829.5 485.3 L 837.7 485.3 L 837.7 487.3 L 825.8 487.3 L 825.8 485.6 Q 829.1 483.3, 831.0 481.5 Q 833.0 479.8, 834.0 478.2 Q 834.9 476.6, 834.9 475.0 Q 834.9 473.3, 834.1 472.4 Q 833.2 471.4, 831.7 471.4 Q 830.3 471.4, 829.4 472.0 Q 828.4 472.6, 827.7 473.8 L 825.8 473.0 " fill="#000000"/>
<path class="atom-22" d="M 849.0 478.0 Q 850.7 478.5, 851.5 479.6 Q 852.4 480.7, 852.4 482.5 Q 852.4 484.0, 851.6 485.1 Q 850.9 486.3, 849.5 486.9 Q 848.1 487.6, 846.3 487.6 Q 844.4 487.6, 843.0 486.9 Q 841.6 486.2, 840.5 484.9 L 841.9 483.4 Q 843.0 484.6, 843.9 485.1 Q 844.8 485.6, 846.3 485.6 Q 847.9 485.6, 848.9 484.7 Q 849.9 483.8, 849.9 482.4 Q 849.9 480.6, 848.8 479.8 Q 847.8 479.0, 845.7 479.0 L 844.4 479.0 L 844.4 477.2 L 845.5 477.2 Q 847.4 477.2, 848.5 476.4 Q 849.5 475.5, 849.5 473.9 Q 849.5 472.8, 848.6 472.1 Q 847.8 471.4, 846.3 471.4 Q 844.9 471.4, 843.9 471.9 Q 843.0 472.5, 842.3 473.8 L 840.6 472.9 Q 841.2 471.4, 842.7 470.4 Q 844.2 469.4, 846.3 469.4 Q 848.9 469.4, 850.5 470.6 Q 852.0 471.9, 852.0 473.9 Q 852.0 475.4, 851.2 476.4 Q 850.4 477.4, 849.0 478.0 " fill="#000000"/>
<path class="atom-23" d="M 885.2 443.4 Q 885.2 439.0, 887.3 436.7 Q 889.4 434.4, 893.3 434.4 Q 896.9 434.4, 898.9 437.0 L 897.2 438.3 Q 895.8 436.4, 893.3 436.4 Q 890.6 436.4, 889.2 438.2 Q 887.8 440.0, 887.8 443.4 Q 887.8 446.9, 889.2 448.7 Q 890.7 450.5, 893.6 450.5 Q 895.5 450.5, 897.8 449.3 L 898.5 451.2 Q 897.6 451.8, 896.2 452.2 Q 894.8 452.5, 893.2 452.5 Q 889.4 452.5, 887.3 450.2 Q 885.2 447.8, 885.2 443.4 " fill="#000000"/>
<path class="atom-23" d="M 901.2 437.9 Q 901.9 436.3, 903.4 435.3 Q 905.0 434.4, 907.1 434.4 Q 909.8 434.4, 911.3 435.8 Q 912.8 437.3, 912.8 439.9 Q 912.8 442.5, 910.9 444.9 Q 908.9 447.4, 904.9 450.3 L 913.1 450.3 L 913.1 452.3 L 901.2 452.3 L 901.2 450.6 Q 904.5 448.3, 906.4 446.5 Q 908.4 444.8, 909.4 443.2 Q 910.3 441.6, 910.3 440.0 Q 910.3 438.3, 909.5 437.3 Q 908.6 436.4, 907.1 436.4 Q 905.7 436.4, 904.8 437.0 Q 903.8 437.5, 903.1 438.8 L 901.2 437.9 " fill="#000000"/>
<path class="atom-23" d="M 927.4 446.2 L 929.5 446.2 L 929.5 448.2 L 927.4 448.2 L 927.4 452.3 L 925.1 452.3 L 925.1 448.2 L 915.9 448.2 L 915.9 446.6 L 923.7 434.6 L 927.4 434.6 L 927.4 446.2 M 918.8 446.2 L 925.1 446.2 L 925.1 436.2 L 918.8 446.2 " fill="#000000"/>
<path class="atom-24" d="M 763.2 583.8 Q 763.2 579.4, 765.3 577.1 Q 767.4 574.7, 771.3 574.7 Q 774.9 574.7, 776.9 577.3 L 775.2 578.7 Q 773.8 576.8, 771.3 576.8 Q 768.6 576.8, 767.2 578.6 Q 765.8 580.4, 765.8 583.8 Q 765.8 587.3, 767.2 589.1 Q 768.7 590.9, 771.6 590.9 Q 773.5 590.9, 775.8 589.7 L 776.5 591.6 Q 775.6 592.2, 774.2 592.5 Q 772.8 592.9, 771.2 592.9 Q 767.4 592.9, 765.3 590.5 Q 763.2 588.2, 763.2 583.8 " fill="#000000"/>
<path class="atom-24" d="M 779.2 578.3 Q 779.8 576.6, 781.4 575.7 Q 782.9 574.7, 785.1 574.7 Q 787.8 574.7, 789.3 576.2 Q 790.8 577.6, 790.8 580.2 Q 790.8 582.8, 788.8 585.3 Q 786.9 587.7, 782.9 590.6 L 791.1 590.6 L 791.1 592.6 L 779.1 592.6 L 779.1 591.0 Q 782.4 588.6, 784.4 586.9 Q 786.4 585.1, 787.3 583.5 Q 788.3 582.0, 788.3 580.3 Q 788.3 578.6, 787.4 577.7 Q 786.6 576.7, 785.1 576.7 Q 783.7 576.7, 782.7 577.3 Q 781.8 577.9, 781.1 579.2 L 779.2 578.3 " fill="#000000"/>
<path class="atom-24" d="M 800.2 581.6 Q 801.8 581.6, 803.1 582.2 Q 804.3 582.9, 805.1 584.1 Q 805.8 585.4, 805.8 587.0 Q 805.8 588.9, 804.9 590.2 Q 804.0 591.5, 802.6 592.2 Q 801.1 592.8, 799.5 592.8 Q 797.8 592.8, 796.3 592.2 Q 794.8 591.6, 793.8 590.5 L 795.3 588.9 Q 796.1 589.8, 797.3 590.3 Q 798.4 590.8, 799.5 590.8 Q 801.1 590.8, 802.2 589.8 Q 803.3 588.9, 803.3 587.1 Q 803.3 585.2, 802.2 584.3 Q 801.1 583.4, 799.4 583.4 Q 797.8 583.4, 796.1 584.1 L 794.7 583.5 L 795.6 574.9 L 804.7 574.9 L 804.4 576.9 L 797.6 576.9 L 797.1 582.2 Q 798.7 581.6, 800.2 581.6 " fill="#000000"/>
<path class="atom-25" d="M 763.2 654.0 Q 763.2 649.6, 765.2 647.3 Q 767.3 645.0, 771.2 645.0 Q 774.9 645.0, 776.8 647.6 L 775.2 648.9 Q 773.7 647.1, 771.2 647.1 Q 768.5 647.1, 767.1 648.9 Q 765.7 650.6, 765.7 654.0 Q 765.7 657.5, 767.2 659.3 Q 768.6 661.1, 771.5 661.1 Q 773.4 661.1, 775.7 660.0 L 776.4 661.8 Q 775.5 662.4, 774.1 662.8 Q 772.7 663.1, 771.1 663.1 Q 767.3 663.1, 765.2 660.8 Q 763.2 658.4, 763.2 654.0 " fill="#000000"/>
<path class="atom-25" d="M 779.1 648.6 Q 779.8 646.9, 781.3 646.0 Q 782.9 645.0, 785.0 645.0 Q 787.7 645.0, 789.2 646.5 Q 790.7 647.9, 790.7 650.5 Q 790.7 653.1, 788.7 655.6 Q 786.8 658.0, 782.8 660.9 L 791.0 660.9 L 791.0 662.9 L 779.1 662.9 L 779.1 661.2 Q 782.4 658.9, 784.3 657.1 Q 786.3 655.4, 787.2 653.8 Q 788.2 652.2, 788.2 650.6 Q 788.2 648.9, 787.3 648.0 Q 786.5 647.0, 785.0 647.0 Q 783.6 647.0, 782.6 647.6 Q 781.7 648.2, 781.0 649.4 L 779.1 648.6 " fill="#000000"/>
<path class="atom-25" d="M 800.7 651.9 Q 802.2 651.9, 803.4 652.5 Q 804.7 653.2, 805.3 654.4 Q 806.0 655.7, 806.0 657.2 Q 806.0 658.9, 805.2 660.3 Q 804.5 661.6, 803.1 662.4 Q 801.8 663.1, 800.1 663.1 Q 796.9 663.1, 795.3 661.0 Q 793.7 658.8, 793.7 654.6 Q 793.7 649.9, 795.7 647.5 Q 797.7 645.0, 801.4 645.0 Q 802.5 645.0, 803.5 645.3 Q 804.4 645.5, 805.3 646.0 L 804.3 647.7 Q 803.0 647.0, 801.5 647.0 Q 799.0 647.0, 797.7 648.6 Q 796.4 650.2, 796.3 653.6 Q 797.2 652.7, 798.3 652.3 Q 799.4 651.9, 800.7 651.9 M 800.1 661.1 Q 801.0 661.1, 801.8 660.6 Q 802.6 660.1, 803.1 659.2 Q 803.5 658.3, 803.5 657.2 Q 803.5 655.7, 802.6 654.8 Q 801.8 653.9, 800.2 653.9 Q 799.1 653.9, 798.1 654.3 Q 797.0 654.7, 796.3 655.5 Q 796.4 658.4, 797.3 659.7 Q 798.2 661.1, 800.1 661.1 " fill="#000000"/>
<path class="atom-26" d="M 687.8 689.1 Q 687.8 684.7, 689.9 682.4 Q 692.0 680.1, 695.9 680.1 Q 699.5 680.1, 701.5 682.6 L 699.8 684.0 Q 698.4 682.1, 695.9 682.1 Q 693.2 682.1, 691.8 683.9 Q 690.4 685.7, 690.4 689.1 Q 690.4 692.6, 691.8 694.4 Q 693.3 696.2, 696.2 696.2 Q 698.1 696.2, 700.4 695.0 L 701.1 696.9 Q 700.2 697.5, 698.8 697.8 Q 697.4 698.2, 695.8 698.2 Q 692.0 698.2, 689.9 695.8 Q 687.8 693.5, 687.8 689.1 " fill="#000000"/>
<path class="atom-26" d="M 703.8 683.6 Q 704.4 681.9, 706.0 681.0 Q 707.5 680.1, 709.7 680.1 Q 712.4 680.1, 713.9 681.5 Q 715.4 683.0, 715.4 685.5 Q 715.4 688.2, 713.4 690.6 Q 711.5 693.1, 707.5 696.0 L 715.7 696.0 L 715.7 698.0 L 703.7 698.0 L 703.7 696.3 Q 707.0 693.9, 709.0 692.2 Q 711.0 690.4, 711.9 688.9 Q 712.9 687.3, 712.9 685.7 Q 712.9 684.0, 712.0 683.0 Q 711.2 682.1, 709.7 682.1 Q 708.3 682.1, 707.3 682.6 Q 706.4 683.2, 705.7 684.5 L 703.8 683.6 " fill="#000000"/>
<path class="atom-26" d="M 727.7 682.3 L 718.4 682.3 L 718.4 680.3 L 730.2 680.3 L 730.2 682.0 L 723.0 698.0 L 720.6 698.0 L 727.7 682.3 " fill="#000000"/>
<path class="atom-27" d="M 611.4 653.8 Q 611.4 649.4, 613.4 647.1 Q 615.5 644.8, 619.4 644.8 Q 623.1 644.8, 625.0 647.4 L 623.4 648.7 Q 622.0 646.8, 619.4 646.8 Q 616.8 646.8, 615.3 648.6 Q 613.9 650.4, 613.9 653.8 Q 613.9 657.3, 615.4 659.1 Q 616.9 660.9, 619.7 660.9 Q 621.7 660.9, 623.9 659.7 L 624.6 661.6 Q 623.7 662.2, 622.3 662.6 Q 620.9 662.9, 619.4 662.9 Q 615.5 662.9, 613.4 660.6 Q 611.4 658.2, 611.4 653.8 " fill="#000000"/>
<path class="atom-27" d="M 627.4 648.3 Q 628.0 646.7, 629.6 645.7 Q 631.1 644.8, 633.3 644.8 Q 635.9 644.8, 637.4 646.2 Q 638.9 647.7, 638.9 650.3 Q 638.9 652.9, 637.0 655.3 Q 635.1 657.8, 631.1 660.7 L 639.2 660.7 L 639.2 662.7 L 627.3 662.7 L 627.3 661.0 Q 630.6 658.7, 632.6 656.9 Q 634.5 655.2, 635.5 653.6 Q 636.4 652.0, 636.4 650.4 Q 636.4 648.7, 635.6 647.7 Q 634.7 646.8, 633.3 646.8 Q 631.8 646.8, 630.9 647.4 Q 629.9 647.9, 629.3 649.2 L 627.4 648.3 " fill="#000000"/>
<path class="atom-27" d="M 651.0 653.3 Q 652.6 654.0, 653.6 655.1 Q 654.5 656.1, 654.5 657.8 Q 654.5 659.3, 653.7 660.5 Q 652.9 661.7, 651.5 662.3 Q 650.2 662.9, 648.3 662.9 Q 645.4 662.9, 643.7 661.6 Q 642.0 660.2, 642.0 657.8 Q 642.0 656.4, 642.7 655.3 Q 643.5 654.2, 645.0 653.4 Q 643.9 652.7, 643.3 651.8 Q 642.6 650.8, 642.6 649.3 Q 642.6 647.2, 644.1 646.0 Q 645.7 644.8, 648.2 644.8 Q 650.8 644.8, 652.3 646.0 Q 653.8 647.2, 653.8 649.3 Q 653.8 650.6, 653.1 651.6 Q 652.4 652.5, 651.0 653.3 M 648.2 646.7 Q 646.8 646.7, 645.9 647.4 Q 645.1 648.1, 645.1 649.3 Q 645.1 650.2, 645.7 650.9 Q 646.2 651.5, 647.0 651.8 Q 647.8 652.2, 649.3 652.7 Q 650.4 651.9, 650.9 651.1 Q 651.3 650.3, 651.3 649.3 Q 651.3 648.1, 650.5 647.4 Q 649.7 646.7, 648.2 646.7 M 648.3 661.1 Q 650.0 661.1, 651.0 660.2 Q 652.0 659.3, 652.0 657.8 Q 652.0 656.9, 651.5 656.3 Q 650.9 655.7, 650.1 655.3 Q 649.4 655.0, 648.0 654.5 L 646.8 654.1 Q 645.6 654.9, 645.0 655.8 Q 644.5 656.7, 644.5 657.8 Q 644.5 659.3, 645.5 660.2 Q 646.6 661.1, 648.3 661.1 " fill="#000000"/>
<path class="atom-28" d="M 611.6 583.5 Q 611.6 579.1, 613.6 576.8 Q 615.7 574.5, 619.6 574.5 Q 623.3 574.5, 625.2 577.1 L 623.6 578.4 Q 622.2 576.6, 619.6 576.6 Q 617.0 576.6, 615.5 578.4 Q 614.1 580.1, 614.1 583.5 Q 614.1 587.0, 615.6 588.8 Q 617.1 590.6, 619.9 590.6 Q 621.9 590.6, 624.1 589.5 L 624.8 591.3 Q 623.9 591.9, 622.5 592.3 Q 621.1 592.6, 619.6 592.6 Q 615.7 592.6, 613.6 590.3 Q 611.6 587.9, 611.6 583.5 " fill="#000000"/>
<path class="atom-28" d="M 627.6 578.1 Q 628.2 576.4, 629.8 575.5 Q 631.3 574.5, 633.5 574.5 Q 636.1 574.5, 637.6 576.0 Q 639.1 577.4, 639.1 580.0 Q 639.1 582.6, 637.2 585.1 Q 635.3 587.5, 631.3 590.4 L 639.4 590.4 L 639.4 592.4 L 627.5 592.4 L 627.5 590.7 Q 630.8 588.4, 632.8 586.6 Q 634.7 584.9, 635.7 583.3 Q 636.6 581.7, 636.6 580.1 Q 636.6 578.4, 635.8 577.5 Q 634.9 576.5, 633.5 576.5 Q 632.0 576.5, 631.1 577.1 Q 630.1 577.7, 629.5 578.9 L 627.6 578.1 " fill="#000000"/>
<path class="atom-28" d="M 648.1 574.5 Q 651.3 574.5, 652.9 576.7 Q 654.5 578.8, 654.5 583.0 Q 654.5 587.7, 652.5 590.2 Q 650.5 592.6, 646.8 592.6 Q 645.7 592.6, 644.7 592.4 Q 643.8 592.1, 642.9 591.6 L 643.9 589.9 Q 645.2 590.6, 646.7 590.6 Q 649.2 590.6, 650.5 589.0 Q 651.8 587.4, 651.9 584.1 Q 651.0 584.9, 649.9 585.3 Q 648.8 585.8, 647.5 585.8 Q 646.0 585.8, 644.8 585.1 Q 643.5 584.4, 642.9 583.2 Q 642.2 582.0, 642.2 580.4 Q 642.2 578.7, 642.9 577.4 Q 643.7 576.0, 645.1 575.3 Q 646.4 574.5, 648.1 574.5 M 644.7 580.4 Q 644.7 582.0, 645.6 582.9 Q 646.4 583.8, 648.0 583.8 Q 649.1 583.8, 650.1 583.3 Q 651.2 582.9, 651.9 582.1 Q 651.8 579.2, 650.9 577.9 Q 650.0 576.6, 648.1 576.6 Q 647.2 576.6, 646.4 577.1 Q 645.6 577.6, 645.1 578.4 Q 644.7 579.3, 644.7 580.4 " fill="#000000"/>
<path class="atom-29" d="M 762.3 372.9 Q 762.3 368.6, 764.4 366.3 Q 766.5 363.9, 770.5 363.9 Q 774.4 363.9, 776.5 366.3 Q 778.6 368.6, 778.6 372.9 Q 778.6 377.2, 776.5 379.6 Q 774.3 382.1, 770.5 382.1 Q 766.6 382.1, 764.4 379.6 Q 762.3 377.2, 762.3 372.9 M 770.5 380.1 Q 773.2 380.1, 774.6 378.3 Q 776.1 376.4, 776.1 372.9 Q 776.1 369.4, 774.6 367.7 Q 773.2 365.9, 770.5 365.9 Q 767.8 365.9, 766.3 367.6 Q 764.8 369.4, 764.8 372.9 Q 764.8 376.5, 766.3 378.3 Q 767.8 380.1, 770.5 380.1 " fill="#FF0000"/>
<path class="atom-29" d="M 789.7 372.5 Q 791.4 373.0, 792.2 374.1 Q 793.1 375.2, 793.1 376.9 Q 793.1 378.4, 792.3 379.6 Q 791.6 380.8, 790.2 381.4 Q 788.8 382.0, 787.0 382.0 Q 785.1 382.0, 783.7 381.4 Q 782.3 380.7, 781.2 379.4 L 782.6 377.9 Q 783.7 379.1, 784.6 379.6 Q 785.6 380.0, 787.0 380.0 Q 788.6 380.0, 789.6 379.2 Q 790.6 378.3, 790.6 376.9 Q 790.6 375.1, 789.6 374.3 Q 788.6 373.5, 786.4 373.5 L 785.1 373.5 L 785.1 371.7 L 786.2 371.7 Q 788.2 371.7, 789.2 370.8 Q 790.2 370.0, 790.2 368.4 Q 790.2 367.3, 789.4 366.6 Q 788.5 365.9, 787.1 365.9 Q 785.6 365.9, 784.7 366.4 Q 783.8 366.9, 783.1 368.3 L 781.3 367.3 Q 782.0 365.9, 783.5 364.9 Q 785.0 363.9, 787.1 363.9 Q 789.7 363.9, 791.2 365.1 Q 792.7 366.3, 792.7 368.4 Q 792.7 369.8, 791.9 370.9 Q 791.2 371.9, 789.7 372.5 " fill="#FF0000"/>
<path class="atom-29" d="M 802.4 382.0 Q 799.2 382.0, 797.5 379.6 Q 795.9 377.2, 795.9 372.9 Q 795.9 368.6, 797.5 366.3 Q 799.1 363.9, 802.4 363.9 Q 805.7 363.9, 807.3 366.3 Q 808.9 368.6, 808.9 372.9 Q 808.9 377.2, 807.3 379.6 Q 805.7 382.0, 802.4 382.0 M 802.4 380.0 Q 804.3 380.0, 805.4 378.2 Q 806.4 376.4, 806.4 372.9 Q 806.4 369.4, 805.4 367.7 Q 804.3 365.9, 802.4 365.9 Q 800.5 365.9, 799.5 367.7 Q 798.4 369.4, 798.4 372.9 Q 798.4 376.4, 799.5 378.2 Q 800.5 380.0, 802.4 380.0 " fill="#FF0000"/>
<text x="1000" y="50" font-size="8" font-family="Verdana" font-weight="normal" letter-spacing="0" text-anchor="start" fill="black">Highlighted Atoms:
Primary SOM: Red
Secondary SOM: Green
Tertiary SOM: Cyan
</text></svg>
