<?xml version='1.0' encoding='ASCII' standalone='yes'?>
<svg xmlns="http://www.w3.org/2000/svg" xmlns:rdkit="http://www.rdkit.org/xml" xmlns:xlink="http://www.w3.org/1999/xlink" style="background-color: white;" version="1.1" baseProfile="full" xml:space="preserve" width="1000px" height="1000px" viewBox="0 0 1000 1000">
<!-- END OF HEADER -->
<rect style="opacity:1.0;fill:#FFFFFF;stroke:none" width="1000.0" height="1000.0" x="0.0" y="0.0"> </rect>
<ellipse cx="314.9" cy="793.2" rx="30.5" ry="21.2" class="atom-27" style="fill:#B20000;fill-rule:evenodd;stroke:#B20000;stroke-width:1.0px;stroke-linecap:butt;stroke-linejoin:miter;stroke-opacity:1"/>
<ellipse cx="391.3" cy="899.1" rx="30.8" ry="21.2" class="atom-29" style="fill:#B20000;fill-rule:evenodd;stroke:#B20000;stroke-width:1.0px;stroke-linecap:butt;stroke-linejoin:miter;stroke-opacity:1"/>
<path class="bond-0 atom-1 atom-0" d="M 758.2,414.7 L 743.6,370.3" style="fill:none;fill-rule:evenodd;stroke:#000000;stroke-width:2.0px;stroke-linecap:butt;stroke-linejoin:miter;stroke-opacity:1"/>
<path class="bond-0 atom-1 atom-0" d="M 748.2,418.0 L 733.5,373.6" style="fill:none;fill-rule:evenodd;stroke:#000000;stroke-width:2.0px;stroke-linecap:butt;stroke-linejoin:miter;stroke-opacity:1"/>
<path class="bond-1 atom-2 atom-1" d="M 724.9,467.3 L 752.8,436.2" style="fill:none;fill-rule:evenodd;stroke:#000000;stroke-width:2.0px;stroke-linecap:butt;stroke-linejoin:miter;stroke-opacity:1"/>
<path class="bond-2 atom-3 atom-2" d="M 654.7,466.1 L 698.5,475.2" style="fill:none;fill-rule:evenodd;stroke:#000000;stroke-width:2.0px;stroke-linecap:butt;stroke-linejoin:miter;stroke-opacity:1"/>
<path class="bond-2 atom-3 atom-2" d="M 656.8,455.7 L 700.6,464.8" style="fill:none;fill-rule:evenodd;stroke:#000000;stroke-width:2.0px;stroke-linecap:butt;stroke-linejoin:miter;stroke-opacity:1"/>
<path class="bond-3 atom-4 atom-3" d="M 627.2,408.4 L 641.9,453.1" style="fill:none;fill-rule:evenodd;stroke:#000000;stroke-width:2.0px;stroke-linecap:butt;stroke-linejoin:miter;stroke-opacity:1"/>
<path class="bond-4 atom-5 atom-0" d="M 694.5,349.3 L 730.6,356.9" style="fill:none;fill-rule:evenodd;stroke:#000000;stroke-width:2.0px;stroke-linecap:butt;stroke-linejoin:miter;stroke-opacity:1"/>
<path class="bond-5 atom-5 atom-4" d="M 661.6,354.5 L 633.4,385.8" style="fill:none;fill-rule:evenodd;stroke:#000000;stroke-width:2.0px;stroke-linecap:butt;stroke-linejoin:miter;stroke-opacity:1"/>
<path class="bond-5 atom-5 atom-4" d="M 669.5,361.6 L 641.3,392.9" style="fill:none;fill-rule:evenodd;stroke:#000000;stroke-width:2.0px;stroke-linecap:butt;stroke-linejoin:miter;stroke-opacity:1"/>
<path class="bond-6 atom-6 atom-5" d="M 641.9,294.7 L 653.0,313.9" style="fill:none;fill-rule:evenodd;stroke:#FF0000;stroke-width:2.0px;stroke-linecap:butt;stroke-linejoin:miter;stroke-opacity:1"/>
<path class="bond-6 atom-6 atom-5" d="M 653.0,313.9 L 664.2,333.0" style="fill:none;fill-rule:evenodd;stroke:#000000;stroke-width:2.0px;stroke-linecap:butt;stroke-linejoin:miter;stroke-opacity:1"/>
<path class="bond-7 atom-7 atom-4" d="M 567.4,372.1 L 607.2,389.7" style="fill:none;fill-rule:evenodd;stroke:#000000;stroke-width:2.0px;stroke-linecap:butt;stroke-linejoin:miter;stroke-opacity:1"/>
<path class="bond-8 atom-8 atom-6" d="M 574.5,296.2 L 599.6,290.8" style="fill:none;fill-rule:evenodd;stroke:#000000;stroke-width:2.0px;stroke-linecap:butt;stroke-linejoin:miter;stroke-opacity:1"/>
<path class="bond-8 atom-8 atom-6" d="M 599.6,290.8 L 624.7,285.4" style="fill:none;fill-rule:evenodd;stroke:#FF0000;stroke-width:2.0px;stroke-linecap:butt;stroke-linejoin:miter;stroke-opacity:1"/>
<path class="bond-9 atom-8 atom-7" d="M 564.9,309.5 L 560.0,357.1" style="fill:none;fill-rule:evenodd;stroke:#000000;stroke-width:2.0px;stroke-linecap:butt;stroke-linejoin:miter;stroke-opacity:1"/>
<path class="bond-9 atom-8 atom-7" d="M 575.4,310.6 L 570.5,358.2" style="fill:none;fill-rule:evenodd;stroke:#000000;stroke-width:2.0px;stroke-linecap:butt;stroke-linejoin:miter;stroke-opacity:1"/>
<path class="bond-10 atom-9 atom-8" d="M 522.1,258.7 L 553.5,286.7" style="fill:none;fill-rule:evenodd;stroke:#000000;stroke-width:2.0px;stroke-linecap:butt;stroke-linejoin:miter;stroke-opacity:1"/>
<path class="bond-11 atom-10 atom-9" d="M 525.5,193.2 L 515.7,239.6" style="fill:none;fill-rule:evenodd;stroke:#000000;stroke-width:2.0px;stroke-linecap:butt;stroke-linejoin:miter;stroke-opacity:1"/>
<path class="bond-12 atom-11 atom-10" d="M 483.6,141.9 L 518.7,173.4" style="fill:none;fill-rule:evenodd;stroke:#000000;stroke-width:2.0px;stroke-linecap:butt;stroke-linejoin:miter;stroke-opacity:1"/>
<path class="bond-13 atom-12 atom-11" d="M 487.4,76.8 L 477.6,123.2" style="fill:none;fill-rule:evenodd;stroke:#000000;stroke-width:2.0px;stroke-linecap:butt;stroke-linejoin:miter;stroke-opacity:1"/>
<path class="bond-14 atom-13 atom-7" d="M 506.8,398.5 L 539.0,379.9" style="fill:none;fill-rule:evenodd;stroke:#000000;stroke-width:2.0px;stroke-linecap:butt;stroke-linejoin:miter;stroke-opacity:1"/>
<path class="bond-15 atom-14 atom-13" d="M 497.8,463.2 L 497.7,415.1" style="fill:none;fill-rule:evenodd;stroke:#000000;stroke-width:2.0px;stroke-linecap:butt;stroke-linejoin:miter;stroke-opacity:1"/>
<path class="bond-16 atom-15 atom-14" d="M 445.1,505.1 L 488.7,479.8" style="fill:none;fill-rule:evenodd;stroke:#000000;stroke-width:2.0px;stroke-linecap:butt;stroke-linejoin:miter;stroke-opacity:1"/>
<path class="bond-16 atom-15 atom-14" d="M 450.4,514.3 L 494.0,489.0" style="fill:none;fill-rule:evenodd;stroke:#000000;stroke-width:2.0px;stroke-linecap:butt;stroke-linejoin:miter;stroke-opacity:1"/>
<path class="bond-17 atom-16 atom-15" d="M 436.8,569.4 L 436.7,521.5" style="fill:none;fill-rule:evenodd;stroke:#000000;stroke-width:2.0px;stroke-linecap:butt;stroke-linejoin:miter;stroke-opacity:1"/>
<path class="bond-18 atom-17 atom-16" d="M 478.5,604.7 L 456.5,592.0" style="fill:none;fill-rule:evenodd;stroke:#000000;stroke-width:2.0px;stroke-linecap:butt;stroke-linejoin:miter;stroke-opacity:1"/>
<path class="bond-18 atom-17 atom-16" d="M 483.8,595.5 L 461.8,582.8" style="fill:none;fill-rule:evenodd;stroke:#000000;stroke-width:2.0px;stroke-linecap:butt;stroke-linejoin:miter;stroke-opacity:1"/>
<path class="bond-19 atom-18 atom-17" d="M 550.2,585.7 L 506.7,611.0" style="fill:none;fill-rule:evenodd;stroke:#000000;stroke-width:2.0px;stroke-linecap:butt;stroke-linejoin:miter;stroke-opacity:1"/>
<path class="bond-20 atom-19 atom-14" d="M 549.9,504.5 L 517.8,486.0" style="fill:none;fill-rule:evenodd;stroke:#000000;stroke-width:2.0px;stroke-linecap:butt;stroke-linejoin:miter;stroke-opacity:1"/>
<path class="bond-21 atom-19 atom-18" d="M 559.1,521.3 L 559.3,569.1" style="fill:none;fill-rule:evenodd;stroke:#000000;stroke-width:2.0px;stroke-linecap:butt;stroke-linejoin:miter;stroke-opacity:1"/>
<path class="bond-21 atom-19 atom-18" d="M 548.5,521.3 L 548.7,569.2" style="fill:none;fill-rule:evenodd;stroke:#000000;stroke-width:2.0px;stroke-linecap:butt;stroke-linejoin:miter;stroke-opacity:1"/>
<path class="bond-22 atom-20 atom-13" d="M 446.7,368.4 L 463.7,378.2" style="fill:none;fill-rule:evenodd;stroke:#FF0000;stroke-width:2.0px;stroke-linecap:butt;stroke-linejoin:miter;stroke-opacity:1"/>
<path class="bond-22 atom-20 atom-13" d="M 463.7,378.2 L 480.8,388.0" style="fill:none;fill-rule:evenodd;stroke:#000000;stroke-width:2.0px;stroke-linecap:butt;stroke-linejoin:miter;stroke-opacity:1"/>
<path class="bond-22 atom-20 atom-13" d="M 441.4,377.6 L 458.5,387.4" style="fill:none;fill-rule:evenodd;stroke:#FF0000;stroke-width:2.0px;stroke-linecap:butt;stroke-linejoin:miter;stroke-opacity:1"/>
<path class="bond-22 atom-20 atom-13" d="M 458.5,387.4 L 475.5,397.2" style="fill:none;fill-rule:evenodd;stroke:#000000;stroke-width:2.0px;stroke-linecap:butt;stroke-linejoin:miter;stroke-opacity:1"/>
<path class="bond-23 atom-21 atom-16" d="M 384.0,611.4 L 405.8,598.7" style="fill:none;fill-rule:evenodd;stroke:#A01EEF;stroke-width:2.0px;stroke-linecap:butt;stroke-linejoin:miter;stroke-opacity:1"/>
<path class="bond-23 atom-21 atom-16" d="M 405.8,598.7 L 427.7,586.0" style="fill:none;fill-rule:evenodd;stroke:#000000;stroke-width:2.0px;stroke-linecap:butt;stroke-linejoin:miter;stroke-opacity:1"/>
<path class="bond-24 atom-22 atom-18" d="M 617.0,613.6 L 598.2,602.8" style="fill:none;fill-rule:evenodd;stroke:#A01EEF;stroke-width:2.0px;stroke-linecap:butt;stroke-linejoin:miter;stroke-opacity:1"/>
<path class="bond-24 atom-22 atom-18" d="M 598.2,602.8 L 579.3,591.9" style="fill:none;fill-rule:evenodd;stroke:#000000;stroke-width:2.0px;stroke-linecap:butt;stroke-linejoin:miter;stroke-opacity:1"/>
<path class="bond-25 atom-23 atom-17" d="M 498.3,675.3 L 498.3,651.4" style="fill:none;fill-rule:evenodd;stroke:#FF0000;stroke-width:2.0px;stroke-linecap:butt;stroke-linejoin:miter;stroke-opacity:1"/>
<path class="bond-25 atom-23 atom-17" d="M 498.3,651.4 L 498.2,627.5" style="fill:none;fill-rule:evenodd;stroke:#000000;stroke-width:2.0px;stroke-linecap:butt;stroke-linejoin:miter;stroke-opacity:1"/>
<path class="bond-26 atom-24 atom-23" d="M 445.5,717.3 L 466.7,705.0" style="fill:none;fill-rule:evenodd;stroke:#000000;stroke-width:2.0px;stroke-linecap:butt;stroke-linejoin:miter;stroke-opacity:1"/>
<path class="bond-26 atom-24 atom-23" d="M 466.7,705.0 L 487.9,692.7" style="fill:none;fill-rule:evenodd;stroke:#FF0000;stroke-width:2.0px;stroke-linecap:butt;stroke-linejoin:miter;stroke-opacity:1"/>
<path class="bond-27 atom-25 atom-24" d="M 437.3,781.5 L 437.2,733.6" style="fill:none;fill-rule:evenodd;stroke:#000000;stroke-width:2.0px;stroke-linecap:butt;stroke-linejoin:miter;stroke-opacity:1"/>
<path class="bond-28 atom-26 atom-25" d="M 384.4,823.5 L 406.3,810.8" style="fill:none;fill-rule:evenodd;stroke:#0000FF;stroke-width:2.0px;stroke-linecap:butt;stroke-linejoin:miter;stroke-opacity:1"/>
<path class="bond-28 atom-26 atom-25" d="M 406.3,810.8 L 428.2,798.1" style="fill:none;fill-rule:evenodd;stroke:#000000;stroke-width:2.0px;stroke-linecap:butt;stroke-linejoin:miter;stroke-opacity:1"/>
<path class="bond-29 atom-27 atom-26" d="M 335.0,804.6 L 345.8,810.8" style="fill:none;fill-rule:evenodd;stroke:#000000;stroke-width:2.0px;stroke-linecap:butt;stroke-linejoin:miter;stroke-opacity:1"/>
<path class="bond-29 atom-27 atom-26" d="M 345.8,810.8 L 356.5,817.0" style="fill:none;fill-rule:evenodd;stroke:#0000FF;stroke-width:2.0px;stroke-linecap:butt;stroke-linejoin:miter;stroke-opacity:1"/>
<path class="bond-30 atom-28 atom-27" d="M 262.2,823.7 L 295.1,804.6" style="fill:none;fill-rule:evenodd;stroke:#000000;stroke-width:2.0px;stroke-linecap:butt;stroke-linejoin:miter;stroke-opacity:1"/>
<path class="bond-31 atom-29 atom-26" d="M 376.3,887.7 L 376.3,863.6" style="fill:none;fill-rule:evenodd;stroke:#000000;stroke-width:2.0px;stroke-linecap:butt;stroke-linejoin:miter;stroke-opacity:1"/>
<path class="bond-31 atom-29 atom-26" d="M 376.3,863.6 L 376.2,839.6" style="fill:none;fill-rule:evenodd;stroke:#0000FF;stroke-width:2.0px;stroke-linecap:butt;stroke-linejoin:miter;stroke-opacity:1"/>
<path class="bond-32 atom-30 atom-29" d="M 322.9,930.0 L 367.2,904.3" style="fill:none;fill-rule:evenodd;stroke:#000000;stroke-width:2.0px;stroke-linecap:butt;stroke-linejoin:miter;stroke-opacity:1"/>
<path class="atom-0" d="M 732.9 358.9 Q 732.9 354.5, 735.0 352.2 Q 737.1 349.8, 741.0 349.8 Q 744.6 349.8, 746.6 352.4 L 744.9 353.8 Q 743.5 351.9, 741.0 351.9 Q 738.3 351.9, 736.9 353.7 Q 735.5 355.5, 735.5 358.9 Q 735.5 362.4, 736.9 364.2 Q 738.4 366.0, 741.3 366.0 Q 743.2 366.0, 745.5 364.8 L 746.2 366.7 Q 745.3 367.3, 743.9 367.6 Q 742.5 368.0, 740.9 368.0 Q 737.1 368.0, 735.0 365.6 Q 732.9 363.3, 732.9 358.9 " fill="#000000"/>
<path class="atom-0" d="M 749.8 365.7 L 753.6 365.7 L 753.6 352.5 L 749.4 353.8 L 748.8 352.4 L 754.2 349.9 L 756.0 350.2 L 756.0 365.7 L 759.5 365.7 L 759.5 367.7 L 749.8 367.7 L 749.8 365.7 " fill="#000000"/>
<path class="atom-1" d="M 755.1 426.1 Q 755.1 421.7, 757.2 419.4 Q 759.3 417.0, 763.2 417.0 Q 766.8 417.0, 768.8 419.6 L 767.1 421.0 Q 765.7 419.1, 763.2 419.1 Q 760.5 419.1, 759.1 420.9 Q 757.7 422.7, 757.7 426.1 Q 757.7 429.6, 759.1 431.4 Q 760.6 433.2, 763.5 433.2 Q 765.4 433.2, 767.7 432.0 L 768.4 433.9 Q 767.5 434.5, 766.1 434.8 Q 764.7 435.2, 763.1 435.2 Q 759.3 435.2, 757.2 432.8 Q 755.1 430.5, 755.1 426.1 " fill="#000000"/>
<path class="atom-1" d="M 771.1 420.6 Q 771.8 418.9, 773.3 418.0 Q 774.9 417.0, 777.0 417.0 Q 779.7 417.0, 781.2 418.5 Q 782.7 419.9, 782.7 422.5 Q 782.7 425.1, 780.7 427.6 Q 778.8 430.0, 774.8 432.9 L 783.0 432.9 L 783.0 434.9 L 771.1 434.9 L 771.1 433.3 Q 774.4 430.9, 776.3 429.2 Q 778.3 427.4, 779.2 425.8 Q 780.2 424.3, 780.2 422.6 Q 780.2 420.9, 779.3 420.0 Q 778.5 419.0, 777.0 419.0 Q 775.6 419.0, 774.6 419.6 Q 773.7 420.2, 773.0 421.5 L 771.1 420.6 " fill="#000000"/>
<path class="atom-2" d="M 700.8 478.7 Q 700.8 474.3, 702.9 472.0 Q 704.9 469.6, 708.9 469.6 Q 712.5 469.6, 714.5 472.2 L 712.8 473.6 Q 711.4 471.7, 708.9 471.7 Q 706.2 471.7, 704.8 473.5 Q 703.4 475.3, 703.4 478.7 Q 703.4 482.2, 704.8 484.0 Q 706.3 485.8, 709.1 485.8 Q 711.1 485.8, 713.4 484.6 L 714.1 486.5 Q 713.1 487.1, 711.7 487.4 Q 710.3 487.8, 708.8 487.8 Q 704.9 487.8, 702.9 485.4 Q 700.8 483.1, 700.8 478.7 " fill="#000000"/>
<path class="atom-2" d="M 725.2 478.2 Q 727.0 478.7, 727.8 479.8 Q 728.6 480.9, 728.6 482.7 Q 728.6 484.2, 727.9 485.4 Q 727.1 486.5, 725.8 487.2 Q 724.4 487.8, 722.6 487.8 Q 720.7 487.8, 719.3 487.1 Q 717.9 486.5, 716.7 485.1 L 718.2 483.7 Q 719.3 484.9, 720.2 485.3 Q 721.1 485.8, 722.6 485.8 Q 724.2 485.8, 725.2 484.9 Q 726.1 484.1, 726.1 482.7 Q 726.1 480.9, 725.1 480.1 Q 724.1 479.2, 721.9 479.2 L 720.7 479.2 L 720.7 477.4 L 721.8 477.4 Q 723.7 477.4, 724.7 476.6 Q 725.8 475.7, 725.8 474.2 Q 725.8 473.0, 724.9 472.3 Q 724.1 471.6, 722.6 471.6 Q 721.1 471.6, 720.2 472.2 Q 719.3 472.7, 718.6 474.0 L 716.9 473.1 Q 717.5 471.6, 719.0 470.6 Q 720.5 469.6, 722.6 469.6 Q 725.2 469.6, 726.7 470.9 Q 728.3 472.1, 728.3 474.2 Q 728.3 475.6, 727.5 476.6 Q 726.7 477.6, 725.2 478.2 " fill="#000000"/>
<path class="atom-3" d="M 622.7 464.3 Q 622.7 459.9, 624.8 457.6 Q 626.8 455.3, 630.8 455.3 Q 634.4 455.3, 636.4 457.8 L 634.7 459.2 Q 633.3 457.3, 630.8 457.3 Q 628.1 457.3, 626.7 459.1 Q 625.3 460.9, 625.3 464.3 Q 625.3 467.8, 626.7 469.6 Q 628.2 471.4, 631.0 471.4 Q 633.0 471.4, 635.3 470.2 L 636.0 472.1 Q 635.0 472.7, 633.6 473.0 Q 632.2 473.4, 630.7 473.4 Q 626.8 473.4, 624.8 471.0 Q 622.7 468.7, 622.7 464.3 " fill="#000000"/>
<path class="atom-3" d="M 650.2 467.1 L 652.4 467.1 L 652.4 469.1 L 650.2 469.1 L 650.2 473.2 L 647.9 473.2 L 647.9 469.1 L 638.7 469.1 L 638.7 467.5 L 646.5 455.5 L 650.2 455.5 L 650.2 467.1 M 641.6 467.1 L 647.9 467.1 L 647.9 457.1 L 641.6 467.1 " fill="#000000"/>
<path class="atom-4" d="M 609.5 396.9 Q 609.5 392.5, 611.6 390.2 Q 613.7 387.9, 617.6 387.9 Q 621.2 387.9, 623.2 390.5 L 621.5 391.8 Q 620.1 390.0, 617.6 390.0 Q 614.9 390.0, 613.5 391.8 Q 612.1 393.5, 612.1 396.9 Q 612.1 400.4, 613.5 402.2 Q 615.0 404.0, 617.9 404.0 Q 619.8 404.0, 622.1 402.9 L 622.8 404.7 Q 621.9 405.3, 620.5 405.7 Q 619.1 406.0, 617.5 406.0 Q 613.7 406.0, 611.6 403.7 Q 609.5 401.3, 609.5 396.9 " fill="#000000"/>
<path class="atom-4" d="M 631.9 394.7 Q 633.4 394.7, 634.7 395.4 Q 636.0 396.1, 636.7 397.3 Q 637.4 398.5, 637.4 400.2 Q 637.4 402.0, 636.5 403.4 Q 635.7 404.7, 634.2 405.3 Q 632.8 406.0, 631.1 406.0 Q 629.5 406.0, 628.0 405.4 Q 626.5 404.8, 625.5 403.7 L 627.0 402.1 Q 627.8 403.0, 628.9 403.5 Q 630.0 404.0, 631.2 404.0 Q 632.8 404.0, 633.8 403.0 Q 634.9 402.0, 634.9 400.3 Q 634.9 398.4, 633.8 397.5 Q 632.8 396.6, 631.0 396.6 Q 629.5 396.6, 627.8 397.3 L 626.4 396.6 L 627.2 388.1 L 636.3 388.1 L 636.1 390.1 L 629.3 390.1 L 628.8 395.4 Q 630.3 394.7, 631.9 394.7 " fill="#000000"/>
<path class="atom-5" d="M 663.9 344.4 Q 663.9 340.0, 666.0 337.7 Q 668.0 335.3, 672.0 335.3 Q 675.6 335.3, 677.6 337.9 L 675.9 339.3 Q 674.5 337.4, 672.0 337.4 Q 669.3 337.4, 667.9 339.2 Q 666.5 341.0, 666.5 344.4 Q 666.5 347.9, 667.9 349.7 Q 669.4 351.5, 672.2 351.5 Q 674.2 351.5, 676.5 350.3 L 677.2 352.2 Q 676.2 352.8, 674.8 353.1 Q 673.4 353.5, 671.9 353.5 Q 668.0 353.5, 666.0 351.1 Q 663.9 348.8, 663.9 344.4 " fill="#000000"/>
<path class="atom-5" d="M 686.8 342.2 Q 688.3 342.2, 689.5 342.9 Q 690.8 343.5, 691.4 344.8 Q 692.1 346.0, 692.1 347.5 Q 692.1 349.3, 691.3 350.6 Q 690.6 351.9, 689.2 352.7 Q 687.9 353.4, 686.2 353.4 Q 683.0 353.4, 681.4 351.3 Q 679.8 349.2, 679.8 344.9 Q 679.8 340.2, 681.8 337.8 Q 683.8 335.3, 687.5 335.3 Q 688.6 335.3, 689.6 335.6 Q 690.5 335.8, 691.4 336.4 L 690.4 338.0 Q 689.1 337.3, 687.6 337.3 Q 685.1 337.3, 683.8 339.0 Q 682.5 340.6, 682.4 343.9 Q 683.3 343.1, 684.4 342.6 Q 685.5 342.2, 686.8 342.2 M 686.2 351.4 Q 687.1 351.4, 687.9 350.9 Q 688.7 350.4, 689.2 349.5 Q 689.6 348.6, 689.6 347.6 Q 689.6 346.0, 688.7 345.1 Q 687.9 344.2, 686.3 344.2 Q 685.2 344.2, 684.2 344.6 Q 683.1 345.1, 682.4 345.8 Q 682.5 348.7, 683.4 350.1 Q 684.3 351.4, 686.2 351.4 " fill="#000000"/>
<path class="atom-6" d="M 627.0 283.2 Q 627.0 278.9, 629.1 276.6 Q 631.2 274.2, 635.1 274.2 Q 639.0 274.2, 641.1 276.6 Q 643.2 278.9, 643.2 283.2 Q 643.2 287.5, 641.1 289.9 Q 639.0 292.4, 635.1 292.4 Q 631.2 292.4, 629.1 289.9 Q 627.0 287.5, 627.0 283.2 M 635.1 290.4 Q 637.8 290.4, 639.3 288.6 Q 640.7 286.7, 640.7 283.2 Q 640.7 279.7, 639.3 278.0 Q 637.8 276.2, 635.1 276.2 Q 632.4 276.2, 630.9 277.9 Q 629.5 279.7, 629.5 283.2 Q 629.5 286.8, 630.9 288.6 Q 632.4 290.4, 635.1 290.4 " fill="#FF0000"/>
<path class="atom-6" d="M 655.2 276.4 L 645.9 276.4 L 645.9 274.4 L 657.6 274.4 L 657.6 276.2 L 650.5 292.1 L 648.1 292.1 L 655.2 276.4 " fill="#FF0000"/>
<path class="atom-7" d="M 536.6 368.4 Q 536.6 364.0, 538.6 361.7 Q 540.7 359.4, 544.6 359.4 Q 548.3 359.4, 550.2 362.0 L 548.6 363.3 Q 547.2 361.5, 544.6 361.5 Q 542.0 361.5, 540.5 363.3 Q 539.1 365.0, 539.1 368.4 Q 539.1 371.9, 540.6 373.7 Q 542.1 375.5, 544.9 375.5 Q 546.9 375.5, 549.1 374.4 L 549.8 376.2 Q 548.9 376.8, 547.5 377.2 Q 546.1 377.5, 544.6 377.5 Q 540.7 377.5, 538.6 375.2 Q 536.6 372.8, 536.6 368.4 " fill="#000000"/>
<path class="atom-7" d="M 561.6 367.9 Q 563.2 368.6, 564.1 369.7 Q 565.0 370.7, 565.0 372.5 Q 565.0 374.0, 564.3 375.1 Q 563.5 376.3, 562.1 376.9 Q 560.7 377.6, 558.9 377.6 Q 555.9 377.6, 554.2 376.2 Q 552.5 374.8, 552.5 372.5 Q 552.5 371.0, 553.3 369.9 Q 554.0 368.8, 555.6 368.0 Q 554.4 367.4, 553.8 366.4 Q 553.2 365.4, 553.2 363.9 Q 553.2 361.9, 554.7 360.6 Q 556.2 359.4, 558.8 359.4 Q 561.4 359.4, 562.9 360.6 Q 564.4 361.9, 564.4 363.9 Q 564.4 365.2, 563.7 366.2 Q 563.0 367.2, 561.6 367.9 M 558.8 361.3 Q 557.3 361.3, 556.5 362.0 Q 555.7 362.7, 555.7 363.9 Q 555.7 364.9, 556.2 365.5 Q 556.8 366.1, 557.6 366.4 Q 558.4 366.8, 559.9 367.3 Q 561.0 366.6, 561.4 365.8 Q 561.9 365.0, 561.9 363.9 Q 561.9 362.7, 561.1 362.0 Q 560.3 361.3, 558.8 361.3 M 558.9 375.7 Q 560.5 375.7, 561.5 374.8 Q 562.5 373.9, 562.5 372.4 Q 562.5 371.5, 562.0 370.9 Q 561.5 370.3, 560.7 369.9 Q 559.9 369.6, 558.5 369.1 L 557.4 368.8 Q 556.1 369.5, 555.6 370.4 Q 555.0 371.3, 555.0 372.4 Q 555.0 373.9, 556.1 374.8 Q 557.1 375.7, 558.9 375.7 " fill="#000000"/>
<path class="atom-8" d="M 544.0 298.1 Q 544.0 293.7, 546.0 291.4 Q 548.1 289.1, 552.0 289.1 Q 555.7 289.1, 557.6 291.6 L 556.0 293.0 Q 554.6 291.1, 552.0 291.1 Q 549.4 291.1, 547.9 292.9 Q 546.5 294.7, 546.5 298.1 Q 546.5 301.6, 548.0 303.4 Q 549.5 305.2, 552.3 305.2 Q 554.3 305.2, 556.5 304.0 L 557.2 305.9 Q 556.3 306.5, 554.9 306.8 Q 553.5 307.2, 552.0 307.2 Q 548.1 307.2, 546.0 304.8 Q 544.0 302.5, 544.0 298.1 " fill="#000000"/>
<path class="atom-8" d="M 565.9 289.1 Q 569.0 289.1, 570.6 291.2 Q 572.2 293.3, 572.2 297.6 Q 572.2 302.3, 570.2 304.7 Q 568.3 307.2, 564.5 307.2 Q 563.4 307.2, 562.5 306.9 Q 561.5 306.7, 560.6 306.1 L 561.6 304.5 Q 562.9 305.2, 564.5 305.2 Q 567.0 305.2, 568.3 303.6 Q 569.5 301.9, 569.7 298.6 Q 568.8 299.4, 567.6 299.9 Q 566.5 300.3, 565.3 300.3 Q 563.7 300.3, 562.5 299.6 Q 561.3 299.0, 560.6 297.7 Q 559.9 296.5, 559.9 295.0 Q 559.9 293.2, 560.7 291.9 Q 561.5 290.6, 562.8 289.8 Q 564.2 289.1, 565.9 289.1 M 562.4 294.9 Q 562.4 296.5, 563.3 297.4 Q 564.2 298.3, 565.7 298.3 Q 566.8 298.3, 567.9 297.9 Q 568.9 297.4, 569.7 296.7 Q 569.6 293.8, 568.7 292.4 Q 567.7 291.1, 565.9 291.1 Q 564.9 291.1, 564.1 291.6 Q 563.3 292.1, 562.9 293.0 Q 562.4 293.9, 562.4 294.9 " fill="#000000"/>
<path class="atom-9" d="M 478.0 250.9 Q 478.0 246.5, 480.1 244.2 Q 482.1 241.9, 486.1 241.9 Q 489.7 241.9, 491.7 244.5 L 490.0 245.8 Q 488.6 243.9, 486.1 243.9 Q 483.4 243.9, 482.0 245.7 Q 480.6 247.5, 480.6 250.9 Q 480.6 254.4, 482.0 256.2 Q 483.5 258.0, 486.3 258.0 Q 488.3 258.0, 490.6 256.8 L 491.3 258.7 Q 490.3 259.3, 488.9 259.7 Q 487.5 260.0, 486.0 260.0 Q 482.1 260.0, 480.1 257.7 Q 478.0 255.3, 478.0 250.9 " fill="#000000"/>
<path class="atom-9" d="M 494.9 257.8 L 498.7 257.8 L 498.7 244.6 L 494.5 245.9 L 493.9 244.4 L 499.3 242.0 L 501.1 242.3 L 501.1 257.8 L 504.6 257.8 L 504.6 259.8 L 494.9 259.8 L 494.9 257.8 " fill="#000000"/>
<path class="atom-9" d="M 513.3 260.0 Q 510.1 260.0, 508.5 257.6 Q 506.9 255.2, 506.9 250.9 Q 506.9 246.6, 508.5 244.3 Q 510.1 241.9, 513.3 241.9 Q 516.6 241.9, 518.2 244.3 Q 519.8 246.6, 519.8 250.9 Q 519.8 255.2, 518.2 257.6 Q 516.6 260.0, 513.3 260.0 M 513.3 258.0 Q 515.3 258.0, 516.3 256.2 Q 517.3 254.4, 517.3 250.9 Q 517.3 247.4, 516.3 245.7 Q 515.3 243.9, 513.3 243.9 Q 511.4 243.9, 510.4 245.7 Q 509.4 247.4, 509.4 250.9 Q 509.4 254.4, 510.4 256.2 Q 511.4 258.0, 513.3 258.0 " fill="#000000"/>
<path class="atom-10" d="M 521.1 181.7 Q 521.1 177.3, 523.1 175.0 Q 525.2 172.7, 529.1 172.7 Q 532.8 172.7, 534.7 175.3 L 533.1 176.6 Q 531.7 174.8, 529.1 174.8 Q 526.5 174.8, 525.0 176.6 Q 523.6 178.3, 523.6 181.7 Q 523.6 185.2, 525.1 187.0 Q 526.6 188.8, 529.4 188.8 Q 531.4 188.8, 533.6 187.7 L 534.3 189.5 Q 533.4 190.1, 532.0 190.5 Q 530.6 190.8, 529.1 190.8 Q 525.2 190.8, 523.1 188.5 Q 521.1 186.1, 521.1 181.7 " fill="#000000"/>
<path class="atom-10" d="M 537.9 188.6 L 541.7 188.6 L 541.7 175.4 L 537.5 176.7 L 536.9 175.2 L 542.3 172.8 L 544.1 173.1 L 544.1 188.6 L 547.6 188.6 L 547.6 190.6 L 537.9 190.6 L 537.9 188.6 " fill="#000000"/>
<path class="atom-10" d="M 550.8 188.6 L 554.6 188.6 L 554.6 175.4 L 550.4 176.7 L 549.8 175.2 L 555.2 172.8 L 557.0 173.1 L 557.0 188.6 L 560.5 188.6 L 560.5 190.6 L 550.8 190.6 L 550.8 188.6 " fill="#000000"/>
<path class="atom-11" d="M 440.5 134.5 Q 440.5 130.1, 442.6 127.8 Q 444.6 125.5, 448.6 125.5 Q 452.2 125.5, 454.2 128.1 L 452.5 129.4 Q 451.1 127.6, 448.6 127.6 Q 445.9 127.6, 444.5 129.4 Q 443.1 131.1, 443.1 134.5 Q 443.1 138.0, 444.5 139.8 Q 446.0 141.6, 448.8 141.6 Q 450.8 141.6, 453.1 140.5 L 453.8 142.3 Q 452.8 142.9, 451.4 143.3 Q 450.0 143.6, 448.5 143.6 Q 444.6 143.6, 442.6 141.3 Q 440.5 138.9, 440.5 134.5 " fill="#000000"/>
<path class="atom-11" d="M 457.3 141.4 L 461.2 141.4 L 461.2 128.2 L 456.9 129.5 L 456.4 128.0 L 461.8 125.6 L 463.6 125.9 L 463.6 141.4 L 467.0 141.4 L 467.0 143.4 L 457.3 143.4 L 457.3 141.4 " fill="#000000"/>
<path class="atom-11" d="M 469.3 129.1 Q 470.0 127.4, 471.5 126.5 Q 473.1 125.5, 475.2 125.5 Q 477.9 125.5, 479.4 127.0 Q 480.9 128.4, 480.9 131.0 Q 480.9 133.6, 479.0 136.1 Q 477.0 138.5, 473.0 141.4 L 481.2 141.4 L 481.2 143.4 L 469.3 143.4 L 469.3 141.7 Q 472.6 139.4, 474.5 137.6 Q 476.5 135.9, 477.5 134.3 Q 478.4 132.7, 478.4 131.1 Q 478.4 129.4, 477.6 128.5 Q 476.7 127.5, 475.2 127.5 Q 473.8 127.5, 472.9 128.1 Q 471.9 128.7, 471.2 129.9 L 469.3 129.1 " fill="#000000"/>
<path class="atom-12" d="M 483.0 65.3 Q 483.0 60.9, 485.1 58.6 Q 487.1 56.3, 491.1 56.3 Q 494.7 56.3, 496.7 58.9 L 495.0 60.2 Q 493.6 58.4, 491.1 58.4 Q 488.4 58.4, 487.0 60.2 Q 485.6 61.9, 485.6 65.3 Q 485.6 68.8, 487.0 70.6 Q 488.5 72.4, 491.3 72.4 Q 493.3 72.4, 495.6 71.3 L 496.3 73.1 Q 495.3 73.7, 493.9 74.1 Q 492.5 74.4, 491.0 74.4 Q 487.1 74.4, 485.1 72.1 Q 483.0 69.7, 483.0 65.3 " fill="#000000"/>
<path class="atom-12" d="M 499.8 72.2 L 503.7 72.2 L 503.7 59.0 L 499.4 60.3 L 498.9 58.8 L 504.3 56.4 L 506.1 56.7 L 506.1 72.2 L 509.5 72.2 L 509.5 74.2 L 499.8 74.2 L 499.8 72.2 " fill="#000000"/>
<path class="atom-12" d="M 520.3 64.9 Q 522.0 65.4, 522.9 66.5 Q 523.7 67.6, 523.7 69.4 Q 523.7 70.9, 523.0 72.0 Q 522.2 73.2, 520.8 73.8 Q 519.5 74.5, 517.7 74.5 Q 515.8 74.5, 514.3 73.8 Q 512.9 73.1, 511.8 71.8 L 513.2 70.3 Q 514.3 71.5, 515.3 72.0 Q 516.2 72.5, 517.7 72.5 Q 519.3 72.5, 520.2 71.6 Q 521.2 70.7, 521.2 69.3 Q 521.2 67.5, 520.2 66.7 Q 519.2 65.9, 517.0 65.9 L 515.7 65.9 L 515.7 64.1 L 516.9 64.1 Q 518.8 64.1, 519.8 63.3 Q 520.8 62.4, 520.8 60.8 Q 520.8 59.7, 520.0 59.0 Q 519.1 58.3, 517.7 58.3 Q 516.2 58.3, 515.3 58.8 Q 514.4 59.4, 513.7 60.7 L 512.0 59.8 Q 512.6 58.3, 514.1 57.3 Q 515.6 56.3, 517.7 56.3 Q 520.3 56.3, 521.8 57.5 Q 523.3 58.8, 523.3 60.8 Q 523.3 62.3, 522.6 63.3 Q 521.8 64.3, 520.3 64.9 " fill="#000000"/>
<path class="atom-13" d="M 461.9 403.9 Q 461.9 399.5, 464.0 397.2 Q 466.1 394.9, 470.0 394.9 Q 473.6 394.9, 475.6 397.5 L 473.9 398.8 Q 472.5 396.9, 470.0 396.9 Q 467.3 396.9, 465.9 398.7 Q 464.5 400.5, 464.5 403.9 Q 464.5 407.4, 465.9 409.2 Q 467.4 411.0, 470.3 411.0 Q 472.2 411.0, 474.5 409.8 L 475.2 411.7 Q 474.3 412.3, 472.9 412.7 Q 471.5 413.0, 469.9 413.0 Q 466.1 413.0, 464.0 410.7 Q 461.9 408.3, 461.9 403.9 " fill="#000000"/>
<path class="atom-13" d="M 478.8 410.8 L 482.7 410.8 L 482.7 397.6 L 478.4 398.9 L 477.9 397.4 L 483.3 395.0 L 485.1 395.3 L 485.1 410.8 L 488.5 410.8 L 488.5 412.8 L 478.8 412.8 L 478.8 410.8 " fill="#000000"/>
<path class="atom-13" d="M 502.3 406.7 L 504.5 406.7 L 504.5 408.7 L 502.3 408.7 L 502.3 412.8 L 500.0 412.8 L 500.0 408.7 L 490.8 408.7 L 490.8 407.1 L 498.6 395.1 L 502.3 395.1 L 502.3 406.7 M 493.7 406.7 L 500.0 406.7 L 500.0 396.7 L 493.7 406.7 " fill="#000000"/>
<path class="atom-14" d="M 491.0 474.6 Q 491.0 470.2, 493.1 467.9 Q 495.2 465.6, 499.1 465.6 Q 502.7 465.6, 504.7 468.1 L 503.0 469.5 Q 501.6 467.6, 499.1 467.6 Q 496.4 467.6, 495.0 469.4 Q 493.6 471.2, 493.6 474.6 Q 493.6 478.1, 495.0 479.9 Q 496.5 481.7, 499.4 481.7 Q 501.3 481.7, 503.6 480.5 L 504.3 482.4 Q 503.4 483.0, 502.0 483.3 Q 500.6 483.7, 499.0 483.7 Q 495.2 483.7, 493.1 481.3 Q 491.0 479.0, 491.0 474.6 " fill="#000000"/>
<path class="atom-14" d="M 507.9 481.5 L 511.7 481.5 L 511.7 468.2 L 507.5 469.6 L 506.9 468.1 L 512.3 465.7 L 514.1 466.0 L 514.1 481.5 L 517.6 481.5 L 517.6 483.5 L 507.9 483.5 L 507.9 481.5 " fill="#000000"/>
<path class="atom-14" d="M 526.3 472.4 Q 527.8 472.4, 529.1 473.1 Q 530.4 473.7, 531.1 475.0 Q 531.8 476.2, 531.8 477.9 Q 531.8 479.7, 530.9 481.0 Q 530.0 482.3, 528.6 483.0 Q 527.1 483.7, 525.5 483.7 Q 523.9 483.7, 522.4 483.1 Q 520.9 482.5, 519.8 481.3 L 521.3 479.8 Q 522.2 480.7, 523.3 481.2 Q 524.4 481.6, 525.6 481.6 Q 527.1 481.6, 528.2 480.7 Q 529.3 479.7, 529.3 477.9 Q 529.3 476.0, 528.2 475.2 Q 527.1 474.3, 525.4 474.3 Q 523.9 474.3, 522.1 474.9 L 520.8 474.3 L 521.6 465.8 L 530.7 465.8 L 530.5 467.8 L 523.7 467.8 L 523.1 473.0 Q 524.7 472.4, 526.3 472.4 " fill="#000000"/>
<path class="atom-15" d="M 401.7 510.1 Q 401.7 505.7, 403.7 503.4 Q 405.8 501.1, 409.7 501.1 Q 413.4 501.1, 415.3 503.7 L 413.7 505.0 Q 412.3 503.1, 409.7 503.1 Q 407.1 503.1, 405.6 504.9 Q 404.2 506.7, 404.2 510.1 Q 404.2 513.6, 405.7 515.4 Q 407.2 517.2, 410.0 517.2 Q 412.0 517.2, 414.2 516.0 L 414.9 517.9 Q 414.0 518.5, 412.6 518.9 Q 411.2 519.2, 409.7 519.2 Q 405.8 519.2, 403.7 516.9 Q 401.7 514.5, 401.7 510.1 " fill="#000000"/>
<path class="atom-15" d="M 418.5 517.0 L 422.4 517.0 L 422.4 503.8 L 418.1 505.1 L 417.6 503.6 L 423.0 501.2 L 424.8 501.5 L 424.8 517.0 L 428.2 517.0 L 428.2 519.0 L 418.5 519.0 L 418.5 517.0 " fill="#000000"/>
<path class="atom-15" d="M 437.4 507.9 Q 439.0 507.9, 440.2 508.6 Q 441.4 509.3, 442.1 510.5 Q 442.8 511.7, 442.8 513.3 Q 442.8 515.0, 442.0 516.4 Q 441.3 517.7, 439.9 518.4 Q 438.6 519.2, 436.8 519.2 Q 433.7 519.2, 432.1 517.1 Q 430.5 514.9, 430.5 510.7 Q 430.5 506.0, 432.5 503.5 Q 434.4 501.1, 438.2 501.1 Q 439.3 501.1, 440.2 501.3 Q 441.2 501.6, 442.1 502.1 L 441.1 503.8 Q 439.8 503.1, 438.2 503.1 Q 435.7 503.1, 434.5 504.7 Q 433.2 506.3, 433.0 509.6 Q 433.9 508.8, 435.1 508.4 Q 436.2 507.9, 437.4 507.9 M 436.9 517.1 Q 437.8 517.1, 438.6 516.6 Q 439.4 516.1, 439.8 515.3 Q 440.3 514.4, 440.3 513.3 Q 440.3 511.7, 439.4 510.8 Q 438.5 509.9, 437.0 509.9 Q 435.9 509.9, 434.8 510.4 Q 433.8 510.8, 433.0 511.6 Q 433.1 514.5, 434.1 515.8 Q 435.0 517.1, 436.9 517.1 " fill="#000000"/>
<path class="atom-16" d="M 430.0 580.8 Q 430.0 576.4, 432.1 574.1 Q 434.2 571.7, 438.1 571.7 Q 441.7 571.7, 443.7 574.3 L 442.0 575.7 Q 440.6 573.8, 438.1 573.8 Q 435.4 573.8, 434.0 575.6 Q 432.6 577.4, 432.6 580.8 Q 432.6 584.3, 434.0 586.1 Q 435.5 587.9, 438.4 587.9 Q 440.3 587.9, 442.6 586.7 L 443.3 588.6 Q 442.4 589.2, 441.0 589.5 Q 439.6 589.9, 438.0 589.9 Q 434.2 589.9, 432.1 587.5 Q 430.0 585.2, 430.0 580.8 " fill="#000000"/>
<path class="atom-16" d="M 446.9 587.6 L 450.8 587.6 L 450.8 574.4 L 446.5 575.7 L 445.9 574.3 L 451.3 571.8 L 453.1 572.1 L 453.1 587.6 L 456.6 587.6 L 456.6 589.6 L 446.9 589.6 L 446.9 587.6 " fill="#000000"/>
<path class="atom-16" d="M 468.1 573.9 L 458.8 573.9 L 458.8 571.9 L 470.6 571.9 L 470.6 573.7 L 463.4 589.6 L 461.0 589.6 L 468.1 573.9 " fill="#000000"/>
<path class="atom-17" d="M 463.1 616.0 Q 463.1 611.6, 465.1 609.3 Q 467.2 607.0, 471.1 607.0 Q 474.8 607.0, 476.7 609.6 L 475.1 610.9 Q 473.6 609.1, 471.1 609.1 Q 468.4 609.1, 467.0 610.9 Q 465.6 612.6, 465.6 616.0 Q 465.6 619.5, 467.1 621.3 Q 468.5 623.1, 471.4 623.1 Q 473.3 623.1, 475.6 622.0 L 476.3 623.8 Q 475.4 624.4, 474.0 624.8 Q 472.6 625.1, 471.0 625.1 Q 467.2 625.1, 465.1 622.8 Q 463.1 620.4, 463.1 616.0 " fill="#000000"/>
<path class="atom-17" d="M 479.9 622.9 L 483.8 622.9 L 483.8 609.7 L 479.5 611.0 L 478.9 609.5 L 484.4 607.1 L 486.1 607.4 L 486.1 622.9 L 489.6 622.9 L 489.6 624.9 L 479.9 624.9 L 479.9 622.9 " fill="#000000"/>
<path class="atom-17" d="M 500.9 615.5 Q 502.5 616.2, 503.5 617.3 Q 504.4 618.3, 504.4 620.1 Q 504.4 621.6, 503.6 622.7 Q 502.8 623.9, 501.4 624.5 Q 500.1 625.2, 498.2 625.2 Q 495.3 625.2, 493.6 623.8 Q 491.9 622.4, 491.9 620.1 Q 491.9 618.6, 492.6 617.5 Q 493.4 616.4, 494.9 615.6 Q 493.8 615.0, 493.2 614.0 Q 492.5 613.0, 492.5 611.5 Q 492.5 609.5, 494.0 608.2 Q 495.6 607.0, 498.1 607.0 Q 500.7 607.0, 502.2 608.2 Q 503.7 609.5, 503.7 611.5 Q 503.7 612.8, 503.0 613.8 Q 502.3 614.8, 500.9 615.5 M 498.1 608.9 Q 496.7 608.9, 495.8 609.6 Q 495.0 610.3, 495.0 611.5 Q 495.0 612.5, 495.6 613.1 Q 496.1 613.7, 496.9 614.0 Q 497.7 614.4, 499.2 614.9 Q 500.3 614.2, 500.8 613.4 Q 501.2 612.6, 501.2 611.5 Q 501.2 610.3, 500.4 609.6 Q 499.6 608.9, 498.1 608.9 M 498.2 623.3 Q 499.9 623.3, 500.9 622.4 Q 501.9 621.5, 501.9 620.0 Q 501.9 619.1, 501.4 618.5 Q 500.8 617.9, 500.0 617.5 Q 499.3 617.2, 497.9 616.7 L 496.7 616.4 Q 495.5 617.1, 494.9 618.0 Q 494.4 618.9, 494.4 620.0 Q 494.4 621.5, 495.4 622.4 Q 496.5 623.3, 498.2 623.3 " fill="#000000"/>
<path class="atom-18" d="M 552.5 580.5 Q 552.5 576.1, 554.6 573.8 Q 556.6 571.5, 560.6 571.5 Q 564.2 571.5, 566.2 574.0 L 564.5 575.4 Q 563.1 573.5, 560.6 573.5 Q 557.9 573.5, 556.5 575.3 Q 555.1 577.1, 555.1 580.5 Q 555.1 584.0, 556.5 585.8 Q 558.0 587.6, 560.8 587.6 Q 562.8 587.6, 565.1 586.4 L 565.8 588.3 Q 564.8 588.9, 563.4 589.2 Q 562.0 589.6, 560.5 589.6 Q 556.6 589.6, 554.6 587.2 Q 552.5 584.9, 552.5 580.5 " fill="#000000"/>
<path class="atom-18" d="M 569.4 587.4 L 573.2 587.4 L 573.2 574.1 L 569.0 575.5 L 568.4 574.0 L 573.8 571.6 L 575.6 571.9 L 575.6 587.4 L 579.1 587.4 L 579.1 589.4 L 569.4 589.4 L 569.4 587.4 " fill="#000000"/>
<path class="atom-18" d="M 587.3 571.5 Q 590.4 571.5, 592.0 573.6 Q 593.6 575.7, 593.6 580.0 Q 593.6 584.7, 591.6 587.1 Q 589.7 589.6, 585.9 589.6 Q 584.8 589.6, 583.9 589.3 Q 582.9 589.1, 582.0 588.5 L 583.0 586.9 Q 584.3 587.6, 585.9 587.6 Q 588.4 587.6, 589.7 586.0 Q 590.9 584.3, 591.1 581.0 Q 590.2 581.8, 589.0 582.3 Q 587.9 582.7, 586.7 582.7 Q 585.1 582.7, 583.9 582.0 Q 582.7 581.4, 582.0 580.1 Q 581.3 578.9, 581.3 577.4 Q 581.3 575.6, 582.1 574.3 Q 582.9 573.0, 584.2 572.2 Q 585.6 571.5, 587.3 571.5 M 583.8 577.3 Q 583.8 578.9, 584.7 579.8 Q 585.6 580.7, 587.1 580.7 Q 588.2 580.7, 589.3 580.3 Q 590.3 579.8, 591.1 579.1 Q 591.0 576.2, 590.1 574.8 Q 589.1 573.5, 587.3 573.5 Q 586.3 573.5, 585.5 574.0 Q 584.7 574.5, 584.3 575.4 Q 583.8 576.3, 583.8 577.3 " fill="#000000"/>
<path class="atom-19" d="M 552.3 509.8 Q 552.3 505.4, 554.3 503.1 Q 556.4 500.8, 560.3 500.8 Q 564.0 500.8, 565.9 503.4 L 564.3 504.7 Q 562.8 502.9, 560.3 502.9 Q 557.6 502.9, 556.2 504.7 Q 554.8 506.4, 554.8 509.8 Q 554.8 513.3, 556.3 515.1 Q 557.7 516.9, 560.6 516.9 Q 562.5 516.9, 564.8 515.8 L 565.5 517.6 Q 564.6 518.2, 563.2 518.6 Q 561.8 518.9, 560.2 518.9 Q 556.4 518.9, 554.3 516.6 Q 552.3 514.2, 552.3 509.8 " fill="#000000"/>
<path class="atom-19" d="M 568.2 504.4 Q 568.9 502.7, 570.4 501.8 Q 572.0 500.8, 574.1 500.8 Q 576.8 500.8, 578.3 502.3 Q 579.8 503.7, 579.8 506.3 Q 579.8 508.9, 577.9 511.4 Q 575.9 513.8, 571.9 516.7 L 580.1 516.7 L 580.1 518.7 L 568.2 518.7 L 568.2 517.0 Q 571.5 514.7, 573.4 512.9 Q 575.4 511.2, 576.4 509.6 Q 577.3 508.0, 577.3 506.4 Q 577.3 504.7, 576.5 503.8 Q 575.6 502.8, 574.1 502.8 Q 572.7 502.8, 571.8 503.4 Q 570.8 504.0, 570.1 505.2 L 568.2 504.4 " fill="#000000"/>
<path class="atom-19" d="M 589.4 518.9 Q 586.1 518.9, 584.5 516.5 Q 582.9 514.1, 582.9 509.8 Q 582.9 505.6, 584.5 503.2 Q 586.1 500.8, 589.4 500.8 Q 592.6 500.8, 594.2 503.2 Q 595.8 505.6, 595.8 509.8 Q 595.8 514.1, 594.2 516.5 Q 592.6 518.9, 589.4 518.9 M 589.4 516.9 Q 591.3 516.9, 592.3 515.1 Q 593.3 513.3, 593.3 509.8 Q 593.3 506.4, 592.3 504.6 Q 591.3 502.8, 589.4 502.8 Q 587.5 502.8, 586.4 504.6 Q 585.4 506.4, 585.4 509.8 Q 585.4 513.3, 586.4 515.1 Q 587.5 516.9, 589.4 516.9 " fill="#000000"/>
<path class="atom-20" d="M 397.5 368.7 Q 397.5 364.4, 399.6 362.0 Q 401.7 359.7, 405.6 359.7 Q 409.5 359.7, 411.6 362.0 Q 413.7 364.4, 413.7 368.7 Q 413.7 373.0, 411.6 375.4 Q 409.5 377.8, 405.6 377.8 Q 401.7 377.8, 399.6 375.4 Q 397.5 373.0, 397.5 368.7 M 405.6 375.8 Q 408.3 375.8, 409.8 374.0 Q 411.2 372.2, 411.2 368.7 Q 411.2 365.2, 409.8 363.4 Q 408.3 361.7, 405.6 361.7 Q 402.9 361.7, 401.4 363.4 Q 400.0 365.2, 400.0 368.7 Q 400.0 372.2, 401.4 374.0 Q 402.9 375.8, 405.6 375.8 " fill="#FF0000"/>
<path class="atom-20" d="M 416.3 363.2 Q 417.0 361.5, 418.5 360.6 Q 420.1 359.7, 422.2 359.7 Q 424.9 359.7, 426.4 361.1 Q 427.9 362.6, 427.9 365.1 Q 427.9 367.8, 426.0 370.2 Q 424.0 372.7, 420.0 375.6 L 428.2 375.6 L 428.2 377.6 L 416.3 377.6 L 416.3 375.9 Q 419.6 373.5, 421.5 371.8 Q 423.5 370.0, 424.5 368.5 Q 425.4 366.9, 425.4 365.3 Q 425.4 363.6, 424.6 362.6 Q 423.7 361.7, 422.2 361.7 Q 420.8 361.7, 419.9 362.2 Q 418.9 362.8, 418.2 364.1 L 416.3 363.2 " fill="#FF0000"/>
<path class="atom-20" d="M 432.0 375.6 L 435.9 375.6 L 435.9 362.3 L 431.6 363.7 L 431.0 362.2 L 436.4 359.8 L 438.2 360.1 L 438.2 375.6 L 441.7 375.6 L 441.7 377.6 L 432.0 377.6 L 432.0 375.6 " fill="#FF0000"/>
<path class="atom-21" d="M 350.0 607.4 L 352.3 607.4 L 352.3 625.2 L 350.0 625.2 L 350.0 607.4 " fill="#A01EEF"/>
<path class="atom-21" d="M 355.5 610.8 Q 356.1 609.2, 357.7 608.2 Q 359.2 607.3, 361.4 607.3 Q 364.0 607.3, 365.5 608.7 Q 367.0 610.2, 367.0 612.8 Q 367.0 615.4, 365.1 617.8 Q 363.2 620.3, 359.2 623.2 L 367.3 623.2 L 367.3 625.2 L 355.4 625.2 L 355.4 623.5 Q 358.7 621.2, 360.7 619.4 Q 362.6 617.7, 363.6 616.1 Q 364.5 614.5, 364.5 612.9 Q 364.5 611.2, 363.7 610.2 Q 362.8 609.3, 361.4 609.3 Q 359.9 609.3, 359.0 609.9 Q 358.0 610.4, 357.4 611.7 L 355.5 610.8 " fill="#A01EEF"/>
<path class="atom-21" d="M 369.8 610.8 Q 370.4 609.2, 372.0 608.2 Q 373.5 607.3, 375.7 607.3 Q 378.3 607.3, 379.8 608.7 Q 381.3 610.2, 381.3 612.8 Q 381.3 615.4, 379.4 617.8 Q 377.5 620.3, 373.5 623.2 L 381.6 623.2 L 381.6 625.2 L 369.7 625.2 L 369.7 623.5 Q 373.0 621.2, 375.0 619.4 Q 376.9 617.7, 377.9 616.1 Q 378.8 614.5, 378.8 612.9 Q 378.8 611.2, 378.0 610.2 Q 377.1 609.3, 375.7 609.3 Q 374.2 609.3, 373.3 609.9 Q 372.3 610.4, 371.7 611.7 L 369.8 610.8 " fill="#A01EEF"/>
<path class="atom-22" d="M 619.4 606.8 L 621.7 606.8 L 621.7 624.6 L 619.4 624.6 L 619.4 606.8 " fill="#A01EEF"/>
<path class="atom-22" d="M 624.9 610.2 Q 625.5 608.6, 627.1 607.6 Q 628.6 606.7, 630.8 606.7 Q 633.4 606.7, 634.9 608.1 Q 636.4 609.6, 636.4 612.2 Q 636.4 614.8, 634.5 617.2 Q 632.6 619.7, 628.6 622.6 L 636.7 622.6 L 636.7 624.6 L 624.8 624.6 L 624.8 622.9 Q 628.1 620.6, 630.1 618.8 Q 632.0 617.1, 633.0 615.5 Q 633.9 613.9, 633.9 612.3 Q 633.9 610.6, 633.1 609.6 Q 632.2 608.7, 630.8 608.7 Q 629.3 608.7, 628.4 609.3 Q 627.4 609.8, 626.8 611.1 L 624.9 610.2 " fill="#A01EEF"/>
<path class="atom-22" d="M 647.6 615.3 Q 649.3 615.8, 650.2 616.9 Q 651.0 618.0, 651.0 619.7 Q 651.0 621.2, 650.3 622.4 Q 649.5 623.6, 648.1 624.2 Q 646.8 624.8, 645.0 624.8 Q 643.1 624.8, 641.6 624.2 Q 640.2 623.5, 639.1 622.2 L 640.5 620.7 Q 641.6 621.9, 642.6 622.4 Q 643.5 622.8, 645.0 622.8 Q 646.6 622.8, 647.5 622.0 Q 648.5 621.1, 648.5 619.7 Q 648.5 617.9, 647.5 617.1 Q 646.5 616.3, 644.3 616.3 L 643.0 616.3 L 643.0 614.5 L 644.2 614.5 Q 646.1 614.5, 647.1 613.6 Q 648.1 612.8, 648.1 611.2 Q 648.1 610.1, 647.3 609.4 Q 646.4 608.7, 645.0 608.7 Q 643.5 608.7, 642.6 609.2 Q 641.7 609.7, 641.0 611.1 L 639.3 610.1 Q 639.9 608.7, 641.4 607.7 Q 642.9 606.7, 645.0 606.7 Q 647.6 606.7, 649.1 607.9 Q 650.6 609.1, 650.6 611.2 Q 650.6 612.6, 649.9 613.7 Q 649.1 614.7, 647.6 615.3 " fill="#A01EEF"/>
<path class="atom-23" d="M 490.2 686.6 Q 490.2 682.4, 492.3 680.0 Q 494.4 677.6, 498.4 677.6 Q 502.3 677.6, 504.4 680.0 Q 506.5 682.4, 506.5 686.6 Q 506.5 690.9, 504.4 693.4 Q 502.2 695.8, 498.4 695.8 Q 494.5 695.8, 492.3 693.4 Q 490.2 691.0, 490.2 686.6 M 498.4 693.8 Q 501.1 693.8, 502.5 692.0 Q 504.0 690.2, 504.0 686.6 Q 504.0 683.2, 502.5 681.4 Q 501.1 679.6, 498.4 679.6 Q 495.7 679.6, 494.2 681.4 Q 492.7 683.1, 492.7 686.6 Q 492.7 690.2, 494.2 692.0 Q 495.7 693.8, 498.4 693.8 " fill="#FF0000"/>
<path class="atom-23" d="M 509.2 681.2 Q 509.8 679.5, 511.4 678.6 Q 512.9 677.6, 515.1 677.6 Q 517.8 677.6, 519.3 679.1 Q 520.8 680.5, 520.8 683.1 Q 520.8 685.7, 518.8 688.2 Q 516.9 690.6, 512.9 693.5 L 521.1 693.5 L 521.1 695.5 L 509.1 695.5 L 509.1 693.9 Q 512.4 691.5, 514.4 689.8 Q 516.4 688.0, 517.3 686.4 Q 518.3 684.9, 518.3 683.2 Q 518.3 681.5, 517.4 680.6 Q 516.6 679.6, 515.1 679.6 Q 513.7 679.6, 512.7 680.2 Q 511.8 680.8, 511.1 682.1 L 509.2 681.2 " fill="#FF0000"/>
<path class="atom-23" d="M 535.5 689.5 L 537.6 689.5 L 537.6 691.5 L 535.5 691.5 L 535.5 695.5 L 533.1 695.5 L 533.1 691.5 L 524.0 691.5 L 524.0 689.9 L 531.7 677.8 L 535.5 677.8 L 535.5 689.5 M 526.9 689.5 L 533.1 689.5 L 533.1 679.4 L 526.9 689.5 " fill="#FF0000"/>
<path class="atom-24" d="M 400.6 722.2 Q 400.6 717.8, 402.7 715.5 Q 404.8 713.2, 408.7 713.2 Q 412.3 713.2, 414.3 715.7 L 412.6 717.1 Q 411.2 715.2, 408.7 715.2 Q 406.0 715.2, 404.6 717.0 Q 403.2 718.8, 403.2 722.2 Q 403.2 725.7, 404.6 727.5 Q 406.1 729.3, 409.0 729.3 Q 410.9 729.3, 413.2 728.1 L 413.9 730.0 Q 413.0 730.6, 411.6 730.9 Q 410.2 731.3, 408.6 731.3 Q 404.8 731.3, 402.7 728.9 Q 400.6 726.6, 400.6 722.2 " fill="#000000"/>
<path class="atom-24" d="M 416.6 716.7 Q 417.2 715.0, 418.8 714.1 Q 420.3 713.2, 422.5 713.2 Q 425.2 713.2, 426.7 714.6 Q 428.2 716.1, 428.2 718.6 Q 428.2 721.3, 426.2 723.7 Q 424.3 726.2, 420.3 729.1 L 428.5 729.1 L 428.5 731.1 L 416.5 731.1 L 416.5 729.4 Q 419.8 727.0, 421.8 725.3 Q 423.8 723.5, 424.7 722.0 Q 425.7 720.4, 425.7 718.8 Q 425.7 717.1, 424.8 716.1 Q 424.0 715.2, 422.5 715.2 Q 421.1 715.2, 420.1 715.7 Q 419.2 716.3, 418.5 717.6 L 416.6 716.7 " fill="#000000"/>
<path class="atom-24" d="M 437.6 720.0 Q 439.2 720.0, 440.5 720.7 Q 441.7 721.3, 442.5 722.6 Q 443.2 723.8, 443.2 725.5 Q 443.2 727.3, 442.3 728.6 Q 441.4 729.9, 440.0 730.6 Q 438.5 731.3, 436.9 731.3 Q 435.2 731.3, 433.7 730.7 Q 432.2 730.1, 431.2 728.9 L 432.7 727.4 Q 433.5 728.3, 434.7 728.8 Q 435.8 729.2, 436.9 729.2 Q 438.5 729.2, 439.6 728.3 Q 440.7 727.3, 440.7 725.5 Q 440.7 723.6, 439.6 722.8 Q 438.5 721.9, 436.8 721.9 Q 435.2 721.9, 433.5 722.5 L 432.1 721.9 L 433.0 713.4 L 442.1 713.4 L 441.8 715.4 L 435.0 715.4 L 434.5 720.6 Q 436.1 720.0, 437.6 720.0 " fill="#000000"/>
<path class="atom-25" d="M 430.5 792.9 Q 430.5 788.5, 432.6 786.2 Q 434.7 783.9, 438.6 783.9 Q 442.2 783.9, 444.2 786.4 L 442.5 787.8 Q 441.1 785.9, 438.6 785.9 Q 435.9 785.9, 434.5 787.7 Q 433.1 789.5, 433.1 792.9 Q 433.1 796.4, 434.5 798.2 Q 436.0 800.0, 438.9 800.0 Q 440.8 800.0, 443.1 798.8 L 443.8 800.7 Q 442.9 801.3, 441.5 801.6 Q 440.1 802.0, 438.5 802.0 Q 434.7 802.0, 432.6 799.6 Q 430.5 797.3, 430.5 792.9 " fill="#000000"/>
<path class="atom-25" d="M 446.5 787.4 Q 447.1 785.7, 448.7 784.8 Q 450.2 783.9, 452.4 783.9 Q 455.1 783.9, 456.6 785.3 Q 458.1 786.8, 458.1 789.3 Q 458.1 792.0, 456.1 794.4 Q 454.2 796.9, 450.2 799.8 L 458.4 799.8 L 458.4 801.8 L 446.4 801.8 L 446.4 800.1 Q 449.7 797.7, 451.7 796.0 Q 453.7 794.2, 454.6 792.7 Q 455.6 791.1, 455.6 789.5 Q 455.6 787.8, 454.7 786.8 Q 453.9 785.9, 452.4 785.9 Q 451.0 785.9, 450.0 786.4 Q 449.1 787.0, 448.4 788.3 L 446.5 787.4 " fill="#000000"/>
<path class="atom-25" d="M 468.1 790.7 Q 469.6 790.7, 470.8 791.4 Q 472.1 792.1, 472.7 793.3 Q 473.4 794.5, 473.4 796.1 Q 473.4 797.8, 472.6 799.1 Q 471.9 800.5, 470.5 801.2 Q 469.2 802.0, 467.5 802.0 Q 464.3 802.0, 462.7 799.8 Q 461.1 797.7, 461.1 793.4 Q 461.1 788.7, 463.1 786.3 Q 465.1 783.9, 468.8 783.9 Q 469.9 783.9, 470.9 784.1 Q 471.8 784.4, 472.7 784.9 L 471.7 786.6 Q 470.4 785.9, 468.9 785.9 Q 466.4 785.9, 465.1 787.5 Q 463.8 789.1, 463.7 792.4 Q 464.6 791.6, 465.7 791.2 Q 466.8 790.7, 468.1 790.7 M 467.5 799.9 Q 468.4 799.9, 469.2 799.4 Q 470.0 798.9, 470.5 798.0 Q 470.9 797.2, 470.9 796.1 Q 470.9 794.5, 470.0 793.6 Q 469.2 792.7, 467.6 792.7 Q 466.5 792.7, 465.5 793.2 Q 464.4 793.6, 463.7 794.3 Q 463.8 797.3, 464.7 798.6 Q 465.6 799.9, 467.5 799.9 " fill="#000000"/>
<path class="atom-26" d="M 341.7 819.5 L 347.5 828.9 Q 348.1 829.8, 349.0 831.5 Q 349.9 833.2, 350.0 833.3 L 350.0 819.5 L 352.3 819.5 L 352.3 837.2 L 349.9 837.2 L 343.7 827.0 Q 343.0 825.8, 342.2 824.4 Q 341.4 823.0, 341.2 822.6 L 341.2 837.2 L 338.9 837.2 L 338.9 819.5 L 341.7 819.5 " fill="#0000FF"/>
<path class="atom-26" d="M 355.7 822.9 Q 356.4 821.2, 357.9 820.3 Q 359.5 819.3, 361.6 819.3 Q 364.3 819.3, 365.8 820.8 Q 367.3 822.2, 367.3 824.8 Q 367.3 827.4, 365.3 829.9 Q 363.4 832.3, 359.4 835.2 L 367.6 835.2 L 367.6 837.2 L 355.7 837.2 L 355.7 835.6 Q 359.0 833.2, 360.9 831.5 Q 362.9 829.7, 363.8 828.1 Q 364.8 826.6, 364.8 824.9 Q 364.8 823.2, 363.9 822.3 Q 363.1 821.3, 361.6 821.3 Q 360.2 821.3, 359.2 821.9 Q 358.3 822.5, 357.6 823.8 L 355.7 822.9 " fill="#0000FF"/>
<path class="atom-26" d="M 379.6 821.5 L 370.3 821.5 L 370.3 819.5 L 382.1 819.5 L 382.1 821.3 L 374.9 837.2 L 372.5 837.2 L 379.6 821.5 " fill="#0000FF"/>
<path class="atom-27" d="M 293.3 793.2 Q 293.3 788.8, 295.4 786.5 Q 297.4 784.1, 301.4 784.1 Q 305.0 784.1, 307.0 786.7 L 305.3 788.1 Q 303.9 786.2, 301.4 786.2 Q 298.7 786.2, 297.3 788.0 Q 295.9 789.8, 295.9 793.2 Q 295.9 796.7, 297.3 798.5 Q 298.8 800.3, 301.6 800.3 Q 303.6 800.3, 305.9 799.1 L 306.6 801.0 Q 305.6 801.6, 304.2 801.9 Q 302.8 802.3, 301.3 802.3 Q 297.4 802.3, 295.4 799.9 Q 293.3 797.6, 293.3 793.2 " fill="#000000"/>
<path class="atom-27" d="M 309.3 787.7 Q 309.9 786.0, 311.5 785.1 Q 313.0 784.1, 315.2 784.1 Q 317.9 784.1, 319.4 785.6 Q 320.9 787.0, 320.9 789.6 Q 320.9 792.2, 318.9 794.7 Q 317.0 797.1, 313.0 800.0 L 321.2 800.0 L 321.2 802.0 L 309.2 802.0 L 309.2 800.4 Q 312.5 798.0, 314.5 796.3 Q 316.5 794.5, 317.4 792.9 Q 318.4 791.4, 318.4 789.7 Q 318.4 788.0, 317.5 787.1 Q 316.7 786.1, 315.2 786.1 Q 313.8 786.1, 312.8 786.7 Q 311.9 787.3, 311.2 788.6 L 309.3 787.7 " fill="#000000"/>
<path class="atom-27" d="M 333.0 792.7 Q 334.6 793.4, 335.5 794.4 Q 336.4 795.4, 336.4 797.2 Q 336.4 798.7, 335.7 799.9 Q 334.9 801.0, 333.5 801.7 Q 332.1 802.3, 330.3 802.3 Q 327.3 802.3, 325.6 800.9 Q 323.9 799.6, 323.9 797.2 Q 323.9 795.7, 324.7 794.7 Q 325.4 793.6, 327.0 792.7 Q 325.8 792.1, 325.2 791.1 Q 324.6 790.2, 324.6 788.7 Q 324.6 786.6, 326.1 785.4 Q 327.6 784.1, 330.2 784.1 Q 332.8 784.1, 334.3 785.4 Q 335.8 786.6, 335.8 788.7 Q 335.8 790.0, 335.1 790.9 Q 334.4 791.9, 333.0 792.7 M 330.2 786.0 Q 328.7 786.0, 327.9 786.7 Q 327.1 787.4, 327.1 788.7 Q 327.1 789.6, 327.6 790.2 Q 328.2 790.8, 329.0 791.2 Q 329.8 791.5, 331.3 792.0 Q 332.4 791.3, 332.8 790.5 Q 333.3 789.7, 333.3 788.7 Q 333.3 787.4, 332.5 786.7 Q 331.7 786.0, 330.2 786.0 M 330.3 800.4 Q 331.9 800.4, 332.9 799.5 Q 333.9 798.6, 333.9 797.2 Q 333.9 796.2, 333.4 795.6 Q 332.9 795.0, 332.1 794.7 Q 331.3 794.3, 329.9 793.9 L 328.8 793.5 Q 327.5 794.2, 327.0 795.1 Q 326.4 796.0, 326.4 797.2 Q 326.4 798.6, 327.5 799.5 Q 328.5 800.4, 330.3 800.4 " fill="#000000"/>
<path class="atom-28" d="M 217.0 828.6 Q 217.0 824.2, 219.1 821.9 Q 221.1 819.6, 225.1 819.6 Q 228.7 819.6, 230.7 822.2 L 229.0 823.5 Q 227.6 821.7, 225.1 821.7 Q 222.4 821.7, 221.0 823.5 Q 219.6 825.2, 219.6 828.6 Q 219.6 832.1, 221.0 833.9 Q 222.5 835.7, 225.3 835.7 Q 227.3 835.7, 229.6 834.6 L 230.3 836.4 Q 229.3 837.0, 227.9 837.4 Q 226.5 837.7, 225.0 837.7 Q 221.1 837.7, 219.1 835.4 Q 217.0 833.0, 217.0 828.6 " fill="#000000"/>
<path class="atom-28" d="M 233.0 823.2 Q 233.6 821.5, 235.2 820.6 Q 236.7 819.6, 238.9 819.6 Q 241.5 819.6, 243.0 821.1 Q 244.5 822.5, 244.5 825.1 Q 244.5 827.7, 242.6 830.2 Q 240.7 832.6, 236.7 835.5 L 244.8 835.5 L 244.8 837.5 L 232.9 837.5 L 232.9 835.8 Q 236.2 833.5, 238.2 831.7 Q 240.1 830.0, 241.1 828.4 Q 242.0 826.8, 242.0 825.2 Q 242.0 823.5, 241.2 822.6 Q 240.3 821.6, 238.9 821.6 Q 237.4 821.6, 236.5 822.2 Q 235.5 822.8, 234.9 824.0 L 233.0 823.2 " fill="#000000"/>
<path class="atom-28" d="M 253.6 819.6 Q 256.7 819.6, 258.3 821.8 Q 259.9 823.9, 259.9 828.1 Q 259.9 832.8, 257.9 835.3 Q 256.0 837.7, 252.2 837.7 Q 251.1 837.7, 250.1 837.5 Q 249.2 837.2, 248.3 836.7 L 249.3 835.0 Q 250.6 835.7, 252.2 835.7 Q 254.7 835.7, 255.9 834.1 Q 257.2 832.5, 257.4 829.2 Q 256.5 830.0, 255.3 830.4 Q 254.2 830.9, 253.0 830.9 Q 251.4 830.9, 250.2 830.2 Q 249.0 829.5, 248.3 828.3 Q 247.6 827.1, 247.6 825.5 Q 247.6 823.8, 248.4 822.5 Q 249.1 821.1, 250.5 820.4 Q 251.8 819.6, 253.6 819.6 M 250.1 825.5 Q 250.1 827.1, 251.0 828.0 Q 251.9 828.9, 253.4 828.9 Q 254.5 828.9, 255.5 828.4 Q 256.6 828.0, 257.4 827.2 Q 257.3 824.3, 256.3 823.0 Q 255.4 821.7, 253.5 821.7 Q 252.6 821.7, 251.8 822.2 Q 251.0 822.7, 250.6 823.5 Q 250.1 824.4, 250.1 825.5 " fill="#000000"/>
<path class="atom-29" d="M 369.5 899.1 Q 369.5 894.7, 371.6 892.4 Q 373.6 890.0, 377.6 890.0 Q 381.2 890.0, 383.2 892.6 L 381.5 894.0 Q 380.1 892.1, 377.6 892.1 Q 374.9 892.1, 373.5 893.9 Q 372.1 895.7, 372.1 899.1 Q 372.1 902.6, 373.5 904.4 Q 375.0 906.2, 377.8 906.2 Q 379.8 906.2, 382.1 905.0 L 382.8 906.9 Q 381.8 907.5, 380.4 907.8 Q 379.0 908.2, 377.5 908.2 Q 373.6 908.2, 371.6 905.8 Q 369.5 903.5, 369.5 899.1 " fill="#000000"/>
<path class="atom-29" d="M 394.0 898.6 Q 395.7 899.1, 396.5 900.2 Q 397.4 901.3, 397.4 903.1 Q 397.4 904.6, 396.6 905.8 Q 395.9 906.9, 394.5 907.6 Q 393.1 908.2, 391.3 908.2 Q 389.4 908.2, 388.0 907.5 Q 386.6 906.9, 385.5 905.5 L 386.9 904.1 Q 388.0 905.3, 388.9 905.7 Q 389.8 906.2, 391.3 906.2 Q 392.9 906.2, 393.9 905.3 Q 394.9 904.5, 394.9 903.1 Q 394.9 901.3, 393.8 900.5 Q 392.8 899.6, 390.7 899.6 L 389.4 899.6 L 389.4 897.8 L 390.5 897.8 Q 392.4 897.8, 393.5 897.0 Q 394.5 896.1, 394.5 894.6 Q 394.5 893.4, 393.6 892.7 Q 392.8 892.0, 391.3 892.0 Q 389.9 892.0, 388.9 892.6 Q 388.0 893.1, 387.3 894.4 L 385.6 893.5 Q 386.2 892.0, 387.7 891.0 Q 389.2 890.0, 391.3 890.0 Q 393.9 890.0, 395.5 891.3 Q 397.0 892.5, 397.0 894.6 Q 397.0 896.0, 396.2 897.0 Q 395.4 898.0, 394.0 898.6 " fill="#000000"/>
<path class="atom-29" d="M 406.6 908.1 Q 403.3 908.1, 401.7 905.7 Q 400.1 903.3, 400.1 899.1 Q 400.1 894.8, 401.7 892.4 Q 403.3 890.0, 406.6 890.0 Q 409.9 890.0, 411.5 892.4 Q 413.1 894.8, 413.1 899.1 Q 413.1 903.3, 411.4 905.7 Q 409.8 908.1, 406.6 908.1 M 406.6 906.1 Q 408.5 906.1, 409.5 904.4 Q 410.6 902.6, 410.6 899.1 Q 410.6 895.6, 409.5 893.8 Q 408.5 892.0, 406.6 892.0 Q 404.7 892.0, 403.6 893.8 Q 402.6 895.6, 402.6 899.1 Q 402.6 902.6, 403.6 904.4 Q 404.7 906.1, 406.6 906.1 " fill="#000000"/>
<path class="atom-30" d="M 279.4 934.6 Q 279.4 930.2, 281.5 927.9 Q 283.5 925.5, 287.5 925.5 Q 291.1 925.5, 293.1 928.1 L 291.4 929.5 Q 290.0 927.6, 287.5 927.6 Q 284.8 927.6, 283.4 929.4 Q 282.0 931.2, 282.0 934.6 Q 282.0 938.1, 283.4 939.9 Q 284.9 941.7, 287.7 941.7 Q 289.7 941.7, 292.0 940.5 L 292.7 942.4 Q 291.7 943.0, 290.3 943.3 Q 288.9 943.7, 287.4 943.7 Q 283.5 943.7, 281.5 941.3 Q 279.4 939.0, 279.4 934.6 " fill="#000000"/>
<path class="atom-30" d="M 303.8 934.1 Q 305.5 934.6, 306.3 935.7 Q 307.2 936.8, 307.2 938.6 Q 307.2 940.1, 306.4 941.3 Q 305.7 942.4, 304.3 943.1 Q 302.9 943.7, 301.1 943.7 Q 299.2 943.7, 297.8 943.0 Q 296.4 942.4, 295.3 941.0 L 296.7 939.6 Q 297.8 940.8, 298.7 941.2 Q 299.6 941.7, 301.1 941.7 Q 302.7 941.7, 303.7 940.8 Q 304.7 940.0, 304.7 938.6 Q 304.7 936.8, 303.6 936.0 Q 302.6 935.1, 300.5 935.1 L 299.2 935.1 L 299.2 933.3 L 300.3 933.3 Q 302.2 933.3, 303.3 932.5 Q 304.3 931.6, 304.3 930.1 Q 304.3 928.9, 303.4 928.2 Q 302.6 927.5, 301.1 927.5 Q 299.7 927.5, 298.7 928.1 Q 297.8 928.6, 297.1 929.9 L 295.4 929.0 Q 296.0 927.5, 297.5 926.5 Q 299.0 925.5, 301.1 925.5 Q 303.7 925.5, 305.3 926.8 Q 306.8 928.0, 306.8 930.1 Q 306.8 931.5, 306.0 932.5 Q 305.2 933.5, 303.8 934.1 " fill="#000000"/>
<path class="atom-30" d="M 310.8 941.4 L 314.7 941.4 L 314.7 928.2 L 310.4 929.5 L 309.9 928.1 L 315.3 925.6 L 317.1 925.9 L 317.1 941.4 L 320.5 941.4 L 320.5 943.4 L 310.8 943.4 L 310.8 941.4 " fill="#000000"/>
<text x="1000" y="50" font-size="8" font-family="Verdana" font-weight="normal" letter-spacing="0" text-anchor="start" fill="black">Highlighted Atoms:
Primary SOM: Red
Secondary SOM: Green
Tertiary SOM: Cyan
</text></svg>
