<?xml version='1.0' encoding='ASCII' standalone='yes'?>
<svg xmlns="http://www.w3.org/2000/svg" xmlns:rdkit="http://www.rdkit.org/xml" xmlns:xlink="http://www.w3.org/1999/xlink" style="background-color: white;" version="1.1" baseProfile="full" xml:space="preserve" width="1000px" height="1000px" viewBox="0 0 1000 1000">
<!-- END OF HEADER -->
<rect style="opacity:1.0;fill:#FFFFFF;stroke:none" width="1000.0" height="1000.0" x="0.0" y="0.0"> </rect>
<ellipse cx="134.3" cy="159.1" rx="29.9" ry="28.6" class="atom-26" style="fill:#B20000;fill-rule:evenodd;stroke:#B20000;stroke-width:1.0px;stroke-linecap:butt;stroke-linejoin:miter;stroke-opacity:1"/>
<path class="bond-0 atom-1 atom-0" d="M 608.4,514.1 L 608.3,443.2" style="fill:none;fill-rule:evenodd;stroke:#000000;stroke-width:2.0px;stroke-linecap:butt;stroke-linejoin:miter;stroke-opacity:1"/>
<path class="bond-1 atom-2 atom-1" d="M 674.0,564.0 L 625.5,536.0" style="fill:none;fill-rule:evenodd;stroke:#000000;stroke-width:2.0px;stroke-linecap:butt;stroke-linejoin:miter;stroke-opacity:1"/>
<path class="bond-1 atom-2 atom-1" d="M 681.1,551.6 L 632.6,523.7" style="fill:none;fill-rule:evenodd;stroke:#000000;stroke-width:2.0px;stroke-linecap:butt;stroke-linejoin:miter;stroke-opacity:1"/>
<path class="bond-2 atom-3 atom-0" d="M 672.9,393.5 L 624.8,421.3" style="fill:none;fill-rule:evenodd;stroke:#000000;stroke-width:2.0px;stroke-linecap:butt;stroke-linejoin:miter;stroke-opacity:1"/>
<path class="bond-2 atom-3 atom-0" d="M 680.1,405.9 L 631.9,433.7" style="fill:none;fill-rule:evenodd;stroke:#000000;stroke-width:2.0px;stroke-linecap:butt;stroke-linejoin:miter;stroke-opacity:1"/>
<path class="bond-3 atom-4 atom-2" d="M 763.6,531.8 L 708.1,564.0" style="fill:none;fill-rule:evenodd;stroke:#000000;stroke-width:2.0px;stroke-linecap:butt;stroke-linejoin:miter;stroke-opacity:1"/>
<path class="bond-4 atom-5 atom-3" d="M 763.5,425.0 L 708.9,393.5" style="fill:none;fill-rule:evenodd;stroke:#000000;stroke-width:2.0px;stroke-linecap:butt;stroke-linejoin:miter;stroke-opacity:1"/>
<path class="bond-5 atom-5 atom-4" d="M 773.5,443.0 L 773.6,514.0" style="fill:none;fill-rule:evenodd;stroke:#000000;stroke-width:2.0px;stroke-linecap:butt;stroke-linejoin:miter;stroke-opacity:1"/>
<path class="bond-5 atom-5 atom-4" d="M 759.2,443.0 L 759.3,514.0" style="fill:none;fill-rule:evenodd;stroke:#000000;stroke-width:2.0px;stroke-linecap:butt;stroke-linejoin:miter;stroke-opacity:1"/>
<path class="bond-6 atom-6 atom-1" d="M 542.9,564.1 L 591.3,536.1" style="fill:none;fill-rule:evenodd;stroke:#000000;stroke-width:2.0px;stroke-linecap:butt;stroke-linejoin:miter;stroke-opacity:1"/>
<path class="bond-7 atom-7 atom-0" d="M 543.1,393.3 L 591.9,421.4" style="fill:none;fill-rule:evenodd;stroke:#000000;stroke-width:2.0px;stroke-linecap:butt;stroke-linejoin:miter;stroke-opacity:1"/>
<path class="bond-8 atom-8 atom-6" d="M 452.5,531.7 L 480.7,547.9" style="fill:none;fill-rule:evenodd;stroke:#0000FF;stroke-width:2.0px;stroke-linecap:butt;stroke-linejoin:miter;stroke-opacity:1"/>
<path class="bond-8 atom-8 atom-6" d="M 480.7,547.9 L 508.9,564.2" style="fill:none;fill-rule:evenodd;stroke:#000000;stroke-width:2.0px;stroke-linecap:butt;stroke-linejoin:miter;stroke-opacity:1"/>
<path class="bond-8 atom-8 atom-6" d="M 459.7,519.3 L 487.9,535.5" style="fill:none;fill-rule:evenodd;stroke:#0000FF;stroke-width:2.0px;stroke-linecap:butt;stroke-linejoin:miter;stroke-opacity:1"/>
<path class="bond-8 atom-8 atom-6" d="M 487.9,535.5 L 516.0,551.8" style="fill:none;fill-rule:evenodd;stroke:#000000;stroke-width:2.0px;stroke-linecap:butt;stroke-linejoin:miter;stroke-opacity:1"/>
<path class="bond-9 atom-9 atom-7" d="M 464.1,418.9 L 486.2,406.1" style="fill:none;fill-rule:evenodd;stroke:#0000FF;stroke-width:2.0px;stroke-linecap:butt;stroke-linejoin:miter;stroke-opacity:1"/>
<path class="bond-9 atom-9 atom-7" d="M 486.2,406.1 L 508.3,393.3" style="fill:none;fill-rule:evenodd;stroke:#000000;stroke-width:2.0px;stroke-linecap:butt;stroke-linejoin:miter;stroke-opacity:1"/>
<path class="bond-10 atom-9 atom-8" d="M 443.2,443.1 L 443.2,514.2" style="fill:none;fill-rule:evenodd;stroke:#0000FF;stroke-width:2.0px;stroke-linecap:butt;stroke-linejoin:miter;stroke-opacity:1"/>
<path class="bond-11 atom-10 atom-7" d="M 532.8,300.2 L 532.8,335.7" style="fill:none;fill-rule:evenodd;stroke:#FF0000;stroke-width:2.0px;stroke-linecap:butt;stroke-linejoin:miter;stroke-opacity:1"/>
<path class="bond-11 atom-10 atom-7" d="M 532.8,335.7 L 532.9,371.1" style="fill:none;fill-rule:evenodd;stroke:#000000;stroke-width:2.0px;stroke-linecap:butt;stroke-linejoin:miter;stroke-opacity:1"/>
<path class="bond-11 atom-10 atom-7" d="M 518.5,300.3 L 518.5,335.7" style="fill:none;fill-rule:evenodd;stroke:#FF0000;stroke-width:2.0px;stroke-linecap:butt;stroke-linejoin:miter;stroke-opacity:1"/>
<path class="bond-11 atom-10 atom-7" d="M 518.5,335.7 L 518.6,371.1" style="fill:none;fill-rule:evenodd;stroke:#000000;stroke-width:2.0px;stroke-linecap:butt;stroke-linejoin:miter;stroke-opacity:1"/>
<path class="bond-12 atom-11 atom-6" d="M 525.9,657.2 L 525.9,586.3" style="fill:none;fill-rule:evenodd;stroke:#000000;stroke-width:2.0px;stroke-linecap:butt;stroke-linejoin:miter;stroke-opacity:1"/>
<path class="bond-13 atom-12 atom-11" d="M 587.6,704.8 L 535.1,674.6" style="fill:none;fill-rule:evenodd;stroke:#000000;stroke-width:2.0px;stroke-linecap:butt;stroke-linejoin:miter;stroke-opacity:1"/>
<path class="bond-14 atom-13 atom-12" d="M 608.6,800.4 L 608.6,729.0" style="fill:none;fill-rule:evenodd;stroke:#000000;stroke-width:2.0px;stroke-linecap:butt;stroke-linejoin:miter;stroke-opacity:1"/>
<path class="bond-14 atom-13 atom-12" d="M 622.9,800.4 L 622.9,729.0" style="fill:none;fill-rule:evenodd;stroke:#000000;stroke-width:2.0px;stroke-linecap:butt;stroke-linejoin:miter;stroke-opacity:1"/>
<path class="bond-15 atom-14 atom-12" d="M 669.8,681.5 L 629.5,704.8" style="fill:none;fill-rule:evenodd;stroke:#000000;stroke-width:2.0px;stroke-linecap:butt;stroke-linejoin:miter;stroke-opacity:1"/>
<path class="bond-16 atom-15 atom-13" d="M 670.3,847.8 L 618.6,818.0" style="fill:none;fill-rule:evenodd;stroke:#000000;stroke-width:2.0px;stroke-linecap:butt;stroke-linejoin:miter;stroke-opacity:1"/>
<path class="bond-17 atom-16 atom-15" d="M 752.5,824.5 L 712.2,847.8" style="fill:none;fill-rule:evenodd;stroke:#000000;stroke-width:2.0px;stroke-linecap:butt;stroke-linejoin:miter;stroke-opacity:1"/>
<path class="bond-17 atom-16 atom-15" d="M 745.3,812.1 L 705.0,835.4" style="fill:none;fill-rule:evenodd;stroke:#000000;stroke-width:2.0px;stroke-linecap:butt;stroke-linejoin:miter;stroke-opacity:1"/>
<path class="bond-18 atom-17 atom-14" d="M 763.8,711.0 L 712.5,681.5" style="fill:none;fill-rule:evenodd;stroke:#000000;stroke-width:2.0px;stroke-linecap:butt;stroke-linejoin:miter;stroke-opacity:1"/>
<path class="bond-18 atom-17 atom-14" d="M 756.6,723.4 L 705.3,693.9" style="fill:none;fill-rule:evenodd;stroke:#000000;stroke-width:2.0px;stroke-linecap:butt;stroke-linejoin:miter;stroke-opacity:1"/>
<path class="bond-19 atom-17 atom-16" d="M 773.7,729.1 L 773.8,800.2" style="fill:none;fill-rule:evenodd;stroke:#000000;stroke-width:2.0px;stroke-linecap:butt;stroke-linejoin:miter;stroke-opacity:1"/>
<path class="bond-20 atom-18 atom-16" d="M 846.5,854.0 L 820.6,839.1" style="fill:none;fill-rule:evenodd;stroke:#00CC00;stroke-width:2.0px;stroke-linecap:butt;stroke-linejoin:miter;stroke-opacity:1"/>
<path class="bond-20 atom-18 atom-16" d="M 820.6,839.1 L 794.8,824.2" style="fill:none;fill-rule:evenodd;stroke:#000000;stroke-width:2.0px;stroke-linecap:butt;stroke-linejoin:miter;stroke-opacity:1"/>
<path class="bond-21 atom-19 atom-9" d="M 370.2,388.9 L 396.4,404.0" style="fill:none;fill-rule:evenodd;stroke:#000000;stroke-width:2.0px;stroke-linecap:butt;stroke-linejoin:miter;stroke-opacity:1"/>
<path class="bond-21 atom-19 atom-9" d="M 396.4,404.0 L 422.5,419.1" style="fill:none;fill-rule:evenodd;stroke:#0000FF;stroke-width:2.0px;stroke-linecap:butt;stroke-linejoin:miter;stroke-opacity:1"/>
<path class="bond-22 atom-20 atom-19" d="M 366.7,300.6 L 361.5,371.3" style="fill:none;fill-rule:evenodd;stroke:#000000;stroke-width:2.0px;stroke-linecap:butt;stroke-linejoin:miter;stroke-opacity:1"/>
<path class="bond-23 atom-21 atom-20" d="M 310.7,235.6 L 357.6,279.0" style="fill:none;fill-rule:evenodd;stroke:#000000;stroke-width:2.0px;stroke-linecap:butt;stroke-linejoin:miter;stroke-opacity:1"/>
<path class="bond-24 atom-22 atom-21" d="M 243.1,231.7 L 258.2,229.5" style="fill:none;fill-rule:evenodd;stroke:#0000FF;stroke-width:2.0px;stroke-linecap:butt;stroke-linejoin:miter;stroke-opacity:1"/>
<path class="bond-24 atom-22 atom-21" d="M 258.2,229.5 L 273.2,227.2" style="fill:none;fill-rule:evenodd;stroke:#000000;stroke-width:2.0px;stroke-linecap:butt;stroke-linejoin:miter;stroke-opacity:1"/>
<path class="bond-25 atom-23 atom-22" d="M 162.6,308.5 L 179.5,279.2" style="fill:none;fill-rule:evenodd;stroke:#000000;stroke-width:2.0px;stroke-linecap:butt;stroke-linejoin:miter;stroke-opacity:1"/>
<path class="bond-25 atom-23 atom-22" d="M 179.5,279.2 L 196.4,249.9" style="fill:none;fill-rule:evenodd;stroke:#0000FF;stroke-width:2.0px;stroke-linecap:butt;stroke-linejoin:miter;stroke-opacity:1"/>
<path class="bond-26 atom-24 atom-23" d="M 186.0,397.2 L 160.5,332.5" style="fill:none;fill-rule:evenodd;stroke:#000000;stroke-width:2.0px;stroke-linecap:butt;stroke-linejoin:miter;stroke-opacity:1"/>
<path class="bond-27 atom-25 atom-19" d="M 299.5,425.1 L 342.8,395.5" style="fill:none;fill-rule:evenodd;stroke:#000000;stroke-width:2.0px;stroke-linecap:butt;stroke-linejoin:miter;stroke-opacity:1"/>
<path class="bond-28 atom-25 atom-24" d="M 257.2,429.6 L 199.8,411.9" style="fill:none;fill-rule:evenodd;stroke:#000000;stroke-width:2.0px;stroke-linecap:butt;stroke-linejoin:miter;stroke-opacity:1"/>
<path class="bond-29 atom-26 atom-22" d="M 157.8,171.1 L 176.5,198.5" style="fill:none;fill-rule:evenodd;stroke:#000000;stroke-width:2.0px;stroke-linecap:butt;stroke-linejoin:miter;stroke-opacity:1"/>
<path class="bond-29 atom-26 atom-22" d="M 176.5,198.5 L 195.2,225.9" style="fill:none;fill-rule:evenodd;stroke:#0000FF;stroke-width:2.0px;stroke-linecap:butt;stroke-linejoin:miter;stroke-opacity:1"/>
<path class="atom-0" d="M 595.1 430.9 Q 595.1 426.5, 597.1 424.2 Q 599.2 421.9, 603.1 421.9 Q 606.8 421.9, 608.7 424.5 L 607.1 425.8 Q 605.6 423.9, 603.1 423.9 Q 600.4 423.9, 599.0 425.7 Q 597.6 427.5, 597.6 430.9 Q 597.6 434.4, 599.1 436.2 Q 600.5 438.0, 603.4 438.0 Q 605.3 438.0, 607.6 436.8 L 608.3 438.7 Q 607.4 439.3, 606.0 439.7 Q 604.6 440.0, 603.0 440.0 Q 599.2 440.0, 597.1 437.7 Q 595.1 435.3, 595.1 430.9 " fill="#000000"/>
<path class="atom-0" d="M 611.9 437.8 L 615.8 437.8 L 615.8 424.6 L 611.5 425.9 L 610.9 424.4 L 616.4 422.0 L 618.1 422.3 L 618.1 437.8 L 621.6 437.8 L 621.6 439.8 L 611.9 439.8 L 611.9 437.8 " fill="#000000"/>
<path class="atom-1" d="M 594.5 526.3 Q 594.5 521.9, 596.5 519.6 Q 598.6 517.3, 602.5 517.3 Q 606.2 517.3, 608.1 519.8 L 606.5 521.2 Q 605.1 519.3, 602.5 519.3 Q 599.9 519.3, 598.4 521.1 Q 597.0 522.9, 597.0 526.3 Q 597.0 529.8, 598.5 531.6 Q 600.0 533.4, 602.8 533.4 Q 604.8 533.4, 607.0 532.2 L 607.7 534.1 Q 606.8 534.7, 605.4 535.0 Q 604.0 535.4, 602.5 535.4 Q 598.6 535.4, 596.5 533.0 Q 594.5 530.7, 594.5 526.3 " fill="#000000"/>
<path class="atom-1" d="M 610.5 520.8 Q 611.1 519.1, 612.7 518.2 Q 614.2 517.3, 616.4 517.3 Q 619.0 517.3, 620.5 518.7 Q 622.0 520.2, 622.0 522.7 Q 622.0 525.4, 620.1 527.8 Q 618.2 530.3, 614.2 533.2 L 622.3 533.2 L 622.3 535.2 L 610.4 535.2 L 610.4 533.5 Q 613.7 531.1, 615.7 529.4 Q 617.6 527.6, 618.6 526.1 Q 619.5 524.5, 619.5 522.9 Q 619.5 521.2, 618.7 520.2 Q 617.8 519.3, 616.4 519.3 Q 614.9 519.3, 614.0 519.8 Q 613.0 520.4, 612.4 521.7 L 610.5 520.8 " fill="#000000"/>
<path class="atom-2" d="M 677.1 573.9 Q 677.1 569.5, 679.2 567.2 Q 681.2 564.9, 685.2 564.9 Q 688.8 564.9, 690.8 567.5 L 689.1 568.8 Q 687.7 566.9, 685.2 566.9 Q 682.5 566.9, 681.1 568.7 Q 679.7 570.5, 679.7 573.9 Q 679.7 577.4, 681.1 579.2 Q 682.6 581.0, 685.4 581.0 Q 687.4 581.0, 689.7 579.8 L 690.4 581.7 Q 689.4 582.3, 688.0 582.7 Q 686.6 583.0, 685.1 583.0 Q 681.2 583.0, 679.2 580.7 Q 677.1 578.3, 677.1 573.9 " fill="#000000"/>
<path class="atom-2" d="M 701.6 573.5 Q 703.3 574.0, 704.1 575.1 Q 705.0 576.2, 705.0 577.9 Q 705.0 579.4, 704.2 580.6 Q 703.5 581.8, 702.1 582.4 Q 700.7 583.0, 698.9 583.0 Q 697.0 583.0, 695.6 582.4 Q 694.2 581.7, 693.1 580.4 L 694.5 578.9 Q 695.6 580.1, 696.5 580.6 Q 697.4 581.0, 698.9 581.0 Q 700.5 581.0, 701.5 580.2 Q 702.5 579.3, 702.5 577.9 Q 702.5 576.1, 701.4 575.3 Q 700.4 574.5, 698.3 574.5 L 697.0 574.5 L 697.0 572.7 L 698.1 572.7 Q 700.0 572.7, 701.1 571.8 Q 702.1 571.0, 702.1 569.4 Q 702.1 568.3, 701.2 567.6 Q 700.4 566.9, 698.9 566.9 Q 697.5 566.9, 696.5 567.4 Q 695.6 567.9, 694.9 569.3 L 693.2 568.3 Q 693.8 566.9, 695.3 565.9 Q 696.8 564.9, 698.9 564.9 Q 701.5 564.9, 703.1 566.1 Q 704.6 567.3, 704.6 569.4 Q 704.6 570.8, 703.8 571.9 Q 703.0 572.9, 701.6 573.5 " fill="#000000"/>
<path class="atom-3" d="M 676.1 383.2 Q 676.1 378.8, 678.1 376.5 Q 680.2 374.2, 684.1 374.2 Q 687.8 374.2, 689.7 376.7 L 688.1 378.1 Q 686.6 376.2, 684.1 376.2 Q 681.4 376.2, 680.0 378.0 Q 678.6 379.8, 678.6 383.2 Q 678.6 386.7, 680.1 388.5 Q 681.5 390.3, 684.4 390.3 Q 686.3 390.3, 688.6 389.1 L 689.3 391.0 Q 688.4 391.6, 687.0 391.9 Q 685.6 392.3, 684.0 392.3 Q 680.2 392.3, 678.1 389.9 Q 676.1 387.6, 676.1 383.2 " fill="#000000"/>
<path class="atom-3" d="M 703.6 386.0 L 705.7 386.0 L 705.7 388.0 L 703.6 388.0 L 703.6 392.1 L 701.2 392.1 L 701.2 388.0 L 692.1 388.0 L 692.1 386.4 L 699.8 374.4 L 703.6 374.4 L 703.6 386.0 M 695.0 386.0 L 701.2 386.0 L 701.2 376.0 L 695.0 386.0 " fill="#000000"/>
<path class="atom-4" d="M 766.8 526.1 Q 766.8 521.7, 768.8 519.4 Q 770.9 517.1, 774.8 517.1 Q 778.5 517.1, 780.4 519.7 L 778.8 521.0 Q 777.3 519.2, 774.8 519.2 Q 772.1 519.2, 770.7 521.0 Q 769.3 522.7, 769.3 526.1 Q 769.3 529.6, 770.8 531.4 Q 772.2 533.2, 775.1 533.2 Q 777.0 533.2, 779.3 532.1 L 780.0 533.9 Q 779.1 534.5, 777.7 534.9 Q 776.3 535.2, 774.7 535.2 Q 770.9 535.2, 768.8 532.9 Q 766.8 530.5, 766.8 526.1 " fill="#000000"/>
<path class="atom-4" d="M 789.1 523.9 Q 790.7 523.9, 791.9 524.6 Q 793.2 525.3, 793.9 526.5 Q 794.7 527.7, 794.7 529.4 Q 794.7 531.2, 793.8 532.6 Q 792.9 533.9, 791.4 534.5 Q 790.0 535.2, 788.3 535.2 Q 786.7 535.2, 785.2 534.6 Q 783.7 534.0, 782.7 532.9 L 784.2 531.3 Q 785.0 532.2, 786.1 532.7 Q 787.3 533.2, 788.4 533.2 Q 790.0 533.2, 791.1 532.2 Q 792.2 531.2, 792.2 529.5 Q 792.2 527.6, 791.1 526.7 Q 790.0 525.8, 788.3 525.8 Q 786.7 525.8, 785.0 526.5 L 783.6 525.8 L 784.5 517.3 L 793.6 517.3 L 793.3 519.3 L 786.5 519.3 L 786.0 524.6 Q 787.6 523.9, 789.1 523.9 " fill="#000000"/>
<path class="atom-5" d="M 766.7 430.8 Q 766.7 426.4, 768.7 424.1 Q 770.8 421.8, 774.7 421.8 Q 778.4 421.8, 780.3 424.3 L 778.7 425.7 Q 777.3 423.8, 774.7 423.8 Q 772.1 423.8, 770.6 425.6 Q 769.2 427.4, 769.2 430.8 Q 769.2 434.3, 770.7 436.1 Q 772.2 437.9, 775.0 437.9 Q 777.0 437.9, 779.2 436.7 L 779.9 438.6 Q 779.0 439.2, 777.6 439.5 Q 776.2 439.9, 774.7 439.9 Q 770.8 439.9, 768.7 437.5 Q 766.7 435.2, 766.7 430.8 " fill="#000000"/>
<path class="atom-5" d="M 789.6 428.6 Q 791.1 428.6, 792.3 429.3 Q 793.6 430.0, 794.2 431.2 Q 794.9 432.4, 794.9 434.0 Q 794.9 435.7, 794.1 437.0 Q 793.4 438.4, 792.0 439.1 Q 790.7 439.9, 789.0 439.9 Q 785.8 439.9, 784.2 437.7 Q 782.6 435.6, 782.6 431.3 Q 782.6 426.6, 784.6 424.2 Q 786.6 421.8, 790.3 421.8 Q 791.4 421.8, 792.4 422.0 Q 793.3 422.3, 794.2 422.8 L 793.2 424.5 Q 791.9 423.8, 790.4 423.8 Q 787.9 423.8, 786.6 425.4 Q 785.3 427.0, 785.2 430.3 Q 786.1 429.5, 787.2 429.1 Q 788.3 428.6, 789.6 428.6 M 789.0 437.8 Q 789.9 437.8, 790.7 437.3 Q 791.5 436.8, 792.0 435.9 Q 792.4 435.1, 792.4 434.0 Q 792.4 432.4, 791.5 431.5 Q 790.7 430.6, 789.1 430.6 Q 788.0 430.6, 787.0 431.1 Q 785.9 431.5, 785.2 432.2 Q 785.3 435.2, 786.2 436.5 Q 787.1 437.8, 789.0 437.8 " fill="#000000"/>
<path class="atom-6" d="M 512.0 574.0 Q 512.0 569.6, 514.1 567.3 Q 516.2 565.0, 520.1 565.0 Q 523.7 565.0, 525.7 567.6 L 524.0 568.9 Q 522.6 567.1, 520.1 567.1 Q 517.4 567.1, 516.0 568.9 Q 514.6 570.6, 514.6 574.0 Q 514.6 577.5, 516.0 579.3 Q 517.5 581.1, 520.4 581.1 Q 522.3 581.1, 524.6 580.0 L 525.3 581.8 Q 524.4 582.4, 523.0 582.8 Q 521.6 583.1, 520.0 583.1 Q 516.2 583.1, 514.1 580.8 Q 512.0 578.4, 512.0 574.0 " fill="#000000"/>
<path class="atom-6" d="M 537.2 567.2 L 528.0 567.2 L 528.0 565.2 L 539.7 565.2 L 539.7 567.0 L 532.6 582.9 L 530.2 582.9 L 537.2 567.2 " fill="#000000"/>
<path class="atom-7" d="M 511.5 383.3 Q 511.5 378.9, 513.5 376.6 Q 515.6 374.3, 519.5 374.3 Q 523.2 374.3, 525.1 376.9 L 523.5 378.2 Q 522.1 376.3, 519.5 376.3 Q 516.9 376.3, 515.4 378.1 Q 514.0 379.9, 514.0 383.3 Q 514.0 386.8, 515.5 388.6 Q 517.0 390.4, 519.8 390.4 Q 521.8 390.4, 524.0 389.2 L 524.7 391.1 Q 523.8 391.7, 522.4 392.1 Q 521.0 392.4, 519.5 392.4 Q 515.6 392.4, 513.5 390.1 Q 511.5 387.7, 511.5 383.3 " fill="#000000"/>
<path class="atom-7" d="M 536.5 382.8 Q 538.1 383.5, 539.0 384.6 Q 539.9 385.6, 539.9 387.3 Q 539.9 388.8, 539.2 390.0 Q 538.4 391.2, 537.0 391.8 Q 535.6 392.4, 533.8 392.4 Q 530.8 392.4, 529.1 391.1 Q 527.4 389.7, 527.4 387.3 Q 527.4 385.9, 528.2 384.8 Q 528.9 383.7, 530.5 382.9 Q 529.3 382.2, 528.7 381.3 Q 528.1 380.3, 528.1 378.8 Q 528.1 376.7, 529.6 375.5 Q 531.1 374.3, 533.7 374.3 Q 536.3 374.3, 537.8 375.5 Q 539.3 376.7, 539.3 378.8 Q 539.3 380.1, 538.6 381.1 Q 537.9 382.0, 536.5 382.8 M 533.7 376.2 Q 532.2 376.2, 531.4 376.9 Q 530.6 377.6, 530.6 378.8 Q 530.6 379.7, 531.1 380.4 Q 531.7 381.0, 532.5 381.3 Q 533.3 381.7, 534.8 382.2 Q 535.9 381.4, 536.3 380.6 Q 536.8 379.8, 536.8 378.8 Q 536.8 377.6, 536.0 376.9 Q 535.2 376.2, 533.7 376.2 M 533.8 390.6 Q 535.4 390.6, 536.4 389.7 Q 537.4 388.8, 537.4 387.3 Q 537.4 386.4, 536.9 385.8 Q 536.4 385.2, 535.6 384.8 Q 534.8 384.5, 533.4 384.0 L 532.3 383.6 Q 531.0 384.4, 530.5 385.3 Q 529.9 386.2, 529.9 387.3 Q 529.9 388.8, 531.0 389.7 Q 532.0 390.6, 533.8 390.6 " fill="#000000"/>
<path class="atom-8" d="M 423.1 517.6 L 428.9 527.0 Q 429.5 527.9, 430.4 529.6 Q 431.4 531.2, 431.4 531.3 L 431.4 517.6 L 433.8 517.6 L 433.8 535.3 L 431.3 535.3 L 425.1 525.0 Q 424.4 523.8, 423.6 522.5 Q 422.9 521.1, 422.6 520.7 L 422.6 535.3 L 420.3 535.3 L 420.3 517.6 L 423.1 517.6 " fill="#0000FF"/>
<path class="atom-8" d="M 443.1 517.4 Q 446.2 517.4, 447.8 519.5 Q 449.4 521.7, 449.4 525.9 Q 449.4 530.6, 447.4 533.1 Q 445.5 535.5, 441.7 535.5 Q 440.6 535.5, 439.6 535.2 Q 438.7 535.0, 437.8 534.5 L 438.8 532.8 Q 440.1 533.5, 441.7 533.5 Q 444.2 533.5, 445.4 531.9 Q 446.7 530.3, 446.9 526.9 Q 446.0 527.8, 444.8 528.2 Q 443.7 528.6, 442.5 528.6 Q 440.9 528.6, 439.7 528.0 Q 438.5 527.3, 437.8 526.1 Q 437.1 524.8, 437.1 523.3 Q 437.1 521.6, 437.9 520.2 Q 438.6 518.9, 440.0 518.1 Q 441.3 517.4, 443.1 517.4 M 439.6 523.3 Q 439.6 524.8, 440.5 525.7 Q 441.4 526.6, 442.9 526.6 Q 444.0 526.6, 445.0 526.2 Q 446.1 525.8, 446.9 525.0 Q 446.8 522.1, 445.8 520.8 Q 444.9 519.4, 443.0 519.4 Q 442.1 519.4, 441.3 519.9 Q 440.5 520.4, 440.1 521.3 Q 439.6 522.2, 439.6 523.3 " fill="#0000FF"/>
<path class="atom-9" d="M 424.7 422.2 L 430.5 431.6 Q 431.0 432.5, 432.0 434.2 Q 432.9 435.9, 432.9 436.0 L 432.9 422.2 L 435.3 422.2 L 435.3 439.9 L 432.9 439.9 L 426.6 429.7 Q 425.9 428.5, 425.1 427.1 Q 424.4 425.7, 424.2 425.3 L 424.2 439.9 L 421.9 439.9 L 421.9 422.2 L 424.7 422.2 " fill="#0000FF"/>
<path class="atom-9" d="M 439.6 437.9 L 443.4 437.9 L 443.4 424.7 L 439.2 426.0 L 438.6 424.6 L 444.0 422.1 L 445.8 422.4 L 445.8 437.9 L 449.3 437.9 L 449.3 439.9 L 439.6 439.9 L 439.6 437.9 " fill="#0000FF"/>
<path class="atom-9" d="M 458.0 440.1 Q 454.8 440.1, 453.1 437.7 Q 451.5 435.3, 451.5 431.1 Q 451.5 426.8, 453.1 424.4 Q 454.7 422.0, 458.0 422.0 Q 461.3 422.0, 462.9 424.4 Q 464.5 426.8, 464.5 431.1 Q 464.5 435.3, 462.9 437.7 Q 461.3 440.1, 458.0 440.1 M 458.0 438.1 Q 459.9 438.1, 461.0 436.4 Q 462.0 434.6, 462.0 431.1 Q 462.0 427.6, 461.0 425.8 Q 459.9 424.0, 458.0 424.0 Q 456.1 424.0, 455.1 425.8 Q 454.0 427.6, 454.0 431.1 Q 454.0 434.6, 455.1 436.4 Q 456.1 438.1, 458.0 438.1 " fill="#0000FF"/>
<path class="atom-10" d="M 517.5 287.9 Q 517.5 283.7, 519.6 281.3 Q 521.7 278.9, 525.6 278.9 Q 529.6 278.9, 531.7 281.3 Q 533.8 283.7, 533.8 287.9 Q 533.8 292.2, 531.6 294.7 Q 529.5 297.1, 525.6 297.1 Q 521.7 297.1, 519.6 294.7 Q 517.5 292.3, 517.5 287.9 M 525.6 295.1 Q 528.3 295.1, 529.8 293.3 Q 531.3 291.5, 531.3 287.9 Q 531.3 284.5, 529.8 282.7 Q 528.3 280.9, 525.6 280.9 Q 522.9 280.9, 521.5 282.7 Q 520.0 284.4, 520.0 287.9 Q 520.0 291.5, 521.5 293.3 Q 522.9 295.1, 525.6 295.1 " fill="#FF0000"/>
<path class="atom-10" d="M 537.2 294.8 L 541.1 294.8 L 541.1 281.6 L 536.8 282.9 L 536.3 281.5 L 541.7 279.0 L 543.5 279.3 L 543.5 294.8 L 546.9 294.8 L 546.9 296.8 L 537.2 296.8 L 537.2 294.8 " fill="#FF0000"/>
<path class="atom-10" d="M 550.2 294.8 L 554.1 294.8 L 554.1 281.6 L 549.8 282.9 L 549.2 281.5 L 554.7 279.0 L 556.4 279.3 L 556.4 294.8 L 559.9 294.8 L 559.9 296.8 L 550.2 296.8 L 550.2 294.8 " fill="#FF0000"/>
<path class="atom-11" d="M 491.2 669.4 Q 491.2 665.0, 493.2 662.7 Q 495.3 660.4, 499.2 660.4 Q 502.9 660.4, 504.8 662.9 L 503.2 664.3 Q 501.8 662.4, 499.2 662.4 Q 496.6 662.4, 495.1 664.2 Q 493.7 666.0, 493.7 669.4 Q 493.7 672.9, 495.2 674.7 Q 496.7 676.5, 499.5 676.5 Q 501.5 676.5, 503.7 675.3 L 504.4 677.2 Q 503.5 677.8, 502.1 678.1 Q 500.7 678.5, 499.2 678.5 Q 495.3 678.5, 493.2 676.1 Q 491.2 673.8, 491.2 669.4 " fill="#000000"/>
<path class="atom-11" d="M 508.0 676.3 L 511.9 676.3 L 511.9 663.0 L 507.6 664.4 L 507.1 662.9 L 512.5 660.5 L 514.3 660.8 L 514.3 676.3 L 517.7 676.3 L 517.7 678.3 L 508.0 678.3 L 508.0 676.3 " fill="#000000"/>
<path class="atom-11" d="M 520.0 663.9 Q 520.7 662.2, 522.2 661.3 Q 523.8 660.4, 525.9 660.4 Q 528.6 660.4, 530.1 661.8 Q 531.6 663.3, 531.6 665.8 Q 531.6 668.5, 529.7 670.9 Q 527.7 673.4, 523.7 676.3 L 531.9 676.3 L 531.9 678.3 L 520.0 678.3 L 520.0 676.6 Q 523.3 674.2, 525.2 672.5 Q 527.2 670.7, 528.2 669.2 Q 529.1 667.6, 529.1 666.0 Q 529.1 664.3, 528.3 663.3 Q 527.4 662.4, 525.9 662.4 Q 524.5 662.4, 523.6 662.9 Q 522.6 663.5, 521.9 664.8 L 520.0 663.9 " fill="#000000"/>
<path class="atom-12" d="M 588.2 717.0 Q 588.2 712.6, 590.3 710.3 Q 592.3 708.0, 596.3 708.0 Q 599.9 708.0, 601.9 710.5 L 600.2 711.9 Q 598.8 710.0, 596.3 710.0 Q 593.6 710.0, 592.2 711.8 Q 590.8 713.6, 590.8 717.0 Q 590.8 720.5, 592.2 722.3 Q 593.7 724.1, 596.5 724.1 Q 598.5 724.1, 600.8 722.9 L 601.5 724.8 Q 600.5 725.4, 599.1 725.7 Q 597.7 726.1, 596.2 726.1 Q 592.3 726.1, 590.3 723.7 Q 588.2 721.4, 588.2 717.0 " fill="#000000"/>
<path class="atom-12" d="M 605.1 723.9 L 608.9 723.9 L 608.9 710.6 L 604.7 712.0 L 604.1 710.5 L 609.5 708.1 L 611.3 708.4 L 611.3 723.9 L 614.8 723.9 L 614.8 725.9 L 605.1 725.9 L 605.1 723.9 " fill="#000000"/>
<path class="atom-12" d="M 625.5 716.5 Q 627.2 717.0, 628.1 718.2 Q 628.9 719.3, 628.9 721.0 Q 628.9 722.5, 628.2 723.7 Q 627.4 724.8, 626.0 725.5 Q 624.7 726.1, 622.9 726.1 Q 621.0 726.1, 619.5 725.5 Q 618.1 724.8, 617.0 723.4 L 618.4 722.0 Q 619.5 723.2, 620.5 723.7 Q 621.4 724.1, 622.9 724.1 Q 624.5 724.1, 625.4 723.3 Q 626.4 722.4, 626.4 721.0 Q 626.4 719.2, 625.4 718.4 Q 624.4 717.6, 622.2 717.6 L 620.9 717.6 L 620.9 715.8 L 622.1 715.8 Q 624.0 715.7, 625.0 714.9 Q 626.0 714.1, 626.0 712.5 Q 626.0 711.3, 625.2 710.7 Q 624.3 710.0, 622.9 710.0 Q 621.4 710.0, 620.5 710.5 Q 619.6 711.0, 618.9 712.3 L 617.2 711.4 Q 617.8 709.9, 619.3 709.0 Q 620.8 708.0, 622.9 708.0 Q 625.5 708.0, 627.0 709.2 Q 628.5 710.4, 628.5 712.5 Q 628.5 713.9, 627.8 714.9 Q 627.0 716.0, 625.5 716.5 " fill="#000000"/>
<path class="atom-13" d="M 572.9 812.4 Q 572.9 808.0, 575.0 805.7 Q 577.1 803.3, 581.0 803.3 Q 584.6 803.3, 586.6 805.9 L 584.9 807.3 Q 583.5 805.4, 581.0 805.4 Q 578.3 805.4, 576.9 807.2 Q 575.5 809.0, 575.5 812.4 Q 575.5 815.9, 576.9 817.7 Q 578.4 819.5, 581.3 819.5 Q 583.2 819.5, 585.5 818.3 L 586.2 820.2 Q 585.3 820.8, 583.9 821.1 Q 582.5 821.5, 580.9 821.5 Q 577.1 821.5, 575.0 819.1 Q 572.9 816.8, 572.9 812.4 " fill="#000000"/>
<path class="atom-13" d="M 589.8 819.2 L 593.7 819.2 L 593.7 806.0 L 589.4 807.3 L 588.8 805.9 L 594.3 803.4 L 596.0 803.7 L 596.0 819.2 L 599.5 819.2 L 599.5 821.2 L 589.8 821.2 L 589.8 819.2 " fill="#000000"/>
<path class="atom-13" d="M 613.3 815.2 L 615.5 815.2 L 615.5 817.2 L 613.3 817.2 L 613.3 821.2 L 611.0 821.2 L 611.0 817.2 L 601.8 817.2 L 601.8 815.6 L 609.6 803.5 L 613.3 803.5 L 613.3 815.2 M 604.7 815.2 L 611.0 815.2 L 611.0 805.1 L 604.7 815.2 " fill="#000000"/>
<path class="atom-14" d="M 670.7 669.3 Q 670.7 664.9, 672.8 662.6 Q 674.9 660.2, 678.8 660.2 Q 682.4 660.2, 684.4 662.8 L 682.7 664.2 Q 681.3 662.3, 678.8 662.3 Q 676.1 662.3, 674.7 664.1 Q 673.3 665.9, 673.3 669.3 Q 673.3 672.8, 674.7 674.6 Q 676.2 676.4, 679.1 676.4 Q 681.0 676.4, 683.3 675.2 L 684.0 677.1 Q 683.1 677.7, 681.7 678.0 Q 680.3 678.4, 678.7 678.4 Q 674.9 678.4, 672.8 676.0 Q 670.7 673.7, 670.7 669.3 " fill="#000000"/>
<path class="atom-14" d="M 687.6 676.1 L 691.4 676.1 L 691.4 662.9 L 687.2 664.2 L 686.6 662.8 L 692.0 660.3 L 693.8 660.6 L 693.8 676.1 L 697.3 676.1 L 697.3 678.1 L 687.6 678.1 L 687.6 676.1 " fill="#000000"/>
<path class="atom-14" d="M 705.9 667.1 Q 707.5 667.1, 708.8 667.7 Q 710.0 668.4, 710.8 669.6 Q 711.5 670.9, 711.5 672.5 Q 711.5 674.4, 710.6 675.7 Q 709.7 677.0, 708.3 677.7 Q 706.8 678.3, 705.2 678.3 Q 703.5 678.3, 702.0 677.7 Q 700.5 677.1, 699.5 676.0 L 701.0 674.4 Q 701.8 675.3, 703.0 675.8 Q 704.1 676.3, 705.2 676.3 Q 706.8 676.3, 707.9 675.3 Q 709.0 674.4, 709.0 672.6 Q 709.0 670.7, 707.9 669.8 Q 706.8 668.9, 705.1 668.9 Q 703.5 668.9, 701.8 669.6 L 700.4 669.0 L 701.3 660.4 L 710.4 660.4 L 710.1 662.4 L 703.3 662.4 L 702.8 667.7 Q 704.4 667.1, 705.9 667.1 " fill="#000000"/>
<path class="atom-15" d="M 670.7 860.0 Q 670.7 855.6, 672.8 853.3 Q 674.8 851.0, 678.8 851.0 Q 682.4 851.0, 684.4 853.5 L 682.7 854.9 Q 681.3 853.0, 678.8 853.0 Q 676.1 853.0, 674.7 854.8 Q 673.3 856.6, 673.3 860.0 Q 673.3 863.5, 674.7 865.3 Q 676.2 867.1, 679.0 867.1 Q 681.0 867.1, 683.3 865.9 L 684.0 867.8 Q 683.0 868.4, 681.6 868.7 Q 680.2 869.1, 678.7 869.1 Q 674.8 869.1, 672.8 866.7 Q 670.7 864.4, 670.7 860.0 " fill="#000000"/>
<path class="atom-15" d="M 687.6 866.9 L 691.4 866.9 L 691.4 853.6 L 687.2 855.0 L 686.6 853.5 L 692.0 851.1 L 693.8 851.4 L 693.8 866.9 L 697.3 866.9 L 697.3 868.9 L 687.6 868.9 L 687.6 866.9 " fill="#000000"/>
<path class="atom-15" d="M 706.5 857.8 Q 708.0 857.8, 709.2 858.5 Q 710.5 859.2, 711.1 860.4 Q 711.8 861.6, 711.8 863.2 Q 711.8 864.9, 711.0 866.2 Q 710.3 867.6, 708.9 868.3 Q 707.6 869.1, 705.9 869.1 Q 702.7 869.1, 701.1 866.9 Q 699.5 864.8, 699.5 860.5 Q 699.5 855.8, 701.5 853.4 Q 703.5 851.0, 707.2 851.0 Q 708.3 851.0, 709.3 851.2 Q 710.2 851.5, 711.1 852.0 L 710.1 853.7 Q 708.8 853.0, 707.3 853.0 Q 704.8 853.0, 703.5 854.6 Q 702.2 856.2, 702.1 859.5 Q 703.0 858.7, 704.1 858.3 Q 705.2 857.8, 706.5 857.8 M 705.9 867.0 Q 706.8 867.0, 707.6 866.5 Q 708.4 866.0, 708.9 865.1 Q 709.3 864.3, 709.3 863.2 Q 709.3 861.6, 708.4 860.7 Q 707.6 859.8, 706.0 859.8 Q 704.9 859.8, 703.9 860.3 Q 702.8 860.7, 702.1 861.4 Q 702.2 864.4, 703.1 865.7 Q 704.0 867.0, 705.9 867.0 " fill="#000000"/>
<path class="atom-16" d="M 753.5 812.2 Q 753.5 807.8, 755.6 805.5 Q 757.7 803.2, 761.6 803.2 Q 765.2 803.2, 767.2 805.8 L 765.5 807.1 Q 764.1 805.3, 761.6 805.3 Q 758.9 805.3, 757.5 807.1 Q 756.1 808.8, 756.1 812.2 Q 756.1 815.7, 757.5 817.5 Q 759.0 819.3, 761.9 819.3 Q 763.8 819.3, 766.1 818.2 L 766.8 820.0 Q 765.9 820.6, 764.5 821.0 Q 763.1 821.3, 761.5 821.3 Q 757.7 821.3, 755.6 819.0 Q 753.5 816.6, 753.5 812.2 " fill="#000000"/>
<path class="atom-16" d="M 770.4 819.1 L 774.2 819.1 L 774.2 805.9 L 770.0 807.2 L 769.4 805.7 L 774.8 803.3 L 776.6 803.6 L 776.6 819.1 L 780.1 819.1 L 780.1 821.1 L 770.4 821.1 L 770.4 819.1 " fill="#000000"/>
<path class="atom-16" d="M 791.6 805.4 L 782.3 805.4 L 782.3 803.4 L 794.1 803.4 L 794.1 805.2 L 786.9 821.1 L 784.5 821.1 L 791.6 805.4 " fill="#000000"/>
<path class="atom-17" d="M 766.9 716.9 Q 766.9 712.5, 769.0 710.2 Q 771.0 707.8, 775.0 707.8 Q 778.6 707.8, 780.6 710.4 L 778.9 711.8 Q 777.5 709.9, 775.0 709.9 Q 772.3 709.9, 770.9 711.7 Q 769.5 713.5, 769.5 716.9 Q 769.5 720.4, 770.9 722.2 Q 772.4 724.0, 775.2 724.0 Q 777.2 724.0, 779.5 722.8 L 780.2 724.7 Q 779.2 725.3, 777.8 725.6 Q 776.4 726.0, 774.9 726.0 Q 771.0 726.0, 769.0 723.6 Q 766.9 721.3, 766.9 716.9 " fill="#000000"/>
<path class="atom-17" d="M 783.8 723.7 L 787.6 723.7 L 787.6 710.5 L 783.4 711.8 L 782.8 710.4 L 788.2 707.9 L 790.0 708.2 L 790.0 723.7 L 793.5 723.7 L 793.5 725.7 L 783.8 725.7 L 783.8 723.7 " fill="#000000"/>
<path class="atom-17" d="M 804.8 716.4 Q 806.4 717.1, 807.3 718.1 Q 808.2 719.1, 808.2 720.9 Q 808.2 722.4, 807.5 723.6 Q 806.7 724.7, 805.3 725.4 Q 803.9 726.0, 802.1 726.0 Q 799.1 726.0, 797.4 724.6 Q 795.7 723.3, 795.7 720.9 Q 795.7 719.4, 796.5 718.4 Q 797.2 717.3, 798.8 716.4 Q 797.6 715.8, 797.0 714.8 Q 796.4 713.9, 796.4 712.4 Q 796.4 710.3, 797.9 709.1 Q 799.4 707.8, 802.0 707.8 Q 804.6 707.8, 806.1 709.1 Q 807.6 710.3, 807.6 712.4 Q 807.6 713.7, 806.9 714.6 Q 806.2 715.6, 804.8 716.4 M 802.0 709.7 Q 800.5 709.7, 799.7 710.4 Q 798.9 711.1, 798.9 712.4 Q 798.9 713.3, 799.4 713.9 Q 800.0 714.5, 800.8 714.9 Q 801.6 715.2, 803.1 715.7 Q 804.2 715.0, 804.6 714.2 Q 805.1 713.4, 805.1 712.4 Q 805.1 711.1, 804.3 710.4 Q 803.5 709.7, 802.0 709.7 M 802.1 724.1 Q 803.7 724.1, 804.7 723.2 Q 805.7 722.3, 805.7 720.9 Q 805.7 719.9, 805.2 719.3 Q 804.7 718.7, 803.9 718.4 Q 803.1 718.0, 801.7 717.6 L 800.6 717.2 Q 799.3 717.9, 798.8 718.8 Q 798.2 719.7, 798.2 720.9 Q 798.2 722.3, 799.3 723.2 Q 800.3 724.1, 802.1 724.1 " fill="#000000"/>
<path class="atom-18" d="M 849.6 860.4 Q 849.6 856.0, 851.7 853.7 Q 853.7 851.4, 857.7 851.4 Q 861.3 851.4, 863.3 853.9 L 861.6 855.3 Q 860.2 853.4, 857.7 853.4 Q 855.0 853.4, 853.6 855.2 Q 852.2 857.0, 852.2 860.4 Q 852.2 863.9, 853.6 865.7 Q 855.1 867.5, 857.9 867.5 Q 859.9 867.5, 862.2 866.3 L 862.9 868.2 Q 861.9 868.8, 860.5 869.1 Q 859.1 869.5, 857.6 869.5 Q 853.7 869.5, 851.7 867.1 Q 849.6 864.8, 849.6 860.4 " fill="#00CC00"/>
<path class="atom-18" d="M 865.2 850.3 L 867.5 850.3 L 867.5 869.3 L 865.2 869.3 L 865.2 850.3 " fill="#00CC00"/>
<path class="atom-18" d="M 871.6 867.3 L 875.5 867.3 L 875.5 854.0 L 871.2 855.4 L 870.7 853.9 L 876.1 851.5 L 877.9 851.8 L 877.9 867.3 L 881.3 867.3 L 881.3 869.3 L 871.6 869.3 L 871.6 867.3 " fill="#00CC00"/>
<path class="atom-18" d="M 889.3 851.4 Q 892.4 851.4, 894.0 853.5 Q 895.6 855.6, 895.6 859.9 Q 895.6 864.6, 893.6 867.0 Q 891.7 869.5, 887.9 869.5 Q 886.8 869.5, 885.9 869.2 Q 884.9 869.0, 884.0 868.4 L 885.0 866.8 Q 886.3 867.5, 887.9 867.5 Q 890.4 867.5, 891.7 865.9 Q 892.9 864.2, 893.1 860.9 Q 892.2 861.7, 891.0 862.2 Q 889.9 862.6, 888.7 862.6 Q 887.1 862.6, 885.9 861.9 Q 884.7 861.3, 884.0 860.0 Q 883.3 858.8, 883.3 857.3 Q 883.3 855.5, 884.1 854.2 Q 884.9 852.9, 886.2 852.1 Q 887.6 851.4, 889.3 851.4 M 885.8 857.2 Q 885.8 858.8, 886.7 859.7 Q 887.6 860.6, 889.1 860.6 Q 890.2 860.6, 891.3 860.2 Q 892.3 859.7, 893.1 859.0 Q 893.0 856.1, 892.1 854.7 Q 891.1 853.4, 889.3 853.4 Q 888.3 853.4, 887.5 853.9 Q 886.7 854.4, 886.3 855.3 Q 885.8 856.2, 885.8 857.2 " fill="#00CC00"/>
<path class="atom-19" d="M 323.4 383.4 Q 323.4 379.0, 325.5 376.7 Q 327.6 374.4, 331.5 374.4 Q 335.1 374.4, 337.1 377.0 L 335.4 378.3 Q 334.0 376.5, 331.5 376.5 Q 328.8 376.5, 327.4 378.3 Q 326.0 380.0, 326.0 383.4 Q 326.0 386.9, 327.4 388.7 Q 328.9 390.5, 331.8 390.5 Q 333.7 390.5, 336.0 389.4 L 336.7 391.2 Q 335.8 391.8, 334.4 392.2 Q 333.0 392.5, 331.4 392.5 Q 327.6 392.5, 325.5 390.2 Q 323.4 387.8, 323.4 383.4 " fill="#000000"/>
<path class="atom-19" d="M 339.4 378.0 Q 340.1 376.3, 341.6 375.4 Q 343.2 374.4, 345.3 374.4 Q 348.0 374.4, 349.5 375.9 Q 351.0 377.3, 351.0 379.9 Q 351.0 382.5, 349.0 385.0 Q 347.1 387.4, 343.1 390.3 L 351.3 390.3 L 351.3 392.3 L 339.4 392.3 L 339.4 390.6 Q 342.7 388.3, 344.6 386.5 Q 346.6 384.8, 347.5 383.2 Q 348.5 381.6, 348.5 380.0 Q 348.5 378.3, 347.6 377.4 Q 346.8 376.4, 345.3 376.4 Q 343.9 376.4, 342.9 377.0 Q 342.0 377.6, 341.3 378.8 L 339.4 378.0 " fill="#000000"/>
<path class="atom-19" d="M 360.6 392.5 Q 357.3 392.5, 355.7 390.1 Q 354.1 387.7, 354.1 383.4 Q 354.1 379.2, 355.7 376.8 Q 357.3 374.4, 360.6 374.4 Q 363.8 374.4, 365.4 376.8 Q 367.0 379.2, 367.0 383.4 Q 367.0 387.7, 365.4 390.1 Q 363.8 392.5, 360.6 392.5 M 360.6 390.5 Q 362.5 390.5, 363.5 388.7 Q 364.5 386.9, 364.5 383.4 Q 364.5 380.0, 363.5 378.2 Q 362.5 376.4, 360.6 376.4 Q 358.7 376.4, 357.6 378.2 Q 356.6 380.0, 356.6 383.4 Q 356.6 386.9, 357.6 388.7 Q 358.7 390.5, 360.6 390.5 " fill="#000000"/>
<path class="atom-20" d="M 360.8 288.3 Q 360.8 283.9, 362.8 281.6 Q 364.9 279.3, 368.8 279.3 Q 372.5 279.3, 374.4 281.9 L 372.8 283.2 Q 371.3 281.4, 368.8 281.4 Q 366.1 281.4, 364.7 283.2 Q 363.3 284.9, 363.3 288.3 Q 363.3 291.8, 364.8 293.6 Q 366.2 295.4, 369.1 295.4 Q 371.0 295.4, 373.3 294.3 L 374.0 296.1 Q 373.1 296.7, 371.7 297.1 Q 370.3 297.4, 368.7 297.4 Q 364.9 297.4, 362.8 295.1 Q 360.8 292.7, 360.8 288.3 " fill="#000000"/>
<path class="atom-20" d="M 376.7 282.9 Q 377.3 281.2, 378.9 280.3 Q 380.4 279.3, 382.6 279.3 Q 385.3 279.3, 386.8 280.8 Q 388.3 282.2, 388.3 284.8 Q 388.3 287.4, 386.3 289.9 Q 384.4 292.3, 380.4 295.2 L 388.6 295.2 L 388.6 297.2 L 376.6 297.2 L 376.6 295.5 Q 379.9 293.2, 381.9 291.4 Q 383.9 289.7, 384.8 288.1 Q 385.8 286.5, 385.8 284.9 Q 385.8 283.2, 384.9 282.3 Q 384.1 281.3, 382.6 281.3 Q 381.2 281.3, 380.2 281.9 Q 379.3 282.5, 378.6 283.7 L 376.7 282.9 " fill="#000000"/>
<path class="atom-20" d="M 392.2 295.2 L 396.1 295.2 L 396.1 282.0 L 391.8 283.3 L 391.3 281.8 L 396.7 279.4 L 398.5 279.7 L 398.5 295.2 L 401.9 295.2 L 401.9 297.2 L 392.2 297.2 L 392.2 295.2 " fill="#000000"/>
<path class="atom-21" d="M 276.4 223.5 Q 276.4 219.1, 278.4 216.8 Q 280.5 214.5, 284.4 214.5 Q 288.1 214.5, 290.0 217.1 L 288.4 218.4 Q 287.0 216.6, 284.4 216.6 Q 281.8 216.6, 280.3 218.4 Q 278.9 220.1, 278.9 223.5 Q 278.9 227.0, 280.4 228.8 Q 281.9 230.6, 284.7 230.6 Q 286.7 230.6, 288.9 229.5 L 289.6 231.3 Q 288.7 231.9, 287.3 232.3 Q 285.9 232.6, 284.4 232.6 Q 280.5 232.6, 278.4 230.3 Q 276.4 227.9, 276.4 223.5 " fill="#000000"/>
<path class="atom-21" d="M 292.3 218.1 Q 293.0 216.4, 294.5 215.5 Q 296.1 214.5, 298.2 214.5 Q 300.9 214.5, 302.4 216.0 Q 303.9 217.4, 303.9 220.0 Q 303.9 222.6, 302.0 225.1 Q 300.0 227.5, 296.0 230.4 L 304.2 230.4 L 304.2 232.4 L 292.3 232.4 L 292.3 230.7 Q 295.6 228.4, 297.5 226.6 Q 299.5 224.9, 300.5 223.3 Q 301.4 221.7, 301.4 220.1 Q 301.4 218.4, 300.6 217.5 Q 299.7 216.5, 298.2 216.5 Q 296.8 216.5, 295.9 217.1 Q 294.9 217.7, 294.2 218.9 L 292.3 218.1 " fill="#000000"/>
<path class="atom-21" d="M 307.0 218.1 Q 307.7 216.4, 309.2 215.5 Q 310.8 214.5, 312.9 214.5 Q 315.6 214.5, 317.1 216.0 Q 318.6 217.4, 318.6 220.0 Q 318.6 222.6, 316.6 225.1 Q 314.7 227.5, 310.7 230.4 L 318.9 230.4 L 318.9 232.4 L 307.0 232.4 L 307.0 230.7 Q 310.3 228.4, 312.2 226.6 Q 314.2 224.9, 315.1 223.3 Q 316.1 221.7, 316.1 220.1 Q 316.1 218.4, 315.2 217.5 Q 314.4 216.5, 312.9 216.5 Q 311.5 216.5, 310.5 217.1 Q 309.6 217.7, 308.9 218.9 L 307.0 218.1 " fill="#000000"/>
<path class="atom-22" d="M 199.4 229.0 L 205.2 238.4 Q 205.8 239.3, 206.7 241.0 Q 207.7 242.7, 207.7 242.8 L 207.7 229.0 L 210.1 229.0 L 210.1 246.7 L 207.6 246.7 L 201.4 236.5 Q 200.7 235.3, 199.9 233.9 Q 199.2 232.5, 198.9 232.1 L 198.9 246.7 L 196.6 246.7 L 196.6 229.0 L 199.4 229.0 " fill="#0000FF"/>
<path class="atom-22" d="M 213.4 232.4 Q 214.1 230.7, 215.6 229.8 Q 217.2 228.8, 219.3 228.8 Q 222.0 228.8, 223.5 230.3 Q 225.0 231.7, 225.0 234.3 Q 225.0 236.9, 223.0 239.4 Q 221.1 241.8, 217.1 244.7 L 225.3 244.7 L 225.3 246.7 L 213.4 246.7 L 213.4 245.0 Q 216.7 242.7, 218.6 240.9 Q 220.6 239.2, 221.5 237.6 Q 222.5 236.0, 222.5 234.4 Q 222.5 232.7, 221.6 231.8 Q 220.8 230.8, 219.3 230.8 Q 217.9 230.8, 216.9 231.4 Q 216.0 232.0, 215.3 233.2 L 213.4 232.4 " fill="#0000FF"/>
<path class="atom-22" d="M 236.5 237.4 Q 238.3 237.9, 239.1 239.0 Q 239.9 240.1, 239.9 241.9 Q 239.9 243.4, 239.2 244.5 Q 238.4 245.7, 237.1 246.3 Q 235.7 247.0, 233.9 247.0 Q 232.0 247.0, 230.6 246.3 Q 229.2 245.6, 228.0 244.3 L 229.5 242.8 Q 230.6 244.0, 231.5 244.5 Q 232.4 245.0, 233.9 245.0 Q 235.5 245.0, 236.5 244.1 Q 237.4 243.2, 237.4 241.8 Q 237.4 240.0, 236.4 239.2 Q 235.4 238.4, 233.2 238.4 L 232.0 238.4 L 232.0 236.6 L 233.1 236.6 Q 235.0 236.6, 236.0 235.8 Q 237.1 234.9, 237.1 233.3 Q 237.1 232.2, 236.2 231.5 Q 235.4 230.8, 233.9 230.8 Q 232.4 230.8, 231.5 231.3 Q 230.6 231.9, 229.9 233.2 L 228.2 232.3 Q 228.8 230.8, 230.3 229.8 Q 231.8 228.8, 233.9 228.8 Q 236.5 228.8, 238.0 230.0 Q 239.6 231.3, 239.6 233.3 Q 239.6 234.8, 238.8 235.8 Q 238.0 236.8, 236.5 237.4 " fill="#0000FF"/>
<path class="atom-23" d="M 118.2 320.5 Q 118.2 316.1, 120.3 313.8 Q 122.4 311.4, 126.3 311.4 Q 129.9 311.4, 131.9 314.0 L 130.2 315.4 Q 128.8 313.5, 126.3 313.5 Q 123.6 313.5, 122.2 315.3 Q 120.8 317.1, 120.8 320.5 Q 120.8 324.0, 122.2 325.8 Q 123.7 327.6, 126.6 327.6 Q 128.5 327.6, 130.8 326.4 L 131.5 328.3 Q 130.6 328.9, 129.2 329.2 Q 127.8 329.6, 126.2 329.6 Q 122.4 329.6, 120.3 327.2 Q 118.2 324.9, 118.2 320.5 " fill="#000000"/>
<path class="atom-23" d="M 134.2 315.0 Q 134.9 313.3, 136.4 312.4 Q 138.0 311.4, 140.1 311.4 Q 142.8 311.4, 144.3 312.9 Q 145.8 314.3, 145.8 316.9 Q 145.8 319.5, 143.9 322.0 Q 141.9 324.4, 137.9 327.3 L 146.1 327.3 L 146.1 329.3 L 134.2 329.3 L 134.2 327.7 Q 137.5 325.3, 139.4 323.6 Q 141.4 321.8, 142.4 320.2 Q 143.3 318.7, 143.3 317.0 Q 143.3 315.3, 142.5 314.4 Q 141.6 313.4, 140.1 313.4 Q 138.7 313.4, 137.8 314.0 Q 136.8 314.6, 136.1 315.9 L 134.2 315.0 " fill="#000000"/>
<path class="atom-23" d="M 160.4 323.3 L 162.6 323.3 L 162.6 325.3 L 160.4 325.3 L 160.4 329.3 L 158.1 329.3 L 158.1 325.3 L 148.9 325.3 L 148.9 323.7 L 156.7 311.6 L 160.4 311.6 L 160.4 323.3 M 151.8 323.3 L 158.1 323.3 L 158.1 313.2 L 151.8 323.3 " fill="#000000"/>
<path class="atom-24" d="M 154.1 409.2 Q 154.1 404.8, 156.1 402.5 Q 158.2 400.2, 162.1 400.2 Q 165.8 400.2, 167.7 402.7 L 166.1 404.1 Q 164.7 402.2, 162.1 402.2 Q 159.5 402.2, 158.0 404.0 Q 156.6 405.8, 156.6 409.2 Q 156.6 412.7, 158.1 414.5 Q 159.6 416.3, 162.4 416.3 Q 164.4 416.3, 166.6 415.1 L 167.3 417.0 Q 166.4 417.6, 165.0 417.9 Q 163.6 418.3, 162.1 418.3 Q 158.2 418.3, 156.1 415.9 Q 154.1 413.6, 154.1 409.2 " fill="#000000"/>
<path class="atom-24" d="M 170.0 403.7 Q 170.7 402.0, 172.2 401.1 Q 173.8 400.2, 175.9 400.2 Q 178.6 400.2, 180.1 401.6 Q 181.6 403.1, 181.6 405.6 Q 181.6 408.3, 179.7 410.7 Q 177.7 413.2, 173.7 416.1 L 181.9 416.1 L 181.9 418.1 L 170.0 418.1 L 170.0 416.4 Q 173.3 414.0, 175.2 412.3 Q 177.2 410.5, 178.2 409.0 Q 179.1 407.4, 179.1 405.8 Q 179.1 404.1, 178.3 403.1 Q 177.4 402.2, 175.9 402.2 Q 174.5 402.2, 173.6 402.7 Q 172.6 403.3, 171.9 404.6 L 170.0 403.7 " fill="#000000"/>
<path class="atom-24" d="M 191.1 407.0 Q 192.6 407.0, 193.9 407.7 Q 195.2 408.3, 195.9 409.6 Q 196.6 410.8, 196.6 412.5 Q 196.6 414.3, 195.7 415.6 Q 194.9 416.9, 193.4 417.6 Q 192.0 418.3, 190.3 418.3 Q 188.7 418.3, 187.2 417.7 Q 185.7 417.1, 184.7 415.9 L 186.2 414.4 Q 187.0 415.3, 188.1 415.8 Q 189.2 416.2, 190.4 416.2 Q 192.0 416.2, 193.0 415.3 Q 194.1 414.3, 194.1 412.5 Q 194.1 410.6, 193.0 409.8 Q 192.0 408.9, 190.2 408.9 Q 188.7 408.9, 187.0 409.5 L 185.6 408.9 L 186.4 400.4 L 195.5 400.4 L 195.3 402.4 L 188.5 402.4 L 188.0 407.6 Q 189.5 407.0, 191.1 407.0 " fill="#000000"/>
<path class="atom-25" d="M 260.4 437.2 Q 260.4 432.8, 262.4 430.5 Q 264.5 428.2, 268.4 428.2 Q 272.1 428.2, 274.0 430.8 L 272.4 432.1 Q 270.9 430.3, 268.4 430.3 Q 265.7 430.3, 264.3 432.1 Q 262.9 433.8, 262.9 437.2 Q 262.9 440.7, 264.4 442.5 Q 265.8 444.3, 268.7 444.3 Q 270.6 444.3, 272.9 443.2 L 273.6 445.0 Q 272.7 445.6, 271.3 446.0 Q 269.9 446.3, 268.3 446.3 Q 264.5 446.3, 262.4 444.0 Q 260.4 441.6, 260.4 437.2 " fill="#000000"/>
<path class="atom-25" d="M 276.3 431.8 Q 277.0 430.1, 278.5 429.2 Q 280.1 428.2, 282.2 428.2 Q 284.9 428.2, 286.4 429.7 Q 287.9 431.1, 287.9 433.7 Q 287.9 436.3, 286.0 438.8 Q 284.0 441.2, 280.0 444.1 L 288.2 444.1 L 288.2 446.1 L 276.3 446.1 L 276.3 444.4 Q 279.6 442.1, 281.5 440.3 Q 283.5 438.6, 284.5 437.0 Q 285.4 435.4, 285.4 433.8 Q 285.4 432.1, 284.6 431.2 Q 283.7 430.2, 282.2 430.2 Q 280.8 430.2, 279.9 430.8 Q 278.9 431.4, 278.2 432.6 L 276.3 431.8 " fill="#000000"/>
<path class="atom-25" d="M 297.9 435.1 Q 299.4 435.1, 300.7 435.7 Q 301.9 436.4, 302.6 437.6 Q 303.2 438.9, 303.2 440.4 Q 303.2 442.1, 302.5 443.5 Q 301.7 444.8, 300.4 445.6 Q 299.0 446.3, 297.3 446.3 Q 294.1 446.3, 292.5 444.2 Q 291.0 442.0, 291.0 437.8 Q 291.0 433.1, 292.9 430.7 Q 294.9 428.2, 298.7 428.2 Q 299.8 428.2, 300.7 428.5 Q 301.6 428.7, 302.5 429.2 L 301.6 430.9 Q 300.3 430.2, 298.7 430.2 Q 296.2 430.2, 294.9 431.8 Q 293.6 433.4, 293.5 436.8 Q 294.4 435.9, 295.5 435.5 Q 296.7 435.1, 297.9 435.1 M 297.3 444.3 Q 298.3 444.3, 299.0 443.8 Q 299.8 443.3, 300.3 442.4 Q 300.7 441.5, 300.7 440.4 Q 300.7 438.9, 299.9 438.0 Q 299.0 437.1, 297.4 437.1 Q 296.4 437.1, 295.3 437.5 Q 294.2 437.9, 293.5 438.7 Q 293.6 441.6, 294.5 442.9 Q 295.4 444.3, 297.3 444.3 " fill="#000000"/>
<path class="atom-26" d="M 113.1 159.1 Q 113.1 154.7, 115.2 152.4 Q 117.3 150.1, 121.2 150.1 Q 124.8 150.1, 126.8 152.6 L 125.1 154.0 Q 123.7 152.1, 121.2 152.1 Q 118.5 152.1, 117.1 153.9 Q 115.7 155.7, 115.7 159.1 Q 115.7 162.6, 117.1 164.4 Q 118.6 166.2, 121.5 166.2 Q 123.4 166.2, 125.7 165.0 L 126.4 166.9 Q 125.5 167.5, 124.1 167.8 Q 122.7 168.2, 121.1 168.2 Q 117.3 168.2, 115.2 165.8 Q 113.1 163.5, 113.1 159.1 " fill="#000000"/>
<path class="atom-26" d="M 129.1 153.6 Q 129.7 151.9, 131.3 151.0 Q 132.8 150.1, 135.0 150.1 Q 137.7 150.1, 139.2 151.5 Q 140.7 153.0, 140.7 155.5 Q 140.7 158.2, 138.7 160.6 Q 136.8 163.1, 132.8 166.0 L 141.0 166.0 L 141.0 168.0 L 129.0 168.0 L 129.0 166.3 Q 132.3 163.9, 134.3 162.2 Q 136.3 160.4, 137.2 158.9 Q 138.2 157.3, 138.2 155.7 Q 138.2 154.0, 137.3 153.0 Q 136.5 152.1, 135.0 152.1 Q 133.6 152.1, 132.6 152.6 Q 131.7 153.2, 131.0 154.5 L 129.1 153.6 " fill="#000000"/>
<path class="atom-26" d="M 153.0 152.3 L 143.7 152.3 L 143.7 150.3 L 155.5 150.3 L 155.5 152.0 L 148.3 168.0 L 145.9 168.0 L 153.0 152.3 " fill="#000000"/>
<text x="1000" y="50" font-size="8" font-family="Verdana" font-weight="normal" letter-spacing="0" text-anchor="start" fill="black">Highlighted Atoms:
Primary SOM: Red
Secondary SOM: Green
Tertiary SOM: Cyan
</text></svg>
