<?xml version='1.0' encoding='ASCII' standalone='yes'?>
<svg xmlns="http://www.w3.org/2000/svg" xmlns:rdkit="http://www.rdkit.org/xml" xmlns:xlink="http://www.w3.org/1999/xlink" style="background-color: white;" version="1.1" baseProfile="full" xml:space="preserve" width="1000px" height="1000px" viewBox="0 0 1000 1000">
<!-- END OF HEADER -->
<rect style="opacity:1.0;fill:#FFFFFF;stroke:none" width="1000.0" height="1000.0" x="0.0" y="0.0"> </rect>
<ellipse cx="760.6" cy="762.2" rx="34.6" ry="34.6" class="atom-1" style="fill:#B20000;fill-rule:evenodd;stroke:#B20000;stroke-width:1.0px;stroke-linecap:butt;stroke-linejoin:miter;stroke-opacity:1"/>
<path class="bond-0 atom-1 atom-0" d="M 778.2,761.9 L 870.1,759.9" style="fill:none;fill-rule:evenodd;stroke:#000000;stroke-width:2.0px;stroke-linecap:butt;stroke-linejoin:miter;stroke-opacity:1"/>
<path class="bond-1 atom-2 atom-1" d="M 719.7,677.3 L 740.5,713.4" style="fill:none;fill-rule:evenodd;stroke:#FF0000;stroke-width:2.0px;stroke-linecap:butt;stroke-linejoin:miter;stroke-opacity:1"/>
<path class="bond-1 atom-2 atom-1" d="M 740.5,713.4 L 761.3,749.4" style="fill:none;fill-rule:evenodd;stroke:#000000;stroke-width:2.0px;stroke-linecap:butt;stroke-linejoin:miter;stroke-opacity:1"/>
<path class="bond-2 atom-3 atom-2" d="M 631.9,668.8 L 666.1,666.9" style="fill:none;fill-rule:evenodd;stroke:#000000;stroke-width:2.0px;stroke-linecap:butt;stroke-linejoin:miter;stroke-opacity:1"/>
<path class="bond-2 atom-3 atom-2" d="M 666.1,666.9 L 700.4,665.0" style="fill:none;fill-rule:evenodd;stroke:#FF0000;stroke-width:2.0px;stroke-linecap:butt;stroke-linejoin:miter;stroke-opacity:1"/>
<path class="bond-3 atom-4 atom-3" d="M 552.6,739.5 L 574.1,711.3" style="fill:none;fill-rule:evenodd;stroke:#FF0000;stroke-width:2.0px;stroke-linecap:butt;stroke-linejoin:miter;stroke-opacity:1"/>
<path class="bond-3 atom-4 atom-3" d="M 574.1,711.3 L 595.6,683.1" style="fill:none;fill-rule:evenodd;stroke:#000000;stroke-width:2.0px;stroke-linecap:butt;stroke-linejoin:miter;stroke-opacity:1"/>
<path class="bond-4 atom-5 atom-3" d="M 554.3,627.8 L 594.9,661.5" style="fill:none;fill-rule:evenodd;stroke:#000000;stroke-width:2.0px;stroke-linecap:butt;stroke-linejoin:miter;stroke-opacity:1"/>
<path class="bond-5 atom-6 atom-5" d="M 521.0,544.1 L 535.6,602.3" style="fill:none;fill-rule:evenodd;stroke:#000000;stroke-width:2.0px;stroke-linecap:butt;stroke-linejoin:miter;stroke-opacity:1"/>
<path class="bond-6 atom-7 atom-5" d="M 493.4,635.2 L 528.2,619.6" style="fill:none;fill-rule:evenodd;stroke:#000000;stroke-width:2.0px;stroke-linecap:butt;stroke-linejoin:miter;stroke-opacity:1"/>
<path class="bond-7 atom-8 atom-4" d="M 424.5,701.2 L 477.8,724.1" style="fill:none;fill-rule:evenodd;stroke:#000000;stroke-width:2.0px;stroke-linecap:butt;stroke-linejoin:miter;stroke-opacity:1"/>
<path class="bond-7 atom-8 atom-4" d="M 477.8,724.1 L 531.1,747.0" style="fill:none;fill-rule:evenodd;stroke:#FF0000;stroke-width:2.0px;stroke-linecap:butt;stroke-linejoin:miter;stroke-opacity:1"/>
<path class="bond-8 atom-9 atom-6" d="M 453.7,544.3 L 507.2,533.4" style="fill:none;fill-rule:evenodd;stroke:#000000;stroke-width:2.0px;stroke-linecap:butt;stroke-linejoin:miter;stroke-opacity:1"/>
<path class="bond-9 atom-9 atom-8" d="M 415.0,565.0 L 414.7,684.3" style="fill:none;fill-rule:evenodd;stroke:#000000;stroke-width:2.0px;stroke-linecap:butt;stroke-linejoin:miter;stroke-opacity:1"/>
<path class="bond-10 atom-10 atom-6" d="M 554.1,432.4 L 522.4,518.6" style="fill:none;fill-rule:evenodd;stroke:#000000;stroke-width:2.0px;stroke-linecap:butt;stroke-linejoin:miter;stroke-opacity:1"/>
<path class="bond-11 atom-11 atom-8" d="M 334.9,742.9 L 363.6,726.4" style="fill:none;fill-rule:evenodd;stroke:#FF0000;stroke-width:2.0px;stroke-linecap:butt;stroke-linejoin:miter;stroke-opacity:1"/>
<path class="bond-11 atom-11 atom-8" d="M 363.6,726.4 L 392.3,709.9" style="fill:none;fill-rule:evenodd;stroke:#000000;stroke-width:2.0px;stroke-linecap:butt;stroke-linejoin:miter;stroke-opacity:1"/>
<path class="bond-12 atom-12 atom-9" d="M 336.6,454.6 L 404.9,539.5" style="fill:none;fill-rule:evenodd;stroke:#000000;stroke-width:2.0px;stroke-linecap:butt;stroke-linejoin:miter;stroke-opacity:1"/>
<path class="bond-13 atom-13 atom-9" d="M 352.1,524.6 L 378.3,536.1" style="fill:none;fill-rule:evenodd;stroke:#FF0000;stroke-width:2.0px;stroke-linecap:butt;stroke-linejoin:miter;stroke-opacity:1"/>
<path class="bond-13 atom-13 atom-9" d="M 378.3,536.1 L 404.5,547.5" style="fill:none;fill-rule:evenodd;stroke:#000000;stroke-width:2.0px;stroke-linecap:butt;stroke-linejoin:miter;stroke-opacity:1"/>
<path class="bond-14 atom-14 atom-10" d="M 495.7,338.3 L 549.0,406.9" style="fill:none;fill-rule:evenodd;stroke:#000000;stroke-width:2.0px;stroke-linecap:butt;stroke-linejoin:miter;stroke-opacity:1"/>
<path class="bond-15 atom-15 atom-12" d="M 364.5,351.2 L 332.2,430.0" style="fill:none;fill-rule:evenodd;stroke:#000000;stroke-width:2.0px;stroke-linecap:butt;stroke-linejoin:miter;stroke-opacity:1"/>
<path class="bond-16 atom-15 atom-14" d="M 379.7,337.3 L 475.2,326.6" style="fill:none;fill-rule:evenodd;stroke:#000000;stroke-width:2.0px;stroke-linecap:butt;stroke-linejoin:miter;stroke-opacity:1"/>
<path class="bond-17 atom-16 atom-13" d="M 228.7,573.7 L 305.0,525.9" style="fill:none;fill-rule:evenodd;stroke:#FF0000;stroke-width:2.0px;stroke-linecap:butt;stroke-linejoin:miter;stroke-opacity:1"/>
<path class="bond-18 atom-17 atom-15" d="M 367.1,225.1 L 369.5,325.7" style="fill:none;fill-rule:evenodd;stroke:#000000;stroke-width:2.0px;stroke-linecap:butt;stroke-linejoin:miter;stroke-opacity:1"/>
<path class="bond-19 atom-18 atom-12" d="M 248.2,430.1 L 288.5,436.5" style="fill:none;fill-rule:evenodd;stroke:#000000;stroke-width:2.0px;stroke-linecap:butt;stroke-linejoin:miter;stroke-opacity:1"/>
<path class="bond-20 atom-19 atom-11" d="M 235.8,709.3 L 263.8,726.1" style="fill:none;fill-rule:evenodd;stroke:#000000;stroke-width:2.0px;stroke-linecap:butt;stroke-linejoin:miter;stroke-opacity:1"/>
<path class="bond-20 atom-19 atom-11" d="M 263.8,726.1 L 291.8,742.9" style="fill:none;fill-rule:evenodd;stroke:#FF0000;stroke-width:2.0px;stroke-linecap:butt;stroke-linejoin:miter;stroke-opacity:1"/>
<path class="bond-21 atom-19 atom-16" d="M 214.9,683.8 L 216.7,638.1" style="fill:none;fill-rule:evenodd;stroke:#000000;stroke-width:2.0px;stroke-linecap:butt;stroke-linejoin:miter;stroke-opacity:1"/>
<path class="bond-21 atom-19 atom-16" d="M 216.7,638.1 L 218.6,592.4" style="fill:none;fill-rule:evenodd;stroke:#FF0000;stroke-width:2.0px;stroke-linecap:butt;stroke-linejoin:miter;stroke-opacity:1"/>
<path class="bond-22 atom-20 atom-19" d="M 147.7,613.7 L 204.2,683.8" style="fill:none;fill-rule:evenodd;stroke:#000000;stroke-width:2.0px;stroke-linecap:butt;stroke-linejoin:miter;stroke-opacity:1"/>
<path class="bond-23 atom-21 atom-18" d="M 154.5,484.2 L 208.5,439.1" style="fill:none;fill-rule:evenodd;stroke:#000000;stroke-width:2.0px;stroke-linecap:butt;stroke-linejoin:miter;stroke-opacity:1"/>
<path class="bond-24 atom-21 atom-20" d="M 144.1,504.9 L 139.4,589.9" style="fill:none;fill-rule:evenodd;stroke:#000000;stroke-width:2.0px;stroke-linecap:butt;stroke-linejoin:miter;stroke-opacity:1"/>
<path class="bond-25 atom-22 atom-19" d="M 145.8,770.5 L 203.9,707.8" style="fill:none;fill-rule:evenodd;stroke:#000000;stroke-width:2.0px;stroke-linecap:butt;stroke-linejoin:miter;stroke-opacity:1"/>
<path class="atom-0" d="M 873.8 759.8 Q 873.8 755.4, 875.8 753.1 Q 877.9 750.7, 881.8 750.7 Q 885.5 750.7, 887.4 753.3 L 885.8 754.7 Q 884.4 752.8, 881.8 752.8 Q 879.2 752.8, 877.7 754.6 Q 876.3 756.4, 876.3 759.8 Q 876.3 763.3, 877.8 765.1 Q 879.3 766.9, 882.1 766.9 Q 884.1 766.9, 886.3 765.7 L 887.0 767.6 Q 886.1 768.2, 884.7 768.5 Q 883.3 768.9, 881.8 768.9 Q 877.9 768.9, 875.8 766.5 Q 873.8 764.2, 873.8 759.8 " fill="#000000"/>
<path class="atom-0" d="M 890.6 766.6 L 894.5 766.6 L 894.5 753.4 L 890.2 754.7 L 889.7 753.3 L 895.1 750.8 L 896.9 751.1 L 896.9 766.6 L 900.3 766.6 L 900.3 768.6 L 890.6 768.6 L 890.6 766.6 " fill="#000000"/>
<path class="atom-1" d="M 746.7 762.1 Q 746.7 757.7, 748.7 755.4 Q 750.8 753.1, 754.7 753.1 Q 758.4 753.1, 760.3 755.7 L 758.7 757.0 Q 757.3 755.2, 754.7 755.2 Q 752.1 755.2, 750.6 757.0 Q 749.2 758.7, 749.2 762.1 Q 749.2 765.6, 750.7 767.4 Q 752.2 769.2, 755.0 769.2 Q 757.0 769.2, 759.2 768.1 L 759.9 769.9 Q 759.0 770.5, 757.6 770.9 Q 756.2 771.2, 754.7 771.2 Q 750.8 771.2, 748.7 768.9 Q 746.7 766.5, 746.7 762.1 " fill="#000000"/>
<path class="atom-1" d="M 762.7 756.7 Q 763.3 755.0, 764.9 754.1 Q 766.4 753.1, 768.6 753.1 Q 771.2 753.1, 772.7 754.6 Q 774.2 756.0, 774.2 758.6 Q 774.2 761.2, 772.3 763.7 Q 770.4 766.1, 766.4 769.0 L 774.5 769.0 L 774.5 771.0 L 762.6 771.0 L 762.6 769.3 Q 765.9 767.0, 767.9 765.2 Q 769.8 763.5, 770.8 761.9 Q 771.7 760.3, 771.7 758.7 Q 771.7 757.0, 770.9 756.1 Q 770.0 755.1, 768.6 755.1 Q 767.1 755.1, 766.2 755.7 Q 765.2 756.3, 764.6 757.5 L 762.7 756.7 " fill="#000000"/>
<path class="atom-2" d="M 704.1 664.4 Q 704.1 660.2, 706.2 657.8 Q 708.3 655.4, 712.2 655.4 Q 716.1 655.4, 718.2 657.8 Q 720.3 660.2, 720.3 664.4 Q 720.3 668.7, 718.2 671.2 Q 716.1 673.6, 712.2 673.6 Q 708.3 673.6, 706.2 671.2 Q 704.1 668.8, 704.1 664.4 M 712.2 671.6 Q 714.9 671.6, 716.4 669.8 Q 717.8 668.0, 717.8 664.4 Q 717.8 661.0, 716.4 659.2 Q 714.9 657.4, 712.2 657.4 Q 709.5 657.4, 708.0 659.2 Q 706.6 660.9, 706.6 664.4 Q 706.6 668.0, 708.0 669.8 Q 709.5 671.6, 712.2 671.6 " fill="#FF0000"/>
<path class="atom-2" d="M 731.5 664.0 Q 733.2 664.5, 734.0 665.6 Q 734.9 666.7, 734.9 668.5 Q 734.9 670.0, 734.1 671.2 Q 733.4 672.3, 732.0 673.0 Q 730.6 673.6, 728.8 673.6 Q 726.9 673.6, 725.5 672.9 Q 724.1 672.3, 723.0 670.9 L 724.4 669.5 Q 725.5 670.7, 726.4 671.1 Q 727.4 671.6, 728.8 671.6 Q 730.4 671.6, 731.4 670.7 Q 732.4 669.9, 732.4 668.5 Q 732.4 666.7, 731.4 665.9 Q 730.4 665.0, 728.2 665.0 L 726.9 665.0 L 726.9 663.2 L 728.0 663.2 Q 730.0 663.2, 731.0 662.4 Q 732.0 661.5, 732.0 660.0 Q 732.0 658.8, 731.2 658.1 Q 730.3 657.4, 728.9 657.4 Q 727.4 657.4, 726.5 658.0 Q 725.6 658.5, 724.9 659.8 L 723.1 658.9 Q 723.8 657.4, 725.3 656.4 Q 726.8 655.4, 728.9 655.4 Q 731.5 655.4, 733.0 656.7 Q 734.5 657.9, 734.5 660.0 Q 734.5 661.4, 733.7 662.4 Q 733.0 663.4, 731.5 664.0 " fill="#FF0000"/>
<path class="atom-3" d="M 598.6 670.3 Q 598.6 665.9, 600.6 663.6 Q 602.7 661.3, 606.6 661.3 Q 610.3 661.3, 612.2 663.9 L 610.6 665.2 Q 609.1 663.3, 606.6 663.3 Q 603.9 663.3, 602.5 665.1 Q 601.1 666.9, 601.1 670.3 Q 601.1 673.8, 602.6 675.6 Q 604.0 677.4, 606.9 677.4 Q 608.8 677.4, 611.1 676.2 L 611.8 678.1 Q 610.9 678.7, 609.5 679.1 Q 608.1 679.4, 606.5 679.4 Q 602.7 679.4, 600.6 677.1 Q 598.6 674.7, 598.6 670.3 " fill="#000000"/>
<path class="atom-3" d="M 626.1 673.1 L 628.2 673.1 L 628.2 675.1 L 626.1 675.1 L 626.1 679.2 L 623.7 679.2 L 623.7 675.1 L 614.6 675.1 L 614.6 673.5 L 622.3 661.5 L 626.1 661.5 L 626.1 673.1 M 617.5 673.1 L 623.7 673.1 L 623.7 663.1 L 617.5 673.1 " fill="#000000"/>
<path class="atom-4" d="M 534.8 752.2 Q 534.8 747.9, 536.9 745.6 Q 539.0 743.2, 543.0 743.2 Q 546.9 743.2, 549.0 745.6 Q 551.1 747.9, 551.1 752.2 Q 551.1 756.5, 549.0 758.9 Q 546.8 761.4, 543.0 761.4 Q 539.1 761.4, 536.9 758.9 Q 534.8 756.5, 534.8 752.2 M 543.0 759.4 Q 545.7 759.4, 547.1 757.6 Q 548.6 755.7, 548.6 752.2 Q 548.6 748.7, 547.1 747.0 Q 545.7 745.2, 543.0 745.2 Q 540.3 745.2, 538.8 746.9 Q 537.3 748.7, 537.3 752.2 Q 537.3 755.8, 538.8 757.6 Q 540.3 759.4, 543.0 759.4 " fill="#FF0000"/>
<path class="atom-4" d="M 560.2 750.0 Q 561.7 750.0, 563.0 750.7 Q 564.3 751.3, 565.0 752.6 Q 565.7 753.8, 565.7 755.5 Q 565.7 757.3, 564.8 758.6 Q 564.0 759.9, 562.5 760.6 Q 561.1 761.3, 559.4 761.3 Q 557.8 761.3, 556.3 760.7 Q 554.8 760.1, 553.8 758.9 L 555.3 757.4 Q 556.1 758.3, 557.2 758.8 Q 558.3 759.3, 559.5 759.3 Q 561.1 759.3, 562.1 758.3 Q 563.2 757.3, 563.2 755.5 Q 563.2 753.7, 562.1 752.8 Q 561.1 751.9, 559.3 751.9 Q 557.8 751.9, 556.1 752.6 L 554.7 751.9 L 555.5 743.4 L 564.6 743.4 L 564.4 745.4 L 557.6 745.4 L 557.1 750.6 Q 558.6 750.0, 560.2 750.0 " fill="#FF0000"/>
<path class="atom-5" d="M 531.9 615.0 Q 531.9 610.6, 534.0 608.3 Q 536.1 606.0, 540.0 606.0 Q 543.6 606.0, 545.6 608.6 L 543.9 609.9 Q 542.5 608.0, 540.0 608.0 Q 537.3 608.0, 535.9 609.8 Q 534.5 611.6, 534.5 615.0 Q 534.5 618.5, 535.9 620.3 Q 537.4 622.1, 540.3 622.1 Q 542.2 622.1, 544.5 620.9 L 545.2 622.8 Q 544.3 623.4, 542.9 623.8 Q 541.5 624.1, 539.9 624.1 Q 536.1 624.1, 534.0 621.8 Q 531.9 619.4, 531.9 615.0 " fill="#000000"/>
<path class="atom-5" d="M 554.8 612.8 Q 556.4 612.8, 557.6 613.5 Q 558.8 614.2, 559.5 615.4 Q 560.2 616.6, 560.2 618.2 Q 560.2 619.9, 559.4 621.3 Q 558.6 622.6, 557.3 623.3 Q 555.9 624.1, 554.2 624.1 Q 551.1 624.1, 549.5 622.0 Q 547.9 619.8, 547.9 615.6 Q 547.9 610.9, 549.8 608.4 Q 551.8 606.0, 555.6 606.0 Q 556.7 606.0, 557.6 606.2 Q 558.6 606.5, 559.5 607.0 L 558.5 608.7 Q 557.2 608.0, 555.6 608.0 Q 553.1 608.0, 551.8 609.6 Q 550.6 611.2, 550.4 614.5 Q 551.3 613.7, 552.4 613.3 Q 553.6 612.8, 554.8 612.8 M 554.2 622.0 Q 555.2 622.0, 556.0 621.5 Q 556.8 621.0, 557.2 620.2 Q 557.7 619.3, 557.7 618.2 Q 557.7 616.6, 556.8 615.7 Q 555.9 614.8, 554.4 614.8 Q 553.3 614.8, 552.2 615.3 Q 551.2 615.7, 550.4 616.5 Q 550.5 619.4, 551.4 620.7 Q 552.4 622.0, 554.2 622.0 " fill="#000000"/>
<path class="atom-6" d="M 510.9 531.3 Q 510.9 526.9, 513.0 524.6 Q 515.1 522.3, 519.0 522.3 Q 522.6 522.3, 524.6 524.9 L 522.9 526.2 Q 521.5 524.3, 519.0 524.3 Q 516.3 524.3, 514.9 526.1 Q 513.5 527.9, 513.5 531.3 Q 513.5 534.8, 514.9 536.6 Q 516.4 538.4, 519.3 538.4 Q 521.2 538.4, 523.5 537.2 L 524.2 539.1 Q 523.3 539.7, 521.9 540.1 Q 520.5 540.4, 518.9 540.4 Q 515.1 540.4, 513.0 538.1 Q 510.9 535.7, 510.9 531.3 " fill="#000000"/>
<path class="atom-6" d="M 536.1 524.5 L 526.8 524.5 L 526.8 522.5 L 538.6 522.5 L 538.6 524.3 L 531.4 540.2 L 529.0 540.2 L 536.1 524.5 " fill="#000000"/>
<path class="atom-7" d="M 461.2 639.7 Q 461.2 635.3, 463.3 633.0 Q 465.3 630.7, 469.3 630.7 Q 472.9 630.7, 474.9 633.3 L 473.2 634.6 Q 471.8 632.8, 469.3 632.8 Q 466.6 632.8, 465.2 634.6 Q 463.8 636.3, 463.8 639.7 Q 463.8 643.2, 465.2 645.0 Q 466.7 646.8, 469.5 646.8 Q 471.5 646.8, 473.8 645.7 L 474.5 647.5 Q 473.5 648.1, 472.1 648.5 Q 470.7 648.8, 469.2 648.8 Q 465.3 648.8, 463.3 646.5 Q 461.2 644.1, 461.2 639.7 " fill="#000000"/>
<path class="atom-7" d="M 486.2 639.2 Q 487.8 639.9, 488.8 641.0 Q 489.7 642.0, 489.7 643.8 Q 489.7 645.3, 488.9 646.4 Q 488.1 647.6, 486.7 648.2 Q 485.4 648.9, 483.5 648.9 Q 480.6 648.9, 478.9 647.5 Q 477.2 646.1, 477.2 643.8 Q 477.2 642.3, 477.9 641.2 Q 478.7 640.1, 480.2 639.3 Q 479.1 638.7, 478.5 637.7 Q 477.8 636.7, 477.8 635.2 Q 477.8 633.2, 479.3 631.9 Q 480.9 630.7, 483.4 630.7 Q 486.0 630.7, 487.5 631.9 Q 489.0 633.2, 489.0 635.2 Q 489.0 636.5, 488.3 637.5 Q 487.6 638.5, 486.2 639.2 M 483.4 632.6 Q 482.0 632.6, 481.1 633.3 Q 480.3 634.0, 480.3 635.2 Q 480.3 636.2, 480.9 636.8 Q 481.4 637.4, 482.2 637.7 Q 483.0 638.1, 484.5 638.6 Q 485.6 637.9, 486.1 637.1 Q 486.5 636.3, 486.5 635.2 Q 486.5 634.0, 485.7 633.3 Q 484.9 632.6, 483.4 632.6 M 483.5 647.0 Q 485.2 647.0, 486.2 646.1 Q 487.2 645.2, 487.2 643.7 Q 487.2 642.8, 486.7 642.2 Q 486.1 641.6, 485.3 641.2 Q 484.6 640.9, 483.2 640.4 L 482.0 640.1 Q 480.8 640.8, 480.2 641.7 Q 479.7 642.6, 479.7 643.7 Q 479.7 645.2, 480.7 646.1 Q 481.8 647.0, 483.5 647.0 " fill="#000000"/>
<path class="atom-8" d="M 392.5 697.1 Q 392.5 692.7, 394.6 690.4 Q 396.7 688.0, 400.6 688.0 Q 404.2 688.0, 406.2 690.6 L 404.5 692.0 Q 403.1 690.1, 400.6 690.1 Q 397.9 690.1, 396.5 691.9 Q 395.1 693.7, 395.1 697.1 Q 395.1 700.6, 396.5 702.4 Q 398.0 704.2, 400.9 704.2 Q 402.8 704.2, 405.1 703.0 L 405.8 704.9 Q 404.9 705.5, 403.5 705.8 Q 402.1 706.2, 400.5 706.2 Q 396.7 706.2, 394.6 703.8 Q 392.5 701.5, 392.5 697.1 " fill="#000000"/>
<path class="atom-8" d="M 414.4 688.0 Q 417.6 688.0, 419.2 690.2 Q 420.8 692.3, 420.8 696.6 Q 420.8 701.3, 418.8 703.7 Q 416.8 706.1, 413.1 706.1 Q 412.0 706.1, 411.0 705.9 Q 410.1 705.6, 409.2 705.1 L 410.2 703.4 Q 411.5 704.1, 413.0 704.1 Q 415.5 704.1, 416.8 702.5 Q 418.1 700.9, 418.2 697.6 Q 417.3 698.4, 416.2 698.9 Q 415.1 699.3, 413.8 699.3 Q 412.3 699.3, 411.1 698.6 Q 409.8 697.9, 409.2 696.7 Q 408.5 695.5, 408.5 693.9 Q 408.5 692.2, 409.2 690.9 Q 410.0 689.5, 411.4 688.8 Q 412.7 688.0, 414.4 688.0 M 411.0 693.9 Q 411.0 695.5, 411.9 696.4 Q 412.7 697.3, 414.3 697.3 Q 415.4 697.3, 416.4 696.9 Q 417.5 696.4, 418.2 695.7 Q 418.1 692.7, 417.2 691.4 Q 416.3 690.1, 414.4 690.1 Q 413.5 690.1, 412.7 690.6 Q 411.9 691.1, 411.4 692.0 Q 411.0 692.8, 411.0 693.9 " fill="#000000"/>
<path class="atom-9" d="M 408.2 552.2 Q 408.2 547.8, 410.3 545.5 Q 412.4 543.2, 416.3 543.2 Q 419.9 543.2, 421.9 545.8 L 420.2 547.1 Q 418.8 545.2, 416.3 545.2 Q 413.6 545.2, 412.2 547.0 Q 410.8 548.8, 410.8 552.2 Q 410.8 555.7, 412.2 557.5 Q 413.7 559.3, 416.6 559.3 Q 418.5 559.3, 420.8 558.1 L 421.5 560.0 Q 420.6 560.6, 419.2 561.0 Q 417.8 561.3, 416.2 561.3 Q 412.4 561.3, 410.3 559.0 Q 408.2 556.6, 408.2 552.2 " fill="#000000"/>
<path class="atom-9" d="M 425.1 559.1 L 429.0 559.1 L 429.0 545.9 L 424.7 547.2 L 424.1 545.7 L 429.6 543.3 L 431.3 543.6 L 431.3 559.1 L 434.8 559.1 L 434.8 561.1 L 425.1 561.1 L 425.1 559.1 " fill="#000000"/>
<path class="atom-9" d="M 443.6 561.3 Q 440.3 561.3, 438.7 558.9 Q 437.1 556.5, 437.1 552.2 Q 437.1 547.9, 438.7 545.6 Q 440.3 543.2, 443.6 543.2 Q 446.8 543.2, 448.4 545.6 Q 450.0 547.9, 450.0 552.2 Q 450.0 556.5, 448.4 558.9 Q 446.8 561.3, 443.6 561.3 M 443.6 559.3 Q 445.5 559.3, 446.5 557.5 Q 447.5 555.7, 447.5 552.2 Q 447.5 548.7, 446.5 547.0 Q 445.5 545.2, 443.6 545.2 Q 441.7 545.2, 440.6 547.0 Q 439.6 548.7, 439.6 552.2 Q 439.6 555.7, 440.6 557.5 Q 441.7 559.3, 443.6 559.3 " fill="#000000"/>
<path class="atom-10" d="M 552.0 419.6 Q 552.0 415.2, 554.1 412.9 Q 556.2 410.6, 560.1 410.6 Q 563.7 410.6, 565.7 413.2 L 564.0 414.5 Q 562.6 412.7, 560.1 412.7 Q 557.4 412.7, 556.0 414.5 Q 554.6 416.2, 554.6 419.6 Q 554.6 423.1, 556.0 424.9 Q 557.5 426.7, 560.4 426.7 Q 562.3 426.7, 564.6 425.6 L 565.3 427.4 Q 564.4 428.0, 563.0 428.4 Q 561.6 428.7, 560.0 428.7 Q 556.2 428.7, 554.1 426.4 Q 552.0 424.0, 552.0 419.6 " fill="#000000"/>
<path class="atom-10" d="M 568.8 426.5 L 572.7 426.5 L 572.7 413.3 L 568.4 414.6 L 567.8 413.1 L 573.3 410.7 L 575.0 411.0 L 575.0 426.5 L 578.5 426.5 L 578.5 428.5 L 568.8 428.5 L 568.8 426.5 " fill="#000000"/>
<path class="atom-10" d="M 581.7 426.5 L 585.6 426.5 L 585.6 413.3 L 581.3 414.6 L 580.7 413.1 L 586.2 410.7 L 587.9 411.0 L 587.9 426.5 L 591.4 426.5 L 591.4 428.5 L 581.7 428.5 L 581.7 426.5 " fill="#000000"/>
<path class="atom-11" d="M 291.0 755.6 Q 291.0 751.4, 293.1 749.0 Q 295.2 746.6, 299.2 746.6 Q 303.1 746.6, 305.2 749.0 Q 307.3 751.4, 307.3 755.6 Q 307.3 759.9, 305.2 762.4 Q 303.0 764.8, 299.2 764.8 Q 295.3 764.8, 293.1 762.4 Q 291.0 760.0, 291.0 755.6 M 299.2 762.8 Q 301.9 762.8, 303.3 761.0 Q 304.8 759.2, 304.8 755.6 Q 304.8 752.2, 303.3 750.4 Q 301.9 748.6, 299.2 748.6 Q 296.5 748.6, 295.0 750.4 Q 293.5 752.1, 293.5 755.6 Q 293.5 759.2, 295.0 761.0 Q 296.5 762.8, 299.2 762.8 " fill="#FF0000"/>
<path class="atom-11" d="M 310.8 762.5 L 314.7 762.5 L 314.7 749.3 L 310.4 750.6 L 309.8 749.2 L 315.2 746.7 L 317.0 747.0 L 317.0 762.5 L 320.5 762.5 L 320.5 764.5 L 310.8 764.5 L 310.8 762.5 " fill="#FF0000"/>
<path class="atom-11" d="M 322.9 750.2 Q 323.5 748.5, 325.1 747.6 Q 326.6 746.6, 328.8 746.6 Q 331.5 746.6, 333.0 748.1 Q 334.5 749.5, 334.5 752.1 Q 334.5 754.7, 332.5 757.2 Q 330.6 759.6, 326.6 762.5 L 334.8 762.5 L 334.8 764.5 L 322.8 764.5 L 322.8 762.9 Q 326.1 760.5, 328.1 758.8 Q 330.1 757.0, 331.0 755.4 Q 332.0 753.9, 332.0 752.2 Q 332.0 750.5, 331.1 749.6 Q 330.3 748.6, 328.8 748.6 Q 327.4 748.6, 326.4 749.2 Q 325.5 749.8, 324.8 751.1 L 322.9 750.2 " fill="#FF0000"/>
<path class="atom-12" d="M 292.2 442.7 Q 292.2 438.3, 294.3 436.0 Q 296.3 433.7, 300.3 433.7 Q 303.9 433.7, 305.9 436.3 L 304.2 437.6 Q 302.8 435.7, 300.3 435.7 Q 297.6 435.7, 296.2 437.5 Q 294.8 439.3, 294.8 442.7 Q 294.8 446.2, 296.2 448.0 Q 297.7 449.8, 300.5 449.8 Q 302.5 449.8, 304.8 448.6 L 305.5 450.5 Q 304.5 451.1, 303.1 451.5 Q 301.7 451.8, 300.2 451.8 Q 296.3 451.8, 294.3 449.5 Q 292.2 447.1, 292.2 442.7 " fill="#000000"/>
<path class="atom-12" d="M 309.0 449.6 L 312.9 449.6 L 312.9 436.4 L 308.6 437.7 L 308.1 436.2 L 313.5 433.8 L 315.3 434.1 L 315.3 449.6 L 318.7 449.6 L 318.7 451.6 L 309.0 451.6 L 309.0 449.6 " fill="#000000"/>
<path class="atom-12" d="M 329.5 442.3 Q 331.2 442.8, 332.1 443.9 Q 332.9 445.0, 332.9 446.7 Q 332.9 448.2, 332.2 449.4 Q 331.4 450.6, 330.0 451.2 Q 328.7 451.8, 326.9 451.8 Q 325.0 451.8, 323.5 451.2 Q 322.1 450.5, 321.0 449.2 L 322.4 447.7 Q 323.5 448.9, 324.5 449.4 Q 325.4 449.8, 326.9 449.8 Q 328.5 449.8, 329.4 449.0 Q 330.4 448.1, 330.4 446.7 Q 330.4 444.9, 329.4 444.1 Q 328.4 443.3, 326.2 443.3 L 324.9 443.3 L 324.9 441.5 L 326.1 441.5 Q 328.0 441.5, 329.0 440.6 Q 330.0 439.8, 330.0 438.2 Q 330.0 437.1, 329.2 436.4 Q 328.3 435.7, 326.9 435.7 Q 325.4 435.7, 324.5 436.2 Q 323.6 436.7, 322.9 438.1 L 321.2 437.1 Q 321.8 435.7, 323.3 434.7 Q 324.8 433.7, 326.9 433.7 Q 329.5 433.7, 331.0 434.9 Q 332.5 436.1, 332.5 438.2 Q 332.5 439.6, 331.8 440.7 Q 331.0 441.7, 329.5 442.3 " fill="#000000"/>
<path class="atom-13" d="M 302.8 513.0 Q 302.8 508.8, 304.9 506.4 Q 307.0 504.0, 311.0 504.0 Q 314.9 504.0, 317.0 506.4 Q 319.1 508.8, 319.1 513.0 Q 319.1 517.3, 317.0 519.8 Q 314.8 522.2, 311.0 522.2 Q 307.1 522.2, 304.9 519.8 Q 302.8 517.4, 302.8 513.0 M 311.0 520.2 Q 313.7 520.2, 315.1 518.4 Q 316.6 516.6, 316.6 513.0 Q 316.6 509.6, 315.1 507.8 Q 313.7 506.0, 311.0 506.0 Q 308.3 506.0, 306.8 507.8 Q 305.3 509.5, 305.3 513.0 Q 305.3 516.6, 306.8 518.4 Q 308.3 520.2, 311.0 520.2 " fill="#FF0000"/>
<path class="atom-13" d="M 322.7 519.9 L 326.5 519.9 L 326.5 506.7 L 322.3 508.0 L 321.7 506.6 L 327.1 504.1 L 328.9 504.4 L 328.9 519.9 L 332.4 519.9 L 332.4 521.9 L 322.7 521.9 L 322.7 519.9 " fill="#FF0000"/>
<path class="atom-13" d="M 346.3 515.9 L 348.4 515.9 L 348.4 517.9 L 346.3 517.9 L 346.3 521.9 L 343.9 521.9 L 343.9 517.9 L 334.8 517.9 L 334.8 516.3 L 342.5 504.2 L 346.3 504.2 L 346.3 515.9 M 337.7 515.9 L 343.9 515.9 L 343.9 505.8 L 337.7 515.9 " fill="#FF0000"/>
<path class="atom-14" d="M 478.9 325.5 Q 478.9 321.1, 481.0 318.8 Q 483.0 316.5, 487.0 316.5 Q 490.6 316.5, 492.6 319.1 L 490.9 320.4 Q 489.5 318.5, 487.0 318.5 Q 484.3 318.5, 482.9 320.3 Q 481.5 322.1, 481.5 325.5 Q 481.5 329.0, 482.9 330.8 Q 484.4 332.6, 487.2 332.6 Q 489.2 332.6, 491.5 331.4 L 492.2 333.3 Q 491.2 333.9, 489.8 334.3 Q 488.4 334.6, 486.9 334.6 Q 483.0 334.6, 481.0 332.3 Q 478.9 329.9, 478.9 325.5 " fill="#000000"/>
<path class="atom-14" d="M 495.7 332.4 L 499.6 332.4 L 499.6 319.2 L 495.3 320.5 L 494.8 319.0 L 500.2 316.6 L 502.0 316.9 L 502.0 332.4 L 505.4 332.4 L 505.4 334.4 L 495.7 334.4 L 495.7 332.4 " fill="#000000"/>
<path class="atom-14" d="M 514.1 323.3 Q 515.7 323.3, 517.0 324.0 Q 518.2 324.6, 519.0 325.9 Q 519.7 327.1, 519.7 328.8 Q 519.7 330.6, 518.8 331.9 Q 517.9 333.2, 516.5 333.9 Q 515.0 334.6, 513.4 334.6 Q 511.7 334.6, 510.2 334.0 Q 508.7 333.4, 507.7 332.2 L 509.2 330.7 Q 510.0 331.6, 511.2 332.1 Q 512.3 332.6, 513.4 332.6 Q 515.0 332.6, 516.1 331.6 Q 517.2 330.6, 517.2 328.8 Q 517.2 327.0, 516.1 326.1 Q 515.0 325.2, 513.3 325.2 Q 511.7 325.2, 510.0 325.9 L 508.6 325.2 L 509.5 316.7 L 518.6 316.7 L 518.3 318.7 L 511.5 318.7 L 511.0 323.9 Q 512.6 323.3, 514.1 323.3 " fill="#000000"/>
<path class="atom-15" d="M 334.9 338.4 Q 334.9 334.0, 336.9 331.7 Q 339.0 329.4, 342.9 329.4 Q 346.6 329.4, 348.5 332.0 L 346.9 333.3 Q 345.4 331.5, 342.9 331.5 Q 340.2 331.5, 338.8 333.3 Q 337.4 335.0, 337.4 338.4 Q 337.4 341.9, 338.9 343.7 Q 340.3 345.5, 343.2 345.5 Q 345.1 345.5, 347.4 344.4 L 348.1 346.2 Q 347.2 346.8, 345.8 347.2 Q 344.4 347.5, 342.8 347.5 Q 339.0 347.5, 336.9 345.2 Q 334.9 342.8, 334.9 338.4 " fill="#000000"/>
<path class="atom-15" d="M 351.7 345.3 L 355.6 345.3 L 355.6 332.1 L 351.3 333.4 L 350.7 331.9 L 356.2 329.5 L 357.9 329.8 L 357.9 345.3 L 361.4 345.3 L 361.4 347.3 L 351.7 347.3 L 351.7 345.3 " fill="#000000"/>
<path class="atom-15" d="M 370.6 336.3 Q 372.1 336.3, 373.4 336.9 Q 374.6 337.6, 375.3 338.8 Q 375.9 340.1, 375.9 341.6 Q 375.9 343.3, 375.2 344.7 Q 374.4 346.0, 373.1 346.8 Q 371.7 347.5, 370.0 347.5 Q 366.8 347.5, 365.2 345.4 Q 363.7 343.2, 363.7 339.0 Q 363.7 334.3, 365.6 331.9 Q 367.6 329.4, 371.4 329.4 Q 372.5 329.4, 373.4 329.7 Q 374.3 329.9, 375.2 330.4 L 374.3 332.1 Q 373.0 331.4, 371.4 331.4 Q 368.9 331.4, 367.6 333.0 Q 366.3 334.6, 366.2 338.0 Q 367.1 337.1, 368.2 336.7 Q 369.4 336.3, 370.6 336.3 M 370.0 345.5 Q 371.0 345.5, 371.7 345.0 Q 372.5 344.5, 373.0 343.6 Q 373.4 342.7, 373.4 341.6 Q 373.4 340.1, 372.6 339.2 Q 371.7 338.3, 370.1 338.3 Q 369.1 338.3, 368.0 338.7 Q 366.9 339.1, 366.2 339.9 Q 366.3 342.8, 367.2 344.1 Q 368.1 345.5, 370.0 345.5 " fill="#000000"/>
<path class="atom-16" d="M 181.4 579.8 Q 181.4 575.5, 183.5 573.1 Q 185.6 570.8, 189.5 570.8 Q 193.4 570.8, 195.5 573.1 Q 197.6 575.5, 197.6 579.8 Q 197.6 584.1, 195.5 586.5 Q 193.4 588.9, 189.5 588.9 Q 185.6 588.9, 183.5 586.5 Q 181.4 584.1, 181.4 579.8 M 189.5 586.9 Q 192.2 586.9, 193.7 585.1 Q 195.1 583.3, 195.1 579.8 Q 195.1 576.3, 193.7 574.5 Q 192.2 572.8, 189.5 572.8 Q 186.8 572.8, 185.3 574.5 Q 183.9 576.3, 183.9 579.8 Q 183.9 583.3, 185.3 585.1 Q 186.8 586.9, 189.5 586.9 " fill="#FF0000"/>
<path class="atom-16" d="M 201.2 586.7 L 205.0 586.7 L 205.0 573.4 L 200.8 574.8 L 200.2 573.3 L 205.6 570.9 L 207.4 571.2 L 207.4 586.7 L 210.9 586.7 L 210.9 588.7 L 201.2 588.7 L 201.2 586.7 " fill="#FF0000"/>
<path class="atom-16" d="M 222.5 573.0 L 213.2 573.0 L 213.2 571.0 L 225.0 571.0 L 225.0 572.7 L 217.8 588.7 L 215.4 588.7 L 222.5 573.0 " fill="#FF0000"/>
<path class="atom-17" d="M 359.9 212.3 Q 359.9 207.9, 362.0 205.6 Q 364.0 203.3, 368.0 203.3 Q 371.6 203.3, 373.6 205.8 L 371.9 207.2 Q 370.5 205.3, 368.0 205.3 Q 365.3 205.3, 363.9 207.1 Q 362.5 208.9, 362.5 212.3 Q 362.5 215.8, 363.9 217.6 Q 365.4 219.4, 368.2 219.4 Q 370.2 219.4, 372.5 218.2 L 373.2 220.1 Q 372.2 220.7, 370.8 221.0 Q 369.4 221.4, 367.9 221.4 Q 364.0 221.4, 362.0 219.0 Q 359.9 216.7, 359.9 212.3 " fill="#000000"/>
<path class="atom-17" d="M 376.8 219.2 L 380.6 219.2 L 380.6 205.9 L 376.4 207.3 L 375.8 205.8 L 381.2 203.4 L 383.0 203.7 L 383.0 219.2 L 386.5 219.2 L 386.5 221.2 L 376.8 221.2 L 376.8 219.2 " fill="#000000"/>
<path class="atom-17" d="M 397.8 211.8 Q 399.4 212.5, 400.3 213.5 Q 401.2 214.6, 401.2 216.3 Q 401.2 217.8, 400.5 219.0 Q 399.7 220.1, 398.3 220.8 Q 396.9 221.4, 395.1 221.4 Q 392.1 221.4, 390.4 220.1 Q 388.7 218.7, 388.7 216.3 Q 388.7 214.9, 389.5 213.8 Q 390.2 212.7, 391.8 211.9 Q 390.6 211.2, 390.0 210.3 Q 389.4 209.3, 389.4 207.8 Q 389.4 205.7, 390.9 204.5 Q 392.4 203.3, 395.0 203.3 Q 397.6 203.3, 399.1 204.5 Q 400.6 205.7, 400.6 207.8 Q 400.6 209.1, 399.9 210.1 Q 399.2 211.0, 397.8 211.8 M 395.0 205.1 Q 393.5 205.1, 392.7 205.8 Q 391.9 206.5, 391.9 207.8 Q 391.9 208.7, 392.4 209.3 Q 393.0 209.9, 393.8 210.3 Q 394.6 210.6, 396.1 211.2 Q 397.2 210.4, 397.6 209.6 Q 398.1 208.8, 398.1 207.8 Q 398.1 206.5, 397.3 205.8 Q 396.5 205.1, 395.0 205.1 M 395.1 219.5 Q 396.7 219.5, 397.7 218.7 Q 398.7 217.8, 398.7 216.3 Q 398.7 215.3, 398.2 214.7 Q 397.7 214.1, 396.9 213.8 Q 396.1 213.4, 394.7 213.0 L 393.6 212.6 Q 392.3 213.4, 391.8 214.3 Q 391.2 215.1, 391.2 216.3 Q 391.2 217.8, 392.3 218.7 Q 393.3 219.5, 395.1 219.5 " fill="#000000"/>
<path class="atom-18" d="M 203.4 426.3 Q 203.4 421.9, 205.4 419.6 Q 207.5 417.3, 211.4 417.3 Q 215.1 417.3, 217.0 419.9 L 215.4 421.2 Q 214.0 419.3, 211.4 419.3 Q 208.8 419.3, 207.3 421.1 Q 205.9 422.9, 205.9 426.3 Q 205.9 429.8, 207.4 431.6 Q 208.9 433.4, 211.7 433.4 Q 213.7 433.4, 215.9 432.2 L 216.6 434.1 Q 215.7 434.7, 214.3 435.1 Q 212.9 435.4, 211.4 435.4 Q 207.5 435.4, 205.4 433.1 Q 203.4 430.7, 203.4 426.3 " fill="#000000"/>
<path class="atom-18" d="M 220.2 433.2 L 224.1 433.2 L 224.1 420.0 L 219.8 421.3 L 219.3 419.8 L 224.7 417.4 L 226.5 417.7 L 226.5 433.2 L 229.9 433.2 L 229.9 435.2 L 220.2 435.2 L 220.2 433.2 " fill="#000000"/>
<path class="atom-18" d="M 238.2 417.3 Q 241.3 417.3, 242.9 419.4 Q 244.5 421.6, 244.5 425.8 Q 244.5 430.5, 242.5 433.0 Q 240.6 435.4, 236.8 435.4 Q 235.7 435.4, 234.7 435.1 Q 233.8 434.9, 232.9 434.4 L 233.9 432.7 Q 235.2 433.4, 236.8 433.4 Q 239.3 433.4, 240.5 431.8 Q 241.8 430.2, 242.0 426.8 Q 241.1 427.7, 239.9 428.1 Q 238.8 428.5, 237.6 428.5 Q 236.0 428.5, 234.8 427.9 Q 233.6 427.2, 232.9 426.0 Q 232.2 424.7, 232.2 423.2 Q 232.2 421.5, 233.0 420.1 Q 233.7 418.8, 235.1 418.0 Q 236.4 417.3, 238.2 417.3 M 234.7 423.2 Q 234.7 424.7, 235.6 425.6 Q 236.5 426.5, 238.0 426.5 Q 239.1 426.5, 240.1 426.1 Q 241.2 425.7, 242.0 424.9 Q 241.9 422.0, 240.9 420.7 Q 240.0 419.3, 238.1 419.3 Q 237.2 419.3, 236.4 419.8 Q 235.6 420.3, 235.2 421.2 Q 234.7 422.1, 234.7 423.2 " fill="#000000"/>
<path class="atom-19" d="M 207.6 696.5 Q 207.6 692.1, 209.6 689.8 Q 211.7 687.5, 215.6 687.5 Q 219.3 687.5, 221.2 690.1 L 219.6 691.4 Q 218.2 689.5, 215.6 689.5 Q 213.0 689.5, 211.5 691.3 Q 210.1 693.1, 210.1 696.5 Q 210.1 700.0, 211.6 701.8 Q 213.1 703.6, 215.9 703.6 Q 217.9 703.6, 220.1 702.4 L 220.8 704.3 Q 219.9 704.9, 218.5 705.3 Q 217.1 705.6, 215.6 705.6 Q 211.7 705.6, 209.6 703.3 Q 207.6 700.9, 207.6 696.5 " fill="#000000"/>
<path class="atom-19" d="M 223.6 691.0 Q 224.2 689.4, 225.8 688.4 Q 227.3 687.5, 229.5 687.5 Q 232.2 687.5, 233.7 688.9 Q 235.2 690.4, 235.2 693.0 Q 235.2 695.6, 233.2 698.0 Q 231.3 700.5, 227.3 703.4 L 235.5 703.4 L 235.5 705.4 L 223.5 705.4 L 223.5 703.7 Q 226.8 701.4, 228.8 699.6 Q 230.8 697.9, 231.7 696.3 Q 232.7 694.7, 232.7 693.1 Q 232.7 691.4, 231.8 690.4 Q 231.0 689.5, 229.5 689.5 Q 228.1 689.5, 227.1 690.1 Q 226.2 690.6, 225.5 691.9 L 223.6 691.0 " fill="#000000"/>
<path class="atom-19" d="M 244.7 705.6 Q 241.5 705.6, 239.8 703.2 Q 238.2 700.8, 238.2 696.5 Q 238.2 692.2, 239.8 689.9 Q 241.4 687.5, 244.7 687.5 Q 248.0 687.5, 249.6 689.9 Q 251.2 692.2, 251.2 696.5 Q 251.2 700.8, 249.6 703.2 Q 248.0 705.6, 244.7 705.6 M 244.7 703.6 Q 246.6 703.6, 247.7 701.8 Q 248.7 700.0, 248.7 696.5 Q 248.7 693.0, 247.7 691.3 Q 246.6 689.5, 244.7 689.5 Q 242.8 689.5, 241.8 691.3 Q 240.7 693.0, 240.7 696.5 Q 240.7 700.0, 241.8 701.8 Q 242.8 703.6, 244.7 703.6 " fill="#000000"/>
<path class="atom-20" d="M 102.8 602.6 Q 102.8 598.2, 104.9 595.9 Q 106.9 593.5, 110.9 593.5 Q 114.5 593.5, 116.5 596.1 L 114.8 597.5 Q 113.4 595.6, 110.9 595.6 Q 108.2 595.6, 106.8 597.4 Q 105.4 599.2, 105.4 602.6 Q 105.4 606.1, 106.8 607.9 Q 108.3 609.7, 111.1 609.7 Q 113.1 609.7, 115.4 608.5 L 116.1 610.4 Q 115.1 611.0, 113.7 611.3 Q 112.3 611.7, 110.8 611.7 Q 106.9 611.7, 104.9 609.3 Q 102.8 607.0, 102.8 602.6 " fill="#000000"/>
<path class="atom-20" d="M 118.7 597.1 Q 119.4 595.4, 120.9 594.5 Q 122.5 593.5, 124.6 593.5 Q 127.3 593.5, 128.8 595.0 Q 130.3 596.4, 130.3 599.0 Q 130.3 601.6, 128.4 604.1 Q 126.4 606.5, 122.4 609.4 L 130.6 609.4 L 130.6 611.4 L 118.7 611.4 L 118.7 609.8 Q 122.0 607.4, 123.9 605.7 Q 125.9 603.9, 126.9 602.3 Q 127.8 600.8, 127.8 599.1 Q 127.8 597.4, 127.0 596.5 Q 126.1 595.5, 124.6 595.5 Q 123.2 595.5, 122.3 596.1 Q 121.3 596.7, 120.6 598.0 L 118.7 597.1 " fill="#000000"/>
<path class="atom-20" d="M 134.3 609.4 L 138.2 609.4 L 138.2 596.2 L 133.9 597.5 L 133.3 596.1 L 138.7 593.6 L 140.5 593.9 L 140.5 609.4 L 144.0 609.4 L 144.0 611.4 L 134.3 611.4 L 134.3 609.4 " fill="#000000"/>
<path class="atom-21" d="M 108.3 492.3 Q 108.3 487.9, 110.4 485.6 Q 112.4 483.3, 116.4 483.3 Q 120.0 483.3, 122.0 485.9 L 120.3 487.2 Q 118.9 485.3, 116.4 485.3 Q 113.7 485.3, 112.3 487.1 Q 110.9 488.9, 110.9 492.3 Q 110.9 495.8, 112.3 497.6 Q 113.8 499.4, 116.6 499.4 Q 118.6 499.4, 120.9 498.2 L 121.6 500.1 Q 120.6 500.7, 119.2 501.1 Q 117.8 501.4, 116.3 501.4 Q 112.4 501.4, 110.4 499.1 Q 108.3 496.7, 108.3 492.3 " fill="#000000"/>
<path class="atom-21" d="M 124.3 486.8 Q 124.9 485.2, 126.5 484.2 Q 128.0 483.3, 130.2 483.3 Q 132.8 483.3, 134.3 484.7 Q 135.8 486.2, 135.8 488.8 Q 135.8 491.4, 133.9 493.8 Q 132.0 496.3, 128.0 499.2 L 136.1 499.2 L 136.1 501.2 L 124.2 501.2 L 124.2 499.5 Q 127.5 497.2, 129.5 495.4 Q 131.4 493.7, 132.4 492.1 Q 133.3 490.5, 133.3 488.9 Q 133.3 487.2, 132.5 486.2 Q 131.6 485.3, 130.2 485.3 Q 128.7 485.3, 127.8 485.9 Q 126.8 486.4, 126.2 487.7 L 124.3 486.8 " fill="#000000"/>
<path class="atom-21" d="M 138.9 486.8 Q 139.6 485.2, 141.1 484.2 Q 142.7 483.3, 144.8 483.3 Q 147.5 483.3, 149.0 484.7 Q 150.5 486.2, 150.5 488.8 Q 150.5 491.4, 148.6 493.8 Q 146.6 496.3, 142.6 499.2 L 150.8 499.2 L 150.8 501.2 L 138.9 501.2 L 138.9 499.5 Q 142.2 497.2, 144.1 495.4 Q 146.1 493.7, 147.1 492.1 Q 148.0 490.5, 148.0 488.9 Q 148.0 487.2, 147.2 486.2 Q 146.3 485.3, 144.8 485.3 Q 143.4 485.3, 142.5 485.9 Q 141.5 486.4, 140.8 487.7 L 138.9 486.8 " fill="#000000"/>
<path class="atom-22" d="M 99.7 781.0 Q 99.7 776.6, 101.7 774.3 Q 103.8 771.9, 107.7 771.9 Q 111.4 771.9, 113.3 774.5 L 111.7 775.9 Q 110.2 774.0, 107.7 774.0 Q 105.0 774.0, 103.6 775.8 Q 102.2 777.6, 102.2 781.0 Q 102.2 784.5, 103.7 786.3 Q 105.1 788.1, 108.0 788.1 Q 109.9 788.1, 112.2 786.9 L 112.9 788.8 Q 112.0 789.4, 110.6 789.7 Q 109.2 790.1, 107.6 790.1 Q 103.8 790.1, 101.7 787.7 Q 99.7 785.4, 99.7 781.0 " fill="#000000"/>
<path class="atom-22" d="M 115.6 775.5 Q 116.3 773.8, 117.8 772.9 Q 119.4 771.9, 121.5 771.9 Q 124.2 771.9, 125.7 773.4 Q 127.2 774.8, 127.2 777.4 Q 127.2 780.0, 125.2 782.5 Q 123.3 784.9, 119.3 787.8 L 127.5 787.8 L 127.5 789.8 L 115.6 789.8 L 115.6 788.2 Q 118.9 785.8, 120.8 784.1 Q 122.8 782.3, 123.7 780.7 Q 124.7 779.2, 124.7 777.5 Q 124.7 775.8, 123.8 774.9 Q 123.0 773.9, 121.5 773.9 Q 120.1 773.9, 119.1 774.5 Q 118.2 775.1, 117.5 776.4 L 115.6 775.5 " fill="#000000"/>
<path class="atom-22" d="M 138.7 780.5 Q 140.5 781.0, 141.3 782.1 Q 142.1 783.2, 142.1 785.0 Q 142.1 786.5, 141.4 787.7 Q 140.6 788.8, 139.3 789.5 Q 137.9 790.1, 136.1 790.1 Q 134.2 790.1, 132.8 789.4 Q 131.4 788.8, 130.2 787.4 L 131.7 786.0 Q 132.8 787.2, 133.7 787.6 Q 134.6 788.1, 136.1 788.1 Q 137.7 788.1, 138.7 787.2 Q 139.6 786.4, 139.6 785.0 Q 139.6 783.2, 138.6 782.4 Q 137.6 781.5, 135.4 781.5 L 134.2 781.5 L 134.2 779.7 L 135.3 779.7 Q 137.2 779.7, 138.2 778.9 Q 139.3 778.0, 139.3 776.5 Q 139.3 775.3, 138.4 774.6 Q 137.6 773.9, 136.1 773.9 Q 134.6 773.9, 133.7 774.5 Q 132.8 775.0, 132.1 776.3 L 130.4 775.4 Q 131.0 773.9, 132.5 772.9 Q 134.0 771.9, 136.1 771.9 Q 138.7 771.9, 140.2 773.2 Q 141.8 774.4, 141.8 776.5 Q 141.8 777.9, 141.0 778.9 Q 140.2 779.9, 138.7 780.5 " fill="#000000"/>
<text x="1000" y="50" font-size="8" font-family="Verdana" font-weight="normal" letter-spacing="0" text-anchor="start" fill="black">Highlighted Atoms:
Primary SOM: Red
Secondary SOM: Green
Tertiary SOM: Cyan
</text></svg>
