<?xml version='1.0' encoding='ASCII' standalone='yes'?>
<svg xmlns="http://www.w3.org/2000/svg" xmlns:rdkit="http://www.rdkit.org/xml" xmlns:xlink="http://www.w3.org/1999/xlink" style="background-color: white;" version="1.1" baseProfile="full" xml:space="preserve" width="1000px" height="1000px" viewBox="0 0 1000 1000">
<!-- END OF HEADER -->
<rect style="opacity:1.0;fill:#FFFFFF;stroke:none" width="1000.0" height="1000.0" x="0.0" y="0.0"> </rect>
<ellipse cx="462.9" cy="772.8" rx="33.7" ry="33.7" class="atom-30" style="fill:#B20000;fill-rule:evenodd;stroke:#B20000;stroke-width:1.0px;stroke-linecap:butt;stroke-linejoin:miter;stroke-opacity:1"/>
<path class="bond-0 atom-1 atom-0" d="M 237.4,196.7 L 165.8,238.0" style="fill:none;fill-rule:evenodd;stroke:#000000;stroke-width:2.0px;stroke-linecap:butt;stroke-linejoin:miter;stroke-opacity:1"/>
<path class="bond-1 atom-2 atom-1" d="M 331.5,231.5 L 272.7,196.9" style="fill:none;fill-rule:evenodd;stroke:#000000;stroke-width:2.0px;stroke-linecap:butt;stroke-linejoin:miter;stroke-opacity:1"/>
<path class="bond-1 atom-2 atom-1" d="M 322.9,246.1 L 264.1,211.6" style="fill:none;fill-rule:evenodd;stroke:#000000;stroke-width:2.0px;stroke-linecap:butt;stroke-linejoin:miter;stroke-opacity:1"/>
<path class="bond-2 atom-3 atom-2" d="M 351.8,345.1 L 352.9,257.1" style="fill:none;fill-rule:evenodd;stroke:#000000;stroke-width:2.0px;stroke-linecap:butt;stroke-linejoin:miter;stroke-opacity:1"/>
<path class="bond-3 atom-4 atom-3" d="M 262.3,407.1 L 341.1,363.7" style="fill:none;fill-rule:evenodd;stroke:#000000;stroke-width:2.0px;stroke-linecap:butt;stroke-linejoin:miter;stroke-opacity:1"/>
<path class="bond-3 atom-4 atom-3" d="M 254.1,392.2 L 332.9,348.8" style="fill:none;fill-rule:evenodd;stroke:#000000;stroke-width:2.0px;stroke-linecap:butt;stroke-linejoin:miter;stroke-opacity:1"/>
<path class="bond-4 atom-5 atom-0" d="M 155.9,342.9 L 156.6,255.9" style="fill:none;fill-rule:evenodd;stroke:#000000;stroke-width:2.0px;stroke-linecap:butt;stroke-linejoin:miter;stroke-opacity:1"/>
<path class="bond-4 atom-5 atom-0" d="M 172.9,343.0 L 173.6,256.1" style="fill:none;fill-rule:evenodd;stroke:#000000;stroke-width:2.0px;stroke-linecap:butt;stroke-linejoin:miter;stroke-opacity:1"/>
<path class="bond-5 atom-5 atom-4" d="M 165.7,361.4 L 231.0,399.8" style="fill:none;fill-rule:evenodd;stroke:#000000;stroke-width:2.0px;stroke-linecap:butt;stroke-linejoin:miter;stroke-opacity:1"/>
<path class="bond-6 atom-6 atom-1" d="M 255.5,87.3 L 255.3,130.6" style="fill:none;fill-rule:evenodd;stroke:#FF0000;stroke-width:2.0px;stroke-linecap:butt;stroke-linejoin:miter;stroke-opacity:1"/>
<path class="bond-6 atom-6 atom-1" d="M 255.3,130.6 L 255.1,173.9" style="fill:none;fill-rule:evenodd;stroke:#000000;stroke-width:2.0px;stroke-linecap:butt;stroke-linejoin:miter;stroke-opacity:1"/>
<path class="bond-7 atom-7 atom-2" d="M 475.7,237.6 L 419.2,240.6" style="fill:none;fill-rule:evenodd;stroke:#FF0000;stroke-width:2.0px;stroke-linecap:butt;stroke-linejoin:miter;stroke-opacity:1"/>
<path class="bond-7 atom-7 atom-2" d="M 419.2,240.6 L 362.7,243.6" style="fill:none;fill-rule:evenodd;stroke:#000000;stroke-width:2.0px;stroke-linecap:butt;stroke-linejoin:miter;stroke-opacity:1"/>
<path class="bond-8 atom-8 atom-3" d="M 426.7,401.9 L 373.3,370.5" style="fill:none;fill-rule:evenodd;stroke:#000000;stroke-width:2.0px;stroke-linecap:butt;stroke-linejoin:miter;stroke-opacity:1"/>
<path class="bond-9 atom-9 atom-4" d="M 252.7,514.5 L 252.6,425.3" style="fill:none;fill-rule:evenodd;stroke:#000000;stroke-width:2.0px;stroke-linecap:butt;stroke-linejoin:miter;stroke-opacity:1"/>
<path class="bond-10 atom-10 atom-9" d="M 328.4,571.1 L 262.9,533.1" style="fill:none;fill-rule:evenodd;stroke:#000000;stroke-width:2.0px;stroke-linecap:butt;stroke-linejoin:miter;stroke-opacity:1"/>
<path class="bond-11 atom-11 atom-8" d="M 448.7,512.9 L 448.4,427.5" style="fill:none;fill-rule:evenodd;stroke:#000000;stroke-width:2.0px;stroke-linecap:butt;stroke-linejoin:miter;stroke-opacity:1"/>
<path class="bond-12 atom-11 atom-10" d="M 426.9,538.5 L 359.3,578.5" style="fill:none;fill-rule:evenodd;stroke:#000000;stroke-width:2.0px;stroke-linecap:butt;stroke-linejoin:miter;stroke-opacity:1"/>
<path class="bond-13 atom-12 atom-7" d="M 541.9,345.5 L 517.9,297.8" style="fill:none;fill-rule:evenodd;stroke:#000000;stroke-width:2.0px;stroke-linecap:butt;stroke-linejoin:miter;stroke-opacity:1"/>
<path class="bond-13 atom-12 atom-7" d="M 517.9,297.8 L 494.0,250.0" style="fill:none;fill-rule:evenodd;stroke:#FF0000;stroke-width:2.0px;stroke-linecap:butt;stroke-linejoin:miter;stroke-opacity:1"/>
<path class="bond-14 atom-12 atom-8" d="M 537.6,364.2 L 458.2,409.0" style="fill:none;fill-rule:evenodd;stroke:#000000;stroke-width:2.0px;stroke-linecap:butt;stroke-linejoin:miter;stroke-opacity:1"/>
<path class="bond-15 atom-13 atom-12" d="M 635.9,409.0 L 570.5,371.1" style="fill:none;fill-rule:evenodd;stroke:#000000;stroke-width:2.0px;stroke-linecap:butt;stroke-linejoin:miter;stroke-opacity:1"/>
<path class="bond-16 atom-14 atom-11" d="M 522.3,574.0 L 458.5,531.9" style="fill:none;fill-rule:evenodd;stroke:#000000;stroke-width:2.0px;stroke-linecap:butt;stroke-linejoin:miter;stroke-opacity:1"/>
<path class="bond-17 atom-15 atom-13" d="M 640.6,522.5 L 645.7,428.0" style="fill:none;fill-rule:evenodd;stroke:#000000;stroke-width:2.0px;stroke-linecap:butt;stroke-linejoin:miter;stroke-opacity:1"/>
<path class="bond-18 atom-15 atom-14" d="M 629.4,540.7 L 565.4,574.2" style="fill:none;fill-rule:evenodd;stroke:#000000;stroke-width:2.0px;stroke-linecap:butt;stroke-linejoin:miter;stroke-opacity:1"/>
<path class="bond-19 atom-16 atom-15" d="M 701.5,608.7 L 650.6,547.9" style="fill:none;fill-rule:evenodd;stroke:#000000;stroke-width:2.0px;stroke-linecap:butt;stroke-linejoin:miter;stroke-opacity:1"/>
<path class="bond-20 atom-17 atom-16" d="M 776.2,539.6 L 748.9,574.3" style="fill:none;fill-rule:evenodd;stroke:#FF0000;stroke-width:2.0px;stroke-linecap:butt;stroke-linejoin:miter;stroke-opacity:1"/>
<path class="bond-20 atom-17 atom-16" d="M 748.9,574.3 L 721.6,609.1" style="fill:none;fill-rule:evenodd;stroke:#000000;stroke-width:2.0px;stroke-linecap:butt;stroke-linejoin:miter;stroke-opacity:1"/>
<path class="bond-21 atom-18 atom-16" d="M 821.5,619.1 L 721.6,621.1" style="fill:none;fill-rule:evenodd;stroke:#000000;stroke-width:2.0px;stroke-linecap:butt;stroke-linejoin:miter;stroke-opacity:1"/>
<path class="bond-22 atom-19 atom-16" d="M 714.9,705.0 L 712.5,634.0" style="fill:none;fill-rule:evenodd;stroke:#000000;stroke-width:2.0px;stroke-linecap:butt;stroke-linejoin:miter;stroke-opacity:1"/>
<path class="bond-23 atom-20 atom-19" d="M 617.8,719.5 L 704.8,717.8" style="fill:none;fill-rule:evenodd;stroke:#000000;stroke-width:2.0px;stroke-linecap:butt;stroke-linejoin:miter;stroke-opacity:1"/>
<path class="bond-24 atom-21 atom-19" d="M 675.4,800.7 L 709.1,730.6" style="fill:none;fill-rule:evenodd;stroke:#000000;stroke-width:2.0px;stroke-linecap:butt;stroke-linejoin:miter;stroke-opacity:1"/>
<path class="bond-25 atom-22 atom-19" d="M 810.1,760.9 L 743.6,730.5" style="fill:none;fill-rule:evenodd;stroke:#000000;stroke-width:2.0px;stroke-linecap:butt;stroke-linejoin:miter;stroke-opacity:1"/>
<path class="bond-26 atom-23 atom-13" d="M 618.5,472.1 L 640.1,428.0" style="fill:none;fill-rule:evenodd;stroke:#000000;stroke-width:2.0px;stroke-linecap:butt;stroke-linejoin:miter;stroke-opacity:1"/>
<path class="bond-27 atom-24 atom-13" d="M 732.4,367.4 L 700.8,384.9" style="fill:none;fill-rule:evenodd;stroke:#FF0000;stroke-width:2.0px;stroke-linecap:butt;stroke-linejoin:miter;stroke-opacity:1"/>
<path class="bond-27 atom-24 atom-13" d="M 700.8,384.9 L 669.1,402.5" style="fill:none;fill-rule:evenodd;stroke:#000000;stroke-width:2.0px;stroke-linecap:butt;stroke-linejoin:miter;stroke-opacity:1"/>
<path class="bond-28 atom-25 atom-24" d="M 745.4,261.1 L 744.9,304.6" style="fill:none;fill-rule:evenodd;stroke:#000000;stroke-width:2.0px;stroke-linecap:butt;stroke-linejoin:miter;stroke-opacity:1"/>
<path class="bond-28 atom-25 atom-24" d="M 744.9,304.6 L 744.5,348.1" style="fill:none;fill-rule:evenodd;stroke:#FF0000;stroke-width:2.0px;stroke-linecap:butt;stroke-linejoin:miter;stroke-opacity:1"/>
<path class="bond-29 atom-26 atom-11" d="M 511.6,529.1 L 458.5,526.1" style="fill:none;fill-rule:evenodd;stroke:#000000;stroke-width:2.0px;stroke-linecap:butt;stroke-linejoin:miter;stroke-opacity:1"/>
<path class="bond-30 atom-26 atom-23" d="M 557.1,518.1 L 601.7,491.2" style="fill:none;fill-rule:evenodd;stroke:#000000;stroke-width:2.0px;stroke-linecap:butt;stroke-linejoin:miter;stroke-opacity:1"/>
<path class="bond-31 atom-27 atom-8" d="M 553.1,463.5 L 458.2,419.2" style="fill:none;fill-rule:evenodd;stroke:#000000;stroke-width:2.0px;stroke-linecap:butt;stroke-linejoin:miter;stroke-opacity:1"/>
<path class="bond-32 atom-28 atom-10" d="M 437.4,643.5 L 398.3,616.7" style="fill:none;fill-rule:evenodd;stroke:#0000FF;stroke-width:2.0px;stroke-linecap:butt;stroke-linejoin:miter;stroke-opacity:1"/>
<path class="bond-32 atom-28 atom-10" d="M 398.3,616.7 L 359.3,590.0" style="fill:none;fill-rule:evenodd;stroke:#000000;stroke-width:2.0px;stroke-linecap:butt;stroke-linejoin:miter;stroke-opacity:1"/>
<path class="bond-33 atom-29 atom-27" d="M 566.0,582.3 L 563.9,481.4" style="fill:none;fill-rule:evenodd;stroke:#000000;stroke-width:2.0px;stroke-linecap:butt;stroke-linejoin:miter;stroke-opacity:1"/>
<path class="bond-34 atom-29 atom-28" d="M 555.7,600.8 L 517.2,622.0" style="fill:none;fill-rule:evenodd;stroke:#000000;stroke-width:2.0px;stroke-linecap:butt;stroke-linejoin:miter;stroke-opacity:1"/>
<path class="bond-34 atom-29 atom-28" d="M 517.2,622.0 L 478.7,643.3" style="fill:none;fill-rule:evenodd;stroke:#0000FF;stroke-width:2.0px;stroke-linecap:butt;stroke-linejoin:miter;stroke-opacity:1"/>
<path class="bond-35 atom-30 atom-28" d="M 449.9,759.9 L 452.4,714.3" style="fill:none;fill-rule:evenodd;stroke:#000000;stroke-width:2.0px;stroke-linecap:butt;stroke-linejoin:miter;stroke-opacity:1"/>
<path class="bond-35 atom-30 atom-28" d="M 452.4,714.3 L 454.9,668.6" style="fill:none;fill-rule:evenodd;stroke:#0000FF;stroke-width:2.0px;stroke-linecap:butt;stroke-linejoin:miter;stroke-opacity:1"/>
<path class="bond-36 atom-31 atom-30" d="M 369.6,816.4 L 438.6,778.4" style="fill:none;fill-rule:evenodd;stroke:#000000;stroke-width:2.0px;stroke-linecap:butt;stroke-linejoin:miter;stroke-opacity:1"/>
<path class="bond-37 atom-32 atom-31" d="M 244.0,827.1 L 335.9,828.9" style="fill:none;fill-rule:evenodd;stroke:#000000;stroke-width:2.0px;stroke-linecap:butt;stroke-linejoin:miter;stroke-opacity:1"/>
<path class="bond-38 atom-33 atom-31" d="M 296.3,912.7 L 338.7,842.0" style="fill:none;fill-rule:evenodd;stroke:#000000;stroke-width:2.0px;stroke-linecap:butt;stroke-linejoin:miter;stroke-opacity:1"/>
<path class="bond-39 atom-33 atom-32" d="M 281.6,912.7 L 241.5,839.8" style="fill:none;fill-rule:evenodd;stroke:#000000;stroke-width:2.0px;stroke-linecap:butt;stroke-linejoin:miter;stroke-opacity:1"/>
<path class="atom-0" d="M 135.5 243.3 Q 135.5 238.9, 137.6 236.6 Q 139.7 234.3, 143.6 234.3 Q 147.2 234.3, 149.2 236.9 L 147.5 238.2 Q 146.1 236.3, 143.6 236.3 Q 140.9 236.3, 139.5 238.1 Q 138.1 239.9, 138.1 243.3 Q 138.1 246.8, 139.5 248.6 Q 141.0 250.4, 143.9 250.4 Q 145.8 250.4, 148.1 249.2 L 148.8 251.1 Q 147.9 251.7, 146.5 252.1 Q 145.1 252.4, 143.5 252.4 Q 139.7 252.4, 137.6 250.1 Q 135.5 247.7, 135.5 243.3 " fill="#000000"/>
<path class="atom-0" d="M 152.4 250.2 L 156.2 250.2 L 156.2 237.0 L 152.0 238.3 L 151.4 236.8 L 156.8 234.4 L 158.6 234.7 L 158.6 250.2 L 162.1 250.2 L 162.1 252.2 L 152.4 252.2 L 152.4 250.2 " fill="#000000"/>
<path class="atom-1" d="M 241.2 186.6 Q 241.2 182.2, 243.2 179.9 Q 245.3 177.6, 249.2 177.6 Q 252.9 177.6, 254.8 180.2 L 253.2 181.5 Q 251.7 179.6, 249.2 179.6 Q 246.5 179.6, 245.1 181.4 Q 243.7 183.2, 243.7 186.6 Q 243.7 190.1, 245.2 191.9 Q 246.6 193.7, 249.5 193.7 Q 251.4 193.7, 253.7 192.5 L 254.4 194.4 Q 253.5 195.0, 252.1 195.4 Q 250.7 195.7, 249.1 195.7 Q 245.3 195.7, 243.2 193.4 Q 241.2 191.0, 241.2 186.6 " fill="#000000"/>
<path class="atom-1" d="M 257.1 181.1 Q 257.8 179.5, 259.3 178.5 Q 260.9 177.6, 263.0 177.6 Q 265.7 177.6, 267.2 179.0 Q 268.7 180.5, 268.7 183.1 Q 268.7 185.7, 266.8 188.1 Q 264.8 190.6, 260.8 193.5 L 269.0 193.5 L 269.0 195.5 L 257.1 195.5 L 257.1 193.8 Q 260.4 191.5, 262.3 189.7 Q 264.3 188.0, 265.3 186.4 Q 266.2 184.8, 266.2 183.2 Q 266.2 181.5, 265.4 180.5 Q 264.5 179.6, 263.0 179.6 Q 261.6 179.6, 260.7 180.2 Q 259.7 180.7, 259.0 182.0 L 257.1 181.1 " fill="#000000"/>
<path class="atom-2" d="M 331.2 244.2 Q 331.2 239.8, 333.2 237.5 Q 335.3 235.2, 339.2 235.2 Q 342.9 235.2, 344.8 237.8 L 343.2 239.1 Q 341.7 237.3, 339.2 237.3 Q 336.5 237.3, 335.1 239.1 Q 333.7 240.8, 333.7 244.2 Q 333.7 247.7, 335.2 249.5 Q 336.6 251.3, 339.5 251.3 Q 341.4 251.3, 343.7 250.2 L 344.4 252.0 Q 343.5 252.6, 342.1 253.0 Q 340.7 253.3, 339.1 253.3 Q 335.3 253.3, 333.2 251.0 Q 331.2 248.6, 331.2 244.2 " fill="#000000"/>
<path class="atom-2" d="M 355.6 243.8 Q 357.3 244.3, 358.1 245.4 Q 359.0 246.5, 359.0 248.3 Q 359.0 249.8, 358.2 250.9 Q 357.5 252.1, 356.1 252.7 Q 354.7 253.4, 352.9 253.4 Q 351.0 253.4, 349.6 252.7 Q 348.2 252.0, 347.1 250.7 L 348.5 249.2 Q 349.6 250.4, 350.5 250.9 Q 351.5 251.4, 352.9 251.4 Q 354.5 251.4, 355.5 250.5 Q 356.5 249.6, 356.5 248.2 Q 356.5 246.4, 355.5 245.6 Q 354.5 244.8, 352.3 244.8 L 351.0 244.8 L 351.0 243.0 L 352.1 243.0 Q 354.1 243.0, 355.1 242.2 Q 356.1 241.3, 356.1 239.7 Q 356.1 238.6, 355.3 237.9 Q 354.4 237.2, 353.0 237.2 Q 351.5 237.2, 350.6 237.7 Q 349.7 238.3, 349.0 239.6 L 347.2 238.7 Q 347.9 237.2, 349.4 236.2 Q 350.9 235.2, 353.0 235.2 Q 355.6 235.2, 357.1 236.4 Q 358.6 237.7, 358.6 239.7 Q 358.6 241.2, 357.8 242.2 Q 357.1 243.2, 355.6 243.8 " fill="#000000"/>
<path class="atom-3" d="M 344.8 357.9 Q 344.8 353.5, 346.9 351.2 Q 348.9 348.9, 352.9 348.9 Q 356.5 348.9, 358.5 351.5 L 356.8 352.8 Q 355.4 350.9, 352.9 350.9 Q 350.2 350.9, 348.8 352.7 Q 347.4 354.5, 347.4 357.9 Q 347.4 361.4, 348.8 363.2 Q 350.3 365.0, 353.1 365.0 Q 355.1 365.0, 357.4 363.8 L 358.1 365.7 Q 357.1 366.3, 355.7 366.7 Q 354.3 367.0, 352.8 367.0 Q 348.9 367.0, 346.9 364.7 Q 344.8 362.3, 344.8 357.9 " fill="#000000"/>
<path class="atom-3" d="M 372.3 360.7 L 374.5 360.7 L 374.5 362.7 L 372.3 362.7 L 372.3 366.8 L 370.0 366.8 L 370.0 362.7 L 360.8 362.7 L 360.8 361.1 L 368.6 349.1 L 372.3 349.1 L 372.3 360.7 M 363.7 360.7 L 370.0 360.7 L 370.0 350.7 L 363.7 360.7 " fill="#000000"/>
<path class="atom-4" d="M 230.7 412.5 Q 230.7 408.1, 232.7 405.8 Q 234.8 403.5, 238.7 403.5 Q 242.4 403.5, 244.3 406.1 L 242.7 407.4 Q 241.2 405.6, 238.7 405.6 Q 236.0 405.6, 234.6 407.4 Q 233.2 409.1, 233.2 412.5 Q 233.2 416.0, 234.7 417.8 Q 236.1 419.6, 239.0 419.6 Q 240.9 419.6, 243.2 418.5 L 243.9 420.3 Q 243.0 420.9, 241.6 421.3 Q 240.2 421.6, 238.6 421.6 Q 234.8 421.6, 232.7 419.3 Q 230.7 416.9, 230.7 412.5 " fill="#000000"/>
<path class="atom-4" d="M 253.0 410.3 Q 254.6 410.3, 255.8 411.0 Q 257.1 411.7, 257.8 412.9 Q 258.6 414.1, 258.6 415.8 Q 258.6 417.6, 257.7 419.0 Q 256.8 420.3, 255.3 420.9 Q 253.9 421.6, 252.2 421.6 Q 250.6 421.6, 249.1 421.0 Q 247.6 420.4, 246.6 419.3 L 248.1 417.7 Q 248.9 418.6, 250.0 419.1 Q 251.2 419.6, 252.3 419.6 Q 253.9 419.6, 255.0 418.6 Q 256.1 417.6, 256.1 415.9 Q 256.1 414.0, 255.0 413.1 Q 253.9 412.2, 252.2 412.2 Q 250.6 412.2, 248.9 412.9 L 247.5 412.2 L 248.4 403.7 L 257.5 403.7 L 257.2 405.7 L 250.4 405.7 L 249.9 411.0 Q 251.5 410.3, 253.0 410.3 " fill="#000000"/>
<path class="atom-5" d="M 133.7 355.7 Q 133.7 351.3, 135.8 349.0 Q 137.8 346.6, 141.8 346.6 Q 145.4 346.6, 147.4 349.2 L 145.7 350.6 Q 144.3 348.7, 141.8 348.7 Q 139.1 348.7, 137.7 350.5 Q 136.3 352.3, 136.3 355.7 Q 136.3 359.2, 137.7 361.0 Q 139.2 362.8, 142.0 362.8 Q 144.0 362.8, 146.3 361.6 L 147.0 363.5 Q 146.0 364.1, 144.6 364.4 Q 143.2 364.8, 141.7 364.8 Q 137.8 364.8, 135.8 362.4 Q 133.7 360.1, 133.7 355.7 " fill="#000000"/>
<path class="atom-5" d="M 156.6 353.5 Q 158.1 353.5, 159.4 354.2 Q 160.6 354.8, 161.3 356.1 Q 161.9 357.3, 161.9 358.8 Q 161.9 360.6, 161.2 361.9 Q 160.4 363.2, 159.1 364.0 Q 157.7 364.7, 156.0 364.7 Q 152.8 364.7, 151.2 362.6 Q 149.7 360.5, 149.7 356.2 Q 149.7 351.5, 151.6 349.1 Q 153.6 346.6, 157.4 346.6 Q 158.5 346.6, 159.4 346.9 Q 160.3 347.1, 161.2 347.7 L 160.3 349.3 Q 159.0 348.6, 157.4 348.6 Q 154.9 348.6, 153.6 350.3 Q 152.3 351.9, 152.2 355.2 Q 153.1 354.4, 154.2 353.9 Q 155.4 353.5, 156.6 353.5 M 156.0 362.7 Q 157.0 362.7, 157.7 362.2 Q 158.5 361.7, 159.0 360.8 Q 159.4 359.9, 159.4 358.9 Q 159.4 357.3, 158.6 356.4 Q 157.7 355.5, 156.1 355.5 Q 155.1 355.5, 154.0 355.9 Q 152.9 356.4, 152.2 357.1 Q 152.3 360.0, 153.2 361.4 Q 154.1 362.7, 156.0 362.7 " fill="#000000"/>
<path class="atom-6" d="M 247.4 74.4 Q 247.4 70.1, 249.5 67.8 Q 251.6 65.4, 255.6 65.4 Q 259.5 65.4, 261.6 67.8 Q 263.7 70.1, 263.7 74.4 Q 263.7 78.7, 261.6 81.1 Q 259.4 83.6, 255.6 83.6 Q 251.7 83.6, 249.5 81.1 Q 247.4 78.7, 247.4 74.4 M 255.6 81.6 Q 258.3 81.6, 259.7 79.8 Q 261.2 77.9, 261.2 74.4 Q 261.2 70.9, 259.7 69.2 Q 258.3 67.4, 255.6 67.4 Q 252.9 67.4, 251.4 69.1 Q 249.9 70.9, 249.9 74.4 Q 249.9 78.0, 251.4 79.8 Q 252.9 81.6, 255.6 81.6 " fill="#FF0000"/>
<path class="atom-6" d="M 275.6 67.6 L 266.3 67.6 L 266.3 65.6 L 278.1 65.6 L 278.1 67.4 L 270.9 83.3 L 268.5 83.3 L 275.6 67.6 " fill="#FF0000"/>
<path class="atom-7" d="M 479.4 237.1 Q 479.4 232.8, 481.5 230.4 Q 483.6 228.1, 487.6 228.1 Q 491.5 228.1, 493.6 230.4 Q 495.7 232.8, 495.7 237.1 Q 495.7 241.4, 493.6 243.8 Q 491.4 246.2, 487.6 246.2 Q 483.7 246.2, 481.5 243.8 Q 479.4 241.4, 479.4 237.1 M 487.6 244.2 Q 490.3 244.2, 491.7 242.4 Q 493.2 240.6, 493.2 237.1 Q 493.2 233.6, 491.7 231.8 Q 490.3 230.1, 487.6 230.1 Q 484.9 230.1, 483.4 231.8 Q 481.9 233.6, 481.9 237.1 Q 481.9 240.6, 483.4 242.4 Q 484.9 244.2, 487.6 244.2 " fill="#FF0000"/>
<path class="atom-7" d="M 507.4 236.6 Q 509.0 237.3, 509.9 238.3 Q 510.9 239.4, 510.9 241.1 Q 510.9 242.6, 510.1 243.8 Q 509.3 244.9, 507.9 245.6 Q 506.5 246.2, 504.7 246.2 Q 501.8 246.2, 500.1 244.9 Q 498.4 243.5, 498.4 241.1 Q 498.4 239.7, 499.1 238.6 Q 499.9 237.5, 501.4 236.7 Q 500.3 236.0, 499.6 235.1 Q 499.0 234.1, 499.0 232.6 Q 499.0 230.5, 500.5 229.3 Q 502.0 228.1, 504.6 228.1 Q 507.2 228.1, 508.7 229.3 Q 510.2 230.5, 510.2 232.6 Q 510.2 233.9, 509.5 234.9 Q 508.8 235.8, 507.4 236.6 M 504.6 229.9 Q 503.1 229.9, 502.3 230.6 Q 501.5 231.3, 501.5 232.6 Q 501.5 233.5, 502.1 234.1 Q 502.6 234.7, 503.4 235.1 Q 504.2 235.4, 505.7 236.0 Q 506.8 235.2, 507.2 234.4 Q 507.7 233.6, 507.7 232.6 Q 507.7 231.3, 506.9 230.6 Q 506.1 229.9, 504.6 229.9 M 504.7 244.3 Q 506.4 244.3, 507.4 243.5 Q 508.4 242.6, 508.4 241.1 Q 508.4 240.1, 507.8 239.5 Q 507.3 238.9, 506.5 238.6 Q 505.7 238.2, 504.3 237.8 L 503.2 237.4 Q 502.0 238.2, 501.4 239.1 Q 500.9 239.9, 500.9 241.1 Q 500.9 242.6, 501.9 243.5 Q 503.0 244.3, 504.7 244.3 " fill="#FF0000"/>
<path class="atom-8" d="M 426.2 414.6 Q 426.2 410.2, 428.3 407.9 Q 430.3 405.6, 434.3 405.6 Q 437.9 405.6, 439.9 408.2 L 438.2 409.5 Q 436.8 407.7, 434.3 407.7 Q 431.6 407.7, 430.2 409.5 Q 428.8 411.2, 428.8 414.6 Q 428.8 418.1, 430.2 419.9 Q 431.7 421.7, 434.5 421.7 Q 436.5 421.7, 438.8 420.6 L 439.5 422.4 Q 438.5 423.0, 437.1 423.4 Q 435.7 423.7, 434.2 423.7 Q 430.3 423.7, 428.3 421.4 Q 426.2 419.0, 426.2 414.6 " fill="#000000"/>
<path class="atom-8" d="M 448.1 405.6 Q 451.3 405.6, 452.8 407.8 Q 454.4 409.9, 454.4 414.1 Q 454.4 418.8, 452.5 421.3 Q 450.5 423.7, 446.7 423.7 Q 445.6 423.7, 444.7 423.5 Q 443.8 423.2, 442.9 422.7 L 443.8 421.0 Q 445.1 421.7, 446.7 421.7 Q 449.2 421.7, 450.5 420.1 Q 451.8 418.5, 451.9 415.2 Q 451.0 416.0, 449.9 416.4 Q 448.7 416.9, 447.5 416.9 Q 446.0 416.9, 444.7 416.2 Q 443.5 415.5, 442.8 414.3 Q 442.2 413.1, 442.2 411.5 Q 442.2 409.8, 442.9 408.5 Q 443.7 407.1, 445.0 406.4 Q 446.4 405.6, 448.1 405.6 M 444.7 411.5 Q 444.7 413.1, 445.5 414.0 Q 446.4 414.9, 448.0 414.9 Q 449.0 414.9, 450.1 414.4 Q 451.2 414.0, 451.9 413.2 Q 451.8 410.3, 450.9 409.0 Q 450.0 407.7, 448.1 407.7 Q 447.1 407.7, 446.3 408.2 Q 445.6 408.7, 445.1 409.5 Q 444.7 410.4, 444.7 411.5 " fill="#000000"/>
<path class="atom-9" d="M 217.4 527.3 Q 217.4 522.9, 219.4 520.6 Q 221.5 518.3, 225.4 518.3 Q 229.1 518.3, 231.0 520.8 L 229.4 522.2 Q 228.0 520.3, 225.4 520.3 Q 222.8 520.3, 221.3 522.1 Q 219.9 523.9, 219.9 527.3 Q 219.9 530.8, 221.4 532.6 Q 222.9 534.4, 225.7 534.4 Q 227.7 534.4, 229.9 533.2 L 230.6 535.1 Q 229.7 535.7, 228.3 536.0 Q 226.9 536.4, 225.4 536.4 Q 221.5 536.4, 219.4 534.0 Q 217.4 531.7, 217.4 527.3 " fill="#000000"/>
<path class="atom-9" d="M 234.3 534.2 L 238.1 534.2 L 238.1 520.9 L 233.9 522.3 L 233.3 520.8 L 238.7 518.4 L 240.5 518.7 L 240.5 534.2 L 244.0 534.2 L 244.0 536.2 L 234.3 536.2 L 234.3 534.2 " fill="#000000"/>
<path class="atom-9" d="M 252.7 536.4 Q 249.5 536.4, 247.8 534.0 Q 246.2 531.6, 246.2 527.3 Q 246.2 523.0, 247.8 520.6 Q 249.4 518.3, 252.7 518.3 Q 256.0 518.3, 257.6 520.6 Q 259.2 523.0, 259.2 527.3 Q 259.2 531.6, 257.6 534.0 Q 256.0 536.4, 252.7 536.4 M 252.7 534.4 Q 254.6 534.4, 255.7 532.6 Q 256.7 530.8, 256.7 527.3 Q 256.7 523.8, 255.7 522.0 Q 254.6 520.3, 252.7 520.3 Q 250.8 520.3, 249.8 522.0 Q 248.7 523.8, 248.7 527.3 Q 248.7 530.8, 249.8 532.6 Q 250.8 534.4, 252.7 534.4 " fill="#000000"/>
<path class="atom-10" d="M 316.2 583.9 Q 316.2 579.5, 318.2 577.2 Q 320.3 574.9, 324.2 574.9 Q 327.9 574.9, 329.8 577.5 L 328.2 578.8 Q 326.7 576.9, 324.2 576.9 Q 321.5 576.9, 320.1 578.7 Q 318.7 580.5, 318.7 583.9 Q 318.7 587.4, 320.2 589.2 Q 321.6 591.0, 324.5 591.0 Q 326.4 591.0, 328.7 589.8 L 329.4 591.7 Q 328.5 592.3, 327.1 592.7 Q 325.7 593.0, 324.1 593.0 Q 320.3 593.0, 318.2 590.7 Q 316.2 588.3, 316.2 583.9 " fill="#000000"/>
<path class="atom-10" d="M 333.0 590.8 L 336.8 590.8 L 336.8 577.6 L 332.6 578.9 L 332.0 577.4 L 337.4 575.0 L 339.2 575.3 L 339.2 590.8 L 342.7 590.8 L 342.7 592.8 L 333.0 592.8 L 333.0 590.8 " fill="#000000"/>
<path class="atom-10" d="M 345.8 590.8 L 349.7 590.8 L 349.7 577.6 L 345.4 578.9 L 344.9 577.4 L 350.3 575.0 L 352.1 575.3 L 352.1 590.8 L 355.5 590.8 L 355.5 592.8 L 345.8 592.8 L 345.8 590.8 " fill="#000000"/>
<path class="atom-11" d="M 414.0 525.6 Q 414.0 521.2, 416.1 518.9 Q 418.1 516.6, 422.1 516.6 Q 425.7 516.6, 427.7 519.2 L 426.0 520.5 Q 424.6 518.6, 422.1 518.6 Q 419.4 518.6, 418.0 520.4 Q 416.6 522.2, 416.6 525.6 Q 416.6 529.1, 418.0 530.9 Q 419.5 532.7, 422.3 532.7 Q 424.3 532.7, 426.6 531.5 L 427.3 533.4 Q 426.3 534.0, 424.9 534.4 Q 423.5 534.7, 422.0 534.7 Q 418.1 534.7, 416.1 532.4 Q 414.0 530.0, 414.0 525.6 " fill="#000000"/>
<path class="atom-11" d="M 430.8 532.5 L 434.7 532.5 L 434.7 519.3 L 430.4 520.6 L 429.9 519.1 L 435.3 516.7 L 437.1 517.0 L 437.1 532.5 L 440.5 532.5 L 440.5 534.5 L 430.8 534.5 L 430.8 532.5 " fill="#000000"/>
<path class="atom-11" d="M 442.8 520.1 Q 443.5 518.5, 445.0 517.5 Q 446.6 516.6, 448.7 516.6 Q 451.4 516.6, 452.9 518.0 Q 454.4 519.5, 454.4 522.1 Q 454.4 524.7, 452.5 527.1 Q 450.5 529.6, 446.5 532.5 L 454.7 532.5 L 454.7 534.5 L 442.8 534.5 L 442.8 532.8 Q 446.1 530.5, 448.0 528.7 Q 450.0 527.0, 451.0 525.4 Q 451.9 523.8, 451.9 522.2 Q 451.9 520.5, 451.1 519.5 Q 450.2 518.6, 448.7 518.6 Q 447.3 518.6, 446.4 519.2 Q 445.4 519.7, 444.7 521.0 L 442.8 520.1 " fill="#000000"/>
<path class="atom-12" d="M 541.4 358.3 Q 541.4 353.9, 543.4 351.6 Q 545.5 349.3, 549.4 349.3 Q 553.1 349.3, 555.0 351.8 L 553.4 353.2 Q 552.0 351.3, 549.4 351.3 Q 546.8 351.3, 545.3 353.1 Q 543.9 354.9, 543.9 358.3 Q 543.9 361.8, 545.4 363.6 Q 546.9 365.4, 549.7 365.4 Q 551.7 365.4, 553.9 364.2 L 554.6 366.1 Q 553.7 366.7, 552.3 367.0 Q 550.9 367.4, 549.4 367.4 Q 545.5 367.4, 543.4 365.0 Q 541.4 362.7, 541.4 358.3 " fill="#000000"/>
<path class="atom-12" d="M 558.2 365.2 L 562.1 365.2 L 562.1 351.9 L 557.8 353.3 L 557.2 351.8 L 562.7 349.4 L 564.4 349.7 L 564.4 365.2 L 567.9 365.2 L 567.9 367.2 L 558.2 367.2 L 558.2 365.2 " fill="#000000"/>
<path class="atom-12" d="M 578.7 357.8 Q 580.4 358.3, 581.2 359.5 Q 582.1 360.6, 582.1 362.3 Q 582.1 363.8, 581.3 365.0 Q 580.6 366.1, 579.2 366.8 Q 577.8 367.4, 576.0 367.4 Q 574.1 367.4, 572.7 366.8 Q 571.3 366.1, 570.2 364.7 L 571.6 363.3 Q 572.7 364.5, 573.6 365.0 Q 574.5 365.4, 576.0 365.4 Q 577.6 365.4, 578.6 364.6 Q 579.6 363.7, 579.6 362.3 Q 579.6 360.5, 578.5 359.7 Q 577.5 358.9, 575.4 358.9 L 574.1 358.9 L 574.1 357.1 L 575.2 357.1 Q 577.1 357.0, 578.2 356.2 Q 579.2 355.4, 579.2 353.8 Q 579.2 352.6, 578.3 352.0 Q 577.5 351.3, 576.0 351.3 Q 574.6 351.3, 573.6 351.8 Q 572.7 352.3, 572.0 353.6 L 570.3 352.7 Q 570.9 351.2, 572.4 350.3 Q 573.9 349.3, 576.0 349.3 Q 578.6 349.3, 580.2 350.5 Q 581.7 351.7, 581.7 353.8 Q 581.7 355.2, 580.9 356.2 Q 580.1 357.3, 578.7 357.8 " fill="#000000"/>
<path class="atom-13" d="M 639.6 415.2 Q 639.6 410.8, 641.6 408.5 Q 643.7 406.2, 647.6 406.2 Q 651.3 406.2, 653.2 408.7 L 651.6 410.1 Q 650.2 408.2, 647.6 408.2 Q 645.0 408.2, 643.5 410.0 Q 642.1 411.8, 642.1 415.2 Q 642.1 418.7, 643.6 420.5 Q 645.1 422.3, 647.9 422.3 Q 649.9 422.3, 652.1 421.1 L 652.8 423.0 Q 651.9 423.6, 650.5 423.9 Q 649.1 424.3, 647.6 424.3 Q 643.7 424.3, 641.6 421.9 Q 639.6 419.6, 639.6 415.2 " fill="#000000"/>
<path class="atom-13" d="M 656.5 422.1 L 660.4 422.1 L 660.4 408.8 L 656.1 410.2 L 655.5 408.7 L 660.9 406.3 L 662.7 406.6 L 662.7 422.1 L 666.2 422.1 L 666.2 424.1 L 656.5 424.1 L 656.5 422.1 " fill="#000000"/>
<path class="atom-13" d="M 680.0 418.0 L 682.1 418.0 L 682.1 420.0 L 680.0 420.0 L 680.0 424.1 L 677.6 424.1 L 677.6 420.0 L 668.5 420.0 L 668.5 418.4 L 676.2 406.4 L 680.0 406.4 L 680.0 418.0 M 671.4 418.0 L 677.6 418.0 L 677.6 408.0 L 671.4 418.0 " fill="#000000"/>
<path class="atom-14" d="M 521.1 586.8 Q 521.1 582.4, 523.2 580.1 Q 525.3 577.7, 529.2 577.7 Q 532.8 577.7, 534.8 580.3 L 533.1 581.7 Q 531.7 579.8, 529.2 579.8 Q 526.5 579.8, 525.1 581.6 Q 523.7 583.4, 523.7 586.8 Q 523.7 590.3, 525.1 592.1 Q 526.6 593.9, 529.5 593.9 Q 531.4 593.9, 533.7 592.7 L 534.4 594.6 Q 533.5 595.2, 532.1 595.5 Q 530.7 595.9, 529.1 595.9 Q 525.3 595.9, 523.2 593.5 Q 521.1 591.2, 521.1 586.8 " fill="#000000"/>
<path class="atom-14" d="M 538.0 593.6 L 541.9 593.6 L 541.9 580.4 L 537.6 581.7 L 537.0 580.3 L 542.4 577.8 L 544.2 578.1 L 544.2 593.6 L 547.7 593.6 L 547.7 595.6 L 538.0 595.6 L 538.0 593.6 " fill="#000000"/>
<path class="atom-14" d="M 556.4 584.6 Q 557.9 584.6, 559.2 585.2 Q 560.5 585.9, 561.2 587.1 Q 561.9 588.4, 561.9 590.0 Q 561.9 591.9, 561.0 593.2 Q 560.1 594.5, 558.7 595.2 Q 557.2 595.8, 555.6 595.8 Q 554.0 595.8, 552.5 595.2 Q 551.0 594.6, 549.9 593.5 L 551.4 591.9 Q 552.3 592.8, 553.4 593.3 Q 554.5 593.8, 555.7 593.8 Q 557.2 593.8, 558.3 592.8 Q 559.4 591.9, 559.4 590.1 Q 559.4 588.2, 558.3 587.3 Q 557.2 586.4, 555.5 586.4 Q 554.0 586.4, 552.2 587.1 L 550.9 586.5 L 551.7 577.9 L 560.8 577.9 L 560.6 579.9 L 553.8 579.9 L 553.2 585.2 Q 554.8 584.6, 556.4 584.6 " fill="#000000"/>
<path class="atom-15" d="M 633.1 535.3 Q 633.1 530.9, 635.2 528.6 Q 637.3 526.2, 641.2 526.2 Q 644.8 526.2, 646.8 528.8 L 645.1 530.2 Q 643.7 528.3, 641.2 528.3 Q 638.5 528.3, 637.1 530.1 Q 635.7 531.9, 635.7 535.3 Q 635.7 538.8, 637.1 540.6 Q 638.6 542.4, 641.5 542.4 Q 643.4 542.4, 645.7 541.2 L 646.4 543.1 Q 645.5 543.7, 644.1 544.0 Q 642.7 544.4, 641.1 544.4 Q 637.3 544.4, 635.2 542.0 Q 633.1 539.7, 633.1 535.3 " fill="#000000"/>
<path class="atom-15" d="M 650.0 542.1 L 653.9 542.1 L 653.9 528.9 L 649.6 530.2 L 649.0 528.8 L 654.4 526.3 L 656.2 526.6 L 656.2 542.1 L 659.7 542.1 L 659.7 544.1 L 650.0 544.1 L 650.0 542.1 " fill="#000000"/>
<path class="atom-15" d="M 668.9 533.1 Q 670.4 533.1, 671.7 533.8 Q 672.9 534.4, 673.6 535.7 Q 674.2 536.9, 674.2 538.4 Q 674.2 540.2, 673.5 541.5 Q 672.7 542.8, 671.4 543.6 Q 670.0 544.3, 668.3 544.3 Q 665.1 544.3, 663.5 542.2 Q 662.0 540.1, 662.0 535.8 Q 662.0 531.1, 663.9 528.7 Q 665.9 526.2, 669.7 526.2 Q 670.8 526.2, 671.7 526.5 Q 672.6 526.7, 673.5 527.3 L 672.6 528.9 Q 671.3 528.2, 669.7 528.2 Q 667.2 528.2, 665.9 529.9 Q 664.6 531.5, 664.5 534.8 Q 665.4 534.0, 666.5 533.5 Q 667.7 533.1, 668.9 533.1 M 668.3 542.3 Q 669.3 542.3, 670.0 541.8 Q 670.8 541.3, 671.3 540.4 Q 671.7 539.5, 671.7 538.5 Q 671.7 536.9, 670.9 536.0 Q 670.0 535.1, 668.4 535.1 Q 667.4 535.1, 666.3 535.5 Q 665.2 536.0, 664.5 536.7 Q 664.6 539.6, 665.5 541.0 Q 666.4 542.3, 668.3 542.3 " fill="#000000"/>
<path class="atom-16" d="M 677.4 621.4 Q 677.4 617.0, 679.4 614.7 Q 681.5 612.4, 685.4 612.4 Q 689.1 612.4, 691.0 614.9 L 689.4 616.3 Q 687.9 614.4, 685.4 614.4 Q 682.7 614.4, 681.3 616.2 Q 679.9 618.0, 679.9 621.4 Q 679.9 624.9, 681.4 626.7 Q 682.8 628.5, 685.7 628.5 Q 687.6 628.5, 689.9 627.3 L 690.6 629.2 Q 689.7 629.8, 688.3 630.1 Q 686.9 630.5, 685.3 630.5 Q 681.5 630.5, 679.4 628.1 Q 677.4 625.8, 677.4 621.4 " fill="#000000"/>
<path class="atom-16" d="M 694.2 628.3 L 698.1 628.3 L 698.1 615.0 L 693.8 616.4 L 693.2 614.9 L 698.7 612.5 L 700.4 612.8 L 700.4 628.3 L 703.9 628.3 L 703.9 630.3 L 694.2 630.3 L 694.2 628.3 " fill="#000000"/>
<path class="atom-16" d="M 715.4 614.6 L 706.2 614.6 L 706.2 612.6 L 717.9 612.6 L 717.9 614.3 L 710.8 630.3 L 708.4 630.3 L 715.4 614.6 " fill="#000000"/>
<path class="atom-17" d="M 778.3 526.6 Q 778.3 522.4, 780.4 520.0 Q 782.5 517.6, 786.4 517.6 Q 790.3 517.6, 792.4 520.0 Q 794.5 522.4, 794.5 526.6 Q 794.5 530.9, 792.4 533.4 Q 790.3 535.8, 786.4 535.8 Q 782.5 535.8, 780.4 533.4 Q 778.3 531.0, 778.3 526.6 M 786.4 533.8 Q 789.1 533.8, 790.5 532.0 Q 792.0 530.2, 792.0 526.6 Q 792.0 523.2, 790.5 521.4 Q 789.1 519.6, 786.4 519.6 Q 783.7 519.6, 782.2 521.4 Q 780.8 523.1, 780.8 526.6 Q 780.8 530.2, 782.2 532.0 Q 783.7 533.8, 786.4 533.8 " fill="#FF0000"/>
<path class="atom-17" d="M 798.0 533.5 L 801.9 533.5 L 801.9 520.3 L 797.6 521.6 L 797.1 520.2 L 802.5 517.7 L 804.3 518.0 L 804.3 533.5 L 807.7 533.5 L 807.7 535.5 L 798.0 535.5 L 798.0 533.5 " fill="#FF0000"/>
<path class="atom-17" d="M 819.1 526.2 Q 820.8 526.9, 821.7 527.9 Q 822.6 528.9, 822.6 530.7 Q 822.6 532.2, 821.8 533.4 Q 821.1 534.5, 819.7 535.2 Q 818.3 535.8, 816.5 535.8 Q 813.5 535.8, 811.8 534.4 Q 810.1 533.1, 810.1 530.7 Q 810.1 529.2, 810.9 528.2 Q 811.6 527.1, 813.2 526.2 Q 812.0 525.6, 811.4 524.6 Q 810.8 523.7, 810.8 522.2 Q 810.8 520.1, 812.3 518.9 Q 813.8 517.6, 816.4 517.6 Q 818.9 517.6, 820.4 518.9 Q 822.0 520.1, 822.0 522.2 Q 822.0 523.5, 821.2 524.4 Q 820.5 525.4, 819.1 526.2 M 816.4 519.5 Q 814.9 519.5, 814.1 520.2 Q 813.3 520.9, 813.3 522.2 Q 813.3 523.1, 813.8 523.7 Q 814.4 524.3, 815.1 524.7 Q 815.9 525.0, 817.5 525.5 Q 818.5 524.8, 819.0 524.0 Q 819.5 523.2, 819.5 522.2 Q 819.5 520.9, 818.6 520.2 Q 817.8 519.5, 816.4 519.5 M 816.5 533.9 Q 818.1 533.9, 819.1 533.0 Q 820.1 532.1, 820.1 530.7 Q 820.1 529.7, 819.6 529.1 Q 819.1 528.5, 818.3 528.2 Q 817.5 527.8, 816.1 527.4 L 815.0 527.0 Q 813.7 527.7, 813.2 528.6 Q 812.6 529.5, 812.6 530.7 Q 812.6 532.1, 813.7 533.0 Q 814.7 533.9, 816.5 533.9 " fill="#FF0000"/>
<path class="atom-18" d="M 825.2 619.0 Q 825.2 614.6, 827.3 612.3 Q 829.3 609.9, 833.3 609.9 Q 836.9 609.9, 838.9 612.5 L 837.2 613.9 Q 835.8 612.0, 833.3 612.0 Q 830.6 612.0, 829.2 613.8 Q 827.8 615.6, 827.8 619.0 Q 827.8 622.5, 829.2 624.3 Q 830.7 626.1, 833.5 626.1 Q 835.5 626.1, 837.8 624.9 L 838.5 626.8 Q 837.5 627.4, 836.1 627.7 Q 834.7 628.1, 833.2 628.1 Q 829.3 628.1, 827.3 625.7 Q 825.2 623.4, 825.2 619.0 " fill="#000000"/>
<path class="atom-18" d="M 842.0 625.8 L 845.9 625.8 L 845.9 612.6 L 841.6 613.9 L 841.1 612.5 L 846.5 610.0 L 848.3 610.3 L 848.3 625.8 L 851.7 625.8 L 851.7 627.8 L 842.0 627.8 L 842.0 625.8 " fill="#000000"/>
<path class="atom-18" d="M 860.0 609.9 Q 863.1 609.9, 864.7 612.1 Q 866.3 614.2, 866.3 618.5 Q 866.3 623.2, 864.3 625.6 Q 862.4 628.0, 858.6 628.0 Q 857.5 628.0, 856.5 627.8 Q 855.6 627.5, 854.7 627.0 L 855.7 625.3 Q 857.0 626.0, 858.6 626.0 Q 861.1 626.0, 862.3 624.4 Q 863.6 622.8, 863.8 619.5 Q 862.9 620.3, 861.7 620.8 Q 860.6 621.2, 859.4 621.2 Q 857.8 621.2, 856.6 620.5 Q 855.4 619.8, 854.7 618.6 Q 854.0 617.4, 854.0 615.8 Q 854.0 614.1, 854.8 612.8 Q 855.5 611.4, 856.9 610.7 Q 858.2 609.9, 860.0 609.9 M 856.5 615.8 Q 856.5 617.4, 857.4 618.3 Q 858.3 619.2, 859.8 619.2 Q 860.9 619.2, 861.9 618.8 Q 863.0 618.3, 863.8 617.6 Q 863.7 614.6, 862.7 613.3 Q 861.8 612.0, 859.9 612.0 Q 859.0 612.0, 858.2 612.5 Q 857.4 613.0, 857.0 613.9 Q 856.5 614.7, 856.5 615.8 " fill="#000000"/>
<path class="atom-19" d="M 708.5 717.7 Q 708.5 713.3, 710.6 711.0 Q 712.6 708.7, 716.6 708.7 Q 720.2 708.7, 722.2 711.3 L 720.5 712.6 Q 719.1 710.7, 716.6 710.7 Q 713.9 710.7, 712.5 712.5 Q 711.1 714.3, 711.1 717.7 Q 711.1 721.2, 712.5 723.0 Q 714.0 724.8, 716.8 724.8 Q 718.8 724.8, 721.1 723.6 L 721.8 725.5 Q 720.8 726.1, 719.4 726.5 Q 718.0 726.8, 716.5 726.8 Q 712.6 726.8, 710.6 724.5 Q 708.5 722.1, 708.5 717.7 " fill="#000000"/>
<path class="atom-19" d="M 724.5 712.2 Q 725.1 710.6, 726.7 709.6 Q 728.2 708.7, 730.4 708.7 Q 733.1 708.7, 734.6 710.1 Q 736.1 711.6, 736.1 714.2 Q 736.1 716.8, 734.1 719.2 Q 732.2 721.7, 728.2 724.6 L 736.4 724.6 L 736.4 726.6 L 724.4 726.6 L 724.4 724.9 Q 727.7 722.6, 729.7 720.8 Q 731.7 719.1, 732.6 717.5 Q 733.6 715.9, 733.6 714.3 Q 733.6 712.6, 732.7 711.6 Q 731.9 710.7, 730.4 710.7 Q 729.0 710.7, 728.0 711.3 Q 727.1 711.8, 726.4 713.1 L 724.5 712.2 " fill="#000000"/>
<path class="atom-19" d="M 745.6 726.8 Q 742.4 726.8, 740.8 724.4 Q 739.2 722.0, 739.2 717.7 Q 739.2 713.4, 740.8 711.1 Q 742.4 708.7, 745.6 708.7 Q 748.9 708.7, 750.5 711.1 Q 752.1 713.4, 752.1 717.7 Q 752.1 722.0, 750.5 724.4 Q 748.9 726.8, 745.6 726.8 M 745.6 724.8 Q 747.6 724.8, 748.6 723.0 Q 749.6 721.2, 749.6 717.7 Q 749.6 714.2, 748.6 712.5 Q 747.6 710.7, 745.6 710.7 Q 743.7 710.7, 742.7 712.5 Q 741.7 714.2, 741.7 717.7 Q 741.7 721.2, 742.7 723.0 Q 743.7 724.8, 745.6 724.8 " fill="#000000"/>
<path class="atom-20" d="M 572.9 719.7 Q 572.9 715.3, 575.0 713.0 Q 577.1 710.7, 581.0 710.7 Q 584.6 710.7, 586.6 713.3 L 584.9 714.6 Q 583.5 712.7, 581.0 712.7 Q 578.3 712.7, 576.9 714.5 Q 575.5 716.3, 575.5 719.7 Q 575.5 723.2, 576.9 725.0 Q 578.4 726.8, 581.3 726.8 Q 583.2 726.8, 585.5 725.6 L 586.2 727.5 Q 585.3 728.1, 583.9 728.5 Q 582.5 728.8, 580.9 728.8 Q 577.1 728.8, 575.0 726.5 Q 572.9 724.1, 572.9 719.7 " fill="#000000"/>
<path class="atom-20" d="M 588.8 714.2 Q 589.5 712.6, 591.0 711.6 Q 592.6 710.7, 594.7 710.7 Q 597.4 710.7, 598.9 712.1 Q 600.4 713.6, 600.4 716.2 Q 600.4 718.8, 598.5 721.2 Q 596.5 723.7, 592.5 726.6 L 600.7 726.6 L 600.7 728.6 L 588.8 728.6 L 588.8 726.9 Q 592.1 724.6, 594.0 722.8 Q 596.0 721.1, 597.0 719.5 Q 597.9 717.9, 597.9 716.3 Q 597.9 714.6, 597.1 713.6 Q 596.2 712.7, 594.7 712.7 Q 593.3 712.7, 592.4 713.3 Q 591.4 713.8, 590.7 715.1 L 588.8 714.2 " fill="#000000"/>
<path class="atom-20" d="M 604.4 726.6 L 608.3 726.6 L 608.3 713.4 L 604.0 714.7 L 603.4 713.2 L 608.9 710.8 L 610.6 711.1 L 610.6 726.6 L 614.1 726.6 L 614.1 728.6 L 604.4 728.6 L 604.4 726.6 " fill="#000000"/>
<path class="atom-21" d="M 632.8 813.5 Q 632.8 809.1, 634.9 806.8 Q 636.9 804.5, 640.9 804.5 Q 644.5 804.5, 646.5 807.1 L 644.8 808.4 Q 643.4 806.5, 640.9 806.5 Q 638.2 806.5, 636.8 808.3 Q 635.4 810.1, 635.4 813.5 Q 635.4 817.0, 636.8 818.8 Q 638.3 820.6, 641.1 820.6 Q 643.1 820.6, 645.4 819.4 L 646.1 821.3 Q 645.1 821.9, 643.7 822.3 Q 642.3 822.6, 640.8 822.6 Q 636.9 822.6, 634.9 820.3 Q 632.8 817.9, 632.8 813.5 " fill="#000000"/>
<path class="atom-21" d="M 648.8 808.0 Q 649.4 806.4, 651.0 805.4 Q 652.5 804.5, 654.7 804.5 Q 657.3 804.5, 658.8 805.9 Q 660.3 807.4, 660.3 810.0 Q 660.3 812.6, 658.4 815.0 Q 656.5 817.5, 652.5 820.4 L 660.6 820.4 L 660.6 822.4 L 648.7 822.4 L 648.7 820.7 Q 652.0 818.4, 654.0 816.6 Q 655.9 814.9, 656.9 813.3 Q 657.8 811.7, 657.8 810.1 Q 657.8 808.4, 657.0 807.4 Q 656.1 806.5, 654.7 806.5 Q 653.2 806.5, 652.3 807.1 Q 651.3 807.6, 650.7 808.9 L 648.8 808.0 " fill="#000000"/>
<path class="atom-21" d="M 663.4 808.0 Q 664.1 806.4, 665.6 805.4 Q 667.2 804.5, 669.3 804.5 Q 672.0 804.5, 673.5 805.9 Q 675.0 807.4, 675.0 810.0 Q 675.0 812.6, 673.1 815.0 Q 671.1 817.5, 667.1 820.4 L 675.3 820.4 L 675.3 822.4 L 663.4 822.4 L 663.4 820.7 Q 666.7 818.4, 668.6 816.6 Q 670.6 814.9, 671.6 813.3 Q 672.5 811.7, 672.5 810.1 Q 672.5 808.4, 671.7 807.4 Q 670.8 806.5, 669.3 806.5 Q 667.9 806.5, 667.0 807.1 Q 666.0 807.6, 665.3 808.9 L 663.4 808.0 " fill="#000000"/>
<path class="atom-22" d="M 813.9 765.7 Q 813.9 761.3, 815.9 759.0 Q 818.0 756.7, 821.9 756.7 Q 825.6 756.7, 827.5 759.3 L 825.9 760.6 Q 824.4 758.8, 821.9 758.8 Q 819.2 758.8, 817.8 760.6 Q 816.4 762.3, 816.4 765.7 Q 816.4 769.2, 817.9 771.0 Q 819.3 772.8, 822.2 772.8 Q 824.1 772.8, 826.4 771.7 L 827.1 773.5 Q 826.2 774.1, 824.8 774.5 Q 823.4 774.8, 821.8 774.8 Q 818.0 774.8, 815.9 772.5 Q 813.9 770.1, 813.9 765.7 " fill="#000000"/>
<path class="atom-22" d="M 829.8 760.3 Q 830.5 758.6, 832.0 757.7 Q 833.6 756.7, 835.7 756.7 Q 838.4 756.7, 839.9 758.2 Q 841.4 759.6, 841.4 762.2 Q 841.4 764.8, 839.4 767.3 Q 837.5 769.7, 833.5 772.6 L 841.7 772.6 L 841.7 774.6 L 829.8 774.6 L 829.8 772.9 Q 833.1 770.6, 835.0 768.8 Q 837.0 767.1, 837.9 765.5 Q 838.9 763.9, 838.9 762.3 Q 838.9 760.6, 838.0 759.7 Q 837.2 758.7, 835.7 758.7 Q 834.3 758.7, 833.3 759.3 Q 832.4 759.9, 831.7 761.1 L 829.8 760.3 " fill="#000000"/>
<path class="atom-22" d="M 852.9 765.3 Q 854.7 765.8, 855.5 766.9 Q 856.3 768.0, 856.3 769.8 Q 856.3 771.3, 855.6 772.4 Q 854.8 773.6, 853.5 774.2 Q 852.1 774.9, 850.3 774.9 Q 848.4 774.9, 847.0 774.2 Q 845.6 773.5, 844.4 772.2 L 845.9 770.7 Q 847.0 771.9, 847.9 772.4 Q 848.8 772.9, 850.3 772.9 Q 851.9 772.9, 852.9 772.0 Q 853.8 771.1, 853.8 769.7 Q 853.8 767.9, 852.8 767.1 Q 851.8 766.3, 849.6 766.3 L 848.4 766.3 L 848.4 764.5 L 849.5 764.5 Q 851.4 764.5, 852.4 763.7 Q 853.5 762.8, 853.5 761.2 Q 853.5 760.1, 852.6 759.4 Q 851.8 758.7, 850.3 758.7 Q 848.8 758.7, 847.9 759.2 Q 847.0 759.8, 846.3 761.1 L 844.6 760.2 Q 845.2 758.7, 846.7 757.7 Q 848.2 756.7, 850.3 756.7 Q 852.9 756.7, 854.4 757.9 Q 856.0 759.2, 856.0 761.2 Q 856.0 762.7, 855.2 763.7 Q 854.4 764.7, 852.9 765.3 " fill="#000000"/>
<path class="atom-23" d="M 605.5 484.8 Q 605.5 480.4, 607.5 478.1 Q 609.6 475.8, 613.5 475.8 Q 617.2 475.8, 619.1 478.4 L 617.5 479.7 Q 616.0 477.9, 613.5 477.9 Q 610.8 477.9, 609.4 479.7 Q 608.0 481.4, 608.0 484.8 Q 608.0 488.3, 609.5 490.1 Q 610.9 491.9, 613.8 491.9 Q 615.7 491.9, 618.0 490.8 L 618.7 492.6 Q 617.8 493.2, 616.4 493.6 Q 615.0 493.9, 613.4 493.9 Q 609.6 493.9, 607.5 491.6 Q 605.5 489.2, 605.5 484.8 " fill="#000000"/>
<path class="atom-23" d="M 621.5 479.4 Q 622.1 477.7, 623.7 476.8 Q 625.2 475.8, 627.4 475.8 Q 630.0 475.8, 631.5 477.3 Q 633.0 478.7, 633.0 481.3 Q 633.0 483.9, 631.1 486.4 Q 629.2 488.8, 625.2 491.7 L 633.3 491.7 L 633.3 493.7 L 621.4 493.7 L 621.4 492.0 Q 624.7 489.7, 626.7 487.9 Q 628.6 486.2, 629.6 484.6 Q 630.5 483.0, 630.5 481.4 Q 630.5 479.7, 629.7 478.8 Q 628.8 477.8, 627.4 477.8 Q 625.9 477.8, 625.0 478.4 Q 624.0 479.0, 623.4 480.2 L 621.5 479.4 " fill="#000000"/>
<path class="atom-23" d="M 647.7 487.6 L 649.8 487.6 L 649.8 489.6 L 647.7 489.6 L 647.7 493.7 L 645.3 493.7 L 645.3 489.6 L 636.2 489.6 L 636.2 488.1 L 643.9 476.0 L 647.7 476.0 L 647.7 487.6 M 639.1 487.6 L 645.3 487.6 L 645.3 477.6 L 639.1 487.6 " fill="#000000"/>
<path class="atom-24" d="M 736.2 360.8 Q 736.2 356.6, 738.3 354.2 Q 740.4 351.8, 744.3 351.8 Q 748.2 351.8, 750.3 354.2 Q 752.4 356.6, 752.4 360.8 Q 752.4 365.1, 750.3 367.6 Q 748.2 370.0, 744.3 370.0 Q 740.4 370.0, 738.3 367.6 Q 736.2 365.2, 736.2 360.8 M 744.3 368.0 Q 747.0 368.0, 748.5 366.2 Q 749.9 364.4, 749.9 360.8 Q 749.9 357.4, 748.5 355.6 Q 747.0 353.8, 744.3 353.8 Q 741.6 353.8, 740.1 355.6 Q 738.7 357.3, 738.7 360.8 Q 738.7 364.4, 740.1 366.2 Q 741.6 368.0, 744.3 368.0 " fill="#FF0000"/>
<path class="atom-24" d="M 755.1 355.4 Q 755.7 353.7, 757.3 352.8 Q 758.8 351.8, 761.0 351.8 Q 763.6 351.8, 765.1 353.3 Q 766.6 354.7, 766.6 357.3 Q 766.6 359.9, 764.7 362.4 Q 762.8 364.8, 758.8 367.7 L 766.9 367.7 L 766.9 369.7 L 755.0 369.7 L 755.0 368.1 Q 758.3 365.7, 760.3 364.0 Q 762.2 362.2, 763.2 360.6 Q 764.1 359.1, 764.1 357.4 Q 764.1 355.7, 763.3 354.8 Q 762.4 353.8, 761.0 353.8 Q 759.5 353.8, 758.6 354.4 Q 757.6 355.0, 757.0 356.3 L 755.1 355.4 " fill="#FF0000"/>
<path class="atom-24" d="M 776.2 358.7 Q 777.8 358.7, 779.0 359.3 Q 780.3 360.0, 781.0 361.2 Q 781.8 362.5, 781.8 364.1 Q 781.8 366.0, 780.9 367.3 Q 780.0 368.6, 778.5 369.3 Q 777.1 369.9, 775.4 369.9 Q 773.8 369.9, 772.3 369.3 Q 770.8 368.7, 769.8 367.6 L 771.3 366.0 Q 772.1 366.9, 773.2 367.4 Q 774.4 367.9, 775.5 367.9 Q 777.1 367.9, 778.2 366.9 Q 779.3 366.0, 779.3 364.2 Q 779.3 362.3, 778.2 361.4 Q 777.1 360.5, 775.4 360.5 Q 773.8 360.5, 772.1 361.2 L 770.7 360.6 L 771.6 352.0 L 780.7 352.0 L 780.4 354.0 L 773.6 354.0 L 773.1 359.3 Q 774.7 358.7, 776.2 358.7 " fill="#FF0000"/>
<path class="atom-25" d="M 738.7 248.3 Q 738.7 243.9, 740.8 241.6 Q 742.9 239.2, 746.8 239.2 Q 750.4 239.2, 752.4 241.8 L 750.7 243.2 Q 749.3 241.3, 746.8 241.3 Q 744.1 241.3, 742.7 243.1 Q 741.3 244.9, 741.3 248.3 Q 741.3 251.8, 742.7 253.6 Q 744.2 255.4, 747.1 255.4 Q 749.0 255.4, 751.3 254.2 L 752.0 256.1 Q 751.1 256.7, 749.7 257.0 Q 748.3 257.4, 746.7 257.4 Q 742.9 257.4, 740.8 255.0 Q 738.7 252.7, 738.7 248.3 " fill="#000000"/>
<path class="atom-25" d="M 754.7 242.8 Q 755.4 241.1, 756.9 240.2 Q 758.5 239.2, 760.6 239.2 Q 763.3 239.2, 764.8 240.7 Q 766.3 242.1, 766.3 244.7 Q 766.3 247.3, 764.3 249.8 Q 762.4 252.2, 758.4 255.1 L 766.6 255.1 L 766.6 257.1 L 754.7 257.1 L 754.7 255.5 Q 758.0 253.1, 759.9 251.4 Q 761.9 249.6, 762.8 248.0 Q 763.8 246.5, 763.8 244.8 Q 763.8 243.1, 762.9 242.2 Q 762.1 241.2, 760.6 241.2 Q 759.2 241.2, 758.2 241.8 Q 757.3 242.4, 756.6 243.7 L 754.7 242.8 " fill="#000000"/>
<path class="atom-25" d="M 776.3 246.1 Q 777.8 246.1, 779.0 246.8 Q 780.3 247.4, 780.9 248.7 Q 781.6 249.9, 781.6 251.4 Q 781.6 253.2, 780.8 254.5 Q 780.1 255.8, 778.7 256.6 Q 777.4 257.3, 775.7 257.3 Q 772.5 257.3, 770.9 255.2 Q 769.3 253.1, 769.3 248.8 Q 769.3 244.1, 771.3 241.7 Q 773.3 239.2, 777.0 239.2 Q 778.1 239.2, 779.1 239.5 Q 780.0 239.7, 780.9 240.3 L 779.9 241.9 Q 778.6 241.2, 777.1 241.2 Q 774.6 241.2, 773.3 242.9 Q 772.0 244.5, 771.9 247.8 Q 772.8 247.0, 773.9 246.5 Q 775.0 246.1, 776.3 246.1 M 775.7 255.3 Q 776.6 255.3, 777.4 254.8 Q 778.2 254.3, 778.7 253.4 Q 779.1 252.5, 779.1 251.5 Q 779.1 249.9, 778.2 249.0 Q 777.4 248.1, 775.8 248.1 Q 774.7 248.1, 773.7 248.5 Q 772.6 249.0, 771.9 249.7 Q 772.0 252.6, 772.9 254.0 Q 773.8 255.3, 775.7 255.3 " fill="#000000"/>
<path class="atom-26" d="M 515.3 530.6 Q 515.3 526.2, 517.4 523.9 Q 519.4 521.6, 523.4 521.6 Q 527.0 521.6, 529.0 524.2 L 527.3 525.5 Q 525.9 523.7, 523.4 523.7 Q 520.7 523.7, 519.3 525.5 Q 517.9 527.2, 517.9 530.6 Q 517.9 534.1, 519.3 535.9 Q 520.8 537.7, 523.6 537.7 Q 525.6 537.7, 527.9 536.6 L 528.6 538.4 Q 527.6 539.0, 526.2 539.4 Q 524.8 539.7, 523.3 539.7 Q 519.4 539.7, 517.4 537.4 Q 515.3 535.0, 515.3 530.6 " fill="#000000"/>
<path class="atom-26" d="M 531.3 525.2 Q 531.9 523.5, 533.5 522.6 Q 535.0 521.6, 537.2 521.6 Q 539.8 521.6, 541.3 523.1 Q 542.8 524.5, 542.8 527.1 Q 542.8 529.7, 540.9 532.2 Q 539.0 534.6, 535.0 537.5 L 543.1 537.5 L 543.1 539.5 L 531.2 539.5 L 531.2 537.8 Q 534.5 535.5, 536.5 533.7 Q 538.4 532.0, 539.4 530.4 Q 540.3 528.8, 540.3 527.2 Q 540.3 525.5, 539.5 524.6 Q 538.6 523.6, 537.2 523.6 Q 535.7 523.6, 534.8 524.2 Q 533.8 524.8, 533.2 526.0 L 531.3 525.2 " fill="#000000"/>
<path class="atom-26" d="M 555.2 523.8 L 545.9 523.8 L 545.9 521.8 L 557.6 521.8 L 557.6 523.6 L 550.5 539.5 L 548.1 539.5 L 555.2 523.8 " fill="#000000"/>
<path class="atom-27" d="M 556.8 468.5 Q 556.8 464.1, 558.9 461.8 Q 560.9 459.5, 564.9 459.5 Q 568.5 459.5, 570.5 462.1 L 568.8 463.4 Q 567.4 461.6, 564.9 461.6 Q 562.2 461.6, 560.8 463.4 Q 559.4 465.1, 559.4 468.5 Q 559.4 472.0, 560.8 473.8 Q 562.3 475.6, 565.1 475.6 Q 567.1 475.6, 569.4 474.5 L 570.1 476.3 Q 569.1 476.9, 567.7 477.3 Q 566.3 477.6, 564.8 477.6 Q 560.9 477.6, 558.9 475.3 Q 556.8 472.9, 556.8 468.5 " fill="#000000"/>
<path class="atom-27" d="M 572.8 463.1 Q 573.4 461.4, 575.0 460.5 Q 576.5 459.5, 578.7 459.5 Q 581.4 459.5, 582.9 461.0 Q 584.4 462.4, 584.4 465.0 Q 584.4 467.6, 582.4 470.1 Q 580.5 472.5, 576.5 475.4 L 584.7 475.4 L 584.7 477.4 L 572.7 477.4 L 572.7 475.7 Q 576.0 473.4, 578.0 471.6 Q 580.0 469.9, 580.9 468.3 Q 581.9 466.7, 581.9 465.1 Q 581.9 463.4, 581.0 462.5 Q 580.2 461.5, 578.7 461.5 Q 577.3 461.5, 576.3 462.1 Q 575.4 462.7, 574.7 463.9 L 572.8 463.1 " fill="#000000"/>
<path class="atom-27" d="M 596.4 468.0 Q 598.1 468.7, 599.0 469.8 Q 599.9 470.8, 599.9 472.6 Q 599.9 474.1, 599.1 475.2 Q 598.4 476.4, 597.0 477.0 Q 595.6 477.7, 593.8 477.7 Q 590.8 477.7, 589.1 476.3 Q 587.4 474.9, 587.4 472.6 Q 587.4 471.1, 588.2 470.0 Q 588.9 468.9, 590.5 468.1 Q 589.3 467.5, 588.7 466.5 Q 588.1 465.5, 588.1 464.0 Q 588.1 462.0, 589.6 460.7 Q 591.1 459.5, 593.7 459.5 Q 596.2 459.5, 597.7 460.7 Q 599.3 462.0, 599.3 464.0 Q 599.3 465.3, 598.5 466.3 Q 597.8 467.3, 596.4 468.0 M 593.7 461.4 Q 592.2 461.4, 591.4 462.1 Q 590.6 462.8, 590.6 464.0 Q 590.6 465.0, 591.1 465.6 Q 591.7 466.2, 592.4 466.5 Q 593.2 466.9, 594.8 467.4 Q 595.8 466.7, 596.3 465.9 Q 596.8 465.1, 596.8 464.0 Q 596.8 462.8, 595.9 462.1 Q 595.1 461.4, 593.7 461.4 M 593.8 475.8 Q 595.4 475.8, 596.4 474.9 Q 597.4 474.0, 597.4 472.5 Q 597.4 471.6, 596.9 471.0 Q 596.4 470.4, 595.6 470.0 Q 594.8 469.7, 593.4 469.2 L 592.3 468.9 Q 591.0 469.6, 590.5 470.5 Q 589.9 471.4, 589.9 472.5 Q 589.9 474.0, 591.0 474.9 Q 592.0 475.8, 593.8 475.8 " fill="#000000"/>
<path class="atom-28" d="M 436.6 647.2 L 442.4 656.6 Q 442.9 657.5, 443.9 659.2 Q 444.8 660.8, 444.8 660.9 L 444.8 647.2 L 447.2 647.2 L 447.2 664.9 L 444.8 664.9 L 438.5 654.6 Q 437.8 653.4, 437.0 652.1 Q 436.3 650.7, 436.1 650.3 L 436.1 664.9 L 433.8 664.9 L 433.8 647.2 L 436.6 647.2 " fill="#0000FF"/>
<path class="atom-28" d="M 450.6 650.5 Q 451.2 648.9, 452.8 647.9 Q 454.3 647.0, 456.5 647.0 Q 459.1 647.0, 460.6 648.4 Q 462.1 649.9, 462.1 652.5 Q 462.1 655.1, 460.2 657.5 Q 458.3 660.0, 454.3 662.9 L 462.4 662.9 L 462.4 664.9 L 450.5 664.9 L 450.5 663.2 Q 453.8 660.9, 455.8 659.1 Q 457.7 657.4, 458.7 655.8 Q 459.6 654.2, 459.6 652.6 Q 459.6 650.9, 458.8 649.9 Q 457.9 649.0, 456.5 649.0 Q 455.0 649.0, 454.1 649.6 Q 453.1 650.1, 452.5 651.4 L 450.6 650.5 " fill="#0000FF"/>
<path class="atom-28" d="M 471.1 647.0 Q 474.3 647.0, 475.9 649.1 Q 477.5 651.3, 477.5 655.5 Q 477.5 660.2, 475.5 662.7 Q 473.5 665.1, 469.8 665.1 Q 468.7 665.1, 467.7 664.8 Q 466.8 664.6, 465.9 664.1 L 466.9 662.4 Q 468.2 663.1, 469.7 663.1 Q 472.2 663.1, 473.5 661.5 Q 474.8 659.9, 474.9 656.5 Q 474.0 657.4, 472.9 657.8 Q 471.8 658.2, 470.5 658.2 Q 469.0 658.2, 467.8 657.6 Q 466.5 656.9, 465.9 655.7 Q 465.2 654.4, 465.2 652.9 Q 465.2 651.2, 465.9 649.8 Q 466.7 648.5, 468.1 647.7 Q 469.4 647.0, 471.1 647.0 M 467.7 652.9 Q 467.7 654.4, 468.6 655.3 Q 469.4 656.2, 471.0 656.2 Q 472.1 656.2, 473.1 655.8 Q 474.2 655.4, 474.9 654.6 Q 474.8 651.7, 473.9 650.4 Q 473.0 649.0, 471.1 649.0 Q 470.2 649.0, 469.4 649.5 Q 468.6 650.0, 468.1 650.9 Q 467.7 651.8, 467.7 652.9 " fill="#0000FF"/>
<path class="atom-29" d="M 559.4 595.1 Q 559.4 590.7, 561.5 588.4 Q 563.5 586.1, 567.5 586.1 Q 571.1 586.1, 573.1 588.6 L 571.4 590.0 Q 570.0 588.1, 567.5 588.1 Q 564.8 588.1, 563.4 589.9 Q 562.0 591.7, 562.0 595.1 Q 562.0 598.6, 563.4 600.4 Q 564.9 602.2, 567.7 602.2 Q 569.7 602.2, 572.0 601.0 L 572.7 602.9 Q 571.7 603.5, 570.3 603.8 Q 568.9 604.2, 567.4 604.2 Q 563.5 604.2, 561.5 601.8 Q 559.4 599.5, 559.4 595.1 " fill="#000000"/>
<path class="atom-29" d="M 583.9 594.6 Q 585.6 595.1, 586.4 596.3 Q 587.3 597.4, 587.3 599.1 Q 587.3 600.6, 586.5 601.8 Q 585.8 602.9, 584.4 603.6 Q 583.0 604.2, 581.2 604.2 Q 579.3 604.2, 577.9 603.6 Q 576.5 602.9, 575.4 601.5 L 576.8 600.1 Q 577.9 601.3, 578.8 601.8 Q 579.7 602.2, 581.2 602.2 Q 582.8 602.2, 583.8 601.4 Q 584.8 600.5, 584.8 599.1 Q 584.8 597.3, 583.7 596.5 Q 582.7 595.7, 580.6 595.7 L 579.3 595.7 L 579.3 593.9 L 580.4 593.9 Q 582.3 593.8, 583.4 593.0 Q 584.4 592.2, 584.4 590.6 Q 584.4 589.4, 583.5 588.8 Q 582.7 588.1, 581.2 588.1 Q 579.8 588.1, 578.8 588.6 Q 577.9 589.1, 577.2 590.4 L 575.5 589.5 Q 576.1 588.0, 577.6 587.1 Q 579.1 586.1, 581.2 586.1 Q 583.8 586.1, 585.4 587.3 Q 586.9 588.5, 586.9 590.6 Q 586.9 592.0, 586.1 593.0 Q 585.3 594.1, 583.9 594.6 " fill="#000000"/>
<path class="atom-29" d="M 596.5 604.2 Q 593.2 604.2, 591.6 601.8 Q 590.0 599.4, 590.0 595.1 Q 590.0 590.8, 591.6 588.4 Q 593.2 586.1, 596.5 586.1 Q 599.8 586.1, 601.4 588.4 Q 603.0 590.8, 603.0 595.1 Q 603.0 599.4, 601.3 601.8 Q 599.7 604.2, 596.5 604.2 M 596.5 602.2 Q 598.4 602.2, 599.4 600.4 Q 600.5 598.6, 600.5 595.1 Q 600.5 591.6, 599.4 589.8 Q 598.4 588.1, 596.5 588.1 Q 594.6 588.1, 593.5 589.8 Q 592.5 591.6, 592.5 595.1 Q 592.5 598.6, 593.5 600.4 Q 594.6 602.2, 596.5 602.2 " fill="#000000"/>
<path class="atom-30" d="M 442.4 772.7 Q 442.4 768.3, 444.4 766.0 Q 446.5 763.7, 450.4 763.7 Q 454.1 763.7, 456.0 766.3 L 454.4 767.6 Q 453.0 765.7, 450.4 765.7 Q 447.8 765.7, 446.3 767.5 Q 444.9 769.3, 444.9 772.7 Q 444.9 776.2, 446.4 778.0 Q 447.9 779.8, 450.7 779.8 Q 452.7 779.8, 454.9 778.6 L 455.6 780.5 Q 454.7 781.1, 453.3 781.5 Q 451.9 781.8, 450.4 781.8 Q 446.5 781.8, 444.4 779.5 Q 442.4 777.1, 442.4 772.7 " fill="#000000"/>
<path class="atom-30" d="M 466.7 772.3 Q 468.5 772.8, 469.3 773.9 Q 470.1 775.0, 470.1 776.7 Q 470.1 778.2, 469.4 779.4 Q 468.6 780.6, 467.3 781.2 Q 465.9 781.8, 464.1 781.8 Q 462.2 781.8, 460.8 781.2 Q 459.4 780.5, 458.2 779.2 L 459.7 777.7 Q 460.8 778.9, 461.7 779.4 Q 462.6 779.8, 464.1 779.8 Q 465.7 779.8, 466.7 779.0 Q 467.6 778.1, 467.6 776.7 Q 467.6 774.9, 466.6 774.1 Q 465.6 773.3, 463.4 773.3 L 462.2 773.3 L 462.2 771.5 L 463.3 771.5 Q 465.2 771.5, 466.2 770.6 Q 467.3 769.8, 467.3 768.2 Q 467.3 767.1, 466.4 766.4 Q 465.6 765.7, 464.1 765.7 Q 462.6 765.7, 461.7 766.2 Q 460.8 766.7, 460.1 768.1 L 458.4 767.1 Q 459.0 765.7, 460.5 764.7 Q 462.0 763.7, 464.1 763.7 Q 466.7 763.7, 468.2 764.9 Q 469.8 766.1, 469.8 768.2 Q 469.8 769.6, 469.0 770.7 Q 468.2 771.7, 466.7 772.3 " fill="#000000"/>
<path class="atom-30" d="M 473.8 779.6 L 477.7 779.6 L 477.7 766.4 L 473.4 767.7 L 472.8 766.2 L 478.2 763.8 L 480.0 764.1 L 480.0 779.6 L 483.5 779.6 L 483.5 781.6 L 473.8 781.6 L 473.8 779.6 " fill="#000000"/>
<path class="atom-31" d="M 339.7 829.2 Q 339.7 824.8, 341.7 822.5 Q 343.8 820.1, 347.7 820.1 Q 351.4 820.1, 353.3 822.7 L 351.7 824.1 Q 350.3 822.2, 347.7 822.2 Q 345.1 822.2, 343.6 824.0 Q 342.2 825.8, 342.2 829.2 Q 342.2 832.7, 343.7 834.5 Q 345.2 836.3, 348.0 836.3 Q 350.0 836.3, 352.2 835.1 L 352.9 837.0 Q 352.0 837.6, 350.6 837.9 Q 349.2 838.3, 347.7 838.3 Q 343.8 838.3, 341.7 835.9 Q 339.7 833.6, 339.7 829.2 " fill="#000000"/>
<path class="atom-31" d="M 364.1 828.7 Q 365.8 829.2, 366.6 830.3 Q 367.5 831.4, 367.5 833.2 Q 367.5 834.7, 366.7 835.9 Q 366.0 837.0, 364.6 837.7 Q 363.2 838.3, 361.4 838.3 Q 359.5 838.3, 358.1 837.6 Q 356.7 837.0, 355.6 835.6 L 357.0 834.2 Q 358.1 835.4, 359.0 835.8 Q 360.0 836.3, 361.4 836.3 Q 363.0 836.3, 364.0 835.4 Q 365.0 834.6, 365.0 833.2 Q 365.0 831.4, 364.0 830.6 Q 363.0 829.7, 360.8 829.7 L 359.5 829.7 L 359.5 827.9 L 360.6 827.9 Q 362.6 827.9, 363.6 827.1 Q 364.6 826.2, 364.6 824.7 Q 364.6 823.5, 363.8 822.8 Q 362.9 822.1, 361.5 822.1 Q 360.0 822.1, 359.1 822.7 Q 358.2 823.2, 357.5 824.5 L 355.7 823.6 Q 356.4 822.1, 357.9 821.1 Q 359.4 820.1, 361.5 820.1 Q 364.1 820.1, 365.6 821.4 Q 367.1 822.6, 367.1 824.7 Q 367.1 826.1, 366.3 827.1 Q 365.6 828.1, 364.1 828.7 " fill="#000000"/>
<path class="atom-31" d="M 370.3 823.7 Q 370.9 822.0, 372.5 821.1 Q 374.0 820.1, 376.2 820.1 Q 378.8 820.1, 380.3 821.6 Q 381.8 823.0, 381.8 825.6 Q 381.8 828.2, 379.9 830.7 Q 378.0 833.1, 374.0 836.0 L 382.1 836.0 L 382.1 838.0 L 370.2 838.0 L 370.2 836.4 Q 373.5 834.0, 375.5 832.3 Q 377.4 830.5, 378.4 828.9 Q 379.3 827.4, 379.3 825.7 Q 379.3 824.0, 378.5 823.1 Q 377.6 822.1, 376.2 822.1 Q 374.7 822.1, 373.8 822.7 Q 372.8 823.3, 372.2 824.6 L 370.3 823.7 " fill="#000000"/>
<path class="atom-32" d="M 197.9 827.0 Q 197.9 822.6, 199.9 820.3 Q 202.0 817.9, 205.9 817.9 Q 209.6 817.9, 211.5 820.5 L 209.9 821.9 Q 208.4 820.0, 205.9 820.0 Q 203.2 820.0, 201.8 821.8 Q 200.4 823.6, 200.4 827.0 Q 200.4 830.5, 201.9 832.3 Q 203.3 834.1, 206.2 834.1 Q 208.1 834.1, 210.4 832.9 L 211.1 834.8 Q 210.2 835.4, 208.8 835.7 Q 207.4 836.1, 205.8 836.1 Q 202.0 836.1, 199.9 833.7 Q 197.9 831.4, 197.9 827.0 " fill="#000000"/>
<path class="atom-32" d="M 222.3 826.5 Q 224.0 827.0, 224.8 828.1 Q 225.7 829.2, 225.7 831.0 Q 225.7 832.5, 224.9 833.7 Q 224.2 834.8, 222.8 835.5 Q 221.4 836.1, 219.6 836.1 Q 217.7 836.1, 216.3 835.4 Q 214.9 834.8, 213.8 833.4 L 215.2 832.0 Q 216.3 833.2, 217.2 833.6 Q 218.1 834.1, 219.6 834.1 Q 221.2 834.1, 222.2 833.2 Q 223.2 832.4, 223.2 831.0 Q 223.2 829.2, 222.1 828.4 Q 221.1 827.5, 219.0 827.5 L 217.7 827.5 L 217.7 825.7 L 218.8 825.7 Q 220.7 825.7, 221.8 824.9 Q 222.8 824.0, 222.8 822.5 Q 222.8 821.3, 221.9 820.6 Q 221.1 819.9, 219.6 819.9 Q 218.2 819.9, 217.2 820.5 Q 216.3 821.0, 215.6 822.3 L 213.9 821.4 Q 214.5 819.9, 216.0 818.9 Q 217.5 817.9, 219.6 817.9 Q 222.2 817.9, 223.8 819.2 Q 225.3 820.4, 225.3 822.5 Q 225.3 823.9, 224.5 824.9 Q 223.7 825.9, 222.3 826.5 " fill="#000000"/>
<path class="atom-32" d="M 236.9 826.5 Q 238.6 827.0, 239.4 828.1 Q 240.3 829.2, 240.3 831.0 Q 240.3 832.5, 239.5 833.7 Q 238.8 834.8, 237.4 835.5 Q 236.0 836.1, 234.2 836.1 Q 232.3 836.1, 230.9 835.4 Q 229.5 834.8, 228.4 833.4 L 229.8 832.0 Q 230.9 833.2, 231.8 833.6 Q 232.8 834.1, 234.2 834.1 Q 235.8 834.1, 236.8 833.2 Q 237.8 832.4, 237.8 831.0 Q 237.8 829.2, 236.8 828.4 Q 235.8 827.5, 233.6 827.5 L 232.3 827.5 L 232.3 825.7 L 233.4 825.7 Q 235.4 825.7, 236.4 824.9 Q 237.4 824.0, 237.4 822.5 Q 237.4 821.3, 236.6 820.6 Q 235.7 819.9, 234.3 819.9 Q 232.8 819.9, 231.9 820.5 Q 231.0 821.0, 230.3 822.3 L 228.5 821.4 Q 229.2 819.9, 230.7 818.9 Q 232.2 817.9, 234.3 817.9 Q 236.9 817.9, 238.4 819.2 Q 239.9 820.4, 239.9 822.5 Q 239.9 823.9, 239.1 824.9 Q 238.4 825.9, 236.9 826.5 " fill="#000000"/>
<path class="atom-33" d="M 266.5 925.5 Q 266.5 921.1, 268.6 918.8 Q 270.6 916.5, 274.6 916.5 Q 278.2 916.5, 280.2 919.0 L 278.5 920.4 Q 277.1 918.5, 274.6 918.5 Q 271.9 918.5, 270.5 920.3 Q 269.1 922.1, 269.1 925.5 Q 269.1 929.0, 270.5 930.8 Q 272.0 932.6, 274.8 932.6 Q 276.8 932.6, 279.1 931.4 L 279.8 933.3 Q 278.8 933.9, 277.4 934.2 Q 276.0 934.6, 274.5 934.6 Q 270.6 934.6, 268.6 932.2 Q 266.5 929.9, 266.5 925.5 " fill="#000000"/>
<path class="atom-33" d="M 291.0 925.0 Q 292.7 925.5, 293.5 926.7 Q 294.4 927.8, 294.4 929.5 Q 294.4 931.0, 293.6 932.2 Q 292.9 933.3, 291.5 934.0 Q 290.1 934.6, 288.3 934.6 Q 286.4 934.6, 285.0 934.0 Q 283.6 933.3, 282.5 931.9 L 283.9 930.5 Q 285.0 931.7, 285.9 932.2 Q 286.8 932.6, 288.3 932.6 Q 289.9 932.6, 290.9 931.8 Q 291.9 930.9, 291.9 929.5 Q 291.9 927.7, 290.8 926.9 Q 289.8 926.1, 287.7 926.1 L 286.4 926.1 L 286.4 924.3 L 287.5 924.3 Q 289.4 924.2, 290.5 923.4 Q 291.5 922.6, 291.5 921.0 Q 291.5 919.8, 290.6 919.2 Q 289.8 918.5, 288.3 918.5 Q 286.9 918.5, 285.9 919.0 Q 285.0 919.5, 284.3 920.8 L 282.6 919.9 Q 283.2 918.4, 284.7 917.5 Q 286.2 916.5, 288.3 916.5 Q 290.9 916.5, 292.5 917.7 Q 294.0 918.9, 294.0 921.0 Q 294.0 922.4, 293.2 923.4 Q 292.4 924.5, 291.0 925.0 " fill="#000000"/>
<path class="atom-33" d="M 308.6 928.3 L 310.8 928.3 L 310.8 930.3 L 308.6 930.3 L 308.6 934.4 L 306.3 934.4 L 306.3 930.3 L 297.1 930.3 L 297.1 928.7 L 304.9 916.7 L 308.6 916.7 L 308.6 928.3 M 300.0 928.3 L 306.3 928.3 L 306.3 918.3 L 300.0 928.3 " fill="#000000"/>
<text x="1000" y="50" font-size="8" font-family="Verdana" font-weight="normal" letter-spacing="0" text-anchor="start" fill="black">Highlighted Atoms:
Primary SOM: Red
Secondary SOM: Green
Tertiary SOM: Cyan
</text></svg>
