<?xml version='1.0' encoding='ASCII' standalone='yes'?>
<svg xmlns="http://www.w3.org/2000/svg" xmlns:rdkit="http://www.rdkit.org/xml" xmlns:xlink="http://www.w3.org/1999/xlink" style="background-color: white;" version="1.1" baseProfile="full" xml:space="preserve" width="1000px" height="1000px" viewBox="0 0 1000 1000">
<!-- END OF HEADER -->
<rect style="opacity:1.0;fill:#FFFFFF;stroke:none" width="1000.0" height="1000.0" x="0.0" y="0.0"> </rect>
<ellipse cx="520.8" cy="186.9" rx="30.1" ry="29.1" class="atom-21" style="fill:#B20000;fill-rule:evenodd;stroke:#B20000;stroke-width:1.0px;stroke-linecap:butt;stroke-linejoin:miter;stroke-opacity:1"/>
<ellipse cx="686.2" cy="285.8" rx="30.0" ry="29.1" class="atom-22" style="fill:#B20000;fill-rule:evenodd;stroke:#B20000;stroke-width:1.0px;stroke-linecap:butt;stroke-linejoin:miter;stroke-opacity:1"/>
<path class="bond-0 atom-1 atom-0" d="M 279.8,651.3 L 279.8,724.0" style="fill:none;fill-rule:evenodd;stroke:#000000;stroke-width:2.0px;stroke-linecap:butt;stroke-linejoin:miter;stroke-opacity:1"/>
<path class="bond-0 atom-1 atom-0" d="M 294.4,651.3 L 294.3,724.0" style="fill:none;fill-rule:evenodd;stroke:#000000;stroke-width:2.0px;stroke-linecap:butt;stroke-linejoin:miter;stroke-opacity:1"/>
<path class="bond-1 atom-2 atom-1" d="M 346.7,600.6 L 289.0,633.9" style="fill:none;fill-rule:evenodd;stroke:#000000;stroke-width:2.0px;stroke-linecap:butt;stroke-linejoin:miter;stroke-opacity:1"/>
<path class="bond-2 atom-3 atom-0" d="M 345.7,774.3 L 296.2,745.7" style="fill:none;fill-rule:evenodd;stroke:#000000;stroke-width:2.0px;stroke-linecap:butt;stroke-linejoin:miter;stroke-opacity:1"/>
<path class="bond-3 atom-4 atom-3" d="M 426.2,748.7 L 381.7,774.3" style="fill:none;fill-rule:evenodd;stroke:#000000;stroke-width:2.0px;stroke-linecap:butt;stroke-linejoin:miter;stroke-opacity:1"/>
<path class="bond-3 atom-4 atom-3" d="M 419.0,736.0 L 374.4,761.7" style="fill:none;fill-rule:evenodd;stroke:#000000;stroke-width:2.0px;stroke-linecap:butt;stroke-linejoin:miter;stroke-opacity:1"/>
<path class="bond-4 atom-5 atom-2" d="M 426.8,627.2 L 381.0,600.7" style="fill:none;fill-rule:evenodd;stroke:#000000;stroke-width:2.0px;stroke-linecap:butt;stroke-linejoin:miter;stroke-opacity:1"/>
<path class="bond-4 atom-5 atom-2" d="M 419.5,639.8 L 373.7,613.3" style="fill:none;fill-rule:evenodd;stroke:#000000;stroke-width:2.0px;stroke-linecap:butt;stroke-linejoin:miter;stroke-opacity:1"/>
<path class="bond-5 atom-5 atom-4" d="M 447.8,651.7 L 447.7,724.3" style="fill:none;fill-rule:evenodd;stroke:#000000;stroke-width:2.0px;stroke-linecap:butt;stroke-linejoin:miter;stroke-opacity:1"/>
<path class="bond-6 atom-6 atom-0" d="M 212.8,774.7 L 263.3,745.6" style="fill:none;fill-rule:evenodd;stroke:#000000;stroke-width:2.0px;stroke-linecap:butt;stroke-linejoin:miter;stroke-opacity:1"/>
<path class="bond-7 atom-7 atom-6" d="M 121.2,827.5 L 150.0,811.0" style="fill:none;fill-rule:evenodd;stroke:#0000FF;stroke-width:2.0px;stroke-linecap:butt;stroke-linejoin:miter;stroke-opacity:1"/>
<path class="bond-7 atom-7 atom-6" d="M 150.0,811.0 L 178.7,794.4" style="fill:none;fill-rule:evenodd;stroke:#000000;stroke-width:2.0px;stroke-linecap:butt;stroke-linejoin:miter;stroke-opacity:1"/>
<path class="bond-7 atom-7 atom-6" d="M 113.9,814.9 L 142.7,798.4" style="fill:none;fill-rule:evenodd;stroke:#0000FF;stroke-width:2.0px;stroke-linecap:butt;stroke-linejoin:miter;stroke-opacity:1"/>
<path class="bond-7 atom-7 atom-6" d="M 142.7,798.4 L 171.5,781.8" style="fill:none;fill-rule:evenodd;stroke:#000000;stroke-width:2.0px;stroke-linecap:butt;stroke-linejoin:miter;stroke-opacity:1"/>
<path class="bond-7 atom-7 atom-6" d="M 128.5,840.1 L 157.2,823.6" style="fill:none;fill-rule:evenodd;stroke:#0000FF;stroke-width:2.0px;stroke-linecap:butt;stroke-linejoin:miter;stroke-opacity:1"/>
<path class="bond-7 atom-7 atom-6" d="M 157.2,823.6 L 186.0,807.0" style="fill:none;fill-rule:evenodd;stroke:#000000;stroke-width:2.0px;stroke-linecap:butt;stroke-linejoin:miter;stroke-opacity:1"/>
<path class="bond-8 atom-8 atom-4" d="M 522.6,760.7 L 456.9,739.3" style="fill:none;fill-rule:evenodd;stroke:#000000;stroke-width:2.0px;stroke-linecap:butt;stroke-linejoin:miter;stroke-opacity:1"/>
<path class="bond-9 atom-9 atom-8" d="M 587.9,700.3 L 568.3,727.3" style="fill:none;fill-rule:evenodd;stroke:#FF0000;stroke-width:2.0px;stroke-linecap:butt;stroke-linejoin:miter;stroke-opacity:1"/>
<path class="bond-9 atom-9 atom-8" d="M 568.3,727.3 L 548.7,754.2" style="fill:none;fill-rule:evenodd;stroke:#000000;stroke-width:2.0px;stroke-linecap:butt;stroke-linejoin:miter;stroke-opacity:1"/>
<path class="bond-10 atom-10 atom-5" d="M 517.1,616.8 L 457.1,636.3" style="fill:none;fill-rule:evenodd;stroke:#000000;stroke-width:2.0px;stroke-linecap:butt;stroke-linejoin:miter;stroke-opacity:1"/>
<path class="bond-11 atom-10 atom-9" d="M 548.8,621.6 L 568.5,648.7" style="fill:none;fill-rule:evenodd;stroke:#000000;stroke-width:2.0px;stroke-linecap:butt;stroke-linejoin:miter;stroke-opacity:1"/>
<path class="bond-11 atom-10 atom-9" d="M 568.5,648.7 L 588.1,675.8" style="fill:none;fill-rule:evenodd;stroke:#FF0000;stroke-width:2.0px;stroke-linecap:butt;stroke-linejoin:miter;stroke-opacity:1"/>
<path class="bond-12 atom-11 atom-10" d="M 506.0,533.0 L 534.6,597.3" style="fill:none;fill-rule:evenodd;stroke:#000000;stroke-width:2.0px;stroke-linecap:butt;stroke-linejoin:miter;stroke-opacity:1"/>
<path class="bond-13 atom-12 atom-10" d="M 602.5,573.4 L 560.9,597.4" style="fill:none;fill-rule:evenodd;stroke:#000000;stroke-width:2.0px;stroke-linecap:butt;stroke-linejoin:miter;stroke-opacity:1"/>
<path class="bond-14 atom-13 atom-12" d="M 624.1,476.2 L 624.0,549.0" style="fill:none;fill-rule:evenodd;stroke:#000000;stroke-width:2.0px;stroke-linecap:butt;stroke-linejoin:miter;stroke-opacity:1"/>
<path class="bond-14 atom-13 atom-12" d="M 638.6,476.2 L 638.6,549.0" style="fill:none;fill-rule:evenodd;stroke:#000000;stroke-width:2.0px;stroke-linecap:butt;stroke-linejoin:miter;stroke-opacity:1"/>
<path class="bond-15 atom-14 atom-12" d="M 686.9,597.4 L 645.5,573.4" style="fill:none;fill-rule:evenodd;stroke:#000000;stroke-width:2.0px;stroke-linecap:butt;stroke-linejoin:miter;stroke-opacity:1"/>
<path class="bond-16 atom-15 atom-13" d="M 686.6,428.0 L 634.1,458.3" style="fill:none;fill-rule:evenodd;stroke:#000000;stroke-width:2.0px;stroke-linecap:butt;stroke-linejoin:miter;stroke-opacity:1"/>
<path class="bond-17 atom-16 atom-14" d="M 781.9,566.9 L 728.7,597.6" style="fill:none;fill-rule:evenodd;stroke:#000000;stroke-width:2.0px;stroke-linecap:butt;stroke-linejoin:miter;stroke-opacity:1"/>
<path class="bond-17 atom-16 atom-14" d="M 774.7,554.3 L 721.4,585.0" style="fill:none;fill-rule:evenodd;stroke:#000000;stroke-width:2.0px;stroke-linecap:butt;stroke-linejoin:miter;stroke-opacity:1"/>
<path class="bond-18 atom-17 atom-15" d="M 782.0,458.4 L 729.5,428.0" style="fill:none;fill-rule:evenodd;stroke:#000000;stroke-width:2.0px;stroke-linecap:butt;stroke-linejoin:miter;stroke-opacity:1"/>
<path class="bond-18 atom-17 atom-15" d="M 774.7,471.0 L 722.2,440.6" style="fill:none;fill-rule:evenodd;stroke:#000000;stroke-width:2.0px;stroke-linecap:butt;stroke-linejoin:miter;stroke-opacity:1"/>
<path class="bond-19 atom-17 atom-16" d="M 792.0,476.6 L 792.0,549.0" style="fill:none;fill-rule:evenodd;stroke:#000000;stroke-width:2.0px;stroke-linecap:butt;stroke-linejoin:miter;stroke-opacity:1"/>
<path class="bond-20 atom-18 atom-11" d="M 548.7,454.8 L 509.5,508.7" style="fill:none;fill-rule:evenodd;stroke:#000000;stroke-width:2.0px;stroke-linecap:butt;stroke-linejoin:miter;stroke-opacity:1"/>
<path class="bond-21 atom-19 atom-18" d="M 523.8,366.1 L 552.3,430.3" style="fill:none;fill-rule:evenodd;stroke:#000000;stroke-width:2.0px;stroke-linecap:butt;stroke-linejoin:miter;stroke-opacity:1"/>
<path class="bond-22 atom-20 atom-19" d="M 566.6,287.6 L 546.9,314.6" style="fill:none;fill-rule:evenodd;stroke:#0000FF;stroke-width:2.0px;stroke-linecap:butt;stroke-linejoin:miter;stroke-opacity:1"/>
<path class="bond-22 atom-20 atom-19" d="M 546.9,314.6 L 527.2,341.6" style="fill:none;fill-rule:evenodd;stroke:#000000;stroke-width:2.0px;stroke-linecap:butt;stroke-linejoin:miter;stroke-opacity:1"/>
<path class="bond-23 atom-21 atom-20" d="M 541.4,198.9 L 555.7,231.1" style="fill:none;fill-rule:evenodd;stroke:#000000;stroke-width:2.0px;stroke-linecap:butt;stroke-linejoin:miter;stroke-opacity:1"/>
<path class="bond-23 atom-21 atom-20" d="M 555.7,231.1 L 570.0,263.3" style="fill:none;fill-rule:evenodd;stroke:#0000FF;stroke-width:2.0px;stroke-linecap:butt;stroke-linejoin:miter;stroke-opacity:1"/>
<path class="bond-24 atom-22 atom-20" d="M 661.8,284.6 L 622.9,280.4" style="fill:none;fill-rule:evenodd;stroke:#000000;stroke-width:2.0px;stroke-linecap:butt;stroke-linejoin:miter;stroke-opacity:1"/>
<path class="bond-24 atom-22 atom-20" d="M 622.9,280.4 L 583.9,276.3" style="fill:none;fill-rule:evenodd;stroke:#0000FF;stroke-width:2.0px;stroke-linecap:butt;stroke-linejoin:miter;stroke-opacity:1"/>
<path class="bond-25 atom-23 atom-17" d="M 867.6,420.7 L 840.4,436.3" style="fill:none;fill-rule:evenodd;stroke:#33CCCC;stroke-width:2.0px;stroke-linecap:butt;stroke-linejoin:miter;stroke-opacity:1"/>
<path class="bond-25 atom-23 atom-17" d="M 840.4,436.3 L 813.1,452.0" style="fill:none;fill-rule:evenodd;stroke:#000000;stroke-width:2.0px;stroke-linecap:butt;stroke-linejoin:miter;stroke-opacity:1"/>
<path class="atom-0" d="M 266.5 736.2 Q 266.5 731.8, 268.5 729.5 Q 270.6 727.2, 274.5 727.2 Q 278.2 727.2, 280.1 729.8 L 278.5 731.1 Q 277.1 729.3, 274.5 729.3 Q 271.9 729.3, 270.4 731.1 Q 269.0 732.8, 269.0 736.2 Q 269.0 739.7, 270.5 741.5 Q 272.0 743.3, 274.8 743.3 Q 276.8 743.3, 279.0 742.2 L 279.7 744.0 Q 278.8 744.6, 277.4 745.0 Q 276.0 745.3, 274.5 745.3 Q 270.6 745.3, 268.5 743.0 Q 266.5 740.6, 266.5 736.2 " fill="#000000"/>
<path class="atom-0" d="M 283.3 743.1 L 287.2 743.1 L 287.2 729.9 L 282.9 731.2 L 282.4 729.7 L 287.8 727.3 L 289.6 727.6 L 289.6 743.1 L 293.0 743.1 L 293.0 745.1 L 283.3 745.1 L 283.3 743.1 " fill="#000000"/>
<path class="atom-1" d="M 257.9 639.3 Q 257.9 634.9, 260.0 632.6 Q 262.1 630.2, 266.0 630.2 Q 269.6 630.2, 271.6 632.8 L 269.9 634.2 Q 268.5 632.3, 266.0 632.3 Q 263.3 632.3, 261.9 634.1 Q 260.5 635.9, 260.5 639.3 Q 260.5 642.8, 261.9 644.6 Q 263.4 646.4, 266.3 646.4 Q 268.2 646.4, 270.5 645.2 L 271.2 647.1 Q 270.3 647.7, 268.9 648.0 Q 267.5 648.4, 265.9 648.4 Q 262.1 648.4, 260.0 646.0 Q 257.9 643.7, 257.9 639.3 " fill="#000000"/>
<path class="atom-1" d="M 273.9 633.8 Q 274.6 632.1, 276.1 631.2 Q 277.7 630.2, 279.8 630.2 Q 282.5 630.2, 284.0 631.7 Q 285.5 633.1, 285.5 635.7 Q 285.5 638.3, 283.5 640.8 Q 281.6 643.2, 277.6 646.1 L 285.8 646.1 L 285.8 648.1 L 273.9 648.1 L 273.9 646.5 Q 277.2 644.1, 279.1 642.4 Q 281.1 640.6, 282.0 639.0 Q 283.0 637.5, 283.0 635.8 Q 283.0 634.1, 282.1 633.2 Q 281.3 632.2, 279.8 632.2 Q 278.4 632.2, 277.4 632.8 Q 276.5 633.4, 275.8 634.7 L 273.9 633.8 " fill="#000000"/>
<path class="atom-2" d="M 349.9 590.8 Q 349.9 586.4, 352.0 584.1 Q 354.1 581.8, 358.0 581.8 Q 361.6 581.8, 363.6 584.4 L 361.9 585.7 Q 360.5 583.9, 358.0 583.9 Q 355.3 583.9, 353.9 585.7 Q 352.5 587.4, 352.5 590.8 Q 352.5 594.3, 353.9 596.1 Q 355.4 597.9, 358.3 597.9 Q 360.2 597.9, 362.5 596.8 L 363.2 598.6 Q 362.3 599.2, 360.9 599.6 Q 359.5 599.9, 357.9 599.9 Q 354.1 599.9, 352.0 597.6 Q 349.9 595.2, 349.9 590.8 " fill="#000000"/>
<path class="atom-2" d="M 374.4 590.4 Q 376.1 590.9, 376.9 592.0 Q 377.8 593.1, 377.8 594.9 Q 377.8 596.4, 377.0 597.5 Q 376.3 598.7, 374.9 599.3 Q 373.5 600.0, 371.7 600.0 Q 369.8 600.0, 368.4 599.3 Q 367.0 598.6, 365.9 597.3 L 367.3 595.8 Q 368.4 597.0, 369.3 597.5 Q 370.2 598.0, 371.7 598.0 Q 373.3 598.0, 374.3 597.1 Q 375.3 596.2, 375.3 594.8 Q 375.3 593.0, 374.2 592.2 Q 373.2 591.4, 371.1 591.4 L 369.8 591.4 L 369.8 589.6 L 370.9 589.6 Q 372.8 589.6, 373.9 588.8 Q 374.9 587.9, 374.9 586.3 Q 374.9 585.2, 374.0 584.5 Q 373.2 583.8, 371.7 583.8 Q 370.3 583.8, 369.3 584.3 Q 368.4 584.9, 367.7 586.2 L 366.0 585.3 Q 366.6 583.8, 368.1 582.8 Q 369.6 581.8, 371.7 581.8 Q 374.3 581.8, 375.9 583.0 Q 377.4 584.3, 377.4 586.3 Q 377.4 587.8, 376.6 588.8 Q 375.8 589.8, 374.4 590.4 " fill="#000000"/>
<path class="atom-3" d="M 348.9 784.8 Q 348.9 780.4, 350.9 778.1 Q 353.0 775.7, 356.9 775.7 Q 360.6 775.7, 362.5 778.3 L 360.9 779.7 Q 359.4 777.8, 356.9 777.8 Q 354.2 777.8, 352.8 779.6 Q 351.4 781.4, 351.4 784.8 Q 351.4 788.3, 352.9 790.1 Q 354.3 791.9, 357.2 791.9 Q 359.1 791.9, 361.4 790.7 L 362.1 792.6 Q 361.2 793.2, 359.8 793.5 Q 358.4 793.9, 356.8 793.9 Q 353.0 793.9, 350.9 791.5 Q 348.9 789.2, 348.9 784.8 " fill="#000000"/>
<path class="atom-3" d="M 376.4 787.6 L 378.5 787.6 L 378.5 789.6 L 376.4 789.6 L 376.4 793.6 L 374.0 793.6 L 374.0 789.6 L 364.9 789.6 L 364.9 788.0 L 372.6 775.9 L 376.4 775.9 L 376.4 787.6 M 367.8 787.6 L 374.0 787.6 L 374.0 777.5 L 367.8 787.6 " fill="#000000"/>
<path class="atom-4" d="M 425.8 736.4 Q 425.8 732.0, 427.8 729.7 Q 429.9 727.3, 433.8 727.3 Q 437.5 727.3, 439.4 729.9 L 437.8 731.3 Q 436.4 729.4, 433.8 729.4 Q 431.2 729.4, 429.7 731.2 Q 428.3 733.0, 428.3 736.4 Q 428.3 739.9, 429.8 741.7 Q 431.3 743.5, 434.1 743.5 Q 436.1 743.5, 438.3 742.3 L 439.0 744.2 Q 438.1 744.8, 436.7 745.1 Q 435.3 745.5, 433.8 745.5 Q 429.9 745.5, 427.8 743.1 Q 425.8 740.8, 425.8 736.4 " fill="#000000"/>
<path class="atom-4" d="M 448.1 734.2 Q 449.7 734.2, 451.0 734.8 Q 452.2 735.5, 453.0 736.7 Q 453.7 738.0, 453.7 739.6 Q 453.7 741.5, 452.8 742.8 Q 451.9 744.1, 450.5 744.8 Q 449.0 745.4, 447.4 745.4 Q 445.7 745.4, 444.2 744.8 Q 442.7 744.2, 441.7 743.1 L 443.2 741.5 Q 444.0 742.4, 445.2 742.9 Q 446.3 743.4, 447.4 743.4 Q 449.0 743.4, 450.1 742.4 Q 451.2 741.5, 451.2 739.7 Q 451.2 737.8, 450.1 736.9 Q 449.0 736.0, 447.3 736.0 Q 445.7 736.0, 444.0 736.7 L 442.6 736.1 L 443.5 727.5 L 452.6 727.5 L 452.3 729.5 L 445.5 729.5 L 445.0 734.8 Q 446.6 734.2, 448.1 734.2 " fill="#000000"/>
<path class="atom-5" d="M 425.7 639.4 Q 425.7 635.0, 427.7 632.7 Q 429.8 630.4, 433.7 630.4 Q 437.4 630.4, 439.3 632.9 L 437.7 634.3 Q 436.3 632.4, 433.7 632.4 Q 431.1 632.4, 429.6 634.2 Q 428.2 636.0, 428.2 639.4 Q 428.2 642.9, 429.7 644.7 Q 431.2 646.5, 434.0 646.5 Q 436.0 646.5, 438.2 645.3 L 438.9 647.2 Q 438.0 647.8, 436.6 648.1 Q 435.2 648.5, 433.7 648.5 Q 429.8 648.5, 427.7 646.1 Q 425.7 643.8, 425.7 639.4 " fill="#000000"/>
<path class="atom-5" d="M 448.6 637.2 Q 450.1 637.2, 451.3 637.9 Q 452.6 638.6, 453.2 639.8 Q 453.9 641.0, 453.9 642.6 Q 453.9 644.3, 453.1 645.6 Q 452.4 647.0, 451.0 647.7 Q 449.7 648.5, 448.0 648.5 Q 444.8 648.5, 443.2 646.3 Q 441.6 644.2, 441.6 639.9 Q 441.6 635.2, 443.6 632.8 Q 445.6 630.4, 449.3 630.4 Q 450.4 630.4, 451.4 630.6 Q 452.3 630.9, 453.2 631.4 L 452.2 633.1 Q 450.9 632.4, 449.4 632.4 Q 446.9 632.4, 445.6 634.0 Q 444.3 635.6, 444.2 638.9 Q 445.1 638.1, 446.2 637.7 Q 447.3 637.2, 448.6 637.2 M 448.0 646.4 Q 448.9 646.4, 449.7 645.9 Q 450.5 645.4, 451.0 644.5 Q 451.4 643.7, 451.4 642.6 Q 451.4 641.0, 450.5 640.1 Q 449.7 639.2, 448.1 639.2 Q 447.0 639.2, 446.0 639.7 Q 444.9 640.1, 444.2 640.8 Q 444.3 643.8, 445.2 645.1 Q 446.1 646.4, 448.0 646.4 " fill="#000000"/>
<path class="atom-6" d="M 181.9 784.6 Q 181.9 780.2, 184.0 777.9 Q 186.0 775.6, 190.0 775.6 Q 193.6 775.6, 195.6 778.2 L 193.9 779.5 Q 192.5 777.7, 190.0 777.7 Q 187.3 777.7, 185.9 779.5 Q 184.5 781.2, 184.5 784.6 Q 184.5 788.1, 185.9 789.9 Q 187.4 791.7, 190.2 791.7 Q 192.2 791.7, 194.5 790.6 L 195.2 792.4 Q 194.2 793.0, 192.8 793.4 Q 191.4 793.7, 189.9 793.7 Q 186.0 793.7, 184.0 791.4 Q 181.9 789.0, 181.9 784.6 " fill="#000000"/>
<path class="atom-6" d="M 207.1 777.8 L 197.8 777.8 L 197.8 775.8 L 209.6 775.8 L 209.6 777.6 L 202.4 793.5 L 200.0 793.5 L 207.1 777.8 " fill="#000000"/>
<path class="atom-7" d="M 91.5 824.2 L 97.3 833.6 Q 97.9 834.5, 98.8 836.2 Q 99.7 837.9, 99.8 838.0 L 99.8 824.2 L 102.1 824.2 L 102.1 841.9 L 99.7 841.9 L 93.5 831.7 Q 92.7 830.5, 92.0 829.1 Q 91.2 827.7, 91.0 827.3 L 91.0 841.9 L 88.7 841.9 L 88.7 824.2 L 91.5 824.2 " fill="#0000FF"/>
<path class="atom-7" d="M 114.5 832.6 Q 116.1 833.3, 117.1 834.3 Q 118.0 835.3, 118.0 837.1 Q 118.0 838.6, 117.2 839.8 Q 116.4 840.9, 115.0 841.6 Q 113.7 842.2, 111.8 842.2 Q 108.9 842.2, 107.2 840.8 Q 105.5 839.5, 105.5 837.1 Q 105.5 835.6, 106.2 834.6 Q 107.0 833.5, 108.5 832.6 Q 107.4 832.0, 106.8 831.0 Q 106.1 830.1, 106.1 828.6 Q 106.1 826.5, 107.6 825.3 Q 109.2 824.0, 111.7 824.0 Q 114.3 824.0, 115.8 825.3 Q 117.3 826.5, 117.3 828.6 Q 117.3 829.9, 116.6 830.8 Q 115.9 831.8, 114.5 832.6 M 111.7 825.9 Q 110.3 825.9, 109.4 826.6 Q 108.6 827.3, 108.6 828.6 Q 108.6 829.5, 109.2 830.1 Q 109.7 830.7, 110.5 831.1 Q 111.3 831.4, 112.8 831.9 Q 113.9 831.2, 114.4 830.4 Q 114.8 829.6, 114.8 828.6 Q 114.8 827.3, 114.0 826.6 Q 113.2 825.9, 111.7 825.9 M 111.8 840.3 Q 113.5 840.3, 114.5 839.4 Q 115.5 838.5, 115.5 837.1 Q 115.5 836.1, 115.0 835.5 Q 114.4 834.9, 113.6 834.6 Q 112.9 834.2, 111.5 833.8 L 110.3 833.4 Q 109.1 834.1, 108.5 835.0 Q 108.0 835.9, 108.0 837.1 Q 108.0 838.5, 109.0 839.4 Q 110.1 840.3, 111.8 840.3 " fill="#0000FF"/>
<path class="atom-8" d="M 525.8 766.4 Q 525.8 762.0, 527.8 759.7 Q 529.9 757.4, 533.8 757.4 Q 537.5 757.4, 539.4 760.0 L 537.8 761.3 Q 536.4 759.4, 533.8 759.4 Q 531.2 759.4, 529.7 761.2 Q 528.3 763.0, 528.3 766.4 Q 528.3 769.9, 529.8 771.7 Q 531.3 773.5, 534.1 773.5 Q 536.1 773.5, 538.3 772.3 L 539.0 774.2 Q 538.1 774.8, 536.7 775.2 Q 535.3 775.5, 533.8 775.5 Q 529.9 775.5, 527.8 773.2 Q 525.8 770.8, 525.8 766.4 " fill="#000000"/>
<path class="atom-8" d="M 547.7 757.4 Q 550.8 757.4, 552.4 759.5 Q 554.0 761.7, 554.0 765.9 Q 554.0 770.6, 552.0 773.1 Q 550.1 775.5, 546.3 775.5 Q 545.2 775.5, 544.3 775.2 Q 543.3 775.0, 542.4 774.5 L 543.4 772.8 Q 544.7 773.5, 546.3 773.5 Q 548.8 773.5, 550.1 771.9 Q 551.3 770.3, 551.5 766.9 Q 550.6 767.8, 549.4 768.2 Q 548.3 768.6, 547.1 768.6 Q 545.5 768.6, 544.3 768.0 Q 543.1 767.3, 542.4 766.1 Q 541.7 764.8, 541.7 763.3 Q 541.7 761.6, 542.5 760.2 Q 543.3 758.9, 544.6 758.1 Q 546.0 757.4, 547.7 757.4 M 544.2 763.3 Q 544.2 764.8, 545.1 765.7 Q 546.0 766.6, 547.5 766.6 Q 548.6 766.6, 549.7 766.2 Q 550.7 765.8, 551.5 765.0 Q 551.4 762.1, 550.5 760.8 Q 549.5 759.4, 547.7 759.4 Q 546.7 759.4, 545.9 759.9 Q 545.1 760.4, 544.7 761.3 Q 544.2 762.2, 544.2 763.3 " fill="#000000"/>
<path class="atom-9" d="M 588.8 688.0 Q 588.8 683.7, 590.9 681.3 Q 593.0 679.0, 596.9 679.0 Q 600.8 679.0, 602.9 681.3 Q 605.0 683.7, 605.0 688.0 Q 605.0 692.3, 602.9 694.7 Q 600.8 697.1, 596.9 697.1 Q 593.0 697.1, 590.9 694.7 Q 588.8 692.3, 588.8 688.0 M 596.9 695.1 Q 599.6 695.1, 601.1 693.3 Q 602.5 691.5, 602.5 688.0 Q 602.5 684.5, 601.1 682.7 Q 599.6 681.0, 596.9 681.0 Q 594.2 681.0, 592.7 682.7 Q 591.3 684.5, 591.3 688.0 Q 591.3 691.5, 592.7 693.3 Q 594.2 695.1, 596.9 695.1 " fill="#FF0000"/>
<path class="atom-9" d="M 608.6 694.9 L 612.5 694.9 L 612.5 681.6 L 608.2 683.0 L 607.6 681.5 L 613.1 679.1 L 614.8 679.4 L 614.8 694.9 L 618.3 694.9 L 618.3 696.9 L 608.6 696.9 L 608.6 694.9 " fill="#FF0000"/>
<path class="atom-9" d="M 627.2 697.1 Q 623.9 697.1, 622.3 694.7 Q 620.7 692.3, 620.7 688.0 Q 620.7 683.7, 622.3 681.3 Q 623.9 679.0, 627.2 679.0 Q 630.4 679.0, 632.0 681.3 Q 633.6 683.7, 633.6 688.0 Q 633.6 692.3, 632.0 694.7 Q 630.4 697.1, 627.2 697.1 M 627.2 695.1 Q 629.1 695.1, 630.1 693.3 Q 631.1 691.5, 631.1 688.0 Q 631.1 684.5, 630.1 682.7 Q 629.1 681.0, 627.2 681.0 Q 625.3 681.0, 624.2 682.7 Q 623.2 684.5, 623.2 688.0 Q 623.2 691.5, 624.2 693.3 Q 625.3 695.1, 627.2 695.1 " fill="#FF0000"/>
<path class="atom-10" d="M 520.3 609.5 Q 520.3 605.1, 522.4 602.8 Q 524.5 600.5, 528.4 600.5 Q 532.0 600.5, 534.0 603.0 L 532.3 604.4 Q 530.9 602.5, 528.4 602.5 Q 525.7 602.5, 524.3 604.3 Q 522.9 606.1, 522.9 609.5 Q 522.9 613.0, 524.3 614.8 Q 525.8 616.6, 528.7 616.6 Q 530.6 616.6, 532.9 615.4 L 533.6 617.3 Q 532.7 617.9, 531.3 618.2 Q 529.9 618.6, 528.3 618.6 Q 524.5 618.6, 522.4 616.2 Q 520.3 613.9, 520.3 609.5 " fill="#000000"/>
<path class="atom-10" d="M 537.1 616.4 L 541.0 616.4 L 541.0 603.1 L 536.7 604.5 L 536.1 603.0 L 541.6 600.6 L 543.3 600.9 L 543.3 616.4 L 546.8 616.4 L 546.8 618.4 L 537.1 618.4 L 537.1 616.4 " fill="#000000"/>
<path class="atom-10" d="M 550.0 616.4 L 553.9 616.4 L 553.9 603.1 L 549.6 604.5 L 549.0 603.0 L 554.5 600.6 L 556.2 600.9 L 556.2 616.4 L 559.7 616.4 L 559.7 618.4 L 550.0 618.4 L 550.0 616.4 " fill="#000000"/>
<path class="atom-11" d="M 465.9 520.9 Q 465.9 516.5, 467.9 514.2 Q 470.0 511.9, 473.9 511.9 Q 477.6 511.9, 479.5 514.4 L 477.9 515.8 Q 476.5 513.9, 473.9 513.9 Q 471.3 513.9, 469.8 515.7 Q 468.4 517.5, 468.4 520.9 Q 468.4 524.4, 469.9 526.2 Q 471.4 528.0, 474.2 528.0 Q 476.2 528.0, 478.4 526.8 L 479.1 528.7 Q 478.2 529.3, 476.8 529.6 Q 475.4 530.0, 473.9 530.0 Q 470.0 530.0, 467.9 527.6 Q 465.9 525.3, 465.9 520.9 " fill="#000000"/>
<path class="atom-11" d="M 482.7 527.8 L 486.6 527.8 L 486.6 514.5 L 482.3 515.9 L 481.7 514.4 L 487.2 512.0 L 488.9 512.3 L 488.9 527.8 L 492.4 527.8 L 492.4 529.8 L 482.7 529.8 L 482.7 527.8 " fill="#000000"/>
<path class="atom-11" d="M 494.7 515.4 Q 495.4 513.7, 496.9 512.8 Q 498.5 511.9, 500.6 511.9 Q 503.3 511.9, 504.8 513.3 Q 506.3 514.8, 506.3 517.3 Q 506.3 520.0, 504.4 522.4 Q 502.4 524.9, 498.4 527.8 L 506.6 527.8 L 506.6 529.8 L 494.7 529.8 L 494.7 528.1 Q 498.0 525.7, 499.9 524.0 Q 501.9 522.2, 502.9 520.7 Q 503.8 519.1, 503.8 517.5 Q 503.8 515.8, 503.0 514.8 Q 502.1 513.9, 500.6 513.9 Q 499.2 513.9, 498.3 514.4 Q 497.3 515.0, 496.6 516.3 L 494.7 515.4 " fill="#000000"/>
<path class="atom-12" d="M 603.7 561.1 Q 603.7 556.7, 605.7 554.4 Q 607.8 552.1, 611.7 552.1 Q 615.4 552.1, 617.3 554.7 L 615.7 556.0 Q 614.2 554.1, 611.7 554.1 Q 609.0 554.1, 607.6 555.9 Q 606.2 557.7, 606.2 561.1 Q 606.2 564.6, 607.7 566.4 Q 609.1 568.2, 612.0 568.2 Q 613.9 568.2, 616.2 567.0 L 616.9 568.9 Q 616.0 569.5, 614.6 569.9 Q 613.2 570.2, 611.6 570.2 Q 607.8 570.2, 605.7 567.9 Q 603.7 565.5, 603.7 561.1 " fill="#000000"/>
<path class="atom-12" d="M 620.5 568.0 L 624.4 568.0 L 624.4 554.8 L 620.1 556.1 L 619.5 554.6 L 625.0 552.2 L 626.7 552.5 L 626.7 568.0 L 630.2 568.0 L 630.2 570.0 L 620.5 570.0 L 620.5 568.0 " fill="#000000"/>
<path class="atom-12" d="M 641.0 560.7 Q 642.7 561.2, 643.5 562.3 Q 644.4 563.4, 644.4 565.1 Q 644.4 566.6, 643.6 567.8 Q 642.9 569.0, 641.5 569.6 Q 640.1 570.2, 638.3 570.2 Q 636.4 570.2, 635.0 569.6 Q 633.6 568.9, 632.5 567.6 L 633.9 566.1 Q 635.0 567.3, 635.9 567.8 Q 636.8 568.2, 638.3 568.2 Q 639.9 568.2, 640.9 567.4 Q 641.9 566.5, 641.9 565.1 Q 641.9 563.3, 640.8 562.5 Q 639.8 561.7, 637.7 561.7 L 636.4 561.7 L 636.4 559.9 L 637.5 559.9 Q 639.4 559.9, 640.5 559.0 Q 641.5 558.2, 641.5 556.6 Q 641.5 555.5, 640.6 554.8 Q 639.8 554.1, 638.3 554.1 Q 636.9 554.1, 635.9 554.6 Q 635.0 555.1, 634.3 556.5 L 632.6 555.5 Q 633.2 554.1, 634.7 553.1 Q 636.2 552.1, 638.3 552.1 Q 640.9 552.1, 642.5 553.3 Q 644.0 554.5, 644.0 556.6 Q 644.0 558.0, 643.2 559.1 Q 642.4 560.1, 641.0 560.7 " fill="#000000"/>
<path class="atom-13" d="M 588.4 464.1 Q 588.4 459.7, 590.4 457.4 Q 592.5 455.1, 596.4 455.1 Q 600.1 455.1, 602.0 457.7 L 600.4 459.0 Q 598.9 457.1, 596.4 457.1 Q 593.7 457.1, 592.3 458.9 Q 590.9 460.7, 590.9 464.1 Q 590.9 467.6, 592.4 469.4 Q 593.8 471.2, 596.7 471.2 Q 598.6 471.2, 600.9 470.0 L 601.6 471.9 Q 600.7 472.5, 599.3 472.9 Q 597.9 473.2, 596.3 473.2 Q 592.5 473.2, 590.4 470.9 Q 588.4 468.5, 588.4 464.1 " fill="#000000"/>
<path class="atom-13" d="M 605.3 471.0 L 609.1 471.0 L 609.1 457.8 L 604.9 459.1 L 604.3 457.6 L 609.7 455.2 L 611.5 455.5 L 611.5 471.0 L 615.0 471.0 L 615.0 473.0 L 605.3 473.0 L 605.3 471.0 " fill="#000000"/>
<path class="atom-13" d="M 628.8 466.9 L 630.9 466.9 L 630.9 468.9 L 628.8 468.9 L 628.8 473.0 L 626.4 473.0 L 626.4 468.9 L 617.3 468.9 L 617.3 467.3 L 625.0 455.3 L 628.8 455.3 L 628.8 466.9 M 620.2 466.9 L 626.4 466.9 L 626.4 456.9 L 620.2 466.9 " fill="#000000"/>
<path class="atom-14" d="M 687.6 609.6 Q 687.6 605.2, 689.6 602.9 Q 691.7 600.6, 695.6 600.6 Q 699.3 600.6, 701.2 603.2 L 699.6 604.5 Q 698.1 602.7, 695.6 602.7 Q 692.9 602.7, 691.5 604.5 Q 690.1 606.2, 690.1 609.6 Q 690.1 613.1, 691.6 614.9 Q 693.0 616.7, 695.9 616.7 Q 697.8 616.7, 700.1 615.6 L 700.8 617.4 Q 699.9 618.0, 698.5 618.4 Q 697.1 618.7, 695.5 618.7 Q 691.7 618.7, 689.6 616.4 Q 687.6 614.0, 687.6 609.6 " fill="#000000"/>
<path class="atom-14" d="M 704.4 616.5 L 708.3 616.5 L 708.3 603.3 L 704.0 604.6 L 703.4 603.1 L 708.8 600.7 L 710.6 601.0 L 710.6 616.5 L 714.1 616.5 L 714.1 618.5 L 704.4 618.5 L 704.4 616.5 " fill="#000000"/>
<path class="atom-14" d="M 722.8 607.4 Q 724.3 607.4, 725.6 608.1 Q 726.9 608.8, 727.6 610.0 Q 728.3 611.2, 728.3 612.9 Q 728.3 614.7, 727.4 616.1 Q 726.6 617.4, 725.1 618.0 Q 723.7 618.7, 722.0 618.7 Q 720.4 618.7, 718.9 618.1 Q 717.4 617.5, 716.4 616.4 L 717.9 614.8 Q 718.7 615.7, 719.8 616.2 Q 720.9 616.7, 722.1 616.7 Q 723.7 616.7, 724.7 615.7 Q 725.8 614.7, 725.8 613.0 Q 725.8 611.1, 724.7 610.2 Q 723.7 609.3, 721.9 609.3 Q 720.4 609.3, 718.7 610.0 L 717.3 609.3 L 718.1 600.8 L 727.2 600.8 L 727.0 602.8 L 720.2 602.8 L 719.7 608.1 Q 721.2 607.4, 722.8 607.4 " fill="#000000"/>
<path class="atom-15" d="M 687.6 415.7 Q 687.6 411.3, 689.6 409.0 Q 691.7 406.7, 695.6 406.7 Q 699.3 406.7, 701.2 409.3 L 699.6 410.6 Q 698.1 408.7, 695.6 408.7 Q 692.9 408.7, 691.5 410.5 Q 690.1 412.3, 690.1 415.7 Q 690.1 419.2, 691.6 421.0 Q 693.0 422.8, 695.9 422.8 Q 697.8 422.8, 700.1 421.6 L 700.8 423.5 Q 699.9 424.1, 698.5 424.5 Q 697.1 424.8, 695.5 424.8 Q 691.7 424.8, 689.6 422.5 Q 687.6 420.1, 687.6 415.7 " fill="#000000"/>
<path class="atom-15" d="M 704.4 422.6 L 708.3 422.6 L 708.3 409.4 L 704.0 410.7 L 703.4 409.2 L 708.8 406.8 L 710.6 407.1 L 710.6 422.6 L 714.1 422.6 L 714.1 424.6 L 704.4 424.6 L 704.4 422.6 " fill="#000000"/>
<path class="atom-15" d="M 723.3 413.5 Q 724.8 413.5, 726.1 414.2 Q 727.3 414.9, 728.0 416.1 Q 728.6 417.3, 728.6 418.9 Q 728.6 420.6, 727.9 422.0 Q 727.1 423.3, 725.8 424.0 Q 724.4 424.8, 722.7 424.8 Q 719.5 424.8, 717.9 422.7 Q 716.4 420.5, 716.4 416.3 Q 716.4 411.6, 718.3 409.1 Q 720.3 406.7, 724.1 406.7 Q 725.2 406.7, 726.1 406.9 Q 727.0 407.2, 727.9 407.7 L 727.0 409.4 Q 725.7 408.7, 724.1 408.7 Q 721.6 408.7, 720.3 410.3 Q 719.0 411.9, 718.9 415.2 Q 719.8 414.4, 720.9 414.0 Q 722.1 413.5, 723.3 413.5 M 722.7 422.7 Q 723.7 422.7, 724.4 422.2 Q 725.2 421.7, 725.7 420.9 Q 726.1 420.0, 726.1 418.9 Q 726.1 417.3, 725.3 416.4 Q 724.4 415.5, 722.8 415.5 Q 721.8 415.5, 720.7 416.0 Q 719.6 416.4, 718.9 417.2 Q 719.0 420.1, 719.9 421.4 Q 720.8 422.7, 722.7 422.7 " fill="#000000"/>
<path class="atom-16" d="M 785.1 561.2 Q 785.1 556.8, 787.2 554.5 Q 789.3 552.2, 793.2 552.2 Q 796.8 552.2, 798.8 554.8 L 797.1 556.1 Q 795.7 554.3, 793.2 554.3 Q 790.5 554.3, 789.1 556.1 Q 787.7 557.8, 787.7 561.2 Q 787.7 564.7, 789.1 566.5 Q 790.6 568.3, 793.5 568.3 Q 795.4 568.3, 797.7 567.2 L 798.4 569.0 Q 797.5 569.6, 796.1 570.0 Q 794.7 570.3, 793.1 570.3 Q 789.3 570.3, 787.2 568.0 Q 785.1 565.6, 785.1 561.2 " fill="#000000"/>
<path class="atom-16" d="M 802.0 568.1 L 805.8 568.1 L 805.8 554.9 L 801.6 556.2 L 801.0 554.7 L 806.4 552.3 L 808.2 552.6 L 808.2 568.1 L 811.7 568.1 L 811.7 570.1 L 802.0 570.1 L 802.0 568.1 " fill="#000000"/>
<path class="atom-16" d="M 823.2 554.4 L 813.9 554.4 L 813.9 552.4 L 825.7 552.4 L 825.7 554.2 L 818.5 570.1 L 816.1 570.1 L 823.2 554.4 " fill="#000000"/>
<path class="atom-17" d="M 785.2 464.3 Q 785.2 459.9, 787.3 457.6 Q 789.3 455.2, 793.3 455.2 Q 796.9 455.2, 798.9 457.8 L 797.2 459.2 Q 795.8 457.3, 793.3 457.3 Q 790.6 457.3, 789.2 459.1 Q 787.8 460.9, 787.8 464.3 Q 787.8 467.8, 789.2 469.6 Q 790.7 471.4, 793.5 471.4 Q 795.5 471.4, 797.8 470.2 L 798.5 472.1 Q 797.5 472.7, 796.1 473.0 Q 794.7 473.4, 793.2 473.4 Q 789.3 473.4, 787.3 471.0 Q 785.2 468.7, 785.2 464.3 " fill="#000000"/>
<path class="atom-17" d="M 802.1 471.1 L 806.0 471.1 L 806.0 457.9 L 801.7 459.2 L 801.1 457.8 L 806.5 455.3 L 808.3 455.6 L 808.3 471.1 L 811.8 471.1 L 811.8 473.1 L 802.1 473.1 L 802.1 471.1 " fill="#000000"/>
<path class="atom-17" d="M 823.1 463.8 Q 824.7 464.5, 825.6 465.5 Q 826.6 466.5, 826.6 468.3 Q 826.6 469.8, 825.8 471.0 Q 825.0 472.1, 823.6 472.8 Q 822.2 473.4, 820.4 473.4 Q 817.5 473.4, 815.8 472.0 Q 814.1 470.7, 814.1 468.3 Q 814.1 466.8, 814.8 465.8 Q 815.6 464.7, 817.1 463.8 Q 816.0 463.2, 815.3 462.2 Q 814.7 461.3, 814.7 459.8 Q 814.7 457.7, 816.2 456.5 Q 817.7 455.2, 820.3 455.2 Q 822.9 455.2, 824.4 456.5 Q 825.9 457.7, 825.9 459.8 Q 825.9 461.1, 825.2 462.0 Q 824.5 463.0, 823.1 463.8 M 820.3 457.1 Q 818.8 457.1, 818.0 457.8 Q 817.2 458.5, 817.2 459.8 Q 817.2 460.7, 817.8 461.3 Q 818.3 461.9, 819.1 462.3 Q 819.9 462.6, 821.4 463.1 Q 822.5 462.4, 822.9 461.6 Q 823.4 460.8, 823.4 459.8 Q 823.4 458.5, 822.6 457.8 Q 821.8 457.1, 820.3 457.1 M 820.4 471.5 Q 822.1 471.5, 823.1 470.6 Q 824.1 469.7, 824.1 468.3 Q 824.1 467.3, 823.5 466.7 Q 823.0 466.1, 822.2 465.8 Q 821.4 465.4, 820.0 465.0 L 818.9 464.6 Q 817.7 465.3, 817.1 466.2 Q 816.6 467.1, 816.6 468.3 Q 816.6 469.7, 817.6 470.6 Q 818.7 471.5, 820.4 471.5 " fill="#000000"/>
<path class="atom-18" d="M 550.9 442.5 Q 550.9 438.1, 552.9 435.8 Q 555.0 433.5, 558.9 433.5 Q 562.6 433.5, 564.5 436.0 L 562.9 437.4 Q 561.4 435.5, 558.9 435.5 Q 556.2 435.5, 554.8 437.3 Q 553.4 439.1, 553.4 442.5 Q 553.4 446.0, 554.9 447.8 Q 556.3 449.6, 559.2 449.6 Q 561.1 449.6, 563.4 448.4 L 564.1 450.3 Q 563.2 450.9, 561.8 451.2 Q 560.4 451.6, 558.8 451.6 Q 555.0 451.6, 552.9 449.2 Q 550.9 446.9, 550.9 442.5 " fill="#000000"/>
<path class="atom-18" d="M 567.7 449.4 L 571.6 449.4 L 571.6 436.1 L 567.3 437.5 L 566.7 436.0 L 572.2 433.6 L 573.9 433.9 L 573.9 449.4 L 577.4 449.4 L 577.4 451.4 L 567.7 451.4 L 567.7 449.4 " fill="#000000"/>
<path class="atom-18" d="M 585.6 433.5 Q 588.8 433.5, 590.4 435.6 Q 592.0 437.7, 592.0 442.0 Q 592.0 446.7, 590.0 449.1 Q 588.0 451.6, 584.3 451.6 Q 583.2 451.6, 582.2 451.3 Q 581.3 451.1, 580.4 450.5 L 581.4 448.9 Q 582.7 449.6, 584.2 449.6 Q 586.7 449.6, 588.0 448.0 Q 589.3 446.3, 589.4 443.0 Q 588.5 443.8, 587.4 444.3 Q 586.3 444.7, 585.0 444.7 Q 583.5 444.7, 582.3 444.0 Q 581.0 443.4, 580.4 442.1 Q 579.7 440.9, 579.7 439.4 Q 579.7 437.6, 580.4 436.3 Q 581.2 435.0, 582.6 434.2 Q 583.9 433.5, 585.6 433.5 M 582.2 439.3 Q 582.2 440.9, 583.1 441.8 Q 583.9 442.7, 585.5 442.7 Q 586.6 442.7, 587.6 442.3 Q 588.7 441.8, 589.4 441.1 Q 589.3 438.2, 588.4 436.8 Q 587.5 435.5, 585.6 435.5 Q 584.7 435.5, 583.9 436.0 Q 583.1 436.5, 582.6 437.4 Q 582.2 438.3, 582.2 439.3 " fill="#000000"/>
<path class="atom-19" d="M 481.2 353.9 Q 481.2 349.5, 483.3 347.2 Q 485.4 344.8, 489.3 344.8 Q 492.9 344.8, 494.9 347.4 L 493.2 348.8 Q 491.8 346.9, 489.3 346.9 Q 486.6 346.9, 485.2 348.7 Q 483.8 350.5, 483.8 353.9 Q 483.8 357.4, 485.2 359.2 Q 486.7 361.0, 489.6 361.0 Q 491.5 361.0, 493.8 359.8 L 494.5 361.7 Q 493.6 362.3, 492.2 362.6 Q 490.8 363.0, 489.2 363.0 Q 485.4 363.0, 483.3 360.6 Q 481.2 358.3, 481.2 353.9 " fill="#000000"/>
<path class="atom-19" d="M 497.2 348.4 Q 497.9 346.7, 499.4 345.8 Q 501.0 344.8, 503.1 344.8 Q 505.8 344.8, 507.3 346.3 Q 508.8 347.7, 508.8 350.3 Q 508.8 352.9, 506.8 355.4 Q 504.9 357.8, 500.9 360.7 L 509.1 360.7 L 509.1 362.7 L 497.2 362.7 L 497.2 361.1 Q 500.5 358.7, 502.4 357.0 Q 504.4 355.2, 505.3 353.6 Q 506.3 352.1, 506.3 350.4 Q 506.3 348.7, 505.4 347.8 Q 504.6 346.8, 503.1 346.8 Q 501.7 346.8, 500.7 347.4 Q 499.8 348.0, 499.1 349.3 L 497.2 348.4 " fill="#000000"/>
<path class="atom-19" d="M 518.3 362.9 Q 515.1 362.9, 513.5 360.5 Q 511.9 358.1, 511.9 353.9 Q 511.9 349.6, 513.5 347.2 Q 515.1 344.8, 518.3 344.8 Q 521.6 344.8, 523.2 347.2 Q 524.8 349.6, 524.8 353.9 Q 524.8 358.1, 523.2 360.5 Q 521.6 362.9, 518.3 362.9 M 518.3 360.9 Q 520.3 360.9, 521.3 359.2 Q 522.3 357.4, 522.3 353.9 Q 522.3 350.4, 521.3 348.6 Q 520.3 346.8, 518.3 346.8 Q 516.4 346.8, 515.4 348.6 Q 514.4 350.4, 514.4 353.9 Q 514.4 357.4, 515.4 359.2 Q 516.4 360.9, 518.3 360.9 " fill="#000000"/>
<path class="atom-20" d="M 541.5 266.7 L 547.3 276.0 Q 547.9 277.0, 548.8 278.6 Q 549.8 280.3, 549.8 280.4 L 549.8 266.7 L 552.2 266.7 L 552.2 284.4 L 549.7 284.4 L 543.5 274.1 Q 542.8 272.9, 542.0 271.5 Q 541.3 270.2, 541.0 269.7 L 541.0 284.4 L 538.7 284.4 L 538.7 266.7 L 541.5 266.7 " fill="#0000FF"/>
<path class="atom-20" d="M 555.5 270.0 Q 556.1 268.3, 557.7 267.4 Q 559.2 266.5, 561.4 266.5 Q 564.1 266.5, 565.6 267.9 Q 567.1 269.4, 567.1 271.9 Q 567.1 274.6, 565.1 277.0 Q 563.2 279.5, 559.2 282.4 L 567.4 282.4 L 567.4 284.4 L 555.4 284.4 L 555.4 282.7 Q 558.7 280.3, 560.7 278.6 Q 562.7 276.8, 563.6 275.3 Q 564.6 273.7, 564.6 272.1 Q 564.6 270.4, 563.7 269.4 Q 562.9 268.5, 561.4 268.5 Q 560.0 268.5, 559.0 269.0 Q 558.1 269.6, 557.4 270.9 L 555.5 270.0 " fill="#0000FF"/>
<path class="atom-20" d="M 571.0 282.4 L 574.9 282.4 L 574.9 269.1 L 570.6 270.5 L 570.1 269.0 L 575.5 266.6 L 577.3 266.9 L 577.3 282.4 L 580.7 282.4 L 580.7 284.4 L 571.0 284.4 L 571.0 282.4 " fill="#0000FF"/>
<path class="atom-21" d="M 499.5 186.9 Q 499.5 182.5, 501.6 180.2 Q 503.6 177.8, 507.6 177.8 Q 511.2 177.8, 513.2 180.4 L 511.5 181.8 Q 510.1 179.9, 507.6 179.9 Q 504.9 179.9, 503.5 181.7 Q 502.1 183.5, 502.1 186.9 Q 502.1 190.4, 503.5 192.2 Q 505.0 194.0, 507.8 194.0 Q 509.8 194.0, 512.1 192.8 L 512.8 194.7 Q 511.8 195.3, 510.4 195.6 Q 509.0 196.0, 507.5 196.0 Q 503.6 196.0, 501.6 193.6 Q 499.5 191.3, 499.5 186.9 " fill="#000000"/>
<path class="atom-21" d="M 515.5 181.4 Q 516.1 179.7, 517.7 178.8 Q 519.2 177.8, 521.4 177.8 Q 524.0 177.8, 525.5 179.3 Q 527.0 180.7, 527.0 183.3 Q 527.0 185.9, 525.1 188.4 Q 523.2 190.8, 519.2 193.7 L 527.3 193.7 L 527.3 195.7 L 515.4 195.7 L 515.4 194.1 Q 518.7 191.7, 520.7 190.0 Q 522.6 188.2, 523.6 186.6 Q 524.5 185.1, 524.5 183.4 Q 524.5 181.7, 523.7 180.8 Q 522.8 179.8, 521.4 179.8 Q 519.9 179.8, 519.0 180.4 Q 518.0 181.0, 517.4 182.3 L 515.5 181.4 " fill="#000000"/>
<path class="atom-21" d="M 530.1 181.4 Q 530.8 179.7, 532.3 178.8 Q 533.9 177.8, 536.0 177.8 Q 538.7 177.8, 540.2 179.3 Q 541.7 180.7, 541.7 183.3 Q 541.7 185.9, 539.8 188.4 Q 537.8 190.8, 533.8 193.7 L 542.0 193.7 L 542.0 195.7 L 530.1 195.7 L 530.1 194.1 Q 533.4 191.7, 535.3 190.0 Q 537.3 188.2, 538.3 186.6 Q 539.2 185.1, 539.2 183.4 Q 539.2 181.7, 538.4 180.8 Q 537.5 179.8, 536.0 179.8 Q 534.6 179.8, 533.7 180.4 Q 532.7 181.0, 532.0 182.3 L 530.1 181.4 " fill="#000000"/>
<path class="atom-22" d="M 665.0 285.7 Q 665.0 281.3, 667.0 279.0 Q 669.1 276.7, 673.0 276.7 Q 676.7 276.7, 678.6 279.3 L 677.0 280.6 Q 675.6 278.7, 673.0 278.7 Q 670.4 278.7, 668.9 280.5 Q 667.5 282.3, 667.5 285.7 Q 667.5 289.2, 669.0 291.0 Q 670.5 292.8, 673.3 292.8 Q 675.3 292.8, 677.5 291.6 L 678.2 293.5 Q 677.3 294.1, 675.9 294.5 Q 674.5 294.8, 673.0 294.8 Q 669.1 294.8, 667.0 292.5 Q 665.0 290.1, 665.0 285.7 " fill="#000000"/>
<path class="atom-22" d="M 680.9 280.2 Q 681.6 278.6, 683.1 277.6 Q 684.7 276.7, 686.8 276.7 Q 689.5 276.7, 691.0 278.1 Q 692.5 279.6, 692.5 282.2 Q 692.5 284.8, 690.6 287.2 Q 688.6 289.7, 684.6 292.6 L 692.8 292.6 L 692.8 294.6 L 680.9 294.6 L 680.9 292.9 Q 684.2 290.6, 686.1 288.8 Q 688.1 287.1, 689.1 285.5 Q 690.0 283.9, 690.0 282.3 Q 690.0 280.6, 689.2 279.6 Q 688.3 278.7, 686.8 278.7 Q 685.4 278.7, 684.5 279.3 Q 683.5 279.8, 682.8 281.1 L 680.9 280.2 " fill="#000000"/>
<path class="atom-22" d="M 704.1 285.3 Q 705.8 285.8, 706.6 286.9 Q 707.5 288.0, 707.5 289.7 Q 707.5 291.2, 706.7 292.4 Q 706.0 293.6, 704.6 294.2 Q 703.2 294.8, 701.4 294.8 Q 699.5 294.8, 698.1 294.2 Q 696.7 293.5, 695.6 292.2 L 697.0 290.7 Q 698.1 291.9, 699.0 292.4 Q 699.9 292.8, 701.4 292.8 Q 703.0 292.8, 704.0 292.0 Q 705.0 291.1, 705.0 289.7 Q 705.0 287.9, 703.9 287.1 Q 702.9 286.3, 700.8 286.3 L 699.5 286.3 L 699.5 284.5 L 700.6 284.5 Q 702.5 284.5, 703.6 283.6 Q 704.6 282.8, 704.6 281.2 Q 704.6 280.1, 703.7 279.4 Q 702.9 278.7, 701.4 278.7 Q 700.0 278.7, 699.0 279.2 Q 698.1 279.7, 697.4 281.1 L 695.7 280.1 Q 696.3 278.7, 697.8 277.7 Q 699.3 276.7, 701.4 276.7 Q 704.0 276.7, 705.6 277.9 Q 707.1 279.1, 707.1 281.2 Q 707.1 282.6, 706.3 283.7 Q 705.5 284.7, 704.1 285.3 " fill="#000000"/>
<path class="atom-23" d="M 870.8 407.0 L 881.3 407.0 L 881.3 409.1 L 873.2 409.1 L 873.2 414.4 L 880.4 414.4 L 880.4 416.5 L 873.2 416.5 L 873.2 424.7 L 870.8 424.7 L 870.8 407.0 " fill="#33CCCC"/>
<path class="atom-23" d="M 883.1 410.4 Q 883.8 408.7, 885.3 407.8 Q 886.9 406.8, 889.0 406.8 Q 891.7 406.8, 893.2 408.3 Q 894.7 409.7, 894.7 412.3 Q 894.7 414.9, 892.7 417.4 Q 890.8 419.8, 886.8 422.7 L 895.0 422.7 L 895.0 424.7 L 883.1 424.7 L 883.1 423.1 Q 886.4 420.7, 888.3 419.0 Q 890.3 417.2, 891.2 415.6 Q 892.2 414.1, 892.2 412.4 Q 892.2 410.7, 891.3 409.8 Q 890.5 408.8, 889.0 408.8 Q 887.6 408.8, 886.6 409.4 Q 885.7 410.0, 885.0 411.3 L 883.1 410.4 " fill="#33CCCC"/>
<path class="atom-23" d="M 909.2 418.7 L 911.3 418.7 L 911.3 420.7 L 909.2 420.7 L 909.2 424.7 L 906.8 424.7 L 906.8 420.7 L 897.7 420.7 L 897.7 419.1 L 905.4 407.0 L 909.2 407.0 L 909.2 418.7 M 900.6 418.7 L 906.8 418.7 L 906.8 408.6 L 900.6 418.7 " fill="#33CCCC"/>
<text x="1000" y="50" font-size="8" font-family="Verdana" font-weight="normal" letter-spacing="0" text-anchor="start" fill="black">Highlighted Atoms:
Primary SOM: Red
Secondary SOM: Green
Tertiary SOM: Cyan
</text></svg>
