<?xml version='1.0' encoding='ASCII' standalone='yes'?>
<svg xmlns="http://www.w3.org/2000/svg" xmlns:rdkit="http://www.rdkit.org/xml" xmlns:xlink="http://www.w3.org/1999/xlink" style="background-color: white;" version="1.1" baseProfile="full" xml:space="preserve" width="1000px" height="1000px" viewBox="0 0 1000 1000">
<!-- END OF HEADER -->
<rect style="opacity:1.0;fill:#FFFFFF;stroke:none" width="1000.0" height="1000.0" x="0.0" y="0.0"> </rect>
<ellipse cx="511.5" cy="903.0" rx="37.4" ry="37.4" class="atom-20" style="fill:#B20000;fill-rule:evenodd;stroke:#B20000;stroke-width:1.0px;stroke-linecap:butt;stroke-linejoin:miter;stroke-opacity:1"/>
<path class="bond-0 atom-1 atom-0" d="M 290.7,501.4 L 379.4,452.5" style="fill:none;fill-rule:evenodd;stroke:#000000;stroke-width:2.0px;stroke-linecap:butt;stroke-linejoin:miter;stroke-opacity:1"/>
<path class="bond-1 atom-2 atom-1" d="M 182.7,450.1 L 257.8,493.8" style="fill:none;fill-rule:evenodd;stroke:#000000;stroke-width:2.0px;stroke-linecap:butt;stroke-linejoin:miter;stroke-opacity:1"/>
<path class="bond-1 atom-2 atom-1" d="M 192.6,433.3 L 267.6,477.0" style="fill:none;fill-rule:evenodd;stroke:#000000;stroke-width:2.0px;stroke-linecap:butt;stroke-linejoin:miter;stroke-opacity:1"/>
<path class="bond-2 atom-3 atom-2" d="M 173.4,332.7 L 172.6,430.9" style="fill:none;fill-rule:evenodd;stroke:#000000;stroke-width:2.0px;stroke-linecap:butt;stroke-linejoin:miter;stroke-opacity:1"/>
<path class="bond-3 atom-4 atom-3" d="M 264.6,266.8 L 184.6,313.0" style="fill:none;fill-rule:evenodd;stroke:#000000;stroke-width:2.0px;stroke-linecap:butt;stroke-linejoin:miter;stroke-opacity:1"/>
<path class="bond-3 atom-4 atom-3" d="M 274.3,283.7 L 194.4,329.9" style="fill:none;fill-rule:evenodd;stroke:#000000;stroke-width:2.0px;stroke-linecap:butt;stroke-linejoin:miter;stroke-opacity:1"/>
<path class="bond-4 atom-5 atom-0" d="M 391.7,333.8 L 390.6,433.1" style="fill:none;fill-rule:evenodd;stroke:#000000;stroke-width:2.0px;stroke-linecap:butt;stroke-linejoin:miter;stroke-opacity:1"/>
<path class="bond-4 atom-5 atom-0" d="M 372.2,333.6 L 371.1,432.9" style="fill:none;fill-rule:evenodd;stroke:#000000;stroke-width:2.0px;stroke-linecap:butt;stroke-linejoin:miter;stroke-opacity:1"/>
<path class="bond-5 atom-5 atom-4" d="M 369.3,307.1 L 301.1,267.0" style="fill:none;fill-rule:evenodd;stroke:#000000;stroke-width:2.0px;stroke-linecap:butt;stroke-linejoin:miter;stroke-opacity:1"/>
<path class="bond-6 atom-6 atom-0" d="M 475.3,496.4 L 412.9,459.6" style="fill:none;fill-rule:evenodd;stroke:#000000;stroke-width:2.0px;stroke-linecap:butt;stroke-linejoin:miter;stroke-opacity:1"/>
<path class="bond-7 atom-7 atom-6" d="M 497.3,621.2 L 497.7,522.8" style="fill:none;fill-rule:evenodd;stroke:#000000;stroke-width:2.0px;stroke-linecap:butt;stroke-linejoin:miter;stroke-opacity:1"/>
<path class="bond-8 atom-8 atom-7" d="M 398.3,691.4 L 478.8,645.1" style="fill:none;fill-rule:evenodd;stroke:#000000;stroke-width:2.0px;stroke-linecap:butt;stroke-linejoin:miter;stroke-opacity:1"/>
<path class="bond-9 atom-9 atom-1" d="M 280.1,621.1 L 280.4,520.3" style="fill:none;fill-rule:evenodd;stroke:#000000;stroke-width:2.0px;stroke-linecap:butt;stroke-linejoin:miter;stroke-opacity:1"/>
<path class="bond-10 atom-9 atom-8" d="M 290.8,640.7 L 365.2,684.1" style="fill:none;fill-rule:evenodd;stroke:#000000;stroke-width:2.0px;stroke-linecap:butt;stroke-linejoin:miter;stroke-opacity:1"/>
<path class="bond-11 atom-10 atom-6" d="M 597.3,453.8 L 508.0,503.9" style="fill:none;fill-rule:evenodd;stroke:#000000;stroke-width:2.0px;stroke-linecap:butt;stroke-linejoin:miter;stroke-opacity:1"/>
<path class="bond-12 atom-11 atom-10" d="M 705.3,504.0 L 631.1,460.8" style="fill:none;fill-rule:evenodd;stroke:#000000;stroke-width:2.0px;stroke-linecap:butt;stroke-linejoin:miter;stroke-opacity:1"/>
<path class="bond-13 atom-12 atom-11" d="M 714.7,623.3 L 716.2,523.9" style="fill:none;fill-rule:evenodd;stroke:#000000;stroke-width:2.0px;stroke-linecap:butt;stroke-linejoin:miter;stroke-opacity:1"/>
<path class="bond-14 atom-13 atom-7" d="M 583.6,685.2 L 515.8,645.3" style="fill:none;fill-rule:evenodd;stroke:#000000;stroke-width:2.0px;stroke-linecap:butt;stroke-linejoin:miter;stroke-opacity:1"/>
<path class="bond-15 atom-13 atom-12" d="M 628.9,685.4 L 703.4,642.8" style="fill:none;fill-rule:evenodd;stroke:#000000;stroke-width:2.0px;stroke-linecap:butt;stroke-linejoin:miter;stroke-opacity:1"/>
<path class="bond-15 atom-13 atom-12" d="M 619.2,668.5 L 693.7,625.9" style="fill:none;fill-rule:evenodd;stroke:#000000;stroke-width:2.0px;stroke-linecap:butt;stroke-linejoin:miter;stroke-opacity:1"/>
<path class="bond-16 atom-14 atom-4" d="M 283.3,145.0 L 283.1,194.0" style="fill:none;fill-rule:evenodd;stroke:#FF0000;stroke-width:2.0px;stroke-linecap:butt;stroke-linejoin:miter;stroke-opacity:1"/>
<path class="bond-16 atom-14 atom-4" d="M 283.1,194.0 L 282.9,243.0" style="fill:none;fill-rule:evenodd;stroke:#000000;stroke-width:2.0px;stroke-linecap:butt;stroke-linejoin:miter;stroke-opacity:1"/>
<path class="bond-17 atom-15 atom-11" d="M 812.5,456.1 L 776.2,476.7" style="fill:none;fill-rule:evenodd;stroke:#FF0000;stroke-width:2.0px;stroke-linecap:butt;stroke-linejoin:miter;stroke-opacity:1"/>
<path class="bond-17 atom-15 atom-11" d="M 776.2,476.7 L 739.8,497.2" style="fill:none;fill-rule:evenodd;stroke:#000000;stroke-width:2.0px;stroke-linecap:butt;stroke-linejoin:miter;stroke-opacity:1"/>
<path class="bond-18 atom-16 atom-5" d="M 528.9,313.1 L 465.6,316.5" style="fill:none;fill-rule:evenodd;stroke:#FF0000;stroke-width:2.0px;stroke-linecap:butt;stroke-linejoin:miter;stroke-opacity:1"/>
<path class="bond-18 atom-16 atom-5" d="M 465.6,316.5 L 402.2,319.8" style="fill:none;fill-rule:evenodd;stroke:#000000;stroke-width:2.0px;stroke-linecap:butt;stroke-linejoin:miter;stroke-opacity:1"/>
<path class="bond-19 atom-16 atom-10" d="M 548.0,326.0 L 575.0,380.1" style="fill:none;fill-rule:evenodd;stroke:#FF0000;stroke-width:2.0px;stroke-linecap:butt;stroke-linejoin:miter;stroke-opacity:1"/>
<path class="bond-19 atom-16 atom-10" d="M 575.0,380.1 L 601.9,434.3" style="fill:none;fill-rule:evenodd;stroke:#000000;stroke-width:2.0px;stroke-linecap:butt;stroke-linejoin:miter;stroke-opacity:1"/>
<path class="bond-20 atom-17 atom-8" d="M 485.9,765.3 L 442.1,735.0" style="fill:none;fill-rule:evenodd;stroke:#0000FF;stroke-width:2.0px;stroke-linecap:butt;stroke-linejoin:miter;stroke-opacity:1"/>
<path class="bond-20 atom-17 atom-8" d="M 442.1,735.0 L 398.3,704.6" style="fill:none;fill-rule:evenodd;stroke:#000000;stroke-width:2.0px;stroke-linecap:butt;stroke-linejoin:miter;stroke-opacity:1"/>
<path class="bond-21 atom-18 atom-6" d="M 615.3,565.4 L 508.0,514.4" style="fill:none;fill-rule:evenodd;stroke:#000000;stroke-width:2.0px;stroke-linecap:butt;stroke-linejoin:miter;stroke-opacity:1"/>
<path class="bond-22 atom-19 atom-17" d="M 617.4,717.4 L 573.2,741.3" style="fill:none;fill-rule:evenodd;stroke:#000000;stroke-width:2.0px;stroke-linecap:butt;stroke-linejoin:miter;stroke-opacity:1"/>
<path class="bond-22 atom-19 atom-17" d="M 573.2,741.3 L 529.1,765.1" style="fill:none;fill-rule:evenodd;stroke:#0000FF;stroke-width:2.0px;stroke-linecap:butt;stroke-linejoin:miter;stroke-opacity:1"/>
<path class="bond-23 atom-19 atom-18" d="M 628.3,698.1 L 626.6,584.1" style="fill:none;fill-rule:evenodd;stroke:#000000;stroke-width:2.0px;stroke-linecap:butt;stroke-linejoin:miter;stroke-opacity:1"/>
<path class="bond-24 atom-20 atom-17" d="M 498.5,889.7 L 501.2,840.6" style="fill:none;fill-rule:evenodd;stroke:#000000;stroke-width:2.0px;stroke-linecap:butt;stroke-linejoin:miter;stroke-opacity:1"/>
<path class="bond-24 atom-20 atom-17" d="M 501.2,840.6 L 503.9,791.6" style="fill:none;fill-rule:evenodd;stroke:#0000FF;stroke-width:2.0px;stroke-linecap:butt;stroke-linejoin:miter;stroke-opacity:1"/>
<path class="bond-25 atom-21 atom-14" d="M 185.9,74.5 L 228.4,99.3" style="fill:none;fill-rule:evenodd;stroke:#000000;stroke-width:2.0px;stroke-linecap:butt;stroke-linejoin:miter;stroke-opacity:1"/>
<path class="bond-25 atom-21 atom-14" d="M 228.4,99.3 L 271.0,124.2" style="fill:none;fill-rule:evenodd;stroke:#FF0000;stroke-width:2.0px;stroke-linecap:butt;stroke-linejoin:miter;stroke-opacity:1"/>
<path class="atom-0" d="M 383.6 446.4 Q 383.6 442.0, 385.7 439.7 Q 387.8 437.4, 391.7 437.4 Q 395.3 437.4, 397.3 440.0 L 395.6 441.3 Q 394.2 439.5, 391.7 439.5 Q 389.0 439.5, 387.6 441.3 Q 386.2 443.0, 386.2 446.4 Q 386.2 449.9, 387.6 451.7 Q 389.1 453.5, 392.0 453.5 Q 393.9 453.5, 396.2 452.4 L 396.9 454.2 Q 396.0 454.8, 394.6 455.2 Q 393.2 455.5, 391.6 455.5 Q 387.8 455.5, 385.7 453.2 Q 383.6 450.8, 383.6 446.4 " fill="#000000"/>
<path class="atom-0" d="M 400.5 453.3 L 404.4 453.3 L 404.4 440.1 L 400.1 441.4 L 399.5 439.9 L 404.9 437.5 L 406.7 437.8 L 406.7 453.3 L 410.2 453.3 L 410.2 455.3 L 400.5 455.3 L 400.5 453.3 " fill="#000000"/>
<path class="atom-1" d="M 258.6 507.1 Q 258.6 502.7, 260.6 500.4 Q 262.7 498.1, 266.6 498.1 Q 270.3 498.1, 272.2 500.7 L 270.6 502.0 Q 269.1 500.1, 266.6 500.1 Q 263.9 500.1, 262.5 501.9 Q 261.1 503.7, 261.1 507.1 Q 261.1 510.6, 262.6 512.4 Q 264.0 514.2, 266.9 514.2 Q 268.8 514.2, 271.1 513.0 L 271.8 514.9 Q 270.9 515.5, 269.5 515.9 Q 268.1 516.2, 266.5 516.2 Q 262.7 516.2, 260.6 513.9 Q 258.6 511.5, 258.6 507.1 " fill="#000000"/>
<path class="atom-1" d="M 274.6 501.6 Q 275.2 500.0, 276.8 499.0 Q 278.3 498.1, 280.5 498.1 Q 283.1 498.1, 284.6 499.5 Q 286.1 501.0, 286.1 503.6 Q 286.1 506.2, 284.2 508.6 Q 282.3 511.1, 278.3 514.0 L 286.4 514.0 L 286.4 516.0 L 274.5 516.0 L 274.5 514.3 Q 277.8 512.0, 279.8 510.2 Q 281.7 508.5, 282.7 506.9 Q 283.6 505.3, 283.6 503.7 Q 283.6 502.0, 282.8 501.0 Q 281.9 500.1, 280.5 500.1 Q 279.0 500.1, 278.1 500.7 Q 277.1 501.2, 276.5 502.5 L 274.6 501.6 " fill="#000000"/>
<path class="atom-2" d="M 150.6 444.2 Q 150.6 439.8, 152.7 437.5 Q 154.8 435.2, 158.7 435.2 Q 162.3 435.2, 164.3 437.8 L 162.6 439.1 Q 161.2 437.2, 158.7 437.2 Q 156.0 437.2, 154.6 439.0 Q 153.2 440.8, 153.2 444.2 Q 153.2 447.7, 154.6 449.5 Q 156.1 451.3, 159.0 451.3 Q 160.9 451.3, 163.2 450.1 L 163.9 452.0 Q 163.0 452.6, 161.6 453.0 Q 160.2 453.3, 158.6 453.3 Q 154.8 453.3, 152.7 451.0 Q 150.6 448.6, 150.6 444.2 " fill="#000000"/>
<path class="atom-2" d="M 175.1 443.8 Q 176.8 444.3, 177.6 445.4 Q 178.5 446.5, 178.5 448.2 Q 178.5 449.7, 177.7 450.9 Q 177.0 452.1, 175.6 452.7 Q 174.2 453.3, 172.4 453.3 Q 170.5 453.3, 169.1 452.7 Q 167.7 452.0, 166.6 450.7 L 168.0 449.2 Q 169.1 450.4, 170.0 450.9 Q 170.9 451.3, 172.4 451.3 Q 174.0 451.3, 175.0 450.5 Q 176.0 449.6, 176.0 448.2 Q 176.0 446.4, 174.9 445.6 Q 173.9 444.8, 171.8 444.8 L 170.5 444.8 L 170.5 443.0 L 171.6 443.0 Q 173.5 443.0, 174.6 442.1 Q 175.6 441.3, 175.6 439.7 Q 175.6 438.6, 174.7 437.9 Q 173.9 437.2, 172.4 437.2 Q 171.0 437.2, 170.0 437.7 Q 169.1 438.2, 168.4 439.6 L 166.7 438.6 Q 167.3 437.2, 168.8 436.2 Q 170.3 435.2, 172.4 435.2 Q 175.0 435.2, 176.6 436.4 Q 178.1 437.6, 178.1 439.7 Q 178.1 441.1, 177.3 442.2 Q 176.5 443.2, 175.1 443.8 " fill="#000000"/>
<path class="atom-3" d="M 150.7 319.5 Q 150.7 315.1, 152.8 312.8 Q 154.8 310.5, 158.8 310.5 Q 162.4 310.5, 164.4 313.0 L 162.7 314.4 Q 161.3 312.5, 158.8 312.5 Q 156.1 312.5, 154.7 314.3 Q 153.3 316.1, 153.3 319.5 Q 153.3 323.0, 154.7 324.8 Q 156.2 326.6, 159.0 326.6 Q 161.0 326.6, 163.3 325.4 L 164.0 327.3 Q 163.0 327.9, 161.6 328.2 Q 160.2 328.6, 158.7 328.6 Q 154.8 328.6, 152.8 326.2 Q 150.7 323.9, 150.7 319.5 " fill="#000000"/>
<path class="atom-3" d="M 178.2 322.3 L 180.3 322.3 L 180.3 324.3 L 178.2 324.3 L 178.2 328.4 L 175.9 328.4 L 175.9 324.3 L 166.7 324.3 L 166.7 322.7 L 174.5 310.7 L 178.2 310.7 L 178.2 322.3 M 169.6 322.3 L 175.9 322.3 L 175.9 312.3 L 169.6 322.3 " fill="#000000"/>
<path class="atom-4" d="M 268.9 256.4 Q 268.9 252.0, 270.9 249.7 Q 273.0 247.3, 276.9 247.3 Q 280.6 247.3, 282.5 249.9 L 280.9 251.3 Q 279.5 249.4, 276.9 249.4 Q 274.3 249.4, 272.8 251.2 Q 271.4 253.0, 271.4 256.4 Q 271.4 259.9, 272.9 261.7 Q 274.4 263.5, 277.2 263.5 Q 279.2 263.5, 281.4 262.3 L 282.1 264.2 Q 281.2 264.8, 279.8 265.1 Q 278.4 265.5, 276.9 265.5 Q 273.0 265.5, 270.9 263.1 Q 268.9 260.8, 268.9 256.4 " fill="#000000"/>
<path class="atom-4" d="M 291.2 254.2 Q 292.8 254.2, 294.1 254.8 Q 295.3 255.5, 296.1 256.7 Q 296.8 258.0, 296.8 259.6 Q 296.8 261.5, 295.9 262.8 Q 295.0 264.1, 293.6 264.8 Q 292.1 265.4, 290.5 265.4 Q 288.8 265.4, 287.3 264.8 Q 285.8 264.2, 284.8 263.1 L 286.3 261.5 Q 287.1 262.4, 288.3 262.9 Q 289.4 263.4, 290.5 263.4 Q 292.1 263.4, 293.2 262.4 Q 294.3 261.5, 294.3 259.7 Q 294.3 257.8, 293.2 256.9 Q 292.1 256.0, 290.4 256.0 Q 288.8 256.0, 287.1 256.7 L 285.7 256.1 L 286.6 247.5 L 295.7 247.5 L 295.4 249.5 L 288.6 249.5 L 288.1 254.8 Q 289.7 254.2, 291.2 254.2 " fill="#000000"/>
<path class="atom-5" d="M 369.7 320.4 Q 369.7 316.0, 371.8 313.7 Q 373.9 311.4, 377.8 311.4 Q 381.4 311.4, 383.4 314.0 L 381.7 315.3 Q 380.3 313.4, 377.8 313.4 Q 375.1 313.4, 373.7 315.2 Q 372.3 317.0, 372.3 320.4 Q 372.3 323.9, 373.7 325.7 Q 375.2 327.5, 378.1 327.5 Q 380.0 327.5, 382.3 326.3 L 383.0 328.2 Q 382.1 328.8, 380.7 329.2 Q 379.3 329.5, 377.7 329.5 Q 373.9 329.5, 371.8 327.2 Q 369.7 324.8, 369.7 320.4 " fill="#000000"/>
<path class="atom-5" d="M 392.6 318.2 Q 394.1 318.2, 395.4 318.9 Q 396.6 319.6, 397.3 320.8 Q 397.9 322.0, 397.9 323.6 Q 397.9 325.3, 397.2 326.7 Q 396.4 328.0, 395.1 328.7 Q 393.7 329.5, 392.0 329.5 Q 388.8 329.5, 387.2 327.4 Q 385.7 325.2, 385.7 321.0 Q 385.7 316.3, 387.6 313.8 Q 389.6 311.4, 393.4 311.4 Q 394.5 311.4, 395.4 311.6 Q 396.3 311.9, 397.2 312.4 L 396.3 314.1 Q 395.0 313.4, 393.4 313.4 Q 390.9 313.4, 389.6 315.0 Q 388.3 316.6, 388.2 319.9 Q 389.1 319.1, 390.2 318.7 Q 391.4 318.2, 392.6 318.2 M 392.0 327.4 Q 393.0 327.4, 393.7 326.9 Q 394.5 326.4, 395.0 325.6 Q 395.4 324.7, 395.4 323.6 Q 395.4 322.0, 394.6 321.1 Q 393.7 320.2, 392.1 320.2 Q 391.1 320.2, 390.0 320.7 Q 388.9 321.1, 388.2 321.9 Q 388.3 324.8, 389.2 326.1 Q 390.1 327.4, 392.0 327.4 " fill="#000000"/>
<path class="atom-6" d="M 476.0 509.7 Q 476.0 505.3, 478.0 503.0 Q 480.1 500.7, 484.0 500.7 Q 487.7 500.7, 489.6 503.2 L 488.0 504.6 Q 486.6 502.7, 484.0 502.7 Q 481.4 502.7, 479.9 504.5 Q 478.5 506.3, 478.5 509.7 Q 478.5 513.2, 480.0 515.0 Q 481.5 516.8, 484.3 516.8 Q 486.3 516.8, 488.5 515.6 L 489.2 517.5 Q 488.3 518.1, 486.9 518.4 Q 485.5 518.8, 484.0 518.8 Q 480.1 518.8, 478.0 516.4 Q 476.0 514.1, 476.0 509.7 " fill="#000000"/>
<path class="atom-6" d="M 501.2 502.9 L 491.9 502.9 L 491.9 500.9 L 503.7 500.9 L 503.7 502.6 L 496.5 518.6 L 494.1 518.6 L 501.2 502.9 " fill="#000000"/>
<path class="atom-7" d="M 483.0 634.5 Q 483.0 630.1, 485.1 627.8 Q 487.2 625.5, 491.1 625.5 Q 494.7 625.5, 496.7 628.1 L 495.0 629.4 Q 493.6 627.5, 491.1 627.5 Q 488.4 627.5, 487.0 629.3 Q 485.6 631.1, 485.6 634.5 Q 485.6 638.0, 487.0 639.8 Q 488.5 641.6, 491.4 641.6 Q 493.3 641.6, 495.6 640.4 L 496.3 642.3 Q 495.4 642.9, 494.0 643.3 Q 492.6 643.6, 491.0 643.6 Q 487.2 643.6, 485.1 641.3 Q 483.0 638.9, 483.0 634.5 " fill="#000000"/>
<path class="atom-7" d="M 508.0 634.0 Q 509.6 634.7, 510.6 635.8 Q 511.5 636.8, 511.5 638.5 Q 511.5 640.0, 510.7 641.2 Q 509.9 642.4, 508.5 643.0 Q 507.2 643.6, 505.3 643.6 Q 502.4 643.6, 500.7 642.3 Q 499.0 640.9, 499.0 638.5 Q 499.0 637.1, 499.7 636.0 Q 500.5 634.9, 502.0 634.1 Q 500.9 633.4, 500.3 632.5 Q 499.6 631.5, 499.6 630.0 Q 499.6 627.9, 501.1 626.7 Q 502.7 625.5, 505.2 625.5 Q 507.8 625.5, 509.3 626.7 Q 510.8 627.9, 510.8 630.0 Q 510.8 631.3, 510.1 632.3 Q 509.4 633.2, 508.0 634.0 M 505.2 627.4 Q 503.8 627.4, 502.9 628.1 Q 502.1 628.8, 502.1 630.0 Q 502.1 630.9, 502.7 631.6 Q 503.2 632.2, 504.0 632.5 Q 504.8 632.9, 506.3 633.4 Q 507.4 632.6, 507.9 631.8 Q 508.3 631.0, 508.3 630.0 Q 508.3 628.8, 507.5 628.1 Q 506.7 627.4, 505.2 627.4 M 505.3 641.8 Q 507.0 641.8, 508.0 640.9 Q 509.0 640.0, 509.0 638.5 Q 509.0 637.6, 508.5 637.0 Q 507.9 636.4, 507.1 636.0 Q 506.4 635.7, 505.0 635.2 L 503.8 634.8 Q 502.6 635.6, 502.0 636.5 Q 501.5 637.4, 501.5 638.5 Q 501.5 640.0, 502.5 640.9 Q 503.6 641.8, 505.3 641.8 " fill="#000000"/>
<path class="atom-8" d="M 365.8 697.4 Q 365.8 693.0, 367.8 690.7 Q 369.9 688.4, 373.8 688.4 Q 377.5 688.4, 379.4 691.0 L 377.8 692.3 Q 376.3 690.5, 373.8 690.5 Q 371.1 690.5, 369.7 692.3 Q 368.3 694.0, 368.3 697.4 Q 368.3 700.9, 369.8 702.7 Q 371.2 704.5, 374.1 704.5 Q 376.0 704.5, 378.3 703.4 L 379.0 705.2 Q 378.1 705.8, 376.7 706.2 Q 375.3 706.5, 373.7 706.5 Q 369.9 706.5, 367.8 704.2 Q 365.8 701.8, 365.8 697.4 " fill="#000000"/>
<path class="atom-8" d="M 387.7 688.4 Q 390.8 688.4, 392.4 690.6 Q 394.0 692.7, 394.0 696.9 Q 394.0 701.6, 392.0 704.1 Q 390.1 706.5, 386.3 706.5 Q 385.2 706.5, 384.2 706.3 Q 383.3 706.0, 382.4 705.5 L 383.4 703.8 Q 384.7 704.5, 386.3 704.5 Q 388.8 704.5, 390.0 702.9 Q 391.3 701.3, 391.5 698.0 Q 390.6 698.8, 389.4 699.2 Q 388.3 699.7, 387.1 699.7 Q 385.5 699.7, 384.3 699.0 Q 383.1 698.3, 382.4 697.1 Q 381.7 695.9, 381.7 694.3 Q 381.7 692.6, 382.5 691.3 Q 383.2 689.9, 384.6 689.2 Q 385.9 688.4, 387.7 688.4 M 384.2 694.3 Q 384.2 695.9, 385.1 696.8 Q 386.0 697.7, 387.5 697.7 Q 388.6 697.7, 389.6 697.2 Q 390.7 696.8, 391.5 696.0 Q 391.4 693.1, 390.4 691.8 Q 389.5 690.5, 387.6 690.5 Q 386.7 690.5, 385.9 691.0 Q 385.1 691.5, 384.7 692.3 Q 384.2 693.2, 384.2 694.3 " fill="#000000"/>
<path class="atom-9" d="M 244.7 634.4 Q 244.7 630.0, 246.8 627.7 Q 248.8 625.4, 252.8 625.4 Q 256.4 625.4, 258.4 628.0 L 256.7 629.3 Q 255.3 627.5, 252.8 627.5 Q 250.1 627.5, 248.7 629.3 Q 247.3 631.0, 247.3 634.4 Q 247.3 637.9, 248.7 639.7 Q 250.2 641.5, 253.0 641.5 Q 255.0 641.5, 257.3 640.4 L 258.0 642.2 Q 257.0 642.8, 255.6 643.2 Q 254.2 643.5, 252.7 643.5 Q 248.8 643.5, 246.8 641.2 Q 244.7 638.8, 244.7 634.4 " fill="#000000"/>
<path class="atom-9" d="M 261.6 641.3 L 265.4 641.3 L 265.4 628.1 L 261.2 629.4 L 260.6 627.9 L 266.0 625.5 L 267.8 625.8 L 267.8 641.3 L 271.3 641.3 L 271.3 643.3 L 261.6 643.3 L 261.6 641.3 " fill="#000000"/>
<path class="atom-9" d="M 280.0 643.5 Q 276.8 643.5, 275.2 641.1 Q 273.6 638.7, 273.6 634.4 Q 273.6 630.2, 275.2 627.8 Q 276.8 625.4, 280.0 625.4 Q 283.3 625.4, 284.9 627.8 Q 286.5 630.2, 286.5 634.4 Q 286.5 638.7, 284.9 641.1 Q 283.3 643.5, 280.0 643.5 M 280.0 641.5 Q 282.0 641.5, 283.0 639.7 Q 284.0 637.9, 284.0 634.4 Q 284.0 631.0, 283.0 629.2 Q 282.0 627.4, 280.0 627.4 Q 278.1 627.4, 277.1 629.2 Q 276.1 631.0, 276.1 634.4 Q 276.1 637.9, 277.1 639.7 Q 278.1 641.5, 280.0 641.5 " fill="#000000"/>
<path class="atom-10" d="M 601.6 447.6 Q 601.6 443.2, 603.7 440.9 Q 605.7 438.6, 609.7 438.6 Q 613.3 438.6, 615.3 441.1 L 613.6 442.5 Q 612.2 440.6, 609.7 440.6 Q 607.0 440.6, 605.6 442.4 Q 604.2 444.2, 604.2 447.6 Q 604.2 451.1, 605.6 452.9 Q 607.1 454.7, 609.9 454.7 Q 611.9 454.7, 614.2 453.5 L 614.9 455.4 Q 613.9 456.0, 612.5 456.3 Q 611.1 456.7, 609.6 456.7 Q 605.7 456.7, 603.7 454.3 Q 601.6 452.0, 601.6 447.6 " fill="#000000"/>
<path class="atom-10" d="M 618.4 454.5 L 622.3 454.5 L 622.3 441.2 L 618.0 442.6 L 617.4 441.1 L 622.9 438.7 L 624.6 439.0 L 624.6 454.5 L 628.1 454.5 L 628.1 456.5 L 618.4 456.5 L 618.4 454.5 " fill="#000000"/>
<path class="atom-10" d="M 631.3 454.5 L 635.2 454.5 L 635.2 441.2 L 630.9 442.6 L 630.3 441.1 L 635.7 438.7 L 637.5 439.0 L 637.5 454.5 L 641.0 454.5 L 641.0 456.5 L 631.3 456.5 L 631.3 454.5 " fill="#000000"/>
<path class="atom-11" d="M 709.5 510.5 Q 709.5 506.1, 711.6 503.8 Q 713.7 501.5, 717.6 501.5 Q 721.2 501.5, 723.2 504.1 L 721.5 505.4 Q 720.1 503.5, 717.6 503.5 Q 714.9 503.5, 713.5 505.3 Q 712.1 507.1, 712.1 510.5 Q 712.1 514.0, 713.5 515.8 Q 715.0 517.6, 717.9 517.6 Q 719.8 517.6, 722.1 516.4 L 722.8 518.3 Q 721.9 518.9, 720.5 519.3 Q 719.1 519.6, 717.5 519.6 Q 713.7 519.6, 711.6 517.3 Q 709.5 514.9, 709.5 510.5 " fill="#000000"/>
<path class="atom-11" d="M 726.4 517.4 L 730.2 517.4 L 730.2 504.2 L 726.0 505.5 L 725.4 504.0 L 730.8 501.6 L 732.6 501.9 L 732.6 517.4 L 736.1 517.4 L 736.1 519.4 L 726.4 519.4 L 726.4 517.4 " fill="#000000"/>
<path class="atom-11" d="M 738.4 505.0 Q 739.0 503.4, 740.6 502.4 Q 742.1 501.5, 744.3 501.5 Q 747.0 501.5, 748.5 502.9 Q 750.0 504.4, 750.0 507.0 Q 750.0 509.6, 748.0 512.0 Q 746.1 514.5, 742.1 517.4 L 750.3 517.4 L 750.3 519.4 L 738.3 519.4 L 738.3 517.7 Q 741.6 515.4, 743.6 513.6 Q 745.6 511.9, 746.5 510.3 Q 747.5 508.7, 747.5 507.1 Q 747.5 505.4, 746.6 504.4 Q 745.8 503.5, 744.3 503.5 Q 742.9 503.5, 741.9 504.1 Q 741.0 504.6, 740.3 505.9 L 738.4 505.0 " fill="#000000"/>
<path class="atom-12" d="M 707.6 636.6 Q 707.6 632.2, 709.7 629.9 Q 711.8 627.5, 715.7 627.5 Q 719.3 627.5, 721.3 630.1 L 719.6 631.5 Q 718.2 629.6, 715.7 629.6 Q 713.0 629.6, 711.6 631.4 Q 710.2 633.2, 710.2 636.6 Q 710.2 640.1, 711.6 641.9 Q 713.1 643.7, 716.0 643.7 Q 717.9 643.7, 720.2 642.5 L 720.9 644.4 Q 720.0 645.0, 718.6 645.3 Q 717.2 645.7, 715.6 645.7 Q 711.8 645.7, 709.7 643.3 Q 707.6 641.0, 707.6 636.6 " fill="#000000"/>
<path class="atom-12" d="M 724.5 643.4 L 728.4 643.4 L 728.4 630.2 L 724.1 631.5 L 723.5 630.1 L 728.9 627.6 L 730.7 627.9 L 730.7 643.4 L 734.2 643.4 L 734.2 645.4 L 724.5 645.4 L 724.5 643.4 " fill="#000000"/>
<path class="atom-12" d="M 744.9 636.1 Q 746.7 636.6, 747.5 637.7 Q 748.3 638.8, 748.3 640.6 Q 748.3 642.1, 747.6 643.3 Q 746.8 644.4, 745.5 645.1 Q 744.1 645.7, 742.3 645.7 Q 740.4 645.7, 739.0 645.0 Q 737.6 644.4, 736.4 643.0 L 737.9 641.6 Q 739.0 642.8, 739.9 643.2 Q 740.8 643.7, 742.3 643.7 Q 743.9 643.7, 744.9 642.8 Q 745.8 642.0, 745.8 640.6 Q 745.8 638.8, 744.8 638.0 Q 743.8 637.1, 741.6 637.1 L 740.4 637.1 L 740.4 635.3 L 741.5 635.3 Q 743.4 635.3, 744.4 634.5 Q 745.5 633.6, 745.5 632.1 Q 745.5 630.9, 744.6 630.2 Q 743.8 629.5, 742.3 629.5 Q 740.8 629.5, 739.9 630.1 Q 739.0 630.6, 738.3 631.9 L 736.6 631.0 Q 737.2 629.5, 738.7 628.5 Q 740.2 627.5, 742.3 627.5 Q 744.9 627.5, 746.4 628.8 Q 748.0 630.0, 748.0 632.1 Q 748.0 633.5, 747.2 634.5 Q 746.4 635.5, 744.9 636.1 " fill="#000000"/>
<path class="atom-13" d="M 584.8 698.5 Q 584.8 694.1, 586.9 691.8 Q 588.9 689.5, 592.9 689.5 Q 596.5 689.5, 598.5 692.0 L 596.8 693.4 Q 595.4 691.5, 592.9 691.5 Q 590.2 691.5, 588.8 693.3 Q 587.4 695.1, 587.4 698.5 Q 587.4 702.0, 588.8 703.8 Q 590.3 705.6, 593.1 705.6 Q 595.1 705.6, 597.4 704.4 L 598.1 706.3 Q 597.1 706.9, 595.7 707.2 Q 594.3 707.6, 592.8 707.6 Q 588.9 707.6, 586.9 705.2 Q 584.8 702.9, 584.8 698.5 " fill="#000000"/>
<path class="atom-13" d="M 601.7 705.4 L 605.6 705.4 L 605.6 692.1 L 601.3 693.5 L 600.7 692.0 L 606.1 689.6 L 607.9 689.9 L 607.9 705.4 L 611.4 705.4 L 611.4 707.4 L 601.7 707.4 L 601.7 705.4 " fill="#000000"/>
<path class="atom-13" d="M 625.2 701.3 L 627.3 701.3 L 627.3 703.3 L 625.2 703.3 L 625.2 707.4 L 622.9 707.4 L 622.9 703.3 L 613.7 703.3 L 613.7 701.7 L 621.5 689.7 L 625.2 689.7 L 625.2 701.3 M 616.6 701.3 L 622.9 701.3 L 622.9 691.3 L 616.6 701.3 " fill="#000000"/>
<path class="atom-14" d="M 275.3 131.5 Q 275.3 127.3, 277.4 124.9 Q 279.5 122.5, 283.4 122.5 Q 287.3 122.5, 289.4 124.9 Q 291.5 127.3, 291.5 131.5 Q 291.5 135.8, 289.4 138.3 Q 287.3 140.7, 283.4 140.7 Q 279.5 140.7, 277.4 138.3 Q 275.3 135.9, 275.3 131.5 M 283.4 138.7 Q 286.1 138.7, 287.6 136.9 Q 289.0 135.1, 289.0 131.5 Q 289.0 128.1, 287.6 126.3 Q 286.1 124.5, 283.4 124.5 Q 280.7 124.5, 279.2 126.3 Q 277.8 128.0, 277.8 131.5 Q 277.8 135.1, 279.2 136.9 Q 280.7 138.7, 283.4 138.7 " fill="#FF0000"/>
<path class="atom-14" d="M 295.1 138.4 L 298.9 138.4 L 298.9 125.2 L 294.7 126.5 L 294.1 125.1 L 299.5 122.6 L 301.3 122.9 L 301.3 138.4 L 304.8 138.4 L 304.8 140.4 L 295.1 140.4 L 295.1 138.4 " fill="#FF0000"/>
<path class="atom-14" d="M 313.5 129.4 Q 315.1 129.4, 316.4 130.0 Q 317.6 130.7, 318.4 131.9 Q 319.1 133.2, 319.1 134.8 Q 319.1 136.7, 318.2 138.0 Q 317.3 139.3, 315.9 140.0 Q 314.4 140.6, 312.8 140.6 Q 311.1 140.6, 309.6 140.0 Q 308.1 139.4, 307.1 138.3 L 308.6 136.7 Q 309.4 137.6, 310.6 138.1 Q 311.7 138.6, 312.8 138.6 Q 314.4 138.6, 315.5 137.6 Q 316.6 136.7, 316.6 134.9 Q 316.6 133.0, 315.5 132.1 Q 314.4 131.2, 312.7 131.2 Q 311.1 131.2, 309.4 131.9 L 308.0 131.3 L 308.9 122.7 L 318.0 122.7 L 317.7 124.7 L 310.9 124.7 L 310.4 130.0 Q 312.0 129.4, 313.5 129.4 " fill="#FF0000"/>
<path class="atom-15" d="M 816.8 449.2 Q 816.8 444.9, 818.9 442.5 Q 821.0 440.2, 824.9 440.2 Q 828.9 440.2, 831.0 442.5 Q 833.1 444.9, 833.1 449.2 Q 833.1 453.5, 830.9 455.9 Q 828.8 458.3, 824.9 458.3 Q 821.0 458.3, 818.9 455.9 Q 816.8 453.5, 816.8 449.2 M 824.9 456.3 Q 827.6 456.3, 829.1 454.5 Q 830.6 452.7, 830.6 449.2 Q 830.6 445.7, 829.1 443.9 Q 827.6 442.2, 824.9 442.2 Q 822.2 442.2, 820.8 443.9 Q 819.3 445.7, 819.3 449.2 Q 819.3 452.7, 820.8 454.5 Q 822.2 456.3, 824.9 456.3 " fill="#FF0000"/>
<path class="atom-15" d="M 836.6 456.1 L 840.5 456.1 L 840.5 442.8 L 836.2 444.2 L 835.6 442.7 L 841.0 440.3 L 842.8 440.6 L 842.8 456.1 L 846.3 456.1 L 846.3 458.1 L 836.6 458.1 L 836.6 456.1 " fill="#FF0000"/>
<path class="atom-15" d="M 855.6 447.0 Q 857.1 447.0, 858.4 447.7 Q 859.6 448.4, 860.3 449.6 Q 860.9 450.8, 860.9 452.4 Q 860.9 454.1, 860.2 455.4 Q 859.4 456.8, 858.1 457.5 Q 856.7 458.3, 855.0 458.3 Q 851.8 458.3, 850.2 456.1 Q 848.7 454.0, 848.7 449.7 Q 848.7 445.0, 850.6 442.6 Q 852.6 440.2, 856.4 440.2 Q 857.5 440.2, 858.4 440.4 Q 859.3 440.7, 860.2 441.2 L 859.3 442.9 Q 858.0 442.2, 856.4 442.2 Q 853.9 442.2, 852.6 443.8 Q 851.3 445.4, 851.2 448.7 Q 852.1 447.9, 853.2 447.5 Q 854.4 447.0, 855.6 447.0 M 855.0 456.2 Q 856.0 456.2, 856.7 455.7 Q 857.5 455.2, 858.0 454.3 Q 858.4 453.5, 858.4 452.4 Q 858.4 450.8, 857.6 449.9 Q 856.7 449.0, 855.1 449.0 Q 854.1 449.0, 853.0 449.5 Q 851.9 449.9, 851.2 450.6 Q 851.3 453.6, 852.2 454.9 Q 853.1 456.2, 855.0 456.2 " fill="#FF0000"/>
<path class="atom-16" d="M 533.2 312.5 Q 533.2 308.3, 535.3 305.9 Q 537.4 303.5, 541.3 303.5 Q 545.3 303.5, 547.4 305.9 Q 549.5 308.3, 549.5 312.5 Q 549.5 316.8, 547.3 319.3 Q 545.2 321.7, 541.3 321.7 Q 537.4 321.7, 535.3 319.3 Q 533.2 316.9, 533.2 312.5 M 541.3 319.7 Q 544.0 319.7, 545.5 317.9 Q 547.0 316.1, 547.0 312.5 Q 547.0 309.1, 545.5 307.3 Q 544.0 305.5, 541.3 305.5 Q 538.6 305.5, 537.2 307.3 Q 535.7 309.0, 535.7 312.5 Q 535.7 316.1, 537.2 317.9 Q 538.6 319.7, 541.3 319.7 " fill="#FF0000"/>
<path class="atom-16" d="M 553.0 319.4 L 556.8 319.4 L 556.8 306.2 L 552.6 307.5 L 552.0 306.1 L 557.4 303.6 L 559.2 303.9 L 559.2 319.4 L 562.7 319.4 L 562.7 321.4 L 553.0 321.4 L 553.0 319.4 " fill="#FF0000"/>
<path class="atom-16" d="M 574.3 305.7 L 565.0 305.7 L 565.0 303.7 L 576.8 303.7 L 576.8 305.5 L 569.6 321.4 L 567.2 321.4 L 574.3 305.7 " fill="#FF0000"/>
<path class="atom-17" d="M 486.4 769.6 L 492.2 779.0 Q 492.8 779.9, 493.7 781.6 Q 494.6 783.3, 494.7 783.4 L 494.7 769.6 L 497.0 769.6 L 497.0 787.3 L 494.6 787.3 L 488.4 777.1 Q 487.6 775.9, 486.9 774.5 Q 486.1 773.1, 485.9 772.7 L 485.9 787.3 L 483.6 787.3 L 483.6 769.6 L 486.4 769.6 " fill="#0000FF"/>
<path class="atom-17" d="M 501.3 785.3 L 505.2 785.3 L 505.2 772.1 L 500.9 773.4 L 500.3 771.9 L 505.7 769.5 L 507.5 769.8 L 507.5 785.3 L 511.0 785.3 L 511.0 787.3 L 501.3 787.3 L 501.3 785.3 " fill="#0000FF"/>
<path class="atom-17" d="M 522.3 777.9 Q 523.9 778.6, 524.8 779.7 Q 525.8 780.7, 525.8 782.5 Q 525.8 784.0, 525.0 785.1 Q 524.2 786.3, 522.8 786.9 Q 521.4 787.6, 519.6 787.6 Q 516.7 787.6, 515.0 786.2 Q 513.3 784.8, 513.3 782.5 Q 513.3 781.0, 514.0 779.9 Q 514.8 778.8, 516.3 778.0 Q 515.2 777.4, 514.5 776.4 Q 513.9 775.4, 513.9 773.9 Q 513.9 771.9, 515.4 770.6 Q 516.9 769.4, 519.5 769.4 Q 522.1 769.4, 523.6 770.6 Q 525.1 771.9, 525.1 773.9 Q 525.1 775.2, 524.4 776.2 Q 523.7 777.2, 522.3 777.9 M 519.5 771.3 Q 518.0 771.3, 517.2 772.0 Q 516.4 772.7, 516.4 773.9 Q 516.4 774.9, 517.0 775.5 Q 517.5 776.1, 518.3 776.4 Q 519.1 776.8, 520.6 777.3 Q 521.7 776.6, 522.1 775.8 Q 522.6 775.0, 522.6 773.9 Q 522.6 772.7, 521.8 772.0 Q 521.0 771.3, 519.5 771.3 M 519.6 785.7 Q 521.3 785.7, 522.3 784.8 Q 523.3 783.9, 523.3 782.4 Q 523.3 781.5, 522.7 780.9 Q 522.2 780.3, 521.4 779.9 Q 520.6 779.6, 519.2 779.1 L 518.1 778.8 Q 516.9 779.5, 516.3 780.4 Q 515.8 781.3, 515.8 782.4 Q 515.8 783.9, 516.8 784.8 Q 517.9 785.7, 519.6 785.7 " fill="#0000FF"/>
<path class="atom-18" d="M 619.6 570.7 Q 619.6 566.3, 621.6 564.0 Q 623.7 561.7, 627.6 561.7 Q 631.3 561.7, 633.2 564.3 L 631.6 565.6 Q 630.2 563.8, 627.6 563.8 Q 625.0 563.8, 623.5 565.6 Q 622.1 567.3, 622.1 570.7 Q 622.1 574.2, 623.6 576.0 Q 625.1 577.8, 627.9 577.8 Q 629.9 577.8, 632.1 576.7 L 632.8 578.5 Q 631.9 579.1, 630.5 579.5 Q 629.1 579.8, 627.6 579.8 Q 623.7 579.8, 621.6 577.5 Q 619.6 575.1, 619.6 570.7 " fill="#000000"/>
<path class="atom-18" d="M 636.4 577.6 L 640.3 577.6 L 640.3 564.4 L 636.0 565.7 L 635.5 564.2 L 640.9 561.8 L 642.7 562.1 L 642.7 577.6 L 646.1 577.6 L 646.1 579.6 L 636.4 579.6 L 636.4 577.6 " fill="#000000"/>
<path class="atom-18" d="M 654.4 561.7 Q 657.5 561.7, 659.1 563.9 Q 660.7 566.0, 660.7 570.2 Q 660.7 574.9, 658.7 577.4 Q 656.8 579.8, 653.0 579.8 Q 651.9 579.8, 650.9 579.6 Q 650.0 579.3, 649.1 578.8 L 650.1 577.1 Q 651.4 577.8, 653.0 577.8 Q 655.5 577.8, 656.7 576.2 Q 658.0 574.6, 658.2 571.3 Q 657.3 572.1, 656.1 572.5 Q 655.0 573.0, 653.8 573.0 Q 652.2 573.0, 651.0 572.3 Q 649.8 571.6, 649.1 570.4 Q 648.4 569.2, 648.4 567.6 Q 648.4 565.9, 649.2 564.6 Q 649.9 563.2, 651.3 562.5 Q 652.6 561.7, 654.4 561.7 M 650.9 567.6 Q 650.9 569.2, 651.8 570.1 Q 652.7 571.0, 654.2 571.0 Q 655.3 571.0, 656.3 570.5 Q 657.4 570.1, 658.2 569.3 Q 658.1 566.4, 657.1 565.1 Q 656.2 563.8, 654.3 563.8 Q 653.4 563.8, 652.6 564.3 Q 651.8 564.8, 651.4 565.6 Q 650.9 566.5, 650.9 567.6 " fill="#000000"/>
<path class="atom-19" d="M 621.6 711.4 Q 621.6 707.0, 623.7 704.7 Q 625.8 702.4, 629.7 702.4 Q 633.3 702.4, 635.3 705.0 L 633.6 706.3 Q 632.2 704.5, 629.7 704.5 Q 627.0 704.5, 625.6 706.3 Q 624.2 708.0, 624.2 711.4 Q 624.2 714.9, 625.6 716.7 Q 627.1 718.5, 630.0 718.5 Q 631.9 718.5, 634.2 717.4 L 634.9 719.2 Q 634.0 719.8, 632.6 720.2 Q 631.2 720.5, 629.6 720.5 Q 625.8 720.5, 623.7 718.2 Q 621.6 715.8, 621.6 711.4 " fill="#000000"/>
<path class="atom-19" d="M 637.6 706.0 Q 638.3 704.3, 639.8 703.4 Q 641.4 702.4, 643.5 702.4 Q 646.2 702.4, 647.7 703.9 Q 649.2 705.3, 649.2 707.9 Q 649.2 710.5, 647.2 713.0 Q 645.3 715.4, 641.3 718.3 L 649.5 718.3 L 649.5 720.3 L 637.6 720.3 L 637.6 718.6 Q 640.9 716.3, 642.8 714.5 Q 644.8 712.8, 645.7 711.2 Q 646.7 709.6, 646.7 708.0 Q 646.7 706.3, 645.8 705.4 Q 645.0 704.4, 643.5 704.4 Q 642.1 704.4, 641.1 705.0 Q 640.2 705.6, 639.5 706.8 L 637.6 706.0 " fill="#000000"/>
<path class="atom-19" d="M 658.8 720.5 Q 655.5 720.5, 653.9 718.1 Q 652.3 715.7, 652.3 711.4 Q 652.3 707.2, 653.9 704.8 Q 655.5 702.4, 658.8 702.4 Q 662.0 702.4, 663.6 704.8 Q 665.2 707.2, 665.2 711.4 Q 665.2 715.7, 663.6 718.1 Q 662.0 720.5, 658.8 720.5 M 658.8 718.5 Q 660.7 718.5, 661.7 716.7 Q 662.7 714.9, 662.7 711.4 Q 662.7 708.0, 661.7 706.2 Q 660.7 704.4, 658.8 704.4 Q 656.9 704.4, 655.8 706.2 Q 654.8 708.0, 654.8 711.4 Q 654.8 714.9, 655.8 716.7 Q 656.9 718.5, 658.8 718.5 " fill="#000000"/>
<path class="atom-20" d="M 490.9 903.0 Q 490.9 898.6, 493.0 896.3 Q 495.0 894.0, 499.0 894.0 Q 502.6 894.0, 504.6 896.5 L 502.9 897.9 Q 501.5 896.0, 499.0 896.0 Q 496.3 896.0, 494.9 897.8 Q 493.5 899.6, 493.5 903.0 Q 493.5 906.5, 494.9 908.3 Q 496.4 910.1, 499.2 910.1 Q 501.2 910.1, 503.5 908.9 L 504.2 910.8 Q 503.2 911.4, 501.8 911.7 Q 500.4 912.1, 498.9 912.1 Q 495.0 912.1, 493.0 909.7 Q 490.9 907.4, 490.9 903.0 " fill="#000000"/>
<path class="atom-20" d="M 506.8 897.5 Q 507.5 895.8, 509.0 894.9 Q 510.6 894.0, 512.7 894.0 Q 515.4 894.0, 516.9 895.4 Q 518.4 896.9, 518.4 899.4 Q 518.4 902.1, 516.4 904.5 Q 514.5 907.0, 510.5 909.9 L 518.7 909.9 L 518.7 911.9 L 506.8 911.9 L 506.8 910.2 Q 510.1 907.8, 512.0 906.1 Q 514.0 904.3, 514.9 902.8 Q 515.9 901.2, 515.9 899.6 Q 515.9 897.9, 515.0 896.9 Q 514.2 896.0, 512.7 896.0 Q 511.3 896.0, 510.3 896.5 Q 509.4 897.1, 508.7 898.4 L 506.8 897.5 " fill="#000000"/>
<path class="atom-20" d="M 522.4 909.9 L 526.3 909.9 L 526.3 896.6 L 522.0 898.0 L 521.4 896.5 L 526.8 894.1 L 528.6 894.4 L 528.6 909.9 L 532.1 909.9 L 532.1 911.9 L 522.4 911.9 L 522.4 909.9 " fill="#000000"/>
<path class="atom-21" d="M 139.1 68.5 Q 139.1 64.1, 141.1 61.8 Q 143.2 59.5, 147.1 59.5 Q 150.8 59.5, 152.7 62.1 L 151.1 63.4 Q 149.6 61.6, 147.1 61.6 Q 144.4 61.6, 143.0 63.4 Q 141.6 65.1, 141.6 68.5 Q 141.6 72.0, 143.1 73.8 Q 144.5 75.6, 147.4 75.6 Q 149.3 75.6, 151.6 74.5 L 152.3 76.3 Q 151.4 76.9, 150.0 77.3 Q 148.6 77.6, 147.0 77.6 Q 143.2 77.6, 141.1 75.3 Q 139.1 72.9, 139.1 68.5 " fill="#000000"/>
<path class="atom-21" d="M 155.0 63.1 Q 155.7 61.4, 157.2 60.5 Q 158.8 59.5, 160.9 59.5 Q 163.6 59.5, 165.1 61.0 Q 166.6 62.4, 166.6 65.0 Q 166.6 67.6, 164.6 70.1 Q 162.7 72.5, 158.7 75.4 L 166.9 75.4 L 166.9 77.4 L 155.0 77.4 L 155.0 75.7 Q 158.3 73.4, 160.2 71.6 Q 162.2 69.9, 163.1 68.3 Q 164.1 66.7, 164.1 65.1 Q 164.1 63.4, 163.2 62.5 Q 162.4 61.5, 160.9 61.5 Q 159.5 61.5, 158.5 62.1 Q 157.6 62.7, 156.9 63.9 L 155.0 63.1 " fill="#000000"/>
<path class="atom-21" d="M 169.7 63.1 Q 170.3 61.4, 171.9 60.5 Q 173.4 59.5, 175.6 59.5 Q 178.3 59.5, 179.8 61.0 Q 181.3 62.4, 181.3 65.0 Q 181.3 67.6, 179.3 70.1 Q 177.4 72.5, 173.4 75.4 L 181.6 75.4 L 181.6 77.4 L 169.6 77.4 L 169.6 75.7 Q 172.9 73.4, 174.9 71.6 Q 176.9 69.9, 177.8 68.3 Q 178.8 66.7, 178.8 65.1 Q 178.8 63.4, 177.9 62.5 Q 177.1 61.5, 175.6 61.5 Q 174.2 61.5, 173.2 62.1 Q 172.3 62.7, 171.6 63.9 L 169.7 63.1 " fill="#000000"/>
<text x="1000" y="50" font-size="8" font-family="Verdana" font-weight="normal" letter-spacing="0" text-anchor="start" fill="black">Highlighted Atoms:
Primary SOM: Red
Secondary SOM: Green
Tertiary SOM: Cyan
</text></svg>
