<?xml version='1.0' encoding='ASCII' standalone='yes'?>
<svg xmlns="http://www.w3.org/2000/svg" xmlns:rdkit="http://www.rdkit.org/xml" xmlns:xlink="http://www.w3.org/1999/xlink" style="background-color: white;" version="1.1" baseProfile="full" xml:space="preserve" width="1000px" height="1000px" viewBox="0 0 1000 1000">
<!-- END OF HEADER -->
<rect style="opacity:1.0;fill:#FFFFFF;stroke:none" width="1000.0" height="1000.0" x="0.0" y="0.0"> </rect>
<ellipse cx="452.8" cy="911.0" rx="31.7" ry="31.7" class="atom-7" style="fill:#B20000;fill-rule:evenodd;stroke:#B20000;stroke-width:1.0px;stroke-linecap:butt;stroke-linejoin:miter;stroke-opacity:1"/>
<path class="bond-0 atom-1 atom-0" d="M 534.8,742.4 L 469.5,704.8" style="fill:none;fill-rule:evenodd;stroke:#000000;stroke-width:2.0px;stroke-linecap:butt;stroke-linejoin:miter;stroke-opacity:1"/>
<path class="bond-0 atom-1 atom-0" d="M 542.6,728.7 L 477.3,691.1" style="fill:none;fill-rule:evenodd;stroke:#000000;stroke-width:2.0px;stroke-linecap:butt;stroke-linejoin:miter;stroke-opacity:1"/>
<path class="bond-1 atom-2 atom-1" d="M 633.3,705.8 L 569.6,742.4" style="fill:none;fill-rule:evenodd;stroke:#000000;stroke-width:2.0px;stroke-linecap:butt;stroke-linejoin:miter;stroke-opacity:1"/>
<path class="bond-2 atom-3 atom-2" d="M 643.5,606.7 L 643.6,687.4" style="fill:none;fill-rule:evenodd;stroke:#000000;stroke-width:2.0px;stroke-linecap:butt;stroke-linejoin:miter;stroke-opacity:1"/>
<path class="bond-2 atom-3 atom-2" d="M 627.6,606.8 L 627.8,687.4" style="fill:none;fill-rule:evenodd;stroke:#000000;stroke-width:2.0px;stroke-linecap:butt;stroke-linejoin:miter;stroke-opacity:1"/>
<path class="bond-3 atom-4 atom-3" d="M 561.5,546.8 L 622.0,581.9" style="fill:none;fill-rule:evenodd;stroke:#000000;stroke-width:2.0px;stroke-linecap:butt;stroke-linejoin:miter;stroke-opacity:1"/>
<path class="bond-4 atom-5 atom-0" d="M 460.7,606.9 L 460.6,687.4" style="fill:none;fill-rule:evenodd;stroke:#000000;stroke-width:2.0px;stroke-linecap:butt;stroke-linejoin:miter;stroke-opacity:1"/>
<path class="bond-5 atom-5 atom-4" d="M 482.2,581.8 L 530.2,554.0" style="fill:none;fill-rule:evenodd;stroke:#000000;stroke-width:2.0px;stroke-linecap:butt;stroke-linejoin:miter;stroke-opacity:1"/>
<path class="bond-5 atom-5 atom-4" d="M 490.1,595.5 L 538.2,567.7" style="fill:none;fill-rule:evenodd;stroke:#000000;stroke-width:2.0px;stroke-linecap:butt;stroke-linejoin:miter;stroke-opacity:1"/>
<path class="bond-6 atom-6 atom-1" d="M 552.1,845.6 L 552.2,805.4" style="fill:none;fill-rule:evenodd;stroke:#FF0000;stroke-width:2.0px;stroke-linecap:butt;stroke-linejoin:miter;stroke-opacity:1"/>
<path class="bond-6 atom-6 atom-1" d="M 552.2,805.4 L 552.2,765.1" style="fill:none;fill-rule:evenodd;stroke:#000000;stroke-width:2.0px;stroke-linecap:butt;stroke-linejoin:miter;stroke-opacity:1"/>
<path class="bond-7 atom-7 atom-6" d="M 470.5,905.2 L 505.5,885.0" style="fill:none;fill-rule:evenodd;stroke:#000000;stroke-width:2.0px;stroke-linecap:butt;stroke-linejoin:miter;stroke-opacity:1"/>
<path class="bond-7 atom-7 atom-6" d="M 505.5,885.0 L 540.5,864.8" style="fill:none;fill-rule:evenodd;stroke:#FF0000;stroke-width:2.0px;stroke-linecap:butt;stroke-linejoin:miter;stroke-opacity:1"/>
<path class="bond-8 atom-8 atom-2" d="M 723.4,745.8 L 694.5,729.2" style="fill:none;fill-rule:evenodd;stroke:#FF0000;stroke-width:2.0px;stroke-linecap:butt;stroke-linejoin:miter;stroke-opacity:1"/>
<path class="bond-8 atom-8 atom-2" d="M 694.5,729.2 L 665.6,712.5" style="fill:none;fill-rule:evenodd;stroke:#000000;stroke-width:2.0px;stroke-linecap:butt;stroke-linejoin:miter;stroke-opacity:1"/>
<path class="bond-9 atom-9 atom-8" d="M 735.0,845.6 L 735.0,805.5" style="fill:none;fill-rule:evenodd;stroke:#000000;stroke-width:2.0px;stroke-linecap:butt;stroke-linejoin:miter;stroke-opacity:1"/>
<path class="bond-9 atom-9 atom-8" d="M 735.0,805.5 L 735.0,765.3" style="fill:none;fill-rule:evenodd;stroke:#FF0000;stroke-width:2.0px;stroke-linecap:butt;stroke-linejoin:miter;stroke-opacity:1"/>
<path class="bond-10 atom-10 atom-3" d="M 712.9,554.1 L 683.3,571.2" style="fill:none;fill-rule:evenodd;stroke:#FF0000;stroke-width:2.0px;stroke-linecap:butt;stroke-linejoin:miter;stroke-opacity:1"/>
<path class="bond-10 atom-10 atom-3" d="M 683.3,571.2 L 653.7,588.3" style="fill:none;fill-rule:evenodd;stroke:#000000;stroke-width:2.0px;stroke-linecap:butt;stroke-linejoin:miter;stroke-opacity:1"/>
<path class="bond-11 atom-11 atom-10" d="M 816.0,588.2 L 786.3,571.0" style="fill:none;fill-rule:evenodd;stroke:#000000;stroke-width:2.0px;stroke-linecap:butt;stroke-linejoin:miter;stroke-opacity:1"/>
<path class="bond-11 atom-11 atom-10" d="M 786.3,571.0 L 756.5,553.9" style="fill:none;fill-rule:evenodd;stroke:#FF0000;stroke-width:2.0px;stroke-linecap:butt;stroke-linejoin:miter;stroke-opacity:1"/>
<path class="bond-12 atom-12 atom-5" d="M 371.9,559.3 L 450.4,590.2" style="fill:none;fill-rule:evenodd;stroke:#000000;stroke-width:2.0px;stroke-linecap:butt;stroke-linejoin:miter;stroke-opacity:1"/>
<path class="bond-13 atom-13 atom-12" d="M 335.0,467.2 L 358.6,543.1" style="fill:none;fill-rule:evenodd;stroke:#000000;stroke-width:2.0px;stroke-linecap:butt;stroke-linejoin:miter;stroke-opacity:1"/>
<path class="bond-14 atom-14 atom-13" d="M 382.0,380.4 L 339.5,442.6" style="fill:none;fill-rule:evenodd;stroke:#000000;stroke-width:2.0px;stroke-linecap:butt;stroke-linejoin:miter;stroke-opacity:1"/>
<path class="bond-15 atom-15 atom-14" d="M 485.7,360.4 L 428.1,364.8" style="fill:none;fill-rule:evenodd;stroke:#000000;stroke-width:2.0px;stroke-linecap:butt;stroke-linejoin:miter;stroke-opacity:1"/>
<path class="bond-16 atom-16 atom-4" d="M 565.9,449.5 L 553.9,529.1" style="fill:none;fill-rule:evenodd;stroke:#000000;stroke-width:2.0px;stroke-linecap:butt;stroke-linejoin:miter;stroke-opacity:1"/>
<path class="bond-17 atom-16 atom-15" d="M 556.3,424.7 L 507.5,372.0" style="fill:none;fill-rule:evenodd;stroke:#000000;stroke-width:2.0px;stroke-linecap:butt;stroke-linejoin:miter;stroke-opacity:1"/>
<path class="bond-18 atom-17 atom-15" d="M 509.7,267.9 L 497.9,347.2" style="fill:none;fill-rule:evenodd;stroke:#000000;stroke-width:2.0px;stroke-linecap:butt;stroke-linejoin:miter;stroke-opacity:1"/>
<path class="bond-18 atom-17 atom-15" d="M 525.3,270.3 L 513.5,349.5" style="fill:none;fill-rule:evenodd;stroke:#000000;stroke-width:2.0px;stroke-linecap:butt;stroke-linejoin:miter;stroke-opacity:1"/>
<path class="bond-19 atom-18 atom-16" d="M 662.7,429.8 L 577.1,436.3" style="fill:none;fill-rule:evenodd;stroke:#000000;stroke-width:2.0px;stroke-linecap:butt;stroke-linejoin:miter;stroke-opacity:1"/>
<path class="bond-19 atom-18 atom-16" d="M 661.5,414.0 L 575.9,420.6" style="fill:none;fill-rule:evenodd;stroke:#000000;stroke-width:2.0px;stroke-linecap:butt;stroke-linejoin:miter;stroke-opacity:1"/>
<path class="bond-20 atom-19 atom-18" d="M 723.8,354.6 L 681.5,416.6" style="fill:none;fill-rule:evenodd;stroke:#000000;stroke-width:2.0px;stroke-linecap:butt;stroke-linejoin:miter;stroke-opacity:1"/>
<path class="bond-21 atom-20 atom-17" d="M 581.1,215.3 L 521.3,249.6" style="fill:none;fill-rule:evenodd;stroke:#000000;stroke-width:2.0px;stroke-linecap:butt;stroke-linejoin:miter;stroke-opacity:1"/>
<path class="bond-22 atom-21 atom-19" d="M 705.2,253.4 L 728.6,329.5" style="fill:none;fill-rule:evenodd;stroke:#000000;stroke-width:2.0px;stroke-linecap:butt;stroke-linejoin:miter;stroke-opacity:1"/>
<path class="bond-22 atom-21 atom-19" d="M 690.1,258.0 L 713.4,334.2" style="fill:none;fill-rule:evenodd;stroke:#000000;stroke-width:2.0px;stroke-linecap:butt;stroke-linejoin:miter;stroke-opacity:1"/>
<path class="bond-23 atom-21 atom-20" d="M 669.5,228.5 L 627.1,212.0" style="fill:none;fill-rule:evenodd;stroke:#000000;stroke-width:2.0px;stroke-linecap:butt;stroke-linejoin:miter;stroke-opacity:1"/>
<path class="bond-24 atom-22 atom-20" d="M 604.0,109.3 L 607.0,149.5" style="fill:none;fill-rule:evenodd;stroke:#FF0000;stroke-width:2.0px;stroke-linecap:butt;stroke-linejoin:miter;stroke-opacity:1"/>
<path class="bond-24 atom-22 atom-20" d="M 607.0,149.5 L 610.0,189.6" style="fill:none;fill-rule:evenodd;stroke:#000000;stroke-width:2.0px;stroke-linecap:butt;stroke-linejoin:miter;stroke-opacity:1"/>
<path class="bond-24 atom-22 atom-20" d="M 588.2,110.5 L 591.2,150.6" style="fill:none;fill-rule:evenodd;stroke:#FF0000;stroke-width:2.0px;stroke-linecap:butt;stroke-linejoin:miter;stroke-opacity:1"/>
<path class="bond-24 atom-22 atom-20" d="M 591.2,150.6 L 594.2,190.8" style="fill:none;fill-rule:evenodd;stroke:#000000;stroke-width:2.0px;stroke-linecap:butt;stroke-linejoin:miter;stroke-opacity:1"/>
<path class="bond-25 atom-23 atom-21" d="M 767.1,180.0 L 739.0,206.1" style="fill:none;fill-rule:evenodd;stroke:#FF0000;stroke-width:2.0px;stroke-linecap:butt;stroke-linejoin:miter;stroke-opacity:1"/>
<path class="bond-25 atom-23 atom-21" d="M 739.0,206.1 L 710.9,232.2" style="fill:none;fill-rule:evenodd;stroke:#000000;stroke-width:2.0px;stroke-linecap:butt;stroke-linejoin:miter;stroke-opacity:1"/>
<path class="bond-26 atom-24 atom-23" d="M 758.1,79.0 L 766.9,117.9" style="fill:none;fill-rule:evenodd;stroke:#000000;stroke-width:2.0px;stroke-linecap:butt;stroke-linejoin:miter;stroke-opacity:1"/>
<path class="bond-26 atom-24 atom-23" d="M 766.9,117.9 L 775.8,156.8" style="fill:none;fill-rule:evenodd;stroke:#FF0000;stroke-width:2.0px;stroke-linecap:butt;stroke-linejoin:miter;stroke-opacity:1"/>
<path class="bond-27 atom-25 atom-14" d="M 345.0,288.7 L 364.3,322.0" style="fill:none;fill-rule:evenodd;stroke:#0000FF;stroke-width:2.0px;stroke-linecap:butt;stroke-linejoin:miter;stroke-opacity:1"/>
<path class="bond-27 atom-25 atom-14" d="M 364.3,322.0 L 383.5,355.3" style="fill:none;fill-rule:evenodd;stroke:#000000;stroke-width:2.0px;stroke-linecap:butt;stroke-linejoin:miter;stroke-opacity:1"/>
<path class="bond-28 atom-26 atom-25" d="M 256.9,276.2 L 292.3,276.2" style="fill:none;fill-rule:evenodd;stroke:#000000;stroke-width:2.0px;stroke-linecap:butt;stroke-linejoin:miter;stroke-opacity:1"/>
<path class="bond-28 atom-26 atom-25" d="M 292.3,276.2 L 327.7,276.2" style="fill:none;fill-rule:evenodd;stroke:#0000FF;stroke-width:2.0px;stroke-linecap:butt;stroke-linejoin:miter;stroke-opacity:1"/>
<path class="bond-29 atom-27 atom-26" d="M 186.7,355.2 L 225.0,288.9" style="fill:none;fill-rule:evenodd;stroke:#000000;stroke-width:2.0px;stroke-linecap:butt;stroke-linejoin:miter;stroke-opacity:1"/>
<path class="bond-30 atom-28 atom-26" d="M 193.7,193.5 L 212.8,226.7" style="fill:none;fill-rule:evenodd;stroke:#FF0000;stroke-width:2.0px;stroke-linecap:butt;stroke-linejoin:miter;stroke-opacity:1"/>
<path class="bond-30 atom-28 atom-26" d="M 212.8,226.7 L 232.0,259.9" style="fill:none;fill-rule:evenodd;stroke:#000000;stroke-width:2.0px;stroke-linecap:butt;stroke-linejoin:miter;stroke-opacity:1"/>
<path class="bond-30 atom-28 atom-26" d="M 180.0,201.5 L 199.1,234.6" style="fill:none;fill-rule:evenodd;stroke:#FF0000;stroke-width:2.0px;stroke-linecap:butt;stroke-linejoin:miter;stroke-opacity:1"/>
<path class="bond-30 atom-28 atom-26" d="M 199.1,234.6 L 218.3,267.8" style="fill:none;fill-rule:evenodd;stroke:#000000;stroke-width:2.0px;stroke-linecap:butt;stroke-linejoin:miter;stroke-opacity:1"/>
<path class="atom-0" d="M 439.4 699.8 Q 439.4 695.4, 441.5 693.1 Q 443.6 690.8, 447.5 690.8 Q 451.1 690.8, 453.1 693.4 L 451.4 694.7 Q 450.0 692.9, 447.5 692.9 Q 444.8 692.9, 443.4 694.7 Q 442.0 696.4, 442.0 699.8 Q 442.0 703.3, 443.4 705.1 Q 444.9 706.9, 447.8 706.9 Q 449.7 706.9, 452.0 705.8 L 452.7 707.6 Q 451.8 708.2, 450.4 708.6 Q 449.0 708.9, 447.4 708.9 Q 443.6 708.9, 441.5 706.6 Q 439.4 704.2, 439.4 699.8 " fill="#000000"/>
<path class="atom-0" d="M 456.3 706.7 L 460.1 706.7 L 460.1 693.5 L 455.9 694.8 L 455.3 693.3 L 460.7 690.9 L 462.5 691.2 L 462.5 706.7 L 466.0 706.7 L 466.0 708.7 L 456.3 708.7 L 456.3 706.7 " fill="#000000"/>
<path class="atom-1" d="M 538.2 752.5 Q 538.2 748.1, 540.3 745.8 Q 542.4 743.5, 546.3 743.5 Q 549.9 743.5, 551.9 746.0 L 550.2 747.4 Q 548.8 745.5, 546.3 745.5 Q 543.6 745.5, 542.2 747.3 Q 540.8 749.1, 540.8 752.5 Q 540.8 756.0, 542.2 757.8 Q 543.7 759.6, 546.6 759.6 Q 548.5 759.6, 550.8 758.4 L 551.5 760.3 Q 550.6 760.9, 549.2 761.2 Q 547.8 761.6, 546.2 761.6 Q 542.4 761.6, 540.3 759.2 Q 538.2 756.9, 538.2 752.5 " fill="#000000"/>
<path class="atom-1" d="M 554.2 747.0 Q 554.9 745.3, 556.4 744.4 Q 558.0 743.5, 560.1 743.5 Q 562.8 743.5, 564.3 744.9 Q 565.8 746.4, 565.8 748.9 Q 565.8 751.6, 563.8 754.0 Q 561.9 756.5, 557.9 759.4 L 566.1 759.4 L 566.1 761.4 L 554.2 761.4 L 554.2 759.7 Q 557.5 757.3, 559.4 755.6 Q 561.4 753.8, 562.3 752.3 Q 563.3 750.7, 563.3 749.1 Q 563.3 747.4, 562.4 746.4 Q 561.6 745.5, 560.1 745.5 Q 558.7 745.5, 557.7 746.0 Q 556.8 746.6, 556.1 747.9 L 554.2 747.0 " fill="#000000"/>
<path class="atom-2" d="M 636.8 699.9 Q 636.8 695.5, 638.9 693.2 Q 641.0 690.9, 644.9 690.9 Q 648.5 690.9, 650.5 693.5 L 648.8 694.8 Q 647.4 692.9, 644.9 692.9 Q 642.2 692.9, 640.8 694.7 Q 639.4 696.5, 639.4 699.9 Q 639.4 703.4, 640.8 705.2 Q 642.3 707.0, 645.2 707.0 Q 647.1 707.0, 649.4 705.8 L 650.1 707.7 Q 649.2 708.3, 647.8 708.7 Q 646.4 709.0, 644.8 709.0 Q 641.0 709.0, 638.9 706.7 Q 636.8 704.3, 636.8 699.9 " fill="#000000"/>
<path class="atom-2" d="M 661.3 699.5 Q 663.0 700.0, 663.8 701.1 Q 664.7 702.2, 664.7 703.9 Q 664.7 705.4, 663.9 706.6 Q 663.2 707.8, 661.8 708.4 Q 660.4 709.0, 658.6 709.0 Q 656.7 709.0, 655.3 708.4 Q 653.9 707.7, 652.8 706.4 L 654.2 704.9 Q 655.3 706.1, 656.2 706.6 Q 657.1 707.0, 658.6 707.0 Q 660.2 707.0, 661.2 706.2 Q 662.2 705.3, 662.2 703.9 Q 662.2 702.1, 661.1 701.3 Q 660.1 700.5, 658.0 700.5 L 656.7 700.5 L 656.7 698.7 L 657.8 698.7 Q 659.7 698.7, 660.8 697.8 Q 661.8 697.0, 661.8 695.4 Q 661.8 694.3, 660.9 693.6 Q 660.1 692.9, 658.6 692.9 Q 657.2 692.9, 656.2 693.4 Q 655.3 693.9, 654.6 695.3 L 652.9 694.3 Q 653.5 692.9, 655.0 691.9 Q 656.5 690.9, 658.6 690.9 Q 661.2 690.9, 662.8 692.1 Q 664.3 693.3, 664.3 695.4 Q 664.3 696.8, 663.5 697.9 Q 662.7 698.9, 661.3 699.5 " fill="#000000"/>
<path class="atom-3" d="M 620.6 594.4 Q 620.6 590.0, 622.7 587.7 Q 624.7 585.3, 628.7 585.3 Q 632.3 585.3, 634.3 587.9 L 632.6 589.3 Q 631.2 587.4, 628.7 587.4 Q 626.0 587.4, 624.6 589.2 Q 623.2 591.0, 623.2 594.4 Q 623.2 597.9, 624.6 599.7 Q 626.1 601.5, 628.9 601.5 Q 630.9 601.5, 633.2 600.3 L 633.9 602.2 Q 632.9 602.8, 631.5 603.1 Q 630.1 603.5, 628.6 603.5 Q 624.7 603.5, 622.7 601.1 Q 620.6 598.8, 620.6 594.4 " fill="#000000"/>
<path class="atom-3" d="M 648.1 597.2 L 650.3 597.2 L 650.3 599.2 L 648.1 599.2 L 648.1 603.2 L 645.8 603.2 L 645.8 599.2 L 636.6 599.2 L 636.6 597.6 L 644.4 585.5 L 648.1 585.5 L 648.1 597.2 M 639.5 597.2 L 645.8 597.2 L 645.8 587.1 L 639.5 597.2 " fill="#000000"/>
<path class="atom-4" d="M 530.2 541.4 Q 530.2 537.0, 532.2 534.7 Q 534.3 532.4, 538.2 532.4 Q 541.9 532.4, 543.8 535.0 L 542.2 536.3 Q 540.7 534.4, 538.2 534.4 Q 535.5 534.4, 534.1 536.2 Q 532.7 538.0, 532.7 541.4 Q 532.7 544.9, 534.2 546.7 Q 535.6 548.5, 538.5 548.5 Q 540.4 548.5, 542.7 547.3 L 543.4 549.2 Q 542.5 549.8, 541.1 550.2 Q 539.7 550.5, 538.1 550.5 Q 534.3 550.5, 532.2 548.2 Q 530.2 545.8, 530.2 541.4 " fill="#000000"/>
<path class="atom-4" d="M 552.5 539.2 Q 554.1 539.2, 555.3 539.9 Q 556.6 540.5, 557.3 541.8 Q 558.1 543.0, 558.1 544.7 Q 558.1 546.5, 557.2 547.8 Q 556.3 549.1, 554.8 549.8 Q 553.4 550.5, 551.7 550.5 Q 550.1 550.5, 548.6 549.9 Q 547.1 549.3, 546.1 548.1 L 547.6 546.6 Q 548.4 547.5, 549.5 548.0 Q 550.7 548.5, 551.8 548.5 Q 553.4 548.5, 554.5 547.5 Q 555.6 546.5, 555.6 544.7 Q 555.6 542.9, 554.5 542.0 Q 553.4 541.1, 551.7 541.1 Q 550.1 541.1, 548.4 541.8 L 547.0 541.1 L 547.9 532.6 L 557.0 532.6 L 556.7 534.6 L 549.9 534.6 L 549.4 539.8 Q 551.0 539.2, 552.5 539.2 " fill="#000000"/>
<path class="atom-5" d="M 453.9 594.3 Q 453.9 589.9, 456.0 587.6 Q 458.0 585.3, 462.0 585.3 Q 465.6 585.3, 467.6 587.9 L 465.9 589.2 Q 464.5 587.3, 462.0 587.3 Q 459.3 587.3, 457.9 589.1 Q 456.5 590.9, 456.5 594.3 Q 456.5 597.8, 457.9 599.6 Q 459.4 601.4, 462.2 601.4 Q 464.2 601.4, 466.5 600.2 L 467.2 602.1 Q 466.2 602.7, 464.8 603.1 Q 463.4 603.4, 461.9 603.4 Q 458.0 603.4, 456.0 601.1 Q 453.9 598.7, 453.9 594.3 " fill="#000000"/>
<path class="atom-5" d="M 476.8 592.1 Q 478.3 592.1, 479.6 592.8 Q 480.8 593.5, 481.5 594.7 Q 482.1 595.9, 482.1 597.5 Q 482.1 599.2, 481.4 600.6 Q 480.6 601.9, 479.3 602.6 Q 477.9 603.4, 476.2 603.4 Q 473.0 603.4, 471.4 601.3 Q 469.9 599.1, 469.9 594.9 Q 469.9 590.2, 471.8 587.7 Q 473.8 585.3, 477.6 585.3 Q 478.7 585.3, 479.6 585.5 Q 480.5 585.8, 481.4 586.3 L 480.5 588.0 Q 479.2 587.3, 477.6 587.3 Q 475.1 587.3, 473.8 588.9 Q 472.5 590.5, 472.4 593.8 Q 473.3 593.0, 474.4 592.6 Q 475.6 592.1, 476.8 592.1 M 476.2 601.3 Q 477.2 601.3, 477.9 600.8 Q 478.7 600.3, 479.2 599.5 Q 479.6 598.6, 479.6 597.5 Q 479.6 595.9, 478.8 595.0 Q 477.9 594.1, 476.3 594.1 Q 475.3 594.1, 474.2 594.6 Q 473.1 595.0, 472.4 595.8 Q 472.5 598.7, 473.4 600.0 Q 474.3 601.3, 476.2 601.3 " fill="#000000"/>
<path class="atom-6" d="M 544.0 858.1 Q 544.0 853.9, 546.1 851.5 Q 548.2 849.1, 552.1 849.1 Q 556.1 849.1, 558.2 851.5 Q 560.3 853.9, 560.3 858.1 Q 560.3 862.4, 558.1 864.9 Q 556.0 867.3, 552.1 867.3 Q 548.2 867.3, 546.1 864.9 Q 544.0 862.5, 544.0 858.1 M 552.1 865.3 Q 554.8 865.3, 556.3 863.5 Q 557.8 861.7, 557.8 858.1 Q 557.8 854.7, 556.3 852.9 Q 554.8 851.1, 552.1 851.1 Q 549.4 851.1, 548.0 852.9 Q 546.5 854.6, 546.5 858.1 Q 546.5 861.7, 548.0 863.5 Q 549.4 865.3, 552.1 865.3 " fill="#FF0000"/>
<path class="atom-6" d="M 572.2 851.3 L 562.9 851.3 L 562.9 849.3 L 574.7 849.3 L 574.7 851.1 L 567.5 867.0 L 565.1 867.0 L 572.2 851.3 " fill="#FF0000"/>
<path class="atom-7" d="M 438.5 910.9 Q 438.5 906.5, 440.6 904.2 Q 442.7 901.9, 446.6 901.9 Q 450.2 901.9, 452.2 904.5 L 450.5 905.8 Q 449.1 903.9, 446.6 903.9 Q 443.9 903.9, 442.5 905.7 Q 441.1 907.5, 441.1 910.9 Q 441.1 914.4, 442.5 916.2 Q 444.0 918.0, 446.9 918.0 Q 448.8 918.0, 451.1 916.8 L 451.8 918.7 Q 450.9 919.3, 449.5 919.7 Q 448.1 920.0, 446.5 920.0 Q 442.7 920.0, 440.6 917.7 Q 438.5 915.3, 438.5 910.9 " fill="#000000"/>
<path class="atom-7" d="M 463.5 910.4 Q 465.1 911.1, 466.1 912.2 Q 467.0 913.2, 467.0 914.9 Q 467.0 916.4, 466.2 917.6 Q 465.4 918.8, 464.0 919.4 Q 462.7 920.0, 460.8 920.0 Q 457.9 920.0, 456.2 918.7 Q 454.5 917.3, 454.5 914.9 Q 454.5 913.5, 455.2 912.4 Q 456.0 911.3, 457.5 910.5 Q 456.4 909.8, 455.8 908.9 Q 455.1 907.9, 455.1 906.4 Q 455.1 904.3, 456.6 903.1 Q 458.2 901.9, 460.7 901.9 Q 463.3 901.9, 464.8 903.1 Q 466.3 904.3, 466.3 906.4 Q 466.3 907.7, 465.6 908.7 Q 464.9 909.6, 463.5 910.4 M 460.7 903.8 Q 459.3 903.8, 458.4 904.5 Q 457.6 905.2, 457.6 906.4 Q 457.6 907.3, 458.2 908.0 Q 458.7 908.6, 459.5 908.9 Q 460.3 909.3, 461.8 909.8 Q 462.9 909.0, 463.4 908.2 Q 463.8 907.4, 463.8 906.4 Q 463.8 905.2, 463.0 904.5 Q 462.2 903.8, 460.7 903.8 M 460.8 918.2 Q 462.5 918.2, 463.5 917.3 Q 464.5 916.4, 464.5 914.9 Q 464.5 914.0, 464.0 913.4 Q 463.4 912.8, 462.6 912.4 Q 461.9 912.1, 460.5 911.6 L 459.3 911.2 Q 458.1 912.0, 457.5 912.9 Q 457.0 913.8, 457.0 914.9 Q 457.0 916.4, 458.0 917.3 Q 459.1 918.2, 460.8 918.2 " fill="#000000"/>
<path class="atom-8" d="M 726.8 752.6 Q 726.8 748.3, 728.9 746.0 Q 731.0 743.6, 735.0 743.6 Q 738.9 743.6, 741.0 746.0 Q 743.1 748.3, 743.1 752.6 Q 743.1 756.9, 741.0 759.3 Q 738.8 761.8, 735.0 761.8 Q 731.1 761.8, 728.9 759.3 Q 726.8 756.9, 726.8 752.6 M 735.0 759.8 Q 737.7 759.8, 739.1 758.0 Q 740.6 756.1, 740.6 752.6 Q 740.6 749.1, 739.1 747.4 Q 737.7 745.6, 735.0 745.6 Q 732.3 745.6, 730.8 747.3 Q 729.3 749.1, 729.3 752.6 Q 729.3 756.2, 730.8 758.0 Q 732.3 759.8, 735.0 759.8 " fill="#FF0000"/>
<path class="atom-8" d="M 751.7 743.6 Q 754.9 743.6, 756.4 745.7 Q 758.0 747.9, 758.0 752.1 Q 758.0 756.8, 756.1 759.3 Q 754.1 761.7, 750.3 761.7 Q 749.2 761.7, 748.3 761.4 Q 747.4 761.2, 746.5 760.7 L 747.4 759.0 Q 748.7 759.7, 750.3 759.7 Q 752.8 759.7, 754.1 758.1 Q 755.4 756.5, 755.5 753.1 Q 754.6 754.0, 753.5 754.4 Q 752.3 754.8, 751.1 754.8 Q 749.6 754.8, 748.3 754.2 Q 747.1 753.5, 746.4 752.3 Q 745.8 751.0, 745.8 749.5 Q 745.8 747.8, 746.5 746.4 Q 747.3 745.1, 748.6 744.3 Q 750.0 743.6, 751.7 743.6 M 748.3 749.5 Q 748.3 751.0, 749.1 751.9 Q 750.0 752.8, 751.6 752.8 Q 752.6 752.8, 753.7 752.4 Q 754.8 752.0, 755.5 751.2 Q 755.4 748.3, 754.5 747.0 Q 753.6 745.6, 751.7 745.6 Q 750.7 745.6, 749.9 746.1 Q 749.2 746.6, 748.7 747.5 Q 748.3 748.4, 748.3 749.5 " fill="#FF0000"/>
<path class="atom-9" d="M 728.2 858.2 Q 728.2 853.8, 730.2 851.5 Q 732.3 849.1, 736.2 849.1 Q 739.9 849.1, 741.8 851.7 L 740.2 853.1 Q 738.7 851.2, 736.2 851.2 Q 733.5 851.2, 732.1 853.0 Q 730.7 854.8, 730.7 858.2 Q 730.7 861.7, 732.2 863.5 Q 733.6 865.3, 736.5 865.3 Q 738.4 865.3, 740.7 864.1 L 741.4 866.0 Q 740.5 866.6, 739.1 866.9 Q 737.7 867.3, 736.1 867.3 Q 732.3 867.3, 730.2 864.9 Q 728.2 862.6, 728.2 858.2 " fill="#000000"/>
<path class="atom-9" d="M 745.0 865.0 L 748.9 865.0 L 748.9 851.8 L 744.6 853.1 L 744.1 851.7 L 749.5 849.2 L 751.3 849.5 L 751.3 865.0 L 754.7 865.0 L 754.7 867.0 L 745.0 867.0 L 745.0 865.0 " fill="#000000"/>
<path class="atom-9" d="M 763.5 867.2 Q 760.3 867.2, 758.6 864.8 Q 757.0 862.4, 757.0 858.2 Q 757.0 853.9, 758.6 851.5 Q 760.2 849.1, 763.5 849.1 Q 766.8 849.1, 768.4 851.5 Q 770.0 853.9, 770.0 858.2 Q 770.0 862.4, 768.4 864.8 Q 766.8 867.2, 763.5 867.2 M 763.5 865.2 Q 765.4 865.2, 766.5 863.5 Q 767.5 861.7, 767.5 858.2 Q 767.5 854.7, 766.5 852.9 Q 765.4 851.1, 763.5 851.1 Q 761.6 851.1, 760.6 852.9 Q 759.5 854.7, 759.5 858.2 Q 759.5 861.7, 760.6 863.5 Q 761.6 865.2, 763.5 865.2 " fill="#000000"/>
<path class="atom-10" d="M 713.7 541.5 Q 713.7 537.2, 715.8 534.9 Q 717.9 532.5, 721.9 532.5 Q 725.8 532.5, 727.9 534.9 Q 730.0 537.2, 730.0 541.5 Q 730.0 545.8, 727.9 548.2 Q 725.7 550.7, 721.9 550.7 Q 718.0 550.7, 715.8 548.2 Q 713.7 545.8, 713.7 541.5 M 721.9 548.7 Q 724.6 548.7, 726.0 546.9 Q 727.5 545.0, 727.5 541.5 Q 727.5 538.0, 726.0 536.3 Q 724.6 534.5, 721.9 534.5 Q 719.2 534.5, 717.7 536.2 Q 716.2 538.0, 716.2 541.5 Q 716.2 545.1, 717.7 546.9 Q 719.2 548.7, 721.9 548.7 " fill="#FF0000"/>
<path class="atom-10" d="M 733.5 548.4 L 737.3 548.4 L 737.3 535.2 L 733.1 536.5 L 732.5 535.0 L 737.9 532.6 L 739.7 532.9 L 739.7 548.4 L 743.2 548.4 L 743.2 550.4 L 733.5 550.4 L 733.5 548.4 " fill="#FF0000"/>
<path class="atom-10" d="M 746.4 548.4 L 750.3 548.4 L 750.3 535.2 L 746.0 536.5 L 745.5 535.0 L 750.9 532.6 L 752.7 532.9 L 752.7 548.4 L 756.1 548.4 L 756.1 550.4 L 746.4 550.4 L 746.4 548.4 " fill="#FF0000"/>
<path class="atom-11" d="M 819.5 594.2 Q 819.5 589.8, 821.6 587.5 Q 823.7 585.2, 827.6 585.2 Q 831.2 585.2, 833.2 587.8 L 831.5 589.1 Q 830.1 587.3, 827.6 587.3 Q 824.9 587.3, 823.5 589.1 Q 822.1 590.8, 822.1 594.2 Q 822.1 597.7, 823.5 599.5 Q 825.0 601.3, 827.9 601.3 Q 829.8 601.3, 832.1 600.2 L 832.8 602.0 Q 831.9 602.6, 830.5 603.0 Q 829.1 603.3, 827.5 603.3 Q 823.7 603.3, 821.6 601.0 Q 819.5 598.6, 819.5 594.2 " fill="#000000"/>
<path class="atom-11" d="M 836.4 601.1 L 840.2 601.1 L 840.2 587.9 L 836.0 589.2 L 835.4 587.7 L 840.8 585.3 L 842.6 585.6 L 842.6 601.1 L 846.1 601.1 L 846.1 603.1 L 836.4 603.1 L 836.4 601.1 " fill="#000000"/>
<path class="atom-11" d="M 848.4 588.8 Q 849.0 587.1, 850.6 586.2 Q 852.1 585.2, 854.3 585.2 Q 856.9 585.2, 858.4 586.7 Q 859.9 588.1, 859.9 590.7 Q 859.9 593.3, 858.0 595.8 Q 856.1 598.2, 852.1 601.1 L 860.2 601.1 L 860.2 603.1 L 848.3 603.1 L 848.3 601.4 Q 851.6 599.1, 853.6 597.3 Q 855.5 595.6, 856.5 594.0 Q 857.4 592.4, 857.4 590.8 Q 857.4 589.1, 856.6 588.2 Q 855.7 587.2, 854.3 587.2 Q 852.8 587.2, 851.9 587.8 Q 850.9 588.4, 850.3 589.6 L 848.4 588.8 " fill="#000000"/>
<path class="atom-12" d="M 327.7 555.6 Q 327.7 551.2, 329.8 548.9 Q 331.8 546.6, 335.8 546.6 Q 339.4 546.6, 341.4 549.2 L 339.7 550.5 Q 338.3 548.7, 335.8 548.7 Q 333.1 548.7, 331.7 550.5 Q 330.3 552.2, 330.3 555.6 Q 330.3 559.1, 331.7 560.9 Q 333.2 562.7, 336.0 562.7 Q 338.0 562.7, 340.3 561.6 L 341.0 563.4 Q 340.0 564.0, 338.6 564.4 Q 337.2 564.7, 335.7 564.7 Q 331.8 564.7, 329.8 562.4 Q 327.7 560.0, 327.7 555.6 " fill="#000000"/>
<path class="atom-12" d="M 344.5 562.5 L 348.4 562.5 L 348.4 549.3 L 344.1 550.6 L 343.6 549.1 L 349.0 546.7 L 350.8 547.0 L 350.8 562.5 L 354.2 562.5 L 354.2 564.5 L 344.5 564.5 L 344.5 562.5 " fill="#000000"/>
<path class="atom-12" d="M 365.0 555.2 Q 366.7 555.7, 367.5 556.8 Q 368.4 557.9, 368.4 559.7 Q 368.4 561.2, 367.6 562.3 Q 366.9 563.5, 365.5 564.1 Q 364.1 564.8, 362.3 564.8 Q 360.4 564.8, 359.0 564.1 Q 357.6 563.4, 356.5 562.1 L 357.9 560.6 Q 359.0 561.8, 359.9 562.3 Q 360.9 562.8, 362.3 562.8 Q 363.9 562.8, 364.9 561.9 Q 365.9 561.0, 365.9 559.6 Q 365.9 557.8, 364.9 557.0 Q 363.9 556.2, 361.7 556.2 L 360.4 556.2 L 360.4 554.4 L 361.5 554.4 Q 363.5 554.4, 364.5 553.6 Q 365.5 552.7, 365.5 551.1 Q 365.5 550.0, 364.7 549.3 Q 363.8 548.6, 362.4 548.6 Q 360.9 548.6, 360.0 549.1 Q 359.1 549.7, 358.4 551.0 L 356.6 550.1 Q 357.3 548.6, 358.8 547.6 Q 360.3 546.6, 362.4 546.6 Q 365.0 546.6, 366.5 547.8 Q 368.0 549.1, 368.0 551.1 Q 368.0 552.6, 367.2 553.6 Q 366.5 554.6, 365.0 555.2 " fill="#000000"/>
<path class="atom-13" d="M 295.4 454.9 Q 295.4 450.5, 297.5 448.2 Q 299.5 445.8, 303.5 445.8 Q 307.1 445.8, 309.1 448.4 L 307.4 449.8 Q 306.0 447.9, 303.5 447.9 Q 300.8 447.9, 299.4 449.7 Q 298.0 451.5, 298.0 454.9 Q 298.0 458.4, 299.4 460.2 Q 300.9 462.0, 303.7 462.0 Q 305.7 462.0, 308.0 460.8 L 308.7 462.7 Q 307.7 463.3, 306.3 463.6 Q 304.9 464.0, 303.4 464.0 Q 299.5 464.0, 297.5 461.6 Q 295.4 459.3, 295.4 454.9 " fill="#000000"/>
<path class="atom-13" d="M 312.3 461.7 L 316.2 461.7 L 316.2 448.5 L 311.9 449.8 L 311.3 448.4 L 316.7 445.9 L 318.5 446.2 L 318.5 461.7 L 322.0 461.7 L 322.0 463.7 L 312.3 463.7 L 312.3 461.7 " fill="#000000"/>
<path class="atom-13" d="M 335.8 457.7 L 337.9 457.7 L 337.9 459.7 L 335.8 459.7 L 335.8 463.7 L 333.5 463.7 L 333.5 459.7 L 324.3 459.7 L 324.3 458.1 L 332.1 446.0 L 335.8 446.0 L 335.8 457.7 M 327.2 457.7 L 333.5 457.7 L 333.5 447.6 L 327.2 457.7 " fill="#000000"/>
<path class="atom-14" d="M 383.9 367.8 Q 383.9 363.4, 385.9 361.1 Q 388.0 358.8, 391.9 358.8 Q 395.6 358.8, 397.5 361.3 L 395.9 362.7 Q 394.4 360.8, 391.9 360.8 Q 389.2 360.8, 387.8 362.6 Q 386.4 364.4, 386.4 367.8 Q 386.4 371.3, 387.9 373.1 Q 389.3 374.9, 392.2 374.9 Q 394.1 374.9, 396.4 373.7 L 397.1 375.6 Q 396.2 376.2, 394.8 376.5 Q 393.4 376.9, 391.8 376.9 Q 388.0 376.9, 385.9 374.5 Q 383.9 372.2, 383.9 367.8 " fill="#000000"/>
<path class="atom-14" d="M 400.7 374.7 L 404.6 374.7 L 404.6 361.4 L 400.3 362.8 L 399.7 361.3 L 405.2 358.9 L 406.9 359.2 L 406.9 374.7 L 410.4 374.7 L 410.4 376.7 L 400.7 376.7 L 400.7 374.7 " fill="#000000"/>
<path class="atom-14" d="M 419.1 365.6 Q 420.6 365.6, 421.9 366.3 Q 423.2 366.9, 423.9 368.2 Q 424.6 369.4, 424.6 371.1 Q 424.6 372.9, 423.7 374.2 Q 422.9 375.5, 421.4 376.2 Q 420.0 376.9, 418.3 376.9 Q 416.7 376.9, 415.2 376.3 Q 413.7 375.7, 412.7 374.5 L 414.2 373.0 Q 415.0 373.9, 416.1 374.4 Q 417.2 374.8, 418.4 374.8 Q 420.0 374.8, 421.0 373.9 Q 422.1 372.9, 422.1 371.1 Q 422.1 369.2, 421.0 368.4 Q 420.0 367.5, 418.2 367.5 Q 416.7 367.5, 415.0 368.1 L 413.6 367.5 L 414.4 359.0 L 423.5 359.0 L 423.3 361.0 L 416.5 361.0 L 416.0 366.2 Q 417.5 365.6, 419.1 365.6 " fill="#000000"/>
<path class="atom-15" d="M 489.2 359.7 Q 489.2 355.3, 491.2 353.0 Q 493.3 350.7, 497.2 350.7 Q 500.9 350.7, 502.8 353.2 L 501.2 354.6 Q 499.8 352.7, 497.2 352.7 Q 494.6 352.7, 493.1 354.5 Q 491.7 356.3, 491.7 359.7 Q 491.7 363.2, 493.2 365.0 Q 494.7 366.8, 497.5 366.8 Q 499.5 366.8, 501.7 365.6 L 502.4 367.5 Q 501.5 368.1, 500.1 368.4 Q 498.7 368.8, 497.2 368.8 Q 493.3 368.8, 491.2 366.4 Q 489.2 364.1, 489.2 359.7 " fill="#000000"/>
<path class="atom-15" d="M 506.0 366.6 L 509.9 366.6 L 509.9 353.3 L 505.6 354.7 L 505.1 353.2 L 510.5 350.8 L 512.3 351.1 L 512.3 366.6 L 515.7 366.6 L 515.7 368.6 L 506.0 368.6 L 506.0 366.6 " fill="#000000"/>
<path class="atom-15" d="M 524.9 357.5 Q 526.5 357.5, 527.7 358.2 Q 528.9 358.9, 529.6 360.1 Q 530.3 361.3, 530.3 362.9 Q 530.3 364.6, 529.5 365.9 Q 528.7 367.3, 527.4 368.0 Q 526.0 368.8, 524.3 368.8 Q 521.2 368.8, 519.6 366.6 Q 518.0 364.5, 518.0 360.2 Q 518.0 355.5, 519.9 353.1 Q 521.9 350.7, 525.7 350.7 Q 526.8 350.7, 527.7 350.9 Q 528.7 351.2, 529.6 351.7 L 528.6 353.4 Q 527.3 352.7, 525.7 352.7 Q 523.2 352.7, 521.9 354.3 Q 520.7 355.9, 520.5 359.2 Q 521.4 358.4, 522.5 358.0 Q 523.7 357.5, 524.9 357.5 M 524.3 366.7 Q 525.3 366.7, 526.1 366.2 Q 526.9 365.7, 527.3 364.8 Q 527.8 364.0, 527.8 362.9 Q 527.8 361.3, 526.9 360.4 Q 526.0 359.5, 524.5 359.5 Q 523.4 359.5, 522.3 360.0 Q 521.3 360.4, 520.5 361.1 Q 520.6 364.1, 521.5 365.4 Q 522.5 366.7, 524.3 366.7 " fill="#000000"/>
<path class="atom-16" d="M 533.1 437.1 Q 533.1 432.7, 535.1 430.4 Q 537.2 428.1, 541.1 428.1 Q 544.8 428.1, 546.7 430.7 L 545.1 432.0 Q 543.7 430.2, 541.1 430.2 Q 538.5 430.2, 537.0 432.0 Q 535.6 433.7, 535.6 437.1 Q 535.6 440.6, 537.1 442.4 Q 538.6 444.2, 541.4 444.2 Q 543.4 444.2, 545.6 443.1 L 546.3 444.9 Q 545.4 445.5, 544.0 445.9 Q 542.6 446.2, 541.1 446.2 Q 537.2 446.2, 535.1 443.9 Q 533.1 441.5, 533.1 437.1 " fill="#000000"/>
<path class="atom-16" d="M 549.9 444.0 L 553.8 444.0 L 553.8 430.8 L 549.5 432.1 L 548.9 430.6 L 554.4 428.2 L 556.1 428.5 L 556.1 444.0 L 559.6 444.0 L 559.6 446.0 L 549.9 446.0 L 549.9 444.0 " fill="#000000"/>
<path class="atom-16" d="M 571.1 430.3 L 561.9 430.3 L 561.9 428.3 L 573.6 428.3 L 573.6 430.1 L 566.5 446.0 L 564.1 446.0 L 571.1 430.3 " fill="#000000"/>
<path class="atom-17" d="M 476.5 255.3 Q 476.5 250.9, 478.5 248.6 Q 480.6 246.3, 484.5 246.3 Q 488.2 246.3, 490.1 248.9 L 488.5 250.2 Q 487.0 248.3, 484.5 248.3 Q 481.8 248.3, 480.4 250.1 Q 479.0 251.9, 479.0 255.3 Q 479.0 258.8, 480.5 260.6 Q 481.9 262.4, 484.8 262.4 Q 486.7 262.4, 489.0 261.2 L 489.7 263.1 Q 488.8 263.7, 487.4 264.1 Q 486.0 264.4, 484.4 264.4 Q 480.6 264.4, 478.5 262.1 Q 476.5 259.7, 476.5 255.3 " fill="#000000"/>
<path class="atom-17" d="M 493.3 262.2 L 497.2 262.2 L 497.2 249.0 L 492.9 250.3 L 492.3 248.8 L 497.8 246.4 L 499.5 246.7 L 499.5 262.2 L 503.0 262.2 L 503.0 264.2 L 493.3 264.2 L 493.3 262.2 " fill="#000000"/>
<path class="atom-17" d="M 514.3 254.8 Q 515.9 255.5, 516.9 256.6 Q 517.8 257.6, 517.8 259.3 Q 517.8 260.8, 517.0 262.0 Q 516.2 263.2, 514.8 263.8 Q 513.5 264.4, 511.6 264.4 Q 508.7 264.4, 507.0 263.1 Q 505.3 261.7, 505.3 259.3 Q 505.3 257.9, 506.0 256.8 Q 506.8 255.7, 508.3 254.9 Q 507.2 254.2, 506.6 253.3 Q 505.9 252.3, 505.9 250.8 Q 505.9 248.7, 507.4 247.5 Q 509.0 246.3, 511.5 246.3 Q 514.1 246.3, 515.6 247.5 Q 517.1 248.7, 517.1 250.8 Q 517.1 252.1, 516.4 253.1 Q 515.7 254.0, 514.3 254.8 M 511.5 248.2 Q 510.1 248.2, 509.2 248.9 Q 508.4 249.6, 508.4 250.8 Q 508.4 251.7, 509.0 252.4 Q 509.5 253.0, 510.3 253.3 Q 511.1 253.7, 512.6 254.2 Q 513.7 253.4, 514.2 252.6 Q 514.6 251.8, 514.6 250.8 Q 514.6 249.6, 513.8 248.9 Q 513.0 248.2, 511.5 248.2 M 511.6 262.6 Q 513.3 262.6, 514.3 261.7 Q 515.3 260.8, 515.3 259.3 Q 515.3 258.4, 514.8 257.8 Q 514.2 257.2, 513.4 256.8 Q 512.7 256.5, 511.3 256.0 L 510.1 255.6 Q 508.9 256.4, 508.3 257.3 Q 507.8 258.2, 507.8 259.3 Q 507.8 260.8, 508.8 261.7 Q 509.9 262.6, 511.6 262.6 " fill="#000000"/>
<path class="atom-18" d="M 666.2 429.1 Q 666.2 424.7, 668.2 422.4 Q 670.3 420.1, 674.2 420.1 Q 677.9 420.1, 679.8 422.7 L 678.2 424.0 Q 676.8 422.1, 674.2 422.1 Q 671.6 422.1, 670.1 423.9 Q 668.7 425.7, 668.7 429.1 Q 668.7 432.6, 670.2 434.4 Q 671.7 436.2, 674.5 436.2 Q 676.5 436.2, 678.7 435.0 L 679.4 436.9 Q 678.5 437.5, 677.1 437.9 Q 675.7 438.2, 674.2 438.2 Q 670.3 438.2, 668.2 435.9 Q 666.2 433.5, 666.2 429.1 " fill="#000000"/>
<path class="atom-18" d="M 683.0 436.0 L 686.9 436.0 L 686.9 422.8 L 682.6 424.1 L 682.1 422.6 L 687.5 420.2 L 689.3 420.5 L 689.3 436.0 L 692.7 436.0 L 692.7 438.0 L 683.0 438.0 L 683.0 436.0 " fill="#000000"/>
<path class="atom-18" d="M 701.0 420.1 Q 704.1 420.1, 705.7 422.2 Q 707.3 424.4, 707.3 428.6 Q 707.3 433.3, 705.3 435.8 Q 703.4 438.2, 699.6 438.2 Q 698.5 438.2, 697.5 437.9 Q 696.6 437.7, 695.7 437.2 L 696.7 435.5 Q 698.0 436.2, 699.6 436.2 Q 702.1 436.2, 703.3 434.6 Q 704.6 433.0, 704.8 429.6 Q 703.9 430.5, 702.7 430.9 Q 701.6 431.3, 700.4 431.3 Q 698.8 431.3, 697.6 430.7 Q 696.4 430.0, 695.7 428.8 Q 695.0 427.5, 695.0 426.0 Q 695.0 424.3, 695.8 422.9 Q 696.5 421.6, 697.9 420.8 Q 699.2 420.1, 701.0 420.1 M 697.5 426.0 Q 697.5 427.5, 698.4 428.4 Q 699.3 429.3, 700.8 429.3 Q 701.9 429.3, 702.9 428.9 Q 704.0 428.5, 704.8 427.7 Q 704.7 424.8, 703.7 423.5 Q 702.8 422.1, 700.9 422.1 Q 700.0 422.1, 699.2 422.6 Q 698.4 423.1, 698.0 424.0 Q 697.5 424.9, 697.5 426.0 " fill="#000000"/>
<path class="atom-19" d="M 725.6 342.1 Q 725.6 337.7, 727.6 335.4 Q 729.7 333.0, 733.6 333.0 Q 737.3 333.0, 739.2 335.6 L 737.6 337.0 Q 736.1 335.1, 733.6 335.1 Q 730.9 335.1, 729.5 336.9 Q 728.1 338.7, 728.1 342.1 Q 728.1 345.6, 729.6 347.4 Q 731.0 349.2, 733.9 349.2 Q 735.8 349.2, 738.1 348.0 L 738.8 349.9 Q 737.9 350.5, 736.5 350.8 Q 735.1 351.2, 733.5 351.2 Q 729.7 351.2, 727.6 348.8 Q 725.6 346.5, 725.6 342.1 " fill="#000000"/>
<path class="atom-19" d="M 741.6 336.6 Q 742.2 334.9, 743.8 334.0 Q 745.3 333.0, 747.5 333.0 Q 750.1 333.0, 751.6 334.5 Q 753.1 335.9, 753.1 338.5 Q 753.1 341.1, 751.2 343.6 Q 749.3 346.0, 745.3 348.9 L 753.4 348.9 L 753.4 350.9 L 741.5 350.9 L 741.5 349.3 Q 744.8 346.9, 746.8 345.2 Q 748.7 343.4, 749.7 341.8 Q 750.6 340.3, 750.6 338.6 Q 750.6 336.9, 749.8 336.0 Q 748.9 335.0, 747.5 335.0 Q 746.0 335.0, 745.1 335.6 Q 744.1 336.2, 743.5 337.5 L 741.6 336.6 " fill="#000000"/>
<path class="atom-19" d="M 762.7 351.1 Q 759.4 351.1, 757.8 348.7 Q 756.2 346.3, 756.2 342.1 Q 756.2 337.8, 757.8 335.4 Q 759.4 333.0, 762.7 333.0 Q 766.0 333.0, 767.6 335.4 Q 769.2 337.8, 769.2 342.1 Q 769.2 346.3, 767.5 348.7 Q 765.9 351.1, 762.7 351.1 M 762.7 349.1 Q 764.6 349.1, 765.6 347.4 Q 766.7 345.6, 766.7 342.1 Q 766.7 338.6, 765.6 336.8 Q 764.6 335.0, 762.7 335.0 Q 760.8 335.0, 759.7 336.8 Q 758.7 338.6, 758.7 342.1 Q 758.7 345.6, 759.7 347.4 Q 760.8 349.1, 762.7 349.1 " fill="#000000"/>
<path class="atom-20" d="M 582.5 202.7 Q 582.5 198.3, 584.5 196.0 Q 586.6 193.6, 590.5 193.6 Q 594.2 193.6, 596.1 196.2 L 594.5 197.6 Q 593.1 195.7, 590.5 195.7 Q 587.9 195.7, 586.4 197.5 Q 585.0 199.3, 585.0 202.7 Q 585.0 206.2, 586.5 208.0 Q 588.0 209.8, 590.8 209.8 Q 592.8 209.8, 595.0 208.6 L 595.7 210.5 Q 594.8 211.1, 593.4 211.4 Q 592.0 211.8, 590.5 211.8 Q 586.6 211.8, 584.5 209.4 Q 582.5 207.1, 582.5 202.7 " fill="#000000"/>
<path class="atom-20" d="M 598.4 197.2 Q 599.1 195.5, 600.6 194.6 Q 602.2 193.6, 604.3 193.6 Q 607.0 193.6, 608.5 195.1 Q 610.0 196.5, 610.0 199.1 Q 610.0 201.7, 608.0 204.2 Q 606.1 206.6, 602.1 209.5 L 610.3 209.5 L 610.3 211.5 L 598.4 211.5 L 598.4 209.9 Q 601.7 207.5, 603.6 205.8 Q 605.6 204.0, 606.5 202.4 Q 607.5 200.9, 607.5 199.2 Q 607.5 197.5, 606.6 196.6 Q 605.8 195.6, 604.3 195.6 Q 602.9 195.6, 601.9 196.2 Q 601.0 196.8, 600.3 198.1 L 598.4 197.2 " fill="#000000"/>
<path class="atom-20" d="M 614.0 209.5 L 617.8 209.5 L 617.8 196.3 L 613.6 197.6 L 613.0 196.2 L 618.4 193.7 L 620.2 194.0 L 620.2 209.5 L 623.7 209.5 L 623.7 211.5 L 614.0 211.5 L 614.0 209.5 " fill="#000000"/>
<path class="atom-21" d="M 664.9 241.0 Q 664.9 236.6, 666.9 234.3 Q 669.0 232.0, 672.9 232.0 Q 676.6 232.0, 678.5 234.6 L 676.9 235.9 Q 675.5 234.1, 672.9 234.1 Q 670.3 234.1, 668.8 235.9 Q 667.4 237.6, 667.4 241.0 Q 667.4 244.5, 668.9 246.3 Q 670.4 248.1, 673.2 248.1 Q 675.2 248.1, 677.4 247.0 L 678.1 248.8 Q 677.2 249.4, 675.8 249.8 Q 674.4 250.1, 672.9 250.1 Q 669.0 250.1, 666.9 247.8 Q 664.9 245.4, 664.9 241.0 " fill="#000000"/>
<path class="atom-21" d="M 680.8 235.6 Q 681.5 233.9, 683.0 233.0 Q 684.6 232.0, 686.7 232.0 Q 689.4 232.0, 690.9 233.5 Q 692.4 234.9, 692.4 237.5 Q 692.4 240.1, 690.5 242.6 Q 688.5 245.0, 684.5 247.9 L 692.7 247.9 L 692.7 249.9 L 680.8 249.9 L 680.8 248.2 Q 684.1 245.9, 686.0 244.1 Q 688.0 242.4, 689.0 240.8 Q 689.9 239.2, 689.9 237.6 Q 689.9 235.9, 689.1 235.0 Q 688.2 234.0, 686.7 234.0 Q 685.3 234.0, 684.4 234.6 Q 683.4 235.2, 682.7 236.4 L 680.8 235.6 " fill="#000000"/>
<path class="atom-21" d="M 695.5 235.6 Q 696.2 233.9, 697.7 233.0 Q 699.3 232.0, 701.4 232.0 Q 704.1 232.0, 705.6 233.5 Q 707.1 234.9, 707.1 237.5 Q 707.1 240.1, 705.1 242.6 Q 703.2 245.0, 699.2 247.9 L 707.4 247.9 L 707.4 249.9 L 695.5 249.9 L 695.5 248.2 Q 698.8 245.9, 700.7 244.1 Q 702.7 242.4, 703.6 240.8 Q 704.6 239.2, 704.6 237.6 Q 704.6 235.9, 703.7 235.0 Q 702.9 234.0, 701.4 234.0 Q 700.0 234.0, 699.0 234.6 Q 698.1 235.2, 697.4 236.4 L 695.5 235.6 " fill="#000000"/>
<path class="atom-22" d="M 587.0 97.3 Q 587.0 93.0, 589.1 90.7 Q 591.2 88.3, 595.1 88.3 Q 599.1 88.3, 601.2 90.7 Q 603.3 93.0, 603.3 97.3 Q 603.3 101.6, 601.1 104.0 Q 599.0 106.5, 595.1 106.5 Q 591.2 106.5, 589.1 104.0 Q 587.0 101.6, 587.0 97.3 M 595.1 104.5 Q 597.8 104.5, 599.3 102.7 Q 600.8 100.8, 600.8 97.3 Q 600.8 93.8, 599.3 92.1 Q 597.8 90.3, 595.1 90.3 Q 592.4 90.3, 591.0 92.0 Q 589.5 93.8, 589.5 97.3 Q 589.5 100.9, 591.0 102.7 Q 592.4 104.5, 595.1 104.5 " fill="#FF0000"/>
<path class="atom-22" d="M 605.9 91.8 Q 606.6 90.2, 608.1 89.2 Q 609.7 88.3, 611.8 88.3 Q 614.5 88.3, 616.0 89.7 Q 617.5 91.2, 617.5 93.8 Q 617.5 96.4, 615.5 98.8 Q 613.6 101.3, 609.6 104.2 L 617.8 104.2 L 617.8 106.2 L 605.9 106.2 L 605.9 104.5 Q 609.2 102.2, 611.1 100.4 Q 613.1 98.7, 614.0 97.1 Q 615.0 95.5, 615.0 93.9 Q 615.0 92.2, 614.1 91.2 Q 613.3 90.3, 611.8 90.3 Q 610.4 90.3, 609.4 90.9 Q 608.5 91.4, 607.8 92.7 L 605.9 91.8 " fill="#FF0000"/>
<path class="atom-22" d="M 629.1 96.9 Q 630.8 97.4, 631.7 98.5 Q 632.5 99.6, 632.5 101.3 Q 632.5 102.8, 631.8 104.0 Q 631.0 105.2, 629.6 105.8 Q 628.3 106.4, 626.5 106.4 Q 624.6 106.4, 623.1 105.8 Q 621.7 105.1, 620.6 103.8 L 622.0 102.3 Q 623.1 103.5, 624.1 104.0 Q 625.0 104.4, 626.5 104.4 Q 628.1 104.4, 629.0 103.6 Q 630.0 102.7, 630.0 101.3 Q 630.0 99.5, 629.0 98.7 Q 628.0 97.9, 625.8 97.9 L 624.5 97.9 L 624.5 96.1 L 625.7 96.1 Q 627.6 96.1, 628.6 95.2 Q 629.6 94.4, 629.6 92.8 Q 629.6 91.7, 628.8 91.0 Q 627.9 90.3, 626.5 90.3 Q 625.0 90.3, 624.1 90.8 Q 623.2 91.3, 622.5 92.7 L 620.8 91.7 Q 621.4 90.3, 622.9 89.3 Q 624.4 88.3, 626.5 88.3 Q 629.1 88.3, 630.6 89.5 Q 632.1 90.7, 632.1 92.8 Q 632.1 94.2, 631.4 95.3 Q 630.6 96.3, 629.1 96.9 " fill="#FF0000"/>
<path class="atom-23" d="M 770.6 169.3 Q 770.6 165.0, 772.7 162.6 Q 774.8 160.3, 778.7 160.3 Q 782.6 160.3, 784.7 162.6 Q 786.8 165.0, 786.8 169.3 Q 786.8 173.6, 784.7 176.0 Q 782.6 178.4, 778.7 178.4 Q 774.8 178.4, 772.7 176.0 Q 770.6 173.6, 770.6 169.3 M 778.7 176.4 Q 781.4 176.4, 782.8 174.6 Q 784.3 172.8, 784.3 169.3 Q 784.3 165.8, 782.8 164.0 Q 781.4 162.3, 778.7 162.3 Q 776.0 162.3, 774.5 164.0 Q 773.1 165.8, 773.1 169.3 Q 773.1 172.8, 774.5 174.6 Q 776.0 176.4, 778.7 176.4 " fill="#FF0000"/>
<path class="atom-23" d="M 789.5 163.8 Q 790.2 162.1, 791.7 161.2 Q 793.3 160.3, 795.4 160.3 Q 798.1 160.3, 799.6 161.7 Q 801.1 163.2, 801.1 165.7 Q 801.1 168.4, 799.1 170.8 Q 797.2 173.3, 793.2 176.2 L 801.4 176.2 L 801.4 178.2 L 789.5 178.2 L 789.5 176.5 Q 792.8 174.1, 794.7 172.4 Q 796.7 170.6, 797.6 169.1 Q 798.6 167.5, 798.6 165.9 Q 798.6 164.2, 797.7 163.2 Q 796.9 162.3, 795.4 162.3 Q 794.0 162.3, 793.0 162.8 Q 792.1 163.4, 791.4 164.7 L 789.5 163.8 " fill="#FF0000"/>
<path class="atom-23" d="M 815.8 172.1 L 817.9 172.1 L 817.9 174.1 L 815.8 174.1 L 815.8 178.2 L 813.4 178.2 L 813.4 174.1 L 804.3 174.1 L 804.3 172.5 L 812.0 160.5 L 815.8 160.5 L 815.8 172.1 M 807.2 172.1 L 813.4 172.1 L 813.4 162.1 L 807.2 172.1 " fill="#FF0000"/>
<path class="atom-24" d="M 748.3 66.4 Q 748.3 62.0, 750.4 59.7 Q 752.5 57.4, 756.4 57.4 Q 760.0 57.4, 762.0 60.0 L 760.3 61.3 Q 758.9 59.4, 756.4 59.4 Q 753.7 59.4, 752.3 61.2 Q 750.9 63.0, 750.9 66.4 Q 750.9 69.9, 752.3 71.7 Q 753.8 73.5, 756.7 73.5 Q 758.6 73.5, 760.9 72.3 L 761.6 74.2 Q 760.7 74.8, 759.3 75.2 Q 757.9 75.5, 756.3 75.5 Q 752.5 75.5, 750.4 73.2 Q 748.3 70.8, 748.3 66.4 " fill="#000000"/>
<path class="atom-24" d="M 764.3 60.9 Q 764.9 59.3, 766.5 58.3 Q 768.0 57.4, 770.2 57.4 Q 772.9 57.4, 774.4 58.8 Q 775.9 60.3, 775.9 62.9 Q 775.9 65.5, 773.9 67.9 Q 772.0 70.4, 768.0 73.3 L 776.2 73.3 L 776.2 75.3 L 764.2 75.3 L 764.2 73.6 Q 767.5 71.3, 769.5 69.5 Q 771.5 67.8, 772.4 66.2 Q 773.4 64.6, 773.4 63.0 Q 773.4 61.3, 772.5 60.3 Q 771.7 59.4, 770.2 59.4 Q 768.8 59.4, 767.8 60.0 Q 766.9 60.5, 766.2 61.8 L 764.3 60.9 " fill="#000000"/>
<path class="atom-24" d="M 785.3 64.2 Q 786.9 64.2, 788.2 64.9 Q 789.4 65.5, 790.2 66.8 Q 790.9 68.0, 790.9 69.7 Q 790.9 71.5, 790.0 72.8 Q 789.1 74.1, 787.7 74.8 Q 786.2 75.5, 784.6 75.5 Q 782.9 75.5, 781.4 74.9 Q 779.9 74.3, 778.9 73.1 L 780.4 71.6 Q 781.2 72.5, 782.4 73.0 Q 783.5 73.5, 784.6 73.5 Q 786.2 73.5, 787.3 72.5 Q 788.4 71.5, 788.4 69.7 Q 788.4 67.9, 787.3 67.0 Q 786.2 66.1, 784.5 66.1 Q 782.9 66.1, 781.2 66.8 L 779.8 66.1 L 780.7 57.6 L 789.8 57.6 L 789.5 59.6 L 782.7 59.6 L 782.2 64.8 Q 783.8 64.2, 785.3 64.2 " fill="#000000"/>
<path class="atom-25" d="M 333.9 267.5 L 339.7 276.9 Q 340.3 277.8, 341.2 279.5 Q 342.2 281.1, 342.2 281.2 L 342.2 267.5 L 344.6 267.5 L 344.6 285.2 L 342.1 285.2 L 335.9 274.9 Q 335.2 273.7, 334.4 272.4 Q 333.7 271.0, 333.4 270.6 L 333.4 285.2 L 331.1 285.2 L 331.1 267.5 L 333.9 267.5 " fill="#0000FF"/>
<path class="atom-25" d="M 347.9 270.8 Q 348.6 269.2, 350.1 268.2 Q 351.7 267.3, 353.8 267.3 Q 356.5 267.3, 358.0 268.7 Q 359.5 270.2, 359.5 272.8 Q 359.5 275.4, 357.6 277.8 Q 355.6 280.3, 351.6 283.2 L 359.8 283.2 L 359.8 285.2 L 347.9 285.2 L 347.9 283.5 Q 351.2 281.2, 353.1 279.4 Q 355.1 277.7, 356.1 276.1 Q 357.0 274.5, 357.0 272.9 Q 357.0 271.2, 356.2 270.2 Q 355.3 269.3, 353.8 269.3 Q 352.4 269.3, 351.5 269.9 Q 350.5 270.4, 349.8 271.7 L 347.9 270.8 " fill="#0000FF"/>
<path class="atom-25" d="M 369.5 274.1 Q 371.1 274.1, 372.3 274.8 Q 373.5 275.5, 374.2 276.7 Q 374.9 277.9, 374.9 279.5 Q 374.9 281.2, 374.1 282.6 Q 373.3 283.9, 372.0 284.6 Q 370.6 285.4, 368.9 285.4 Q 365.8 285.4, 364.2 283.3 Q 362.6 281.1, 362.6 276.9 Q 362.6 272.2, 364.5 269.7 Q 366.5 267.3, 370.3 267.3 Q 371.4 267.3, 372.3 267.5 Q 373.3 267.8, 374.2 268.3 L 373.2 270.0 Q 371.9 269.3, 370.3 269.3 Q 367.8 269.3, 366.5 270.9 Q 365.3 272.5, 365.1 275.8 Q 366.0 275.0, 367.1 274.6 Q 368.3 274.1, 369.5 274.1 M 368.9 283.3 Q 369.9 283.3, 370.7 282.8 Q 371.5 282.3, 371.9 281.5 Q 372.4 280.6, 372.4 279.5 Q 372.4 277.9, 371.5 277.0 Q 370.6 276.1, 369.1 276.1 Q 368.0 276.1, 366.9 276.6 Q 365.9 277.0, 365.1 277.8 Q 365.2 280.7, 366.1 282.0 Q 367.1 283.3, 368.9 283.3 " fill="#0000FF"/>
<path class="atom-26" d="M 211.1 276.3 Q 211.1 271.9, 213.2 269.6 Q 215.3 267.3, 219.2 267.3 Q 222.8 267.3, 224.8 269.9 L 223.1 271.2 Q 221.7 269.3, 219.2 269.3 Q 216.5 269.3, 215.1 271.1 Q 213.7 272.9, 213.7 276.3 Q 213.7 279.8, 215.1 281.6 Q 216.6 283.4, 219.5 283.4 Q 221.4 283.4, 223.7 282.2 L 224.4 284.1 Q 223.5 284.7, 222.1 285.1 Q 220.7 285.4, 219.1 285.4 Q 215.3 285.4, 213.2 283.1 Q 211.1 280.7, 211.1 276.3 " fill="#000000"/>
<path class="atom-26" d="M 227.1 270.8 Q 227.7 269.2, 229.3 268.2 Q 230.8 267.3, 233.0 267.3 Q 235.7 267.3, 237.2 268.7 Q 238.7 270.2, 238.7 272.8 Q 238.7 275.4, 236.7 277.8 Q 234.8 280.3, 230.8 283.2 L 239.0 283.2 L 239.0 285.2 L 227.0 285.2 L 227.0 283.5 Q 230.3 281.2, 232.3 279.4 Q 234.3 277.7, 235.2 276.1 Q 236.2 274.5, 236.2 272.9 Q 236.2 271.2, 235.3 270.2 Q 234.5 269.3, 233.0 269.3 Q 231.6 269.3, 230.6 269.9 Q 229.7 270.4, 229.0 271.7 L 227.1 270.8 " fill="#000000"/>
<path class="atom-26" d="M 251.0 269.5 L 241.7 269.5 L 241.7 267.5 L 253.5 267.5 L 253.5 269.3 L 246.3 285.2 L 243.9 285.2 L 251.0 269.5 " fill="#000000"/>
<path class="atom-27" d="M 142.7 367.7 Q 142.7 363.3, 144.7 361.0 Q 146.8 358.7, 150.7 358.7 Q 154.4 358.7, 156.3 361.3 L 154.7 362.6 Q 153.3 360.8, 150.7 360.8 Q 148.1 360.8, 146.6 362.6 Q 145.2 364.3, 145.2 367.7 Q 145.2 371.2, 146.7 373.0 Q 148.2 374.8, 151.0 374.8 Q 153.0 374.8, 155.2 373.7 L 155.9 375.5 Q 155.0 376.1, 153.6 376.5 Q 152.2 376.8, 150.7 376.8 Q 146.8 376.8, 144.7 374.5 Q 142.7 372.1, 142.7 367.7 " fill="#000000"/>
<path class="atom-27" d="M 158.7 362.3 Q 159.3 360.6, 160.9 359.7 Q 162.4 358.7, 164.6 358.7 Q 167.2 358.7, 168.7 360.2 Q 170.2 361.6, 170.2 364.2 Q 170.2 366.8, 168.3 369.3 Q 166.4 371.7, 162.4 374.6 L 170.5 374.6 L 170.5 376.6 L 158.6 376.6 L 158.6 374.9 Q 161.9 372.6, 163.9 370.8 Q 165.8 369.1, 166.8 367.5 Q 167.7 365.9, 167.7 364.3 Q 167.7 362.6, 166.9 361.7 Q 166.0 360.7, 164.6 360.7 Q 163.1 360.7, 162.2 361.3 Q 161.2 361.9, 160.6 363.1 L 158.7 362.3 " fill="#000000"/>
<path class="atom-27" d="M 182.3 367.2 Q 184.0 367.9, 184.9 369.0 Q 185.8 370.0, 185.8 371.8 Q 185.8 373.3, 185.0 374.4 Q 184.3 375.6, 182.9 376.2 Q 181.5 376.9, 179.7 376.9 Q 176.7 376.9, 175.0 375.5 Q 173.3 374.1, 173.3 371.8 Q 173.3 370.3, 174.1 369.2 Q 174.8 368.1, 176.4 367.3 Q 175.2 366.7, 174.6 365.7 Q 174.0 364.7, 174.0 363.2 Q 174.0 361.2, 175.5 359.9 Q 177.0 358.7, 179.6 358.7 Q 182.1 358.7, 183.6 359.9 Q 185.2 361.2, 185.2 363.2 Q 185.2 364.5, 184.4 365.5 Q 183.7 366.5, 182.3 367.2 M 179.6 360.6 Q 178.1 360.6, 177.3 361.3 Q 176.5 362.0, 176.5 363.2 Q 176.5 364.2, 177.0 364.8 Q 177.6 365.4, 178.3 365.7 Q 179.1 366.1, 180.7 366.6 Q 181.7 365.9, 182.2 365.1 Q 182.7 364.3, 182.7 363.2 Q 182.7 362.0, 181.8 361.3 Q 181.0 360.6, 179.6 360.6 M 179.7 375.0 Q 181.3 375.0, 182.3 374.1 Q 183.3 373.2, 183.3 371.7 Q 183.3 370.8, 182.8 370.2 Q 182.3 369.6, 181.5 369.2 Q 180.7 368.9, 179.3 368.4 L 178.2 368.1 Q 176.9 368.8, 176.4 369.7 Q 175.8 370.6, 175.8 371.7 Q 175.8 373.2, 176.9 374.1 Q 177.9 375.0, 179.7 375.0 " fill="#000000"/>
<path class="atom-28" d="M 139.8 184.9 Q 139.8 180.7, 141.9 178.3 Q 144.0 175.9, 147.9 175.9 Q 151.8 175.9, 153.9 178.3 Q 156.0 180.7, 156.0 184.9 Q 156.0 189.2, 153.9 191.7 Q 151.8 194.1, 147.9 194.1 Q 144.0 194.1, 141.9 191.7 Q 139.8 189.2, 139.8 184.9 M 147.9 192.1 Q 150.6 192.1, 152.0 190.3 Q 153.5 188.5, 153.5 184.9 Q 153.5 181.4, 152.0 179.7 Q 150.6 177.9, 147.9 177.9 Q 145.2 177.9, 143.7 179.7 Q 142.3 181.4, 142.3 184.9 Q 142.3 188.5, 143.7 190.3 Q 145.2 192.1, 147.9 192.1 " fill="#FF0000"/>
<path class="atom-28" d="M 158.6 179.5 Q 159.3 177.8, 160.8 176.9 Q 162.4 175.9, 164.5 175.9 Q 167.2 175.9, 168.7 177.4 Q 170.2 178.8, 170.2 181.4 Q 170.2 184.0, 168.3 186.5 Q 166.3 188.9, 162.3 191.8 L 170.5 191.8 L 170.5 193.8 L 158.6 193.8 L 158.6 192.1 Q 161.9 189.8, 163.8 188.0 Q 165.8 186.3, 166.8 184.7 Q 167.7 183.1, 167.7 181.5 Q 167.7 179.8, 166.9 178.9 Q 166.0 177.9, 164.5 177.9 Q 163.1 177.9, 162.2 178.5 Q 161.2 179.1, 160.5 180.3 L 158.6 179.5 " fill="#FF0000"/>
<path class="atom-28" d="M 179.3 175.9 Q 182.5 175.9, 184.0 178.1 Q 185.6 180.2, 185.6 184.4 Q 185.6 189.1, 183.7 191.6 Q 181.7 194.0, 177.9 194.0 Q 176.8 194.0, 175.9 193.8 Q 175.0 193.5, 174.1 193.0 L 175.0 191.3 Q 176.3 192.0, 177.9 192.0 Q 180.4 192.0, 181.7 190.4 Q 183.0 188.8, 183.1 185.5 Q 182.2 186.3, 181.1 186.7 Q 179.9 187.2, 178.7 187.2 Q 177.2 187.2, 175.9 186.5 Q 174.7 185.8, 174.0 184.6 Q 173.4 183.4, 173.4 181.8 Q 173.4 180.1, 174.1 178.8 Q 174.9 177.4, 176.2 176.7 Q 177.6 175.9, 179.3 175.9 M 175.9 181.8 Q 175.9 183.4, 176.7 184.3 Q 177.6 185.2, 179.2 185.2 Q 180.2 185.2, 181.3 184.7 Q 182.4 184.3, 183.1 183.5 Q 183.0 180.6, 182.1 179.3 Q 181.2 178.0, 179.3 178.0 Q 178.3 178.0, 177.5 178.5 Q 176.8 179.0, 176.3 179.8 Q 175.9 180.7, 175.9 181.8 " fill="#FF0000"/>
<text x="1000" y="50" font-size="8" font-family="Verdana" font-weight="normal" letter-spacing="0" text-anchor="start" fill="black">Highlighted Atoms:
Primary SOM: Red
Secondary SOM: Green
Tertiary SOM: Cyan
</text></svg>
