<?xml version='1.0' encoding='ASCII' standalone='yes'?>
<svg xmlns="http://www.w3.org/2000/svg" xmlns:rdkit="http://www.rdkit.org/xml" xmlns:xlink="http://www.w3.org/1999/xlink" style="background-color: white;" version="1.1" baseProfile="full" xml:space="preserve" width="1000px" height="1000px" viewBox="0 0 1000 1000">
<!-- END OF HEADER -->
<rect style="opacity:1.0;fill:#FFFFFF;stroke:none" width="1000.0" height="1000.0" x="0.0" y="0.0"> </rect>
<ellipse cx="290.0" cy="474.0" rx="30.8" ry="28.8" class="atom-19" style="fill:#B20000;fill-rule:evenodd;stroke:#B20000;stroke-width:1.0px;stroke-linecap:butt;stroke-linejoin:miter;stroke-opacity:1"/>
<path class="bond-0 atom-1 atom-0" d="M 647.0,477.3 L 694.8,498.7" style="fill:none;fill-rule:evenodd;stroke:#000000;stroke-width:2.0px;stroke-linecap:butt;stroke-linejoin:miter;stroke-opacity:1"/>
<path class="bond-1 atom-2 atom-1" d="M 564.2,430.5 L 617.2,461.2" style="fill:none;fill-rule:evenodd;stroke:#000000;stroke-width:2.0px;stroke-linecap:butt;stroke-linejoin:miter;stroke-opacity:1"/>
<path class="bond-2 atom-3 atom-1" d="M 695.7,421.3 L 647.0,465.1" style="fill:none;fill-rule:evenodd;stroke:#000000;stroke-width:2.0px;stroke-linecap:butt;stroke-linejoin:miter;stroke-opacity:1"/>
<path class="bond-3 atom-4 atom-1" d="M 638.4,556.4 L 638.0,485.3" style="fill:none;fill-rule:evenodd;stroke:#000000;stroke-width:2.0px;stroke-linecap:butt;stroke-linejoin:miter;stroke-opacity:1"/>
<path class="bond-4 atom-5 atom-2" d="M 493.1,461.3 L 534.0,437.5" style="fill:none;fill-rule:evenodd;stroke:#000000;stroke-width:2.0px;stroke-linecap:butt;stroke-linejoin:miter;stroke-opacity:1"/>
<path class="bond-5 atom-6 atom-2" d="M 572.6,343.6 L 557.7,413.2" style="fill:none;fill-rule:evenodd;stroke:#000000;stroke-width:2.0px;stroke-linecap:butt;stroke-linejoin:miter;stroke-opacity:1"/>
<path class="bond-6 atom-7 atom-3" d="M 762.9,478.1 L 718.7,421.1" style="fill:none;fill-rule:evenodd;stroke:#000000;stroke-width:2.0px;stroke-linecap:butt;stroke-linejoin:miter;stroke-opacity:1"/>
<path class="bond-7 atom-8 atom-3" d="M 780.9,366.9 L 750.1,385.1" style="fill:none;fill-rule:evenodd;stroke:#FF0000;stroke-width:2.0px;stroke-linecap:butt;stroke-linejoin:miter;stroke-opacity:1"/>
<path class="bond-7 atom-8 atom-3" d="M 750.1,385.1 L 719.3,403.2" style="fill:none;fill-rule:evenodd;stroke:#000000;stroke-width:2.0px;stroke-linecap:butt;stroke-linejoin:miter;stroke-opacity:1"/>
<path class="bond-8 atom-9 atom-3" d="M 676.1,333.7 L 704.2,397.2" style="fill:none;fill-rule:evenodd;stroke:#000000;stroke-width:2.0px;stroke-linecap:butt;stroke-linejoin:miter;stroke-opacity:1"/>
<path class="bond-9 atom-9 atom-6" d="M 660.7,322.5 L 584.1,330.6" style="fill:none;fill-rule:evenodd;stroke:#000000;stroke-width:2.0px;stroke-linecap:butt;stroke-linejoin:miter;stroke-opacity:1"/>
<path class="bond-10 atom-10 atom-4" d="M 564.6,611.5 L 628.5,574.2" style="fill:none;fill-rule:evenodd;stroke:#000000;stroke-width:2.0px;stroke-linecap:butt;stroke-linejoin:miter;stroke-opacity:1"/>
<path class="bond-11 atom-11 atom-5" d="M 472.4,557.2 L 472.4,485.6" style="fill:none;fill-rule:evenodd;stroke:#000000;stroke-width:2.0px;stroke-linecap:butt;stroke-linejoin:miter;stroke-opacity:1"/>
<path class="bond-12 atom-11 atom-10" d="M 493.7,581.2 L 534.8,604.4" style="fill:none;fill-rule:evenodd;stroke:#000000;stroke-width:2.0px;stroke-linecap:butt;stroke-linejoin:miter;stroke-opacity:1"/>
<path class="bond-13 atom-12 atom-5" d="M 410.5,437.9 L 462.5,467.6" style="fill:none;fill-rule:evenodd;stroke:#000000;stroke-width:2.0px;stroke-linecap:butt;stroke-linejoin:miter;stroke-opacity:1"/>
<path class="bond-14 atom-13 atom-7" d="M 740.4,566.7 L 767.1,502.4" style="fill:none;fill-rule:evenodd;stroke:#000000;stroke-width:2.0px;stroke-linecap:butt;stroke-linejoin:miter;stroke-opacity:1"/>
<path class="bond-15 atom-14 atom-7" d="M 854.9,486.0 L 826.4,489.8" style="fill:none;fill-rule:evenodd;stroke:#FF0000;stroke-width:2.0px;stroke-linecap:butt;stroke-linejoin:miter;stroke-opacity:1"/>
<path class="bond-15 atom-14 atom-7" d="M 826.4,489.8 L 797.9,493.7" style="fill:none;fill-rule:evenodd;stroke:#000000;stroke-width:2.0px;stroke-linecap:butt;stroke-linejoin:miter;stroke-opacity:1"/>
<path class="bond-15 atom-14 atom-7" d="M 853.0,472.0 L 824.5,475.9" style="fill:none;fill-rule:evenodd;stroke:#FF0000;stroke-width:2.0px;stroke-linecap:butt;stroke-linejoin:miter;stroke-opacity:1"/>
<path class="bond-15 atom-14 atom-7" d="M 824.5,475.9 L 796.0,479.8" style="fill:none;fill-rule:evenodd;stroke:#000000;stroke-width:2.0px;stroke-linecap:butt;stroke-linejoin:miter;stroke-opacity:1"/>
<path class="bond-16 atom-15 atom-9" d="M 711.5,250.7 L 677.6,309.4" style="fill:none;fill-rule:evenodd;stroke:#000000;stroke-width:2.0px;stroke-linecap:butt;stroke-linejoin:miter;stroke-opacity:1"/>
<path class="bond-17 atom-16 atom-10" d="M 574.6,698.0 L 566.8,663.3" style="fill:none;fill-rule:evenodd;stroke:#FF0000;stroke-width:2.0px;stroke-linecap:butt;stroke-linejoin:miter;stroke-opacity:1"/>
<path class="bond-17 atom-16 atom-10" d="M 566.8,663.3 L 558.9,628.5" style="fill:none;fill-rule:evenodd;stroke:#000000;stroke-width:2.0px;stroke-linecap:butt;stroke-linejoin:miter;stroke-opacity:1"/>
<path class="bond-18 atom-17 atom-11" d="M 478.5,609.0 L 476.3,595.1" style="fill:none;fill-rule:evenodd;stroke:#33CCCC;stroke-width:2.0px;stroke-linecap:butt;stroke-linejoin:miter;stroke-opacity:1"/>
<path class="bond-18 atom-17 atom-11" d="M 476.3,595.1 L 474.2,581.2" style="fill:none;fill-rule:evenodd;stroke:#000000;stroke-width:2.0px;stroke-linecap:butt;stroke-linejoin:miter;stroke-opacity:1"/>
<path class="bond-19 atom-18 atom-11" d="M 397.3,612.9 L 451.3,581.4" style="fill:none;fill-rule:evenodd;stroke:#000000;stroke-width:2.0px;stroke-linecap:butt;stroke-linejoin:miter;stroke-opacity:1"/>
<path class="bond-20 atom-19 atom-12" d="M 314.9,468.4 L 367.7,437.9" style="fill:none;fill-rule:evenodd;stroke:#000000;stroke-width:2.0px;stroke-linecap:butt;stroke-linejoin:miter;stroke-opacity:1"/>
<path class="bond-21 atom-20 atom-13" d="M 780.1,642.4 L 762.0,616.5" style="fill:none;fill-rule:evenodd;stroke:#FF0000;stroke-width:2.0px;stroke-linecap:butt;stroke-linejoin:miter;stroke-opacity:1"/>
<path class="bond-21 atom-20 atom-13" d="M 762.0,616.5 L 743.9,590.6" style="fill:none;fill-rule:evenodd;stroke:#000000;stroke-width:2.0px;stroke-linecap:butt;stroke-linejoin:miter;stroke-opacity:1"/>
<path class="bond-22 atom-21 atom-18" d="M 442.8,678.0 L 397.3,628.3" style="fill:none;fill-rule:evenodd;stroke:#000000;stroke-width:2.0px;stroke-linecap:butt;stroke-linejoin:miter;stroke-opacity:1"/>
<path class="bond-23 atom-22 atom-18" d="M 326.5,582.5 L 367.3,606.2" style="fill:none;fill-rule:evenodd;stroke:#000000;stroke-width:2.0px;stroke-linecap:butt;stroke-linejoin:miter;stroke-opacity:1"/>
<path class="bond-24 atom-22 atom-19" d="M 305.3,558.2 L 305.4,486.2" style="fill:none;fill-rule:evenodd;stroke:#000000;stroke-width:2.0px;stroke-linecap:butt;stroke-linejoin:miter;stroke-opacity:1"/>
<path class="bond-25 atom-23 atom-18" d="M 387.9,701.8 L 388.0,630.5" style="fill:none;fill-rule:evenodd;stroke:#000000;stroke-width:2.0px;stroke-linecap:butt;stroke-linejoin:miter;stroke-opacity:1"/>
<path class="bond-26 atom-24 atom-22" d="M 231.5,612.7 L 284.0,582.5" style="fill:none;fill-rule:evenodd;stroke:#000000;stroke-width:2.0px;stroke-linecap:butt;stroke-linejoin:miter;stroke-opacity:1"/>
<path class="bond-26 atom-24 atom-22" d="M 238.5,624.9 L 291.0,594.7" style="fill:none;fill-rule:evenodd;stroke:#000000;stroke-width:2.0px;stroke-linecap:butt;stroke-linejoin:miter;stroke-opacity:1"/>
<path class="bond-27 atom-25 atom-23" d="M 325.9,749.3 L 377.9,719.5" style="fill:none;fill-rule:evenodd;stroke:#000000;stroke-width:2.0px;stroke-linecap:butt;stroke-linejoin:miter;stroke-opacity:1"/>
<path class="bond-27 atom-25 atom-23" d="M 318.9,737.1 L 370.9,707.3" style="fill:none;fill-rule:evenodd;stroke:#000000;stroke-width:2.0px;stroke-linecap:butt;stroke-linejoin:miter;stroke-opacity:1"/>
<path class="bond-28 atom-26 atom-24" d="M 222.2,701.4 L 222.4,630.2" style="fill:none;fill-rule:evenodd;stroke:#000000;stroke-width:2.0px;stroke-linecap:butt;stroke-linejoin:miter;stroke-opacity:1"/>
<path class="bond-29 atom-26 atom-25" d="M 243.0,725.5 L 284.1,749.3" style="fill:none;fill-rule:evenodd;stroke:#000000;stroke-width:2.0px;stroke-linecap:butt;stroke-linejoin:miter;stroke-opacity:1"/>
<path class="bond-30 atom-27 atom-26" d="M 144.9,749.8 L 176.8,731.4" style="fill:none;fill-rule:evenodd;stroke:#FF0000;stroke-width:2.0px;stroke-linecap:butt;stroke-linejoin:miter;stroke-opacity:1"/>
<path class="bond-30 atom-27 atom-26" d="M 176.8,731.4 L 208.7,713.1" style="fill:none;fill-rule:evenodd;stroke:#000000;stroke-width:2.0px;stroke-linecap:butt;stroke-linejoin:miter;stroke-opacity:1"/>
<path class="bond-30 atom-27 atom-26" d="M 151.9,762.0 L 183.8,743.6" style="fill:none;fill-rule:evenodd;stroke:#FF0000;stroke-width:2.0px;stroke-linecap:butt;stroke-linejoin:miter;stroke-opacity:1"/>
<path class="bond-30 atom-27 atom-26" d="M 183.8,743.6 L 215.7,725.3" style="fill:none;fill-rule:evenodd;stroke:#000000;stroke-width:2.0px;stroke-linecap:butt;stroke-linejoin:miter;stroke-opacity:1"/>
<path class="atom-0" d="M 697.9 503.2 Q 697.9 498.8, 699.9 496.5 Q 702.0 494.1, 705.9 494.1 Q 709.6 494.1, 711.5 496.7 L 709.9 498.1 Q 708.4 496.2, 705.9 496.2 Q 703.2 496.2, 701.8 498.0 Q 700.4 499.8, 700.4 503.2 Q 700.4 506.7, 701.9 508.5 Q 703.3 510.3, 706.2 510.3 Q 708.1 510.3, 710.4 509.1 L 711.1 511.0 Q 710.2 511.6, 708.8 511.9 Q 707.4 512.3, 705.8 512.3 Q 702.0 512.3, 699.9 509.9 Q 697.9 507.6, 697.9 503.2 " fill="#000000"/>
<path class="atom-0" d="M 714.7 510.0 L 718.6 510.0 L 718.6 496.8 L 714.3 498.1 L 713.7 496.7 L 719.2 494.2 L 720.9 494.5 L 720.9 510.0 L 724.4 510.0 L 724.4 512.0 L 714.7 512.0 L 714.7 510.0 " fill="#000000"/>
<path class="atom-1" d="M 616.1 473.4 Q 616.1 469.0, 618.1 466.7 Q 620.2 464.3, 624.1 464.3 Q 627.8 464.3, 629.7 466.9 L 628.1 468.3 Q 626.6 466.4, 624.1 466.4 Q 621.4 466.4, 620.0 468.2 Q 618.6 470.0, 618.6 473.4 Q 618.6 476.9, 620.1 478.7 Q 621.5 480.5, 624.4 480.5 Q 626.3 480.5, 628.6 479.3 L 629.3 481.2 Q 628.4 481.8, 627.0 482.1 Q 625.6 482.5, 624.0 482.5 Q 620.2 482.5, 618.1 480.1 Q 616.1 477.8, 616.1 473.4 " fill="#000000"/>
<path class="atom-1" d="M 632.0 467.9 Q 632.7 466.2, 634.2 465.3 Q 635.8 464.3, 637.9 464.3 Q 640.6 464.3, 642.1 465.8 Q 643.6 467.2, 643.6 469.8 Q 643.6 472.4, 641.7 474.9 Q 639.7 477.3, 635.7 480.2 L 643.9 480.2 L 643.9 482.2 L 632.0 482.2 L 632.0 480.6 Q 635.3 478.2, 637.2 476.5 Q 639.2 474.7, 640.2 473.1 Q 641.1 471.6, 641.1 469.9 Q 641.1 468.2, 640.3 467.3 Q 639.4 466.3, 637.9 466.3 Q 636.5 466.3, 635.6 466.9 Q 634.6 467.5, 633.9 468.8 L 632.0 467.9 " fill="#000000"/>
<path class="atom-2" d="M 533.3 425.3 Q 533.3 420.9, 535.3 418.6 Q 537.4 416.3, 541.3 416.3 Q 545.0 416.3, 546.9 418.8 L 545.3 420.2 Q 543.8 418.3, 541.3 418.3 Q 538.6 418.3, 537.2 420.1 Q 535.8 421.9, 535.8 425.3 Q 535.8 428.8, 537.3 430.6 Q 538.7 432.4, 541.6 432.4 Q 543.5 432.4, 545.8 431.2 L 546.5 433.1 Q 545.6 433.7, 544.2 434.0 Q 542.8 434.4, 541.2 434.4 Q 537.4 434.4, 535.3 432.0 Q 533.3 429.7, 533.3 425.3 " fill="#000000"/>
<path class="atom-2" d="M 557.7 424.8 Q 559.4 425.3, 560.2 426.5 Q 561.1 427.6, 561.1 429.3 Q 561.1 430.8, 560.3 432.0 Q 559.6 433.1, 558.2 433.8 Q 556.8 434.4, 555.0 434.4 Q 553.1 434.4, 551.7 433.8 Q 550.3 433.1, 549.2 431.7 L 550.6 430.3 Q 551.7 431.5, 552.6 432.0 Q 553.6 432.4, 555.0 432.4 Q 556.6 432.4, 557.6 431.6 Q 558.6 430.7, 558.6 429.3 Q 558.6 427.5, 557.6 426.7 Q 556.6 425.9, 554.4 425.9 L 553.1 425.9 L 553.1 424.1 L 554.2 424.1 Q 556.2 424.0, 557.2 423.2 Q 558.2 422.4, 558.2 420.8 Q 558.2 419.6, 557.4 419.0 Q 556.5 418.3, 555.1 418.3 Q 553.6 418.3, 552.7 418.8 Q 551.8 419.3, 551.1 420.6 L 549.3 419.7 Q 550.0 418.2, 551.5 417.3 Q 553.0 416.3, 555.1 416.3 Q 557.7 416.3, 559.2 417.5 Q 560.7 418.7, 560.7 420.8 Q 560.7 422.2, 559.9 423.2 Q 559.2 424.3, 557.7 424.8 " fill="#000000"/>
<path class="atom-3" d="M 686.6 409.2 Q 686.6 404.8, 688.6 402.5 Q 690.7 400.1, 694.6 400.1 Q 698.3 400.1, 700.2 402.7 L 698.6 404.1 Q 697.1 402.2, 694.6 402.2 Q 691.9 402.2, 690.5 404.0 Q 689.1 405.8, 689.1 409.2 Q 689.1 412.7, 690.6 414.5 Q 692.0 416.3, 694.9 416.3 Q 696.8 416.3, 699.1 415.1 L 699.8 417.0 Q 698.9 417.6, 697.5 417.9 Q 696.1 418.3, 694.5 418.3 Q 690.7 418.3, 688.6 415.9 Q 686.6 413.6, 686.6 409.2 " fill="#000000"/>
<path class="atom-3" d="M 714.1 412.0 L 716.2 412.0 L 716.2 414.0 L 714.1 414.0 L 714.1 418.0 L 711.7 418.0 L 711.7 414.0 L 702.6 414.0 L 702.6 412.4 L 710.3 400.3 L 714.1 400.3 L 714.1 412.0 M 705.5 412.0 L 711.7 412.0 L 711.7 401.9 L 705.5 412.0 " fill="#000000"/>
<path class="atom-4" d="M 631.6 568.5 Q 631.6 564.1, 633.6 561.8 Q 635.7 559.5, 639.6 559.5 Q 643.3 559.5, 645.2 562.1 L 643.6 563.4 Q 642.2 561.6, 639.6 561.6 Q 637.0 561.6, 635.5 563.4 Q 634.1 565.1, 634.1 568.5 Q 634.1 572.0, 635.6 573.8 Q 637.1 575.6, 639.9 575.6 Q 641.9 575.6, 644.1 574.5 L 644.8 576.3 Q 643.9 576.9, 642.5 577.3 Q 641.1 577.6, 639.6 577.6 Q 635.7 577.6, 633.6 575.3 Q 631.6 572.9, 631.6 568.5 " fill="#000000"/>
<path class="atom-4" d="M 653.9 566.3 Q 655.5 566.3, 656.8 567.0 Q 658.0 567.7, 658.8 568.9 Q 659.5 570.1, 659.5 571.8 Q 659.5 573.6, 658.6 575.0 Q 657.7 576.3, 656.3 576.9 Q 654.8 577.6, 653.2 577.6 Q 651.5 577.6, 650.0 577.0 Q 648.5 576.4, 647.5 575.3 L 649.0 573.7 Q 649.8 574.6, 651.0 575.1 Q 652.1 575.6, 653.2 575.6 Q 654.8 575.6, 655.9 574.6 Q 657.0 573.6, 657.0 571.9 Q 657.0 570.0, 655.9 569.1 Q 654.8 568.2, 653.1 568.2 Q 651.5 568.2, 649.8 568.9 L 648.4 568.2 L 649.3 559.7 L 658.4 559.7 L 658.1 561.7 L 651.3 561.7 L 650.8 567.0 Q 652.4 566.3, 653.9 566.3 " fill="#000000"/>
<path class="atom-5" d="M 465.6 473.4 Q 465.6 469.0, 467.7 466.7 Q 469.7 464.4, 473.7 464.4 Q 477.3 464.4, 479.3 466.9 L 477.6 468.3 Q 476.2 466.4, 473.7 466.4 Q 471.0 466.4, 469.6 468.2 Q 468.2 470.0, 468.2 473.4 Q 468.2 476.9, 469.6 478.7 Q 471.1 480.5, 473.9 480.5 Q 475.9 480.5, 478.2 479.3 L 478.9 481.2 Q 477.9 481.8, 476.5 482.1 Q 475.1 482.5, 473.6 482.5 Q 469.7 482.5, 467.7 480.1 Q 465.6 477.8, 465.6 473.4 " fill="#000000"/>
<path class="atom-5" d="M 488.5 471.2 Q 490.0 471.2, 491.3 471.9 Q 492.5 472.6, 493.2 473.8 Q 493.8 475.0, 493.8 476.6 Q 493.8 478.3, 493.1 479.6 Q 492.3 481.0, 491.0 481.7 Q 489.6 482.5, 487.9 482.5 Q 484.7 482.5, 483.1 480.3 Q 481.6 478.2, 481.6 473.9 Q 481.6 469.2, 483.5 466.8 Q 485.5 464.4, 489.3 464.4 Q 490.4 464.4, 491.3 464.6 Q 492.2 464.9, 493.1 465.4 L 492.2 467.1 Q 490.9 466.4, 489.3 466.4 Q 486.8 466.4, 485.5 468.0 Q 484.2 469.6, 484.1 472.9 Q 485.0 472.1, 486.1 471.7 Q 487.3 471.2, 488.5 471.2 M 487.9 480.4 Q 488.9 480.4, 489.6 479.9 Q 490.4 479.4, 490.9 478.5 Q 491.3 477.7, 491.3 476.6 Q 491.3 475.0, 490.5 474.1 Q 489.6 473.2, 488.0 473.2 Q 487.0 473.2, 485.9 473.7 Q 484.8 474.1, 484.1 474.8 Q 484.2 477.8, 485.1 479.1 Q 486.0 480.4, 487.9 480.4 " fill="#000000"/>
<path class="atom-6" d="M 553.3 331.6 Q 553.3 327.2, 555.4 324.9 Q 557.5 322.6, 561.4 322.6 Q 565.0 322.6, 567.0 325.2 L 565.3 326.5 Q 563.9 324.6, 561.4 324.6 Q 558.7 324.6, 557.3 326.4 Q 555.9 328.2, 555.9 331.6 Q 555.9 335.1, 557.3 336.9 Q 558.8 338.7, 561.7 338.7 Q 563.6 338.7, 565.9 337.5 L 566.6 339.4 Q 565.7 340.0, 564.3 340.4 Q 562.9 340.7, 561.3 340.7 Q 557.5 340.7, 555.4 338.4 Q 553.3 336.0, 553.3 331.6 " fill="#000000"/>
<path class="atom-6" d="M 578.5 324.8 L 569.3 324.8 L 569.3 322.8 L 581.0 322.8 L 581.0 324.6 L 573.9 340.5 L 571.5 340.5 L 578.5 324.8 " fill="#000000"/>
<path class="atom-7" d="M 765.4 490.2 Q 765.4 485.8, 767.4 483.5 Q 769.5 481.2, 773.4 481.2 Q 777.1 481.2, 779.0 483.8 L 777.4 485.1 Q 775.9 483.2, 773.4 483.2 Q 770.7 483.2, 769.3 485.0 Q 767.9 486.8, 767.9 490.2 Q 767.9 493.7, 769.4 495.5 Q 770.8 497.3, 773.7 497.3 Q 775.6 497.3, 777.9 496.1 L 778.6 498.0 Q 777.7 498.6, 776.3 499.0 Q 774.9 499.3, 773.3 499.3 Q 769.5 499.3, 767.4 497.0 Q 765.4 494.6, 765.4 490.2 " fill="#000000"/>
<path class="atom-7" d="M 790.3 489.7 Q 792.0 490.4, 792.9 491.5 Q 793.8 492.5, 793.8 494.2 Q 793.8 495.7, 793.0 496.9 Q 792.3 498.1, 790.9 498.7 Q 789.5 499.3, 787.7 499.3 Q 784.7 499.3, 783.0 498.0 Q 781.3 496.6, 781.3 494.2 Q 781.3 492.8, 782.1 491.7 Q 782.8 490.6, 784.4 489.8 Q 783.2 489.1, 782.6 488.2 Q 782.0 487.2, 782.0 485.7 Q 782.0 483.6, 783.5 482.4 Q 785.0 481.2, 787.6 481.2 Q 790.1 481.2, 791.6 482.4 Q 793.2 483.6, 793.2 485.7 Q 793.2 487.0, 792.4 488.0 Q 791.7 488.9, 790.3 489.7 M 787.6 483.1 Q 786.1 483.1, 785.3 483.8 Q 784.5 484.5, 784.5 485.7 Q 784.5 486.6, 785.0 487.3 Q 785.6 487.9, 786.3 488.2 Q 787.1 488.6, 788.7 489.1 Q 789.7 488.3, 790.2 487.5 Q 790.7 486.7, 790.7 485.7 Q 790.7 484.5, 789.8 483.8 Q 789.0 483.1, 787.6 483.1 M 787.7 497.5 Q 789.3 497.5, 790.3 496.6 Q 791.3 495.7, 791.3 494.2 Q 791.3 493.3, 790.8 492.7 Q 790.3 492.1, 789.5 491.7 Q 788.7 491.4, 787.3 490.9 L 786.2 490.5 Q 784.9 491.3, 784.4 492.2 Q 783.8 493.1, 783.8 494.2 Q 783.8 495.7, 784.9 496.6 Q 785.9 497.5, 787.7 497.5 " fill="#000000"/>
<path class="atom-8" d="M 784.0 360.4 Q 784.0 356.1, 786.1 353.8 Q 788.2 351.4, 792.1 351.4 Q 796.0 351.4, 798.1 353.8 Q 800.2 356.1, 800.2 360.4 Q 800.2 364.7, 798.1 367.1 Q 796.0 369.6, 792.1 369.6 Q 788.2 369.6, 786.1 367.1 Q 784.0 364.7, 784.0 360.4 M 792.1 367.6 Q 794.8 367.6, 796.3 365.8 Q 797.7 363.9, 797.7 360.4 Q 797.7 356.9, 796.3 355.2 Q 794.8 353.4, 792.1 353.4 Q 789.4 353.4, 787.9 355.1 Q 786.5 356.9, 786.5 360.4 Q 786.5 364.0, 787.9 365.8 Q 789.4 367.6, 792.1 367.6 " fill="#FF0000"/>
<path class="atom-8" d="M 808.9 351.4 Q 812.0 351.4, 813.6 353.5 Q 815.2 355.7, 815.2 359.9 Q 815.2 364.6, 813.2 367.1 Q 811.3 369.5, 807.5 369.5 Q 806.4 369.5, 805.4 369.2 Q 804.5 369.0, 803.6 368.5 L 804.6 366.8 Q 805.9 367.5, 807.5 367.5 Q 810.0 367.5, 811.2 365.9 Q 812.5 364.3, 812.7 360.9 Q 811.8 361.8, 810.6 362.2 Q 809.5 362.6, 808.3 362.6 Q 806.7 362.6, 805.5 362.0 Q 804.3 361.3, 803.6 360.1 Q 802.9 358.8, 802.9 357.3 Q 802.9 355.6, 803.7 354.2 Q 804.4 352.9, 805.8 352.1 Q 807.1 351.4, 808.9 351.4 M 805.4 357.3 Q 805.4 358.8, 806.3 359.7 Q 807.2 360.6, 808.7 360.6 Q 809.8 360.6, 810.8 360.2 Q 811.9 359.8, 812.7 359.0 Q 812.6 356.1, 811.6 354.8 Q 810.7 353.4, 808.8 353.4 Q 807.9 353.4, 807.1 353.9 Q 806.3 354.4, 805.9 355.3 Q 805.4 356.2, 805.4 357.3 " fill="#FF0000"/>
<path class="atom-9" d="M 663.8 321.5 Q 663.8 317.1, 665.9 314.8 Q 667.9 312.5, 671.9 312.5 Q 675.5 312.5, 677.5 315.0 L 675.8 316.4 Q 674.4 314.5, 671.9 314.5 Q 669.2 314.5, 667.8 316.3 Q 666.4 318.1, 666.4 321.5 Q 666.4 325.0, 667.8 326.8 Q 669.3 328.6, 672.1 328.6 Q 674.1 328.6, 676.4 327.4 L 677.1 329.3 Q 676.1 329.9, 674.7 330.2 Q 673.3 330.6, 671.8 330.6 Q 667.9 330.6, 665.9 328.2 Q 663.8 325.9, 663.8 321.5 " fill="#000000"/>
<path class="atom-9" d="M 680.7 328.4 L 684.5 328.4 L 684.5 315.1 L 680.3 316.5 L 679.7 315.0 L 685.1 312.6 L 686.9 312.9 L 686.9 328.4 L 690.4 328.4 L 690.4 330.4 L 680.7 330.4 L 680.7 328.4 " fill="#000000"/>
<path class="atom-9" d="M 699.1 330.6 Q 695.9 330.6, 694.3 328.2 Q 692.7 325.8, 692.7 321.5 Q 692.7 317.2, 694.3 314.8 Q 695.9 312.5, 699.1 312.5 Q 702.4 312.5, 704.0 314.8 Q 705.6 317.2, 705.6 321.5 Q 705.6 325.8, 704.0 328.2 Q 702.4 330.6, 699.1 330.6 M 699.1 328.6 Q 701.1 328.6, 702.1 326.8 Q 703.1 325.0, 703.1 321.5 Q 703.1 318.0, 702.1 316.2 Q 701.1 314.5, 699.1 314.5 Q 697.2 314.5, 696.2 316.2 Q 695.2 318.0, 695.2 321.5 Q 695.2 325.0, 696.2 326.8 Q 697.2 328.6, 699.1 328.6 " fill="#000000"/>
<path class="atom-10" d="M 522.1 616.5 Q 522.1 612.1, 524.2 609.8 Q 526.2 607.5, 530.2 607.5 Q 533.8 607.5, 535.8 610.1 L 534.1 611.4 Q 532.7 609.5, 530.2 609.5 Q 527.5 609.5, 526.1 611.3 Q 524.7 613.1, 524.7 616.5 Q 524.7 620.0, 526.1 621.8 Q 527.6 623.6, 530.4 623.6 Q 532.4 623.6, 534.7 622.4 L 535.4 624.3 Q 534.4 624.9, 533.0 625.3 Q 531.6 625.6, 530.1 625.6 Q 526.2 625.6, 524.2 623.3 Q 522.1 620.9, 522.1 616.5 " fill="#000000"/>
<path class="atom-10" d="M 538.9 623.4 L 542.8 623.4 L 542.8 610.2 L 538.5 611.5 L 537.9 610.0 L 543.3 607.6 L 545.1 607.9 L 545.1 623.4 L 548.6 623.4 L 548.6 625.4 L 538.9 625.4 L 538.9 623.4 " fill="#000000"/>
<path class="atom-10" d="M 551.8 623.4 L 555.7 623.4 L 555.7 610.2 L 551.4 611.5 L 550.8 610.0 L 556.2 607.6 L 558.0 607.9 L 558.0 623.4 L 561.5 623.4 L 561.5 625.4 L 551.8 625.4 L 551.8 623.4 " fill="#000000"/>
<path class="atom-11" d="M 452.0 569.2 Q 452.0 564.8, 454.1 562.5 Q 456.2 560.2, 460.1 560.2 Q 463.7 560.2, 465.7 562.8 L 464.0 564.1 Q 462.6 562.3, 460.1 562.3 Q 457.4 562.3, 456.0 564.1 Q 454.6 565.8, 454.6 569.2 Q 454.6 572.7, 456.0 574.5 Q 457.5 576.3, 460.4 576.3 Q 462.3 576.3, 464.6 575.2 L 465.3 577.0 Q 464.4 577.6, 463.0 578.0 Q 461.6 578.3, 460.0 578.3 Q 456.2 578.3, 454.1 576.0 Q 452.0 573.6, 452.0 569.2 " fill="#000000"/>
<path class="atom-11" d="M 468.9 576.1 L 472.7 576.1 L 472.7 562.9 L 468.5 564.2 L 467.9 562.7 L 473.3 560.3 L 475.1 560.6 L 475.1 576.1 L 478.6 576.1 L 478.6 578.1 L 468.9 578.1 L 468.9 576.1 " fill="#000000"/>
<path class="atom-11" d="M 480.9 563.8 Q 481.5 562.1, 483.1 561.2 Q 484.6 560.2, 486.8 560.2 Q 489.5 560.2, 491.0 561.7 Q 492.5 563.1, 492.5 565.7 Q 492.5 568.3, 490.5 570.8 Q 488.6 573.2, 484.6 576.1 L 492.8 576.1 L 492.8 578.1 L 480.8 578.1 L 480.8 576.4 Q 484.1 574.1, 486.1 572.3 Q 488.1 570.6, 489.0 569.0 Q 490.0 567.4, 490.0 565.8 Q 490.0 564.1, 489.1 563.2 Q 488.3 562.2, 486.8 562.2 Q 485.4 562.2, 484.4 562.8 Q 483.5 563.4, 482.8 564.6 L 480.9 563.8 " fill="#000000"/>
<path class="atom-12" d="M 368.6 425.7 Q 368.6 421.3, 370.7 419.0 Q 372.7 416.7, 376.7 416.7 Q 380.3 416.7, 382.3 419.2 L 380.6 420.6 Q 379.2 418.7, 376.7 418.7 Q 374.0 418.7, 372.6 420.5 Q 371.2 422.3, 371.2 425.7 Q 371.2 429.2, 372.6 431.0 Q 374.1 432.8, 376.9 432.8 Q 378.9 432.8, 381.2 431.6 L 381.9 433.5 Q 380.9 434.1, 379.5 434.4 Q 378.1 434.8, 376.6 434.8 Q 372.7 434.8, 370.7 432.4 Q 368.6 430.1, 368.6 425.7 " fill="#000000"/>
<path class="atom-12" d="M 385.4 432.6 L 389.3 432.6 L 389.3 419.3 L 385.0 420.7 L 384.5 419.2 L 389.9 416.8 L 391.7 417.1 L 391.7 432.6 L 395.1 432.6 L 395.1 434.6 L 385.4 434.6 L 385.4 432.6 " fill="#000000"/>
<path class="atom-12" d="M 405.9 425.2 Q 407.6 425.7, 408.5 426.9 Q 409.3 428.0, 409.3 429.7 Q 409.3 431.2, 408.6 432.4 Q 407.8 433.5, 406.4 434.2 Q 405.1 434.8, 403.3 434.8 Q 401.4 434.8, 399.9 434.2 Q 398.5 433.5, 397.4 432.1 L 398.8 430.7 Q 399.9 431.9, 400.9 432.4 Q 401.8 432.8, 403.3 432.8 Q 404.9 432.8, 405.8 432.0 Q 406.8 431.1, 406.8 429.7 Q 406.8 427.9, 405.8 427.1 Q 404.8 426.3, 402.6 426.3 L 401.3 426.3 L 401.3 424.5 L 402.5 424.5 Q 404.4 424.4, 405.4 423.6 Q 406.4 422.8, 406.4 421.2 Q 406.4 420.0, 405.6 419.4 Q 404.7 418.7, 403.3 418.7 Q 401.8 418.7, 400.9 419.2 Q 400.0 419.7, 399.3 421.0 L 397.6 420.1 Q 398.2 418.6, 399.7 417.7 Q 401.2 416.7, 403.3 416.7 Q 405.9 416.7, 407.4 417.9 Q 408.9 419.1, 408.9 421.2 Q 408.9 422.6, 408.2 423.6 Q 407.4 424.7, 405.9 425.2 " fill="#000000"/>
<path class="atom-13" d="M 699.8 578.6 Q 699.8 574.2, 701.8 571.9 Q 703.9 569.6, 707.8 569.6 Q 711.5 569.6, 713.4 572.2 L 711.8 573.5 Q 710.3 571.7, 707.8 571.7 Q 705.1 571.7, 703.7 573.5 Q 702.3 575.2, 702.3 578.6 Q 702.3 582.1, 703.8 583.9 Q 705.2 585.7, 708.1 585.7 Q 710.0 585.7, 712.3 584.6 L 713.0 586.4 Q 712.1 587.0, 710.7 587.4 Q 709.3 587.7, 707.7 587.7 Q 703.9 587.7, 701.8 585.4 Q 699.8 583.0, 699.8 578.6 " fill="#000000"/>
<path class="atom-13" d="M 716.6 585.5 L 720.5 585.5 L 720.5 572.3 L 716.2 573.6 L 715.7 572.1 L 721.1 569.7 L 722.9 570.0 L 722.9 585.5 L 726.3 585.5 L 726.3 587.5 L 716.6 587.5 L 716.6 585.5 " fill="#000000"/>
<path class="atom-13" d="M 740.2 581.4 L 742.3 581.4 L 742.3 583.4 L 740.2 583.4 L 740.2 587.5 L 737.8 587.5 L 737.8 583.4 L 728.7 583.4 L 728.7 581.9 L 736.4 569.8 L 740.2 569.8 L 740.2 581.4 M 731.6 581.4 L 737.8 581.4 L 737.8 571.4 L 731.6 581.4 " fill="#000000"/>
<path class="atom-14" d="M 857.0 477.5 Q 857.0 473.3, 859.1 470.9 Q 861.2 468.5, 865.1 468.5 Q 869.1 468.5, 871.2 470.9 Q 873.3 473.3, 873.3 477.5 Q 873.3 481.8, 871.1 484.3 Q 869.0 486.7, 865.1 486.7 Q 861.2 486.7, 859.1 484.3 Q 857.0 481.8, 857.0 477.5 M 865.1 484.7 Q 867.8 484.7, 869.3 482.9 Q 870.8 481.1, 870.8 477.5 Q 870.8 474.0, 869.3 472.3 Q 867.8 470.5, 865.1 470.5 Q 862.4 470.5, 861.0 472.3 Q 859.5 474.0, 859.5 477.5 Q 859.5 481.1, 861.0 482.9 Q 862.4 484.7, 865.1 484.7 " fill="#FF0000"/>
<path class="atom-14" d="M 876.8 484.4 L 880.7 484.4 L 880.7 471.2 L 876.4 472.5 L 875.8 471.0 L 881.2 468.6 L 883.0 468.9 L 883.0 484.4 L 886.5 484.4 L 886.5 486.4 L 876.8 486.4 L 876.8 484.4 " fill="#FF0000"/>
<path class="atom-14" d="M 895.3 475.3 Q 896.8 475.3, 898.1 476.0 Q 899.4 476.7, 900.1 477.9 Q 900.8 479.1, 900.8 480.8 Q 900.8 482.6, 899.9 484.0 Q 899.0 485.3, 897.6 485.9 Q 896.1 486.6, 894.5 486.6 Q 892.9 486.6, 891.4 486.0 Q 889.9 485.4, 888.8 484.3 L 890.3 482.7 Q 891.2 483.6, 892.3 484.1 Q 893.4 484.6, 894.6 484.6 Q 896.1 484.6, 897.2 483.6 Q 898.3 482.6, 898.3 480.9 Q 898.3 479.0, 897.2 478.1 Q 896.1 477.2, 894.4 477.2 Q 892.9 477.2, 891.1 477.9 L 889.8 477.2 L 890.6 468.7 L 899.7 468.7 L 899.5 470.7 L 892.7 470.7 L 892.1 476.0 Q 893.7 475.3, 895.3 475.3 " fill="#FF0000"/>
<path class="atom-15" d="M 711.8 238.5 Q 711.8 234.1, 713.8 231.8 Q 715.9 229.5, 719.8 229.5 Q 723.5 229.5, 725.4 232.1 L 723.8 233.4 Q 722.4 231.5, 719.8 231.5 Q 717.2 231.5, 715.7 233.3 Q 714.3 235.1, 714.3 238.5 Q 714.3 242.0, 715.8 243.8 Q 717.3 245.6, 720.1 245.6 Q 722.1 245.6, 724.3 244.4 L 725.0 246.3 Q 724.1 246.9, 722.7 247.3 Q 721.3 247.6, 719.8 247.6 Q 715.9 247.6, 713.8 245.3 Q 711.8 242.9, 711.8 238.5 " fill="#000000"/>
<path class="atom-15" d="M 728.6 245.4 L 732.5 245.4 L 732.5 232.2 L 728.2 233.5 L 727.7 232.0 L 733.1 229.6 L 734.9 229.9 L 734.9 245.4 L 738.3 245.4 L 738.3 247.4 L 728.6 247.4 L 728.6 245.4 " fill="#000000"/>
<path class="atom-15" d="M 747.5 236.3 Q 749.1 236.3, 750.3 237.0 Q 751.5 237.7, 752.2 238.9 Q 752.9 240.1, 752.9 241.7 Q 752.9 243.4, 752.1 244.8 Q 751.3 246.1, 750.0 246.8 Q 748.6 247.6, 746.9 247.6 Q 743.8 247.6, 742.2 245.5 Q 740.6 243.3, 740.6 239.1 Q 740.6 234.4, 742.5 231.9 Q 744.5 229.5, 748.3 229.5 Q 749.4 229.5, 750.3 229.7 Q 751.3 230.0, 752.2 230.5 L 751.2 232.2 Q 749.9 231.5, 748.3 231.5 Q 745.8 231.5, 744.5 233.1 Q 743.3 234.7, 743.1 238.0 Q 744.0 237.2, 745.1 236.8 Q 746.3 236.3, 747.5 236.3 M 746.9 245.5 Q 747.9 245.5, 748.7 245.0 Q 749.5 244.5, 749.9 243.7 Q 750.4 242.8, 750.4 241.7 Q 750.4 240.1, 749.5 239.2 Q 748.6 238.3, 747.1 238.3 Q 746.0 238.3, 744.9 238.8 Q 743.9 239.2, 743.1 240.0 Q 743.2 242.9, 744.1 244.2 Q 745.1 245.5, 746.9 245.5 " fill="#000000"/>
<path class="atom-16" d="M 569.2 710.1 Q 569.2 705.9, 571.3 703.5 Q 573.4 701.1, 577.4 701.1 Q 581.3 701.1, 583.4 703.5 Q 585.5 705.9, 585.5 710.1 Q 585.5 714.4, 583.4 716.9 Q 581.2 719.3, 577.4 719.3 Q 573.5 719.3, 571.3 716.9 Q 569.2 714.4, 569.2 710.1 M 577.4 717.3 Q 580.1 717.3, 581.5 715.5 Q 583.0 713.7, 583.0 710.1 Q 583.0 706.6, 581.5 704.9 Q 580.1 703.1, 577.4 703.1 Q 574.7 703.1, 573.2 704.9 Q 571.7 706.6, 571.7 710.1 Q 571.7 713.7, 573.2 715.5 Q 574.7 717.3, 577.4 717.3 " fill="#FF0000"/>
<path class="atom-16" d="M 589.0 717.0 L 592.9 717.0 L 592.9 703.8 L 588.6 705.1 L 588.0 703.6 L 593.5 701.2 L 595.2 701.5 L 595.2 717.0 L 598.7 717.0 L 598.7 719.0 L 589.0 719.0 L 589.0 717.0 " fill="#FF0000"/>
<path class="atom-16" d="M 610.3 703.3 L 601.0 703.3 L 601.0 701.3 L 612.8 701.3 L 612.8 703.1 L 605.6 719.0 L 603.2 719.0 L 610.3 703.3 " fill="#FF0000"/>
<path class="atom-17" d="M 475.0 612.0 L 485.5 612.0 L 485.5 614.1 L 477.4 614.1 L 477.4 619.4 L 484.6 619.4 L 484.6 621.5 L 477.4 621.5 L 477.4 629.7 L 475.0 629.7 L 475.0 612.0 " fill="#33CCCC"/>
<path class="atom-17" d="M 488.2 627.7 L 492.0 627.7 L 492.0 614.5 L 487.8 615.8 L 487.2 614.4 L 492.6 611.9 L 494.4 612.2 L 494.4 627.7 L 497.9 627.7 L 497.9 629.7 L 488.2 629.7 L 488.2 627.7 " fill="#33CCCC"/>
<path class="atom-17" d="M 509.1 620.4 Q 510.7 621.1, 511.6 622.1 Q 512.5 623.1, 512.5 624.9 Q 512.5 626.4, 511.8 627.6 Q 511.0 628.7, 509.6 629.4 Q 508.2 630.0, 506.4 630.0 Q 503.4 630.0, 501.7 628.6 Q 500.0 627.3, 500.0 624.9 Q 500.0 623.4, 500.8 622.4 Q 501.5 621.3, 503.1 620.4 Q 501.9 619.8, 501.3 618.8 Q 500.7 617.9, 500.7 616.4 Q 500.7 614.3, 502.2 613.1 Q 503.7 611.8, 506.3 611.8 Q 508.9 611.8, 510.4 613.1 Q 511.9 614.3, 511.9 616.4 Q 511.9 617.7, 511.2 618.6 Q 510.5 619.6, 509.1 620.4 M 506.3 613.7 Q 504.8 613.7, 504.0 614.4 Q 503.2 615.1, 503.2 616.4 Q 503.2 617.3, 503.7 617.9 Q 504.3 618.5, 505.1 618.9 Q 505.9 619.2, 507.4 619.7 Q 508.5 619.0, 508.9 618.2 Q 509.4 617.4, 509.4 616.4 Q 509.4 615.1, 508.6 614.4 Q 507.8 613.7, 506.3 613.7 M 506.4 628.1 Q 508.0 628.1, 509.0 627.2 Q 510.0 626.3, 510.0 624.9 Q 510.0 623.9, 509.5 623.3 Q 509.0 622.7, 508.2 622.4 Q 507.4 622.0, 506.0 621.6 L 504.9 621.2 Q 503.6 621.9, 503.1 622.8 Q 502.5 623.7, 502.5 624.9 Q 502.5 626.3, 503.6 627.2 Q 504.6 628.1, 506.4 628.1 " fill="#33CCCC"/>
<path class="atom-18" d="M 353.1 618.3 Q 353.1 613.9, 355.1 611.6 Q 357.2 609.3, 361.1 609.3 Q 364.8 609.3, 366.7 611.9 L 365.1 613.2 Q 363.6 611.3, 361.1 611.3 Q 358.4 611.3, 357.0 613.1 Q 355.6 614.9, 355.6 618.3 Q 355.6 621.8, 357.1 623.6 Q 358.5 625.4, 361.4 625.4 Q 363.3 625.4, 365.6 624.2 L 366.3 626.1 Q 365.4 626.7, 364.0 627.1 Q 362.6 627.4, 361.0 627.4 Q 357.2 627.4, 355.1 625.1 Q 353.1 622.7, 353.1 618.3 " fill="#000000"/>
<path class="atom-18" d="M 369.9 625.2 L 373.8 625.2 L 373.8 612.0 L 369.5 613.3 L 368.9 611.8 L 374.4 609.4 L 376.1 609.7 L 376.1 625.2 L 379.6 625.2 L 379.6 627.2 L 369.9 627.2 L 369.9 625.2 " fill="#000000"/>
<path class="atom-18" d="M 387.8 609.3 Q 391.0 609.3, 392.6 611.4 Q 394.2 613.6, 394.2 617.8 Q 394.2 622.5, 392.2 625.0 Q 390.2 627.4, 386.5 627.4 Q 385.4 627.4, 384.4 627.1 Q 383.5 626.9, 382.6 626.4 L 383.6 624.7 Q 384.9 625.4, 386.4 625.4 Q 388.9 625.4, 390.2 623.8 Q 391.5 622.2, 391.6 618.8 Q 390.7 619.7, 389.6 620.1 Q 388.5 620.5, 387.2 620.5 Q 385.7 620.5, 384.5 619.9 Q 383.2 619.2, 382.6 618.0 Q 381.9 616.7, 381.9 615.2 Q 381.9 613.5, 382.6 612.1 Q 383.4 610.8, 384.8 610.0 Q 386.1 609.3, 387.8 609.3 M 384.4 615.2 Q 384.4 616.7, 385.3 617.6 Q 386.1 618.5, 387.7 618.5 Q 388.8 618.5, 389.8 618.1 Q 390.9 617.7, 391.6 616.9 Q 391.5 614.0, 390.6 612.7 Q 389.7 611.3, 387.8 611.3 Q 386.9 611.3, 386.1 611.8 Q 385.3 612.3, 384.8 613.2 Q 384.4 614.1, 384.4 615.2 " fill="#000000"/>
<path class="atom-19" d="M 268.3 474.0 Q 268.3 469.6, 270.3 467.3 Q 272.4 465.0, 276.3 465.0 Q 280.0 465.0, 281.9 467.5 L 280.3 468.9 Q 278.8 467.0, 276.3 467.0 Q 273.6 467.0, 272.2 468.8 Q 270.8 470.6, 270.8 474.0 Q 270.8 477.5, 272.3 479.3 Q 273.7 481.1, 276.6 481.1 Q 278.5 481.1, 280.8 479.9 L 281.5 481.8 Q 280.6 482.4, 279.2 482.7 Q 277.8 483.1, 276.2 483.1 Q 272.4 483.1, 270.3 480.7 Q 268.3 478.4, 268.3 474.0 " fill="#000000"/>
<path class="atom-19" d="M 284.2 468.5 Q 284.9 466.8, 286.4 465.9 Q 288.0 465.0, 290.1 465.0 Q 292.8 465.0, 294.3 466.4 Q 295.8 467.9, 295.8 470.4 Q 295.8 473.1, 293.9 475.5 Q 291.9 478.0, 287.9 480.9 L 296.1 480.9 L 296.1 482.9 L 284.2 482.9 L 284.2 481.2 Q 287.5 478.8, 289.4 477.1 Q 291.4 475.3, 292.4 473.8 Q 293.3 472.2, 293.3 470.6 Q 293.3 468.9, 292.5 467.9 Q 291.6 467.0, 290.1 467.0 Q 288.7 467.0, 287.8 467.5 Q 286.8 468.1, 286.1 469.4 L 284.2 468.5 " fill="#000000"/>
<path class="atom-19" d="M 305.4 483.1 Q 302.1 483.1, 300.5 480.7 Q 298.9 478.3, 298.9 474.0 Q 298.9 469.7, 300.5 467.3 Q 302.1 465.0, 305.4 465.0 Q 308.6 465.0, 310.2 467.3 Q 311.8 469.7, 311.8 474.0 Q 311.8 478.3, 310.2 480.7 Q 308.6 483.1, 305.4 483.1 M 305.4 481.1 Q 307.3 481.1, 308.3 479.3 Q 309.3 477.5, 309.3 474.0 Q 309.3 470.5, 308.3 468.7 Q 307.3 467.0, 305.4 467.0 Q 303.5 467.0, 302.4 468.7 Q 301.4 470.5, 301.4 474.0 Q 301.4 477.5, 302.4 479.3 Q 303.5 481.1, 305.4 481.1 " fill="#000000"/>
<path class="atom-20" d="M 780.4 654.5 Q 780.4 650.3, 782.5 647.9 Q 784.6 645.5, 788.5 645.5 Q 792.5 645.5, 794.6 647.9 Q 796.7 650.3, 796.7 654.5 Q 796.7 658.8, 794.5 661.3 Q 792.4 663.7, 788.5 663.7 Q 784.6 663.7, 782.5 661.3 Q 780.4 658.9, 780.4 654.5 M 788.5 661.7 Q 791.2 661.7, 792.7 659.9 Q 794.2 658.1, 794.2 654.5 Q 794.2 651.1, 792.7 649.3 Q 791.2 647.5, 788.5 647.5 Q 785.8 647.5, 784.4 649.3 Q 782.9 651.0, 782.9 654.5 Q 782.9 658.1, 784.4 659.9 Q 785.8 661.7, 788.5 661.7 " fill="#FF0000"/>
<path class="atom-20" d="M 799.3 649.1 Q 799.9 647.4, 801.5 646.5 Q 803.0 645.5, 805.2 645.5 Q 807.8 645.5, 809.3 647.0 Q 810.8 648.4, 810.8 651.0 Q 810.8 653.6, 808.9 656.1 Q 807.0 658.5, 803.0 661.4 L 811.1 661.4 L 811.1 663.4 L 799.2 663.4 L 799.2 661.8 Q 802.5 659.4, 804.5 657.7 Q 806.4 655.9, 807.4 654.3 Q 808.3 652.8, 808.3 651.1 Q 808.3 649.4, 807.5 648.5 Q 806.6 647.5, 805.2 647.5 Q 803.7 647.5, 802.8 648.1 Q 801.8 648.7, 801.2 650.0 L 799.3 649.1 " fill="#FF0000"/>
<path class="atom-20" d="M 814.9 661.4 L 818.8 661.4 L 818.8 648.2 L 814.5 649.5 L 813.9 648.1 L 819.4 645.6 L 821.1 645.9 L 821.1 661.4 L 824.6 661.4 L 824.6 663.4 L 814.9 663.4 L 814.9 661.4 " fill="#FF0000"/>
<path class="atom-21" d="M 445.9 688.9 Q 445.9 684.5, 448.0 682.2 Q 450.0 679.8, 454.0 679.8 Q 457.6 679.8, 459.6 682.4 L 457.9 683.8 Q 456.5 681.9, 454.0 681.9 Q 451.3 681.9, 449.9 683.7 Q 448.5 685.5, 448.5 688.9 Q 448.5 692.4, 449.9 694.2 Q 451.4 696.0, 454.2 696.0 Q 456.2 696.0, 458.5 694.8 L 459.2 696.7 Q 458.2 697.3, 456.8 697.6 Q 455.4 698.0, 453.9 698.0 Q 450.0 698.0, 448.0 695.6 Q 445.9 693.3, 445.9 688.9 " fill="#000000"/>
<path class="atom-21" d="M 461.9 683.4 Q 462.5 681.7, 464.1 680.8 Q 465.6 679.8, 467.8 679.8 Q 470.4 679.8, 471.9 681.3 Q 473.4 682.7, 473.4 685.3 Q 473.4 687.9, 471.5 690.4 Q 469.6 692.8, 465.6 695.7 L 473.7 695.7 L 473.7 697.7 L 461.8 697.7 L 461.8 696.1 Q 465.1 693.7, 467.1 692.0 Q 469.0 690.2, 470.0 688.6 Q 470.9 687.1, 470.9 685.4 Q 470.9 683.7, 470.1 682.8 Q 469.2 681.8, 467.8 681.8 Q 466.3 681.8, 465.4 682.4 Q 464.4 683.0, 463.8 684.3 L 461.9 683.4 " fill="#000000"/>
<path class="atom-21" d="M 476.5 683.4 Q 477.2 681.7, 478.7 680.8 Q 480.3 679.8, 482.4 679.8 Q 485.1 679.8, 486.6 681.3 Q 488.1 682.7, 488.1 685.3 Q 488.1 687.9, 486.2 690.4 Q 484.2 692.8, 480.2 695.7 L 488.4 695.7 L 488.4 697.7 L 476.5 697.7 L 476.5 696.1 Q 479.8 693.7, 481.7 692.0 Q 483.7 690.2, 484.7 688.6 Q 485.6 687.1, 485.6 685.4 Q 485.6 683.7, 484.8 682.8 Q 483.9 681.8, 482.4 681.8 Q 481.0 681.8, 480.1 682.4 Q 479.1 683.0, 478.4 684.3 L 476.5 683.4 " fill="#000000"/>
<path class="atom-22" d="M 284.0 570.3 Q 284.0 565.9, 286.1 563.6 Q 288.2 561.3, 292.1 561.3 Q 295.7 561.3, 297.7 563.8 L 296.0 565.2 Q 294.6 563.3, 292.1 563.3 Q 289.4 563.3, 288.0 565.1 Q 286.6 566.9, 286.6 570.3 Q 286.6 573.8, 288.0 575.6 Q 289.5 577.4, 292.4 577.4 Q 294.3 577.4, 296.6 576.2 L 297.3 578.1 Q 296.4 578.7, 295.0 579.0 Q 293.6 579.4, 292.0 579.4 Q 288.2 579.4, 286.1 577.0 Q 284.0 574.7, 284.0 570.3 " fill="#000000"/>
<path class="atom-22" d="M 300.0 564.8 Q 300.6 563.1, 302.2 562.2 Q 303.7 561.3, 305.9 561.3 Q 308.6 561.3, 310.1 562.7 Q 311.6 564.2, 311.6 566.7 Q 311.6 569.4, 309.6 571.8 Q 307.7 574.3, 303.7 577.2 L 311.9 577.2 L 311.9 579.2 L 299.9 579.2 L 299.9 577.5 Q 303.2 575.1, 305.2 573.4 Q 307.2 571.6, 308.1 570.1 Q 309.1 568.5, 309.1 566.9 Q 309.1 565.2, 308.2 564.2 Q 307.4 563.3, 305.9 563.3 Q 304.5 563.3, 303.5 563.8 Q 302.6 564.4, 301.9 565.7 L 300.0 564.8 " fill="#000000"/>
<path class="atom-22" d="M 323.1 569.8 Q 324.8 570.3, 325.7 571.5 Q 326.5 572.6, 326.5 574.3 Q 326.5 575.8, 325.8 577.0 Q 325.0 578.1, 323.6 578.8 Q 322.3 579.4, 320.5 579.4 Q 318.6 579.4, 317.1 578.8 Q 315.7 578.1, 314.6 576.7 L 316.0 575.3 Q 317.1 576.5, 318.1 577.0 Q 319.0 577.4, 320.5 577.4 Q 322.1 577.4, 323.0 576.6 Q 324.0 575.7, 324.0 574.3 Q 324.0 572.5, 323.0 571.7 Q 322.0 570.9, 319.8 570.9 L 318.5 570.9 L 318.5 569.1 L 319.7 569.1 Q 321.6 569.0, 322.6 568.2 Q 323.6 567.4, 323.6 565.8 Q 323.6 564.6, 322.8 564.0 Q 321.9 563.3, 320.5 563.3 Q 319.0 563.3, 318.1 563.8 Q 317.2 564.3, 316.5 565.6 L 314.8 564.7 Q 315.4 563.2, 316.9 562.3 Q 318.4 561.3, 320.5 561.3 Q 323.1 561.3, 324.6 562.5 Q 326.1 563.7, 326.1 565.8 Q 326.1 567.2, 325.4 568.2 Q 324.6 569.3, 323.1 569.8 " fill="#000000"/>
<path class="atom-23" d="M 381.0 713.9 Q 381.0 709.5, 383.1 707.2 Q 385.1 704.9, 389.1 704.9 Q 392.7 704.9, 394.7 707.5 L 393.0 708.8 Q 391.6 706.9, 389.1 706.9 Q 386.4 706.9, 385.0 708.7 Q 383.6 710.5, 383.6 713.9 Q 383.6 717.4, 385.0 719.2 Q 386.5 721.0, 389.3 721.0 Q 391.3 721.0, 393.6 719.8 L 394.3 721.7 Q 393.3 722.3, 391.9 722.7 Q 390.5 723.0, 389.0 723.0 Q 385.1 723.0, 383.1 720.7 Q 381.0 718.3, 381.0 713.9 " fill="#000000"/>
<path class="atom-23" d="M 397.0 708.4 Q 397.7 706.8, 399.2 705.8 Q 400.8 704.9, 402.9 704.9 Q 405.6 704.9, 407.1 706.3 Q 408.6 707.8, 408.6 710.4 Q 408.6 713.0, 406.7 715.4 Q 404.7 717.9, 400.7 720.8 L 408.9 720.8 L 408.9 722.8 L 397.0 722.8 L 397.0 721.1 Q 400.3 718.8, 402.2 717.0 Q 404.2 715.3, 405.2 713.7 Q 406.1 712.1, 406.1 710.5 Q 406.1 708.8, 405.3 707.8 Q 404.4 706.9, 402.9 706.9 Q 401.5 706.9, 400.6 707.5 Q 399.6 708.0, 398.9 709.3 L 397.0 708.4 " fill="#000000"/>
<path class="atom-23" d="M 423.2 716.7 L 425.3 716.7 L 425.3 718.7 L 423.2 718.7 L 423.2 722.8 L 420.9 722.8 L 420.9 718.7 L 411.7 718.7 L 411.7 717.1 L 419.5 705.1 L 423.2 705.1 L 423.2 716.7 M 414.6 716.7 L 420.9 716.7 L 420.9 706.7 L 414.6 716.7 " fill="#000000"/>
<path class="atom-24" d="M 185.9 618.0 Q 185.9 613.6, 187.9 611.3 Q 190.0 609.0, 193.9 609.0 Q 197.6 609.0, 199.5 611.6 L 197.9 612.9 Q 196.4 611.0, 193.9 611.0 Q 191.2 611.0, 189.8 612.8 Q 188.4 614.6, 188.4 618.0 Q 188.4 621.5, 189.9 623.3 Q 191.3 625.1, 194.2 625.1 Q 196.1 625.1, 198.4 623.9 L 199.1 625.8 Q 198.2 626.4, 196.8 626.8 Q 195.4 627.1, 193.8 627.1 Q 190.0 627.1, 187.9 624.8 Q 185.9 622.4, 185.9 618.0 " fill="#000000"/>
<path class="atom-24" d="M 201.8 612.5 Q 202.5 610.9, 204.0 609.9 Q 205.6 609.0, 207.7 609.0 Q 210.4 609.0, 211.9 610.4 Q 213.4 611.9, 213.4 614.5 Q 213.4 617.1, 211.4 619.5 Q 209.5 622.0, 205.5 624.9 L 213.7 624.9 L 213.7 626.9 L 201.8 626.9 L 201.8 625.2 Q 205.1 622.9, 207.0 621.1 Q 209.0 619.4, 209.9 617.8 Q 210.9 616.2, 210.9 614.6 Q 210.9 612.9, 210.0 611.9 Q 209.2 611.0, 207.7 611.0 Q 206.3 611.0, 205.3 611.6 Q 204.4 612.1, 203.7 613.4 L 201.8 612.5 " fill="#000000"/>
<path class="atom-24" d="M 222.9 615.8 Q 224.4 615.8, 225.7 616.5 Q 227.0 617.1, 227.7 618.4 Q 228.4 619.6, 228.4 621.3 Q 228.4 623.1, 227.5 624.4 Q 226.6 625.7, 225.2 626.4 Q 223.7 627.1, 222.1 627.1 Q 220.5 627.1, 219.0 626.5 Q 217.5 625.9, 216.4 624.7 L 217.9 623.2 Q 218.8 624.1, 219.9 624.6 Q 221.0 625.1, 222.2 625.1 Q 223.7 625.1, 224.8 624.1 Q 225.9 623.1, 225.9 621.3 Q 225.9 619.5, 224.8 618.6 Q 223.7 617.7, 222.0 617.7 Q 220.5 617.7, 218.7 618.4 L 217.4 617.7 L 218.2 609.2 L 227.3 609.2 L 227.1 611.2 L 220.3 611.2 L 219.7 616.4 Q 221.3 615.8, 222.9 615.8 " fill="#000000"/>
<path class="atom-25" d="M 283.5 761.4 Q 283.5 757.0, 285.5 754.7 Q 287.6 752.4, 291.5 752.4 Q 295.2 752.4, 297.1 755.0 L 295.5 756.3 Q 294.0 754.4, 291.5 754.4 Q 288.8 754.4, 287.4 756.2 Q 286.0 758.0, 286.0 761.4 Q 286.0 764.9, 287.5 766.7 Q 288.9 768.5, 291.8 768.5 Q 293.7 768.5, 296.0 767.3 L 296.7 769.2 Q 295.8 769.8, 294.4 770.2 Q 293.0 770.5, 291.4 770.5 Q 287.6 770.5, 285.5 768.2 Q 283.5 765.8, 283.5 761.4 " fill="#000000"/>
<path class="atom-25" d="M 299.4 755.9 Q 300.1 754.3, 301.6 753.3 Q 303.2 752.4, 305.3 752.4 Q 308.0 752.4, 309.5 753.8 Q 311.0 755.3, 311.0 757.9 Q 311.0 760.5, 309.0 762.9 Q 307.1 765.4, 303.1 768.3 L 311.3 768.3 L 311.3 770.3 L 299.4 770.3 L 299.4 768.6 Q 302.7 766.3, 304.6 764.5 Q 306.6 762.8, 307.5 761.2 Q 308.5 759.6, 308.5 758.0 Q 308.5 756.3, 307.6 755.3 Q 306.8 754.4, 305.3 754.4 Q 303.9 754.4, 302.9 755.0 Q 302.0 755.5, 301.3 756.8 L 299.4 755.9 " fill="#000000"/>
<path class="atom-25" d="M 321.0 759.2 Q 322.5 759.2, 323.8 759.9 Q 325.0 760.6, 325.7 761.8 Q 326.3 763.0, 326.3 764.6 Q 326.3 766.3, 325.6 767.7 Q 324.8 769.0, 323.5 769.7 Q 322.1 770.5, 320.4 770.5 Q 317.2 770.5, 315.6 768.4 Q 314.1 766.2, 314.1 762.0 Q 314.1 757.3, 316.0 754.8 Q 318.0 752.4, 321.8 752.4 Q 322.9 752.4, 323.8 752.6 Q 324.7 752.9, 325.6 753.4 L 324.7 755.1 Q 323.4 754.4, 321.8 754.4 Q 319.3 754.4, 318.0 756.0 Q 316.7 757.6, 316.6 760.9 Q 317.5 760.1, 318.6 759.7 Q 319.8 759.2, 321.0 759.2 M 320.4 768.4 Q 321.4 768.4, 322.1 767.9 Q 322.9 767.4, 323.4 766.6 Q 323.8 765.7, 323.8 764.6 Q 323.8 763.0, 323.0 762.1 Q 322.1 761.2, 320.5 761.2 Q 319.5 761.2, 318.4 761.7 Q 317.3 762.1, 316.6 762.9 Q 316.7 765.8, 317.6 767.1 Q 318.5 768.4, 320.4 768.4 " fill="#000000"/>
<path class="atom-26" d="M 215.3 713.5 Q 215.3 709.1, 217.4 706.8 Q 219.4 704.5, 223.4 704.5 Q 227.0 704.5, 229.0 707.1 L 227.3 708.4 Q 225.9 706.6, 223.4 706.6 Q 220.7 706.6, 219.3 708.4 Q 217.9 710.1, 217.9 713.5 Q 217.9 717.0, 219.3 718.8 Q 220.8 720.6, 223.6 720.6 Q 225.6 720.6, 227.9 719.5 L 228.6 721.3 Q 227.6 721.9, 226.2 722.3 Q 224.8 722.6, 223.3 722.6 Q 219.4 722.6, 217.4 720.3 Q 215.3 717.9, 215.3 713.5 " fill="#000000"/>
<path class="atom-26" d="M 231.3 708.1 Q 231.9 706.4, 233.5 705.5 Q 235.0 704.5, 237.2 704.5 Q 239.8 704.5, 241.3 706.0 Q 242.8 707.4, 242.8 710.0 Q 242.8 712.6, 240.9 715.1 Q 239.0 717.5, 235.0 720.4 L 243.1 720.4 L 243.1 722.4 L 231.2 722.4 L 231.2 720.7 Q 234.5 718.4, 236.5 716.6 Q 238.4 714.9, 239.4 713.3 Q 240.3 711.7, 240.3 710.1 Q 240.3 708.4, 239.5 707.5 Q 238.6 706.5, 237.2 706.5 Q 235.7 706.5, 234.8 707.1 Q 233.8 707.7, 233.2 708.9 L 231.3 708.1 " fill="#000000"/>
<path class="atom-26" d="M 255.2 706.7 L 245.9 706.7 L 245.9 704.7 L 257.6 704.7 L 257.6 706.5 L 250.5 722.4 L 248.1 722.4 L 255.2 706.7 " fill="#000000"/>
<path class="atom-27" d="M 99.2 761.3 Q 99.2 757.0, 101.3 754.7 Q 103.4 752.3, 107.3 752.3 Q 111.2 752.3, 113.3 754.7 Q 115.4 757.0, 115.4 761.3 Q 115.4 765.6, 113.3 768.0 Q 111.2 770.5, 107.3 770.5 Q 103.4 770.5, 101.3 768.0 Q 99.2 765.6, 99.2 761.3 M 107.3 768.5 Q 110.0 768.5, 111.5 766.7 Q 112.9 764.8, 112.9 761.3 Q 112.9 757.8, 111.5 756.1 Q 110.0 754.3, 107.3 754.3 Q 104.6 754.3, 103.1 756.0 Q 101.7 757.8, 101.7 761.3 Q 101.7 764.9, 103.1 766.7 Q 104.6 768.5, 107.3 768.5 " fill="#FF0000"/>
<path class="atom-27" d="M 118.1 755.8 Q 118.7 754.2, 120.3 753.2 Q 121.8 752.3, 124.0 752.3 Q 126.7 752.3, 128.2 753.7 Q 129.7 755.2, 129.7 757.8 Q 129.7 760.4, 127.7 762.8 Q 125.8 765.3, 121.8 768.2 L 130.0 768.2 L 130.0 770.2 L 118.0 770.2 L 118.0 768.5 Q 121.3 766.2, 123.3 764.4 Q 125.3 762.7, 126.2 761.1 Q 127.2 759.5, 127.2 757.9 Q 127.2 756.2, 126.3 755.2 Q 125.5 754.3, 124.0 754.3 Q 122.6 754.3, 121.6 754.9 Q 120.7 755.4, 120.0 756.7 L 118.1 755.8 " fill="#FF0000"/>
<path class="atom-27" d="M 141.9 760.8 Q 143.5 761.5, 144.4 762.6 Q 145.3 763.6, 145.3 765.3 Q 145.3 766.8, 144.6 768.0 Q 143.8 769.2, 142.4 769.8 Q 141.0 770.4, 139.2 770.4 Q 136.2 770.4, 134.5 769.1 Q 132.8 767.7, 132.8 765.3 Q 132.8 763.9, 133.6 762.8 Q 134.3 761.7, 135.9 760.9 Q 134.7 760.2, 134.1 759.3 Q 133.5 758.3, 133.5 756.8 Q 133.5 754.7, 135.0 753.5 Q 136.5 752.3, 139.1 752.3 Q 141.7 752.3, 143.2 753.5 Q 144.7 754.7, 144.7 756.8 Q 144.7 758.1, 144.0 759.1 Q 143.3 760.0, 141.9 760.8 M 139.1 754.2 Q 137.6 754.2, 136.8 754.9 Q 136.0 755.6, 136.0 756.8 Q 136.0 757.7, 136.5 758.4 Q 137.1 759.0, 137.9 759.3 Q 138.7 759.7, 140.2 760.2 Q 141.3 759.4, 141.7 758.6 Q 142.2 757.8, 142.2 756.8 Q 142.2 755.6, 141.4 754.9 Q 140.6 754.2, 139.1 754.2 M 139.2 768.6 Q 140.8 768.6, 141.8 767.7 Q 142.8 766.8, 142.8 765.3 Q 142.8 764.4, 142.3 763.8 Q 141.8 763.2, 141.0 762.8 Q 140.2 762.5, 138.8 762.0 L 137.7 761.6 Q 136.4 762.4, 135.9 763.3 Q 135.3 764.2, 135.3 765.3 Q 135.3 766.8, 136.4 767.7 Q 137.4 768.6, 139.2 768.6 " fill="#FF0000"/>
<text x="1000" y="50" font-size="8" font-family="Verdana" font-weight="normal" letter-spacing="0" text-anchor="start" fill="black">Highlighted Atoms:
Primary SOM: Red
Secondary SOM: Green
Tertiary SOM: Cyan
</text></svg>
