<?xml version='1.0' encoding='ASCII' standalone='yes'?>
<svg xmlns="http://www.w3.org/2000/svg" xmlns:rdkit="http://www.rdkit.org/xml" xmlns:xlink="http://www.w3.org/1999/xlink" style="background-color: white;" version="1.1" baseProfile="full" xml:space="preserve" width="1000px" height="1000px" viewBox="0 0 1000 1000">
<!-- END OF HEADER -->
<rect style="opacity:1.0;fill:#FFFFFF;stroke:none" width="1000.0" height="1000.0" x="0.0" y="0.0"> </rect>
<ellipse cx="660.9" cy="898.2" rx="41.0" ry="41.0" class="atom-17" style="fill:#B20000;fill-rule:evenodd;stroke:#B20000;stroke-width:1.0px;stroke-linecap:butt;stroke-linejoin:miter;stroke-opacity:1"/>
<path class="bond-0 atom-1 atom-0" d="M 599.0,371.9 L 694.3,316.1" style="fill:none;fill-rule:evenodd;stroke:#000000;stroke-width:2.0px;stroke-linecap:butt;stroke-linejoin:miter;stroke-opacity:1"/>
<path class="bond-0 atom-1 atom-0" d="M 609.5,389.8 L 704.8,333.9" style="fill:none;fill-rule:evenodd;stroke:#000000;stroke-width:2.0px;stroke-linecap:butt;stroke-linejoin:miter;stroke-opacity:1"/>
<path class="bond-1 atom-2 atom-0" d="M 813.6,370.5 L 729.6,322.9" style="fill:none;fill-rule:evenodd;stroke:#000000;stroke-width:2.0px;stroke-linecap:butt;stroke-linejoin:miter;stroke-opacity:1"/>
<path class="bond-2 atom-3 atom-2" d="M 826.1,501.1 L 825.1,390.7" style="fill:none;fill-rule:evenodd;stroke:#000000;stroke-width:2.0px;stroke-linecap:butt;stroke-linejoin:miter;stroke-opacity:1"/>
<path class="bond-2 atom-3 atom-2" d="M 805.4,501.3 L 804.4,390.9" style="fill:none;fill-rule:evenodd;stroke:#000000;stroke-width:2.0px;stroke-linecap:butt;stroke-linejoin:miter;stroke-opacity:1"/>
<path class="bond-3 atom-4 atom-3" d="M 731.9,570.8 L 814.9,521.4" style="fill:none;fill-rule:evenodd;stroke:#000000;stroke-width:2.0px;stroke-linecap:butt;stroke-linejoin:miter;stroke-opacity:1"/>
<path class="bond-4 atom-5 atom-1" d="M 589.6,501.4 L 588.6,391.6" style="fill:none;fill-rule:evenodd;stroke:#000000;stroke-width:2.0px;stroke-linecap:butt;stroke-linejoin:miter;stroke-opacity:1"/>
<path class="bond-5 atom-5 atom-4" d="M 613.5,528.6 L 698.1,577.5" style="fill:none;fill-rule:evenodd;stroke:#000000;stroke-width:2.0px;stroke-linecap:butt;stroke-linejoin:miter;stroke-opacity:1"/>
<path class="bond-5 atom-5 atom-4" d="M 623.8,510.6 L 708.5,559.6" style="fill:none;fill-rule:evenodd;stroke:#000000;stroke-width:2.0px;stroke-linecap:butt;stroke-linejoin:miter;stroke-opacity:1"/>
<path class="bond-6 atom-6 atom-5" d="M 432.5,577.3 L 578.4,519.4" style="fill:none;fill-rule:evenodd;stroke:#000000;stroke-width:2.0px;stroke-linecap:butt;stroke-linejoin:miter;stroke-opacity:1"/>
<path class="bond-7 atom-7 atom-6" d="M 323.3,525.9 L 398.0,567.9" style="fill:none;fill-rule:evenodd;stroke:#000000;stroke-width:2.0px;stroke-linecap:butt;stroke-linejoin:miter;stroke-opacity:1"/>
<path class="bond-8 atom-8 atom-7" d="M 197.0,580.1 L 285.8,526.7" style="fill:none;fill-rule:evenodd;stroke:#000000;stroke-width:2.0px;stroke-linecap:butt;stroke-linejoin:miter;stroke-opacity:1"/>
<path class="bond-9 atom-9 atom-8" d="M 186.3,713.3 L 186.3,600.3" style="fill:none;fill-rule:evenodd;stroke:#000000;stroke-width:2.0px;stroke-linecap:butt;stroke-linejoin:miter;stroke-opacity:1"/>
<path class="bond-10 atom-10 atom-9" d="M 283.0,785.1 L 197.3,733.5" style="fill:none;fill-rule:evenodd;stroke:#000000;stroke-width:2.0px;stroke-linecap:butt;stroke-linejoin:miter;stroke-opacity:1"/>
<path class="bond-11 atom-11 atom-6" d="M 422.6,720.5 L 422.1,594.9" style="fill:none;fill-rule:evenodd;stroke:#000000;stroke-width:2.0px;stroke-linecap:butt;stroke-linejoin:miter;stroke-opacity:1"/>
<path class="bond-12 atom-11 atom-10" d="M 397.8,747.7 L 329.7,785.2" style="fill:none;fill-rule:evenodd;stroke:#000000;stroke-width:2.0px;stroke-linecap:butt;stroke-linejoin:miter;stroke-opacity:1"/>
<path class="bond-13 atom-12 atom-11" d="M 523.0,778.2 L 433.2,738.6" style="fill:none;fill-rule:evenodd;stroke:#000000;stroke-width:2.0px;stroke-linecap:butt;stroke-linejoin:miter;stroke-opacity:1"/>
<path class="bond-14 atom-13 atom-4" d="M 707.0,698.5 L 709.2,597.8" style="fill:none;fill-rule:evenodd;stroke:#000000;stroke-width:2.0px;stroke-linecap:butt;stroke-linejoin:miter;stroke-opacity:1"/>
<path class="bond-15 atom-13 atom-12" d="M 695.3,717.9 L 564.1,786.2" style="fill:none;fill-rule:evenodd;stroke:#000000;stroke-width:2.0px;stroke-linecap:butt;stroke-linejoin:miter;stroke-opacity:1"/>
<path class="bond-16 atom-14 atom-12" d="M 615.6,743.8 L 589.9,763.7" style="fill:none;fill-rule:evenodd;stroke:#0000FF;stroke-width:2.0px;stroke-linecap:butt;stroke-linejoin:miter;stroke-opacity:1"/>
<path class="bond-16 atom-14 atom-12" d="M 589.9,763.7 L 564.1,783.6" style="fill:none;fill-rule:evenodd;stroke:#000000;stroke-width:2.0px;stroke-linecap:butt;stroke-linejoin:miter;stroke-opacity:1"/>
<path class="bond-17 atom-15 atom-6" d="M 487.5,548.8 L 432.5,576.2" style="fill:none;fill-rule:evenodd;stroke:#000000;stroke-width:2.0px;stroke-linecap:butt;stroke-linejoin:miter;stroke-opacity:1"/>
<path class="bond-18 atom-16 atom-14" d="M 620.4,622.9 L 623.3,672.3" style="fill:none;fill-rule:evenodd;stroke:#000000;stroke-width:2.0px;stroke-linecap:butt;stroke-linejoin:miter;stroke-opacity:1"/>
<path class="bond-18 atom-16 atom-14" d="M 623.3,672.3 L 626.1,721.8" style="fill:none;fill-rule:evenodd;stroke:#0000FF;stroke-width:2.0px;stroke-linecap:butt;stroke-linejoin:miter;stroke-opacity:1"/>
<path class="bond-19 atom-16 atom-15" d="M 608.3,601.4 L 532.7,550.0" style="fill:none;fill-rule:evenodd;stroke:#000000;stroke-width:2.0px;stroke-linecap:butt;stroke-linejoin:miter;stroke-opacity:1"/>
<path class="bond-20 atom-17 atom-14" d="M 645.4,884.5 L 636.9,816.6" style="fill:none;fill-rule:evenodd;stroke:#000000;stroke-width:2.0px;stroke-linecap:butt;stroke-linejoin:miter;stroke-opacity:1"/>
<path class="bond-20 atom-17 atom-14" d="M 636.9,816.6 L 628.5,748.6" style="fill:none;fill-rule:evenodd;stroke:#0000FF;stroke-width:2.0px;stroke-linecap:butt;stroke-linejoin:miter;stroke-opacity:1"/>
<path class="bond-21 atom-18 atom-0" d="M 683.2,181.7 L 693.2,238.8" style="fill:none;fill-rule:evenodd;stroke:#FF0000;stroke-width:2.0px;stroke-linecap:butt;stroke-linejoin:miter;stroke-opacity:1"/>
<path class="bond-21 atom-18 atom-0" d="M 693.2,238.8 L 703.3,295.9" style="fill:none;fill-rule:evenodd;stroke:#000000;stroke-width:2.0px;stroke-linecap:butt;stroke-linejoin:miter;stroke-opacity:1"/>
<path class="bond-22 atom-19 atom-18" d="M 757.3,82.5 L 724.4,119.3" style="fill:none;fill-rule:evenodd;stroke:#000000;stroke-width:2.0px;stroke-linecap:butt;stroke-linejoin:miter;stroke-opacity:1"/>
<path class="bond-22 atom-19 atom-18" d="M 724.4,119.3 L 691.4,156.1" style="fill:none;fill-rule:evenodd;stroke:#FF0000;stroke-width:2.0px;stroke-linecap:butt;stroke-linejoin:miter;stroke-opacity:1"/>
<path class="atom-0" d="M 698.9 309.5 Q 698.9 305.1, 700.9 302.8 Q 703.0 300.5, 706.9 300.5 Q 710.6 300.5, 712.5 303.0 L 710.9 304.4 Q 709.5 302.5, 706.9 302.5 Q 704.3 302.5, 702.8 304.3 Q 701.4 306.1, 701.4 309.5 Q 701.4 313.0, 702.9 314.8 Q 704.4 316.6, 707.2 316.6 Q 709.2 316.6, 711.4 315.4 L 712.1 317.3 Q 711.2 317.9, 709.8 318.2 Q 708.4 318.6, 706.9 318.6 Q 703.0 318.6, 700.9 316.2 Q 698.9 313.9, 698.9 309.5 " fill="#000000"/>
<path class="atom-0" d="M 715.7 316.4 L 719.6 316.4 L 719.6 303.1 L 715.3 304.5 L 714.7 303.0 L 720.2 300.6 L 721.9 300.9 L 721.9 316.4 L 725.4 316.4 L 725.4 318.4 L 715.7 318.4 L 715.7 316.4 " fill="#000000"/>
<path class="atom-1" d="M 566.6 378.1 Q 566.6 373.7, 568.6 371.4 Q 570.7 369.1, 574.6 369.1 Q 578.3 369.1, 580.2 371.7 L 578.6 373.0 Q 577.2 371.2, 574.6 371.2 Q 572.0 371.2, 570.5 373.0 Q 569.1 374.7, 569.1 378.1 Q 569.1 381.6, 570.6 383.4 Q 572.1 385.2, 574.9 385.2 Q 576.9 385.2, 579.1 384.1 L 579.8 385.9 Q 578.9 386.5, 577.5 386.9 Q 576.1 387.2, 574.6 387.2 Q 570.7 387.2, 568.6 384.9 Q 566.6 382.5, 566.6 378.1 " fill="#000000"/>
<path class="atom-1" d="M 582.6 372.7 Q 583.2 371.0, 584.8 370.1 Q 586.3 369.1, 588.5 369.1 Q 591.1 369.1, 592.6 370.6 Q 594.1 372.0, 594.1 374.6 Q 594.1 377.2, 592.2 379.7 Q 590.3 382.1, 586.3 385.0 L 594.4 385.0 L 594.4 387.0 L 582.5 387.0 L 582.5 385.3 Q 585.8 383.0, 587.8 381.2 Q 589.7 379.5, 590.7 377.9 Q 591.6 376.3, 591.6 374.7 Q 591.6 373.0, 590.8 372.1 Q 589.9 371.1, 588.5 371.1 Q 587.0 371.1, 586.1 371.7 Q 585.1 372.3, 584.5 373.5 L 582.6 372.7 " fill="#000000"/>
<path class="atom-2" d="M 818.1 377.0 Q 818.1 372.6, 820.2 370.3 Q 822.3 368.0, 826.2 368.0 Q 829.8 368.0, 831.8 370.6 L 830.1 371.9 Q 828.7 370.0, 826.2 370.0 Q 823.5 370.0, 822.1 371.8 Q 820.7 373.6, 820.7 377.0 Q 820.7 380.5, 822.1 382.3 Q 823.6 384.1, 826.5 384.1 Q 828.4 384.1, 830.7 382.9 L 831.4 384.8 Q 830.5 385.4, 829.1 385.8 Q 827.7 386.1, 826.1 386.1 Q 822.3 386.1, 820.2 383.8 Q 818.1 381.4, 818.1 377.0 " fill="#000000"/>
<path class="atom-2" d="M 842.6 376.6 Q 844.3 377.1, 845.1 378.2 Q 846.0 379.3, 846.0 381.0 Q 846.0 382.5, 845.2 383.7 Q 844.5 384.9, 843.1 385.5 Q 841.7 386.1, 839.9 386.1 Q 838.0 386.1, 836.6 385.5 Q 835.2 384.8, 834.1 383.5 L 835.5 382.0 Q 836.6 383.2, 837.5 383.7 Q 838.4 384.1, 839.9 384.1 Q 841.5 384.1, 842.5 383.3 Q 843.5 382.4, 843.5 381.0 Q 843.5 379.2, 842.4 378.4 Q 841.4 377.6, 839.3 377.6 L 838.0 377.6 L 838.0 375.8 L 839.1 375.8 Q 841.0 375.8, 842.1 374.9 Q 843.1 374.1, 843.1 372.5 Q 843.1 371.4, 842.2 370.7 Q 841.4 370.0, 839.9 370.0 Q 838.5 370.0, 837.5 370.5 Q 836.6 371.0, 835.9 372.4 L 834.2 371.4 Q 834.8 370.0, 836.3 369.0 Q 837.8 368.0, 839.9 368.0 Q 842.5 368.0, 844.1 369.2 Q 845.6 370.4, 845.6 372.5 Q 845.6 373.9, 844.8 375.0 Q 844.0 376.0, 842.6 376.6 " fill="#000000"/>
<path class="atom-3" d="M 819.4 514.7 Q 819.4 510.3, 821.5 508.0 Q 823.6 505.6, 827.5 505.6 Q 831.1 505.6, 833.1 508.2 L 831.4 509.6 Q 830.0 507.7, 827.5 507.7 Q 824.8 507.7, 823.4 509.5 Q 822.0 511.3, 822.0 514.7 Q 822.0 518.2, 823.4 520.0 Q 824.9 521.8, 827.8 521.8 Q 829.7 521.8, 832.0 520.6 L 832.7 522.5 Q 831.8 523.1, 830.4 523.4 Q 829.0 523.8, 827.4 523.8 Q 823.6 523.8, 821.5 521.4 Q 819.4 519.1, 819.4 514.7 " fill="#000000"/>
<path class="atom-3" d="M 846.9 517.5 L 849.1 517.5 L 849.1 519.5 L 846.9 519.5 L 846.9 523.5 L 844.6 523.5 L 844.6 519.5 L 835.4 519.5 L 835.4 517.9 L 843.2 505.8 L 846.9 505.8 L 846.9 517.5 M 838.3 517.5 L 844.6 517.5 L 844.6 507.4 L 838.3 517.5 " fill="#000000"/>
<path class="atom-4" d="M 702.7 584.1 Q 702.7 579.7, 704.8 577.4 Q 706.8 575.1, 710.8 575.1 Q 714.4 575.1, 716.4 577.7 L 714.7 579.0 Q 713.3 577.2, 710.8 577.2 Q 708.1 577.2, 706.7 579.0 Q 705.3 580.7, 705.3 584.1 Q 705.3 587.6, 706.7 589.4 Q 708.2 591.2, 711.0 591.2 Q 713.0 591.2, 715.3 590.1 L 716.0 591.9 Q 715.0 592.5, 713.6 592.9 Q 712.2 593.2, 710.7 593.2 Q 706.8 593.2, 704.8 590.9 Q 702.7 588.5, 702.7 584.1 " fill="#000000"/>
<path class="atom-4" d="M 725.1 581.9 Q 726.6 581.9, 727.9 582.6 Q 729.2 583.3, 729.9 584.5 Q 730.6 585.7, 730.6 587.4 Q 730.6 589.2, 729.7 590.6 Q 728.8 591.9, 727.4 592.5 Q 725.9 593.2, 724.3 593.2 Q 722.7 593.2, 721.2 592.6 Q 719.7 592.0, 718.6 590.9 L 720.1 589.3 Q 721.0 590.2, 722.1 590.7 Q 723.2 591.2, 724.4 591.2 Q 725.9 591.2, 727.0 590.2 Q 728.1 589.2, 728.1 587.5 Q 728.1 585.6, 727.0 584.7 Q 725.9 583.8, 724.2 583.8 Q 722.7 583.8, 720.9 584.5 L 719.6 583.8 L 720.4 575.3 L 729.5 575.3 L 729.3 577.3 L 722.5 577.3 L 721.9 582.6 Q 723.5 581.9, 725.1 581.9 " fill="#000000"/>
<path class="atom-5" d="M 582.9 514.9 Q 582.9 510.5, 585.0 508.2 Q 587.1 505.9, 591.0 505.9 Q 594.6 505.9, 596.6 508.5 L 594.9 509.8 Q 593.5 508.0, 591.0 508.0 Q 588.3 508.0, 586.9 509.8 Q 585.5 511.5, 585.5 514.9 Q 585.5 518.4, 586.9 520.2 Q 588.4 522.0, 591.3 522.0 Q 593.2 522.0, 595.5 520.9 L 596.2 522.7 Q 595.3 523.3, 593.9 523.7 Q 592.5 524.0, 590.9 524.0 Q 587.1 524.0, 585.0 521.7 Q 582.9 519.3, 582.9 514.9 " fill="#000000"/>
<path class="atom-5" d="M 605.8 512.8 Q 607.4 512.8, 608.6 513.4 Q 609.8 514.1, 610.5 515.3 Q 611.2 516.6, 611.2 518.1 Q 611.2 519.8, 610.4 521.2 Q 609.6 522.5, 608.3 523.3 Q 606.9 524.0, 605.2 524.0 Q 602.1 524.0, 600.5 521.9 Q 598.9 519.7, 598.9 515.5 Q 598.9 510.8, 600.8 508.4 Q 602.8 505.9, 606.6 505.9 Q 607.7 505.9, 608.6 506.2 Q 609.6 506.4, 610.5 506.9 L 609.5 508.6 Q 608.2 507.9, 606.6 507.9 Q 604.1 507.9, 602.8 509.5 Q 601.6 511.1, 601.4 514.5 Q 602.3 513.6, 603.4 513.2 Q 604.6 512.8, 605.8 512.8 M 605.2 522.0 Q 606.2 522.0, 607.0 521.5 Q 607.8 521.0, 608.2 520.1 Q 608.7 519.2, 608.7 518.1 Q 608.7 516.6, 607.8 515.7 Q 606.9 514.8, 605.4 514.8 Q 604.3 514.8, 603.2 515.2 Q 602.2 515.6, 601.4 516.4 Q 601.5 519.3, 602.4 520.6 Q 603.4 522.0, 605.2 522.0 " fill="#000000"/>
<path class="atom-6" d="M 400.3 581.5 Q 400.3 577.1, 402.4 574.8 Q 404.4 572.4, 408.4 572.4 Q 412.0 572.4, 414.0 575.0 L 412.3 576.4 Q 410.9 574.5, 408.4 574.5 Q 405.7 574.5, 404.3 576.3 Q 402.9 578.1, 402.9 581.5 Q 402.9 585.0, 404.3 586.8 Q 405.8 588.6, 408.6 588.6 Q 410.6 588.6, 412.9 587.4 L 413.6 589.3 Q 412.6 589.9, 411.2 590.2 Q 409.8 590.6, 408.3 590.6 Q 404.4 590.6, 402.4 588.2 Q 400.3 585.9, 400.3 581.5 " fill="#000000"/>
<path class="atom-6" d="M 425.5 574.6 L 416.2 574.6 L 416.2 572.6 L 428.0 572.6 L 428.0 574.4 L 420.8 590.3 L 418.4 590.3 L 425.5 574.6 " fill="#000000"/>
<path class="atom-7" d="M 290.3 515.5 Q 290.3 511.1, 292.4 508.8 Q 294.4 506.5, 298.4 506.5 Q 302.0 506.5, 304.0 509.0 L 302.3 510.4 Q 300.9 508.5, 298.4 508.5 Q 295.7 508.5, 294.3 510.3 Q 292.9 512.1, 292.9 515.5 Q 292.9 519.0, 294.3 520.8 Q 295.8 522.6, 298.6 522.6 Q 300.6 522.6, 302.9 521.4 L 303.6 523.3 Q 302.6 523.9, 301.2 524.2 Q 299.8 524.6, 298.3 524.6 Q 294.4 524.6, 292.4 522.2 Q 290.3 519.9, 290.3 515.5 " fill="#000000"/>
<path class="atom-7" d="M 315.3 515.0 Q 316.9 515.7, 317.9 516.7 Q 318.8 517.8, 318.8 519.5 Q 318.8 521.0, 318.0 522.2 Q 317.2 523.3, 315.8 524.0 Q 314.5 524.6, 312.6 524.6 Q 309.7 524.6, 308.0 523.3 Q 306.3 521.9, 306.3 519.5 Q 306.3 518.1, 307.0 517.0 Q 307.8 515.9, 309.3 515.1 Q 308.2 514.4, 307.6 513.5 Q 306.9 512.5, 306.9 511.0 Q 306.9 508.9, 308.4 507.7 Q 310.0 506.5, 312.5 506.5 Q 315.1 506.5, 316.6 507.7 Q 318.1 508.9, 318.1 511.0 Q 318.1 512.3, 317.4 513.3 Q 316.7 514.2, 315.3 515.0 M 312.5 508.3 Q 311.1 508.3, 310.2 509.0 Q 309.4 509.7, 309.4 511.0 Q 309.4 511.9, 310.0 512.5 Q 310.5 513.1, 311.3 513.5 Q 312.1 513.8, 313.6 514.4 Q 314.7 513.6, 315.2 512.8 Q 315.6 512.0, 315.6 511.0 Q 315.6 509.7, 314.8 509.0 Q 314.0 508.3, 312.5 508.3 M 312.6 522.7 Q 314.3 522.7, 315.3 521.9 Q 316.3 521.0, 316.3 519.5 Q 316.3 518.5, 315.8 517.9 Q 315.2 517.3, 314.4 517.0 Q 313.7 516.6, 312.3 516.2 L 311.1 515.8 Q 309.9 516.6, 309.3 517.5 Q 308.8 518.3, 308.8 519.5 Q 308.8 521.0, 309.8 521.9 Q 310.9 522.7, 312.6 522.7 " fill="#000000"/>
<path class="atom-8" d="M 164.2 586.6 Q 164.2 582.2, 166.2 579.9 Q 168.3 577.6, 172.2 577.6 Q 175.9 577.6, 177.8 580.2 L 176.2 581.5 Q 174.8 579.7, 172.2 579.7 Q 169.6 579.7, 168.1 581.5 Q 166.7 583.2, 166.7 586.6 Q 166.7 590.1, 168.2 591.9 Q 169.7 593.7, 172.5 593.7 Q 174.5 593.7, 176.7 592.6 L 177.4 594.4 Q 176.5 595.0, 175.1 595.4 Q 173.7 595.7, 172.2 595.7 Q 168.3 595.7, 166.2 593.4 Q 164.2 591.0, 164.2 586.6 " fill="#000000"/>
<path class="atom-8" d="M 186.1 577.6 Q 189.2 577.6, 190.8 579.8 Q 192.4 581.9, 192.4 586.1 Q 192.4 590.8, 190.4 593.3 Q 188.5 595.7, 184.7 595.7 Q 183.6 595.7, 182.7 595.5 Q 181.7 595.2, 180.8 594.7 L 181.8 593.0 Q 183.1 593.7, 184.7 593.7 Q 187.2 593.7, 188.5 592.1 Q 189.7 590.5, 189.9 587.2 Q 189.0 588.0, 187.8 588.4 Q 186.7 588.9, 185.5 588.9 Q 183.9 588.9, 182.7 588.2 Q 181.5 587.5, 180.8 586.3 Q 180.1 585.1, 180.1 583.5 Q 180.1 581.8, 180.9 580.5 Q 181.7 579.1, 183.0 578.4 Q 184.4 577.6, 186.1 577.6 M 182.6 583.5 Q 182.6 585.1, 183.5 586.0 Q 184.4 586.9, 185.9 586.9 Q 187.0 586.9, 188.1 586.4 Q 189.1 586.0, 189.9 585.2 Q 189.8 582.3, 188.9 581.0 Q 187.9 579.7, 186.1 579.7 Q 185.1 579.7, 184.3 580.2 Q 183.5 580.7, 183.1 581.5 Q 182.6 582.4, 182.6 583.5 " fill="#000000"/>
<path class="atom-9" d="M 150.9 726.9 Q 150.9 722.5, 153.0 720.2 Q 155.1 717.9, 159.0 717.9 Q 162.6 717.9, 164.6 720.5 L 162.9 721.8 Q 161.5 719.9, 159.0 719.9 Q 156.3 719.9, 154.9 721.7 Q 153.5 723.5, 153.5 726.9 Q 153.5 730.4, 154.9 732.2 Q 156.4 734.0, 159.3 734.0 Q 161.2 734.0, 163.5 732.8 L 164.2 734.7 Q 163.3 735.3, 161.9 735.7 Q 160.5 736.0, 158.9 736.0 Q 155.1 736.0, 153.0 733.7 Q 150.9 731.3, 150.9 726.9 " fill="#000000"/>
<path class="atom-9" d="M 167.8 733.8 L 171.7 733.8 L 171.7 720.6 L 167.4 721.9 L 166.8 720.4 L 172.3 718.0 L 174.0 718.3 L 174.0 733.8 L 177.5 733.8 L 177.5 735.8 L 167.8 735.8 L 167.8 733.8 " fill="#000000"/>
<path class="atom-9" d="M 186.3 736.0 Q 183.0 736.0, 181.4 733.6 Q 179.8 731.2, 179.8 726.9 Q 179.8 722.6, 181.4 720.3 Q 183.0 717.9, 186.3 717.9 Q 189.5 717.9, 191.1 720.3 Q 192.7 722.6, 192.7 726.9 Q 192.7 731.2, 191.1 733.6 Q 189.5 736.0, 186.3 736.0 M 186.3 734.0 Q 188.2 734.0, 189.2 732.2 Q 190.2 730.4, 190.2 726.9 Q 190.2 723.4, 189.2 721.7 Q 188.2 719.9, 186.3 719.9 Q 184.4 719.9, 183.3 721.7 Q 182.3 723.4, 182.3 726.9 Q 182.3 730.4, 183.3 732.2 Q 184.4 734.0, 186.3 734.0 " fill="#000000"/>
<path class="atom-10" d="M 285.8 798.6 Q 285.8 794.2, 287.8 791.9 Q 289.9 789.6, 293.8 789.6 Q 297.5 789.6, 299.4 792.2 L 297.8 793.5 Q 296.3 791.7, 293.8 791.7 Q 291.1 791.7, 289.7 793.5 Q 288.3 795.2, 288.3 798.6 Q 288.3 802.1, 289.8 803.9 Q 291.2 805.7, 294.1 805.7 Q 296.0 805.7, 298.3 804.6 L 299.0 806.4 Q 298.1 807.0, 296.7 807.4 Q 295.3 807.7, 293.7 807.7 Q 289.9 807.7, 287.8 805.4 Q 285.8 803.0, 285.8 798.6 " fill="#000000"/>
<path class="atom-10" d="M 302.6 805.5 L 306.4 805.5 L 306.4 792.3 L 302.2 793.6 L 301.6 792.1 L 307.0 789.7 L 308.8 790.0 L 308.8 805.5 L 312.3 805.5 L 312.3 807.5 L 302.6 807.5 L 302.6 805.5 " fill="#000000"/>
<path class="atom-10" d="M 315.4 805.5 L 319.3 805.5 L 319.3 792.3 L 315.0 793.6 L 314.5 792.1 L 319.9 789.7 L 321.7 790.0 L 321.7 805.5 L 325.1 805.5 L 325.1 807.5 L 315.4 807.5 L 315.4 805.5 " fill="#000000"/>
<path class="atom-11" d="M 387.9 734.0 Q 387.9 729.6, 390.0 727.3 Q 392.1 725.0, 396.0 725.0 Q 399.6 725.0, 401.6 727.6 L 399.9 728.9 Q 398.5 727.1, 396.0 727.1 Q 393.3 727.1, 391.9 728.9 Q 390.5 730.6, 390.5 734.0 Q 390.5 737.5, 391.9 739.3 Q 393.4 741.1, 396.3 741.1 Q 398.2 741.1, 400.5 740.0 L 401.2 741.8 Q 400.3 742.4, 398.9 742.8 Q 397.5 743.1, 395.9 743.1 Q 392.1 743.1, 390.0 740.8 Q 387.9 738.4, 387.9 734.0 " fill="#000000"/>
<path class="atom-11" d="M 404.8 740.9 L 408.7 740.9 L 408.7 727.7 L 404.4 729.0 L 403.8 727.5 L 409.2 725.1 L 411.0 725.4 L 411.0 740.9 L 414.5 740.9 L 414.5 742.9 L 404.8 742.9 L 404.8 740.9 " fill="#000000"/>
<path class="atom-11" d="M 416.8 728.6 Q 417.4 726.9, 419.0 726.0 Q 420.5 725.0, 422.7 725.0 Q 425.4 725.0, 426.9 726.5 Q 428.4 727.9, 428.4 730.5 Q 428.4 733.1, 426.4 735.6 Q 424.5 738.0, 420.5 740.9 L 428.7 740.9 L 428.7 742.9 L 416.7 742.9 L 416.7 741.2 Q 420.0 738.9, 422.0 737.1 Q 424.0 735.4, 424.9 733.8 Q 425.9 732.2, 425.9 730.6 Q 425.9 728.9, 425.0 728.0 Q 424.2 727.0, 422.7 727.0 Q 421.3 727.0, 420.3 727.6 Q 419.4 728.2, 418.7 729.4 L 416.8 728.6 " fill="#000000"/>
<path class="atom-12" d="M 518.9 791.8 Q 518.9 787.4, 521.0 785.1 Q 523.0 782.7, 527.0 782.7 Q 530.6 782.7, 532.6 785.3 L 530.9 786.7 Q 529.5 784.8, 527.0 784.8 Q 524.3 784.8, 522.9 786.6 Q 521.5 788.4, 521.5 791.8 Q 521.5 795.3, 522.9 797.1 Q 524.4 798.9, 527.2 798.9 Q 529.2 798.9, 531.5 797.7 L 532.2 799.6 Q 531.2 800.2, 529.8 800.5 Q 528.4 800.9, 526.9 800.9 Q 523.0 800.9, 521.0 798.5 Q 518.9 796.2, 518.9 791.8 " fill="#000000"/>
<path class="atom-12" d="M 535.7 798.6 L 539.6 798.6 L 539.6 785.4 L 535.3 786.7 L 534.8 785.3 L 540.2 782.8 L 542.0 783.1 L 542.0 798.6 L 545.4 798.6 L 545.4 800.6 L 535.7 800.6 L 535.7 798.6 " fill="#000000"/>
<path class="atom-12" d="M 556.2 791.3 Q 557.9 791.8, 558.7 792.9 Q 559.6 794.0, 559.6 795.8 Q 559.6 797.3, 558.8 798.5 Q 558.1 799.6, 556.7 800.3 Q 555.3 800.9, 553.5 800.9 Q 551.6 800.9, 550.2 800.2 Q 548.8 799.6, 547.7 798.2 L 549.1 796.8 Q 550.2 798.0, 551.1 798.4 Q 552.1 798.9, 553.5 798.9 Q 555.1 798.9, 556.1 798.0 Q 557.1 797.2, 557.1 795.8 Q 557.1 794.0, 556.1 793.2 Q 555.1 792.3, 552.9 792.3 L 551.6 792.3 L 551.6 790.5 L 552.7 790.5 Q 554.7 790.5, 555.7 789.7 Q 556.7 788.8, 556.7 787.3 Q 556.7 786.1, 555.9 785.4 Q 555.0 784.7, 553.6 784.7 Q 552.1 784.7, 551.2 785.3 Q 550.3 785.8, 549.6 787.1 L 547.8 786.2 Q 548.5 784.7, 550.0 783.7 Q 551.5 782.7, 553.6 782.7 Q 556.2 782.7, 557.7 784.0 Q 559.2 785.2, 559.2 787.3 Q 559.2 788.7, 558.4 789.7 Q 557.7 790.7, 556.2 791.3 " fill="#000000"/>
<path class="atom-13" d="M 699.9 712.1 Q 699.9 707.7, 701.9 705.4 Q 704.0 703.1, 707.9 703.1 Q 711.6 703.1, 713.5 705.6 L 711.9 707.0 Q 710.5 705.1, 707.9 705.1 Q 705.3 705.1, 703.8 706.9 Q 702.4 708.7, 702.4 712.1 Q 702.4 715.6, 703.9 717.4 Q 705.4 719.2, 708.2 719.2 Q 710.2 719.2, 712.4 718.0 L 713.1 719.9 Q 712.2 720.5, 710.8 720.8 Q 709.4 721.2, 707.9 721.2 Q 704.0 721.2, 701.9 718.8 Q 699.9 716.5, 699.9 712.1 " fill="#000000"/>
<path class="atom-13" d="M 716.8 719.0 L 720.7 719.0 L 720.7 705.7 L 716.4 707.1 L 715.8 705.6 L 721.2 703.2 L 723.0 703.5 L 723.0 719.0 L 726.5 719.0 L 726.5 721.0 L 716.8 721.0 L 716.8 719.0 " fill="#000000"/>
<path class="atom-13" d="M 740.3 714.9 L 742.4 714.9 L 742.4 716.9 L 740.3 716.9 L 740.3 721.0 L 737.9 721.0 L 737.9 716.9 L 728.8 716.9 L 728.8 715.3 L 736.5 703.3 L 740.3 703.3 L 740.3 714.9 M 731.7 714.9 L 737.9 714.9 L 737.9 704.9 L 731.7 714.9 " fill="#000000"/>
<path class="atom-14" d="M 622.9 726.3 L 628.7 735.7 Q 629.3 736.6, 630.2 738.3 Q 631.1 740.0, 631.2 740.1 L 631.2 726.3 L 633.5 726.3 L 633.5 744.0 L 631.1 744.0 L 624.9 733.8 Q 624.2 732.6, 623.4 731.2 Q 622.6 729.8, 622.4 729.4 L 622.4 744.0 L 620.1 744.0 L 620.1 726.3 L 622.9 726.3 " fill="#0000FF"/>
<path class="atom-14" d="M 637.8 742.0 L 641.7 742.0 L 641.7 728.8 L 637.4 730.1 L 636.8 728.6 L 642.2 726.2 L 644.0 726.5 L 644.0 742.0 L 647.5 742.0 L 647.5 744.0 L 637.8 744.0 L 637.8 742.0 " fill="#0000FF"/>
<path class="atom-14" d="M 656.2 732.9 Q 657.7 732.9, 659.0 733.6 Q 660.3 734.3, 661.0 735.5 Q 661.7 736.7, 661.7 738.4 Q 661.7 740.2, 660.8 741.6 Q 659.9 742.9, 658.5 743.5 Q 657.0 744.2, 655.4 744.2 Q 653.8 744.2, 652.3 743.6 Q 650.8 743.0, 649.7 741.9 L 651.2 740.3 Q 652.1 741.2, 653.2 741.7 Q 654.3 742.2, 655.5 742.2 Q 657.0 742.2, 658.1 741.2 Q 659.2 740.2, 659.2 738.5 Q 659.2 736.6, 658.1 735.7 Q 657.0 734.8, 655.3 734.8 Q 653.8 734.8, 652.0 735.5 L 650.7 734.8 L 651.5 726.3 L 660.6 726.3 L 660.4 728.3 L 653.6 728.3 L 653.0 733.6 Q 654.6 732.9, 656.2 732.9 " fill="#0000FF"/>
<path class="atom-15" d="M 492.0 536.4 Q 492.0 532.0, 494.1 529.7 Q 496.1 527.3, 500.1 527.3 Q 503.7 527.3, 505.7 529.9 L 504.0 531.3 Q 502.6 529.4, 500.1 529.4 Q 497.4 529.4, 496.0 531.2 Q 494.6 533.0, 494.6 536.4 Q 494.6 539.9, 496.0 541.7 Q 497.5 543.5, 500.3 543.5 Q 502.3 543.5, 504.6 542.3 L 505.3 544.2 Q 504.3 544.8, 502.9 545.1 Q 501.5 545.5, 500.0 545.5 Q 496.1 545.5, 494.1 543.1 Q 492.0 540.8, 492.0 536.4 " fill="#000000"/>
<path class="atom-15" d="M 508.9 543.2 L 512.7 543.2 L 512.7 530.0 L 508.5 531.3 L 507.9 529.9 L 513.3 527.4 L 515.1 527.7 L 515.1 543.2 L 518.6 543.2 L 518.6 545.2 L 508.9 545.2 L 508.9 543.2 " fill="#000000"/>
<path class="atom-15" d="M 527.7 534.2 Q 529.3 534.2, 530.5 534.9 Q 531.7 535.5, 532.4 536.8 Q 533.1 538.0, 533.1 539.5 Q 533.1 541.3, 532.3 542.6 Q 531.6 543.9, 530.2 544.7 Q 528.9 545.4, 527.1 545.4 Q 524.0 545.4, 522.4 543.3 Q 520.8 541.2, 520.8 536.9 Q 520.8 532.2, 522.8 529.8 Q 524.7 527.3, 528.5 527.3 Q 529.6 527.3, 530.5 527.6 Q 531.5 527.8, 532.4 528.4 L 531.4 530.0 Q 530.1 529.3, 528.5 529.3 Q 526.0 529.3, 524.8 531.0 Q 523.5 532.6, 523.3 535.9 Q 524.2 535.1, 525.4 534.6 Q 526.5 534.2, 527.7 534.2 M 527.2 543.4 Q 528.1 543.4, 528.9 542.9 Q 529.7 542.4, 530.1 541.5 Q 530.6 540.6, 530.6 539.6 Q 530.6 538.0, 529.7 537.1 Q 528.8 536.2, 527.3 536.2 Q 526.2 536.2, 525.1 536.6 Q 524.1 537.1, 523.3 537.8 Q 523.4 540.7, 524.4 542.1 Q 525.3 543.4, 527.2 543.4 " fill="#000000"/>
<path class="atom-16" d="M 612.8 609.2 Q 612.8 604.8, 614.9 602.5 Q 617.0 600.2, 620.9 600.2 Q 624.5 600.2, 626.5 602.8 L 624.8 604.1 Q 623.4 602.3, 620.9 602.3 Q 618.2 602.3, 616.8 604.1 Q 615.4 605.8, 615.4 609.2 Q 615.4 612.7, 616.8 614.5 Q 618.3 616.3, 621.2 616.3 Q 623.1 616.3, 625.4 615.2 L 626.1 617.0 Q 625.2 617.6, 623.8 618.0 Q 622.4 618.3, 620.8 618.3 Q 617.0 618.3, 614.9 616.0 Q 612.8 613.6, 612.8 609.2 " fill="#000000"/>
<path class="atom-16" d="M 629.7 616.1 L 633.5 616.1 L 633.5 602.9 L 629.3 604.2 L 628.7 602.7 L 634.1 600.3 L 635.9 600.6 L 635.9 616.1 L 639.4 616.1 L 639.4 618.1 L 629.7 618.1 L 629.7 616.1 " fill="#000000"/>
<path class="atom-16" d="M 650.9 602.4 L 641.6 602.4 L 641.6 600.4 L 653.4 600.4 L 653.4 602.2 L 646.2 618.1 L 643.8 618.1 L 650.9 602.4 " fill="#000000"/>
<path class="atom-17" d="M 640.2 898.1 Q 640.2 893.7, 642.3 891.4 Q 644.3 889.1, 648.3 889.1 Q 651.9 889.1, 653.9 891.7 L 652.2 893.0 Q 650.8 891.1, 648.3 891.1 Q 645.6 891.1, 644.2 892.9 Q 642.8 894.7, 642.8 898.1 Q 642.8 901.6, 644.2 903.4 Q 645.7 905.2, 648.5 905.2 Q 650.5 905.2, 652.8 904.0 L 653.5 905.9 Q 652.5 906.5, 651.1 906.9 Q 649.7 907.2, 648.2 907.2 Q 644.3 907.2, 642.3 904.9 Q 640.2 902.5, 640.2 898.1 " fill="#000000"/>
<path class="atom-17" d="M 657.1 905.0 L 660.9 905.0 L 660.9 891.8 L 656.7 893.1 L 656.1 891.6 L 661.5 889.2 L 663.3 889.5 L 663.3 905.0 L 666.8 905.0 L 666.8 907.0 L 657.1 907.0 L 657.1 905.0 " fill="#000000"/>
<path class="atom-17" d="M 678.1 897.6 Q 679.7 898.3, 680.6 899.4 Q 681.5 900.4, 681.5 902.1 Q 681.5 903.6, 680.8 904.8 Q 680.0 906.0, 678.6 906.6 Q 677.2 907.2, 675.4 907.2 Q 672.4 907.2, 670.7 905.9 Q 669.0 904.5, 669.0 902.1 Q 669.0 900.7, 669.8 899.6 Q 670.5 898.5, 672.1 897.7 Q 670.9 897.0, 670.3 896.1 Q 669.7 895.1, 669.7 893.6 Q 669.7 891.5, 671.2 890.3 Q 672.7 889.1, 675.3 889.1 Q 677.9 889.1, 679.4 890.3 Q 680.9 891.5, 680.9 893.6 Q 680.9 894.9, 680.2 895.9 Q 679.5 896.8, 678.1 897.6 M 675.3 891.0 Q 673.8 891.0, 673.0 891.7 Q 672.2 892.4, 672.2 893.6 Q 672.2 894.5, 672.7 895.2 Q 673.3 895.8, 674.1 896.1 Q 674.9 896.5, 676.4 897.0 Q 677.5 896.2, 677.9 895.4 Q 678.4 894.6, 678.4 893.6 Q 678.4 892.4, 677.6 891.7 Q 676.8 891.0, 675.3 891.0 M 675.4 905.4 Q 677.0 905.4, 678.0 904.5 Q 679.0 903.6, 679.0 902.1 Q 679.0 901.2, 678.5 900.6 Q 678.0 900.0, 677.2 899.6 Q 676.4 899.3, 675.0 898.8 L 673.9 898.4 Q 672.6 899.2, 672.1 900.1 Q 671.5 901.0, 671.5 902.1 Q 671.5 903.6, 672.6 904.5 Q 673.6 905.4, 675.4 905.4 " fill="#000000"/>
<path class="atom-18" d="M 642.8 168.1 Q 642.8 163.8, 644.9 161.4 Q 647.0 159.1, 650.9 159.1 Q 654.8 159.1, 656.9 161.4 Q 659.0 163.8, 659.0 168.1 Q 659.0 172.4, 656.9 174.8 Q 654.8 177.2, 650.9 177.2 Q 647.0 177.2, 644.9 174.8 Q 642.8 172.4, 642.8 168.1 M 650.9 175.2 Q 653.6 175.2, 655.0 173.4 Q 656.5 171.6, 656.5 168.1 Q 656.5 164.6, 655.0 162.8 Q 653.6 161.1, 650.9 161.1 Q 648.2 161.1, 646.7 162.8 Q 645.3 164.6, 645.3 168.1 Q 645.3 171.6, 646.7 173.4 Q 648.2 175.2, 650.9 175.2 " fill="#FF0000"/>
<path class="atom-18" d="M 662.6 175.0 L 666.4 175.0 L 666.4 161.7 L 662.2 163.1 L 661.6 161.6 L 667.0 159.2 L 668.8 159.5 L 668.8 175.0 L 672.3 175.0 L 672.3 177.0 L 662.6 177.0 L 662.6 175.0 " fill="#FF0000"/>
<path class="atom-18" d="M 680.6 159.1 Q 683.7 159.1, 685.3 161.2 Q 686.9 163.3, 686.9 167.6 Q 686.9 172.3, 684.9 174.7 Q 683.0 177.2, 679.2 177.2 Q 678.1 177.2, 677.1 176.9 Q 676.2 176.7, 675.3 176.1 L 676.3 174.5 Q 677.6 175.2, 679.2 175.2 Q 681.7 175.2, 682.9 173.6 Q 684.2 171.9, 684.4 168.6 Q 683.5 169.4, 682.3 169.9 Q 681.2 170.3, 680.0 170.3 Q 678.4 170.3, 677.2 169.6 Q 676.0 169.0, 675.3 167.7 Q 674.6 166.5, 674.6 165.0 Q 674.6 163.2, 675.4 161.9 Q 676.1 160.6, 677.5 159.8 Q 678.8 159.1, 680.6 159.1 M 677.1 164.9 Q 677.1 166.5, 678.0 167.4 Q 678.9 168.3, 680.4 168.3 Q 681.5 168.3, 682.5 167.9 Q 683.6 167.4, 684.4 166.7 Q 684.3 163.8, 683.3 162.4 Q 682.4 161.1, 680.5 161.1 Q 679.6 161.1, 678.8 161.6 Q 678.0 162.1, 677.6 163.0 Q 677.1 163.9, 677.1 164.9 " fill="#FF0000"/>
<path class="atom-19" d="M 761.8 69.9 Q 761.8 65.5, 763.9 63.2 Q 766.0 60.9, 769.9 60.9 Q 773.5 60.9, 775.5 63.5 L 773.8 64.8 Q 772.4 62.9, 769.9 62.9 Q 767.2 62.9, 765.8 64.7 Q 764.4 66.5, 764.4 69.9 Q 764.4 73.4, 765.8 75.2 Q 767.3 77.0, 770.2 77.0 Q 772.1 77.0, 774.4 75.8 L 775.1 77.7 Q 774.2 78.3, 772.8 78.7 Q 771.4 79.0, 769.8 79.0 Q 766.0 79.0, 763.9 76.7 Q 761.8 74.3, 761.8 69.9 " fill="#000000"/>
<path class="atom-19" d="M 777.8 64.4 Q 778.5 62.8, 780.0 61.8 Q 781.6 60.9, 783.7 60.9 Q 786.4 60.9, 787.9 62.3 Q 789.4 63.8, 789.4 66.4 Q 789.4 69.0, 787.5 71.4 Q 785.5 73.9, 781.5 76.8 L 789.7 76.8 L 789.7 78.8 L 777.8 78.8 L 777.8 77.1 Q 781.1 74.8, 783.0 73.0 Q 785.0 71.3, 786.0 69.7 Q 786.9 68.1, 786.9 66.5 Q 786.9 64.8, 786.1 63.8 Q 785.2 62.9, 783.7 62.9 Q 782.3 62.9, 781.4 63.5 Q 780.4 64.0, 779.7 65.3 L 777.8 64.4 " fill="#000000"/>
<path class="atom-19" d="M 799.0 79.0 Q 795.7 79.0, 794.1 76.6 Q 792.5 74.2, 792.5 69.9 Q 792.5 65.6, 794.1 63.3 Q 795.7 60.9, 799.0 60.9 Q 802.2 60.9, 803.8 63.3 Q 805.4 65.6, 805.4 69.9 Q 805.4 74.2, 803.8 76.6 Q 802.2 79.0, 799.0 79.0 M 799.0 77.0 Q 800.9 77.0, 801.9 75.2 Q 802.9 73.4, 802.9 69.9 Q 802.9 66.4, 801.9 64.7 Q 800.9 62.9, 799.0 62.9 Q 797.1 62.9, 796.0 64.7 Q 795.0 66.4, 795.0 69.9 Q 795.0 73.4, 796.0 75.2 Q 797.1 77.0, 799.0 77.0 " fill="#000000"/>
<text x="1000" y="50" font-size="8" font-family="Verdana" font-weight="normal" letter-spacing="0" text-anchor="start" fill="black">Highlighted Atoms:
Primary SOM: Red
Secondary SOM: Green
Tertiary SOM: Cyan
</text></svg>
