<?xml version='1.0' encoding='ASCII' standalone='yes'?>
<svg xmlns="http://www.w3.org/2000/svg" xmlns:rdkit="http://www.rdkit.org/xml" xmlns:xlink="http://www.w3.org/1999/xlink" style="background-color: white;" version="1.1" baseProfile="full" xml:space="preserve" width="1000px" height="1000px" viewBox="0 0 1000 1000">
<!-- END OF HEADER -->
<rect style="opacity:1.0;fill:#FFFFFF;stroke:none" width="1000.0" height="1000.0" x="0.0" y="0.0"> </rect>
<ellipse cx="612.1" cy="238.7" rx="34.3" ry="34.3" class="atom-12" style="fill:#B20000;fill-rule:evenodd;stroke:#B20000;stroke-width:1.0px;stroke-linecap:butt;stroke-linejoin:miter;stroke-opacity:1"/>
<path class="bond-0 atom-1 atom-0" d="M 719.5,600.6 L 677.3,674.0" style="fill:none;fill-rule:evenodd;stroke:#000000;stroke-width:2.0px;stroke-linecap:butt;stroke-linejoin:miter;stroke-opacity:1"/>
<path class="bond-0 atom-1 atom-0" d="M 704.7,592.0 L 662.5,665.4" style="fill:none;fill-rule:evenodd;stroke:#000000;stroke-width:2.0px;stroke-linecap:butt;stroke-linejoin:miter;stroke-opacity:1"/>
<path class="bond-1 atom-2 atom-1" d="M 677.2,501.7 L 719.6,574.9" style="fill:none;fill-rule:evenodd;stroke:#000000;stroke-width:2.0px;stroke-linecap:butt;stroke-linejoin:miter;stroke-opacity:1"/>
<path class="bond-2 atom-3 atom-2" d="M 582.0,488.9 L 644.0,488.8" style="fill:none;fill-rule:evenodd;stroke:#000000;stroke-width:2.0px;stroke-linecap:butt;stroke-linejoin:miter;stroke-opacity:1"/>
<path class="bond-2 atom-3 atom-2" d="M 582.0,506.0 L 644.1,505.9" style="fill:none;fill-rule:evenodd;stroke:#000000;stroke-width:2.0px;stroke-linecap:butt;stroke-linejoin:miter;stroke-opacity:1"/>
<path class="bond-3 atom-4 atom-3" d="M 505.6,575.5 L 548.0,501.9" style="fill:none;fill-rule:evenodd;stroke:#000000;stroke-width:2.0px;stroke-linecap:butt;stroke-linejoin:miter;stroke-opacity:1"/>
<path class="bond-4 atom-5 atom-0" d="M 580.9,686.8 L 659.4,686.7" style="fill:none;fill-rule:evenodd;stroke:#000000;stroke-width:2.0px;stroke-linecap:butt;stroke-linejoin:miter;stroke-opacity:1"/>
<path class="bond-5 atom-5 atom-4" d="M 548.4,674.1 L 505.9,600.9" style="fill:none;fill-rule:evenodd;stroke:#000000;stroke-width:2.0px;stroke-linecap:butt;stroke-linejoin:miter;stroke-opacity:1"/>
<path class="bond-5 atom-5 atom-4" d="M 563.2,665.5 L 520.8,592.3" style="fill:none;fill-rule:evenodd;stroke:#000000;stroke-width:2.0px;stroke-linecap:butt;stroke-linejoin:miter;stroke-opacity:1"/>
<path class="bond-6 atom-6 atom-5" d="M 505.6,773.9 L 527.0,736.9" style="fill:none;fill-rule:evenodd;stroke:#00CC00;stroke-width:2.0px;stroke-linecap:butt;stroke-linejoin:miter;stroke-opacity:1"/>
<path class="bond-6 atom-6 atom-5" d="M 527.0,736.9 L 548.3,699.8" style="fill:none;fill-rule:evenodd;stroke:#000000;stroke-width:2.0px;stroke-linecap:butt;stroke-linejoin:miter;stroke-opacity:1"/>
<path class="bond-7 atom-7 atom-3" d="M 494.4,412.7 L 545.2,476.2" style="fill:none;fill-rule:evenodd;stroke:#000000;stroke-width:2.0px;stroke-linecap:butt;stroke-linejoin:miter;stroke-opacity:1"/>
<path class="bond-8 atom-8 atom-2" d="M 730.7,412.0 L 705.0,444.3" style="fill:none;fill-rule:evenodd;stroke:#0000FF;stroke-width:2.0px;stroke-linecap:butt;stroke-linejoin:miter;stroke-opacity:1"/>
<path class="bond-8 atom-8 atom-2" d="M 705.0,444.3 L 679.4,476.5" style="fill:none;fill-rule:evenodd;stroke:#000000;stroke-width:2.0px;stroke-linecap:butt;stroke-linejoin:miter;stroke-opacity:1"/>
<path class="bond-9 atom-9 atom-8" d="M 841.6,422.2 L 796.1,411.9" style="fill:none;fill-rule:evenodd;stroke:#000000;stroke-width:2.0px;stroke-linecap:butt;stroke-linejoin:miter;stroke-opacity:1"/>
<path class="bond-9 atom-9 atom-8" d="M 796.1,411.9 L 750.7,401.6" style="fill:none;fill-rule:evenodd;stroke:#0000FF;stroke-width:2.0px;stroke-linecap:butt;stroke-linejoin:miter;stroke-opacity:1"/>
<path class="bond-10 atom-11 atom-8" d="M 718.1,300.7 L 728.0,343.6" style="fill:none;fill-rule:evenodd;stroke:#000000;stroke-width:2.0px;stroke-linecap:butt;stroke-linejoin:miter;stroke-opacity:1"/>
<path class="bond-10 atom-11 atom-8" d="M 728.0,343.6 L 737.9,386.6" style="fill:none;fill-rule:evenodd;stroke:#0000FF;stroke-width:2.0px;stroke-linecap:butt;stroke-linejoin:miter;stroke-opacity:1"/>
<path class="bond-11 atom-11 atom-10" d="M 730.3,286.8 L 764.1,259.8" style="fill:none;fill-rule:evenodd;stroke:#000000;stroke-width:2.0px;stroke-linecap:butt;stroke-linejoin:miter;stroke-opacity:1"/>
<path class="bond-11 atom-11 atom-10" d="M 764.1,259.8 L 797.9,232.8" style="fill:none;fill-rule:evenodd;stroke:#FF0000;stroke-width:2.0px;stroke-linecap:butt;stroke-linejoin:miter;stroke-opacity:1"/>
<path class="bond-11 atom-11 atom-10" d="M 719.6,273.5 L 753.4,246.4" style="fill:none;fill-rule:evenodd;stroke:#000000;stroke-width:2.0px;stroke-linecap:butt;stroke-linejoin:miter;stroke-opacity:1"/>
<path class="bond-11 atom-11 atom-10" d="M 753.4,246.4 L 787.2,219.4" style="fill:none;fill-rule:evenodd;stroke:#FF0000;stroke-width:2.0px;stroke-linecap:butt;stroke-linejoin:miter;stroke-opacity:1"/>
<path class="bond-12 atom-12 atom-11" d="M 636.3,250.1 L 688.7,275.2" style="fill:none;fill-rule:evenodd;stroke:#000000;stroke-width:2.0px;stroke-linecap:butt;stroke-linejoin:miter;stroke-opacity:1"/>
<path class="bond-13 atom-13 atom-7" d="M 506.4,300.9 L 496.7,344.0" style="fill:none;fill-rule:evenodd;stroke:#0000FF;stroke-width:2.0px;stroke-linecap:butt;stroke-linejoin:miter;stroke-opacity:1"/>
<path class="bond-13 atom-13 atom-7" d="M 496.7,344.0 L 486.9,387.0" style="fill:none;fill-rule:evenodd;stroke:#000000;stroke-width:2.0px;stroke-linecap:butt;stroke-linejoin:miter;stroke-opacity:1"/>
<path class="bond-13 atom-13 atom-7" d="M 523.1,304.7 L 513.4,347.8" style="fill:none;fill-rule:evenodd;stroke:#0000FF;stroke-width:2.0px;stroke-linecap:butt;stroke-linejoin:miter;stroke-opacity:1"/>
<path class="bond-13 atom-13 atom-7" d="M 513.4,347.8 L 503.6,390.8" style="fill:none;fill-rule:evenodd;stroke:#000000;stroke-width:2.0px;stroke-linecap:butt;stroke-linejoin:miter;stroke-opacity:1"/>
<path class="bond-14 atom-13 atom-12" d="M 519.9,283.1 L 553.9,266.7" style="fill:none;fill-rule:evenodd;stroke:#0000FF;stroke-width:2.0px;stroke-linecap:butt;stroke-linejoin:miter;stroke-opacity:1"/>
<path class="bond-14 atom-13 atom-12" d="M 553.9,266.7 L 588.0,250.2" style="fill:none;fill-rule:evenodd;stroke:#000000;stroke-width:2.0px;stroke-linecap:butt;stroke-linejoin:miter;stroke-opacity:1"/>
<path class="bond-15 atom-14 atom-7" d="M 382.4,423.1 L 473.4,402.2" style="fill:none;fill-rule:evenodd;stroke:#000000;stroke-width:2.0px;stroke-linecap:butt;stroke-linejoin:miter;stroke-opacity:1"/>
<path class="bond-16 atom-15 atom-14" d="M 343.0,521.9 L 368.7,438.2" style="fill:none;fill-rule:evenodd;stroke:#000000;stroke-width:2.0px;stroke-linecap:butt;stroke-linejoin:miter;stroke-opacity:1"/>
<path class="bond-16 atom-15 atom-14" d="M 326.7,516.8 L 352.3,433.2" style="fill:none;fill-rule:evenodd;stroke:#000000;stroke-width:2.0px;stroke-linecap:butt;stroke-linejoin:miter;stroke-opacity:1"/>
<path class="bond-17 atom-16 atom-14" d="M 306.6,354.4 L 360.9,412.7" style="fill:none;fill-rule:evenodd;stroke:#000000;stroke-width:2.0px;stroke-linecap:butt;stroke-linejoin:miter;stroke-opacity:1"/>
<path class="bond-18 atom-17 atom-15" d="M 252.2,554.6 L 328.6,537.0" style="fill:none;fill-rule:evenodd;stroke:#000000;stroke-width:2.0px;stroke-linecap:butt;stroke-linejoin:miter;stroke-opacity:1"/>
<path class="bond-19 atom-18 atom-16" d="M 193.3,365.0 L 270.8,347.2" style="fill:none;fill-rule:evenodd;stroke:#000000;stroke-width:2.0px;stroke-linecap:butt;stroke-linejoin:miter;stroke-opacity:1"/>
<path class="bond-19 atom-18 atom-16" d="M 197.2,381.7 L 274.6,363.9" style="fill:none;fill-rule:evenodd;stroke:#000000;stroke-width:2.0px;stroke-linecap:butt;stroke-linejoin:miter;stroke-opacity:1"/>
<path class="bond-20 atom-19 atom-17" d="M 160.2,487.6 L 216.0,547.5" style="fill:none;fill-rule:evenodd;stroke:#000000;stroke-width:2.0px;stroke-linecap:butt;stroke-linejoin:miter;stroke-opacity:1"/>
<path class="bond-20 atom-19 atom-17" d="M 172.7,475.9 L 228.5,535.8" style="fill:none;fill-rule:evenodd;stroke:#000000;stroke-width:2.0px;stroke-linecap:butt;stroke-linejoin:miter;stroke-opacity:1"/>
<path class="bond-21 atom-19 atom-18" d="M 153.8,463.8 L 179.5,380.2" style="fill:none;fill-rule:evenodd;stroke:#000000;stroke-width:2.0px;stroke-linecap:butt;stroke-linejoin:miter;stroke-opacity:1"/>
<path class="atom-0" d="M 663.2 686.8 Q 663.2 682.4, 665.2 680.1 Q 667.3 677.7, 671.2 677.7 Q 674.9 677.7, 676.8 680.3 L 675.2 681.7 Q 673.8 679.8, 671.2 679.8 Q 668.6 679.8, 667.1 681.6 Q 665.7 683.4, 665.7 686.8 Q 665.7 690.3, 667.2 692.1 Q 668.7 693.9, 671.5 693.9 Q 673.5 693.9, 675.7 692.7 L 676.4 694.6 Q 675.5 695.2, 674.1 695.5 Q 672.7 695.9, 671.2 695.9 Q 667.3 695.9, 665.2 693.5 Q 663.2 691.2, 663.2 686.8 " fill="#000000"/>
<path class="atom-0" d="M 680.0 693.6 L 683.9 693.6 L 683.9 680.4 L 679.6 681.7 L 679.0 680.3 L 684.5 677.8 L 686.2 678.1 L 686.2 693.6 L 689.7 693.6 L 689.7 695.6 L 680.0 695.6 L 680.0 693.6 " fill="#000000"/>
<path class="atom-1" d="M 720.2 587.7 Q 720.2 583.3, 722.2 581.0 Q 724.3 578.7, 728.2 578.7 Q 731.9 578.7, 733.8 581.3 L 732.2 582.6 Q 730.7 580.7, 728.2 580.7 Q 725.5 580.7, 724.1 582.5 Q 722.7 584.3, 722.7 587.7 Q 722.7 591.2, 724.2 593.0 Q 725.6 594.8, 728.5 594.8 Q 730.4 594.8, 732.7 593.6 L 733.4 595.5 Q 732.5 596.1, 731.1 596.5 Q 729.7 596.8, 728.1 596.8 Q 724.3 596.8, 722.2 594.5 Q 720.2 592.1, 720.2 587.7 " fill="#000000"/>
<path class="atom-1" d="M 736.1 582.2 Q 736.8 580.6, 738.3 579.6 Q 739.9 578.7, 742.0 578.7 Q 744.7 578.7, 746.2 580.1 Q 747.7 581.6, 747.7 584.2 Q 747.7 586.8, 745.8 589.2 Q 743.8 591.7, 739.8 594.6 L 748.0 594.6 L 748.0 596.6 L 736.1 596.6 L 736.1 594.9 Q 739.4 592.6, 741.3 590.8 Q 743.3 589.1, 744.3 587.5 Q 745.2 585.9, 745.2 584.3 Q 745.2 582.6, 744.4 581.6 Q 743.5 580.7, 742.0 580.7 Q 740.6 580.7, 739.7 581.3 Q 738.7 581.8, 738.0 583.1 L 736.1 582.2 " fill="#000000"/>
<path class="atom-2" d="M 647.8 488.8 Q 647.8 484.4, 649.9 482.1 Q 651.9 479.8, 655.9 479.8 Q 659.5 479.8, 661.5 482.4 L 659.8 483.7 Q 658.4 481.9, 655.9 481.9 Q 653.2 481.9, 651.8 483.7 Q 650.4 485.4, 650.4 488.8 Q 650.4 492.3, 651.8 494.1 Q 653.3 495.9, 656.1 495.9 Q 658.1 495.9, 660.4 494.8 L 661.1 496.6 Q 660.1 497.2, 658.7 497.6 Q 657.3 497.9, 655.8 497.9 Q 651.9 497.9, 649.9 495.6 Q 647.8 493.2, 647.8 488.8 " fill="#000000"/>
<path class="atom-2" d="M 672.2 488.4 Q 674.0 488.9, 674.8 490.0 Q 675.6 491.1, 675.6 492.9 Q 675.6 494.4, 674.9 495.5 Q 674.1 496.7, 672.8 497.3 Q 671.4 498.0, 669.6 498.0 Q 667.7 498.0, 666.3 497.3 Q 664.9 496.6, 663.7 495.3 L 665.2 493.8 Q 666.3 495.0, 667.2 495.5 Q 668.1 496.0, 669.6 496.0 Q 671.2 496.0, 672.2 495.1 Q 673.1 494.2, 673.1 492.8 Q 673.1 491.0, 672.1 490.2 Q 671.1 489.4, 668.9 489.4 L 667.7 489.4 L 667.7 487.6 L 668.8 487.6 Q 670.7 487.6, 671.7 486.8 Q 672.8 485.9, 672.8 484.3 Q 672.8 483.2, 671.9 482.5 Q 671.1 481.8, 669.6 481.8 Q 668.1 481.8, 667.2 482.3 Q 666.3 482.9, 665.6 484.2 L 663.9 483.3 Q 664.5 481.8, 666.0 480.8 Q 667.5 479.8, 669.6 479.8 Q 672.2 479.8, 673.7 481.0 Q 675.3 482.3, 675.3 484.3 Q 675.3 485.8, 674.5 486.8 Q 673.7 487.8, 672.2 488.4 " fill="#000000"/>
<path class="atom-3" d="M 548.6 489.0 Q 548.6 484.6, 550.6 482.3 Q 552.7 480.0, 556.6 480.0 Q 560.3 480.0, 562.2 482.6 L 560.6 483.9 Q 559.2 482.0, 556.6 482.0 Q 554.0 482.0, 552.5 483.8 Q 551.1 485.6, 551.1 489.0 Q 551.1 492.5, 552.6 494.3 Q 554.1 496.1, 556.9 496.1 Q 558.9 496.1, 561.1 494.9 L 561.8 496.8 Q 560.9 497.4, 559.5 497.8 Q 558.1 498.1, 556.6 498.1 Q 552.7 498.1, 550.6 495.8 Q 548.6 493.4, 548.6 489.0 " fill="#000000"/>
<path class="atom-3" d="M 576.1 491.8 L 578.2 491.8 L 578.2 493.8 L 576.1 493.8 L 576.1 497.9 L 573.8 497.9 L 573.8 493.8 L 564.6 493.8 L 564.6 492.2 L 572.4 480.2 L 576.1 480.2 L 576.1 491.8 M 567.5 491.8 L 573.8 491.8 L 573.8 481.8 L 567.5 491.8 " fill="#000000"/>
<path class="atom-4" d="M 476.5 588.1 Q 476.5 583.7, 478.6 581.4 Q 480.6 579.0, 484.6 579.0 Q 488.2 579.0, 490.2 581.6 L 488.5 583.0 Q 487.1 581.1, 484.6 581.1 Q 481.9 581.1, 480.5 582.9 Q 479.1 584.7, 479.1 588.1 Q 479.1 591.6, 480.5 593.4 Q 482.0 595.2, 484.8 595.2 Q 486.8 595.2, 489.1 594.0 L 489.8 595.9 Q 488.8 596.5, 487.4 596.8 Q 486.0 597.2, 484.5 597.2 Q 480.6 597.2, 478.6 594.8 Q 476.5 592.5, 476.5 588.1 " fill="#000000"/>
<path class="atom-4" d="M 498.9 585.9 Q 500.4 585.9, 501.7 586.5 Q 503.0 587.2, 503.7 588.4 Q 504.4 589.7, 504.4 591.3 Q 504.4 593.2, 503.5 594.5 Q 502.7 595.8, 501.2 596.5 Q 499.8 597.1, 498.1 597.1 Q 496.5 597.1, 495.0 596.5 Q 493.5 595.9, 492.5 594.8 L 494.0 593.2 Q 494.8 594.1, 495.9 594.6 Q 497.0 595.1, 498.2 595.1 Q 499.8 595.1, 500.8 594.1 Q 501.9 593.2, 501.9 591.4 Q 501.9 589.5, 500.8 588.6 Q 499.8 587.7, 498.0 587.7 Q 496.5 587.7, 494.8 588.4 L 493.4 587.8 L 494.2 579.2 L 503.3 579.2 L 503.1 581.2 L 496.3 581.2 L 495.8 586.5 Q 497.3 585.9, 498.9 585.9 " fill="#000000"/>
<path class="atom-5" d="M 548.9 686.9 Q 548.9 682.5, 551.0 680.2 Q 553.0 677.9, 557.0 677.9 Q 560.6 677.9, 562.6 680.5 L 560.9 681.8 Q 559.5 680.0, 557.0 680.0 Q 554.3 680.0, 552.9 681.8 Q 551.5 683.5, 551.5 686.9 Q 551.5 690.4, 552.9 692.2 Q 554.4 694.0, 557.2 694.0 Q 559.2 694.0, 561.5 692.9 L 562.2 694.7 Q 561.2 695.3, 559.8 695.7 Q 558.4 696.0, 556.9 696.0 Q 553.0 696.0, 551.0 693.7 Q 548.9 691.3, 548.9 686.9 " fill="#000000"/>
<path class="atom-5" d="M 571.8 684.8 Q 573.3 684.8, 574.6 685.4 Q 575.8 686.1, 576.5 687.3 Q 577.1 688.6, 577.1 690.1 Q 577.1 691.8, 576.4 693.2 Q 575.6 694.5, 574.3 695.3 Q 572.9 696.0, 571.2 696.0 Q 568.0 696.0, 566.4 693.9 Q 564.9 691.7, 564.9 687.5 Q 564.9 682.8, 566.8 680.4 Q 568.8 677.9, 572.6 677.9 Q 573.7 677.9, 574.6 678.2 Q 575.5 678.4, 576.4 678.9 L 575.5 680.6 Q 574.2 679.9, 572.6 679.9 Q 570.1 679.9, 568.8 681.5 Q 567.5 683.1, 567.4 686.5 Q 568.3 685.6, 569.4 685.2 Q 570.6 684.8, 571.8 684.8 M 571.2 694.0 Q 572.2 694.0, 572.9 693.5 Q 573.7 693.0, 574.2 692.1 Q 574.6 691.2, 574.6 690.1 Q 574.6 688.6, 573.8 687.7 Q 572.9 686.8, 571.3 686.8 Q 570.3 686.8, 569.2 687.2 Q 568.1 687.6, 567.4 688.4 Q 567.5 691.3, 568.4 692.6 Q 569.3 694.0, 571.2 694.0 " fill="#000000"/>
<path class="atom-6" d="M 471.9 786.5 Q 471.9 782.1, 474.0 779.8 Q 476.0 777.5, 480.0 777.5 Q 483.6 777.5, 485.6 780.1 L 483.9 781.4 Q 482.5 779.5, 480.0 779.5 Q 477.3 779.5, 475.9 781.3 Q 474.5 783.1, 474.5 786.5 Q 474.5 790.0, 475.9 791.8 Q 477.4 793.6, 480.2 793.6 Q 482.2 793.6, 484.5 792.4 L 485.2 794.3 Q 484.2 794.9, 482.8 795.3 Q 481.4 795.6, 479.9 795.6 Q 476.0 795.6, 474.0 793.3 Q 471.9 790.9, 471.9 786.5 " fill="#00CC00"/>
<path class="atom-6" d="M 487.5 776.4 L 489.8 776.4 L 489.8 795.4 L 487.5 795.4 L 487.5 776.4 " fill="#00CC00"/>
<path class="atom-6" d="M 502.1 779.7 L 492.9 779.7 L 492.9 777.7 L 504.6 777.7 L 504.6 779.5 L 497.5 795.4 L 495.1 795.4 L 502.1 779.7 " fill="#00CC00"/>
<path class="atom-7" d="M 477.2 399.8 Q 477.2 395.4, 479.3 393.1 Q 481.3 390.8, 485.3 390.8 Q 488.9 390.8, 490.9 393.3 L 489.2 394.7 Q 487.8 392.8, 485.3 392.8 Q 482.6 392.8, 481.2 394.6 Q 479.8 396.4, 479.8 399.8 Q 479.8 403.3, 481.2 405.1 Q 482.7 406.9, 485.5 406.9 Q 487.5 406.9, 489.8 405.7 L 490.5 407.6 Q 489.5 408.2, 488.1 408.5 Q 486.7 408.9, 485.2 408.9 Q 481.3 408.9, 479.3 406.5 Q 477.2 404.2, 477.2 399.8 " fill="#000000"/>
<path class="atom-7" d="M 502.2 399.3 Q 503.8 400.0, 504.7 401.0 Q 505.7 402.1, 505.7 403.8 Q 505.7 405.3, 504.9 406.5 Q 504.1 407.6, 502.7 408.3 Q 501.3 408.9, 499.5 408.9 Q 496.6 408.9, 494.9 407.6 Q 493.2 406.2, 493.2 403.8 Q 493.2 402.4, 493.9 401.3 Q 494.7 400.2, 496.2 399.4 Q 495.1 398.7, 494.4 397.8 Q 493.8 396.8, 493.8 395.3 Q 493.8 393.2, 495.3 392.0 Q 496.8 390.8, 499.4 390.8 Q 502.0 390.8, 503.5 392.0 Q 505.0 393.2, 505.0 395.3 Q 505.0 396.6, 504.3 397.6 Q 503.6 398.5, 502.2 399.3 M 499.4 392.6 Q 497.9 392.6, 497.1 393.3 Q 496.3 394.0, 496.3 395.3 Q 496.3 396.2, 496.9 396.8 Q 497.4 397.4, 498.2 397.8 Q 499.0 398.1, 500.5 398.7 Q 501.6 397.9, 502.0 397.1 Q 502.5 396.3, 502.5 395.3 Q 502.5 394.0, 501.7 393.3 Q 500.9 392.6, 499.4 392.6 M 499.5 407.0 Q 501.2 407.0, 502.2 406.2 Q 503.2 405.3, 503.2 403.8 Q 503.2 402.8, 502.6 402.2 Q 502.1 401.6, 501.3 401.3 Q 500.5 400.9, 499.1 400.5 L 498.0 400.1 Q 496.8 400.9, 496.2 401.8 Q 495.7 402.6, 495.7 403.8 Q 495.7 405.3, 496.7 406.2 Q 497.8 407.0, 499.5 407.0 " fill="#000000"/>
<path class="atom-8" d="M 720.7 390.6 L 726.5 399.9 Q 727.0 400.9, 728.0 402.5 Q 728.9 404.2, 728.9 404.3 L 728.9 390.6 L 731.3 390.6 L 731.3 408.3 L 728.9 408.3 L 722.6 398.0 Q 721.9 396.8, 721.1 395.4 Q 720.4 394.1, 720.2 393.6 L 720.2 408.3 L 717.9 408.3 L 717.9 390.6 L 720.7 390.6 " fill="#0000FF"/>
<path class="atom-8" d="M 740.6 390.4 Q 743.7 390.4, 745.3 392.5 Q 746.9 394.6, 746.9 398.9 Q 746.9 403.6, 744.9 406.0 Q 743.0 408.5, 739.2 408.5 Q 738.1 408.5, 737.2 408.2 Q 736.2 408.0, 735.3 407.4 L 736.3 405.8 Q 737.6 406.5, 739.2 406.5 Q 741.7 406.5, 743.0 404.9 Q 744.2 403.2, 744.4 399.9 Q 743.5 400.7, 742.3 401.2 Q 741.2 401.6, 740.0 401.6 Q 738.4 401.6, 737.2 400.9 Q 736.0 400.3, 735.3 399.0 Q 734.6 397.8, 734.6 396.3 Q 734.6 394.5, 735.4 393.2 Q 736.2 391.9, 737.5 391.1 Q 738.9 390.4, 740.6 390.4 M 737.1 396.2 Q 737.1 397.8, 738.0 398.7 Q 738.9 399.6, 740.4 399.6 Q 741.5 399.6, 742.6 399.2 Q 743.6 398.7, 744.4 398.0 Q 744.3 395.1, 743.4 393.7 Q 742.4 392.4, 740.6 392.4 Q 739.6 392.4, 738.8 392.9 Q 738.0 393.4, 737.6 394.3 Q 737.1 395.2, 737.1 396.2 " fill="#0000FF"/>
<path class="atom-9" d="M 845.4 424.6 Q 845.4 420.2, 847.4 417.9 Q 849.5 415.6, 853.4 415.6 Q 857.1 415.6, 859.0 418.2 L 857.4 419.5 Q 855.9 417.7, 853.4 417.7 Q 850.7 417.7, 849.3 419.5 Q 847.9 421.2, 847.9 424.6 Q 847.9 428.1, 849.4 429.9 Q 850.8 431.7, 853.7 431.7 Q 855.6 431.7, 857.9 430.6 L 858.6 432.4 Q 857.7 433.0, 856.3 433.4 Q 854.9 433.7, 853.3 433.7 Q 849.5 433.7, 847.4 431.4 Q 845.4 429.0, 845.4 424.6 " fill="#000000"/>
<path class="atom-9" d="M 862.2 431.5 L 866.1 431.5 L 866.1 418.3 L 861.8 419.6 L 861.3 418.1 L 866.7 415.7 L 868.5 416.0 L 868.5 431.5 L 871.9 431.5 L 871.9 433.5 L 862.2 433.5 L 862.2 431.5 " fill="#000000"/>
<path class="atom-9" d="M 880.7 433.7 Q 877.5 433.7, 875.8 431.3 Q 874.2 428.9, 874.2 424.6 Q 874.2 420.4, 875.8 418.0 Q 877.4 415.6, 880.7 415.6 Q 884.0 415.6, 885.6 418.0 Q 887.2 420.4, 887.2 424.6 Q 887.2 428.9, 885.6 431.3 Q 884.0 433.7, 880.7 433.7 M 880.7 431.7 Q 882.6 431.7, 883.7 429.9 Q 884.7 428.1, 884.7 424.6 Q 884.7 421.2, 883.7 419.4 Q 882.6 417.6, 880.7 417.6 Q 878.8 417.6, 877.8 419.4 Q 876.7 421.2, 876.7 424.6 Q 876.7 428.1, 877.8 429.9 Q 878.8 431.7, 880.7 431.7 " fill="#000000"/>
<path class="atom-10" d="M 796.3 216.6 Q 796.3 212.3, 798.4 210.0 Q 800.5 207.6, 804.4 207.6 Q 808.3 207.6, 810.4 210.0 Q 812.5 212.3, 812.5 216.6 Q 812.5 220.9, 810.4 223.3 Q 808.3 225.8, 804.4 225.8 Q 800.5 225.8, 798.4 223.3 Q 796.3 220.9, 796.3 216.6 M 804.4 223.8 Q 807.1 223.8, 808.6 222.0 Q 810.0 220.1, 810.0 216.6 Q 810.0 213.1, 808.6 211.4 Q 807.1 209.6, 804.4 209.6 Q 801.7 209.6, 800.2 211.3 Q 798.8 213.1, 798.8 216.6 Q 798.8 220.2, 800.2 222.0 Q 801.7 223.8, 804.4 223.8 " fill="#FF0000"/>
<path class="atom-10" d="M 816.0 223.5 L 819.9 223.5 L 819.9 210.3 L 815.6 211.6 L 815.0 210.1 L 820.5 207.7 L 822.2 208.0 L 822.2 223.5 L 825.7 223.5 L 825.7 225.5 L 816.0 225.5 L 816.0 223.5 " fill="#FF0000"/>
<path class="atom-10" d="M 829.0 223.5 L 832.9 223.5 L 832.9 210.3 L 828.6 211.6 L 828.0 210.1 L 833.4 207.7 L 835.2 208.0 L 835.2 223.5 L 838.7 223.5 L 838.7 225.5 L 829.0 225.5 L 829.0 223.5 " fill="#FF0000"/>
<path class="atom-11" d="M 680.4 288.0 Q 680.4 283.6, 682.5 281.3 Q 684.6 279.0, 688.5 279.0 Q 692.1 279.0, 694.1 281.6 L 692.4 282.9 Q 691.0 281.0, 688.5 281.0 Q 685.8 281.0, 684.4 282.8 Q 683.0 284.6, 683.0 288.0 Q 683.0 291.5, 684.4 293.3 Q 685.9 295.1, 688.8 295.1 Q 690.7 295.1, 693.0 293.9 L 693.7 295.8 Q 692.8 296.4, 691.4 296.8 Q 690.0 297.1, 688.4 297.1 Q 684.6 297.1, 682.5 294.8 Q 680.4 292.4, 680.4 288.0 " fill="#000000"/>
<path class="atom-11" d="M 697.3 294.9 L 701.1 294.9 L 701.1 281.7 L 696.9 283.0 L 696.3 281.5 L 701.7 279.1 L 703.5 279.4 L 703.5 294.9 L 707.0 294.9 L 707.0 296.9 L 697.3 296.9 L 697.3 294.9 " fill="#000000"/>
<path class="atom-11" d="M 709.3 282.5 Q 709.9 280.9, 711.5 279.9 Q 713.0 279.0, 715.2 279.0 Q 717.8 279.0, 719.3 280.4 Q 720.8 281.9, 720.8 284.5 Q 720.8 287.1, 718.9 289.5 Q 717.0 292.0, 713.0 294.9 L 721.1 294.9 L 721.1 296.9 L 709.2 296.9 L 709.2 295.2 Q 712.5 292.9, 714.5 291.1 Q 716.4 289.4, 717.4 287.8 Q 718.3 286.2, 718.3 284.6 Q 718.3 282.9, 717.5 281.9 Q 716.6 281.0, 715.2 281.0 Q 713.7 281.0, 712.8 281.6 Q 711.8 282.1, 711.2 283.4 L 709.3 282.5 " fill="#000000"/>
<path class="atom-12" d="M 591.8 238.6 Q 591.8 234.2, 593.8 231.9 Q 595.9 229.6, 599.8 229.6 Q 603.5 229.6, 605.4 232.2 L 603.8 233.5 Q 602.4 231.6, 599.8 231.6 Q 597.2 231.6, 595.7 233.4 Q 594.3 235.2, 594.3 238.6 Q 594.3 242.1, 595.8 243.9 Q 597.3 245.7, 600.1 245.7 Q 602.1 245.7, 604.3 244.5 L 605.0 246.4 Q 604.1 247.0, 602.7 247.4 Q 601.3 247.7, 599.8 247.7 Q 595.9 247.7, 593.8 245.4 Q 591.8 243.0, 591.8 238.6 " fill="#000000"/>
<path class="atom-12" d="M 608.6 245.5 L 612.5 245.5 L 612.5 232.3 L 608.2 233.6 L 607.6 232.1 L 613.1 229.7 L 614.8 230.0 L 614.8 245.5 L 618.3 245.5 L 618.3 247.5 L 608.6 247.5 L 608.6 245.5 " fill="#000000"/>
<path class="atom-12" d="M 629.1 238.2 Q 630.8 238.7, 631.6 239.8 Q 632.5 240.9, 632.5 242.6 Q 632.5 244.1, 631.7 245.3 Q 631.0 246.5, 629.6 247.1 Q 628.2 247.7, 626.4 247.7 Q 624.5 247.7, 623.1 247.1 Q 621.7 246.4, 620.6 245.1 L 622.0 243.6 Q 623.1 244.8, 624.0 245.3 Q 625.0 245.7, 626.4 245.7 Q 628.0 245.7, 629.0 244.9 Q 630.0 244.0, 630.0 242.6 Q 630.0 240.8, 629.0 240.0 Q 628.0 239.2, 625.8 239.2 L 624.5 239.2 L 624.5 237.4 L 625.6 237.4 Q 627.6 237.4, 628.6 236.5 Q 629.6 235.7, 629.6 234.1 Q 629.6 233.0, 628.8 232.3 Q 627.9 231.6, 626.5 231.6 Q 625.0 231.6, 624.1 232.1 Q 623.2 232.6, 622.5 234.0 L 620.7 233.0 Q 621.4 231.6, 622.9 230.6 Q 624.4 229.6, 626.5 229.6 Q 629.1 229.6, 630.6 230.8 Q 632.1 232.0, 632.1 234.1 Q 632.1 235.5, 631.3 236.6 Q 630.6 237.6, 629.1 238.2 " fill="#000000"/>
<path class="atom-13" d="M 475.5 279.5 L 481.3 288.8 Q 481.9 289.8, 482.8 291.4 Q 483.7 293.1, 483.8 293.2 L 483.8 279.5 L 486.1 279.5 L 486.1 297.2 L 483.7 297.2 L 477.5 286.9 Q 476.8 285.7, 476.0 284.3 Q 475.2 283.0, 475.0 282.5 L 475.0 297.2 L 472.7 297.2 L 472.7 279.5 L 475.5 279.5 " fill="#0000FF"/>
<path class="atom-13" d="M 490.5 295.2 L 494.3 295.2 L 494.3 281.9 L 490.1 283.3 L 489.5 281.8 L 494.9 279.4 L 496.7 279.7 L 496.7 295.2 L 500.2 295.2 L 500.2 297.2 L 490.5 297.2 L 490.5 295.2 " fill="#0000FF"/>
<path class="atom-13" d="M 514.0 291.1 L 516.1 291.1 L 516.1 293.1 L 514.0 293.1 L 514.0 297.2 L 511.6 297.2 L 511.6 293.1 L 502.5 293.1 L 502.5 291.5 L 510.2 279.5 L 514.0 279.5 L 514.0 291.1 M 505.4 291.1 L 511.6 291.1 L 511.6 281.1 L 505.4 291.1 " fill="#0000FF"/>
<path class="atom-14" d="M 337.9 425.4 Q 337.9 421.0, 339.9 418.7 Q 342.0 416.4, 345.9 416.4 Q 349.6 416.4, 351.5 418.9 L 349.9 420.3 Q 348.4 418.4, 345.9 418.4 Q 343.2 418.4, 341.8 420.2 Q 340.4 422.0, 340.4 425.4 Q 340.4 428.9, 341.9 430.7 Q 343.3 432.5, 346.2 432.5 Q 348.1 432.5, 350.4 431.3 L 351.1 433.2 Q 350.2 433.8, 348.8 434.1 Q 347.4 434.5, 345.8 434.5 Q 342.0 434.5, 339.9 432.1 Q 337.9 429.8, 337.9 425.4 " fill="#000000"/>
<path class="atom-14" d="M 354.7 432.3 L 358.6 432.3 L 358.6 419.0 L 354.3 420.4 L 353.7 418.9 L 359.2 416.5 L 360.9 416.8 L 360.9 432.3 L 364.4 432.3 L 364.4 434.3 L 354.7 434.3 L 354.7 432.3 " fill="#000000"/>
<path class="atom-14" d="M 373.1 423.2 Q 374.6 423.2, 375.9 423.9 Q 377.2 424.5, 377.9 425.8 Q 378.6 427.0, 378.6 428.7 Q 378.6 430.5, 377.7 431.8 Q 376.9 433.1, 375.4 433.8 Q 374.0 434.5, 372.3 434.5 Q 370.7 434.5, 369.2 433.9 Q 367.7 433.3, 366.7 432.1 L 368.2 430.6 Q 369.0 431.5, 370.1 432.0 Q 371.2 432.4, 372.4 432.4 Q 374.0 432.4, 375.0 431.5 Q 376.1 430.5, 376.1 428.7 Q 376.1 426.8, 375.0 426.0 Q 374.0 425.1, 372.2 425.1 Q 370.7 425.1, 369.0 425.7 L 367.6 425.1 L 368.4 416.6 L 377.5 416.6 L 377.3 418.6 L 370.5 418.6 L 370.0 423.8 Q 371.5 423.2, 373.1 423.2 " fill="#000000"/>
<path class="atom-15" d="M 332.3 534.7 Q 332.3 530.3, 334.4 528.0 Q 336.4 525.6, 340.4 525.6 Q 344.0 525.6, 346.0 528.2 L 344.3 529.6 Q 342.9 527.7, 340.4 527.7 Q 337.7 527.7, 336.3 529.5 Q 334.9 531.3, 334.9 534.7 Q 334.9 538.2, 336.3 540.0 Q 337.8 541.8, 340.6 541.8 Q 342.6 541.8, 344.9 540.6 L 345.6 542.5 Q 344.6 543.1, 343.2 543.4 Q 341.8 543.8, 340.3 543.8 Q 336.4 543.8, 334.4 541.4 Q 332.3 539.1, 332.3 534.7 " fill="#000000"/>
<path class="atom-15" d="M 349.2 541.5 L 353.0 541.5 L 353.0 528.3 L 348.8 529.6 L 348.2 528.2 L 353.6 525.7 L 355.4 526.0 L 355.4 541.5 L 358.9 541.5 L 358.9 543.5 L 349.2 543.5 L 349.2 541.5 " fill="#000000"/>
<path class="atom-15" d="M 368.1 532.5 Q 369.6 532.5, 370.8 533.2 Q 372.1 533.8, 372.7 535.1 Q 373.4 536.3, 373.4 537.8 Q 373.4 539.6, 372.6 540.9 Q 371.9 542.2, 370.5 543.0 Q 369.2 543.7, 367.5 543.7 Q 364.3 543.7, 362.7 541.6 Q 361.1 539.5, 361.1 535.2 Q 361.1 530.5, 363.1 528.1 Q 365.1 525.6, 368.8 525.6 Q 369.9 525.6, 370.9 525.9 Q 371.8 526.1, 372.7 526.7 L 371.7 528.3 Q 370.4 527.6, 368.9 527.6 Q 366.4 527.6, 365.1 529.3 Q 363.8 530.9, 363.7 534.2 Q 364.6 533.4, 365.7 532.9 Q 366.8 532.5, 368.1 532.5 M 367.5 541.7 Q 368.4 541.7, 369.2 541.2 Q 370.0 540.7, 370.5 539.8 Q 370.9 538.9, 370.9 537.9 Q 370.9 536.3, 370.0 535.4 Q 369.2 534.5, 367.6 534.5 Q 366.5 534.5, 365.5 534.9 Q 364.4 535.4, 363.7 536.1 Q 363.8 539.0, 364.7 540.4 Q 365.6 541.7, 367.5 541.7 " fill="#000000"/>
<path class="atom-16" d="M 274.5 341.8 Q 274.5 337.4, 276.6 335.1 Q 278.6 332.7, 282.6 332.7 Q 286.2 332.7, 288.2 335.3 L 286.5 336.7 Q 285.1 334.8, 282.6 334.8 Q 279.9 334.8, 278.5 336.6 Q 277.1 338.4, 277.1 341.8 Q 277.1 345.3, 278.5 347.1 Q 280.0 348.9, 282.8 348.9 Q 284.8 348.9, 287.1 347.7 L 287.8 349.6 Q 286.8 350.2, 285.4 350.5 Q 284.0 350.9, 282.5 350.9 Q 278.6 350.9, 276.6 348.5 Q 274.5 346.2, 274.5 341.8 " fill="#000000"/>
<path class="atom-16" d="M 291.3 348.6 L 295.2 348.6 L 295.2 335.4 L 290.9 336.7 L 290.4 335.3 L 295.8 332.8 L 297.6 333.1 L 297.6 348.6 L 301.0 348.6 L 301.0 350.6 L 291.3 350.6 L 291.3 348.6 " fill="#000000"/>
<path class="atom-16" d="M 312.6 334.9 L 303.3 334.9 L 303.3 332.9 L 315.1 332.9 L 315.1 334.7 L 307.9 350.6 L 305.5 350.6 L 312.6 334.9 " fill="#000000"/>
<path class="atom-17" d="M 207.1 560.3 Q 207.1 555.9, 209.2 553.6 Q 211.3 551.3, 215.2 551.3 Q 218.8 551.3, 220.8 553.8 L 219.1 555.2 Q 217.7 553.3, 215.2 553.3 Q 212.5 553.3, 211.1 555.1 Q 209.7 556.9, 209.7 560.3 Q 209.7 563.8, 211.1 565.6 Q 212.6 567.4, 215.5 567.4 Q 217.4 567.4, 219.7 566.2 L 220.4 568.1 Q 219.5 568.7, 218.1 569.0 Q 216.7 569.4, 215.1 569.4 Q 211.3 569.4, 209.2 567.0 Q 207.1 564.7, 207.1 560.3 " fill="#000000"/>
<path class="atom-17" d="M 224.0 567.2 L 227.9 567.2 L 227.9 553.9 L 223.6 555.3 L 223.0 553.8 L 228.4 551.4 L 230.2 551.7 L 230.2 567.2 L 233.7 567.2 L 233.7 569.2 L 224.0 569.2 L 224.0 567.2 " fill="#000000"/>
<path class="atom-17" d="M 245.0 559.8 Q 246.6 560.5, 247.5 561.5 Q 248.5 562.6, 248.5 564.3 Q 248.5 565.8, 247.7 567.0 Q 246.9 568.1, 245.5 568.8 Q 244.1 569.4, 242.3 569.4 Q 239.4 569.4, 237.7 568.1 Q 236.0 566.7, 236.0 564.3 Q 236.0 562.9, 236.7 561.8 Q 237.5 560.7, 239.0 559.9 Q 237.9 559.2, 237.2 558.3 Q 236.6 557.3, 236.6 555.8 Q 236.6 553.7, 238.1 552.5 Q 239.6 551.3, 242.2 551.3 Q 244.8 551.3, 246.3 552.5 Q 247.8 553.7, 247.8 555.8 Q 247.8 557.1, 247.1 558.1 Q 246.4 559.0, 245.0 559.8 M 242.2 553.1 Q 240.7 553.1, 239.9 553.8 Q 239.1 554.5, 239.1 555.8 Q 239.1 556.7, 239.7 557.3 Q 240.2 557.9, 241.0 558.3 Q 241.8 558.6, 243.3 559.2 Q 244.4 558.4, 244.8 557.6 Q 245.3 556.8, 245.3 555.8 Q 245.3 554.5, 244.5 553.8 Q 243.7 553.1, 242.2 553.1 M 242.3 567.5 Q 244.0 567.5, 245.0 566.7 Q 246.0 565.8, 246.0 564.3 Q 246.0 563.3, 245.4 562.7 Q 244.9 562.1, 244.1 561.8 Q 243.3 561.4, 241.9 561.0 L 240.8 560.6 Q 239.6 561.4, 239.0 562.3 Q 238.5 563.1, 238.5 564.3 Q 238.5 565.8, 239.5 566.7 Q 240.6 567.5, 242.3 567.5 " fill="#000000"/>
<path class="atom-18" d="M 148.5 367.4 Q 148.5 363.0, 150.5 360.7 Q 152.6 358.4, 156.5 358.4 Q 160.2 358.4, 162.1 360.9 L 160.5 362.3 Q 159.0 360.4, 156.5 360.4 Q 153.8 360.4, 152.4 362.2 Q 151.0 364.0, 151.0 367.4 Q 151.0 370.9, 152.5 372.7 Q 153.9 374.5, 156.8 374.5 Q 158.7 374.5, 161.0 373.3 L 161.7 375.2 Q 160.8 375.8, 159.4 376.1 Q 158.0 376.5, 156.4 376.5 Q 152.6 376.5, 150.5 374.1 Q 148.5 371.8, 148.5 367.4 " fill="#000000"/>
<path class="atom-18" d="M 165.3 374.3 L 169.2 374.3 L 169.2 361.0 L 164.9 362.4 L 164.3 360.9 L 169.8 358.5 L 171.5 358.8 L 171.5 374.3 L 175.0 374.3 L 175.0 376.3 L 165.3 376.3 L 165.3 374.3 " fill="#000000"/>
<path class="atom-18" d="M 183.2 358.4 Q 186.4 358.4, 188.0 360.5 Q 189.6 362.6, 189.6 366.9 Q 189.6 371.6, 187.6 374.0 Q 185.6 376.5, 181.9 376.5 Q 180.8 376.5, 179.8 376.2 Q 178.9 376.0, 178.0 375.4 L 179.0 373.8 Q 180.3 374.5, 181.8 374.5 Q 184.3 374.5, 185.6 372.9 Q 186.9 371.2, 187.0 367.9 Q 186.1 368.7, 185.0 369.2 Q 183.9 369.6, 182.6 369.6 Q 181.1 369.6, 179.9 368.9 Q 178.6 368.3, 178.0 367.0 Q 177.3 365.8, 177.3 364.3 Q 177.3 362.5, 178.0 361.2 Q 178.8 359.9, 180.2 359.1 Q 181.5 358.4, 183.2 358.4 M 179.8 364.2 Q 179.8 365.8, 180.7 366.7 Q 181.5 367.6, 183.1 367.6 Q 184.2 367.6, 185.2 367.2 Q 186.3 366.7, 187.0 366.0 Q 186.9 363.1, 186.0 361.7 Q 185.1 360.4, 183.2 360.4 Q 182.3 360.4, 181.5 360.9 Q 180.7 361.4, 180.2 362.3 Q 179.8 363.2, 179.8 364.2 " fill="#000000"/>
<path class="atom-19" d="M 112.8 476.6 Q 112.8 472.2, 114.9 469.9 Q 116.9 467.6, 120.9 467.6 Q 124.5 467.6, 126.5 470.2 L 124.8 471.5 Q 123.4 469.7, 120.9 469.7 Q 118.2 469.7, 116.8 471.5 Q 115.4 473.2, 115.4 476.6 Q 115.4 480.1, 116.8 481.9 Q 118.3 483.7, 121.1 483.7 Q 123.1 483.7, 125.4 482.6 L 126.1 484.4 Q 125.1 485.0, 123.7 485.4 Q 122.3 485.7, 120.8 485.7 Q 116.9 485.7, 114.9 483.4 Q 112.8 481.0, 112.8 476.6 " fill="#000000"/>
<path class="atom-19" d="M 128.8 471.2 Q 129.5 469.5, 131.0 468.6 Q 132.6 467.6, 134.7 467.6 Q 137.4 467.6, 138.9 469.1 Q 140.4 470.5, 140.4 473.1 Q 140.4 475.7, 138.4 478.2 Q 136.5 480.6, 132.5 483.5 L 140.7 483.5 L 140.7 485.5 L 128.8 485.5 L 128.8 483.8 Q 132.1 481.5, 134.0 479.7 Q 136.0 478.0, 136.9 476.4 Q 137.9 474.8, 137.9 473.2 Q 137.9 471.5, 137.0 470.6 Q 136.2 469.6, 134.7 469.6 Q 133.3 469.6, 132.3 470.2 Q 131.4 470.8, 130.7 472.0 L 128.8 471.2 " fill="#000000"/>
<path class="atom-19" d="M 149.9 485.7 Q 146.7 485.7, 145.1 483.3 Q 143.5 480.9, 143.5 476.6 Q 143.5 472.4, 145.1 470.0 Q 146.7 467.6, 149.9 467.6 Q 153.2 467.6, 154.8 470.0 Q 156.4 472.4, 156.4 476.6 Q 156.4 480.9, 154.8 483.3 Q 153.2 485.7, 149.9 485.7 M 149.9 483.7 Q 151.9 483.7, 152.9 481.9 Q 153.9 480.1, 153.9 476.6 Q 153.9 473.2, 152.9 471.4 Q 151.9 469.6, 149.9 469.6 Q 148.0 469.6, 147.0 471.4 Q 146.0 473.2, 146.0 476.6 Q 146.0 480.1, 147.0 481.9 Q 148.0 483.7, 149.9 483.7 " fill="#000000"/>
<text x="1000" y="50" font-size="8" font-family="Verdana" font-weight="normal" letter-spacing="0" text-anchor="start" fill="black">Highlighted Atoms:
Primary SOM: Red
Secondary SOM: Green
Tertiary SOM: Cyan
</text></svg>
