<?xml version='1.0' encoding='ASCII' standalone='yes'?>
<svg xmlns="http://www.w3.org/2000/svg" xmlns:rdkit="http://www.rdkit.org/xml" xmlns:xlink="http://www.w3.org/1999/xlink" style="background-color: white;" version="1.1" baseProfile="full" xml:space="preserve" width="1000px" height="1000px" viewBox="0 0 1000 1000">
<!-- END OF HEADER -->
<rect style="opacity:1.0;fill:#FFFFFF;stroke:none" width="1000.0" height="1000.0" x="0.0" y="0.0"> </rect>
<ellipse cx="820.9" cy="87.5" rx="31.6" ry="24.0" class="atom-47" style="fill:#B20000;fill-rule:evenodd;stroke:#B20000;stroke-width:1.0px;stroke-linecap:butt;stroke-linejoin:miter;stroke-opacity:1"/>
<ellipse cx="650.6" cy="87.9" rx="31.4" ry="24.0" class="atom-48" style="fill:#B20000;fill-rule:evenodd;stroke:#B20000;stroke-width:1.0px;stroke-linecap:butt;stroke-linejoin:miter;stroke-opacity:1"/>
<path class="bond-0 atom-1 atom-0" d="M 797.1,721.6 L 744.8,692.3" style="fill:none;fill-rule:evenodd;stroke:#000000;stroke-width:2.0px;stroke-linecap:butt;stroke-linejoin:miter;stroke-opacity:1"/>
<path class="bond-1 atom-2 atom-0" d="M 735.9,620.0 L 736.7,676.3" style="fill:none;fill-rule:evenodd;stroke:#000000;stroke-width:2.0px;stroke-linecap:butt;stroke-linejoin:miter;stroke-opacity:1"/>
<path class="bond-2 atom-3 atom-2" d="M 675.6,574.2 L 715.2,596.5" style="fill:none;fill-rule:evenodd;stroke:#000000;stroke-width:2.0px;stroke-linecap:butt;stroke-linejoin:miter;stroke-opacity:1"/>
<path class="bond-3 atom-4 atom-1" d="M 807.2,794.9 L 806.7,738.7" style="fill:none;fill-rule:evenodd;stroke:#000000;stroke-width:2.0px;stroke-linecap:butt;stroke-linejoin:miter;stroke-opacity:1"/>
<path class="bond-4 atom-5 atom-4" d="M 755.1,836.8 L 797.8,812.0" style="fill:none;fill-rule:evenodd;stroke:#000000;stroke-width:2.0px;stroke-linecap:butt;stroke-linejoin:miter;stroke-opacity:1"/>
<path class="bond-5 atom-6 atom-3" d="M 666.0,500.6 L 666.1,557.5" style="fill:none;fill-rule:evenodd;stroke:#000000;stroke-width:2.0px;stroke-linecap:butt;stroke-linejoin:miter;stroke-opacity:1"/>
<path class="bond-6 atom-7 atom-6" d="M 606.0,454.0 L 646.1,477.4" style="fill:none;fill-rule:evenodd;stroke:#000000;stroke-width:2.0px;stroke-linecap:butt;stroke-linejoin:miter;stroke-opacity:1"/>
<path class="bond-7 atom-8 atom-5" d="M 689.6,818.7 L 721.6,837.0" style="fill:none;fill-rule:evenodd;stroke:#000000;stroke-width:2.0px;stroke-linecap:butt;stroke-linejoin:miter;stroke-opacity:1"/>
<path class="bond-8 atom-9 atom-8" d="M 668.6,738.9 L 668.8,767.1" style="fill:none;fill-rule:evenodd;stroke:#FF0000;stroke-width:2.0px;stroke-linecap:butt;stroke-linejoin:miter;stroke-opacity:1"/>
<path class="bond-8 atom-9 atom-8" d="M 668.8,767.1 L 668.9,795.3" style="fill:none;fill-rule:evenodd;stroke:#000000;stroke-width:2.0px;stroke-linecap:butt;stroke-linejoin:miter;stroke-opacity:1"/>
<path class="bond-9 atom-10 atom-7" d="M 536.0,484.3 L 576.7,460.7" style="fill:none;fill-rule:evenodd;stroke:#000000;stroke-width:2.0px;stroke-linecap:butt;stroke-linejoin:miter;stroke-opacity:1"/>
<path class="bond-10 atom-11 atom-10" d="M 528.5,557.1 L 528.1,500.5" style="fill:none;fill-rule:evenodd;stroke:#000000;stroke-width:2.0px;stroke-linecap:butt;stroke-linejoin:miter;stroke-opacity:1"/>
<path class="bond-11 atom-12 atom-9" d="M 607.5,692.7 L 632.6,706.8" style="fill:none;fill-rule:evenodd;stroke:#000000;stroke-width:2.0px;stroke-linecap:butt;stroke-linejoin:miter;stroke-opacity:1"/>
<path class="bond-11 atom-12 atom-9" d="M 632.6,706.8 L 657.8,721.0" style="fill:none;fill-rule:evenodd;stroke:#FF0000;stroke-width:2.0px;stroke-linecap:butt;stroke-linejoin:miter;stroke-opacity:1"/>
<path class="bond-12 atom-13 atom-11" d="M 588.7,602.7 L 537.2,573.6" style="fill:none;fill-rule:evenodd;stroke:#000000;stroke-width:2.0px;stroke-linecap:butt;stroke-linejoin:miter;stroke-opacity:1"/>
<path class="bond-13 atom-13 atom-12" d="M 598.3,619.9 L 598.8,676.2" style="fill:none;fill-rule:evenodd;stroke:#000000;stroke-width:2.0px;stroke-linecap:butt;stroke-linejoin:miter;stroke-opacity:1"/>
<path class="bond-14 atom-14 atom-13" d="M 537.9,643.7 L 588.7,613.6" style="fill:none;fill-rule:evenodd;stroke:#000000;stroke-width:2.0px;stroke-linecap:butt;stroke-linejoin:miter;stroke-opacity:1"/>
<path class="bond-15 atom-16 atom-15" d="M 390.4,501.0 L 390.5,529.3" style="fill:none;fill-rule:evenodd;stroke:#FF0000;stroke-width:2.0px;stroke-linecap:butt;stroke-linejoin:miter;stroke-opacity:1"/>
<path class="bond-15 atom-16 atom-15" d="M 390.5,529.3 L 390.5,557.6" style="fill:none;fill-rule:evenodd;stroke:#000000;stroke-width:2.0px;stroke-linecap:butt;stroke-linejoin:miter;stroke-opacity:1"/>
<path class="bond-16 atom-17 atom-7" d="M 597.4,380.3 L 597.3,408.8" style="fill:none;fill-rule:evenodd;stroke:#FF0000;stroke-width:2.0px;stroke-linecap:butt;stroke-linejoin:miter;stroke-opacity:1"/>
<path class="bond-16 atom-17 atom-7" d="M 597.3,408.8 L 597.2,437.3" style="fill:none;fill-rule:evenodd;stroke:#000000;stroke-width:2.0px;stroke-linecap:butt;stroke-linejoin:miter;stroke-opacity:1"/>
<path class="bond-17 atom-18 atom-2" d="M 795.2,572.9 L 744.4,603.0" style="fill:none;fill-rule:evenodd;stroke:#000000;stroke-width:2.0px;stroke-linecap:butt;stroke-linejoin:miter;stroke-opacity:1"/>
<path class="bond-18 atom-19 atom-4" d="M 866.0,839.9 L 847.0,829.1" style="fill:none;fill-rule:evenodd;stroke:#FF0000;stroke-width:2.0px;stroke-linecap:butt;stroke-linejoin:miter;stroke-opacity:1"/>
<path class="bond-18 atom-19 atom-4" d="M 847.0,829.1 L 828.0,818.2" style="fill:none;fill-rule:evenodd;stroke:#000000;stroke-width:2.0px;stroke-linecap:butt;stroke-linejoin:miter;stroke-opacity:1"/>
<path class="bond-19 atom-20 atom-6" d="M 735.2,489.1 L 704.8,489.0" style="fill:none;fill-rule:evenodd;stroke:#FF0000;stroke-width:2.0px;stroke-linecap:butt;stroke-linejoin:miter;stroke-opacity:1"/>
<path class="bond-19 atom-20 atom-6" d="M 704.8,489.0 L 674.5,489.0" style="fill:none;fill-rule:evenodd;stroke:#000000;stroke-width:2.0px;stroke-linecap:butt;stroke-linejoin:miter;stroke-opacity:1"/>
<path class="bond-20 atom-21 atom-6" d="M 699.2,431.7 L 672.6,477.6" style="fill:none;fill-rule:evenodd;stroke:#000000;stroke-width:2.0px;stroke-linecap:butt;stroke-linejoin:miter;stroke-opacity:1"/>
<path class="bond-21 atom-22 atom-10" d="M 467.1,454.1 L 507.7,477.3" style="fill:none;fill-rule:evenodd;stroke:#000000;stroke-width:2.0px;stroke-linecap:butt;stroke-linejoin:miter;stroke-opacity:1"/>
<path class="bond-22 atom-23 atom-11" d="M 479.2,597.6 L 493.8,589.1" style="fill:none;fill-rule:evenodd;stroke:#FF0000;stroke-width:2.0px;stroke-linecap:butt;stroke-linejoin:miter;stroke-opacity:1"/>
<path class="bond-22 atom-23 atom-11" d="M 493.8,589.1 L 508.4,580.5" style="fill:none;fill-rule:evenodd;stroke:#000000;stroke-width:2.0px;stroke-linecap:butt;stroke-linejoin:miter;stroke-opacity:1"/>
<path class="bond-23 atom-23 atom-15" d="M 439.6,597.4 L 419.5,585.8" style="fill:none;fill-rule:evenodd;stroke:#FF0000;stroke-width:2.0px;stroke-linecap:butt;stroke-linejoin:miter;stroke-opacity:1"/>
<path class="bond-23 atom-23 atom-15" d="M 419.5,585.8 L 399.3,574.2" style="fill:none;fill-rule:evenodd;stroke:#000000;stroke-width:2.0px;stroke-linecap:butt;stroke-linejoin:miter;stroke-opacity:1"/>
<path class="bond-24 atom-24 atom-1" d="M 866.1,691.7 L 826.2,715.3" style="fill:none;fill-rule:evenodd;stroke:#000000;stroke-width:2.0px;stroke-linecap:butt;stroke-linejoin:miter;stroke-opacity:1"/>
<path class="bond-25 atom-25 atom-5" d="M 771.8,904.1 L 745.2,858.4" style="fill:none;fill-rule:evenodd;stroke:#000000;stroke-width:2.0px;stroke-linecap:butt;stroke-linejoin:miter;stroke-opacity:1"/>
<path class="bond-26 atom-26 atom-5" d="M 705.1,904.5 L 718.3,881.5" style="fill:none;fill-rule:evenodd;stroke:#FF0000;stroke-width:2.0px;stroke-linecap:butt;stroke-linejoin:miter;stroke-opacity:1"/>
<path class="bond-26 atom-26 atom-5" d="M 718.3,881.5 L 731.5,858.4" style="fill:none;fill-rule:evenodd;stroke:#000000;stroke-width:2.0px;stroke-linecap:butt;stroke-linejoin:miter;stroke-opacity:1"/>
<path class="bond-27 atom-27 atom-8" d="M 608.8,842.1 L 659.5,812.4" style="fill:none;fill-rule:evenodd;stroke:#000000;stroke-width:2.0px;stroke-linecap:butt;stroke-linejoin:miter;stroke-opacity:1"/>
<path class="bond-28 atom-28 atom-15" d="M 341.2,597.9 L 370.2,581.0" style="fill:none;fill-rule:evenodd;stroke:#000000;stroke-width:2.0px;stroke-linecap:butt;stroke-linejoin:miter;stroke-opacity:1"/>
<path class="bond-29 atom-29 atom-28" d="M 272.4,581.4 L 301.2,597.9" style="fill:none;fill-rule:evenodd;stroke:#000000;stroke-width:2.0px;stroke-linecap:butt;stroke-linejoin:miter;stroke-opacity:1"/>
<path class="bond-30 atom-30 atom-27" d="M 600.4,915.7 L 600.0,859.1" style="fill:none;fill-rule:evenodd;stroke:#000000;stroke-width:2.0px;stroke-linecap:butt;stroke-linejoin:miter;stroke-opacity:1"/>
<path class="bond-31 atom-31 atom-29" d="M 251.7,501.3 L 251.7,558.0" style="fill:none;fill-rule:evenodd;stroke:#000000;stroke-width:2.0px;stroke-linecap:butt;stroke-linejoin:miter;stroke-opacity:1"/>
<path class="bond-32 atom-32 atom-16" d="M 329.4,454.1 L 354.5,468.5" style="fill:none;fill-rule:evenodd;stroke:#000000;stroke-width:2.0px;stroke-linecap:butt;stroke-linejoin:miter;stroke-opacity:1"/>
<path class="bond-32 atom-32 atom-16" d="M 354.5,468.5 L 379.7,482.9" style="fill:none;fill-rule:evenodd;stroke:#FF0000;stroke-width:2.0px;stroke-linecap:butt;stroke-linejoin:miter;stroke-opacity:1"/>
<path class="bond-33 atom-32 atom-31" d="M 300.5,461.0 L 271.5,477.9" style="fill:none;fill-rule:evenodd;stroke:#000000;stroke-width:2.0px;stroke-linecap:butt;stroke-linejoin:miter;stroke-opacity:1"/>
<path class="bond-34 atom-33 atom-32" d="M 320.6,380.9 L 320.8,437.5" style="fill:none;fill-rule:evenodd;stroke:#000000;stroke-width:2.0px;stroke-linecap:butt;stroke-linejoin:miter;stroke-opacity:1"/>
<path class="bond-35 atom-34 atom-31" d="M 190.7,454.5 L 216.5,469.3" style="fill:none;fill-rule:evenodd;stroke:#FF0000;stroke-width:2.0px;stroke-linecap:butt;stroke-linejoin:miter;stroke-opacity:1"/>
<path class="bond-35 atom-34 atom-31" d="M 216.5,469.3 L 242.2,484.1" style="fill:none;fill-rule:evenodd;stroke:#000000;stroke-width:2.0px;stroke-linecap:butt;stroke-linejoin:miter;stroke-opacity:1"/>
<path class="bond-36 atom-35 atom-29" d="M 181.6,557.4 L 211.9,562.6" style="fill:none;fill-rule:evenodd;stroke:#FF0000;stroke-width:2.0px;stroke-linecap:butt;stroke-linejoin:miter;stroke-opacity:1"/>
<path class="bond-36 atom-35 atom-29" d="M 211.9,562.6 L 242.2,567.9" style="fill:none;fill-rule:evenodd;stroke:#000000;stroke-width:2.0px;stroke-linecap:butt;stroke-linejoin:miter;stroke-opacity:1"/>
<path class="bond-37 atom-36 atom-29" d="M 228.8,633.3 L 247.5,581.4" style="fill:none;fill-rule:evenodd;stroke:#000000;stroke-width:2.0px;stroke-linecap:butt;stroke-linejoin:miter;stroke-opacity:1"/>
<path class="bond-38 atom-37 atom-35" d="M 130.4,606.7 L 146.7,587.2" style="fill:none;fill-rule:evenodd;stroke:#000000;stroke-width:2.0px;stroke-linecap:butt;stroke-linejoin:miter;stroke-opacity:1"/>
<path class="bond-38 atom-37 atom-35" d="M 146.7,587.2 L 163.0,567.7" style="fill:none;fill-rule:evenodd;stroke:#FF0000;stroke-width:2.0px;stroke-linecap:butt;stroke-linejoin:miter;stroke-opacity:1"/>
<path class="bond-39 atom-38 atom-17" d="M 657.8,333.6 L 632.1,348.5" style="fill:none;fill-rule:evenodd;stroke:#000000;stroke-width:2.0px;stroke-linecap:butt;stroke-linejoin:miter;stroke-opacity:1"/>
<path class="bond-39 atom-38 atom-17" d="M 632.1,348.5 L 606.3,363.4" style="fill:none;fill-rule:evenodd;stroke:#FF0000;stroke-width:2.0px;stroke-linecap:butt;stroke-linejoin:miter;stroke-opacity:1"/>
<path class="bond-40 atom-39 atom-38" d="M 667.2,259.8 L 667.2,316.5" style="fill:none;fill-rule:evenodd;stroke:#000000;stroke-width:2.0px;stroke-linecap:butt;stroke-linejoin:miter;stroke-opacity:1"/>
<path class="bond-41 atom-40 atom-38" d="M 716.7,356.4 L 702.3,348.2" style="fill:none;fill-rule:evenodd;stroke:#FF0000;stroke-width:2.0px;stroke-linecap:butt;stroke-linejoin:miter;stroke-opacity:1"/>
<path class="bond-41 atom-40 atom-38" d="M 702.3,348.2 L 687.9,339.9" style="fill:none;fill-rule:evenodd;stroke:#000000;stroke-width:2.0px;stroke-linecap:butt;stroke-linejoin:miter;stroke-opacity:1"/>
<path class="bond-42 atom-41 atom-40" d="M 786.2,339.3 L 771.4,347.9" style="fill:none;fill-rule:evenodd;stroke:#000000;stroke-width:2.0px;stroke-linecap:butt;stroke-linejoin:miter;stroke-opacity:1"/>
<path class="bond-42 atom-41 atom-40" d="M 771.4,347.9 L 756.6,356.5" style="fill:none;fill-rule:evenodd;stroke:#FF0000;stroke-width:2.0px;stroke-linecap:butt;stroke-linejoin:miter;stroke-opacity:1"/>
<path class="bond-43 atom-42 atom-39" d="M 716.5,219.3 L 686.7,236.6" style="fill:none;fill-rule:evenodd;stroke:#000000;stroke-width:2.0px;stroke-linecap:butt;stroke-linejoin:miter;stroke-opacity:1"/>
<path class="bond-44 atom-43 atom-41" d="M 806.0,259.4 L 806.0,316.1" style="fill:none;fill-rule:evenodd;stroke:#000000;stroke-width:2.0px;stroke-linecap:butt;stroke-linejoin:miter;stroke-opacity:1"/>
<path class="bond-45 atom-43 atom-42" d="M 796.5,242.2 L 744.9,212.6" style="fill:none;fill-rule:evenodd;stroke:#000000;stroke-width:2.0px;stroke-linecap:butt;stroke-linejoin:miter;stroke-opacity:1"/>
<path class="bond-46 atom-44 atom-41" d="M 866.1,362.1 L 814.6,332.6" style="fill:none;fill-rule:evenodd;stroke:#000000;stroke-width:2.0px;stroke-linecap:butt;stroke-linejoin:miter;stroke-opacity:1"/>
<path class="bond-47 atom-45 atom-39" d="M 606.4,213.2 L 632.1,227.9" style="fill:none;fill-rule:evenodd;stroke:#FF0000;stroke-width:2.0px;stroke-linecap:butt;stroke-linejoin:miter;stroke-opacity:1"/>
<path class="bond-47 atom-45 atom-39" d="M 632.1,227.9 L 657.7,242.6" style="fill:none;fill-rule:evenodd;stroke:#000000;stroke-width:2.0px;stroke-linecap:butt;stroke-linejoin:miter;stroke-opacity:1"/>
<path class="bond-48 atom-46 atom-42" d="M 736.2,139.1 L 736.2,167.6" style="fill:none;fill-rule:evenodd;stroke:#0000FF;stroke-width:2.0px;stroke-linecap:butt;stroke-linejoin:miter;stroke-opacity:1"/>
<path class="bond-48 atom-46 atom-42" d="M 736.2,167.6 L 736.3,196.1" style="fill:none;fill-rule:evenodd;stroke:#000000;stroke-width:2.0px;stroke-linecap:butt;stroke-linejoin:miter;stroke-opacity:1"/>
<path class="bond-49 atom-47 atom-46" d="M 795.9,92.9 L 775.9,104.5" style="fill:none;fill-rule:evenodd;stroke:#000000;stroke-width:2.0px;stroke-linecap:butt;stroke-linejoin:miter;stroke-opacity:1"/>
<path class="bond-49 atom-47 atom-46" d="M 775.9,104.5 L 755.9,116.1" style="fill:none;fill-rule:evenodd;stroke:#0000FF;stroke-width:2.0px;stroke-linecap:butt;stroke-linejoin:miter;stroke-opacity:1"/>
<path class="bond-50 atom-48 atom-46" d="M 675.4,92.8 L 701.1,107.5" style="fill:none;fill-rule:evenodd;stroke:#000000;stroke-width:2.0px;stroke-linecap:butt;stroke-linejoin:miter;stroke-opacity:1"/>
<path class="bond-50 atom-48 atom-46" d="M 701.1,107.5 L 726.8,122.3" style="fill:none;fill-rule:evenodd;stroke:#0000FF;stroke-width:2.0px;stroke-linecap:butt;stroke-linejoin:miter;stroke-opacity:1"/>
<path class="atom-0" d="M 715.6 687.9 Q 715.6 683.5, 717.7 681.2 Q 719.7 678.9, 723.7 678.9 Q 727.3 678.9, 729.3 681.5 L 727.6 682.8 Q 726.2 680.9, 723.7 680.9 Q 721.0 680.9, 719.6 682.7 Q 718.2 684.5, 718.2 687.9 Q 718.2 691.4, 719.6 693.2 Q 721.1 695.0, 723.9 695.0 Q 725.9 695.0, 728.2 693.8 L 728.9 695.7 Q 727.9 696.3, 726.5 696.7 Q 725.1 697.0, 723.6 697.0 Q 719.7 697.0, 717.7 694.7 Q 715.6 692.3, 715.6 687.9 " fill="#000000"/>
<path class="atom-0" d="M 732.5 694.8 L 736.3 694.8 L 736.3 681.6 L 732.1 682.9 L 731.5 681.4 L 736.9 679.0 L 738.7 679.3 L 738.7 694.8 L 742.2 694.8 L 742.2 696.8 L 732.5 696.8 L 732.5 694.8 " fill="#000000"/>
<path class="atom-1" d="M 799.8 727.0 Q 799.8 722.6, 801.8 720.3 Q 803.9 717.9, 807.8 717.9 Q 811.5 717.9, 813.4 720.5 L 811.8 721.9 Q 810.4 720.0, 807.8 720.0 Q 805.2 720.0, 803.7 721.8 Q 802.3 723.6, 802.3 727.0 Q 802.3 730.5, 803.8 732.3 Q 805.3 734.1, 808.1 734.1 Q 810.1 734.1, 812.3 732.9 L 813.0 734.8 Q 812.1 735.4, 810.7 735.7 Q 809.3 736.1, 807.8 736.1 Q 803.9 736.1, 801.8 733.7 Q 799.8 731.4, 799.8 727.0 " fill="#000000"/>
<path class="atom-1" d="M 815.8 721.5 Q 816.4 719.8, 818.0 718.9 Q 819.5 717.9, 821.7 717.9 Q 824.3 717.9, 825.8 719.4 Q 827.3 720.8, 827.3 723.4 Q 827.3 726.0, 825.4 728.5 Q 823.5 730.9, 819.5 733.8 L 827.6 733.8 L 827.6 735.8 L 815.7 735.8 L 815.7 734.2 Q 819.0 731.8, 821.0 730.1 Q 822.9 728.3, 823.9 726.7 Q 824.8 725.2, 824.8 723.5 Q 824.8 721.8, 824.0 720.9 Q 823.1 719.9, 821.7 719.9 Q 820.2 719.9, 819.3 720.5 Q 818.3 721.1, 817.7 722.4 L 815.8 721.5 " fill="#000000"/>
<path class="atom-2" d="M 713.9 608.2 Q 713.9 603.8, 716.0 601.5 Q 718.0 599.2, 722.0 599.2 Q 725.6 599.2, 727.6 601.7 L 725.9 603.1 Q 724.5 601.2, 722.0 601.2 Q 719.3 601.2, 717.9 603.0 Q 716.5 604.8, 716.5 608.2 Q 716.5 611.7, 717.9 613.5 Q 719.4 615.3, 722.2 615.3 Q 724.2 615.3, 726.5 614.1 L 727.2 616.0 Q 726.2 616.6, 724.8 616.9 Q 723.4 617.3, 721.9 617.3 Q 718.0 617.3, 716.0 614.9 Q 713.9 612.6, 713.9 608.2 " fill="#000000"/>
<path class="atom-2" d="M 738.3 607.7 Q 740.1 608.2, 740.9 609.4 Q 741.7 610.5, 741.7 612.2 Q 741.7 613.7, 741.0 614.9 Q 740.2 616.0, 738.9 616.7 Q 737.5 617.3, 735.7 617.3 Q 733.8 617.3, 732.4 616.7 Q 731.0 616.0, 729.8 614.6 L 731.3 613.2 Q 732.4 614.4, 733.3 614.9 Q 734.2 615.3, 735.7 615.3 Q 737.3 615.3, 738.3 614.5 Q 739.2 613.6, 739.2 612.2 Q 739.2 610.4, 738.2 609.6 Q 737.2 608.8, 735.0 608.8 L 733.8 608.8 L 733.8 607.0 L 734.9 607.0 Q 736.8 606.9, 737.8 606.1 Q 738.9 605.3, 738.9 603.7 Q 738.9 602.5, 738.0 601.9 Q 737.2 601.2, 735.7 601.2 Q 734.2 601.2, 733.3 601.7 Q 732.4 602.2, 731.7 603.5 L 730.0 602.6 Q 730.6 601.1, 732.1 600.2 Q 733.6 599.2, 735.7 599.2 Q 738.3 599.2, 739.8 600.4 Q 741.4 601.6, 741.4 603.7 Q 741.4 605.1, 740.6 606.1 Q 739.8 607.2, 738.3 607.7 " fill="#000000"/>
<path class="atom-3" d="M 643.3 569.0 Q 643.3 564.6, 645.3 562.3 Q 647.4 559.9, 651.3 559.9 Q 655.0 559.9, 656.9 562.5 L 655.3 563.9 Q 653.9 562.0, 651.3 562.0 Q 648.7 562.0, 647.2 563.8 Q 645.8 565.6, 645.8 569.0 Q 645.8 572.5, 647.3 574.3 Q 648.8 576.1, 651.6 576.1 Q 653.6 576.1, 655.8 574.9 L 656.5 576.8 Q 655.6 577.4, 654.2 577.7 Q 652.8 578.1, 651.3 578.1 Q 647.4 578.1, 645.3 575.7 Q 643.3 573.4, 643.3 569.0 " fill="#000000"/>
<path class="atom-3" d="M 670.8 571.8 L 672.9 571.8 L 672.9 573.8 L 670.8 573.8 L 670.8 577.8 L 668.4 577.8 L 668.4 573.8 L 659.3 573.8 L 659.3 572.2 L 667.0 560.1 L 670.8 560.1 L 670.8 571.8 M 662.2 571.8 L 668.4 571.8 L 668.4 561.7 L 662.2 571.8 " fill="#000000"/>
<path class="atom-4" d="M 800.4 806.5 Q 800.4 802.1, 802.5 799.8 Q 804.6 797.5, 808.5 797.5 Q 812.1 797.5, 814.1 800.1 L 812.4 801.4 Q 811.0 799.5, 808.5 799.5 Q 805.8 799.5, 804.4 801.3 Q 803.0 803.1, 803.0 806.5 Q 803.0 810.0, 804.4 811.8 Q 805.9 813.6, 808.8 813.6 Q 810.7 813.6, 813.0 812.4 L 813.7 814.3 Q 812.8 814.9, 811.4 815.3 Q 810.0 815.6, 808.4 815.6 Q 804.6 815.6, 802.5 813.3 Q 800.4 810.9, 800.4 806.5 " fill="#000000"/>
<path class="atom-4" d="M 822.8 804.3 Q 824.3 804.3, 825.6 805.0 Q 826.9 805.6, 827.6 806.9 Q 828.3 808.1, 828.3 809.8 Q 828.3 811.6, 827.4 812.9 Q 826.6 814.2, 825.1 814.9 Q 823.7 815.6, 822.0 815.6 Q 820.4 815.6, 818.9 815.0 Q 817.4 814.4, 816.4 813.2 L 817.9 811.7 Q 818.7 812.6, 819.8 813.1 Q 820.9 813.6, 822.1 813.6 Q 823.7 813.6, 824.7 812.6 Q 825.8 811.6, 825.8 809.8 Q 825.8 808.0, 824.7 807.1 Q 823.7 806.2, 821.9 806.2 Q 820.4 806.2, 818.7 806.9 L 817.3 806.2 L 818.1 797.7 L 827.2 797.7 L 827.0 799.7 L 820.2 799.7 L 819.7 804.9 Q 821.2 804.3, 822.8 804.3 " fill="#000000"/>
<path class="atom-5" d="M 724.2 846.7 Q 724.2 842.3, 726.3 840.0 Q 728.3 837.6, 732.3 837.6 Q 735.9 837.6, 737.9 840.2 L 736.2 841.6 Q 734.8 839.7, 732.3 839.7 Q 729.6 839.7, 728.2 841.5 Q 726.8 843.3, 726.8 846.7 Q 726.8 850.2, 728.2 852.0 Q 729.7 853.8, 732.5 853.8 Q 734.5 853.8, 736.8 852.6 L 737.5 854.5 Q 736.5 855.1, 735.1 855.4 Q 733.7 855.8, 732.2 855.8 Q 728.3 855.8, 726.3 853.4 Q 724.2 851.1, 724.2 846.7 " fill="#000000"/>
<path class="atom-5" d="M 747.1 844.5 Q 748.6 844.5, 749.9 845.2 Q 751.1 845.8, 751.8 847.1 Q 752.4 848.3, 752.4 849.8 Q 752.4 851.6, 751.7 852.9 Q 750.9 854.2, 749.6 855.0 Q 748.2 855.7, 746.5 855.7 Q 743.3 855.7, 741.7 853.6 Q 740.2 851.5, 740.2 847.2 Q 740.2 842.5, 742.1 840.1 Q 744.1 837.6, 747.9 837.6 Q 749.0 837.6, 749.9 837.9 Q 750.8 838.1, 751.7 838.7 L 750.8 840.3 Q 749.5 839.6, 747.9 839.6 Q 745.4 839.6, 744.1 841.3 Q 742.8 842.9, 742.7 846.2 Q 743.6 845.4, 744.7 844.9 Q 745.9 844.5, 747.1 844.5 M 746.5 853.7 Q 747.5 853.7, 748.2 853.2 Q 749.0 852.7, 749.5 851.8 Q 749.9 850.9, 749.9 849.9 Q 749.9 848.3, 749.1 847.4 Q 748.2 846.5, 746.6 846.5 Q 745.6 846.5, 744.5 846.9 Q 743.4 847.4, 742.7 848.1 Q 742.8 851.0, 743.7 852.4 Q 744.6 853.7, 746.5 853.7 " fill="#000000"/>
<path class="atom-6" d="M 644.2 489.0 Q 644.2 484.6, 646.3 482.3 Q 648.3 480.0, 652.3 480.0 Q 655.9 480.0, 657.9 482.6 L 656.2 483.9 Q 654.8 482.1, 652.3 482.1 Q 649.6 482.1, 648.2 483.9 Q 646.8 485.6, 646.8 489.0 Q 646.8 492.5, 648.2 494.3 Q 649.7 496.1, 652.5 496.1 Q 654.5 496.1, 656.8 495.0 L 657.5 496.8 Q 656.5 497.4, 655.1 497.8 Q 653.7 498.1, 652.2 498.1 Q 648.3 498.1, 646.3 495.8 Q 644.2 493.4, 644.2 489.0 " fill="#000000"/>
<path class="atom-6" d="M 669.4 482.2 L 660.1 482.2 L 660.1 480.2 L 671.9 480.2 L 671.9 482.0 L 664.7 497.9 L 662.3 497.9 L 669.4 482.2 " fill="#000000"/>
<path class="atom-7" d="M 574.9 448.9 Q 574.9 444.5, 577.0 442.2 Q 579.1 439.9, 583.0 439.9 Q 586.6 439.9, 588.6 442.5 L 586.9 443.8 Q 585.5 442.0, 583.0 442.0 Q 580.3 442.0, 578.9 443.8 Q 577.5 445.5, 577.5 448.9 Q 577.5 452.4, 578.9 454.2 Q 580.4 456.0, 583.3 456.0 Q 585.2 456.0, 587.5 454.9 L 588.2 456.7 Q 587.3 457.3, 585.9 457.7 Q 584.5 458.0, 582.9 458.0 Q 579.1 458.0, 577.0 455.7 Q 574.9 453.3, 574.9 448.9 " fill="#000000"/>
<path class="atom-7" d="M 599.9 448.4 Q 601.5 449.1, 602.5 450.2 Q 603.4 451.2, 603.4 453.0 Q 603.4 454.5, 602.6 455.6 Q 601.8 456.8, 600.4 457.4 Q 599.1 458.1, 597.2 458.1 Q 594.3 458.1, 592.6 456.7 Q 590.9 455.3, 590.9 453.0 Q 590.9 451.5, 591.6 450.4 Q 592.4 449.3, 593.9 448.5 Q 592.8 447.9, 592.2 446.9 Q 591.5 445.9, 591.5 444.4 Q 591.5 442.4, 593.0 441.1 Q 594.6 439.9, 597.1 439.9 Q 599.7 439.9, 601.2 441.1 Q 602.7 442.4, 602.7 444.4 Q 602.7 445.7, 602.0 446.7 Q 601.3 447.7, 599.9 448.4 M 597.1 441.8 Q 595.7 441.8, 594.8 442.5 Q 594.0 443.2, 594.0 444.4 Q 594.0 445.4, 594.6 446.0 Q 595.1 446.6, 595.9 446.9 Q 596.7 447.3, 598.2 447.8 Q 599.3 447.1, 599.8 446.3 Q 600.2 445.5, 600.2 444.4 Q 600.2 443.2, 599.4 442.5 Q 598.6 441.8, 597.1 441.8 M 597.2 456.2 Q 598.9 456.2, 599.9 455.3 Q 600.9 454.4, 600.9 452.9 Q 600.9 452.0, 600.4 451.4 Q 599.8 450.8, 599.0 450.4 Q 598.3 450.1, 596.9 449.6 L 595.7 449.3 Q 594.5 450.0, 593.9 450.9 Q 593.4 451.8, 593.4 452.9 Q 593.4 454.4, 594.4 455.3 Q 595.5 456.2, 597.2 456.2 " fill="#000000"/>
<path class="atom-8" d="M 662.2 807.0 Q 662.2 802.6, 664.2 800.3 Q 666.3 798.0, 670.2 798.0 Q 673.9 798.0, 675.8 800.5 L 674.2 801.9 Q 672.7 800.0, 670.2 800.0 Q 667.5 800.0, 666.1 801.8 Q 664.7 803.6, 664.7 807.0 Q 664.7 810.5, 666.2 812.3 Q 667.6 814.1, 670.5 814.1 Q 672.4 814.1, 674.7 812.9 L 675.4 814.8 Q 674.5 815.4, 673.1 815.7 Q 671.7 816.1, 670.1 816.1 Q 666.3 816.1, 664.2 813.7 Q 662.2 811.4, 662.2 807.0 " fill="#000000"/>
<path class="atom-8" d="M 684.1 798.0 Q 687.2 798.0, 688.8 800.1 Q 690.4 802.2, 690.4 806.5 Q 690.4 811.2, 688.4 813.6 Q 686.5 816.1, 682.7 816.1 Q 681.6 816.1, 680.6 815.8 Q 679.7 815.6, 678.8 815.0 L 679.8 813.4 Q 681.1 814.1, 682.7 814.1 Q 685.2 814.1, 686.4 812.5 Q 687.7 810.8, 687.9 807.5 Q 687.0 808.3, 685.8 808.8 Q 684.7 809.2, 683.5 809.2 Q 681.9 809.2, 680.7 808.5 Q 679.5 807.9, 678.8 806.6 Q 678.1 805.4, 678.1 803.9 Q 678.1 802.1, 678.9 800.8 Q 679.6 799.5, 681.0 798.7 Q 682.3 798.0, 684.1 798.0 M 680.6 803.8 Q 680.6 805.4, 681.5 806.3 Q 682.4 807.2, 683.9 807.2 Q 685.0 807.2, 686.0 806.8 Q 687.1 806.3, 687.9 805.6 Q 687.8 802.7, 686.8 801.3 Q 685.9 800.0, 684.0 800.0 Q 683.1 800.0, 682.3 800.5 Q 681.5 801.0, 681.1 801.9 Q 680.6 802.8, 680.6 803.8 " fill="#000000"/>
<path class="atom-9" d="M 660.4 727.1 Q 660.4 722.9, 662.5 720.5 Q 664.6 718.1, 668.5 718.1 Q 672.4 718.1, 674.5 720.5 Q 676.6 722.9, 676.6 727.1 Q 676.6 731.4, 674.5 733.9 Q 672.4 736.3, 668.5 736.3 Q 664.6 736.3, 662.5 733.9 Q 660.4 731.4, 660.4 727.1 M 668.5 734.3 Q 671.2 734.3, 672.7 732.5 Q 674.1 730.7, 674.1 727.1 Q 674.1 723.6, 672.7 721.9 Q 671.2 720.1, 668.5 720.1 Q 665.8 720.1, 664.3 721.9 Q 662.9 723.6, 662.9 727.1 Q 662.9 730.7, 664.3 732.5 Q 665.8 734.3, 668.5 734.3 " fill="#FF0000"/>
<path class="atom-9" d="M 680.2 734.0 L 684.1 734.0 L 684.1 720.8 L 679.8 722.1 L 679.2 720.6 L 684.7 718.2 L 686.4 718.5 L 686.4 734.0 L 689.9 734.0 L 689.9 736.0 L 680.2 736.0 L 680.2 734.0 " fill="#FF0000"/>
<path class="atom-9" d="M 698.8 736.2 Q 695.5 736.2, 693.9 733.8 Q 692.3 731.4, 692.3 727.1 Q 692.3 722.9, 693.9 720.5 Q 695.5 718.1, 698.8 718.1 Q 702.0 718.1, 703.6 720.5 Q 705.2 722.9, 705.2 727.1 Q 705.2 731.4, 703.6 733.8 Q 702.0 736.2, 698.8 736.2 M 698.8 734.2 Q 700.7 734.2, 701.7 732.4 Q 702.7 730.6, 702.7 727.1 Q 702.7 723.7, 701.7 721.9 Q 700.7 720.1, 698.8 720.1 Q 696.9 720.1, 695.8 721.9 Q 694.8 723.7, 694.8 727.1 Q 694.8 730.6, 695.8 732.4 Q 696.9 734.2, 698.8 734.2 " fill="#FF0000"/>
<path class="atom-10" d="M 494.0 489.0 Q 494.0 484.6, 496.0 482.3 Q 498.1 479.9, 502.0 479.9 Q 505.7 479.9, 507.6 482.5 L 506.0 483.9 Q 504.6 482.0, 502.0 482.0 Q 499.4 482.0, 497.9 483.8 Q 496.5 485.6, 496.5 489.0 Q 496.5 492.5, 498.0 494.3 Q 499.5 496.1, 502.3 496.1 Q 504.3 496.1, 506.5 494.9 L 507.2 496.8 Q 506.3 497.4, 504.9 497.7 Q 503.5 498.1, 502.0 498.1 Q 498.1 498.1, 496.0 495.7 Q 494.0 493.4, 494.0 489.0 " fill="#000000"/>
<path class="atom-10" d="M 510.8 495.8 L 514.7 495.8 L 514.7 482.6 L 510.4 483.9 L 509.8 482.5 L 515.2 480.0 L 517.0 480.3 L 517.0 495.8 L 520.5 495.8 L 520.5 497.8 L 510.8 497.8 L 510.8 495.8 " fill="#000000"/>
<path class="atom-10" d="M 523.7 495.8 L 527.5 495.8 L 527.5 482.6 L 523.3 483.9 L 522.7 482.5 L 528.1 480.0 L 529.9 480.3 L 529.9 495.8 L 533.4 495.8 L 533.4 497.8 L 523.7 497.8 L 523.7 495.8 " fill="#000000"/>
<path class="atom-11" d="M 493.8 568.8 Q 493.8 564.4, 495.9 562.1 Q 498.0 559.7, 501.9 559.7 Q 505.5 559.7, 507.5 562.3 L 505.8 563.7 Q 504.4 561.8, 501.9 561.8 Q 499.2 561.8, 497.8 563.6 Q 496.4 565.4, 496.4 568.8 Q 496.4 572.3, 497.8 574.1 Q 499.3 575.9, 502.2 575.9 Q 504.1 575.9, 506.4 574.7 L 507.1 576.6 Q 506.2 577.2, 504.8 577.5 Q 503.4 577.9, 501.8 577.9 Q 498.0 577.9, 495.9 575.5 Q 493.8 573.2, 493.8 568.8 " fill="#000000"/>
<path class="atom-11" d="M 510.7 575.6 L 514.6 575.6 L 514.6 562.4 L 510.3 563.7 L 509.7 562.3 L 515.1 559.8 L 516.9 560.1 L 516.9 575.6 L 520.4 575.6 L 520.4 577.6 L 510.7 577.6 L 510.7 575.6 " fill="#000000"/>
<path class="atom-11" d="M 522.7 563.3 Q 523.3 561.6, 524.9 560.7 Q 526.4 559.7, 528.6 559.7 Q 531.3 559.7, 532.8 561.2 Q 534.3 562.6, 534.3 565.2 Q 534.3 567.8, 532.3 570.3 Q 530.4 572.7, 526.4 575.6 L 534.6 575.6 L 534.6 577.6 L 522.6 577.6 L 522.6 576.0 Q 525.9 573.6, 527.9 571.9 Q 529.9 570.1, 530.8 568.5 Q 531.8 567.0, 531.8 565.3 Q 531.8 563.6, 530.9 562.7 Q 530.1 561.7, 528.6 561.7 Q 527.2 561.7, 526.2 562.3 Q 525.3 562.9, 524.6 564.2 L 522.7 563.3 " fill="#000000"/>
<path class="atom-12" d="M 564.2 687.9 Q 564.2 683.5, 566.3 681.2 Q 568.3 678.9, 572.3 678.9 Q 575.9 678.9, 577.9 681.5 L 576.2 682.8 Q 574.8 680.9, 572.3 680.9 Q 569.6 680.9, 568.2 682.7 Q 566.8 684.5, 566.8 687.9 Q 566.8 691.4, 568.2 693.2 Q 569.7 695.0, 572.5 695.0 Q 574.5 695.0, 576.8 693.8 L 577.5 695.7 Q 576.5 696.3, 575.1 696.7 Q 573.7 697.0, 572.2 697.0 Q 568.3 697.0, 566.3 694.7 Q 564.2 692.3, 564.2 687.9 " fill="#000000"/>
<path class="atom-12" d="M 581.0 694.8 L 584.9 694.8 L 584.9 681.6 L 580.6 682.9 L 580.1 681.4 L 585.5 679.0 L 587.3 679.3 L 587.3 694.8 L 590.7 694.8 L 590.7 696.8 L 581.0 696.8 L 581.0 694.8 " fill="#000000"/>
<path class="atom-12" d="M 601.5 687.5 Q 603.2 688.0, 604.0 689.1 Q 604.9 690.2, 604.9 691.9 Q 604.9 693.4, 604.1 694.6 Q 603.4 695.8, 602.0 696.4 Q 600.6 697.0, 598.8 697.0 Q 596.9 697.0, 595.5 696.4 Q 594.1 695.7, 593.0 694.4 L 594.4 692.9 Q 595.5 694.1, 596.4 694.6 Q 597.4 695.0, 598.8 695.0 Q 600.4 695.0, 601.4 694.2 Q 602.4 693.3, 602.4 691.9 Q 602.4 690.1, 601.4 689.3 Q 600.4 688.5, 598.2 688.5 L 596.9 688.5 L 596.9 686.7 L 598.0 686.7 Q 600.0 686.7, 601.0 685.8 Q 602.0 685.0, 602.0 683.4 Q 602.0 682.3, 601.2 681.6 Q 600.3 680.9, 598.9 680.9 Q 597.4 680.9, 596.5 681.4 Q 595.6 681.9, 594.9 683.3 L 593.1 682.3 Q 593.8 680.9, 595.3 679.9 Q 596.8 678.9, 598.9 678.9 Q 601.5 678.9, 603.0 680.1 Q 604.5 681.3, 604.5 683.4 Q 604.5 684.8, 603.7 685.9 Q 603.0 686.9, 601.5 687.5 " fill="#000000"/>
<path class="atom-13" d="M 591.4 608.1 Q 591.4 603.7, 593.4 601.4 Q 595.5 599.1, 599.4 599.1 Q 603.1 599.1, 605.0 601.7 L 603.4 603.0 Q 602.0 601.1, 599.4 601.1 Q 596.8 601.1, 595.3 602.9 Q 593.9 604.7, 593.9 608.1 Q 593.9 611.6, 595.4 613.4 Q 596.9 615.2, 599.7 615.2 Q 601.7 615.2, 603.9 614.0 L 604.6 615.9 Q 603.7 616.5, 602.3 616.9 Q 600.9 617.2, 599.4 617.2 Q 595.5 617.2, 593.4 614.9 Q 591.4 612.5, 591.4 608.1 " fill="#000000"/>
<path class="atom-13" d="M 608.3 615.0 L 612.1 615.0 L 612.1 601.8 L 607.9 603.1 L 607.3 601.6 L 612.7 599.2 L 614.5 599.5 L 614.5 615.0 L 618.0 615.0 L 618.0 617.0 L 608.3 617.0 L 608.3 615.0 " fill="#000000"/>
<path class="atom-13" d="M 631.8 610.9 L 633.9 610.9 L 633.9 612.9 L 631.8 612.9 L 631.8 617.0 L 629.4 617.0 L 629.4 612.9 L 620.3 612.9 L 620.3 611.3 L 628.0 599.3 L 631.8 599.3 L 631.8 610.9 M 623.2 610.9 L 629.4 610.9 L 629.4 600.9 L 623.2 610.9 " fill="#000000"/>
<path class="atom-14" d="M 494.4 648.9 Q 494.4 644.5, 496.5 642.2 Q 498.6 639.8, 502.5 639.8 Q 506.1 639.8, 508.1 642.4 L 506.4 643.8 Q 505.0 641.9, 502.5 641.9 Q 499.8 641.9, 498.4 643.7 Q 497.0 645.5, 497.0 648.9 Q 497.0 652.4, 498.4 654.2 Q 499.9 656.0, 502.8 656.0 Q 504.7 656.0, 507.0 654.8 L 507.7 656.7 Q 506.8 657.3, 505.4 657.6 Q 504.0 658.0, 502.4 658.0 Q 498.6 658.0, 496.5 655.6 Q 494.4 653.3, 494.4 648.9 " fill="#000000"/>
<path class="atom-14" d="M 511.3 655.7 L 515.2 655.7 L 515.2 642.5 L 510.9 643.8 L 510.3 642.4 L 515.7 639.9 L 517.5 640.2 L 517.5 655.7 L 521.0 655.7 L 521.0 657.7 L 511.3 657.7 L 511.3 655.7 " fill="#000000"/>
<path class="atom-14" d="M 529.7 646.7 Q 531.2 646.7, 532.5 647.3 Q 533.8 648.0, 534.5 649.2 Q 535.2 650.5, 535.2 652.1 Q 535.2 654.0, 534.3 655.3 Q 533.4 656.6, 532.0 657.3 Q 530.5 657.9, 528.9 657.9 Q 527.3 657.9, 525.8 657.3 Q 524.3 656.7, 523.2 655.6 L 524.7 654.0 Q 525.6 654.9, 526.7 655.4 Q 527.8 655.9, 529.0 655.9 Q 530.5 655.9, 531.6 654.9 Q 532.7 654.0, 532.7 652.2 Q 532.7 650.3, 531.6 649.4 Q 530.5 648.5, 528.8 648.5 Q 527.3 648.5, 525.5 649.2 L 524.2 648.6 L 525.0 640.0 L 534.1 640.0 L 533.9 642.0 L 527.1 642.0 L 526.5 647.3 Q 528.1 646.7, 529.7 646.7 " fill="#000000"/>
<path class="atom-15" d="M 355.5 569.2 Q 355.5 564.8, 357.6 562.5 Q 359.7 560.2, 363.6 560.2 Q 367.2 560.2, 369.2 562.8 L 367.5 564.1 Q 366.1 562.2, 363.6 562.2 Q 360.9 562.2, 359.5 564.0 Q 358.1 565.8, 358.1 569.2 Q 358.1 572.7, 359.5 574.5 Q 361.0 576.3, 363.9 576.3 Q 365.8 576.3, 368.1 575.1 L 368.8 577.0 Q 367.9 577.6, 366.5 578.0 Q 365.1 578.3, 363.5 578.3 Q 359.7 578.3, 357.6 576.0 Q 355.5 573.6, 355.5 569.2 " fill="#000000"/>
<path class="atom-15" d="M 372.4 576.1 L 376.3 576.1 L 376.3 562.9 L 372.0 564.2 L 371.4 562.7 L 376.8 560.3 L 378.6 560.6 L 378.6 576.1 L 382.1 576.1 L 382.1 578.1 L 372.4 578.1 L 372.4 576.1 " fill="#000000"/>
<path class="atom-15" d="M 391.3 567.0 Q 392.8 567.0, 394.0 567.7 Q 395.3 568.4, 395.9 569.6 Q 396.6 570.8, 396.6 572.4 Q 396.6 574.1, 395.8 575.5 Q 395.1 576.8, 393.7 577.5 Q 392.4 578.3, 390.7 578.3 Q 387.5 578.3, 385.9 576.2 Q 384.3 574.0, 384.3 569.8 Q 384.3 565.1, 386.3 562.6 Q 388.3 560.2, 392.0 560.2 Q 393.1 560.2, 394.1 560.4 Q 395.0 560.7, 395.9 561.2 L 394.9 562.9 Q 393.6 562.2, 392.1 562.2 Q 389.6 562.2, 388.3 563.8 Q 387.0 565.4, 386.9 568.7 Q 387.8 567.9, 388.9 567.5 Q 390.0 567.0, 391.3 567.0 M 390.7 576.2 Q 391.6 576.2, 392.4 575.7 Q 393.2 575.2, 393.7 574.4 Q 394.1 573.5, 394.1 572.4 Q 394.1 570.8, 393.2 569.9 Q 392.4 569.0, 390.8 569.0 Q 389.7 569.0, 388.7 569.5 Q 387.6 569.9, 386.9 570.7 Q 387.0 573.6, 387.9 574.9 Q 388.8 576.2, 390.7 576.2 " fill="#000000"/>
<path class="atom-16" d="M 382.3 489.1 Q 382.3 484.9, 384.4 482.5 Q 386.5 480.1, 390.4 480.1 Q 394.4 480.1, 396.5 482.5 Q 398.6 484.9, 398.6 489.1 Q 398.6 493.4, 396.4 495.9 Q 394.3 498.3, 390.4 498.3 Q 386.5 498.3, 384.4 495.9 Q 382.3 493.5, 382.3 489.1 M 390.4 496.3 Q 393.1 496.3, 394.6 494.5 Q 396.1 492.7, 396.1 489.1 Q 396.1 485.7, 394.6 483.9 Q 393.1 482.1, 390.4 482.1 Q 387.7 482.1, 386.3 483.9 Q 384.8 485.6, 384.8 489.1 Q 384.8 492.7, 386.3 494.5 Q 387.7 496.3, 390.4 496.3 " fill="#FF0000"/>
<path class="atom-16" d="M 402.1 496.0 L 405.9 496.0 L 405.9 482.8 L 401.7 484.1 L 401.1 482.7 L 406.5 480.2 L 408.3 480.5 L 408.3 496.0 L 411.8 496.0 L 411.8 498.0 L 402.1 498.0 L 402.1 496.0 " fill="#FF0000"/>
<path class="atom-16" d="M 423.4 482.3 L 414.1 482.3 L 414.1 480.3 L 425.9 480.3 L 425.9 482.1 L 418.7 498.0 L 416.3 498.0 L 423.4 482.3 " fill="#FF0000"/>
<path class="atom-17" d="M 559.4 368.6 Q 559.4 364.3, 561.5 361.9 Q 563.6 359.6, 567.5 359.6 Q 571.4 359.6, 573.5 361.9 Q 575.6 364.3, 575.6 368.6 Q 575.6 372.9, 573.5 375.3 Q 571.4 377.7, 567.5 377.7 Q 563.6 377.7, 561.5 375.3 Q 559.4 372.9, 559.4 368.6 M 567.5 375.7 Q 570.2 375.7, 571.6 373.9 Q 573.1 372.1, 573.1 368.6 Q 573.1 365.1, 571.6 363.3 Q 570.2 361.6, 567.5 361.6 Q 564.8 361.6, 563.3 363.3 Q 561.9 365.1, 561.9 368.6 Q 561.9 372.1, 563.3 373.9 Q 564.8 375.7, 567.5 375.7 " fill="#FF0000"/>
<path class="atom-17" d="M 579.1 375.5 L 583.0 375.5 L 583.0 362.2 L 578.7 363.6 L 578.2 362.1 L 583.6 359.7 L 585.4 360.0 L 585.4 375.5 L 588.8 375.5 L 588.8 377.5 L 579.1 377.5 L 579.1 375.5 " fill="#FF0000"/>
<path class="atom-17" d="M 600.2 368.1 Q 601.9 368.8, 602.8 369.8 Q 603.7 370.9, 603.7 372.6 Q 603.7 374.1, 602.9 375.3 Q 602.2 376.4, 600.8 377.1 Q 599.4 377.7, 597.6 377.7 Q 594.6 377.7, 592.9 376.4 Q 591.2 375.0, 591.2 372.6 Q 591.2 371.2, 592.0 370.1 Q 592.7 369.0, 594.3 368.2 Q 593.1 367.5, 592.5 366.6 Q 591.9 365.6, 591.9 364.1 Q 591.9 362.0, 593.4 360.8 Q 594.9 359.6, 597.5 359.6 Q 600.0 359.6, 601.5 360.8 Q 603.1 362.0, 603.1 364.1 Q 603.1 365.4, 602.3 366.4 Q 601.6 367.3, 600.2 368.1 M 597.5 361.4 Q 596.0 361.4, 595.2 362.1 Q 594.4 362.8, 594.4 364.1 Q 594.4 365.0, 594.9 365.6 Q 595.5 366.2, 596.2 366.6 Q 597.0 366.9, 598.6 367.5 Q 599.6 366.7, 600.1 365.9 Q 600.6 365.1, 600.6 364.1 Q 600.6 362.8, 599.7 362.1 Q 598.9 361.4, 597.5 361.4 M 597.6 375.8 Q 599.2 375.8, 600.2 375.0 Q 601.2 374.1, 601.2 372.6 Q 601.2 371.6, 600.7 371.0 Q 600.2 370.4, 599.4 370.1 Q 598.6 369.7, 597.2 369.3 L 596.1 368.9 Q 594.8 369.7, 594.3 370.6 Q 593.7 371.4, 593.7 372.6 Q 593.7 374.1, 594.8 375.0 Q 595.8 375.8, 597.6 375.8 " fill="#FF0000"/>
<path class="atom-18" d="M 797.8 567.3 Q 797.8 562.9, 799.8 560.6 Q 801.9 558.3, 805.8 558.3 Q 809.5 558.3, 811.4 560.9 L 809.8 562.2 Q 808.4 560.4, 805.8 560.4 Q 803.2 560.4, 801.7 562.2 Q 800.3 563.9, 800.3 567.3 Q 800.3 570.8, 801.8 572.6 Q 803.3 574.4, 806.1 574.4 Q 808.1 574.4, 810.3 573.3 L 811.0 575.1 Q 810.1 575.7, 808.7 576.1 Q 807.3 576.4, 805.8 576.4 Q 801.9 576.4, 799.8 574.1 Q 797.8 571.7, 797.8 567.3 " fill="#000000"/>
<path class="atom-18" d="M 814.6 574.2 L 818.5 574.2 L 818.5 561.0 L 814.2 562.3 L 813.7 560.8 L 819.1 558.4 L 820.9 558.7 L 820.9 574.2 L 824.3 574.2 L 824.3 576.2 L 814.6 576.2 L 814.6 574.2 " fill="#000000"/>
<path class="atom-18" d="M 832.6 558.3 Q 835.7 558.3, 837.3 560.5 Q 838.9 562.6, 838.9 566.8 Q 838.9 571.5, 836.9 574.0 Q 835.0 576.4, 831.2 576.4 Q 830.1 576.4, 829.1 576.2 Q 828.2 575.9, 827.3 575.4 L 828.3 573.7 Q 829.6 574.4, 831.2 574.4 Q 833.7 574.4, 834.9 572.8 Q 836.2 571.2, 836.4 567.9 Q 835.5 568.7, 834.3 569.1 Q 833.2 569.6, 832.0 569.6 Q 830.4 569.6, 829.2 568.9 Q 828.0 568.2, 827.3 567.0 Q 826.6 565.8, 826.6 564.2 Q 826.6 562.5, 827.4 561.2 Q 828.1 559.8, 829.5 559.1 Q 830.8 558.3, 832.6 558.3 M 829.1 564.2 Q 829.1 565.8, 830.0 566.7 Q 830.9 567.6, 832.4 567.6 Q 833.5 567.6, 834.5 567.1 Q 835.6 566.7, 836.4 565.9 Q 836.3 563.0, 835.3 561.7 Q 834.4 560.4, 832.5 560.4 Q 831.6 560.4, 830.8 560.9 Q 830.0 561.4, 829.6 562.2 Q 829.1 563.1, 829.1 564.2 " fill="#000000"/>
<path class="atom-19" d="M 868.7 846.1 Q 868.7 841.8, 870.8 839.5 Q 872.9 837.1, 876.8 837.1 Q 880.7 837.1, 882.8 839.5 Q 884.9 841.8, 884.9 846.1 Q 884.9 850.4, 882.8 852.8 Q 880.7 855.3, 876.8 855.3 Q 872.9 855.3, 870.8 852.8 Q 868.7 850.4, 868.7 846.1 M 876.8 853.3 Q 879.5 853.3, 880.9 851.5 Q 882.4 849.6, 882.4 846.1 Q 882.4 842.6, 880.9 840.9 Q 879.5 839.1, 876.8 839.1 Q 874.1 839.1, 872.6 840.8 Q 871.2 842.6, 871.2 846.1 Q 871.2 849.7, 872.6 851.5 Q 874.1 853.3, 876.8 853.3 " fill="#FF0000"/>
<path class="atom-19" d="M 887.6 840.6 Q 888.2 839.0, 889.8 838.0 Q 891.3 837.1, 893.5 837.1 Q 896.1 837.1, 897.6 838.5 Q 899.1 840.0, 899.1 842.6 Q 899.1 845.2, 897.2 847.6 Q 895.3 850.1, 891.3 853.0 L 899.4 853.0 L 899.4 855.0 L 887.5 855.0 L 887.5 853.3 Q 890.8 851.0, 892.8 849.2 Q 894.7 847.5, 895.7 845.9 Q 896.6 844.3, 896.6 842.7 Q 896.6 841.0, 895.8 840.0 Q 894.9 839.1, 893.5 839.1 Q 892.0 839.1, 891.1 839.7 Q 890.1 840.2, 889.5 841.5 L 887.6 840.6 " fill="#FF0000"/>
<path class="atom-19" d="M 908.8 855.2 Q 905.5 855.2, 903.9 852.8 Q 902.3 850.4, 902.3 846.1 Q 902.3 841.8, 903.9 839.5 Q 905.5 837.1, 908.8 837.1 Q 912.1 837.1, 913.7 839.5 Q 915.3 841.8, 915.3 846.1 Q 915.3 850.4, 913.6 852.8 Q 912.0 855.2, 908.8 855.2 M 908.8 853.2 Q 910.7 853.2, 911.7 851.4 Q 912.8 849.6, 912.8 846.1 Q 912.8 842.6, 911.7 840.9 Q 910.7 839.1, 908.8 839.1 Q 906.9 839.1, 905.8 840.9 Q 904.8 842.6, 904.8 846.1 Q 904.8 849.6, 905.8 851.4 Q 906.9 853.2, 908.8 853.2 " fill="#FF0000"/>
<path class="atom-20" d="M 737.8 489.1 Q 737.8 484.9, 739.9 482.5 Q 742.0 480.1, 745.9 480.1 Q 749.9 480.1, 752.0 482.5 Q 754.1 484.9, 754.1 489.1 Q 754.1 493.4, 751.9 495.9 Q 749.8 498.3, 745.9 498.3 Q 742.0 498.3, 739.9 495.9 Q 737.8 493.5, 737.8 489.1 M 745.9 496.3 Q 748.6 496.3, 750.1 494.5 Q 751.6 492.7, 751.6 489.1 Q 751.6 485.7, 750.1 483.9 Q 748.6 482.1, 745.9 482.1 Q 743.2 482.1, 741.8 483.9 Q 740.3 485.6, 740.3 489.1 Q 740.3 492.7, 741.8 494.5 Q 743.2 496.3, 745.9 496.3 " fill="#FF0000"/>
<path class="atom-20" d="M 756.7 483.7 Q 757.3 482.0, 758.9 481.1 Q 760.4 480.1, 762.6 480.1 Q 765.2 480.1, 766.7 481.6 Q 768.2 483.0, 768.2 485.6 Q 768.2 488.2, 766.3 490.7 Q 764.4 493.1, 760.4 496.0 L 768.5 496.0 L 768.5 498.0 L 756.6 498.0 L 756.6 496.4 Q 759.9 494.0, 761.9 492.3 Q 763.8 490.5, 764.8 488.9 Q 765.7 487.4, 765.7 485.7 Q 765.7 484.0, 764.9 483.1 Q 764.0 482.1, 762.6 482.1 Q 761.1 482.1, 760.2 482.7 Q 759.2 483.3, 758.6 484.6 L 756.7 483.7 " fill="#FF0000"/>
<path class="atom-20" d="M 772.3 496.0 L 776.2 496.0 L 776.2 482.8 L 771.9 484.1 L 771.3 482.7 L 776.7 480.2 L 778.5 480.5 L 778.5 496.0 L 782.0 496.0 L 782.0 498.0 L 772.3 498.0 L 772.3 496.0 " fill="#FF0000"/>
<path class="atom-21" d="M 699.2 419.9 Q 699.2 415.5, 701.3 413.2 Q 703.4 410.9, 707.3 410.9 Q 710.9 410.9, 712.9 413.5 L 711.2 414.8 Q 709.8 412.9, 707.3 412.9 Q 704.6 412.9, 703.2 414.7 Q 701.8 416.5, 701.8 419.9 Q 701.8 423.4, 703.2 425.2 Q 704.7 427.0, 707.6 427.0 Q 709.5 427.0, 711.8 425.8 L 712.5 427.7 Q 711.6 428.3, 710.2 428.7 Q 708.8 429.0, 707.2 429.0 Q 703.4 429.0, 701.3 426.7 Q 699.2 424.3, 699.2 419.9 " fill="#000000"/>
<path class="atom-21" d="M 715.2 414.4 Q 715.8 412.8, 717.4 411.8 Q 718.9 410.9, 721.1 410.9 Q 723.8 410.9, 725.3 412.3 Q 726.8 413.8, 726.8 416.4 Q 726.8 419.0, 724.8 421.4 Q 722.9 423.9, 718.9 426.8 L 727.1 426.8 L 727.1 428.8 L 715.1 428.8 L 715.1 427.1 Q 718.4 424.8, 720.4 423.0 Q 722.4 421.3, 723.3 419.7 Q 724.3 418.1, 724.3 416.5 Q 724.3 414.8, 723.4 413.8 Q 722.6 412.9, 721.1 412.9 Q 719.7 412.9, 718.7 413.5 Q 717.8 414.0, 717.1 415.3 L 715.2 414.4 " fill="#000000"/>
<path class="atom-21" d="M 729.9 414.4 Q 730.5 412.8, 732.1 411.8 Q 733.6 410.9, 735.8 410.9 Q 738.4 410.9, 739.9 412.3 Q 741.4 413.8, 741.4 416.4 Q 741.4 419.0, 739.5 421.4 Q 737.6 423.9, 733.6 426.8 L 741.7 426.8 L 741.7 428.8 L 729.8 428.8 L 729.8 427.1 Q 733.1 424.8, 735.1 423.0 Q 737.0 421.3, 738.0 419.7 Q 738.9 418.1, 738.9 416.5 Q 738.9 414.8, 738.1 413.8 Q 737.2 412.9, 735.8 412.9 Q 734.3 412.9, 733.4 413.5 Q 732.4 414.0, 731.8 415.3 L 729.9 414.4 " fill="#000000"/>
<path class="atom-22" d="M 422.0 449.3 Q 422.0 444.9, 424.0 442.6 Q 426.1 440.2, 430.0 440.2 Q 433.7 440.2, 435.6 442.8 L 434.0 444.2 Q 432.6 442.3, 430.0 442.3 Q 427.4 442.3, 425.9 444.1 Q 424.5 445.9, 424.5 449.3 Q 424.5 452.8, 426.0 454.6 Q 427.5 456.4, 430.3 456.4 Q 432.3 456.4, 434.5 455.2 L 435.2 457.1 Q 434.3 457.7, 432.9 458.0 Q 431.5 458.4, 430.0 458.4 Q 426.1 458.4, 424.0 456.0 Q 422.0 453.7, 422.0 449.3 " fill="#000000"/>
<path class="atom-22" d="M 437.9 443.8 Q 438.6 442.1, 440.1 441.2 Q 441.7 440.2, 443.8 440.2 Q 446.5 440.2, 448.0 441.7 Q 449.5 443.1, 449.5 445.7 Q 449.5 448.3, 447.6 450.8 Q 445.6 453.2, 441.6 456.1 L 449.8 456.1 L 449.8 458.1 L 437.9 458.1 L 437.9 456.5 Q 441.2 454.1, 443.1 452.4 Q 445.1 450.6, 446.1 449.0 Q 447.0 447.5, 447.0 445.8 Q 447.0 444.1, 446.2 443.2 Q 445.3 442.2, 443.8 442.2 Q 442.4 442.2, 441.5 442.8 Q 440.5 443.4, 439.8 444.7 L 437.9 443.8 " fill="#000000"/>
<path class="atom-22" d="M 461.1 448.8 Q 462.8 449.3, 463.6 450.4 Q 464.5 451.5, 464.5 453.3 Q 464.5 454.8, 463.7 456.0 Q 463.0 457.1, 461.6 457.8 Q 460.2 458.4, 458.4 458.4 Q 456.5 458.4, 455.1 457.7 Q 453.7 457.1, 452.6 455.7 L 454.0 454.3 Q 455.1 455.5, 456.0 455.9 Q 456.9 456.4, 458.4 456.4 Q 460.0 456.4, 461.0 455.5 Q 462.0 454.7, 462.0 453.3 Q 462.0 451.5, 460.9 450.7 Q 459.9 449.8, 457.8 449.8 L 456.5 449.8 L 456.5 448.0 L 457.6 448.0 Q 459.5 448.0, 460.6 447.2 Q 461.6 446.3, 461.6 444.8 Q 461.6 443.6, 460.7 442.9 Q 459.9 442.2, 458.4 442.2 Q 457.0 442.2, 456.0 442.8 Q 455.1 443.3, 454.4 444.6 L 452.7 443.7 Q 453.3 442.2, 454.8 441.2 Q 456.3 440.2, 458.4 440.2 Q 461.0 440.2, 462.6 441.5 Q 464.1 442.7, 464.1 444.8 Q 464.1 446.2, 463.3 447.2 Q 462.5 448.2, 461.1 448.8 " fill="#000000"/>
<path class="atom-23" d="M 436.1 609.1 Q 436.1 604.8, 438.2 602.4 Q 440.3 600.1, 444.3 600.1 Q 448.2 600.1, 450.3 602.4 Q 452.4 604.8, 452.4 609.1 Q 452.4 613.4, 450.3 615.8 Q 448.1 618.2, 444.3 618.2 Q 440.4 618.2, 438.2 615.8 Q 436.1 613.4, 436.1 609.1 M 444.3 616.2 Q 447.0 616.2, 448.4 614.4 Q 449.9 612.6, 449.9 609.1 Q 449.9 605.6, 448.4 603.8 Q 447.0 602.1, 444.3 602.1 Q 441.6 602.1, 440.1 603.8 Q 438.6 605.6, 438.6 609.1 Q 438.6 612.6, 440.1 614.4 Q 441.6 616.2, 444.3 616.2 " fill="#FF0000"/>
<path class="atom-23" d="M 455.1 603.6 Q 455.7 601.9, 457.3 601.0 Q 458.8 600.1, 461.0 600.1 Q 463.7 600.1, 465.2 601.5 Q 466.7 603.0, 466.7 605.5 Q 466.7 608.2, 464.7 610.6 Q 462.8 613.1, 458.8 616.0 L 467.0 616.0 L 467.0 618.0 L 455.0 618.0 L 455.0 616.3 Q 458.3 613.9, 460.3 612.2 Q 462.3 610.4, 463.2 608.9 Q 464.2 607.3, 464.2 605.7 Q 464.2 604.0, 463.3 603.0 Q 462.5 602.1, 461.0 602.1 Q 459.6 602.1, 458.6 602.6 Q 457.7 603.2, 457.0 604.5 L 455.1 603.6 " fill="#FF0000"/>
<path class="atom-23" d="M 481.3 611.9 L 483.5 611.9 L 483.5 613.9 L 481.3 613.9 L 481.3 618.0 L 479.0 618.0 L 479.0 613.9 L 469.8 613.9 L 469.8 612.3 L 477.6 600.3 L 481.3 600.3 L 481.3 611.9 M 472.7 611.9 L 479.0 611.9 L 479.0 601.9 L 472.7 611.9 " fill="#FF0000"/>
<path class="atom-24" d="M 868.8 686.2 Q 868.8 681.8, 870.8 679.5 Q 872.9 677.2, 876.8 677.2 Q 880.5 677.2, 882.4 679.8 L 880.8 681.1 Q 879.3 679.3, 876.8 679.3 Q 874.1 679.3, 872.7 681.1 Q 871.3 682.8, 871.3 686.2 Q 871.3 689.7, 872.8 691.5 Q 874.2 693.3, 877.1 693.3 Q 879.0 693.3, 881.3 692.2 L 882.0 694.0 Q 881.1 694.6, 879.7 695.0 Q 878.3 695.3, 876.7 695.3 Q 872.9 695.3, 870.8 693.0 Q 868.8 690.6, 868.8 686.2 " fill="#000000"/>
<path class="atom-24" d="M 884.7 680.8 Q 885.4 679.1, 886.9 678.2 Q 888.5 677.2, 890.6 677.2 Q 893.3 677.2, 894.8 678.7 Q 896.3 680.1, 896.3 682.7 Q 896.3 685.3, 894.3 687.8 Q 892.4 690.2, 888.4 693.1 L 896.6 693.1 L 896.6 695.1 L 884.7 695.1 L 884.7 693.4 Q 888.0 691.1, 889.9 689.3 Q 891.9 687.6, 892.8 686.0 Q 893.8 684.4, 893.8 682.8 Q 893.8 681.1, 892.9 680.2 Q 892.1 679.2, 890.6 679.2 Q 889.2 679.2, 888.2 679.8 Q 887.3 680.4, 886.6 681.6 L 884.7 680.8 " fill="#000000"/>
<path class="atom-24" d="M 905.8 684.0 Q 907.3 684.0, 908.6 684.7 Q 909.9 685.4, 910.6 686.6 Q 911.3 687.8, 911.3 689.5 Q 911.3 691.3, 910.4 692.7 Q 909.5 694.0, 908.1 694.6 Q 906.6 695.3, 905.0 695.3 Q 903.4 695.3, 901.9 694.7 Q 900.4 694.1, 899.3 693.0 L 900.8 691.4 Q 901.7 692.3, 902.8 692.8 Q 903.9 693.3, 905.1 693.3 Q 906.6 693.3, 907.7 692.3 Q 908.8 691.3, 908.8 689.6 Q 908.8 687.7, 907.7 686.8 Q 906.6 685.9, 904.9 685.9 Q 903.4 685.9, 901.6 686.6 L 900.3 685.9 L 901.1 677.4 L 910.2 677.4 L 910.0 679.4 L 903.2 679.4 L 902.6 684.7 Q 904.2 684.0, 905.8 684.0 " fill="#000000"/>
<path class="atom-25" d="M 771.7 915.7 Q 771.7 911.3, 773.8 909.0 Q 775.8 906.7, 779.8 906.7 Q 783.4 906.7, 785.4 909.3 L 783.7 910.6 Q 782.3 908.8, 779.8 908.8 Q 777.1 908.8, 775.7 910.6 Q 774.3 912.3, 774.3 915.7 Q 774.3 919.2, 775.7 921.0 Q 777.2 922.8, 780.0 922.8 Q 782.0 922.8, 784.3 921.7 L 785.0 923.5 Q 784.0 924.1, 782.6 924.5 Q 781.2 924.8, 779.7 924.8 Q 775.8 924.8, 773.8 922.5 Q 771.7 920.1, 771.7 915.7 " fill="#000000"/>
<path class="atom-25" d="M 787.7 910.3 Q 788.3 908.6, 789.9 907.7 Q 791.4 906.7, 793.6 906.7 Q 796.2 906.7, 797.7 908.2 Q 799.2 909.6, 799.2 912.2 Q 799.2 914.8, 797.3 917.3 Q 795.4 919.7, 791.4 922.6 L 799.5 922.6 L 799.5 924.6 L 787.6 924.6 L 787.6 922.9 Q 790.9 920.6, 792.9 918.8 Q 794.8 917.1, 795.8 915.5 Q 796.7 913.9, 796.7 912.3 Q 796.7 910.6, 795.9 909.7 Q 795.0 908.7, 793.6 908.7 Q 792.1 908.7, 791.2 909.3 Q 790.2 909.9, 789.6 911.1 L 787.7 910.3 " fill="#000000"/>
<path class="atom-25" d="M 809.2 913.6 Q 810.8 913.6, 812.0 914.2 Q 813.2 914.9, 813.9 916.1 Q 814.6 917.4, 814.6 918.9 Q 814.6 920.6, 813.8 922.0 Q 813.1 923.3, 811.7 924.1 Q 810.4 924.8, 808.6 924.8 Q 805.5 924.8, 803.9 922.7 Q 802.3 920.5, 802.3 916.3 Q 802.3 911.6, 804.3 909.2 Q 806.2 906.7, 810.0 906.7 Q 811.1 906.7, 812.0 907.0 Q 813.0 907.2, 813.9 907.7 L 812.9 909.4 Q 811.6 908.7, 810.0 908.7 Q 807.5 908.7, 806.3 910.3 Q 805.0 911.9, 804.8 915.3 Q 805.7 914.4, 806.9 914.0 Q 808.0 913.6, 809.2 913.6 M 808.7 922.8 Q 809.6 922.8, 810.4 922.3 Q 811.2 921.8, 811.6 920.9 Q 812.1 920.0, 812.1 918.9 Q 812.1 917.4, 811.2 916.5 Q 810.3 915.6, 808.8 915.6 Q 807.7 915.6, 806.6 916.0 Q 805.6 916.4, 804.8 917.2 Q 804.9 920.1, 805.9 921.4 Q 806.8 922.8, 808.7 922.8 " fill="#000000"/>
<path class="atom-26" d="M 659.1 916.0 Q 659.1 911.7, 661.2 909.4 Q 663.3 907.0, 667.2 907.0 Q 671.1 907.0, 673.2 909.4 Q 675.3 911.7, 675.3 916.0 Q 675.3 920.3, 673.2 922.7 Q 671.1 925.2, 667.2 925.2 Q 663.3 925.2, 661.2 922.7 Q 659.1 920.3, 659.1 916.0 M 667.2 923.2 Q 669.9 923.2, 671.3 921.4 Q 672.8 919.5, 672.8 916.0 Q 672.8 912.5, 671.3 910.8 Q 669.9 909.0, 667.2 909.0 Q 664.5 909.0, 663.0 910.7 Q 661.6 912.5, 661.6 916.0 Q 661.6 919.6, 663.0 921.4 Q 664.5 923.2, 667.2 923.2 " fill="#FF0000"/>
<path class="atom-26" d="M 677.9 910.5 Q 678.6 908.9, 680.1 907.9 Q 681.7 907.0, 683.8 907.0 Q 686.5 907.0, 688.0 908.4 Q 689.5 909.9, 689.5 912.5 Q 689.5 915.1, 687.6 917.5 Q 685.6 920.0, 681.6 922.9 L 689.8 922.9 L 689.8 924.9 L 677.9 924.9 L 677.9 923.2 Q 681.2 920.9, 683.1 919.1 Q 685.1 917.4, 686.1 915.8 Q 687.0 914.2, 687.0 912.6 Q 687.0 910.9, 686.2 909.9 Q 685.3 909.0, 683.8 909.0 Q 682.4 909.0, 681.5 909.6 Q 680.5 910.1, 679.8 911.4 L 677.9 910.5 " fill="#FF0000"/>
<path class="atom-26" d="M 701.9 909.2 L 692.6 909.2 L 692.6 907.2 L 704.4 907.2 L 704.4 909.0 L 697.2 924.9 L 694.8 924.9 L 701.9 909.2 " fill="#FF0000"/>
<path class="atom-27" d="M 563.1 847.3 Q 563.1 842.9, 565.1 840.6 Q 567.2 838.3, 571.1 838.3 Q 574.8 838.3, 576.7 840.9 L 575.1 842.2 Q 573.6 840.4, 571.1 840.4 Q 568.4 840.4, 567.0 842.2 Q 565.6 843.9, 565.6 847.3 Q 565.6 850.8, 567.1 852.6 Q 568.5 854.4, 571.4 854.4 Q 573.3 854.4, 575.6 853.3 L 576.3 855.1 Q 575.4 855.7, 574.0 856.1 Q 572.6 856.4, 571.0 856.4 Q 567.2 856.4, 565.1 854.1 Q 563.1 851.7, 563.1 847.3 " fill="#000000"/>
<path class="atom-27" d="M 579.0 841.9 Q 579.7 840.2, 581.2 839.3 Q 582.8 838.3, 584.9 838.3 Q 587.6 838.3, 589.1 839.8 Q 590.6 841.2, 590.6 843.8 Q 590.6 846.4, 588.7 848.9 Q 586.7 851.3, 582.7 854.2 L 590.9 854.2 L 590.9 856.2 L 579.0 856.2 L 579.0 854.5 Q 582.3 852.2, 584.2 850.4 Q 586.2 848.7, 587.2 847.1 Q 588.1 845.5, 588.1 843.9 Q 588.1 842.2, 587.3 841.3 Q 586.4 840.3, 584.9 840.3 Q 583.5 840.3, 582.6 840.9 Q 581.6 841.5, 580.9 842.7 L 579.0 841.9 " fill="#000000"/>
<path class="atom-27" d="M 602.7 846.8 Q 604.3 847.5, 605.2 848.6 Q 606.2 849.6, 606.2 851.4 Q 606.2 852.9, 605.4 854.0 Q 604.6 855.2, 603.2 855.8 Q 601.8 856.5, 600.0 856.5 Q 597.1 856.5, 595.4 855.1 Q 593.7 853.7, 593.7 851.4 Q 593.7 849.9, 594.4 848.8 Q 595.2 847.7, 596.7 846.9 Q 595.6 846.3, 594.9 845.3 Q 594.3 844.3, 594.3 842.8 Q 594.3 840.8, 595.8 839.5 Q 597.3 838.3, 599.9 838.3 Q 602.5 838.3, 604.0 839.5 Q 605.5 840.8, 605.5 842.8 Q 605.5 844.1, 604.8 845.1 Q 604.1 846.1, 602.7 846.8 M 599.9 840.2 Q 598.4 840.2, 597.6 840.9 Q 596.8 841.6, 596.8 842.8 Q 596.8 843.8, 597.4 844.4 Q 597.9 845.0, 598.7 845.3 Q 599.5 845.7, 601.0 846.2 Q 602.1 845.5, 602.5 844.7 Q 603.0 843.9, 603.0 842.8 Q 603.0 841.6, 602.2 840.9 Q 601.4 840.2, 599.9 840.2 M 600.0 854.6 Q 601.7 854.6, 602.7 853.7 Q 603.7 852.8, 603.7 851.3 Q 603.7 850.4, 603.1 849.8 Q 602.6 849.2, 601.8 848.8 Q 601.0 848.5, 599.6 848.0 L 598.5 847.7 Q 597.3 848.4, 596.7 849.3 Q 596.2 850.2, 596.2 851.3 Q 596.2 852.8, 597.2 853.7 Q 598.3 854.6, 600.0 854.6 " fill="#000000"/>
<path class="atom-28" d="M 299.9 609.6 Q 299.9 605.2, 302.0 602.9 Q 304.0 600.6, 308.0 600.6 Q 311.6 600.6, 313.6 603.1 L 311.9 604.5 Q 310.5 602.6, 308.0 602.6 Q 305.3 602.6, 303.9 604.4 Q 302.5 606.2, 302.5 609.6 Q 302.5 613.1, 303.9 614.9 Q 305.4 616.7, 308.2 616.7 Q 310.2 616.7, 312.5 615.5 L 313.2 617.4 Q 312.2 618.0, 310.8 618.3 Q 309.4 618.7, 307.9 618.7 Q 304.0 618.7, 302.0 616.3 Q 299.9 614.0, 299.9 609.6 " fill="#000000"/>
<path class="atom-28" d="M 315.9 604.1 Q 316.5 602.4, 318.1 601.5 Q 319.6 600.6, 321.8 600.6 Q 324.5 600.6, 326.0 602.0 Q 327.5 603.5, 327.5 606.0 Q 327.5 608.7, 325.5 611.1 Q 323.6 613.6, 319.6 616.5 L 327.8 616.5 L 327.8 618.5 L 315.8 618.5 L 315.8 616.8 Q 319.1 614.4, 321.1 612.7 Q 323.1 610.9, 324.0 609.4 Q 325.0 607.8, 325.0 606.2 Q 325.0 604.5, 324.1 603.5 Q 323.3 602.6, 321.8 602.6 Q 320.4 602.6, 319.4 603.1 Q 318.5 603.7, 317.8 605.0 L 315.9 604.1 " fill="#000000"/>
<path class="atom-28" d="M 336.5 600.6 Q 339.6 600.6, 341.2 602.7 Q 342.8 604.8, 342.8 609.1 Q 342.8 613.8, 340.8 616.2 Q 338.9 618.7, 335.1 618.7 Q 334.0 618.7, 333.0 618.4 Q 332.1 618.2, 331.2 617.6 L 332.2 616.0 Q 333.5 616.7, 335.1 616.7 Q 337.6 616.7, 338.8 615.1 Q 340.1 613.4, 340.3 610.1 Q 339.4 610.9, 338.2 611.4 Q 337.1 611.8, 335.9 611.8 Q 334.3 611.8, 333.1 611.1 Q 331.9 610.5, 331.2 609.2 Q 330.5 608.0, 330.5 606.5 Q 330.5 604.7, 331.3 603.4 Q 332.0 602.1, 333.4 601.3 Q 334.7 600.6, 336.5 600.6 M 333.0 606.4 Q 333.0 608.0, 333.9 608.9 Q 334.8 609.8, 336.3 609.8 Q 337.4 609.8, 338.4 609.4 Q 339.5 608.9, 340.3 608.2 Q 340.2 605.3, 339.2 603.9 Q 338.3 602.6, 336.4 602.6 Q 335.5 602.6, 334.7 603.1 Q 333.9 603.6, 333.5 604.5 Q 333.0 605.4, 333.0 606.4 " fill="#000000"/>
<path class="atom-29" d="M 244.9 569.6 Q 244.9 565.2, 246.9 562.9 Q 249.0 560.6, 252.9 560.6 Q 256.6 560.6, 258.5 563.2 L 256.9 564.5 Q 255.5 562.6, 252.9 562.6 Q 250.3 562.6, 248.8 564.4 Q 247.4 566.2, 247.4 569.6 Q 247.4 573.1, 248.9 574.9 Q 250.4 576.7, 253.2 576.7 Q 255.2 576.7, 257.4 575.5 L 258.1 577.4 Q 257.2 578.0, 255.8 578.4 Q 254.4 578.7, 252.9 578.7 Q 249.0 578.7, 246.9 576.4 Q 244.9 574.0, 244.9 569.6 " fill="#000000"/>
<path class="atom-29" d="M 269.3 569.2 Q 271.0 569.7, 271.9 570.8 Q 272.7 571.9, 272.7 573.6 Q 272.7 575.1, 272.0 576.3 Q 271.2 577.5, 269.8 578.1 Q 268.5 578.7, 266.7 578.7 Q 264.8 578.7, 263.3 578.1 Q 261.9 577.4, 260.8 576.1 L 262.2 574.6 Q 263.3 575.8, 264.3 576.3 Q 265.2 576.7, 266.7 576.7 Q 268.3 576.7, 269.2 575.9 Q 270.2 575.0, 270.2 573.6 Q 270.2 571.8, 269.2 571.0 Q 268.2 570.2, 266.0 570.2 L 264.7 570.2 L 264.7 568.4 L 265.9 568.4 Q 267.8 568.4, 268.8 567.5 Q 269.8 566.7, 269.8 565.1 Q 269.8 564.0, 269.0 563.3 Q 268.1 562.6, 266.7 562.6 Q 265.2 562.6, 264.3 563.1 Q 263.4 563.6, 262.7 565.0 L 261.0 564.0 Q 261.6 562.6, 263.1 561.6 Q 264.6 560.6, 266.7 560.6 Q 269.3 560.6, 270.8 561.8 Q 272.3 563.0, 272.3 565.1 Q 272.3 566.5, 271.6 567.6 Q 270.8 568.6, 269.3 569.2 " fill="#000000"/>
<path class="atom-29" d="M 282.0 578.7 Q 278.7 578.7, 277.1 576.3 Q 275.5 573.9, 275.5 569.6 Q 275.5 565.3, 277.1 563.0 Q 278.7 560.6, 282.0 560.6 Q 285.2 560.6, 286.8 563.0 Q 288.4 565.3, 288.4 569.6 Q 288.4 573.9, 286.8 576.3 Q 285.2 578.7, 282.0 578.7 M 282.0 576.7 Q 283.9 576.7, 284.9 574.9 Q 285.9 573.1, 285.9 569.6 Q 285.9 566.1, 284.9 564.4 Q 283.9 562.6, 282.0 562.6 Q 280.1 562.6, 279.0 564.4 Q 278.0 566.1, 278.0 569.6 Q 278.0 573.1, 279.0 574.9 Q 280.1 576.7, 282.0 576.7 " fill="#000000"/>
<path class="atom-30" d="M 593.6 927.4 Q 593.6 923.0, 595.7 920.7 Q 597.8 918.4, 601.7 918.4 Q 605.3 918.4, 607.3 920.9 L 605.6 922.3 Q 604.2 920.4, 601.7 920.4 Q 599.0 920.4, 597.6 922.2 Q 596.2 924.0, 596.2 927.4 Q 596.2 930.9, 597.6 932.7 Q 599.1 934.5, 602.0 934.5 Q 603.9 934.5, 606.2 933.3 L 606.9 935.2 Q 606.0 935.8, 604.6 936.1 Q 603.2 936.5, 601.6 936.5 Q 597.8 936.5, 595.7 934.1 Q 593.6 931.8, 593.6 927.4 " fill="#000000"/>
<path class="atom-30" d="M 618.0 926.9 Q 619.7 927.4, 620.5 928.6 Q 621.4 929.7, 621.4 931.4 Q 621.4 932.9, 620.6 934.1 Q 619.9 935.2, 618.5 935.9 Q 617.1 936.5, 615.3 936.5 Q 613.4 936.5, 612.0 935.9 Q 610.6 935.2, 609.5 933.8 L 610.9 932.4 Q 612.0 933.6, 612.9 934.1 Q 613.9 934.5, 615.3 934.5 Q 616.9 934.5, 617.9 933.7 Q 618.9 932.8, 618.9 931.4 Q 618.9 929.6, 617.9 928.8 Q 616.9 928.0, 614.7 928.0 L 613.4 928.0 L 613.4 926.2 L 614.5 926.2 Q 616.5 926.1, 617.5 925.3 Q 618.5 924.5, 618.5 922.9 Q 618.5 921.7, 617.7 921.1 Q 616.8 920.4, 615.4 920.4 Q 613.9 920.4, 613.0 920.9 Q 612.1 921.4, 611.4 922.7 L 609.6 921.8 Q 610.3 920.3, 611.8 919.4 Q 613.3 918.4, 615.4 918.4 Q 618.0 918.4, 619.5 919.6 Q 621.0 920.8, 621.0 922.9 Q 621.0 924.3, 620.2 925.3 Q 619.5 926.4, 618.0 926.9 " fill="#000000"/>
<path class="atom-30" d="M 625.0 934.3 L 628.9 934.3 L 628.9 921.0 L 624.6 922.4 L 624.1 920.9 L 629.5 918.5 L 631.3 918.8 L 631.3 934.3 L 634.7 934.3 L 634.7 936.3 L 625.0 936.3 L 625.0 934.3 " fill="#000000"/>
<path class="atom-31" d="M 244.8 489.6 Q 244.8 485.2, 246.9 482.9 Q 248.9 480.5, 252.9 480.5 Q 256.5 480.5, 258.5 483.1 L 256.8 484.5 Q 255.4 482.6, 252.9 482.6 Q 250.2 482.6, 248.8 484.4 Q 247.4 486.2, 247.4 489.6 Q 247.4 493.1, 248.8 494.9 Q 250.3 496.7, 253.1 496.7 Q 255.1 496.7, 257.4 495.5 L 258.1 497.4 Q 257.1 498.0, 255.7 498.3 Q 254.3 498.7, 252.8 498.7 Q 248.9 498.7, 246.9 496.3 Q 244.8 494.0, 244.8 489.6 " fill="#000000"/>
<path class="atom-31" d="M 269.2 489.1 Q 270.9 489.6, 271.8 490.7 Q 272.6 491.8, 272.6 493.6 Q 272.6 495.1, 271.9 496.3 Q 271.1 497.4, 269.7 498.1 Q 268.4 498.7, 266.6 498.7 Q 264.7 498.7, 263.2 498.0 Q 261.8 497.4, 260.7 496.0 L 262.1 494.6 Q 263.2 495.8, 264.2 496.2 Q 265.1 496.7, 266.6 496.7 Q 268.2 496.7, 269.1 495.8 Q 270.1 495.0, 270.1 493.6 Q 270.1 491.8, 269.1 491.0 Q 268.1 490.1, 265.9 490.1 L 264.6 490.1 L 264.6 488.3 L 265.8 488.3 Q 267.7 488.3, 268.7 487.5 Q 269.7 486.6, 269.7 485.1 Q 269.7 483.9, 268.9 483.2 Q 268.0 482.5, 266.6 482.5 Q 265.1 482.5, 264.2 483.1 Q 263.3 483.6, 262.6 484.9 L 260.9 484.0 Q 261.5 482.5, 263.0 481.5 Q 264.5 480.5, 266.6 480.5 Q 269.2 480.5, 270.7 481.8 Q 272.2 483.0, 272.2 485.1 Q 272.2 486.5, 271.5 487.5 Q 270.7 488.5, 269.2 489.1 " fill="#000000"/>
<path class="atom-31" d="M 275.4 484.1 Q 276.0 482.4, 277.6 481.5 Q 279.1 480.5, 281.3 480.5 Q 284.0 480.5, 285.5 482.0 Q 287.0 483.4, 287.0 486.0 Q 287.0 488.6, 285.0 491.1 Q 283.1 493.5, 279.1 496.4 L 287.3 496.4 L 287.3 498.4 L 275.3 498.4 L 275.3 496.8 Q 278.6 494.4, 280.6 492.7 Q 282.6 490.9, 283.5 489.3 Q 284.5 487.8, 284.5 486.1 Q 284.5 484.4, 283.6 483.5 Q 282.8 482.5, 281.3 482.5 Q 279.9 482.5, 278.9 483.1 Q 278.0 483.7, 277.3 485.0 L 275.4 484.1 " fill="#000000"/>
<path class="atom-32" d="M 284.3 449.2 Q 284.3 444.8, 286.4 442.5 Q 288.4 440.2, 292.4 440.2 Q 296.0 440.2, 298.0 442.8 L 296.3 444.1 Q 294.9 442.2, 292.4 442.2 Q 289.7 442.2, 288.3 444.0 Q 286.9 445.8, 286.9 449.2 Q 286.9 452.7, 288.3 454.5 Q 289.8 456.3, 292.6 456.3 Q 294.6 456.3, 296.9 455.1 L 297.6 457.0 Q 296.6 457.6, 295.2 458.0 Q 293.8 458.3, 292.3 458.3 Q 288.4 458.3, 286.4 456.0 Q 284.3 453.6, 284.3 449.2 " fill="#000000"/>
<path class="atom-32" d="M 308.7 448.8 Q 310.4 449.3, 311.3 450.4 Q 312.1 451.5, 312.1 453.2 Q 312.1 454.7, 311.4 455.9 Q 310.6 457.1, 309.2 457.7 Q 307.9 458.3, 306.1 458.3 Q 304.2 458.3, 302.7 457.7 Q 301.3 457.0, 300.2 455.7 L 301.6 454.2 Q 302.7 455.4, 303.7 455.9 Q 304.6 456.3, 306.1 456.3 Q 307.7 456.3, 308.6 455.5 Q 309.6 454.6, 309.6 453.2 Q 309.6 451.4, 308.6 450.6 Q 307.6 449.8, 305.4 449.8 L 304.1 449.8 L 304.1 448.0 L 305.3 448.0 Q 307.2 448.0, 308.2 447.1 Q 309.2 446.3, 309.2 444.7 Q 309.2 443.6, 308.4 442.9 Q 307.5 442.2, 306.1 442.2 Q 304.6 442.2, 303.7 442.7 Q 302.8 443.2, 302.1 444.6 L 300.4 443.6 Q 301.0 442.2, 302.5 441.2 Q 304.0 440.2, 306.1 440.2 Q 308.7 440.2, 310.2 441.4 Q 311.7 442.6, 311.7 444.7 Q 311.7 446.1, 311.0 447.2 Q 310.2 448.2, 308.7 448.8 " fill="#000000"/>
<path class="atom-32" d="M 323.3 448.8 Q 325.1 449.3, 325.9 450.4 Q 326.7 451.5, 326.7 453.2 Q 326.7 454.7, 326.0 455.9 Q 325.2 457.1, 323.9 457.7 Q 322.5 458.3, 320.7 458.3 Q 318.8 458.3, 317.4 457.7 Q 316.0 457.0, 314.8 455.7 L 316.3 454.2 Q 317.4 455.4, 318.3 455.9 Q 319.2 456.3, 320.7 456.3 Q 322.3 456.3, 323.3 455.5 Q 324.2 454.6, 324.2 453.2 Q 324.2 451.4, 323.2 450.6 Q 322.2 449.8, 320.0 449.8 L 318.8 449.8 L 318.8 448.0 L 319.9 448.0 Q 321.8 448.0, 322.8 447.1 Q 323.9 446.3, 323.9 444.7 Q 323.9 443.6, 323.0 442.9 Q 322.2 442.2, 320.7 442.2 Q 319.2 442.2, 318.3 442.7 Q 317.4 443.2, 316.7 444.6 L 315.0 443.6 Q 315.6 442.2, 317.1 441.2 Q 318.6 440.2, 320.7 440.2 Q 323.3 440.2, 324.8 441.4 Q 326.4 442.6, 326.4 444.7 Q 326.4 446.1, 325.6 447.2 Q 324.8 448.2, 323.3 448.8 " fill="#000000"/>
<path class="atom-33" d="M 313.8 369.2 Q 313.8 364.8, 315.8 362.5 Q 317.9 360.1, 321.8 360.1 Q 325.5 360.1, 327.4 362.7 L 325.8 364.1 Q 324.4 362.2, 321.8 362.2 Q 319.2 362.2, 317.7 364.0 Q 316.3 365.8, 316.3 369.2 Q 316.3 372.7, 317.8 374.5 Q 319.3 376.3, 322.1 376.3 Q 324.1 376.3, 326.3 375.1 L 327.0 377.0 Q 326.1 377.6, 324.7 377.9 Q 323.3 378.3, 321.8 378.3 Q 317.9 378.3, 315.8 375.9 Q 313.8 373.6, 313.8 369.2 " fill="#000000"/>
<path class="atom-33" d="M 338.2 368.7 Q 340.0 369.2, 340.8 370.3 Q 341.6 371.4, 341.6 373.2 Q 341.6 374.7, 340.9 375.9 Q 340.1 377.0, 338.8 377.7 Q 337.4 378.3, 335.6 378.3 Q 333.7 378.3, 332.3 377.6 Q 330.9 377.0, 329.7 375.6 L 331.2 374.2 Q 332.3 375.4, 333.2 375.8 Q 334.1 376.3, 335.6 376.3 Q 337.2 376.3, 338.2 375.4 Q 339.1 374.6, 339.1 373.2 Q 339.1 371.4, 338.1 370.6 Q 337.1 369.7, 334.9 369.7 L 333.7 369.7 L 333.7 367.9 L 334.8 367.9 Q 336.7 367.9, 337.7 367.1 Q 338.8 366.2, 338.8 364.7 Q 338.8 363.5, 337.9 362.8 Q 337.1 362.1, 335.6 362.1 Q 334.1 362.1, 333.2 362.7 Q 332.3 363.2, 331.6 364.5 L 329.9 363.6 Q 330.5 362.1, 332.0 361.1 Q 333.5 360.1, 335.6 360.1 Q 338.2 360.1, 339.7 361.4 Q 341.3 362.6, 341.3 364.7 Q 341.3 366.1, 340.5 367.1 Q 339.7 368.1, 338.2 368.7 " fill="#000000"/>
<path class="atom-33" d="M 355.9 372.0 L 358.0 372.0 L 358.0 374.0 L 355.9 374.0 L 355.9 378.0 L 353.6 378.0 L 353.6 374.0 L 344.4 374.0 L 344.4 372.4 L 352.2 360.3 L 355.9 360.3 L 355.9 372.0 M 347.3 372.0 L 353.6 372.0 L 353.6 361.9 L 347.3 372.0 " fill="#000000"/>
<path class="atom-34" d="M 142.6 449.6 Q 142.6 445.4, 144.7 443.0 Q 146.8 440.6, 150.7 440.6 Q 154.6 440.6, 156.7 443.0 Q 158.8 445.4, 158.8 449.6 Q 158.8 453.9, 156.7 456.4 Q 154.6 458.8, 150.7 458.8 Q 146.8 458.8, 144.7 456.4 Q 142.6 454.0, 142.6 449.6 M 150.7 456.8 Q 153.4 456.8, 154.8 455.0 Q 156.3 453.2, 156.3 449.6 Q 156.3 446.2, 154.8 444.4 Q 153.4 442.6, 150.7 442.6 Q 148.0 442.6, 146.5 444.4 Q 145.1 446.1, 145.1 449.6 Q 145.1 453.2, 146.5 455.0 Q 148.0 456.8, 150.7 456.8 " fill="#FF0000"/>
<path class="atom-34" d="M 169.9 449.2 Q 171.6 449.7, 172.5 450.8 Q 173.3 451.9, 173.3 453.7 Q 173.3 455.2, 172.6 456.4 Q 171.8 457.5, 170.4 458.2 Q 169.1 458.8, 167.3 458.8 Q 165.4 458.8, 163.9 458.1 Q 162.5 457.5, 161.4 456.1 L 162.8 454.7 Q 163.9 455.9, 164.9 456.3 Q 165.8 456.8, 167.3 456.8 Q 168.9 456.8, 169.8 455.9 Q 170.8 455.1, 170.8 453.7 Q 170.8 451.9, 169.8 451.1 Q 168.8 450.2, 166.6 450.2 L 165.3 450.2 L 165.3 448.4 L 166.5 448.4 Q 168.4 448.4, 169.4 447.6 Q 170.4 446.7, 170.4 445.2 Q 170.4 444.0, 169.6 443.3 Q 168.7 442.6, 167.3 442.6 Q 165.8 442.6, 164.9 443.2 Q 164.0 443.7, 163.3 445.0 L 161.6 444.1 Q 162.2 442.6, 163.7 441.6 Q 165.2 440.6, 167.3 440.6 Q 169.9 440.6, 171.4 441.9 Q 172.9 443.1, 172.9 445.2 Q 172.9 446.6, 172.2 447.6 Q 171.4 448.6, 169.9 449.2 " fill="#FF0000"/>
<path class="atom-34" d="M 182.5 447.5 Q 184.1 447.5, 185.4 448.1 Q 186.6 448.8, 187.4 450.0 Q 188.1 451.3, 188.1 452.9 Q 188.1 454.8, 187.2 456.1 Q 186.3 457.4, 184.9 458.1 Q 183.4 458.7, 181.8 458.7 Q 180.1 458.7, 178.6 458.1 Q 177.1 457.5, 176.1 456.4 L 177.6 454.8 Q 178.4 455.7, 179.6 456.2 Q 180.7 456.7, 181.8 456.7 Q 183.4 456.7, 184.5 455.7 Q 185.6 454.8, 185.6 453.0 Q 185.6 451.1, 184.5 450.2 Q 183.4 449.3, 181.7 449.3 Q 180.1 449.3, 178.4 450.0 L 177.0 449.4 L 177.9 440.8 L 187.0 440.8 L 186.7 442.8 L 179.9 442.8 L 179.4 448.1 Q 181.0 447.5, 182.5 447.5 " fill="#FF0000"/>
<path class="atom-35" d="M 133.2 555.9 Q 133.2 551.7, 135.3 549.3 Q 137.4 546.9, 141.3 546.9 Q 145.2 546.9, 147.3 549.3 Q 149.4 551.7, 149.4 555.9 Q 149.4 560.2, 147.3 562.7 Q 145.2 565.1, 141.3 565.1 Q 137.4 565.1, 135.3 562.7 Q 133.2 560.2, 133.2 555.9 M 141.3 563.1 Q 144.0 563.1, 145.4 561.3 Q 146.9 559.5, 146.9 555.9 Q 146.9 552.4, 145.4 550.7 Q 144.0 548.9, 141.3 548.9 Q 138.6 548.9, 137.1 550.7 Q 135.7 552.4, 135.7 555.9 Q 135.7 559.5, 137.1 561.3 Q 138.6 563.1, 141.3 563.1 " fill="#FF0000"/>
<path class="atom-35" d="M 160.5 555.5 Q 162.2 556.0, 163.0 557.1 Q 163.9 558.2, 163.9 560.0 Q 163.9 561.5, 163.1 562.6 Q 162.4 563.8, 161.0 564.4 Q 159.6 565.1, 157.8 565.1 Q 155.9 565.1, 154.5 564.4 Q 153.1 563.7, 152.0 562.4 L 153.4 560.9 Q 154.5 562.1, 155.4 562.6 Q 156.4 563.1, 157.8 563.1 Q 159.4 563.1, 160.4 562.2 Q 161.4 561.3, 161.4 559.9 Q 161.4 558.1, 160.4 557.3 Q 159.4 556.5, 157.2 556.5 L 155.9 556.5 L 155.9 554.7 L 157.0 554.7 Q 159.0 554.7, 160.0 553.9 Q 161.0 553.0, 161.0 551.4 Q 161.0 550.3, 160.2 549.6 Q 159.3 548.9, 157.9 548.9 Q 156.4 548.9, 155.5 549.4 Q 154.6 550.0, 153.9 551.3 L 152.1 550.4 Q 152.8 548.9, 154.3 547.9 Q 155.8 546.9, 157.9 546.9 Q 160.5 546.9, 162.0 548.1 Q 163.5 549.4, 163.5 551.4 Q 163.5 552.9, 162.7 553.9 Q 162.0 554.9, 160.5 555.5 " fill="#FF0000"/>
<path class="atom-35" d="M 173.6 553.8 Q 175.2 553.8, 176.4 554.4 Q 177.6 555.1, 178.3 556.3 Q 179.0 557.6, 179.0 559.1 Q 179.0 560.8, 178.2 562.2 Q 177.5 563.5, 176.1 564.3 Q 174.8 565.0, 173.0 565.0 Q 169.9 565.0, 168.3 562.9 Q 166.7 560.7, 166.7 556.5 Q 166.7 551.8, 168.7 549.4 Q 170.6 546.9, 174.4 546.9 Q 175.5 546.9, 176.4 547.2 Q 177.4 547.4, 178.3 547.9 L 177.3 549.6 Q 176.0 548.9, 174.4 548.9 Q 171.9 548.9, 170.7 550.5 Q 169.4 552.1, 169.2 555.5 Q 170.1 554.6, 171.3 554.2 Q 172.4 553.8, 173.6 553.8 M 173.1 563.0 Q 174.0 563.0, 174.8 562.5 Q 175.6 562.0, 176.0 561.1 Q 176.5 560.2, 176.5 559.1 Q 176.5 557.6, 175.6 556.7 Q 174.7 555.8, 173.2 555.8 Q 172.1 555.8, 171.0 556.2 Q 170.0 556.6, 169.2 557.4 Q 169.3 560.3, 170.3 561.6 Q 171.2 563.0, 173.1 563.0 " fill="#FF0000"/>
<path class="atom-36" d="M 217.8 645.0 Q 217.8 640.6, 219.8 638.3 Q 221.9 636.0, 225.8 636.0 Q 229.5 636.0, 231.4 638.5 L 229.8 639.9 Q 228.3 638.0, 225.8 638.0 Q 223.1 638.0, 221.7 639.8 Q 220.3 641.6, 220.3 645.0 Q 220.3 648.5, 221.8 650.3 Q 223.2 652.1, 226.1 652.1 Q 228.0 652.1, 230.3 650.9 L 231.0 652.8 Q 230.1 653.4, 228.7 653.7 Q 227.3 654.1, 225.7 654.1 Q 221.9 654.1, 219.8 651.7 Q 217.8 649.4, 217.8 645.0 " fill="#000000"/>
<path class="atom-36" d="M 242.2 644.5 Q 243.9 645.0, 244.7 646.2 Q 245.6 647.3, 245.6 649.0 Q 245.6 650.5, 244.8 651.7 Q 244.1 652.8, 242.7 653.5 Q 241.3 654.1, 239.5 654.1 Q 237.6 654.1, 236.2 653.5 Q 234.8 652.8, 233.7 651.4 L 235.1 650.0 Q 236.2 651.2, 237.1 651.7 Q 238.0 652.1, 239.5 652.1 Q 241.1 652.1, 242.1 651.3 Q 243.1 650.4, 243.1 649.0 Q 243.1 647.2, 242.0 646.4 Q 241.0 645.6, 238.9 645.6 L 237.6 645.6 L 237.6 643.8 L 238.7 643.8 Q 240.6 643.7, 241.7 642.9 Q 242.7 642.1, 242.7 640.5 Q 242.7 639.3, 241.8 638.7 Q 241.0 638.0, 239.5 638.0 Q 238.1 638.0, 237.1 638.5 Q 236.2 639.0, 235.5 640.3 L 233.8 639.4 Q 234.4 637.9, 235.9 637.0 Q 237.4 636.0, 239.5 636.0 Q 242.1 636.0, 243.7 637.2 Q 245.2 638.4, 245.2 640.5 Q 245.2 641.9, 244.4 642.9 Q 243.6 644.0, 242.2 644.5 " fill="#000000"/>
<path class="atom-36" d="M 257.6 638.2 L 248.3 638.2 L 248.3 636.2 L 260.0 636.2 L 260.0 637.9 L 252.9 653.9 L 250.5 653.9 L 257.6 638.2 " fill="#000000"/>
<path class="atom-37" d="M 84.7 617.4 Q 84.7 613.0, 86.8 610.7 Q 88.9 608.4, 92.8 608.4 Q 96.4 608.4, 98.4 611.0 L 96.7 612.3 Q 95.3 610.5, 92.8 610.5 Q 90.1 610.5, 88.7 612.3 Q 87.3 614.0, 87.3 617.4 Q 87.3 620.9, 88.7 622.7 Q 90.2 624.5, 93.1 624.5 Q 95.0 624.5, 97.3 623.4 L 98.0 625.2 Q 97.1 625.8, 95.7 626.2 Q 94.3 626.5, 92.7 626.5 Q 88.9 626.5, 86.8 624.2 Q 84.7 621.8, 84.7 617.4 " fill="#000000"/>
<path class="atom-37" d="M 109.2 617.0 Q 110.9 617.5, 111.7 618.6 Q 112.6 619.7, 112.6 621.5 Q 112.6 623.0, 111.8 624.1 Q 111.1 625.3, 109.7 625.9 Q 108.3 626.6, 106.5 626.6 Q 104.6 626.6, 103.2 625.9 Q 101.8 625.2, 100.7 623.9 L 102.1 622.4 Q 103.2 623.6, 104.1 624.1 Q 105.0 624.6, 106.5 624.6 Q 108.1 624.6, 109.1 623.7 Q 110.1 622.8, 110.1 621.4 Q 110.1 619.6, 109.0 618.8 Q 108.0 618.0, 105.9 618.0 L 104.6 618.0 L 104.6 616.2 L 105.7 616.2 Q 107.6 616.2, 108.7 615.4 Q 109.7 614.5, 109.7 612.9 Q 109.7 611.8, 108.8 611.1 Q 108.0 610.4, 106.5 610.4 Q 105.1 610.4, 104.1 610.9 Q 103.2 611.5, 102.5 612.8 L 100.8 611.9 Q 101.4 610.4, 102.9 609.4 Q 104.4 608.4, 106.5 608.4 Q 109.1 608.4, 110.7 609.6 Q 112.2 610.9, 112.2 612.9 Q 112.2 614.4, 111.4 615.4 Q 110.6 616.4, 109.2 617.0 " fill="#000000"/>
<path class="atom-37" d="M 124.3 616.9 Q 125.9 617.6, 126.9 618.7 Q 127.8 619.7, 127.8 621.5 Q 127.8 623.0, 127.0 624.1 Q 126.2 625.3, 124.8 625.9 Q 123.5 626.6, 121.6 626.6 Q 118.7 626.6, 117.0 625.2 Q 115.3 623.8, 115.3 621.5 Q 115.3 620.0, 116.0 618.9 Q 116.8 617.8, 118.3 617.0 Q 117.2 616.4, 116.6 615.4 Q 115.9 614.4, 115.9 612.9 Q 115.9 610.9, 117.4 609.6 Q 119.0 608.4, 121.5 608.4 Q 124.1 608.4, 125.6 609.6 Q 127.1 610.9, 127.1 612.9 Q 127.1 614.2, 126.4 615.2 Q 125.7 616.2, 124.3 616.9 M 121.5 610.3 Q 120.1 610.3, 119.2 611.0 Q 118.4 611.7, 118.4 612.9 Q 118.4 613.9, 119.0 614.5 Q 119.5 615.1, 120.3 615.4 Q 121.1 615.8, 122.6 616.3 Q 123.7 615.6, 124.2 614.8 Q 124.6 614.0, 124.6 612.9 Q 124.6 611.7, 123.8 611.0 Q 123.0 610.3, 121.5 610.3 M 121.6 624.7 Q 123.3 624.7, 124.3 623.8 Q 125.3 622.9, 125.3 621.4 Q 125.3 620.5, 124.8 619.9 Q 124.2 619.3, 123.4 618.9 Q 122.7 618.6, 121.3 618.1 L 120.1 617.8 Q 118.9 618.5, 118.3 619.4 Q 117.8 620.3, 117.8 621.4 Q 117.8 622.9, 118.8 623.8 Q 119.9 624.7, 121.6 624.7 " fill="#000000"/>
<path class="atom-38" d="M 660.4 328.2 Q 660.4 323.8, 662.5 321.5 Q 664.6 319.1, 668.5 319.1 Q 672.1 319.1, 674.1 321.7 L 672.4 323.1 Q 671.0 321.2, 668.5 321.2 Q 665.8 321.2, 664.4 323.0 Q 663.0 324.8, 663.0 328.2 Q 663.0 331.7, 664.4 333.5 Q 665.9 335.3, 668.8 335.3 Q 670.7 335.3, 673.0 334.1 L 673.7 336.0 Q 672.8 336.6, 671.4 336.9 Q 670.0 337.3, 668.4 337.3 Q 664.6 337.3, 662.5 334.9 Q 660.4 332.6, 660.4 328.2 " fill="#000000"/>
<path class="atom-38" d="M 684.8 327.7 Q 686.6 328.2, 687.4 329.3 Q 688.2 330.4, 688.2 332.2 Q 688.2 333.7, 687.5 334.9 Q 686.7 336.0, 685.4 336.7 Q 684.0 337.3, 682.2 337.3 Q 680.3 337.3, 678.9 336.6 Q 677.5 336.0, 676.3 334.6 L 677.8 333.2 Q 678.9 334.4, 679.8 334.8 Q 680.7 335.3, 682.2 335.3 Q 683.8 335.3, 684.8 334.4 Q 685.7 333.6, 685.7 332.2 Q 685.7 330.4, 684.7 329.6 Q 683.7 328.7, 681.5 328.7 L 680.3 328.7 L 680.3 326.9 L 681.4 326.9 Q 683.3 326.9, 684.3 326.1 Q 685.4 325.2, 685.4 323.7 Q 685.4 322.5, 684.5 321.8 Q 683.7 321.1, 682.2 321.1 Q 680.7 321.1, 679.8 321.7 Q 678.9 322.2, 678.2 323.5 L 676.5 322.6 Q 677.1 321.1, 678.6 320.1 Q 680.1 319.1, 682.2 319.1 Q 684.8 319.1, 686.3 320.4 Q 687.9 321.6, 687.9 323.7 Q 687.9 325.1, 687.1 326.1 Q 686.3 327.1, 684.8 327.7 " fill="#000000"/>
<path class="atom-38" d="M 696.9 319.1 Q 700.1 319.1, 701.7 321.3 Q 703.3 323.4, 703.3 327.7 Q 703.3 332.4, 701.3 334.8 Q 699.3 337.2, 695.6 337.2 Q 694.5 337.2, 693.5 337.0 Q 692.6 336.7, 691.7 336.2 L 692.7 334.5 Q 694.0 335.2, 695.5 335.2 Q 698.0 335.2, 699.3 333.6 Q 700.6 332.0, 700.7 328.7 Q 699.8 329.5, 698.7 330.0 Q 697.6 330.4, 696.3 330.4 Q 694.8 330.4, 693.6 329.7 Q 692.3 329.0, 691.7 327.8 Q 691.0 326.6, 691.0 325.0 Q 691.0 323.3, 691.7 322.0 Q 692.5 320.6, 693.9 319.9 Q 695.2 319.1, 696.9 319.1 M 693.5 325.0 Q 693.5 326.6, 694.4 327.5 Q 695.2 328.4, 696.8 328.4 Q 697.9 328.4, 698.9 328.0 Q 700.0 327.5, 700.7 326.8 Q 700.6 323.8, 699.7 322.5 Q 698.8 321.2, 696.9 321.2 Q 696.0 321.2, 695.2 321.7 Q 694.4 322.2, 693.9 323.1 Q 693.5 323.9, 693.5 325.0 " fill="#000000"/>
<path class="atom-39" d="M 660.4 248.1 Q 660.4 243.7, 662.4 241.4 Q 664.5 239.1, 668.4 239.1 Q 672.1 239.1, 674.0 241.7 L 672.4 243.0 Q 670.9 241.1, 668.4 241.1 Q 665.7 241.1, 664.3 242.9 Q 662.9 244.7, 662.9 248.1 Q 662.9 251.6, 664.4 253.4 Q 665.8 255.2, 668.7 255.2 Q 670.6 255.2, 672.9 254.0 L 673.6 255.9 Q 672.7 256.5, 671.3 256.9 Q 669.9 257.2, 668.3 257.2 Q 664.5 257.2, 662.4 254.9 Q 660.4 252.5, 660.4 248.1 " fill="#000000"/>
<path class="atom-39" d="M 687.9 250.9 L 690.0 250.9 L 690.0 252.9 L 687.9 252.9 L 687.9 257.0 L 685.5 257.0 L 685.5 252.9 L 676.4 252.9 L 676.4 251.3 L 684.1 239.3 L 687.9 239.3 L 687.9 250.9 M 679.3 250.9 L 685.5 250.9 L 685.5 240.9 L 679.3 250.9 " fill="#000000"/>
<path class="atom-39" d="M 699.0 257.2 Q 695.8 257.2, 694.1 254.8 Q 692.5 252.4, 692.5 248.1 Q 692.5 243.8, 694.1 241.5 Q 695.7 239.1, 699.0 239.1 Q 702.3 239.1, 703.9 241.5 Q 705.5 243.8, 705.5 248.1 Q 705.5 252.4, 703.9 254.8 Q 702.3 257.2, 699.0 257.2 M 699.0 255.2 Q 700.9 255.2, 702.0 253.4 Q 703.0 251.6, 703.0 248.1 Q 703.0 244.6, 702.0 242.9 Q 700.9 241.1, 699.0 241.1 Q 697.1 241.1, 696.1 242.9 Q 695.0 244.6, 695.0 248.1 Q 695.0 251.6, 696.1 253.4 Q 697.1 255.2, 699.0 255.2 " fill="#000000"/>
<path class="atom-40" d="M 714.0 368.1 Q 714.0 363.8, 716.1 361.5 Q 718.2 359.1, 722.2 359.1 Q 726.1 359.1, 728.2 361.5 Q 730.3 363.8, 730.3 368.1 Q 730.3 372.4, 728.2 374.8 Q 726.0 377.3, 722.2 377.3 Q 718.3 377.3, 716.1 374.8 Q 714.0 372.4, 714.0 368.1 M 722.2 375.3 Q 724.9 375.3, 726.3 373.5 Q 727.8 371.6, 727.8 368.1 Q 727.8 364.6, 726.3 362.9 Q 724.9 361.1, 722.2 361.1 Q 719.5 361.1, 718.0 362.8 Q 716.5 364.6, 716.5 368.1 Q 716.5 371.7, 718.0 373.5 Q 719.5 375.3, 722.2 375.3 " fill="#FF0000"/>
<path class="atom-40" d="M 744.4 370.9 L 746.5 370.9 L 746.5 372.9 L 744.4 372.9 L 744.4 377.0 L 742.0 377.0 L 742.0 372.9 L 732.9 372.9 L 732.9 371.3 L 740.6 359.3 L 744.4 359.3 L 744.4 370.9 M 735.8 370.9 L 742.0 370.9 L 742.0 360.9 L 735.8 370.9 " fill="#FF0000"/>
<path class="atom-40" d="M 750.1 375.0 L 753.9 375.0 L 753.9 361.8 L 749.7 363.1 L 749.1 361.6 L 754.5 359.2 L 756.3 359.5 L 756.3 375.0 L 759.8 375.0 L 759.8 377.0 L 750.1 377.0 L 750.1 375.0 " fill="#FF0000"/>
<path class="atom-41" d="M 768.0 327.7 Q 768.0 323.3, 770.0 321.0 Q 772.1 318.7, 776.0 318.7 Q 779.7 318.7, 781.6 321.3 L 780.0 322.6 Q 778.5 320.8, 776.0 320.8 Q 773.3 320.8, 771.9 322.6 Q 770.5 324.3, 770.5 327.7 Q 770.5 331.2, 772.0 333.0 Q 773.4 334.8, 776.3 334.8 Q 778.2 334.8, 780.5 333.7 L 781.2 335.5 Q 780.3 336.1, 778.9 336.5 Q 777.5 336.8, 775.9 336.8 Q 772.1 336.8, 770.0 334.5 Q 768.0 332.1, 768.0 327.7 " fill="#000000"/>
<path class="atom-41" d="M 795.4 330.5 L 797.5 330.5 L 797.5 332.5 L 795.4 332.5 L 795.4 336.6 L 793.1 336.6 L 793.1 332.5 L 783.9 332.5 L 783.9 331.0 L 791.7 318.9 L 795.4 318.9 L 795.4 330.5 M 786.8 330.5 L 793.1 330.5 L 793.1 320.5 L 786.8 330.5 " fill="#000000"/>
<path class="atom-41" d="M 800.1 322.3 Q 800.8 320.6, 802.3 319.7 Q 803.9 318.7, 806.0 318.7 Q 808.7 318.7, 810.2 320.2 Q 811.7 321.6, 811.7 324.2 Q 811.7 326.8, 809.7 329.3 Q 807.8 331.7, 803.8 334.6 L 812.0 334.6 L 812.0 336.6 L 800.1 336.6 L 800.1 334.9 Q 803.4 332.6, 805.3 330.8 Q 807.3 329.1, 808.2 327.5 Q 809.2 325.9, 809.2 324.3 Q 809.2 322.6, 808.3 321.7 Q 807.5 320.7, 806.0 320.7 Q 804.6 320.7, 803.6 321.3 Q 802.7 321.9, 802.0 323.1 L 800.1 322.3 " fill="#000000"/>
<path class="atom-42" d="M 698.3 207.7 Q 698.3 203.3, 700.3 201.0 Q 702.4 198.7, 706.3 198.7 Q 710.0 198.7, 711.9 201.3 L 710.3 202.6 Q 708.8 200.8, 706.3 200.8 Q 703.6 200.8, 702.2 202.6 Q 700.8 204.3, 700.8 207.7 Q 700.8 211.2, 702.3 213.0 Q 703.7 214.8, 706.6 214.8 Q 708.5 214.8, 710.8 213.7 L 711.5 215.5 Q 710.6 216.1, 709.2 216.5 Q 707.8 216.8, 706.2 216.8 Q 702.4 216.8, 700.3 214.5 Q 698.3 212.1, 698.3 207.7 " fill="#000000"/>
<path class="atom-42" d="M 725.7 210.5 L 727.8 210.5 L 727.8 212.5 L 725.7 212.5 L 725.7 216.6 L 723.4 216.6 L 723.4 212.5 L 714.2 212.5 L 714.2 211.0 L 722.0 198.9 L 725.7 198.9 L 725.7 210.5 M 717.1 210.5 L 723.4 210.5 L 723.4 200.5 L 717.1 210.5 " fill="#000000"/>
<path class="atom-42" d="M 738.9 207.3 Q 740.6 207.8, 741.4 208.9 Q 742.3 210.0, 742.3 211.8 Q 742.3 213.3, 741.5 214.4 Q 740.8 215.6, 739.4 216.2 Q 738.0 216.9, 736.2 216.9 Q 734.3 216.9, 732.9 216.2 Q 731.5 215.5, 730.4 214.2 L 731.8 212.7 Q 732.9 213.9, 733.8 214.4 Q 734.7 214.9, 736.2 214.9 Q 737.8 214.9, 738.8 214.0 Q 739.8 213.1, 739.8 211.7 Q 739.8 209.9, 738.7 209.1 Q 737.7 208.3, 735.6 208.3 L 734.3 208.3 L 734.3 206.5 L 735.4 206.5 Q 737.3 206.5, 738.4 205.7 Q 739.4 204.8, 739.4 203.2 Q 739.4 202.1, 738.5 201.4 Q 737.7 200.7, 736.2 200.7 Q 734.8 200.7, 733.8 201.2 Q 732.9 201.8, 732.2 203.1 L 730.5 202.2 Q 731.1 200.7, 732.6 199.7 Q 734.1 198.7, 736.2 198.7 Q 738.8 198.7, 740.4 199.9 Q 741.9 201.2, 741.9 203.2 Q 741.9 204.7, 741.1 205.7 Q 740.3 206.7, 738.9 207.3 " fill="#000000"/>
<path class="atom-43" d="M 799.2 247.7 Q 799.2 243.3, 801.2 241.0 Q 803.3 238.7, 807.2 238.7 Q 810.9 238.7, 812.8 241.3 L 811.2 242.6 Q 809.7 240.7, 807.2 240.7 Q 804.5 240.7, 803.1 242.5 Q 801.7 244.3, 801.7 247.7 Q 801.7 251.2, 803.2 253.0 Q 804.6 254.8, 807.5 254.8 Q 809.4 254.8, 811.7 253.6 L 812.4 255.5 Q 811.5 256.1, 810.1 256.5 Q 808.7 256.8, 807.1 256.8 Q 803.3 256.8, 801.2 254.5 Q 799.2 252.1, 799.2 247.7 " fill="#000000"/>
<path class="atom-43" d="M 826.7 250.5 L 828.8 250.5 L 828.8 252.5 L 826.7 252.5 L 826.7 256.6 L 824.3 256.6 L 824.3 252.5 L 815.2 252.5 L 815.2 250.9 L 822.9 238.9 L 826.7 238.9 L 826.7 250.5 M 818.1 250.5 L 824.3 250.5 L 824.3 240.5 L 818.1 250.5 " fill="#000000"/>
<path class="atom-43" d="M 842.9 250.5 L 845.0 250.5 L 845.0 252.5 L 842.9 252.5 L 842.9 256.6 L 840.5 256.6 L 840.5 252.5 L 831.4 252.5 L 831.4 250.9 L 839.1 238.9 L 842.9 238.9 L 842.9 250.5 M 834.3 250.5 L 840.5 250.5 L 840.5 240.5 L 834.3 250.5 " fill="#000000"/>
<path class="atom-44" d="M 868.8 367.6 Q 868.8 363.2, 870.8 360.9 Q 872.9 358.6, 876.8 358.6 Q 880.5 358.6, 882.4 361.2 L 880.8 362.5 Q 879.3 360.7, 876.8 360.7 Q 874.1 360.7, 872.7 362.5 Q 871.3 364.2, 871.3 367.6 Q 871.3 371.1, 872.8 372.9 Q 874.2 374.7, 877.1 374.7 Q 879.0 374.7, 881.3 373.6 L 882.0 375.4 Q 881.1 376.0, 879.7 376.4 Q 878.3 376.7, 876.7 376.7 Q 872.9 376.7, 870.8 374.4 Q 868.8 372.0, 868.8 367.6 " fill="#000000"/>
<path class="atom-44" d="M 896.2 370.4 L 898.3 370.4 L 898.3 372.4 L 896.2 372.4 L 896.2 376.5 L 893.9 376.5 L 893.9 372.4 L 884.7 372.4 L 884.7 370.9 L 892.5 358.8 L 896.2 358.8 L 896.2 370.4 M 887.6 370.4 L 893.9 370.4 L 893.9 360.4 L 887.6 370.4 " fill="#000000"/>
<path class="atom-44" d="M 907.3 365.4 Q 908.9 365.4, 910.1 366.1 Q 911.4 366.8, 912.1 368.0 Q 912.9 369.2, 912.9 370.9 Q 912.9 372.7, 912.0 374.1 Q 911.1 375.4, 909.6 376.0 Q 908.2 376.7, 906.5 376.7 Q 904.9 376.7, 903.4 376.1 Q 901.9 375.5, 900.9 374.4 L 902.4 372.8 Q 903.2 373.7, 904.3 374.2 Q 905.5 374.7, 906.6 374.7 Q 908.2 374.7, 909.3 373.7 Q 910.4 372.7, 910.4 371.0 Q 910.4 369.1, 909.3 368.2 Q 908.2 367.3, 906.5 367.3 Q 904.9 367.3, 903.2 368.0 L 901.8 367.3 L 902.7 358.8 L 911.8 358.8 L 911.5 360.8 L 904.7 360.8 L 904.2 366.1 Q 905.8 365.4, 907.3 365.4 " fill="#000000"/>
<path class="atom-45" d="M 556.3 208.2 Q 556.3 203.9, 558.4 201.6 Q 560.5 199.2, 564.5 199.2 Q 568.4 199.2, 570.5 201.6 Q 572.6 203.9, 572.6 208.2 Q 572.6 212.5, 570.5 214.9 Q 568.3 217.4, 564.5 217.4 Q 560.6 217.4, 558.4 214.9 Q 556.3 212.5, 556.3 208.2 M 564.5 215.4 Q 567.2 215.4, 568.6 213.6 Q 570.1 211.7, 570.1 208.2 Q 570.1 204.7, 568.6 203.0 Q 567.2 201.2, 564.5 201.2 Q 561.8 201.2, 560.3 202.9 Q 558.8 204.7, 558.8 208.2 Q 558.8 211.8, 560.3 213.6 Q 561.8 215.4, 564.5 215.4 " fill="#FF0000"/>
<path class="atom-45" d="M 586.7 211.0 L 588.9 211.0 L 588.9 213.0 L 586.7 213.0 L 586.7 217.1 L 584.4 217.1 L 584.4 213.0 L 575.2 213.0 L 575.2 211.4 L 583.0 199.4 L 586.7 199.4 L 586.7 211.0 M 578.1 211.0 L 584.4 211.0 L 584.4 201.0 L 578.1 211.0 " fill="#FF0000"/>
<path class="atom-45" d="M 598.4 206.0 Q 600.0 206.0, 601.2 206.7 Q 602.4 207.4, 603.1 208.6 Q 603.8 209.8, 603.8 211.4 Q 603.8 213.1, 603.0 214.5 Q 602.2 215.8, 600.9 216.5 Q 599.5 217.3, 597.8 217.3 Q 594.7 217.3, 593.1 215.2 Q 591.5 213.0, 591.5 208.8 Q 591.5 204.1, 593.4 201.6 Q 595.4 199.2, 599.2 199.2 Q 600.3 199.2, 601.2 199.4 Q 602.2 199.7, 603.1 200.2 L 602.1 201.9 Q 600.8 201.2, 599.2 201.2 Q 596.7 201.2, 595.4 202.8 Q 594.2 204.4, 594.0 207.7 Q 594.9 206.9, 596.0 206.5 Q 597.2 206.0, 598.4 206.0 M 597.8 215.2 Q 598.8 215.2, 599.6 214.7 Q 600.4 214.2, 600.8 213.4 Q 601.3 212.5, 601.3 211.4 Q 601.3 209.8, 600.4 208.9 Q 599.5 208.0, 598.0 208.0 Q 596.9 208.0, 595.8 208.5 Q 594.8 208.9, 594.0 209.7 Q 594.1 212.6, 595.0 213.9 Q 596.0 215.2, 597.8 215.2 " fill="#FF0000"/>
<path class="atom-46" d="M 732.2 118.8 L 738.0 128.2 Q 738.6 129.1, 739.5 130.8 Q 740.5 132.4, 740.5 132.5 L 740.5 118.8 L 742.9 118.8 L 742.9 136.5 L 740.4 136.5 L 734.2 126.2 Q 733.5 125.0, 732.7 123.7 Q 732.0 122.3, 731.7 121.9 L 731.7 136.5 L 729.4 136.5 L 729.4 118.8 L 732.2 118.8 " fill="#0000FF"/>
<path class="atom-46" d="M 757.7 130.4 L 759.9 130.4 L 759.9 132.4 L 757.7 132.4 L 757.7 136.5 L 755.4 136.5 L 755.4 132.4 L 746.2 132.4 L 746.2 130.8 L 754.0 118.8 L 757.7 118.8 L 757.7 130.4 M 749.1 130.4 L 755.4 130.4 L 755.4 120.4 L 749.1 130.4 " fill="#0000FF"/>
<path class="atom-46" d="M 771.6 120.8 L 762.4 120.8 L 762.4 118.8 L 774.1 118.8 L 774.1 120.6 L 767.0 136.5 L 764.6 136.5 L 771.6 120.8 " fill="#0000FF"/>
<path class="atom-47" d="M 798.6 87.5 Q 798.6 83.1, 800.6 80.8 Q 802.7 78.4, 806.6 78.4 Q 810.3 78.4, 812.2 81.0 L 810.6 82.4 Q 809.2 80.5, 806.6 80.5 Q 804.0 80.5, 802.5 82.3 Q 801.1 84.1, 801.1 87.5 Q 801.1 91.0, 802.6 92.8 Q 804.1 94.6, 806.9 94.6 Q 808.9 94.6, 811.1 93.4 L 811.8 95.3 Q 810.9 95.9, 809.5 96.2 Q 808.1 96.6, 806.6 96.6 Q 802.7 96.6, 800.6 94.2 Q 798.6 91.9, 798.6 87.5 " fill="#000000"/>
<path class="atom-47" d="M 826.1 90.3 L 828.2 90.3 L 828.2 92.3 L 826.1 92.3 L 826.1 96.3 L 823.7 96.3 L 823.7 92.3 L 814.6 92.3 L 814.6 90.7 L 822.3 78.6 L 826.1 78.6 L 826.1 90.3 M 817.5 90.3 L 823.7 90.3 L 823.7 80.2 L 817.5 90.3 " fill="#000000"/>
<path class="atom-47" d="M 839.8 87.0 Q 841.4 87.7, 842.3 88.7 Q 843.2 89.7, 843.2 91.5 Q 843.2 93.0, 842.5 94.2 Q 841.7 95.3, 840.3 96.0 Q 838.9 96.6, 837.1 96.6 Q 834.1 96.6, 832.4 95.2 Q 830.7 93.9, 830.7 91.5 Q 830.7 90.0, 831.5 89.0 Q 832.2 87.9, 833.8 87.0 Q 832.6 86.4, 832.0 85.4 Q 831.4 84.5, 831.4 83.0 Q 831.4 80.9, 832.9 79.7 Q 834.4 78.4, 837.0 78.4 Q 839.6 78.4, 841.1 79.7 Q 842.6 80.9, 842.6 83.0 Q 842.6 84.3, 841.9 85.2 Q 841.2 86.2, 839.8 87.0 M 837.0 80.3 Q 835.5 80.3, 834.7 81.0 Q 833.9 81.7, 833.9 83.0 Q 833.9 83.9, 834.4 84.5 Q 835.0 85.1, 835.8 85.5 Q 836.6 85.8, 838.1 86.3 Q 839.2 85.6, 839.6 84.8 Q 840.1 84.0, 840.1 83.0 Q 840.1 81.7, 839.3 81.0 Q 838.5 80.3, 837.0 80.3 M 837.1 94.7 Q 838.7 94.7, 839.7 93.8 Q 840.7 92.9, 840.7 91.5 Q 840.7 90.5, 840.2 89.9 Q 839.7 89.3, 838.9 89.0 Q 838.1 88.6, 836.7 88.2 L 835.6 87.8 Q 834.3 88.5, 833.8 89.4 Q 833.2 90.3, 833.2 91.5 Q 833.2 92.9, 834.3 93.8 Q 835.3 94.7, 837.1 94.7 " fill="#000000"/>
<path class="atom-48" d="M 628.4 87.8 Q 628.4 83.4, 630.4 81.1 Q 632.5 78.8, 636.4 78.8 Q 640.1 78.8, 642.0 81.4 L 640.4 82.7 Q 639.0 80.9, 636.4 80.9 Q 633.8 80.9, 632.3 82.7 Q 630.9 84.4, 630.9 87.8 Q 630.9 91.3, 632.4 93.1 Q 633.9 94.9, 636.7 94.9 Q 638.7 94.9, 640.9 93.8 L 641.6 95.6 Q 640.7 96.2, 639.3 96.6 Q 637.9 96.9, 636.4 96.9 Q 632.5 96.9, 630.4 94.6 Q 628.4 92.2, 628.4 87.8 " fill="#000000"/>
<path class="atom-48" d="M 655.9 90.6 L 658.0 90.6 L 658.0 92.6 L 655.9 92.6 L 655.9 96.7 L 653.5 96.7 L 653.5 92.6 L 644.4 92.6 L 644.4 91.1 L 652.1 79.0 L 655.9 79.0 L 655.9 90.6 M 647.3 90.6 L 653.5 90.6 L 653.5 80.6 L 647.3 90.6 " fill="#000000"/>
<path class="atom-48" d="M 666.5 78.8 Q 669.6 78.8, 671.2 81.0 Q 672.8 83.1, 672.8 87.3 Q 672.8 92.0, 670.8 94.5 Q 668.9 96.9, 665.1 96.9 Q 664.0 96.9, 663.1 96.7 Q 662.1 96.4, 661.2 95.9 L 662.2 94.2 Q 663.5 94.9, 665.1 94.9 Q 667.6 94.9, 668.9 93.3 Q 670.1 91.7, 670.3 88.4 Q 669.4 89.2, 668.2 89.6 Q 667.1 90.1, 665.9 90.1 Q 664.3 90.1, 663.1 89.4 Q 661.9 88.7, 661.2 87.5 Q 660.5 86.3, 660.5 84.7 Q 660.5 83.0, 661.3 81.7 Q 662.1 80.3, 663.4 79.6 Q 664.8 78.8, 666.5 78.8 M 663.0 84.7 Q 663.0 86.3, 663.9 87.2 Q 664.8 88.1, 666.3 88.1 Q 667.4 88.1, 668.5 87.6 Q 669.5 87.2, 670.3 86.4 Q 670.2 83.5, 669.3 82.2 Q 668.3 80.9, 666.5 80.9 Q 665.5 80.9, 664.7 81.4 Q 663.9 81.9, 663.5 82.7 Q 663.0 83.6, 663.0 84.7 " fill="#000000"/>
<text x="1000" y="50" font-size="8" font-family="Verdana" font-weight="normal" letter-spacing="0" text-anchor="start" fill="black">Highlighted Atoms:
Primary SOM: Red
Secondary SOM: Green
Tertiary SOM: Cyan
</text></svg>
