<?xml version='1.0' encoding='ASCII' standalone='yes'?>
<svg xmlns="http://www.w3.org/2000/svg" xmlns:rdkit="http://www.rdkit.org/xml" xmlns:xlink="http://www.w3.org/1999/xlink" style="background-color: white;" version="1.1" baseProfile="full" xml:space="preserve" width="1000px" height="1000px" viewBox="0 0 1000 1000">
<!-- END OF HEADER -->
<rect style="opacity:1.0;fill:#FFFFFF;stroke:none" width="1000.0" height="1000.0" x="0.0" y="0.0"> </rect>
<ellipse cx="893.5" cy="452.2" rx="30.3" ry="20.4" class="atom-28" style="fill:#B20000;fill-rule:evenodd;stroke:#B20000;stroke-width:1.0px;stroke-linecap:butt;stroke-linejoin:miter;stroke-opacity:1"/>
<ellipse cx="776.6" cy="248.2" rx="30.8" ry="20.4" class="atom-29" style="fill:#B20000;fill-rule:evenodd;stroke:#B20000;stroke-width:1.0px;stroke-linecap:butt;stroke-linejoin:miter;stroke-opacity:1"/>
<path class="bond-0 atom-1 atom-0" d="M 584.5,542.2 L 584.6,496.9" style="fill:none;fill-rule:evenodd;stroke:#000000;stroke-width:2.0px;stroke-linecap:butt;stroke-linejoin:miter;stroke-opacity:1"/>
<path class="bond-1 atom-2 atom-0" d="M 545.6,462.8 L 569.1,476.5" style="fill:none;fill-rule:evenodd;stroke:#000000;stroke-width:2.0px;stroke-linecap:butt;stroke-linejoin:miter;stroke-opacity:1"/>
<path class="bond-2 atom-3 atom-0" d="M 626.5,461.4 L 600.2,476.6" style="fill:none;fill-rule:evenodd;stroke:#000000;stroke-width:2.0px;stroke-linecap:butt;stroke-linejoin:miter;stroke-opacity:1"/>
<path class="bond-3 atom-4 atom-1" d="M 541.8,578.0 L 568.3,562.7" style="fill:none;fill-rule:evenodd;stroke:#000000;stroke-width:2.0px;stroke-linecap:butt;stroke-linejoin:miter;stroke-opacity:1"/>
<path class="bond-4 atom-5 atom-1" d="M 634.2,582.3 L 600.7,562.8" style="fill:none;fill-rule:evenodd;stroke:#000000;stroke-width:2.0px;stroke-linecap:butt;stroke-linejoin:miter;stroke-opacity:1"/>
<path class="bond-4 atom-5 atom-1" d="M 629.1,591.1 L 595.6,571.6" style="fill:none;fill-rule:evenodd;stroke:#000000;stroke-width:2.0px;stroke-linecap:butt;stroke-linejoin:miter;stroke-opacity:1"/>
<path class="bond-5 atom-6 atom-2" d="M 475.1,480.6 L 516.8,456.6" style="fill:none;fill-rule:evenodd;stroke:#000000;stroke-width:2.0px;stroke-linecap:butt;stroke-linejoin:miter;stroke-opacity:1"/>
<path class="bond-6 atom-7 atom-2" d="M 514.3,396.3 L 523.5,440.2" style="fill:none;fill-rule:evenodd;stroke:#000000;stroke-width:2.0px;stroke-linecap:butt;stroke-linejoin:miter;stroke-opacity:1"/>
<path class="bond-7 atom-8 atom-3" d="M 686.0,476.2 L 660.6,461.5" style="fill:none;fill-rule:evenodd;stroke:#000000;stroke-width:2.0px;stroke-linecap:butt;stroke-linejoin:miter;stroke-opacity:1"/>
<path class="bond-7 atom-8 atom-3" d="M 691.1,467.4 L 665.7,452.7" style="fill:none;fill-rule:evenodd;stroke:#000000;stroke-width:2.0px;stroke-linecap:butt;stroke-linejoin:miter;stroke-opacity:1"/>
<path class="bond-8 atom-9 atom-3" d="M 643.7,395.1 L 643.6,440.5" style="fill:none;fill-rule:evenodd;stroke:#000000;stroke-width:2.0px;stroke-linecap:butt;stroke-linejoin:miter;stroke-opacity:1"/>
<path class="bond-9 atom-10 atom-4" d="M 486.1,564.4 L 509.4,577.9" style="fill:none;fill-rule:evenodd;stroke:#000000;stroke-width:2.0px;stroke-linecap:butt;stroke-linejoin:miter;stroke-opacity:1"/>
<path class="bond-10 atom-10 atom-6" d="M 466.9,542.1 L 467.0,496.5" style="fill:none;fill-rule:evenodd;stroke:#000000;stroke-width:2.0px;stroke-linecap:butt;stroke-linejoin:miter;stroke-opacity:1"/>
<path class="bond-11 atom-11 atom-4" d="M 525.5,644.0 L 525.6,598.7" style="fill:none;fill-rule:evenodd;stroke:#000000;stroke-width:2.0px;stroke-linecap:butt;stroke-linejoin:miter;stroke-opacity:1"/>
<path class="bond-11 atom-11 atom-4" d="M 535.7,644.0 L 535.8,598.7" style="fill:none;fill-rule:evenodd;stroke:#000000;stroke-width:2.0px;stroke-linecap:butt;stroke-linejoin:miter;stroke-opacity:1"/>
<path class="bond-12 atom-12 atom-5" d="M 643.2,644.3 L 643.3,598.9" style="fill:none;fill-rule:evenodd;stroke:#000000;stroke-width:2.0px;stroke-linecap:butt;stroke-linejoin:miter;stroke-opacity:1"/>
<path class="bond-13 atom-13 atom-6" d="M 425.6,447.9 L 454.6,474.1" style="fill:none;fill-rule:evenodd;stroke:#000000;stroke-width:2.0px;stroke-linecap:butt;stroke-linejoin:miter;stroke-opacity:1"/>
<path class="bond-14 atom-14 atom-7" d="M 452.6,378.6 L 477.7,381.3" style="fill:none;fill-rule:evenodd;stroke:#FF0000;stroke-width:2.0px;stroke-linecap:butt;stroke-linejoin:miter;stroke-opacity:1"/>
<path class="bond-14 atom-14 atom-7" d="M 477.7,381.3 L 502.8,384.0" style="fill:none;fill-rule:evenodd;stroke:#000000;stroke-width:2.0px;stroke-linecap:butt;stroke-linejoin:miter;stroke-opacity:1"/>
<path class="bond-15 atom-14 atom-13" d="M 439.2,389.1 L 430.4,408.9" style="fill:none;fill-rule:evenodd;stroke:#FF0000;stroke-width:2.0px;stroke-linecap:butt;stroke-linejoin:miter;stroke-opacity:1"/>
<path class="bond-15 atom-14 atom-13" d="M 430.4,408.9 L 421.5,428.7" style="fill:none;fill-rule:evenodd;stroke:#000000;stroke-width:2.0px;stroke-linecap:butt;stroke-linejoin:miter;stroke-opacity:1"/>
<path class="bond-16 atom-15 atom-7" d="M 550.9,349.4 L 538.3,363.3" style="fill:none;fill-rule:evenodd;stroke:#FF0000;stroke-width:2.0px;stroke-linecap:butt;stroke-linejoin:miter;stroke-opacity:1"/>
<path class="bond-16 atom-15 atom-7" d="M 538.3,363.3 L 525.8,377.2" style="fill:none;fill-rule:evenodd;stroke:#000000;stroke-width:2.0px;stroke-linecap:butt;stroke-linejoin:miter;stroke-opacity:1"/>
<path class="bond-16 atom-15 atom-7" d="M 543.3,342.6 L 530.8,356.5" style="fill:none;fill-rule:evenodd;stroke:#FF0000;stroke-width:2.0px;stroke-linecap:butt;stroke-linejoin:miter;stroke-opacity:1"/>
<path class="bond-16 atom-15 atom-7" d="M 530.8,356.5 L 518.2,370.3" style="fill:none;fill-rule:evenodd;stroke:#000000;stroke-width:2.0px;stroke-linecap:butt;stroke-linejoin:miter;stroke-opacity:1"/>
<path class="bond-17 atom-16 atom-8" d="M 752.2,457.1 L 718.7,476.3" style="fill:none;fill-rule:evenodd;stroke:#000000;stroke-width:2.0px;stroke-linecap:butt;stroke-linejoin:miter;stroke-opacity:1"/>
<path class="bond-18 atom-17 atom-9" d="M 693.5,355.1 L 652.4,378.7" style="fill:none;fill-rule:evenodd;stroke:#000000;stroke-width:2.0px;stroke-linecap:butt;stroke-linejoin:miter;stroke-opacity:1"/>
<path class="bond-18 atom-17 atom-9" d="M 698.6,363.9 L 657.5,387.5" style="fill:none;fill-rule:evenodd;stroke:#000000;stroke-width:2.0px;stroke-linecap:butt;stroke-linejoin:miter;stroke-opacity:1"/>
<path class="bond-19 atom-18 atom-10" d="M 427.4,575.9 L 437.2,570.2" style="fill:none;fill-rule:evenodd;stroke:#FF0000;stroke-width:2.0px;stroke-linecap:butt;stroke-linejoin:miter;stroke-opacity:1"/>
<path class="bond-19 atom-18 atom-10" d="M 437.2,570.2 L 447.0,564.6" style="fill:none;fill-rule:evenodd;stroke:#000000;stroke-width:2.0px;stroke-linecap:butt;stroke-linejoin:miter;stroke-opacity:1"/>
<path class="bond-20 atom-19 atom-11" d="M 564.9,678.1 L 533.7,660.0" style="fill:none;fill-rule:evenodd;stroke:#000000;stroke-width:2.0px;stroke-linecap:butt;stroke-linejoin:miter;stroke-opacity:1"/>
<path class="bond-21 atom-19 atom-12" d="M 593.0,684.3 L 634.1,660.7" style="fill:none;fill-rule:evenodd;stroke:#000000;stroke-width:2.0px;stroke-linecap:butt;stroke-linejoin:miter;stroke-opacity:1"/>
<path class="bond-21 atom-19 atom-12" d="M 587.9,675.5 L 629.0,651.8" style="fill:none;fill-rule:evenodd;stroke:#000000;stroke-width:2.0px;stroke-linecap:butt;stroke-linejoin:miter;stroke-opacity:1"/>
<path class="bond-22 atom-20 atom-12" d="M 683.2,691.6 L 669.3,679.1" style="fill:none;fill-rule:evenodd;stroke:#FF0000;stroke-width:2.0px;stroke-linecap:butt;stroke-linejoin:miter;stroke-opacity:1"/>
<path class="bond-22 atom-20 atom-12" d="M 669.3,679.1 L 655.5,666.6" style="fill:none;fill-rule:evenodd;stroke:#000000;stroke-width:2.0px;stroke-linecap:butt;stroke-linejoin:miter;stroke-opacity:1"/>
<path class="bond-23 atom-21 atom-16" d="M 761.3,395.1 L 761.3,440.7" style="fill:none;fill-rule:evenodd;stroke:#000000;stroke-width:2.0px;stroke-linecap:butt;stroke-linejoin:miter;stroke-opacity:1"/>
<path class="bond-23 atom-21 atom-16" d="M 751.2,395.1 L 751.1,440.7" style="fill:none;fill-rule:evenodd;stroke:#000000;stroke-width:2.0px;stroke-linecap:butt;stroke-linejoin:miter;stroke-opacity:1"/>
<path class="bond-24 atom-21 atom-17" d="M 742.1,372.7 L 721.9,361.0" style="fill:none;fill-rule:evenodd;stroke:#000000;stroke-width:2.0px;stroke-linecap:butt;stroke-linejoin:miter;stroke-opacity:1"/>
<path class="bond-25 atom-22 atom-16" d="M 800.7,474.8 L 790.6,468.9" style="fill:none;fill-rule:evenodd;stroke:#FF0000;stroke-width:2.0px;stroke-linecap:butt;stroke-linejoin:miter;stroke-opacity:1"/>
<path class="bond-25 atom-22 atom-16" d="M 790.6,468.9 L 780.5,463.1" style="fill:none;fill-rule:evenodd;stroke:#000000;stroke-width:2.0px;stroke-linecap:butt;stroke-linejoin:miter;stroke-opacity:1"/>
<path class="bond-26 atom-23 atom-17" d="M 702.7,293.1 L 702.7,315.9" style="fill:none;fill-rule:evenodd;stroke:#FF0000;stroke-width:2.0px;stroke-linecap:butt;stroke-linejoin:miter;stroke-opacity:1"/>
<path class="bond-26 atom-23 atom-17" d="M 702.7,315.9 L 702.6,338.7" style="fill:none;fill-rule:evenodd;stroke:#000000;stroke-width:2.0px;stroke-linecap:butt;stroke-linejoin:miter;stroke-opacity:1"/>
<path class="bond-27 atom-24 atom-18" d="M 368.8,564.3 L 378.7,570.1" style="fill:none;fill-rule:evenodd;stroke:#000000;stroke-width:2.0px;stroke-linecap:butt;stroke-linejoin:miter;stroke-opacity:1"/>
<path class="bond-27 atom-24 atom-18" d="M 378.7,570.1 L 388.6,575.9" style="fill:none;fill-rule:evenodd;stroke:#FF0000;stroke-width:2.0px;stroke-linecap:butt;stroke-linejoin:miter;stroke-opacity:1"/>
<path class="bond-28 atom-25 atom-19" d="M 595.9,744.6 L 591.3,722.6" style="fill:none;fill-rule:evenodd;stroke:#FF0000;stroke-width:2.0px;stroke-linecap:butt;stroke-linejoin:miter;stroke-opacity:1"/>
<path class="bond-28 atom-25 atom-19" d="M 591.3,722.6 L 586.6,700.7" style="fill:none;fill-rule:evenodd;stroke:#000000;stroke-width:2.0px;stroke-linecap:butt;stroke-linejoin:miter;stroke-opacity:1"/>
<path class="bond-29 atom-26 atom-20" d="M 670.8,751.8 L 679.6,732.2" style="fill:none;fill-rule:evenodd;stroke:#000000;stroke-width:2.0px;stroke-linecap:butt;stroke-linejoin:miter;stroke-opacity:1"/>
<path class="bond-29 atom-26 atom-20" d="M 679.6,732.2 L 688.4,712.5" style="fill:none;fill-rule:evenodd;stroke:#FF0000;stroke-width:2.0px;stroke-linecap:butt;stroke-linejoin:miter;stroke-opacity:1"/>
<path class="bond-30 atom-26 atom-25" d="M 656.7,762.0 L 631.7,759.4" style="fill:none;fill-rule:evenodd;stroke:#000000;stroke-width:2.0px;stroke-linecap:butt;stroke-linejoin:miter;stroke-opacity:1"/>
<path class="bond-30 atom-26 atom-25" d="M 631.7,759.4 L 606.6,756.7" style="fill:none;fill-rule:evenodd;stroke:#FF0000;stroke-width:2.0px;stroke-linecap:butt;stroke-linejoin:miter;stroke-opacity:1"/>
<path class="bond-31 atom-27 atom-21" d="M 809.9,356.0 L 795.4,364.4" style="fill:none;fill-rule:evenodd;stroke:#FF0000;stroke-width:2.0px;stroke-linecap:butt;stroke-linejoin:miter;stroke-opacity:1"/>
<path class="bond-31 atom-27 atom-21" d="M 795.4,364.4 L 780.8,372.7" style="fill:none;fill-rule:evenodd;stroke:#000000;stroke-width:2.0px;stroke-linecap:butt;stroke-linejoin:miter;stroke-opacity:1"/>
<path class="bond-32 atom-28 atom-22" d="M 869.8,457.3 L 854.7,466.0" style="fill:none;fill-rule:evenodd;stroke:#000000;stroke-width:2.0px;stroke-linecap:butt;stroke-linejoin:miter;stroke-opacity:1"/>
<path class="bond-32 atom-28 atom-22" d="M 854.7,466.0 L 839.5,474.8" style="fill:none;fill-rule:evenodd;stroke:#FF0000;stroke-width:2.0px;stroke-linecap:butt;stroke-linejoin:miter;stroke-opacity:1"/>
<path class="bond-33 atom-29 atom-23" d="M 752.6,253.3 L 732.2,265.0" style="fill:none;fill-rule:evenodd;stroke:#000000;stroke-width:2.0px;stroke-linecap:butt;stroke-linejoin:miter;stroke-opacity:1"/>
<path class="bond-33 atom-29 atom-23" d="M 732.2,265.0 L 711.8,276.7" style="fill:none;fill-rule:evenodd;stroke:#FF0000;stroke-width:2.0px;stroke-linecap:butt;stroke-linejoin:miter;stroke-opacity:1"/>
<path class="bond-34 atom-30 atom-24" d="M 349.3,496.5 L 349.2,519.1" style="fill:none;fill-rule:evenodd;stroke:#FF0000;stroke-width:2.0px;stroke-linecap:butt;stroke-linejoin:miter;stroke-opacity:1"/>
<path class="bond-34 atom-30 atom-24" d="M 349.2,519.1 L 349.2,541.8" style="fill:none;fill-rule:evenodd;stroke:#000000;stroke-width:2.0px;stroke-linecap:butt;stroke-linejoin:miter;stroke-opacity:1"/>
<path class="bond-35 atom-31 atom-24" d="M 309.7,575.6 L 329.3,564.4" style="fill:none;fill-rule:evenodd;stroke:#000000;stroke-width:2.0px;stroke-linecap:butt;stroke-linejoin:miter;stroke-opacity:1"/>
<path class="bond-36 atom-32 atom-30" d="M 310.3,462.4 L 324.6,470.7" style="fill:none;fill-rule:evenodd;stroke:#000000;stroke-width:2.0px;stroke-linecap:butt;stroke-linejoin:miter;stroke-opacity:1"/>
<path class="bond-36 atom-32 atom-30" d="M 324.6,470.7 L 338.9,479.0" style="fill:none;fill-rule:evenodd;stroke:#FF0000;stroke-width:2.0px;stroke-linecap:butt;stroke-linejoin:miter;stroke-opacity:1"/>
<path class="bond-37 atom-33 atom-31" d="M 251.2,564.2 L 271.0,575.6" style="fill:none;fill-rule:evenodd;stroke:#000000;stroke-width:2.0px;stroke-linecap:butt;stroke-linejoin:miter;stroke-opacity:1"/>
<path class="bond-38 atom-34 atom-31" d="M 290.2,643.5 L 290.2,620.9" style="fill:none;fill-rule:evenodd;stroke:#FF0000;stroke-width:2.0px;stroke-linecap:butt;stroke-linejoin:miter;stroke-opacity:1"/>
<path class="bond-38 atom-34 atom-31" d="M 290.2,620.9 L 290.2,598.3" style="fill:none;fill-rule:evenodd;stroke:#000000;stroke-width:2.0px;stroke-linecap:butt;stroke-linejoin:miter;stroke-opacity:1"/>
<path class="bond-39 atom-35 atom-32" d="M 251.1,473.6 L 270.7,462.4" style="fill:none;fill-rule:evenodd;stroke:#000000;stroke-width:2.0px;stroke-linecap:butt;stroke-linejoin:miter;stroke-opacity:1"/>
<path class="bond-40 atom-35 atom-33" d="M 231.6,496.2 L 231.5,541.5" style="fill:none;fill-rule:evenodd;stroke:#000000;stroke-width:2.0px;stroke-linecap:butt;stroke-linejoin:miter;stroke-opacity:1"/>
<path class="bond-41 atom-36 atom-32" d="M 290.7,394.4 L 290.6,439.7" style="fill:none;fill-rule:evenodd;stroke:#000000;stroke-width:2.0px;stroke-linecap:butt;stroke-linejoin:miter;stroke-opacity:1"/>
<path class="bond-42 atom-37 atom-33" d="M 181.1,581.7 L 201.8,569.8" style="fill:none;fill-rule:evenodd;stroke:#FF0000;stroke-width:2.0px;stroke-linecap:butt;stroke-linejoin:miter;stroke-opacity:1"/>
<path class="bond-42 atom-37 atom-33" d="M 201.8,569.8 L 222.4,557.9" style="fill:none;fill-rule:evenodd;stroke:#000000;stroke-width:2.0px;stroke-linecap:butt;stroke-linejoin:miter;stroke-opacity:1"/>
<path class="bond-43 atom-38 atom-35" d="M 181.3,455.6 L 196.8,464.6" style="fill:none;fill-rule:evenodd;stroke:#FF0000;stroke-width:2.0px;stroke-linecap:butt;stroke-linejoin:miter;stroke-opacity:1"/>
<path class="bond-43 atom-38 atom-35" d="M 196.8,464.6 L 212.3,473.6" style="fill:none;fill-rule:evenodd;stroke:#000000;stroke-width:2.0px;stroke-linecap:butt;stroke-linejoin:miter;stroke-opacity:1"/>
<path class="bond-44 atom-39 atom-36" d="M 251.6,360.3 L 266.6,369.0" style="fill:none;fill-rule:evenodd;stroke:#FF0000;stroke-width:2.0px;stroke-linecap:butt;stroke-linejoin:miter;stroke-opacity:1"/>
<path class="bond-44 atom-39 atom-36" d="M 266.6,369.0 L 281.6,377.7" style="fill:none;fill-rule:evenodd;stroke:#000000;stroke-width:2.0px;stroke-linecap:butt;stroke-linejoin:miter;stroke-opacity:1"/>
<path class="bond-45 atom-40 atom-38" d="M 173.0,394.0 L 172.9,416.7" style="fill:none;fill-rule:evenodd;stroke:#000000;stroke-width:2.0px;stroke-linecap:butt;stroke-linejoin:miter;stroke-opacity:1"/>
<path class="bond-45 atom-40 atom-38" d="M 172.9,416.7 L 172.9,439.5" style="fill:none;fill-rule:evenodd;stroke:#FF0000;stroke-width:2.0px;stroke-linecap:butt;stroke-linejoin:miter;stroke-opacity:1"/>
<path class="bond-46 atom-40 atom-39" d="M 192.3,371.7 L 202.1,366.0" style="fill:none;fill-rule:evenodd;stroke:#000000;stroke-width:2.0px;stroke-linecap:butt;stroke-linejoin:miter;stroke-opacity:1"/>
<path class="bond-46 atom-40 atom-39" d="M 202.1,366.0 L 212.0,360.4" style="fill:none;fill-rule:evenodd;stroke:#FF0000;stroke-width:2.0px;stroke-linecap:butt;stroke-linejoin:miter;stroke-opacity:1"/>
<path class="bond-47 atom-41 atom-40" d="M 122.4,353.4 L 153.7,371.6" style="fill:none;fill-rule:evenodd;stroke:#000000;stroke-width:2.0px;stroke-linecap:butt;stroke-linejoin:miter;stroke-opacity:1"/>
<path class="atom-0" d="M 571.4 485.6 Q 571.4 481.2, 573.4 478.9 Q 575.5 476.5, 579.4 476.5 Q 583.1 476.5, 585.0 479.1 L 583.4 480.5 Q 582.0 478.6, 579.4 478.6 Q 576.8 478.6, 575.3 480.4 Q 573.9 482.2, 573.9 485.6 Q 573.9 489.1, 575.4 490.9 Q 576.9 492.7, 579.7 492.7 Q 581.7 492.7, 583.9 491.5 L 584.6 493.4 Q 583.7 494.0, 582.3 494.3 Q 580.9 494.7, 579.4 494.7 Q 575.5 494.7, 573.4 492.3 Q 571.4 490.0, 571.4 485.6 " fill="#000000"/>
<path class="atom-0" d="M 588.2 492.4 L 592.1 492.4 L 592.1 479.2 L 587.8 480.5 L 587.2 479.1 L 592.7 476.6 L 594.4 476.9 L 594.4 492.4 L 597.9 492.4 L 597.9 494.4 L 588.2 494.4 L 588.2 492.4 " fill="#000000"/>
<path class="atom-1" d="M 570.6 553.5 Q 570.6 549.1, 572.6 546.8 Q 574.7 544.5, 578.6 544.5 Q 582.3 544.5, 584.2 547.1 L 582.6 548.4 Q 581.2 546.5, 578.6 546.5 Q 576.0 546.5, 574.5 548.3 Q 573.1 550.1, 573.1 553.5 Q 573.1 557.0, 574.6 558.8 Q 576.1 560.6, 578.9 560.6 Q 580.9 560.6, 583.1 559.4 L 583.8 561.3 Q 582.9 561.9, 581.5 562.3 Q 580.1 562.6, 578.6 562.6 Q 574.7 562.6, 572.6 560.3 Q 570.6 557.9, 570.6 553.5 " fill="#000000"/>
<path class="atom-1" d="M 586.6 548.0 Q 587.2 546.4, 588.8 545.4 Q 590.3 544.5, 592.5 544.5 Q 595.1 544.5, 596.6 545.9 Q 598.1 547.4, 598.1 550.0 Q 598.1 552.6, 596.2 555.0 Q 594.3 557.5, 590.3 560.4 L 598.4 560.4 L 598.4 562.4 L 586.5 562.4 L 586.5 560.7 Q 589.8 558.4, 591.8 556.6 Q 593.7 554.9, 594.7 553.3 Q 595.6 551.7, 595.6 550.1 Q 595.6 548.4, 594.8 547.4 Q 593.9 546.5, 592.5 546.5 Q 591.0 546.5, 590.1 547.1 Q 589.1 547.6, 588.5 548.9 L 586.6 548.0 " fill="#000000"/>
<path class="atom-2" d="M 519.1 451.5 Q 519.1 447.1, 521.1 444.8 Q 523.2 442.5, 527.1 442.5 Q 530.8 442.5, 532.7 445.0 L 531.1 446.4 Q 529.6 444.5, 527.1 444.5 Q 524.4 444.5, 523.0 446.3 Q 521.6 448.1, 521.6 451.5 Q 521.6 455.0, 523.1 456.8 Q 524.5 458.6, 527.4 458.6 Q 529.3 458.6, 531.6 457.4 L 532.3 459.3 Q 531.4 459.9, 530.0 460.2 Q 528.6 460.6, 527.0 460.6 Q 523.2 460.6, 521.1 458.2 Q 519.1 455.9, 519.1 451.5 " fill="#000000"/>
<path class="atom-2" d="M 543.5 451.0 Q 545.2 451.5, 546.0 452.7 Q 546.9 453.8, 546.9 455.5 Q 546.9 457.0, 546.1 458.2 Q 545.4 459.3, 544.0 460.0 Q 542.6 460.6, 540.8 460.6 Q 538.9 460.6, 537.5 460.0 Q 536.1 459.3, 535.0 457.9 L 536.4 456.5 Q 537.5 457.7, 538.4 458.2 Q 539.4 458.6, 540.8 458.6 Q 542.4 458.6, 543.4 457.8 Q 544.4 456.9, 544.4 455.5 Q 544.4 453.7, 543.4 452.9 Q 542.4 452.1, 540.2 452.1 L 538.9 452.1 L 538.9 450.3 L 540.0 450.3 Q 542.0 450.2, 543.0 449.4 Q 544.0 448.6, 544.0 447.0 Q 544.0 445.8, 543.2 445.2 Q 542.3 444.5, 540.9 444.5 Q 539.4 444.5, 538.5 445.0 Q 537.6 445.5, 536.9 446.8 L 535.1 445.9 Q 535.8 444.4, 537.3 443.5 Q 538.8 442.5, 540.9 442.5 Q 543.5 442.5, 545.0 443.7 Q 546.5 444.9, 546.5 447.0 Q 546.5 448.4, 545.7 449.4 Q 545.0 450.5, 543.5 451.0 " fill="#000000"/>
<path class="atom-3" d="M 628.7 451.7 Q 628.7 447.3, 630.8 445.0 Q 632.9 442.7, 636.8 442.7 Q 640.4 442.7, 642.4 445.3 L 640.7 446.6 Q 639.3 444.7, 636.8 444.7 Q 634.1 444.7, 632.7 446.5 Q 631.3 448.3, 631.3 451.7 Q 631.3 455.2, 632.7 457.0 Q 634.2 458.8, 637.1 458.8 Q 639.0 458.8, 641.3 457.6 L 642.0 459.5 Q 641.1 460.1, 639.7 460.5 Q 638.3 460.8, 636.7 460.8 Q 632.9 460.8, 630.8 458.5 Q 628.7 456.1, 628.7 451.7 " fill="#000000"/>
<path class="atom-3" d="M 656.2 454.5 L 658.4 454.5 L 658.4 456.5 L 656.2 456.5 L 656.2 460.6 L 653.9 460.6 L 653.9 456.5 L 644.7 456.5 L 644.7 454.9 L 652.5 442.9 L 656.2 442.9 L 656.2 454.5 M 647.6 454.5 L 653.9 454.5 L 653.9 444.5 L 647.6 454.5 " fill="#000000"/>
<path class="atom-4" d="M 511.7 587.4 Q 511.7 583.0, 513.7 580.7 Q 515.8 578.3, 519.7 578.3 Q 523.4 578.3, 525.3 580.9 L 523.7 582.3 Q 522.2 580.4, 519.7 580.4 Q 517.0 580.4, 515.6 582.2 Q 514.2 584.0, 514.2 587.4 Q 514.2 590.9, 515.7 592.7 Q 517.1 594.5, 520.0 594.5 Q 521.9 594.5, 524.2 593.3 L 524.9 595.2 Q 524.0 595.8, 522.6 596.1 Q 521.2 596.5, 519.6 596.5 Q 515.8 596.5, 513.7 594.1 Q 511.7 591.8, 511.7 587.4 " fill="#000000"/>
<path class="atom-4" d="M 534.0 585.2 Q 535.6 585.2, 536.8 585.8 Q 538.1 586.5, 538.8 587.7 Q 539.6 589.0, 539.6 590.6 Q 539.6 592.5, 538.7 593.8 Q 537.8 595.1, 536.3 595.8 Q 534.9 596.4, 533.2 596.4 Q 531.6 596.4, 530.1 595.8 Q 528.6 595.2, 527.6 594.1 L 529.1 592.5 Q 529.9 593.4, 531.0 593.9 Q 532.2 594.4, 533.3 594.4 Q 534.9 594.4, 536.0 593.4 Q 537.1 592.5, 537.1 590.7 Q 537.1 588.8, 536.0 587.9 Q 534.9 587.0, 533.2 587.0 Q 531.6 587.0, 529.9 587.7 L 528.5 587.1 L 529.4 578.5 L 538.5 578.5 L 538.2 580.5 L 531.4 580.5 L 530.9 585.8 Q 532.5 585.2, 534.0 585.2 " fill="#000000"/>
<path class="atom-5" d="M 636.5 587.6 Q 636.5 583.2, 638.5 580.9 Q 640.6 578.6, 644.5 578.6 Q 648.2 578.6, 650.1 581.1 L 648.5 582.5 Q 647.0 580.6, 644.5 580.6 Q 641.8 580.6, 640.4 582.4 Q 639.0 584.2, 639.0 587.6 Q 639.0 591.1, 640.5 592.9 Q 641.9 594.7, 644.8 594.7 Q 646.7 594.7, 649.0 593.5 L 649.7 595.4 Q 648.8 596.0, 647.4 596.3 Q 646.0 596.7, 644.4 596.7 Q 640.6 596.7, 638.5 594.3 Q 636.5 592.0, 636.5 587.6 " fill="#000000"/>
<path class="atom-5" d="M 659.3 585.4 Q 660.9 585.4, 662.1 586.1 Q 663.3 586.8, 664.0 588.0 Q 664.7 589.2, 664.7 590.8 Q 664.7 592.5, 663.9 593.8 Q 663.2 595.2, 661.8 595.9 Q 660.5 596.7, 658.7 596.7 Q 655.6 596.7, 654.0 594.5 Q 652.4 592.4, 652.4 588.1 Q 652.4 583.4, 654.4 581.0 Q 656.3 578.6, 660.1 578.6 Q 661.2 578.6, 662.1 578.8 Q 663.1 579.1, 664.0 579.6 L 663.0 581.3 Q 661.7 580.6, 660.1 580.6 Q 657.6 580.6, 656.4 582.2 Q 655.1 583.8, 654.9 587.1 Q 655.8 586.3, 657.0 585.9 Q 658.1 585.4, 659.3 585.4 M 658.8 594.6 Q 659.7 594.6, 660.5 594.1 Q 661.3 593.6, 661.7 592.7 Q 662.2 591.9, 662.2 590.8 Q 662.2 589.2, 661.3 588.3 Q 660.4 587.4, 658.9 587.4 Q 657.8 587.4, 656.7 587.9 Q 655.7 588.3, 654.9 589.0 Q 655.0 592.0, 656.0 593.3 Q 656.9 594.6, 658.8 594.6 " fill="#000000"/>
<path class="atom-6" d="M 445.2 485.3 Q 445.2 480.9, 447.2 478.6 Q 449.3 476.3, 453.2 476.3 Q 456.9 476.3, 458.8 478.9 L 457.2 480.2 Q 455.8 478.4, 453.2 478.4 Q 450.6 478.4, 449.1 480.2 Q 447.7 481.9, 447.7 485.3 Q 447.7 488.8, 449.2 490.6 Q 450.7 492.4, 453.5 492.4 Q 455.5 492.4, 457.7 491.3 L 458.4 493.1 Q 457.5 493.7, 456.1 494.1 Q 454.7 494.4, 453.2 494.4 Q 449.3 494.4, 447.2 492.1 Q 445.2 489.7, 445.2 485.3 " fill="#000000"/>
<path class="atom-6" d="M 470.4 478.5 L 461.1 478.5 L 461.1 476.5 L 472.9 476.5 L 472.9 478.3 L 465.7 494.2 L 463.3 494.2 L 470.4 478.5 " fill="#000000"/>
<path class="atom-7" d="M 505.1 385.0 Q 505.1 380.6, 507.1 378.3 Q 509.2 376.0, 513.1 376.0 Q 516.8 376.0, 518.7 378.6 L 517.1 379.9 Q 515.7 378.0, 513.1 378.0 Q 510.5 378.0, 509.0 379.8 Q 507.6 381.6, 507.6 385.0 Q 507.6 388.5, 509.1 390.3 Q 510.6 392.1, 513.4 392.1 Q 515.4 392.1, 517.6 390.9 L 518.3 392.8 Q 517.4 393.4, 516.0 393.8 Q 514.6 394.1, 513.1 394.1 Q 509.2 394.1, 507.1 391.8 Q 505.1 389.4, 505.1 385.0 " fill="#000000"/>
<path class="atom-7" d="M 530.1 384.5 Q 531.7 385.2, 532.6 386.3 Q 533.5 387.3, 533.5 389.0 Q 533.5 390.5, 532.8 391.7 Q 532.0 392.9, 530.6 393.5 Q 529.2 394.1, 527.4 394.1 Q 524.4 394.1, 522.7 392.8 Q 521.0 391.4, 521.0 389.0 Q 521.0 387.6, 521.8 386.5 Q 522.5 385.4, 524.1 384.6 Q 522.9 383.9, 522.3 383.0 Q 521.7 382.0, 521.7 380.5 Q 521.7 378.4, 523.2 377.2 Q 524.7 376.0, 527.3 376.0 Q 529.9 376.0, 531.4 377.2 Q 532.9 378.4, 532.9 380.5 Q 532.9 381.8, 532.2 382.8 Q 531.5 383.7, 530.1 384.5 M 527.3 377.9 Q 525.8 377.9, 525.0 378.6 Q 524.2 379.3, 524.2 380.5 Q 524.2 381.4, 524.7 382.1 Q 525.3 382.7, 526.1 383.0 Q 526.9 383.4, 528.4 383.9 Q 529.5 383.1, 529.9 382.3 Q 530.4 381.5, 530.4 380.5 Q 530.4 379.3, 529.6 378.6 Q 528.8 377.9, 527.3 377.9 M 527.4 392.3 Q 529.0 392.3, 530.0 391.4 Q 531.0 390.5, 531.0 389.0 Q 531.0 388.1, 530.5 387.5 Q 530.0 386.9, 529.2 386.5 Q 528.4 386.2, 527.0 385.7 L 525.9 385.3 Q 524.6 386.1, 524.1 387.0 Q 523.5 387.9, 523.5 389.0 Q 523.5 390.5, 524.6 391.4 Q 525.6 392.3, 527.4 392.3 " fill="#000000"/>
<path class="atom-8" d="M 688.2 485.8 Q 688.2 481.4, 690.3 479.1 Q 692.3 476.8, 696.3 476.8 Q 699.9 476.8, 701.9 479.3 L 700.2 480.7 Q 698.8 478.8, 696.3 478.8 Q 693.6 478.8, 692.2 480.6 Q 690.8 482.4, 690.8 485.8 Q 690.8 489.3, 692.2 491.1 Q 693.7 492.9, 696.5 492.9 Q 698.5 492.9, 700.8 491.7 L 701.5 493.6 Q 700.5 494.2, 699.1 494.5 Q 697.7 494.9, 696.2 494.9 Q 692.3 494.9, 690.3 492.5 Q 688.2 490.2, 688.2 485.8 " fill="#000000"/>
<path class="atom-8" d="M 710.1 476.8 Q 713.3 476.8, 714.8 478.9 Q 716.4 481.0, 716.4 485.3 Q 716.4 490.0, 714.5 492.4 Q 712.5 494.9, 708.7 494.9 Q 707.6 494.9, 706.7 494.6 Q 705.8 494.4, 704.9 493.8 L 705.8 492.2 Q 707.1 492.9, 708.7 492.9 Q 711.2 492.9, 712.5 491.3 Q 713.8 489.6, 713.9 486.3 Q 713.0 487.1, 711.9 487.6 Q 710.7 488.0, 709.5 488.0 Q 708.0 488.0, 706.7 487.3 Q 705.5 486.7, 704.8 485.4 Q 704.2 484.2, 704.2 482.7 Q 704.2 480.9, 704.9 479.6 Q 705.7 478.3, 707.0 477.5 Q 708.4 476.8, 710.1 476.8 M 706.7 482.6 Q 706.7 484.2, 707.5 485.1 Q 708.4 486.0, 710.0 486.0 Q 711.0 486.0, 712.1 485.6 Q 713.2 485.1, 713.9 484.4 Q 713.8 481.5, 712.9 480.1 Q 712.0 478.8, 710.1 478.8 Q 709.1 478.8, 708.3 479.3 Q 707.6 479.8, 707.1 480.7 Q 706.7 481.6, 706.7 482.6 " fill="#000000"/>
<path class="atom-9" d="M 608.4 383.8 Q 608.4 379.4, 610.4 377.1 Q 612.5 374.8, 616.4 374.8 Q 620.1 374.8, 622.0 377.3 L 620.4 378.7 Q 618.9 376.8, 616.4 376.8 Q 613.7 376.8, 612.3 378.6 Q 610.9 380.4, 610.9 383.8 Q 610.9 387.3, 612.4 389.1 Q 613.8 390.9, 616.7 390.9 Q 618.6 390.9, 620.9 389.7 L 621.6 391.6 Q 620.7 392.2, 619.3 392.5 Q 617.9 392.9, 616.3 392.9 Q 612.5 392.9, 610.4 390.5 Q 608.4 388.2, 608.4 383.8 " fill="#000000"/>
<path class="atom-9" d="M 625.2 390.7 L 629.1 390.7 L 629.1 377.4 L 624.8 378.8 L 624.2 377.3 L 629.7 374.9 L 631.4 375.2 L 631.4 390.7 L 634.9 390.7 L 634.9 392.7 L 625.2 392.7 L 625.2 390.7 " fill="#000000"/>
<path class="atom-9" d="M 643.7 392.9 Q 640.4 392.9, 638.8 390.5 Q 637.2 388.1, 637.2 383.8 Q 637.2 379.5, 638.8 377.1 Q 640.4 374.8, 643.7 374.8 Q 647.0 374.8, 648.6 377.1 Q 650.2 379.5, 650.2 383.8 Q 650.2 388.1, 648.5 390.5 Q 646.9 392.9, 643.7 392.9 M 643.7 390.9 Q 645.6 390.9, 646.6 389.1 Q 647.7 387.3, 647.7 383.8 Q 647.7 380.3, 646.6 378.5 Q 645.6 376.8, 643.7 376.8 Q 641.8 376.8, 640.7 378.5 Q 639.7 380.3, 639.7 383.8 Q 639.7 387.3, 640.7 389.1 Q 641.8 390.9, 643.7 390.9 " fill="#000000"/>
<path class="atom-10" d="M 447.2 553.3 Q 447.2 548.9, 449.2 546.6 Q 451.3 544.2, 455.2 544.2 Q 458.9 544.2, 460.8 546.8 L 459.2 548.2 Q 457.7 546.3, 455.2 546.3 Q 452.5 546.3, 451.1 548.1 Q 449.7 549.9, 449.7 553.3 Q 449.7 556.8, 451.2 558.6 Q 452.6 560.4, 455.5 560.4 Q 457.4 560.4, 459.7 559.2 L 460.4 561.1 Q 459.5 561.7, 458.1 562.0 Q 456.7 562.4, 455.1 562.4 Q 451.3 562.4, 449.2 560.0 Q 447.2 557.7, 447.2 553.3 " fill="#000000"/>
<path class="atom-10" d="M 463.9 560.1 L 467.8 560.1 L 467.8 546.9 L 463.5 548.2 L 463.0 546.8 L 468.4 544.3 L 470.2 544.6 L 470.2 560.1 L 473.6 560.1 L 473.6 562.1 L 463.9 562.1 L 463.9 560.1 " fill="#000000"/>
<path class="atom-10" d="M 476.8 560.1 L 480.7 560.1 L 480.7 546.9 L 476.4 548.2 L 475.9 546.8 L 481.3 544.3 L 483.1 544.6 L 483.1 560.1 L 486.5 560.1 L 486.5 562.1 L 476.8 562.1 L 476.8 560.1 " fill="#000000"/>
<path class="atom-11" d="M 490.7 655.3 Q 490.7 650.9, 492.8 648.6 Q 494.8 646.3, 498.8 646.3 Q 502.4 646.3, 504.4 648.8 L 502.7 650.2 Q 501.3 648.3, 498.8 648.3 Q 496.1 648.3, 494.7 650.1 Q 493.3 651.9, 493.3 655.3 Q 493.3 658.8, 494.7 660.6 Q 496.2 662.4, 499.0 662.4 Q 501.0 662.4, 503.3 661.2 L 504.0 663.1 Q 503.0 663.7, 501.6 664.0 Q 500.2 664.4, 498.7 664.4 Q 494.8 664.4, 492.8 662.0 Q 490.7 659.7, 490.7 655.3 " fill="#000000"/>
<path class="atom-11" d="M 507.6 662.2 L 511.4 662.2 L 511.4 648.9 L 507.2 650.3 L 506.6 648.8 L 512.0 646.4 L 513.8 646.7 L 513.8 662.2 L 517.3 662.2 L 517.3 664.2 L 507.6 664.2 L 507.6 662.2 " fill="#000000"/>
<path class="atom-11" d="M 519.6 649.8 Q 520.2 648.1, 521.8 647.2 Q 523.3 646.3, 525.5 646.3 Q 528.1 646.3, 529.6 647.7 Q 531.1 649.2, 531.1 651.7 Q 531.1 654.4, 529.2 656.8 Q 527.3 659.3, 523.3 662.2 L 531.4 662.2 L 531.4 664.2 L 519.5 664.2 L 519.5 662.5 Q 522.8 660.1, 524.8 658.4 Q 526.7 656.6, 527.7 655.1 Q 528.6 653.5, 528.6 651.9 Q 528.6 650.2, 527.8 649.2 Q 526.9 648.3, 525.5 648.3 Q 524.0 648.3, 523.1 648.8 Q 522.1 649.4, 521.5 650.7 L 519.6 649.8 " fill="#000000"/>
<path class="atom-12" d="M 636.3 655.5 Q 636.3 651.1, 638.4 648.8 Q 640.4 646.5, 644.4 646.5 Q 648.0 646.5, 650.0 649.1 L 648.3 650.4 Q 646.9 648.5, 644.4 648.5 Q 641.7 648.5, 640.3 650.3 Q 638.9 652.1, 638.9 655.5 Q 638.9 659.0, 640.3 660.8 Q 641.8 662.6, 644.6 662.6 Q 646.6 662.6, 648.9 661.4 L 649.6 663.3 Q 648.6 663.9, 647.2 664.3 Q 645.8 664.6, 644.3 664.6 Q 640.4 664.6, 638.4 662.3 Q 636.3 659.9, 636.3 655.5 " fill="#000000"/>
<path class="atom-12" d="M 653.2 662.4 L 657.0 662.4 L 657.0 649.2 L 652.8 650.5 L 652.2 649.0 L 657.6 646.6 L 659.4 646.9 L 659.4 662.4 L 662.9 662.4 L 662.9 664.4 L 653.2 664.4 L 653.2 662.4 " fill="#000000"/>
<path class="atom-12" d="M 673.6 655.1 Q 675.3 655.6, 676.2 656.7 Q 677.0 657.8, 677.0 659.5 Q 677.0 661.0, 676.3 662.2 Q 675.5 663.4, 674.1 664.0 Q 672.8 664.6, 671.0 664.6 Q 669.1 664.6, 667.6 664.0 Q 666.2 663.3, 665.1 662.0 L 666.5 660.5 Q 667.6 661.7, 668.6 662.2 Q 669.5 662.6, 671.0 662.6 Q 672.6 662.6, 673.5 661.8 Q 674.5 660.9, 674.5 659.5 Q 674.5 657.7, 673.5 656.9 Q 672.5 656.1, 670.3 656.1 L 669.0 656.1 L 669.0 654.3 L 670.2 654.3 Q 672.1 654.3, 673.1 653.4 Q 674.1 652.6, 674.1 651.0 Q 674.1 649.9, 673.3 649.2 Q 672.4 648.5, 671.0 648.5 Q 669.5 648.5, 668.6 649.0 Q 667.7 649.5, 667.0 650.9 L 665.3 649.9 Q 665.9 648.5, 667.4 647.5 Q 668.9 646.5, 671.0 646.5 Q 673.6 646.5, 675.1 647.7 Q 676.6 648.9, 676.6 651.0 Q 676.6 652.4, 675.9 653.5 Q 675.1 654.5, 673.6 655.1 " fill="#000000"/>
<path class="atom-13" d="M 380.9 439.8 Q 380.9 435.4, 382.9 433.1 Q 385.0 430.8, 388.9 430.8 Q 392.6 430.8, 394.5 433.3 L 392.9 434.7 Q 391.4 432.8, 388.9 432.8 Q 386.2 432.8, 384.8 434.6 Q 383.4 436.4, 383.4 439.8 Q 383.4 443.3, 384.9 445.1 Q 386.3 446.9, 389.2 446.9 Q 391.1 446.9, 393.4 445.7 L 394.1 447.6 Q 393.2 448.2, 391.8 448.5 Q 390.4 448.9, 388.8 448.9 Q 385.0 448.9, 382.9 446.5 Q 380.9 444.2, 380.9 439.8 " fill="#000000"/>
<path class="atom-13" d="M 397.8 446.7 L 401.6 446.7 L 401.6 433.4 L 397.4 434.8 L 396.8 433.3 L 402.2 430.9 L 404.0 431.2 L 404.0 446.7 L 407.5 446.7 L 407.5 448.7 L 397.8 448.7 L 397.8 446.7 " fill="#000000"/>
<path class="atom-13" d="M 421.3 442.6 L 423.4 442.6 L 423.4 444.6 L 421.3 444.6 L 421.3 448.7 L 418.9 448.7 L 418.9 444.6 L 409.8 444.6 L 409.8 443.0 L 417.5 431.0 L 421.3 431.0 L 421.3 442.6 M 412.7 442.6 L 418.9 442.6 L 418.9 432.6 L 412.7 442.6 " fill="#000000"/>
<path class="atom-14" d="M 406.5 377.7 Q 406.5 373.5, 408.6 371.1 Q 410.7 368.7, 414.7 368.7 Q 418.6 368.7, 420.7 371.1 Q 422.8 373.5, 422.8 377.7 Q 422.8 382.0, 420.7 384.5 Q 418.5 386.9, 414.7 386.9 Q 410.8 386.9, 408.6 384.5 Q 406.5 382.1, 406.5 377.7 M 414.7 384.9 Q 417.4 384.9, 418.8 383.1 Q 420.3 381.3, 420.3 377.7 Q 420.3 374.3, 418.8 372.5 Q 417.4 370.7, 414.7 370.7 Q 412.0 370.7, 410.5 372.5 Q 409.0 374.2, 409.0 377.7 Q 409.0 381.3, 410.5 383.1 Q 412.0 384.9, 414.7 384.9 " fill="#FF0000"/>
<path class="atom-14" d="M 426.3 384.6 L 430.2 384.6 L 430.2 371.4 L 425.9 372.7 L 425.3 371.3 L 430.8 368.8 L 432.5 369.1 L 432.5 384.6 L 436.0 384.6 L 436.0 386.6 L 426.3 386.6 L 426.3 384.6 " fill="#FF0000"/>
<path class="atom-14" d="M 444.8 375.6 Q 446.3 375.6, 447.6 376.2 Q 448.9 376.9, 449.6 378.1 Q 450.3 379.4, 450.3 381.0 Q 450.3 382.9, 449.4 384.2 Q 448.6 385.5, 447.1 386.2 Q 445.7 386.8, 444.0 386.8 Q 442.4 386.8, 440.9 386.2 Q 439.4 385.6, 438.4 384.5 L 439.9 382.9 Q 440.7 383.8, 441.8 384.3 Q 442.9 384.8, 444.1 384.8 Q 445.7 384.8, 446.7 383.8 Q 447.8 382.9, 447.8 381.1 Q 447.8 379.2, 446.7 378.3 Q 445.7 377.4, 443.9 377.4 Q 442.4 377.4, 440.7 378.1 L 439.3 377.5 L 440.1 368.9 L 449.2 368.9 L 449.0 370.9 L 442.2 370.9 L 441.7 376.2 Q 443.2 375.6, 444.8 375.6 " fill="#FF0000"/>
<path class="atom-15" d="M 549.3 334.6 Q 549.3 330.3, 551.4 328.0 Q 553.5 325.6, 557.4 325.6 Q 561.4 325.6, 563.5 328.0 Q 565.6 330.3, 565.6 334.6 Q 565.6 338.9, 563.4 341.3 Q 561.3 343.8, 557.4 343.8 Q 553.5 343.8, 551.4 341.3 Q 549.3 338.9, 549.3 334.6 M 557.4 341.8 Q 560.1 341.8, 561.6 340.0 Q 563.1 338.1, 563.1 334.6 Q 563.1 331.1, 561.6 329.4 Q 560.1 327.6, 557.4 327.6 Q 554.7 327.6, 553.3 329.3 Q 551.8 331.1, 551.8 334.6 Q 551.8 338.2, 553.3 340.0 Q 554.7 341.8, 557.4 341.8 " fill="#FF0000"/>
<path class="atom-15" d="M 569.1 341.5 L 573.0 341.5 L 573.0 328.3 L 568.7 329.6 L 568.1 328.1 L 573.6 325.7 L 575.3 326.0 L 575.3 341.5 L 578.8 341.5 L 578.8 343.5 L 569.1 343.5 L 569.1 341.5 " fill="#FF0000"/>
<path class="atom-15" d="M 588.1 332.4 Q 589.6 332.4, 590.9 333.1 Q 592.1 333.8, 592.8 335.0 Q 593.4 336.2, 593.4 337.8 Q 593.4 339.5, 592.7 340.9 Q 591.9 342.2, 590.6 342.9 Q 589.2 343.7, 587.5 343.7 Q 584.3 343.7, 582.7 341.6 Q 581.2 339.4, 581.2 335.2 Q 581.2 330.5, 583.1 328.0 Q 585.1 325.6, 588.9 325.6 Q 590.0 325.6, 590.9 325.8 Q 591.8 326.1, 592.7 326.6 L 591.8 328.3 Q 590.5 327.6, 588.9 327.6 Q 586.4 327.6, 585.1 329.2 Q 583.8 330.8, 583.7 334.1 Q 584.6 333.3, 585.7 332.9 Q 586.9 332.4, 588.1 332.4 M 587.5 341.6 Q 588.5 341.6, 589.2 341.1 Q 590.0 340.6, 590.5 339.8 Q 590.9 338.9, 590.9 337.8 Q 590.9 336.2, 590.1 335.3 Q 589.2 334.4, 587.6 334.4 Q 586.6 334.4, 585.5 334.9 Q 584.4 335.3, 583.7 336.1 Q 583.8 339.0, 584.7 340.3 Q 585.6 341.6, 587.5 341.6 " fill="#FF0000"/>
<path class="atom-16" d="M 754.4 452.0 Q 754.4 447.6, 756.5 445.3 Q 758.5 442.9, 762.5 442.9 Q 766.1 442.9, 768.1 445.5 L 766.4 446.9 Q 765.0 445.0, 762.5 445.0 Q 759.8 445.0, 758.4 446.8 Q 757.0 448.6, 757.0 452.0 Q 757.0 455.5, 758.4 457.3 Q 759.9 459.1, 762.7 459.1 Q 764.7 459.1, 767.0 457.9 L 767.7 459.8 Q 766.7 460.4, 765.3 460.7 Q 763.9 461.1, 762.4 461.1 Q 758.5 461.1, 756.5 458.7 Q 754.4 456.4, 754.4 452.0 " fill="#000000"/>
<path class="atom-16" d="M 771.2 458.8 L 775.1 458.8 L 775.1 445.6 L 770.8 446.9 L 770.3 445.5 L 775.7 443.0 L 777.5 443.3 L 777.5 458.8 L 780.9 458.8 L 780.9 460.8 L 771.2 460.8 L 771.2 458.8 " fill="#000000"/>
<path class="atom-16" d="M 792.5 445.1 L 783.2 445.1 L 783.2 443.1 L 794.9 443.1 L 794.9 444.9 L 787.8 460.8 L 785.4 460.8 L 792.5 445.1 " fill="#000000"/>
<path class="atom-17" d="M 695.8 349.9 Q 695.8 345.5, 697.8 343.2 Q 699.9 340.9, 703.8 340.9 Q 707.5 340.9, 709.4 343.5 L 707.8 344.8 Q 706.4 342.9, 703.8 342.9 Q 701.2 342.9, 699.7 344.7 Q 698.3 346.5, 698.3 349.9 Q 698.3 353.4, 699.8 355.2 Q 701.3 357.0, 704.1 357.0 Q 706.1 357.0, 708.3 355.8 L 709.0 357.7 Q 708.1 358.3, 706.7 358.7 Q 705.3 359.0, 703.8 359.0 Q 699.9 359.0, 697.8 356.7 Q 695.8 354.3, 695.8 349.9 " fill="#000000"/>
<path class="atom-17" d="M 712.6 356.8 L 716.5 356.8 L 716.5 343.6 L 712.2 344.9 L 711.7 343.4 L 717.1 341.0 L 718.9 341.3 L 718.9 356.8 L 722.3 356.8 L 722.3 358.8 L 712.6 358.8 L 712.6 356.8 " fill="#000000"/>
<path class="atom-17" d="M 733.6 349.4 Q 735.3 350.1, 736.2 351.2 Q 737.1 352.2, 737.1 353.9 Q 737.1 355.4, 736.3 356.6 Q 735.6 357.8, 734.2 358.4 Q 732.8 359.0, 731.0 359.0 Q 728.0 359.0, 726.3 357.7 Q 724.6 356.3, 724.6 353.9 Q 724.6 352.5, 725.4 351.4 Q 726.1 350.3, 727.7 349.5 Q 726.5 348.8, 725.9 347.9 Q 725.3 346.9, 725.3 345.4 Q 725.3 343.3, 726.8 342.1 Q 728.3 340.9, 730.9 340.9 Q 733.4 340.9, 734.9 342.1 Q 736.5 343.3, 736.5 345.4 Q 736.5 346.7, 735.7 347.7 Q 735.0 348.6, 733.6 349.4 M 730.9 342.8 Q 729.4 342.8, 728.6 343.5 Q 727.8 344.2, 727.8 345.4 Q 727.8 346.3, 728.3 347.0 Q 728.9 347.6, 729.6 347.9 Q 730.4 348.3, 732.0 348.8 Q 733.0 348.0, 733.5 347.2 Q 734.0 346.4, 734.0 345.4 Q 734.0 344.2, 733.1 343.5 Q 732.3 342.8, 730.9 342.8 M 731.0 357.2 Q 732.6 357.2, 733.6 356.3 Q 734.6 355.4, 734.6 353.9 Q 734.6 353.0, 734.1 352.4 Q 733.6 351.8, 732.8 351.4 Q 732.0 351.1, 730.6 350.6 L 729.5 350.2 Q 728.2 351.0, 727.7 351.9 Q 727.1 352.8, 727.1 353.9 Q 727.1 355.4, 728.2 356.3 Q 729.2 357.2, 731.0 357.2 " fill="#000000"/>
<path class="atom-18" d="M 385.9 587.1 Q 385.9 582.8, 388.0 580.5 Q 390.1 578.1, 394.0 578.1 Q 397.9 578.1, 400.0 580.5 Q 402.1 582.8, 402.1 587.1 Q 402.1 591.4, 400.0 593.8 Q 397.9 596.3, 394.0 596.3 Q 390.1 596.3, 388.0 593.8 Q 385.9 591.4, 385.9 587.1 M 394.0 594.3 Q 396.7 594.3, 398.2 592.5 Q 399.6 590.6, 399.6 587.1 Q 399.6 583.6, 398.2 581.9 Q 396.7 580.1, 394.0 580.1 Q 391.3 580.1, 389.8 581.8 Q 388.4 583.6, 388.4 587.1 Q 388.4 590.7, 389.8 592.5 Q 391.3 594.3, 394.0 594.3 " fill="#FF0000"/>
<path class="atom-18" d="M 405.7 594.0 L 409.5 594.0 L 409.5 580.8 L 405.3 582.1 L 404.7 580.6 L 410.1 578.2 L 411.9 578.5 L 411.9 594.0 L 415.4 594.0 L 415.4 596.0 L 405.7 596.0 L 405.7 594.0 " fill="#FF0000"/>
<path class="atom-18" d="M 423.7 578.1 Q 426.8 578.1, 428.4 580.2 Q 430.0 582.4, 430.0 586.6 Q 430.0 591.3, 428.0 593.8 Q 426.1 596.2, 422.3 596.2 Q 421.2 596.2, 420.2 595.9 Q 419.3 595.7, 418.4 595.2 L 419.4 593.5 Q 420.7 594.2, 422.3 594.2 Q 424.8 594.2, 426.0 592.6 Q 427.3 591.0, 427.5 587.6 Q 426.6 588.5, 425.4 588.9 Q 424.3 589.3, 423.1 589.3 Q 421.5 589.3, 420.3 588.7 Q 419.1 588.0, 418.4 586.8 Q 417.7 585.5, 417.7 584.0 Q 417.7 582.3, 418.5 580.9 Q 419.2 579.6, 420.6 578.8 Q 421.9 578.1, 423.7 578.1 M 420.2 584.0 Q 420.2 585.5, 421.1 586.4 Q 422.0 587.3, 423.5 587.3 Q 424.6 587.3, 425.6 586.9 Q 426.7 586.5, 427.5 585.7 Q 427.4 582.8, 426.4 581.5 Q 425.5 580.1, 423.6 580.1 Q 422.7 580.1, 421.9 580.6 Q 421.1 581.1, 420.7 582.0 Q 420.2 582.9, 420.2 584.0 " fill="#FF0000"/>
<path class="atom-19" d="M 547.1 689.4 Q 547.1 685.0, 549.2 682.7 Q 551.2 680.4, 555.2 680.4 Q 558.8 680.4, 560.8 682.9 L 559.1 684.3 Q 557.7 682.4, 555.2 682.4 Q 552.5 682.4, 551.1 684.2 Q 549.7 686.0, 549.7 689.4 Q 549.7 692.9, 551.1 694.7 Q 552.6 696.5, 555.4 696.5 Q 557.4 696.5, 559.7 695.3 L 560.4 697.2 Q 559.4 697.8, 558.0 698.1 Q 556.6 698.5, 555.1 698.5 Q 551.2 698.5, 549.2 696.1 Q 547.1 693.8, 547.1 689.4 " fill="#000000"/>
<path class="atom-19" d="M 563.1 683.9 Q 563.8 682.2, 565.3 681.3 Q 566.9 680.4, 569.0 680.4 Q 571.7 680.4, 573.2 681.8 Q 574.7 683.3, 574.7 685.8 Q 574.7 688.5, 572.7 690.9 Q 570.8 693.4, 566.8 696.3 L 575.0 696.3 L 575.0 698.3 L 563.1 698.3 L 563.1 696.6 Q 566.4 694.2, 568.3 692.5 Q 570.3 690.7, 571.2 689.2 Q 572.2 687.6, 572.2 686.0 Q 572.2 684.3, 571.3 683.3 Q 570.5 682.4, 569.0 682.4 Q 567.6 682.4, 566.6 682.9 Q 565.7 683.5, 565.0 684.8 L 563.1 683.9 " fill="#000000"/>
<path class="atom-19" d="M 584.2 698.5 Q 581.0 698.5, 579.4 696.1 Q 577.8 693.7, 577.8 689.4 Q 577.8 685.1, 579.4 682.7 Q 581.0 680.4, 584.2 680.4 Q 587.5 680.4, 589.1 682.7 Q 590.7 685.1, 590.7 689.4 Q 590.7 693.7, 589.1 696.1 Q 587.5 698.5, 584.2 698.5 M 584.2 696.5 Q 586.2 696.5, 587.2 694.7 Q 588.2 692.9, 588.2 689.4 Q 588.2 685.9, 587.2 684.1 Q 586.2 682.4, 584.2 682.4 Q 582.3 682.4, 581.3 684.1 Q 580.3 685.9, 580.3 689.4 Q 580.3 692.9, 581.3 694.7 Q 582.3 696.5, 584.2 696.5 " fill="#000000"/>
<path class="atom-20" d="M 685.4 701.1 Q 685.4 696.8, 687.5 694.4 Q 689.6 692.1, 693.5 692.1 Q 697.5 692.1, 699.6 694.4 Q 701.7 696.8, 701.7 701.1 Q 701.7 705.4, 699.5 707.8 Q 697.4 710.2, 693.5 710.2 Q 689.6 710.2, 687.5 707.8 Q 685.4 705.4, 685.4 701.1 M 693.5 708.2 Q 696.2 708.2, 697.7 706.4 Q 699.2 704.6, 699.2 701.1 Q 699.2 697.6, 697.7 695.8 Q 696.2 694.1, 693.5 694.1 Q 690.8 694.1, 689.4 695.8 Q 687.9 697.6, 687.9 701.1 Q 687.9 704.6, 689.4 706.4 Q 690.8 708.2, 693.5 708.2 " fill="#FF0000"/>
<path class="atom-20" d="M 704.3 695.6 Q 704.9 693.9, 706.5 693.0 Q 708.0 692.1, 710.2 692.1 Q 712.8 692.1, 714.3 693.5 Q 715.8 695.0, 715.8 697.5 Q 715.8 700.2, 713.9 702.6 Q 712.0 705.1, 708.0 708.0 L 716.1 708.0 L 716.1 710.0 L 704.2 710.0 L 704.2 708.3 Q 707.5 705.9, 709.5 704.2 Q 711.4 702.4, 712.4 700.9 Q 713.3 699.3, 713.3 697.7 Q 713.3 696.0, 712.5 695.0 Q 711.6 694.1, 710.2 694.1 Q 708.7 694.1, 707.8 694.6 Q 706.8 695.2, 706.2 696.5 L 704.3 695.6 " fill="#FF0000"/>
<path class="atom-20" d="M 719.9 708.0 L 723.8 708.0 L 723.8 694.7 L 719.5 696.1 L 718.9 694.6 L 724.4 692.2 L 726.1 692.5 L 726.1 708.0 L 729.6 708.0 L 729.6 710.0 L 719.9 710.0 L 719.9 708.0 " fill="#FF0000"/>
<path class="atom-21" d="M 740.1 384.0 Q 740.1 379.6, 742.2 377.3 Q 744.2 375.0, 748.2 375.0 Q 751.8 375.0, 753.8 377.6 L 752.1 378.9 Q 750.7 377.0, 748.2 377.0 Q 745.5 377.0, 744.1 378.8 Q 742.7 380.6, 742.7 384.0 Q 742.7 387.5, 744.1 389.3 Q 745.6 391.1, 748.4 391.1 Q 750.4 391.1, 752.7 389.9 L 753.4 391.8 Q 752.4 392.4, 751.0 392.8 Q 749.6 393.1, 748.1 393.1 Q 744.2 393.1, 742.2 390.8 Q 740.1 388.4, 740.1 384.0 " fill="#000000"/>
<path class="atom-21" d="M 756.1 378.5 Q 756.7 376.9, 758.3 375.9 Q 759.8 375.0, 762.0 375.0 Q 764.6 375.0, 766.1 376.4 Q 767.6 377.9, 767.6 380.5 Q 767.6 383.1, 765.7 385.5 Q 763.8 388.0, 759.8 390.9 L 767.9 390.9 L 767.9 392.9 L 756.0 392.9 L 756.0 391.2 Q 759.3 388.9, 761.3 387.1 Q 763.2 385.4, 764.2 383.8 Q 765.1 382.2, 765.1 380.6 Q 765.1 378.9, 764.3 377.9 Q 763.4 377.0, 762.0 377.0 Q 760.5 377.0, 759.6 377.6 Q 758.6 378.1, 758.0 379.4 L 756.1 378.5 " fill="#000000"/>
<path class="atom-21" d="M 770.7 378.5 Q 771.4 376.9, 772.9 375.9 Q 774.5 375.0, 776.6 375.0 Q 779.3 375.0, 780.8 376.4 Q 782.3 377.9, 782.3 380.5 Q 782.3 383.1, 780.4 385.5 Q 778.4 388.0, 774.4 390.9 L 782.6 390.9 L 782.6 392.9 L 770.7 392.9 L 770.7 391.2 Q 774.0 388.9, 775.9 387.1 Q 777.9 385.4, 778.9 383.8 Q 779.8 382.2, 779.8 380.6 Q 779.8 378.9, 779.0 377.9 Q 778.1 377.0, 776.6 377.0 Q 775.2 377.0, 774.3 377.6 Q 773.3 378.1, 772.6 379.4 L 770.7 378.5 " fill="#000000"/>
<path class="atom-22" d="M 797.3 486.0 Q 797.3 481.8, 799.4 479.4 Q 801.5 477.0, 805.4 477.0 Q 809.3 477.0, 811.4 479.4 Q 813.5 481.8, 813.5 486.0 Q 813.5 490.3, 811.4 492.8 Q 809.3 495.2, 805.4 495.2 Q 801.5 495.2, 799.4 492.8 Q 797.3 490.3, 797.3 486.0 M 805.4 493.2 Q 808.1 493.2, 809.5 491.4 Q 811.0 489.6, 811.0 486.0 Q 811.0 482.5, 809.5 480.8 Q 808.1 479.0, 805.4 479.0 Q 802.7 479.0, 801.2 480.8 Q 799.8 482.5, 799.8 486.0 Q 799.8 489.6, 801.2 491.4 Q 802.7 493.2, 805.4 493.2 " fill="#FF0000"/>
<path class="atom-22" d="M 816.1 480.6 Q 816.8 478.9, 818.3 478.0 Q 819.9 477.0, 822.0 477.0 Q 824.7 477.0, 826.2 478.5 Q 827.7 479.9, 827.7 482.5 Q 827.7 485.1, 825.8 487.6 Q 823.8 490.0, 819.8 492.9 L 828.0 492.9 L 828.0 494.9 L 816.1 494.9 L 816.1 493.2 Q 819.4 490.9, 821.3 489.1 Q 823.3 487.4, 824.3 485.8 Q 825.2 484.2, 825.2 482.6 Q 825.2 480.9, 824.4 480.0 Q 823.5 479.0, 822.0 479.0 Q 820.6 479.0, 819.7 479.6 Q 818.7 480.2, 818.0 481.4 L 816.1 480.6 " fill="#FF0000"/>
<path class="atom-22" d="M 839.4 485.6 Q 841.1 486.1, 841.9 487.2 Q 842.8 488.3, 842.8 490.1 Q 842.8 491.6, 842.0 492.7 Q 841.3 493.9, 839.9 494.5 Q 838.5 495.2, 836.7 495.2 Q 834.8 495.2, 833.4 494.5 Q 832.0 493.8, 830.9 492.5 L 832.3 491.0 Q 833.4 492.2, 834.3 492.7 Q 835.2 493.2, 836.7 493.2 Q 838.3 493.2, 839.3 492.3 Q 840.3 491.4, 840.3 490.0 Q 840.3 488.2, 839.2 487.4 Q 838.2 486.6, 836.1 486.6 L 834.8 486.6 L 834.8 484.8 L 835.9 484.8 Q 837.8 484.8, 838.9 484.0 Q 839.9 483.1, 839.9 481.5 Q 839.9 480.4, 839.0 479.7 Q 838.2 479.0, 836.7 479.0 Q 835.3 479.0, 834.3 479.5 Q 833.4 480.1, 832.7 481.4 L 831.0 480.5 Q 831.6 479.0, 833.1 478.0 Q 834.6 477.0, 836.7 477.0 Q 839.3 477.0, 840.9 478.2 Q 842.4 479.5, 842.4 481.5 Q 842.4 483.0, 841.6 484.0 Q 840.8 485.0, 839.4 485.6 " fill="#FF0000"/>
<path class="atom-23" d="M 662.2 282.0 Q 662.2 277.7, 664.3 275.3 Q 666.4 273.0, 670.3 273.0 Q 674.3 273.0, 676.4 275.3 Q 678.5 277.7, 678.5 282.0 Q 678.5 286.3, 676.3 288.7 Q 674.2 291.1, 670.3 291.1 Q 666.4 291.1, 664.3 288.7 Q 662.2 286.3, 662.2 282.0 M 670.3 289.1 Q 673.0 289.1, 674.5 287.3 Q 676.0 285.5, 676.0 282.0 Q 676.0 278.5, 674.5 276.7 Q 673.0 275.0, 670.3 275.0 Q 667.6 275.0, 666.2 276.7 Q 664.7 278.5, 664.7 282.0 Q 664.7 285.5, 666.2 287.3 Q 667.6 289.1, 670.3 289.1 " fill="#FF0000"/>
<path class="atom-23" d="M 681.2 276.5 Q 681.8 274.8, 683.4 273.9 Q 684.9 273.0, 687.1 273.0 Q 689.7 273.0, 691.2 274.4 Q 692.7 275.9, 692.7 278.4 Q 692.7 281.1, 690.8 283.5 Q 688.9 286.0, 684.9 288.9 L 693.0 288.9 L 693.0 290.9 L 681.1 290.9 L 681.1 289.2 Q 684.4 286.8, 686.4 285.1 Q 688.3 283.3, 689.3 281.8 Q 690.2 280.2, 690.2 278.6 Q 690.2 276.9, 689.4 275.9 Q 688.5 275.0, 687.1 275.0 Q 685.6 275.0, 684.7 275.5 Q 683.7 276.1, 683.1 277.4 L 681.2 276.5 " fill="#FF0000"/>
<path class="atom-23" d="M 707.4 284.8 L 709.6 284.8 L 709.6 286.8 L 707.4 286.8 L 707.4 290.9 L 705.1 290.9 L 705.1 286.8 L 695.9 286.8 L 695.9 285.2 L 703.7 273.2 L 707.4 273.2 L 707.4 284.8 M 698.8 284.8 L 705.1 284.8 L 705.1 274.8 L 698.8 284.8 " fill="#FF0000"/>
<path class="atom-24" d="M 327.9 553.0 Q 327.9 548.6, 329.9 546.3 Q 332.0 544.0, 335.9 544.0 Q 339.6 544.0, 341.5 546.6 L 339.9 547.9 Q 338.5 546.1, 335.9 546.1 Q 333.3 546.1, 331.8 547.9 Q 330.4 549.6, 330.4 553.0 Q 330.4 556.5, 331.9 558.3 Q 333.4 560.1, 336.2 560.1 Q 338.2 560.1, 340.4 559.0 L 341.1 560.8 Q 340.2 561.4, 338.8 561.8 Q 337.4 562.1, 335.9 562.1 Q 332.0 562.1, 329.9 559.8 Q 327.9 557.4, 327.9 553.0 " fill="#000000"/>
<path class="atom-24" d="M 343.8 547.6 Q 344.5 545.9, 346.0 545.0 Q 347.6 544.0, 349.7 544.0 Q 352.4 544.0, 353.9 545.5 Q 355.4 546.9, 355.4 549.5 Q 355.4 552.1, 353.5 554.6 Q 351.5 557.0, 347.5 559.9 L 355.7 559.9 L 355.7 561.9 L 343.8 561.9 L 343.8 560.2 Q 347.1 557.9, 349.0 556.1 Q 351.0 554.4, 352.0 552.8 Q 352.9 551.2, 352.9 549.6 Q 352.9 547.9, 352.1 547.0 Q 351.2 546.0, 349.7 546.0 Q 348.3 546.0, 347.4 546.6 Q 346.4 547.2, 345.7 548.4 L 343.8 547.6 " fill="#000000"/>
<path class="atom-24" d="M 364.9 550.8 Q 366.5 550.8, 367.7 551.5 Q 369.0 552.2, 369.7 553.4 Q 370.5 554.6, 370.5 556.3 Q 370.5 558.1, 369.6 559.5 Q 368.7 560.8, 367.2 561.4 Q 365.8 562.1, 364.1 562.1 Q 362.5 562.1, 361.0 561.5 Q 359.5 560.9, 358.5 559.8 L 360.0 558.2 Q 360.8 559.1, 361.9 559.6 Q 363.1 560.1, 364.2 560.1 Q 365.8 560.1, 366.9 559.1 Q 368.0 558.1, 368.0 556.4 Q 368.0 554.5, 366.9 553.6 Q 365.8 552.7, 364.1 552.7 Q 362.5 552.7, 360.8 553.4 L 359.4 552.7 L 360.3 544.2 L 369.4 544.2 L 369.1 546.2 L 362.3 546.2 L 361.8 551.5 Q 363.4 550.8, 364.9 550.8 " fill="#000000"/>
<path class="atom-25" d="M 558.5 755.8 Q 558.5 751.6, 560.6 749.2 Q 562.7 746.8, 566.6 746.8 Q 570.5 746.8, 572.6 749.2 Q 574.7 751.6, 574.7 755.8 Q 574.7 760.1, 572.6 762.6 Q 570.5 765.0, 566.6 765.0 Q 562.7 765.0, 560.6 762.6 Q 558.5 760.2, 558.5 755.8 M 566.6 763.0 Q 569.3 763.0, 570.8 761.2 Q 572.2 759.4, 572.2 755.8 Q 572.2 752.4, 570.8 750.6 Q 569.3 748.8, 566.6 748.8 Q 563.9 748.8, 562.4 750.6 Q 561.0 752.3, 561.0 755.8 Q 561.0 759.4, 562.4 761.2 Q 563.9 763.0, 566.6 763.0 " fill="#FF0000"/>
<path class="atom-25" d="M 577.4 750.4 Q 578.0 748.7, 579.6 747.8 Q 581.1 746.8, 583.3 746.8 Q 586.0 746.8, 587.5 748.3 Q 589.0 749.7, 589.0 752.3 Q 589.0 754.9, 587.0 757.4 Q 585.1 759.8, 581.1 762.7 L 589.3 762.7 L 589.3 764.7 L 577.3 764.7 L 577.3 763.1 Q 580.6 760.7, 582.6 759.0 Q 584.6 757.2, 585.5 755.6 Q 586.5 754.1, 586.5 752.4 Q 586.5 750.7, 585.6 749.8 Q 584.8 748.8, 583.3 748.8 Q 581.9 748.8, 580.9 749.4 Q 580.0 750.0, 579.3 751.3 L 577.4 750.4 " fill="#FF0000"/>
<path class="atom-25" d="M 599.0 753.7 Q 600.6 753.7, 601.8 754.4 Q 603.0 755.0, 603.7 756.3 Q 604.4 757.5, 604.4 759.0 Q 604.4 760.8, 603.6 762.1 Q 602.8 763.4, 601.5 764.2 Q 600.1 764.9, 598.4 764.9 Q 595.3 764.9, 593.7 762.8 Q 592.1 760.7, 592.1 756.4 Q 592.1 751.7, 594.0 749.3 Q 596.0 746.8, 599.8 746.8 Q 600.9 746.8, 601.8 747.1 Q 602.8 747.3, 603.7 747.9 L 602.7 749.5 Q 601.4 748.8, 599.8 748.8 Q 597.3 748.8, 596.0 750.5 Q 594.8 752.1, 594.6 755.4 Q 595.5 754.6, 596.6 754.1 Q 597.8 753.7, 599.0 753.7 M 598.4 762.9 Q 599.4 762.9, 600.2 762.4 Q 601.0 761.9, 601.4 761.0 Q 601.9 760.1, 601.9 759.1 Q 601.9 757.5, 601.0 756.6 Q 600.1 755.7, 598.6 755.7 Q 597.5 755.7, 596.4 756.1 Q 595.4 756.6, 594.6 757.3 Q 594.7 760.2, 595.6 761.6 Q 596.6 762.9, 598.4 762.9 " fill="#FF0000"/>
<path class="atom-26" d="M 659.0 763.1 Q 659.0 758.7, 661.0 756.4 Q 663.1 754.1, 667.0 754.1 Q 670.7 754.1, 672.6 756.6 L 671.0 758.0 Q 669.5 756.1, 667.0 756.1 Q 664.3 756.1, 662.9 757.9 Q 661.5 759.7, 661.5 763.1 Q 661.5 766.6, 663.0 768.4 Q 664.4 770.2, 667.3 770.2 Q 669.2 770.2, 671.5 769.0 L 672.2 770.9 Q 671.3 771.5, 669.9 771.8 Q 668.5 772.2, 666.9 772.2 Q 663.1 772.2, 661.0 769.8 Q 659.0 767.5, 659.0 763.1 " fill="#000000"/>
<path class="atom-26" d="M 674.9 757.6 Q 675.6 755.9, 677.1 755.0 Q 678.7 754.1, 680.8 754.1 Q 683.5 754.1, 685.0 755.5 Q 686.5 757.0, 686.5 759.5 Q 686.5 762.2, 684.5 764.6 Q 682.6 767.1, 678.6 770.0 L 686.8 770.0 L 686.8 772.0 L 674.9 772.0 L 674.9 770.3 Q 678.2 767.9, 680.1 766.2 Q 682.1 764.4, 683.0 762.9 Q 684.0 761.3, 684.0 759.7 Q 684.0 758.0, 683.1 757.0 Q 682.3 756.1, 680.8 756.1 Q 679.4 756.1, 678.4 756.6 Q 677.5 757.2, 676.8 758.5 L 674.9 757.6 " fill="#000000"/>
<path class="atom-26" d="M 698.8 756.3 L 689.5 756.3 L 689.5 754.3 L 701.3 754.3 L 701.3 756.0 L 694.1 772.0 L 691.7 772.0 L 698.8 756.3 " fill="#000000"/>
<path class="atom-27" d="M 812.1 350.1 Q 812.1 345.9, 814.2 343.5 Q 816.3 341.1, 820.3 341.1 Q 824.2 341.1, 826.3 343.5 Q 828.4 345.9, 828.4 350.1 Q 828.4 354.4, 826.3 356.9 Q 824.1 359.3, 820.3 359.3 Q 816.4 359.3, 814.2 356.9 Q 812.1 354.5, 812.1 350.1 M 820.3 357.3 Q 823.0 357.3, 824.4 355.5 Q 825.9 353.7, 825.9 350.1 Q 825.9 346.7, 824.4 344.9 Q 823.0 343.1, 820.3 343.1 Q 817.6 343.1, 816.1 344.9 Q 814.6 346.6, 814.6 350.1 Q 814.6 353.7, 816.1 355.5 Q 817.6 357.3, 820.3 357.3 " fill="#FF0000"/>
<path class="atom-27" d="M 831.1 344.7 Q 831.7 343.0, 833.3 342.1 Q 834.8 341.1, 837.0 341.1 Q 839.6 341.1, 841.1 342.6 Q 842.6 344.0, 842.6 346.6 Q 842.6 349.2, 840.7 351.7 Q 838.8 354.1, 834.8 357.0 L 842.9 357.0 L 842.9 359.0 L 831.0 359.0 L 831.0 357.4 Q 834.3 355.0, 836.3 353.3 Q 838.2 351.5, 839.2 349.9 Q 840.1 348.4, 840.1 346.7 Q 840.1 345.0, 839.3 344.1 Q 838.4 343.1, 837.0 343.1 Q 835.5 343.1, 834.6 343.7 Q 833.6 344.3, 833.0 345.6 L 831.1 344.7 " fill="#FF0000"/>
<path class="atom-27" d="M 854.8 349.7 Q 856.4 350.4, 857.4 351.4 Q 858.3 352.4, 858.3 354.2 Q 858.3 355.7, 857.5 356.9 Q 856.7 358.0, 855.3 358.7 Q 854.0 359.3, 852.1 359.3 Q 849.2 359.3, 847.5 357.9 Q 845.8 356.6, 845.8 354.2 Q 845.8 352.7, 846.5 351.7 Q 847.3 350.6, 848.8 349.7 Q 847.7 349.1, 847.1 348.1 Q 846.4 347.2, 846.4 345.7 Q 846.4 343.6, 847.9 342.4 Q 849.5 341.1, 852.0 341.1 Q 854.6 341.1, 856.1 342.4 Q 857.6 343.6, 857.6 345.7 Q 857.6 347.0, 856.9 347.9 Q 856.2 348.9, 854.8 349.7 M 852.0 343.0 Q 850.6 343.0, 849.7 343.7 Q 848.9 344.4, 848.9 345.7 Q 848.9 346.6, 849.5 347.2 Q 850.0 347.8, 850.8 348.2 Q 851.6 348.5, 853.1 349.0 Q 854.2 348.3, 854.7 347.5 Q 855.1 346.7, 855.1 345.7 Q 855.1 344.4, 854.3 343.7 Q 853.5 343.0, 852.0 343.0 M 852.1 357.4 Q 853.8 357.4, 854.8 356.5 Q 855.8 355.6, 855.8 354.2 Q 855.8 353.2, 855.3 352.6 Q 854.7 352.0, 853.9 351.7 Q 853.2 351.3, 851.8 350.9 L 850.6 350.5 Q 849.4 351.2, 848.8 352.1 Q 848.3 353.0, 848.3 354.2 Q 848.3 355.6, 849.3 356.5 Q 850.4 357.4, 852.1 357.4 " fill="#FF0000"/>
<path class="atom-28" d="M 872.1 452.2 Q 872.1 447.8, 874.1 445.5 Q 876.2 443.2, 880.1 443.2 Q 883.8 443.2, 885.7 445.7 L 884.1 447.1 Q 882.7 445.2, 880.1 445.2 Q 877.5 445.2, 876.0 447.0 Q 874.6 448.8, 874.6 452.2 Q 874.6 455.7, 876.1 457.5 Q 877.6 459.3, 880.4 459.3 Q 882.4 459.3, 884.6 458.1 L 885.3 460.0 Q 884.4 460.6, 883.0 460.9 Q 881.6 461.3, 880.1 461.3 Q 876.2 461.3, 874.1 458.9 Q 872.1 456.6, 872.1 452.2 " fill="#000000"/>
<path class="atom-28" d="M 888.0 446.7 Q 888.7 445.0, 890.2 444.1 Q 891.8 443.2, 893.9 443.2 Q 896.6 443.2, 898.1 444.6 Q 899.6 446.1, 899.6 448.6 Q 899.6 451.3, 897.7 453.7 Q 895.7 456.2, 891.7 459.1 L 899.9 459.1 L 899.9 461.1 L 888.0 461.1 L 888.0 459.4 Q 891.3 457.0, 893.2 455.3 Q 895.2 453.5, 896.2 452.0 Q 897.1 450.4, 897.1 448.8 Q 897.1 447.1, 896.3 446.1 Q 895.4 445.2, 893.9 445.2 Q 892.5 445.2, 891.6 445.7 Q 890.6 446.3, 889.9 447.6 L 888.0 446.7 " fill="#000000"/>
<path class="atom-28" d="M 908.6 443.2 Q 911.8 443.2, 913.4 445.3 Q 915.0 447.4, 915.0 451.7 Q 915.0 456.4, 913.0 458.8 Q 911.0 461.3, 907.3 461.3 Q 906.2 461.3, 905.2 461.0 Q 904.3 460.8, 903.4 460.2 L 904.4 458.6 Q 905.7 459.3, 907.2 459.3 Q 909.7 459.3, 911.0 457.7 Q 912.3 456.0, 912.4 452.7 Q 911.5 453.5, 910.4 454.0 Q 909.3 454.4, 908.0 454.4 Q 906.5 454.4, 905.3 453.7 Q 904.0 453.1, 903.4 451.8 Q 902.7 450.6, 902.7 449.1 Q 902.7 447.3, 903.4 446.0 Q 904.2 444.7, 905.6 443.9 Q 906.9 443.2, 908.6 443.2 M 905.2 449.0 Q 905.2 450.6, 906.1 451.5 Q 906.9 452.4, 908.5 452.4 Q 909.6 452.4, 910.6 452.0 Q 911.7 451.5, 912.4 450.8 Q 912.3 447.9, 911.4 446.5 Q 910.5 445.2, 908.6 445.2 Q 907.7 445.2, 906.9 445.7 Q 906.1 446.2, 905.6 447.1 Q 905.2 448.0, 905.2 449.0 " fill="#000000"/>
<path class="atom-29" d="M 754.8 248.1 Q 754.8 243.7, 756.9 241.4 Q 758.9 239.1, 762.9 239.1 Q 766.5 239.1, 768.5 241.7 L 766.8 243.0 Q 765.4 241.2, 762.9 241.2 Q 760.2 241.2, 758.8 243.0 Q 757.4 244.7, 757.4 248.1 Q 757.4 251.6, 758.8 253.4 Q 760.3 255.2, 763.1 255.2 Q 765.1 255.2, 767.4 254.1 L 768.1 255.9 Q 767.1 256.5, 765.7 256.9 Q 764.3 257.2, 762.8 257.2 Q 758.9 257.2, 756.9 254.9 Q 754.8 252.5, 754.8 248.1 " fill="#000000"/>
<path class="atom-29" d="M 779.3 247.7 Q 781.0 248.2, 781.8 249.3 Q 782.7 250.4, 782.7 252.2 Q 782.7 253.7, 781.9 254.8 Q 781.2 256.0, 779.8 256.6 Q 778.4 257.3, 776.6 257.3 Q 774.7 257.3, 773.3 256.6 Q 771.9 255.9, 770.8 254.6 L 772.2 253.1 Q 773.3 254.3, 774.2 254.8 Q 775.1 255.3, 776.6 255.3 Q 778.2 255.3, 779.2 254.4 Q 780.2 253.5, 780.2 252.1 Q 780.2 250.3, 779.1 249.5 Q 778.1 248.7, 776.0 248.7 L 774.7 248.7 L 774.7 246.9 L 775.8 246.9 Q 777.7 246.9, 778.8 246.1 Q 779.8 245.2, 779.8 243.6 Q 779.8 242.5, 778.9 241.8 Q 778.1 241.1, 776.6 241.1 Q 775.2 241.1, 774.2 241.6 Q 773.3 242.2, 772.6 243.5 L 770.9 242.6 Q 771.5 241.1, 773.0 240.1 Q 774.5 239.1, 776.6 239.1 Q 779.2 239.1, 780.8 240.3 Q 782.3 241.6, 782.3 243.6 Q 782.3 245.1, 781.5 246.1 Q 780.7 247.1, 779.3 247.7 " fill="#000000"/>
<path class="atom-29" d="M 791.9 257.2 Q 788.6 257.2, 787.0 254.8 Q 785.4 252.4, 785.4 248.1 Q 785.4 243.9, 787.0 241.5 Q 788.6 239.1, 791.9 239.1 Q 795.2 239.1, 796.8 241.5 Q 798.4 243.9, 798.4 248.1 Q 798.4 252.4, 796.7 254.8 Q 795.1 257.2, 791.9 257.2 M 791.9 255.2 Q 793.8 255.2, 794.8 253.4 Q 795.9 251.6, 795.9 248.1 Q 795.9 244.7, 794.8 242.9 Q 793.8 241.1, 791.9 241.1 Q 790.0 241.1, 788.9 242.9 Q 787.9 244.7, 787.9 248.1 Q 787.9 251.6, 788.9 253.4 Q 790.0 255.2, 791.9 255.2 " fill="#000000"/>
<path class="atom-30" d="M 341.2 485.1 Q 341.2 480.8, 343.3 478.4 Q 345.4 476.1, 349.3 476.1 Q 353.2 476.1, 355.3 478.4 Q 357.4 480.8, 357.4 485.1 Q 357.4 489.4, 355.3 491.8 Q 353.2 494.2, 349.3 494.2 Q 345.4 494.2, 343.3 491.8 Q 341.2 489.4, 341.2 485.1 M 349.3 492.2 Q 352.0 492.2, 353.5 490.4 Q 354.9 488.6, 354.9 485.1 Q 354.9 481.6, 353.5 479.8 Q 352.0 478.1, 349.3 478.1 Q 346.6 478.1, 345.1 479.8 Q 343.7 481.6, 343.7 485.1 Q 343.7 488.6, 345.1 490.4 Q 346.6 492.2, 349.3 492.2 " fill="#FF0000"/>
<path class="atom-30" d="M 368.5 484.6 Q 370.2 485.1, 371.0 486.3 Q 371.9 487.4, 371.9 489.1 Q 371.9 490.6, 371.1 491.8 Q 370.4 492.9, 369.0 493.6 Q 367.6 494.2, 365.8 494.2 Q 363.9 494.2, 362.5 493.6 Q 361.1 492.9, 360.0 491.5 L 361.4 490.1 Q 362.5 491.3, 363.4 491.8 Q 364.4 492.2, 365.8 492.2 Q 367.4 492.2, 368.4 491.4 Q 369.4 490.5, 369.4 489.1 Q 369.4 487.3, 368.4 486.5 Q 367.4 485.7, 365.2 485.7 L 363.9 485.7 L 363.9 483.9 L 365.0 483.9 Q 367.0 483.8, 368.0 483.0 Q 369.0 482.2, 369.0 480.6 Q 369.0 479.4, 368.2 478.8 Q 367.3 478.1, 365.9 478.1 Q 364.4 478.1, 363.5 478.6 Q 362.6 479.1, 361.9 480.4 L 360.1 479.5 Q 360.8 478.0, 362.3 477.1 Q 363.8 476.1, 365.9 476.1 Q 368.5 476.1, 370.0 477.3 Q 371.5 478.5, 371.5 480.6 Q 371.5 482.0, 370.7 483.0 Q 370.0 484.1, 368.5 484.6 " fill="#FF0000"/>
<path class="atom-30" d="M 375.6 492.0 L 379.5 492.0 L 379.5 478.7 L 375.2 480.1 L 374.6 478.6 L 380.1 476.2 L 381.8 476.5 L 381.8 492.0 L 385.3 492.0 L 385.3 494.0 L 375.6 494.0 L 375.6 492.0 " fill="#FF0000"/>
<path class="atom-31" d="M 269.0 586.9 Q 269.0 582.5, 271.1 580.2 Q 273.2 577.9, 277.1 577.9 Q 280.7 577.9, 282.7 580.4 L 281.0 581.8 Q 279.6 579.9, 277.1 579.9 Q 274.4 579.9, 273.0 581.7 Q 271.6 583.5, 271.6 586.9 Q 271.6 590.4, 273.0 592.2 Q 274.5 594.0, 277.4 594.0 Q 279.3 594.0, 281.6 592.8 L 282.3 594.7 Q 281.4 595.3, 280.0 595.6 Q 278.6 596.0, 277.0 596.0 Q 273.2 596.0, 271.1 593.6 Q 269.0 591.3, 269.0 586.9 " fill="#000000"/>
<path class="atom-31" d="M 293.4 586.4 Q 295.2 586.9, 296.0 588.1 Q 296.8 589.2, 296.8 590.9 Q 296.8 592.4, 296.1 593.6 Q 295.3 594.7, 294.0 595.4 Q 292.6 596.0, 290.8 596.0 Q 288.9 596.0, 287.5 595.4 Q 286.1 594.7, 284.9 593.3 L 286.4 591.9 Q 287.5 593.1, 288.4 593.6 Q 289.3 594.0, 290.8 594.0 Q 292.4 594.0, 293.4 593.2 Q 294.3 592.3, 294.3 590.9 Q 294.3 589.1, 293.3 588.3 Q 292.3 587.5, 290.1 587.5 L 288.9 587.5 L 288.9 585.7 L 290.0 585.7 Q 291.9 585.6, 292.9 584.8 Q 294.0 584.0, 294.0 582.4 Q 294.0 581.2, 293.1 580.6 Q 292.3 579.9, 290.8 579.9 Q 289.3 579.9, 288.4 580.4 Q 287.5 580.9, 286.8 582.2 L 285.1 581.3 Q 285.7 579.8, 287.2 578.9 Q 288.7 577.9, 290.8 577.9 Q 293.4 577.9, 294.9 579.1 Q 296.5 580.3, 296.5 582.4 Q 296.5 583.8, 295.7 584.8 Q 294.9 585.9, 293.4 586.4 " fill="#000000"/>
<path class="atom-31" d="M 299.6 581.4 Q 300.3 579.7, 301.8 578.8 Q 303.4 577.9, 305.5 577.9 Q 308.2 577.9, 309.7 579.3 Q 311.2 580.8, 311.2 583.3 Q 311.2 586.0, 309.2 588.4 Q 307.3 590.9, 303.3 593.8 L 311.5 593.8 L 311.5 595.8 L 299.6 595.8 L 299.6 594.1 Q 302.9 591.7, 304.8 590.0 Q 306.8 588.2, 307.7 586.7 Q 308.7 585.1, 308.7 583.5 Q 308.7 581.8, 307.8 580.8 Q 307.0 579.9, 305.5 579.9 Q 304.1 579.9, 303.1 580.4 Q 302.2 581.0, 301.5 582.3 L 299.6 581.4 " fill="#000000"/>
<path class="atom-32" d="M 269.3 451.0 Q 269.3 446.6, 271.4 444.3 Q 273.5 442.0, 277.4 442.0 Q 281.0 442.0, 283.0 444.6 L 281.3 445.9 Q 279.9 444.0, 277.4 444.0 Q 274.7 444.0, 273.3 445.8 Q 271.9 447.6, 271.9 451.0 Q 271.9 454.5, 273.3 456.3 Q 274.8 458.1, 277.7 458.1 Q 279.6 458.1, 281.9 456.9 L 282.6 458.8 Q 281.7 459.4, 280.3 459.8 Q 278.9 460.1, 277.3 460.1 Q 273.5 460.1, 271.4 457.8 Q 269.3 455.4, 269.3 451.0 " fill="#000000"/>
<path class="atom-32" d="M 293.7 450.6 Q 295.5 451.1, 296.3 452.2 Q 297.1 453.3, 297.1 455.0 Q 297.1 456.5, 296.4 457.7 Q 295.6 458.9, 294.3 459.5 Q 292.9 460.1, 291.1 460.1 Q 289.2 460.1, 287.8 459.5 Q 286.4 458.8, 285.2 457.5 L 286.7 456.0 Q 287.8 457.2, 288.7 457.7 Q 289.6 458.1, 291.1 458.1 Q 292.7 458.1, 293.7 457.3 Q 294.6 456.4, 294.6 455.0 Q 294.6 453.2, 293.6 452.4 Q 292.6 451.6, 290.4 451.6 L 289.2 451.6 L 289.2 449.8 L 290.3 449.8 Q 292.2 449.8, 293.2 448.9 Q 294.3 448.1, 294.3 446.5 Q 294.3 445.4, 293.4 444.7 Q 292.6 444.0, 291.1 444.0 Q 289.6 444.0, 288.7 444.5 Q 287.8 445.0, 287.1 446.4 L 285.4 445.4 Q 286.0 444.0, 287.5 443.0 Q 289.0 442.0, 291.1 442.0 Q 293.7 442.0, 295.2 443.2 Q 296.8 444.4, 296.8 446.5 Q 296.8 447.9, 296.0 449.0 Q 295.2 450.0, 293.7 450.6 " fill="#000000"/>
<path class="atom-32" d="M 308.4 450.6 Q 310.1 451.1, 310.9 452.2 Q 311.8 453.3, 311.8 455.0 Q 311.8 456.5, 311.0 457.7 Q 310.3 458.9, 308.9 459.5 Q 307.5 460.1, 305.7 460.1 Q 303.8 460.1, 302.4 459.5 Q 301.0 458.8, 299.9 457.5 L 301.3 456.0 Q 302.4 457.2, 303.3 457.7 Q 304.2 458.1, 305.7 458.1 Q 307.3 458.1, 308.3 457.3 Q 309.3 456.4, 309.3 455.0 Q 309.3 453.2, 308.2 452.4 Q 307.2 451.6, 305.1 451.6 L 303.8 451.6 L 303.8 449.8 L 304.9 449.8 Q 306.8 449.8, 307.9 448.9 Q 308.9 448.1, 308.9 446.5 Q 308.9 445.4, 308.0 444.7 Q 307.2 444.0, 305.7 444.0 Q 304.3 444.0, 303.3 444.5 Q 302.4 445.0, 301.7 446.4 L 300.0 445.4 Q 300.6 444.0, 302.1 443.0 Q 303.6 442.0, 305.7 442.0 Q 308.3 442.0, 309.9 443.2 Q 311.4 444.4, 311.4 446.5 Q 311.4 447.9, 310.6 449.0 Q 309.8 450.0, 308.4 450.6 " fill="#000000"/>
<path class="atom-33" d="M 224.7 552.8 Q 224.7 548.4, 226.7 546.1 Q 228.8 543.8, 232.7 543.8 Q 236.4 543.8, 238.3 546.3 L 236.7 547.7 Q 235.3 545.8, 232.7 545.8 Q 230.1 545.8, 228.6 547.6 Q 227.2 549.4, 227.2 552.8 Q 227.2 556.3, 228.7 558.1 Q 230.2 559.9, 233.0 559.9 Q 235.0 559.9, 237.2 558.7 L 237.9 560.6 Q 237.0 561.2, 235.6 561.5 Q 234.2 561.9, 232.7 561.9 Q 228.8 561.9, 226.7 559.5 Q 224.7 557.2, 224.7 552.8 " fill="#000000"/>
<path class="atom-33" d="M 249.1 552.3 Q 250.9 552.8, 251.7 554.0 Q 252.5 555.1, 252.5 556.8 Q 252.5 558.3, 251.8 559.5 Q 251.0 560.6, 249.7 561.3 Q 248.3 561.9, 246.5 561.9 Q 244.6 561.9, 243.2 561.3 Q 241.8 560.6, 240.6 559.2 L 242.1 557.8 Q 243.2 559.0, 244.1 559.5 Q 245.0 559.9, 246.5 559.9 Q 248.1 559.9, 249.1 559.1 Q 250.0 558.2, 250.0 556.8 Q 250.0 555.0, 249.0 554.2 Q 248.0 553.4, 245.8 553.4 L 244.6 553.4 L 244.6 551.6 L 245.7 551.6 Q 247.6 551.5, 248.6 550.7 Q 249.7 549.9, 249.7 548.3 Q 249.7 547.1, 248.8 546.5 Q 248.0 545.8, 246.5 545.8 Q 245.0 545.8, 244.1 546.3 Q 243.2 546.8, 242.5 548.1 L 240.8 547.2 Q 241.4 545.7, 242.9 544.8 Q 244.4 543.8, 246.5 543.8 Q 249.1 543.8, 250.6 545.0 Q 252.2 546.2, 252.2 548.3 Q 252.2 549.7, 251.4 550.7 Q 250.6 551.8, 249.1 552.3 " fill="#000000"/>
<path class="atom-33" d="M 266.8 555.6 L 268.9 555.6 L 268.9 557.6 L 266.8 557.6 L 266.8 561.7 L 264.5 561.7 L 264.5 557.6 L 255.3 557.6 L 255.3 556.0 L 263.1 544.0 L 266.8 544.0 L 266.8 555.6 M 258.2 555.6 L 264.5 555.6 L 264.5 545.6 L 258.2 555.6 " fill="#000000"/>
<path class="atom-34" d="M 282.0 654.8 Q 282.0 650.5, 284.1 648.2 Q 286.2 645.8, 290.1 645.8 Q 294.1 645.8, 296.2 648.2 Q 298.3 650.5, 298.3 654.8 Q 298.3 659.1, 296.1 661.5 Q 294.0 664.0, 290.1 664.0 Q 286.2 664.0, 284.1 661.5 Q 282.0 659.1, 282.0 654.8 M 290.1 662.0 Q 292.8 662.0, 294.3 660.2 Q 295.8 658.3, 295.8 654.8 Q 295.8 651.3, 294.3 649.6 Q 292.8 647.8, 290.1 647.8 Q 287.4 647.8, 286.0 649.5 Q 284.5 651.3, 284.5 654.8 Q 284.5 658.4, 286.0 660.2 Q 287.4 662.0, 290.1 662.0 " fill="#FF0000"/>
<path class="atom-34" d="M 309.3 654.4 Q 311.1 654.9, 311.9 656.0 Q 312.7 657.1, 312.7 658.8 Q 312.7 660.3, 312.0 661.5 Q 311.2 662.7, 309.9 663.3 Q 308.5 663.9, 306.7 663.9 Q 304.8 663.9, 303.4 663.3 Q 302.0 662.6, 300.8 661.3 L 302.3 659.8 Q 303.4 661.0, 304.3 661.5 Q 305.2 661.9, 306.7 661.9 Q 308.3 661.9, 309.3 661.1 Q 310.2 660.2, 310.2 658.8 Q 310.2 657.0, 309.2 656.2 Q 308.2 655.4, 306.0 655.4 L 304.8 655.4 L 304.8 653.6 L 305.9 653.6 Q 307.8 653.6, 308.8 652.7 Q 309.9 651.9, 309.9 650.3 Q 309.9 649.2, 309.0 648.5 Q 308.2 647.8, 306.7 647.8 Q 305.2 647.8, 304.3 648.3 Q 303.4 648.8, 302.7 650.2 L 301.0 649.2 Q 301.6 647.8, 303.1 646.8 Q 304.6 645.8, 306.7 645.8 Q 309.3 645.8, 310.8 647.0 Q 312.4 648.2, 312.4 650.3 Q 312.4 651.7, 311.6 652.8 Q 310.8 653.8, 309.3 654.4 " fill="#FF0000"/>
<path class="atom-34" d="M 322.0 652.6 Q 323.5 652.6, 324.8 653.3 Q 326.1 653.9, 326.8 655.2 Q 327.5 656.4, 327.5 658.1 Q 327.5 659.9, 326.6 661.2 Q 325.8 662.5, 324.3 663.2 Q 322.9 663.9, 321.2 663.9 Q 319.6 663.9, 318.1 663.3 Q 316.6 662.7, 315.6 661.5 L 317.1 660.0 Q 317.9 660.9, 319.0 661.4 Q 320.1 661.9, 321.3 661.9 Q 322.9 661.9, 323.9 660.9 Q 325.0 659.9, 325.0 658.1 Q 325.0 656.3, 323.9 655.4 Q 322.9 654.5, 321.1 654.5 Q 319.6 654.5, 317.9 655.2 L 316.5 654.5 L 317.3 646.0 L 326.4 646.0 L 326.2 648.0 L 319.4 648.0 L 318.9 653.2 Q 320.4 652.6, 322.0 652.6 " fill="#FF0000"/>
<path class="atom-35" d="M 210.2 484.9 Q 210.2 480.5, 212.3 478.2 Q 214.4 475.8, 218.3 475.8 Q 221.9 475.8, 223.9 478.4 L 222.2 479.8 Q 220.8 477.9, 218.3 477.9 Q 215.6 477.9, 214.2 479.7 Q 212.8 481.5, 212.8 484.9 Q 212.8 488.4, 214.2 490.2 Q 215.7 492.0, 218.6 492.0 Q 220.5 492.0, 222.8 490.8 L 223.5 492.7 Q 222.6 493.3, 221.2 493.6 Q 219.8 494.0, 218.2 494.0 Q 214.4 494.0, 212.3 491.6 Q 210.2 489.3, 210.2 484.9 " fill="#000000"/>
<path class="atom-35" d="M 234.6 484.4 Q 236.4 484.9, 237.2 486.0 Q 238.0 487.1, 238.0 488.9 Q 238.0 490.4, 237.3 491.6 Q 236.5 492.7, 235.2 493.4 Q 233.8 494.0, 232.0 494.0 Q 230.1 494.0, 228.7 493.3 Q 227.3 492.7, 226.1 491.3 L 227.6 489.9 Q 228.7 491.1, 229.6 491.5 Q 230.5 492.0, 232.0 492.0 Q 233.6 492.0, 234.6 491.1 Q 235.5 490.3, 235.5 488.9 Q 235.5 487.1, 234.5 486.3 Q 233.5 485.4, 231.3 485.4 L 230.1 485.4 L 230.1 483.6 L 231.2 483.6 Q 233.1 483.6, 234.1 482.8 Q 235.2 481.9, 235.2 480.4 Q 235.2 479.2, 234.3 478.5 Q 233.5 477.8, 232.0 477.8 Q 230.5 477.8, 229.6 478.4 Q 228.7 478.9, 228.0 480.2 L 226.3 479.3 Q 226.9 477.8, 228.4 476.8 Q 229.9 475.8, 232.0 475.8 Q 234.6 475.8, 236.1 477.1 Q 237.7 478.3, 237.7 480.4 Q 237.7 481.8, 236.9 482.8 Q 236.1 483.8, 234.6 484.4 " fill="#000000"/>
<path class="atom-35" d="M 247.7 482.7 Q 249.3 482.7, 250.5 483.4 Q 251.7 484.0, 252.4 485.3 Q 253.1 486.5, 253.1 488.0 Q 253.1 489.8, 252.3 491.1 Q 251.5 492.4, 250.2 493.2 Q 248.8 493.9, 247.1 493.9 Q 244.0 493.9, 242.4 491.8 Q 240.8 489.7, 240.8 485.4 Q 240.8 480.7, 242.7 478.3 Q 244.7 475.8, 248.5 475.8 Q 249.6 475.8, 250.5 476.1 Q 251.5 476.3, 252.4 476.9 L 251.4 478.5 Q 250.1 477.8, 248.5 477.8 Q 246.0 477.8, 244.7 479.5 Q 243.5 481.1, 243.3 484.4 Q 244.2 483.6, 245.3 483.1 Q 246.5 482.7, 247.7 482.7 M 247.1 491.9 Q 248.1 491.9, 248.9 491.4 Q 249.7 490.9, 250.1 490.0 Q 250.6 489.1, 250.6 488.1 Q 250.6 486.5, 249.7 485.6 Q 248.8 484.7, 247.3 484.7 Q 246.2 484.7, 245.1 485.1 Q 244.1 485.6, 243.3 486.3 Q 243.4 489.2, 244.3 490.6 Q 245.3 491.9, 247.1 491.9 " fill="#000000"/>
<path class="atom-36" d="M 283.9 383.1 Q 283.9 378.7, 285.9 376.4 Q 288.0 374.1, 291.9 374.1 Q 295.6 374.1, 297.5 376.6 L 295.9 378.0 Q 294.4 376.1, 291.9 376.1 Q 289.2 376.1, 287.8 377.9 Q 286.4 379.7, 286.4 383.1 Q 286.4 386.6, 287.9 388.4 Q 289.3 390.2, 292.2 390.2 Q 294.1 390.2, 296.4 389.0 L 297.1 390.9 Q 296.2 391.5, 294.8 391.8 Q 293.4 392.2, 291.8 392.2 Q 288.0 392.2, 285.9 389.8 Q 283.9 387.5, 283.9 383.1 " fill="#000000"/>
<path class="atom-36" d="M 308.2 382.6 Q 310.0 383.1, 310.8 384.3 Q 311.6 385.4, 311.6 387.1 Q 311.6 388.6, 310.9 389.8 Q 310.1 390.9, 308.8 391.6 Q 307.4 392.2, 305.6 392.2 Q 303.7 392.2, 302.3 391.6 Q 300.9 390.9, 299.7 389.5 L 301.2 388.1 Q 302.3 389.3, 303.2 389.8 Q 304.1 390.2, 305.6 390.2 Q 307.2 390.2, 308.2 389.4 Q 309.1 388.5, 309.1 387.1 Q 309.1 385.3, 308.1 384.5 Q 307.1 383.7, 304.9 383.7 L 303.7 383.7 L 303.7 381.9 L 304.8 381.9 Q 306.7 381.8, 307.7 381.0 Q 308.8 380.2, 308.8 378.6 Q 308.8 377.4, 307.9 376.8 Q 307.1 376.1, 305.6 376.1 Q 304.1 376.1, 303.2 376.6 Q 302.3 377.1, 301.6 378.4 L 299.9 377.5 Q 300.5 376.0, 302.0 375.1 Q 303.5 374.1, 305.6 374.1 Q 308.2 374.1, 309.7 375.3 Q 311.3 376.5, 311.3 378.6 Q 311.3 380.0, 310.5 381.0 Q 309.7 382.1, 308.2 382.6 " fill="#000000"/>
<path class="atom-36" d="M 323.6 376.3 L 314.4 376.3 L 314.4 374.3 L 326.1 374.3 L 326.1 376.0 L 319.0 392.0 L 316.6 392.0 L 323.6 376.3 " fill="#000000"/>
<path class="atom-37" d="M 132.8 586.6 Q 132.8 582.4, 134.9 580.0 Q 137.0 577.6, 140.9 577.6 Q 144.8 577.6, 146.9 580.0 Q 149.0 582.4, 149.0 586.6 Q 149.0 590.9, 146.9 593.4 Q 144.8 595.8, 140.9 595.8 Q 137.0 595.8, 134.9 593.4 Q 132.8 590.9, 132.8 586.6 M 140.9 593.8 Q 143.6 593.8, 145.0 592.0 Q 146.5 590.2, 146.5 586.6 Q 146.5 583.1, 145.0 581.4 Q 143.6 579.6, 140.9 579.6 Q 138.2 579.6, 136.7 581.4 Q 135.3 583.1, 135.3 586.6 Q 135.3 590.2, 136.7 592.0 Q 138.2 593.8, 140.9 593.8 " fill="#FF0000"/>
<path class="atom-37" d="M 160.1 586.2 Q 161.8 586.7, 162.7 587.8 Q 163.5 588.9, 163.5 590.7 Q 163.5 592.2, 162.8 593.3 Q 162.0 594.5, 160.6 595.1 Q 159.3 595.8, 157.5 595.8 Q 155.6 595.8, 154.1 595.1 Q 152.7 594.4, 151.6 593.1 L 153.0 591.6 Q 154.1 592.8, 155.1 593.3 Q 156.0 593.8, 157.5 593.8 Q 159.1 593.8, 160.0 592.9 Q 161.0 592.0, 161.0 590.6 Q 161.0 588.8, 160.0 588.0 Q 159.0 587.2, 156.8 587.2 L 155.5 587.2 L 155.5 585.4 L 156.7 585.4 Q 158.6 585.4, 159.6 584.6 Q 160.6 583.7, 160.6 582.1 Q 160.6 581.0, 159.8 580.3 Q 158.9 579.6, 157.5 579.6 Q 156.0 579.6, 155.1 580.1 Q 154.2 580.7, 153.5 582.0 L 151.8 581.1 Q 152.4 579.6, 153.9 578.6 Q 155.4 577.6, 157.5 577.6 Q 160.1 577.6, 161.6 578.8 Q 163.1 580.1, 163.1 582.1 Q 163.1 583.6, 162.4 584.6 Q 161.6 585.6, 160.1 586.2 " fill="#FF0000"/>
<path class="atom-37" d="M 175.4 586.1 Q 177.0 586.8, 177.9 587.9 Q 178.8 588.9, 178.8 590.7 Q 178.8 592.2, 178.1 593.3 Q 177.3 594.5, 175.9 595.1 Q 174.5 595.8, 172.7 595.8 Q 169.7 595.8, 168.0 594.4 Q 166.3 593.0, 166.3 590.7 Q 166.3 589.2, 167.1 588.1 Q 167.8 587.0, 169.4 586.2 Q 168.2 585.6, 167.6 584.6 Q 167.0 583.6, 167.0 582.1 Q 167.0 580.1, 168.5 578.8 Q 170.0 577.6, 172.6 577.6 Q 175.2 577.6, 176.7 578.8 Q 178.2 580.1, 178.2 582.1 Q 178.2 583.4, 177.5 584.4 Q 176.8 585.4, 175.4 586.1 M 172.6 579.5 Q 171.1 579.5, 170.3 580.2 Q 169.5 580.9, 169.5 582.1 Q 169.5 583.1, 170.0 583.7 Q 170.6 584.3, 171.4 584.6 Q 172.2 585.0, 173.7 585.5 Q 174.8 584.8, 175.2 584.0 Q 175.7 583.2, 175.7 582.1 Q 175.7 580.9, 174.9 580.2 Q 174.1 579.5, 172.6 579.5 M 172.7 593.9 Q 174.3 593.9, 175.3 593.0 Q 176.3 592.1, 176.3 590.6 Q 176.3 589.7, 175.8 589.1 Q 175.3 588.5, 174.5 588.1 Q 173.7 587.8, 172.3 587.3 L 171.2 587.0 Q 169.9 587.7, 169.4 588.6 Q 168.8 589.5, 168.8 590.6 Q 168.8 592.1, 169.9 593.0 Q 170.9 593.9, 172.7 593.9 " fill="#FF0000"/>
<path class="atom-38" d="M 133.2 450.8 Q 133.2 446.5, 135.3 444.1 Q 137.4 441.8, 141.3 441.8 Q 145.2 441.8, 147.3 444.1 Q 149.4 446.5, 149.4 450.8 Q 149.4 455.1, 147.3 457.5 Q 145.2 459.9, 141.3 459.9 Q 137.4 459.9, 135.3 457.5 Q 133.2 455.1, 133.2 450.8 M 141.3 457.9 Q 144.0 457.9, 145.4 456.1 Q 146.9 454.3, 146.9 450.8 Q 146.9 447.3, 145.4 445.5 Q 144.0 443.8, 141.3 443.8 Q 138.6 443.8, 137.1 445.5 Q 135.7 447.3, 135.7 450.8 Q 135.7 454.3, 137.1 456.1 Q 138.6 457.9, 141.3 457.9 " fill="#FF0000"/>
<path class="atom-38" d="M 160.5 450.3 Q 162.2 450.8, 163.1 452.0 Q 163.9 453.1, 163.9 454.8 Q 163.9 456.3, 163.2 457.5 Q 162.4 458.6, 161.0 459.3 Q 159.7 459.9, 157.9 459.9 Q 156.0 459.9, 154.5 459.3 Q 153.1 458.6, 152.0 457.2 L 153.4 455.8 Q 154.5 457.0, 155.5 457.5 Q 156.4 457.9, 157.9 457.9 Q 159.5 457.9, 160.4 457.1 Q 161.4 456.2, 161.4 454.8 Q 161.4 453.0, 160.4 452.2 Q 159.4 451.4, 157.2 451.4 L 155.9 451.4 L 155.9 449.6 L 157.1 449.6 Q 159.0 449.5, 160.0 448.7 Q 161.0 447.9, 161.0 446.3 Q 161.0 445.1, 160.2 444.5 Q 159.3 443.8, 157.9 443.8 Q 156.4 443.8, 155.5 444.3 Q 154.6 444.8, 153.9 446.1 L 152.2 445.2 Q 152.8 443.7, 154.3 442.8 Q 155.8 441.8, 157.9 441.8 Q 160.5 441.8, 162.0 443.0 Q 163.5 444.2, 163.5 446.3 Q 163.5 447.7, 162.8 448.7 Q 162.0 449.8, 160.5 450.3 " fill="#FF0000"/>
<path class="atom-38" d="M 172.7 441.8 Q 175.8 441.8, 177.4 443.9 Q 179.0 446.0, 179.0 450.3 Q 179.0 455.0, 177.0 457.4 Q 175.1 459.9, 171.3 459.9 Q 170.2 459.9, 169.3 459.6 Q 168.3 459.4, 167.4 458.8 L 168.4 457.2 Q 169.7 457.9, 171.3 457.9 Q 173.8 457.9, 175.1 456.3 Q 176.3 454.6, 176.5 451.3 Q 175.6 452.1, 174.4 452.6 Q 173.3 453.0, 172.1 453.0 Q 170.5 453.0, 169.3 452.3 Q 168.1 451.7, 167.4 450.4 Q 166.7 449.2, 166.7 447.7 Q 166.7 445.9, 167.5 444.6 Q 168.3 443.3, 169.6 442.5 Q 171.0 441.8, 172.7 441.8 M 169.2 447.6 Q 169.2 449.2, 170.1 450.1 Q 171.0 451.0, 172.5 451.0 Q 173.6 451.0, 174.7 450.6 Q 175.7 450.1, 176.5 449.4 Q 176.4 446.5, 175.5 445.1 Q 174.5 443.8, 172.7 443.8 Q 171.7 443.8, 170.9 444.3 Q 170.1 444.8, 169.7 445.7 Q 169.2 446.6, 169.2 447.6 " fill="#FF0000"/>
<path class="atom-39" d="M 207.8 349.0 Q 207.8 344.7, 209.9 342.3 Q 212.0 340.0, 216.0 340.0 Q 219.9 340.0, 222.0 342.3 Q 224.1 344.7, 224.1 349.0 Q 224.1 353.3, 222.0 355.7 Q 219.8 358.1, 216.0 358.1 Q 212.1 358.1, 209.9 355.7 Q 207.8 353.3, 207.8 349.0 M 216.0 356.1 Q 218.7 356.1, 220.1 354.3 Q 221.6 352.5, 221.6 349.0 Q 221.6 345.5, 220.1 343.7 Q 218.7 342.0, 216.0 342.0 Q 213.3 342.0, 211.8 343.7 Q 210.3 345.5, 210.3 349.0 Q 210.3 352.5, 211.8 354.3 Q 213.3 356.1, 216.0 356.1 " fill="#FF0000"/>
<path class="atom-39" d="M 238.3 351.8 L 240.4 351.8 L 240.4 353.8 L 238.3 353.8 L 238.3 357.9 L 235.9 357.9 L 235.9 353.8 L 226.8 353.8 L 226.8 352.2 L 234.5 340.2 L 238.3 340.2 L 238.3 351.8 M 229.7 351.8 L 235.9 351.8 L 235.9 341.8 L 229.7 351.8 " fill="#FF0000"/>
<path class="atom-39" d="M 249.5 358.1 Q 246.3 358.1, 244.6 355.7 Q 243.0 353.3, 243.0 349.0 Q 243.0 344.7, 244.6 342.3 Q 246.2 340.0, 249.5 340.0 Q 252.8 340.0, 254.4 342.3 Q 256.0 344.7, 256.0 349.0 Q 256.0 353.3, 254.4 355.7 Q 252.8 358.1, 249.5 358.1 M 249.5 356.1 Q 251.4 356.1, 252.5 354.3 Q 253.5 352.5, 253.5 349.0 Q 253.5 345.5, 252.5 343.7 Q 251.4 342.0, 249.5 342.0 Q 247.6 342.0, 246.6 343.7 Q 245.5 345.5, 245.5 349.0 Q 245.5 352.5, 246.6 354.3 Q 247.6 356.1, 249.5 356.1 " fill="#FF0000"/>
<path class="atom-40" d="M 151.7 382.8 Q 151.7 378.4, 153.7 376.1 Q 155.8 373.8, 159.7 373.8 Q 163.4 373.8, 165.3 376.4 L 163.7 377.7 Q 162.2 375.9, 159.7 375.9 Q 157.0 375.9, 155.6 377.7 Q 154.2 379.4, 154.2 382.8 Q 154.2 386.3, 155.7 388.1 Q 157.1 389.9, 160.0 389.9 Q 161.9 389.9, 164.2 388.8 L 164.9 390.6 Q 164.0 391.2, 162.6 391.6 Q 161.2 391.9, 159.6 391.9 Q 155.8 391.9, 153.7 389.6 Q 151.7 387.2, 151.7 382.8 " fill="#000000"/>
<path class="atom-40" d="M 179.1 385.6 L 181.2 385.6 L 181.2 387.6 L 179.1 387.6 L 179.1 391.7 L 176.7 391.7 L 176.7 387.6 L 167.6 387.6 L 167.6 386.1 L 175.3 374.0 L 179.1 374.0 L 179.1 385.6 M 170.5 385.6 L 176.7 385.6 L 176.7 375.6 L 170.5 385.6 " fill="#000000"/>
<path class="atom-40" d="M 184.7 389.7 L 188.5 389.7 L 188.5 376.5 L 184.3 377.8 L 183.7 376.3 L 189.1 373.9 L 190.9 374.2 L 190.9 389.7 L 194.4 389.7 L 194.4 391.7 L 184.7 391.7 L 184.7 389.7 " fill="#000000"/>
<path class="atom-41" d="M 76.2 348.8 Q 76.2 344.4, 78.2 342.1 Q 80.3 339.7, 84.2 339.7 Q 87.9 339.7, 89.8 342.3 L 88.2 343.7 Q 86.7 341.8, 84.2 341.8 Q 81.5 341.8, 80.1 343.6 Q 78.7 345.4, 78.7 348.8 Q 78.7 352.3, 80.2 354.1 Q 81.6 355.9, 84.5 355.9 Q 86.4 355.9, 88.7 354.7 L 89.4 356.6 Q 88.5 357.2, 87.1 357.5 Q 85.7 357.9, 84.1 357.9 Q 80.3 357.9, 78.2 355.5 Q 76.2 353.2, 76.2 348.8 " fill="#000000"/>
<path class="atom-41" d="M 103.6 351.6 L 105.7 351.6 L 105.7 353.6 L 103.6 353.6 L 103.6 357.6 L 101.3 357.6 L 101.3 353.6 L 92.1 353.6 L 92.1 352.0 L 99.9 339.9 L 103.6 339.9 L 103.6 351.6 M 95.0 351.6 L 101.3 351.6 L 101.3 341.5 L 95.0 351.6 " fill="#000000"/>
<path class="atom-41" d="M 108.3 343.3 Q 109.0 341.6, 110.5 340.7 Q 112.1 339.7, 114.2 339.7 Q 116.9 339.7, 118.4 341.2 Q 119.9 342.6, 119.9 345.2 Q 119.9 347.8, 118.0 350.3 Q 116.0 352.7, 112.0 355.6 L 120.2 355.6 L 120.2 357.6 L 108.3 357.6 L 108.3 356.0 Q 111.6 353.6, 113.5 351.9 Q 115.5 350.1, 116.5 348.5 Q 117.4 347.0, 117.4 345.3 Q 117.4 343.6, 116.6 342.7 Q 115.7 341.7, 114.2 341.7 Q 112.8 341.7, 111.9 342.3 Q 110.9 342.9, 110.2 344.2 L 108.3 343.3 " fill="#000000"/>
<text x="1000" y="50" font-size="8" font-family="Verdana" font-weight="normal" letter-spacing="0" text-anchor="start" fill="black">Highlighted Atoms:
Primary SOM: Red
Secondary SOM: Green
Tertiary SOM: Cyan
</text></svg>
