<?xml version='1.0' encoding='ASCII' standalone='yes'?>
<svg xmlns="http://www.w3.org/2000/svg" xmlns:rdkit="http://www.rdkit.org/xml" xmlns:xlink="http://www.w3.org/1999/xlink" style="background-color: white;" version="1.1" baseProfile="full" xml:space="preserve" width="1000px" height="1000px" viewBox="0 0 1000 1000">
<!-- END OF HEADER -->
<rect style="opacity:1.0;fill:#FFFFFF;stroke:none" width="1000.0" height="1000.0" x="0.0" y="0.0"> </rect>
<ellipse cx="385.8" cy="623.4" rx="24.7" ry="24.7" class="atom-7" style="fill:#B20000;fill-rule:evenodd;stroke:#B20000;stroke-width:1.0px;stroke-linecap:butt;stroke-linejoin:miter;stroke-opacity:1"/>
<path class="bond-0 atom-1 atom-0" d="M 297.9,591.7 L 259.2,613.9" style="fill:none;fill-rule:evenodd;stroke:#000000;stroke-width:2.0px;stroke-linecap:butt;stroke-linejoin:miter;stroke-opacity:1"/>
<path class="bond-1 atom-2 atom-0" d="M 243.2,693.7 L 243.3,635.0" style="fill:none;fill-rule:evenodd;stroke:#000000;stroke-width:2.0px;stroke-linecap:butt;stroke-linejoin:miter;stroke-opacity:1"/>
<path class="bond-1 atom-2 atom-0" d="M 230.9,693.7 L 230.9,635.0" style="fill:none;fill-rule:evenodd;stroke:#000000;stroke-width:2.0px;stroke-linecap:butt;stroke-linejoin:miter;stroke-opacity:1"/>
<path class="bond-2 atom-3 atom-2" d="M 189.4,736.4 L 233.7,710.9" style="fill:none;fill-rule:evenodd;stroke:#000000;stroke-width:2.0px;stroke-linecap:butt;stroke-linejoin:miter;stroke-opacity:1"/>
<path class="bond-3 atom-4 atom-3" d="M 109.4,710.3 L 154.4,736.3" style="fill:none;fill-rule:evenodd;stroke:#000000;stroke-width:2.0px;stroke-linecap:butt;stroke-linejoin:miter;stroke-opacity:1"/>
<path class="bond-3 atom-4 atom-3" d="M 115.6,699.7 L 160.6,725.7" style="fill:none;fill-rule:evenodd;stroke:#000000;stroke-width:2.0px;stroke-linecap:butt;stroke-linejoin:miter;stroke-opacity:1"/>
<path class="bond-4 atom-5 atom-4" d="M 100.8,634.9 L 100.7,693.8" style="fill:none;fill-rule:evenodd;stroke:#000000;stroke-width:2.0px;stroke-linecap:butt;stroke-linejoin:miter;stroke-opacity:1"/>
<path class="bond-5 atom-6 atom-0" d="M 188.6,591.5 L 227.3,613.9" style="fill:none;fill-rule:evenodd;stroke:#000000;stroke-width:2.0px;stroke-linecap:butt;stroke-linejoin:miter;stroke-opacity:1"/>
<path class="bond-6 atom-6 atom-5" d="M 155.5,591.5 L 109.6,617.9" style="fill:none;fill-rule:evenodd;stroke:#000000;stroke-width:2.0px;stroke-linecap:butt;stroke-linejoin:miter;stroke-opacity:1"/>
<path class="bond-6 atom-6 atom-5" d="M 161.7,602.2 L 115.8,628.6" style="fill:none;fill-rule:evenodd;stroke:#000000;stroke-width:2.0px;stroke-linecap:butt;stroke-linejoin:miter;stroke-opacity:1"/>
<path class="bond-7 atom-7 atom-1" d="M 368.8,613.5 L 331.2,591.7" style="fill:none;fill-rule:evenodd;stroke:#000000;stroke-width:2.0px;stroke-linecap:butt;stroke-linejoin:miter;stroke-opacity:1"/>
<path class="bond-8 atom-8 atom-7" d="M 439.8,592.1 L 421.3,602.8" style="fill:none;fill-rule:evenodd;stroke:#0000FF;stroke-width:2.0px;stroke-linecap:butt;stroke-linejoin:miter;stroke-opacity:1"/>
<path class="bond-8 atom-8 atom-7" d="M 421.3,602.8 L 402.7,613.5" style="fill:none;fill-rule:evenodd;stroke:#000000;stroke-width:2.0px;stroke-linecap:butt;stroke-linejoin:miter;stroke-opacity:1"/>
<path class="bond-9 atom-9 atom-8" d="M 508.1,611.7 L 491.2,601.9" style="fill:none;fill-rule:evenodd;stroke:#000000;stroke-width:2.0px;stroke-linecap:butt;stroke-linejoin:miter;stroke-opacity:1"/>
<path class="bond-9 atom-9 atom-8" d="M 491.2,601.9 L 474.3,592.2" style="fill:none;fill-rule:evenodd;stroke:#0000FF;stroke-width:2.0px;stroke-linecap:butt;stroke-linejoin:miter;stroke-opacity:1"/>
<path class="bond-10 atom-10 atom-9" d="M 590.0,587.8 L 548.5,611.7" style="fill:none;fill-rule:evenodd;stroke:#000000;stroke-width:2.0px;stroke-linecap:butt;stroke-linejoin:miter;stroke-opacity:1"/>
<path class="bond-11 atom-11 atom-10" d="M 599.6,511.7 L 599.6,570.6" style="fill:none;fill-rule:evenodd;stroke:#000000;stroke-width:2.0px;stroke-linecap:butt;stroke-linejoin:miter;stroke-opacity:1"/>
<path class="bond-12 atom-12 atom-11" d="M 650.7,470.6 L 635.3,479.5" style="fill:none;fill-rule:evenodd;stroke:#0000FF;stroke-width:2.0px;stroke-linecap:butt;stroke-linejoin:miter;stroke-opacity:1"/>
<path class="bond-12 atom-12 atom-11" d="M 635.3,479.5 L 619.9,488.3" style="fill:none;fill-rule:evenodd;stroke:#000000;stroke-width:2.0px;stroke-linecap:butt;stroke-linejoin:miter;stroke-opacity:1"/>
<path class="bond-13 atom-13 atom-11" d="M 548.6,470.5 L 579.4,488.3" style="fill:none;fill-rule:evenodd;stroke:#000000;stroke-width:2.0px;stroke-linecap:butt;stroke-linejoin:miter;stroke-opacity:1"/>
<path class="bond-14 atom-14 atom-8" d="M 457.1,511.8 L 457.1,541.1" style="fill:none;fill-rule:evenodd;stroke:#000000;stroke-width:2.0px;stroke-linecap:butt;stroke-linejoin:miter;stroke-opacity:1"/>
<path class="bond-14 atom-14 atom-8" d="M 457.1,541.1 L 457.1,570.5" style="fill:none;fill-rule:evenodd;stroke:#0000FF;stroke-width:2.0px;stroke-linecap:butt;stroke-linejoin:miter;stroke-opacity:1"/>
<path class="bond-15 atom-14 atom-13" d="M 465.8,494.9 L 507.8,470.7" style="fill:none;fill-rule:evenodd;stroke:#000000;stroke-width:2.0px;stroke-linecap:butt;stroke-linejoin:miter;stroke-opacity:1"/>
<path class="bond-16 atom-15 atom-12" d="M 721.9,488.5 L 706.7,479.6" style="fill:none;fill-rule:evenodd;stroke:#000000;stroke-width:2.0px;stroke-linecap:butt;stroke-linejoin:miter;stroke-opacity:1"/>
<path class="bond-16 atom-15 atom-12" d="M 706.7,479.6 L 691.5,470.8" style="fill:none;fill-rule:evenodd;stroke:#0000FF;stroke-width:2.0px;stroke-linecap:butt;stroke-linejoin:miter;stroke-opacity:1"/>
<path class="bond-17 atom-16 atom-12" d="M 671.0,388.3 L 670.9,417.8" style="fill:none;fill-rule:evenodd;stroke:#000000;stroke-width:2.0px;stroke-linecap:butt;stroke-linejoin:miter;stroke-opacity:1"/>
<path class="bond-17 atom-16 atom-12" d="M 670.9,417.8 L 670.9,447.4" style="fill:none;fill-rule:evenodd;stroke:#0000FF;stroke-width:2.0px;stroke-linecap:butt;stroke-linejoin:miter;stroke-opacity:1"/>
<path class="bond-18 atom-17 atom-15" d="M 792.8,470.9 L 762.4,488.5" style="fill:none;fill-rule:evenodd;stroke:#000000;stroke-width:2.0px;stroke-linecap:butt;stroke-linejoin:miter;stroke-opacity:1"/>
<path class="bond-18 atom-17 atom-15" d="M 798.9,481.6 L 768.5,499.1" style="fill:none;fill-rule:evenodd;stroke:#000000;stroke-width:2.0px;stroke-linecap:butt;stroke-linejoin:miter;stroke-opacity:1"/>
<path class="bond-19 atom-18 atom-17" d="M 875.1,494.7 L 834.0,471.0" style="fill:none;fill-rule:evenodd;stroke:#000000;stroke-width:2.0px;stroke-linecap:butt;stroke-linejoin:miter;stroke-opacity:1"/>
<path class="bond-20 atom-19 atom-18" d="M 884.6,570.8 L 884.6,512.1" style="fill:none;fill-rule:evenodd;stroke:#000000;stroke-width:2.0px;stroke-linecap:butt;stroke-linejoin:miter;stroke-opacity:1"/>
<path class="bond-20 atom-19 atom-18" d="M 872.2,570.8 L 872.3,512.1" style="fill:none;fill-rule:evenodd;stroke:#000000;stroke-width:2.0px;stroke-linecap:butt;stroke-linejoin:miter;stroke-opacity:1"/>
<path class="bond-21 atom-20 atom-19" d="M 833.3,612.0 L 875.0,588.0" style="fill:none;fill-rule:evenodd;stroke:#000000;stroke-width:2.0px;stroke-linecap:butt;stroke-linejoin:miter;stroke-opacity:1"/>
<path class="bond-22 atom-21 atom-15" d="M 742.1,570.7 L 742.1,511.8" style="fill:none;fill-rule:evenodd;stroke:#000000;stroke-width:2.0px;stroke-linecap:butt;stroke-linejoin:miter;stroke-opacity:1"/>
<path class="bond-23 atom-21 atom-20" d="M 750.7,587.4 L 793.1,611.9" style="fill:none;fill-rule:evenodd;stroke:#000000;stroke-width:2.0px;stroke-linecap:butt;stroke-linejoin:miter;stroke-opacity:1"/>
<path class="bond-23 atom-21 atom-20" d="M 756.9,576.7 L 799.3,601.2" style="fill:none;fill-rule:evenodd;stroke:#000000;stroke-width:2.0px;stroke-linecap:butt;stroke-linejoin:miter;stroke-opacity:1"/>
<path class="bond-24 atom-22 atom-16" d="M 611.5,335.1 L 632.7,347.4" style="fill:none;fill-rule:evenodd;stroke:#FF0000;stroke-width:2.0px;stroke-linecap:butt;stroke-linejoin:miter;stroke-opacity:1"/>
<path class="bond-24 atom-22 atom-16" d="M 632.7,347.4 L 653.9,359.6" style="fill:none;fill-rule:evenodd;stroke:#000000;stroke-width:2.0px;stroke-linecap:butt;stroke-linejoin:miter;stroke-opacity:1"/>
<path class="bond-24 atom-22 atom-16" d="M 605.3,345.8 L 626.5,358.1" style="fill:none;fill-rule:evenodd;stroke:#FF0000;stroke-width:2.0px;stroke-linecap:butt;stroke-linejoin:miter;stroke-opacity:1"/>
<path class="bond-24 atom-22 atom-16" d="M 626.5,358.1 L 647.7,370.3" style="fill:none;fill-rule:evenodd;stroke:#000000;stroke-width:2.0px;stroke-linecap:butt;stroke-linejoin:miter;stroke-opacity:1"/>
<path class="bond-25 atom-23 atom-16" d="M 732.7,341.1 L 690.9,365.2" style="fill:none;fill-rule:evenodd;stroke:#000000;stroke-width:2.0px;stroke-linecap:butt;stroke-linejoin:miter;stroke-opacity:1"/>
<path class="bond-26 atom-24 atom-23" d="M 742.3,265.2 L 742.3,323.9" style="fill:none;fill-rule:evenodd;stroke:#000000;stroke-width:2.0px;stroke-linecap:butt;stroke-linejoin:miter;stroke-opacity:1"/>
<path class="atom-0" d="M 230.0 623.2 Q 230.0 618.8, 232.0 616.5 Q 234.1 614.2, 238.0 614.2 Q 241.7 614.2, 243.6 616.8 L 242.0 618.1 Q 240.6 616.2, 238.0 616.2 Q 235.4 616.2, 233.9 618.0 Q 232.5 619.8, 232.5 623.2 Q 232.5 626.7, 234.0 628.5 Q 235.5 630.3, 238.3 630.3 Q 240.3 630.3, 242.5 629.1 L 243.2 631.0 Q 242.3 631.6, 240.9 632.0 Q 239.5 632.3, 238.0 632.3 Q 234.1 632.3, 232.0 630.0 Q 230.0 627.6, 230.0 623.2 " fill="#000000"/>
<path class="atom-0" d="M 246.8 630.1 L 250.7 630.1 L 250.7 616.9 L 246.4 618.2 L 245.9 616.7 L 251.3 614.3 L 253.1 614.6 L 253.1 630.1 L 256.5 630.1 L 256.5 632.1 L 246.8 632.1 L 246.8 630.1 " fill="#000000"/>
<path class="atom-1" d="M 300.6 582.1 Q 300.6 577.7, 302.7 575.4 Q 304.7 573.1, 308.7 573.1 Q 312.3 573.1, 314.3 575.7 L 312.6 577.0 Q 311.2 575.2, 308.7 575.2 Q 306.0 575.2, 304.6 577.0 Q 303.2 578.7, 303.2 582.1 Q 303.2 585.6, 304.6 587.4 Q 306.1 589.2, 308.9 589.2 Q 310.9 589.2, 313.2 588.1 L 313.9 589.9 Q 312.9 590.5, 311.5 590.9 Q 310.1 591.2, 308.6 591.2 Q 304.7 591.2, 302.7 588.9 Q 300.6 586.5, 300.6 582.1 " fill="#000000"/>
<path class="atom-1" d="M 316.6 576.7 Q 317.2 575.0, 318.8 574.1 Q 320.3 573.1, 322.5 573.1 Q 325.2 573.1, 326.7 574.6 Q 328.2 576.0, 328.2 578.6 Q 328.2 581.2, 326.2 583.7 Q 324.3 586.1, 320.3 589.0 L 328.5 589.0 L 328.5 591.0 L 316.5 591.0 L 316.5 589.3 Q 319.8 587.0, 321.8 585.2 Q 323.8 583.5, 324.7 581.9 Q 325.7 580.3, 325.7 578.7 Q 325.7 577.0, 324.8 576.1 Q 324.0 575.1, 322.5 575.1 Q 321.1 575.1, 320.1 575.7 Q 319.2 576.3, 318.5 577.5 L 316.6 576.7 " fill="#000000"/>
<path class="atom-2" d="M 236.4 705.5 Q 236.4 701.1, 238.4 698.8 Q 240.5 696.5, 244.4 696.5 Q 248.1 696.5, 250.0 699.0 L 248.4 700.4 Q 246.9 698.5, 244.4 698.5 Q 241.7 698.5, 240.3 700.3 Q 238.9 702.1, 238.9 705.5 Q 238.9 709.0, 240.4 710.8 Q 241.8 712.6, 244.7 712.6 Q 246.6 712.6, 248.9 711.4 L 249.6 713.3 Q 248.7 713.9, 247.3 714.2 Q 245.9 714.6, 244.3 714.6 Q 240.5 714.6, 238.4 712.2 Q 236.4 709.9, 236.4 705.5 " fill="#000000"/>
<path class="atom-2" d="M 260.8 705.0 Q 262.5 705.5, 263.4 706.7 Q 264.2 707.8, 264.2 709.5 Q 264.2 711.0, 263.5 712.2 Q 262.7 713.3, 261.3 714.0 Q 260.0 714.6, 258.2 714.6 Q 256.3 714.6, 254.8 714.0 Q 253.4 713.3, 252.3 711.9 L 253.7 710.5 Q 254.8 711.7, 255.8 712.2 Q 256.7 712.6, 258.2 712.6 Q 259.8 712.6, 260.7 711.8 Q 261.7 710.9, 261.7 709.5 Q 261.7 707.7, 260.7 706.9 Q 259.7 706.1, 257.5 706.1 L 256.2 706.1 L 256.2 704.3 L 257.4 704.3 Q 259.3 704.2, 260.3 703.4 Q 261.3 702.6, 261.3 701.0 Q 261.3 699.8, 260.5 699.2 Q 259.6 698.5, 258.2 698.5 Q 256.7 698.5, 255.8 699.0 Q 254.9 699.5, 254.2 700.8 L 252.5 699.9 Q 253.1 698.4, 254.6 697.5 Q 256.1 696.5, 258.2 696.5 Q 260.8 696.5, 262.3 697.7 Q 263.8 698.9, 263.8 701.0 Q 263.8 702.4, 263.1 703.4 Q 262.3 704.5, 260.8 705.0 " fill="#000000"/>
<path class="atom-3" d="M 157.1 746.6 Q 157.1 742.2, 159.1 739.9 Q 161.2 737.5, 165.1 737.5 Q 168.8 737.5, 170.7 740.1 L 169.1 741.5 Q 167.7 739.6, 165.1 739.6 Q 162.5 739.6, 161.0 741.4 Q 159.6 743.2, 159.6 746.6 Q 159.6 750.1, 161.1 751.9 Q 162.6 753.7, 165.4 753.7 Q 167.4 753.7, 169.6 752.5 L 170.3 754.4 Q 169.4 755.0, 168.0 755.3 Q 166.6 755.7, 165.1 755.7 Q 161.2 755.7, 159.1 753.3 Q 157.1 751.0, 157.1 746.6 " fill="#000000"/>
<path class="atom-3" d="M 184.6 749.4 L 186.7 749.4 L 186.7 751.4 L 184.6 751.4 L 184.6 755.4 L 182.3 755.4 L 182.3 751.4 L 173.1 751.4 L 173.1 749.8 L 180.9 737.7 L 184.6 737.7 L 184.6 749.4 M 176.0 749.4 L 182.3 749.4 L 182.3 739.3 L 176.0 749.4 " fill="#000000"/>
<path class="atom-4" d="M 78.8 705.4 Q 78.8 701.0, 80.8 698.7 Q 82.9 696.4, 86.8 696.4 Q 90.5 696.4, 92.4 698.9 L 90.8 700.3 Q 89.4 698.4, 86.8 698.4 Q 84.2 698.4, 82.7 700.2 Q 81.3 702.0, 81.3 705.4 Q 81.3 708.9, 82.8 710.7 Q 84.3 712.5, 87.1 712.5 Q 89.1 712.5, 91.3 711.3 L 92.0 713.2 Q 91.1 713.8, 89.7 714.1 Q 88.3 714.5, 86.8 714.5 Q 82.9 714.5, 80.8 712.1 Q 78.8 709.8, 78.8 705.4 " fill="#000000"/>
<path class="atom-4" d="M 101.1 703.2 Q 102.7 703.2, 104.0 703.9 Q 105.2 704.5, 106.0 705.8 Q 106.7 707.0, 106.7 708.7 Q 106.7 710.5, 105.8 711.8 Q 104.9 713.1, 103.5 713.8 Q 102.0 714.5, 100.4 714.5 Q 98.7 714.5, 97.2 713.9 Q 95.7 713.3, 94.7 712.1 L 96.2 710.6 Q 97.0 711.5, 98.2 712.0 Q 99.3 712.4, 100.4 712.4 Q 102.0 712.4, 103.1 711.5 Q 104.2 710.5, 104.2 708.7 Q 104.2 706.8, 103.1 706.0 Q 102.0 705.1, 100.3 705.1 Q 98.7 705.1, 97.0 705.7 L 95.6 705.1 L 96.5 696.6 L 105.6 696.6 L 105.3 698.6 L 98.5 698.6 L 98.0 703.8 Q 99.6 703.2, 101.1 703.2 " fill="#000000"/>
<path class="atom-5" d="M 78.7 623.1 Q 78.7 618.7, 80.7 616.4 Q 82.8 614.1, 86.7 614.1 Q 90.4 614.1, 92.3 616.6 L 90.7 618.0 Q 89.3 616.1, 86.7 616.1 Q 84.1 616.1, 82.6 617.9 Q 81.2 619.7, 81.2 623.1 Q 81.2 626.6, 82.7 628.4 Q 84.2 630.2, 87.0 630.2 Q 89.0 630.2, 91.2 629.0 L 91.9 630.9 Q 91.0 631.5, 89.6 631.8 Q 88.2 632.2, 86.7 632.2 Q 82.8 632.2, 80.7 629.8 Q 78.7 627.5, 78.7 623.1 " fill="#000000"/>
<path class="atom-5" d="M 101.6 620.9 Q 103.1 620.9, 104.3 621.6 Q 105.6 622.3, 106.2 623.5 Q 106.9 624.7, 106.9 626.3 Q 106.9 628.0, 106.1 629.3 Q 105.4 630.7, 104.0 631.4 Q 102.7 632.2, 101.0 632.2 Q 97.8 632.2, 96.2 630.0 Q 94.6 627.9, 94.6 623.6 Q 94.6 618.9, 96.6 616.5 Q 98.6 614.1, 102.3 614.1 Q 103.4 614.1, 104.4 614.3 Q 105.3 614.6, 106.2 615.1 L 105.2 616.8 Q 103.9 616.1, 102.4 616.1 Q 99.9 616.1, 98.6 617.7 Q 97.3 619.3, 97.2 622.6 Q 98.1 621.8, 99.2 621.4 Q 100.3 620.9, 101.6 620.9 M 101.0 630.1 Q 101.9 630.1, 102.7 629.6 Q 103.5 629.1, 104.0 628.2 Q 104.4 627.4, 104.4 626.3 Q 104.4 624.7, 103.5 623.8 Q 102.7 622.9, 101.1 622.9 Q 100.0 622.9, 99.0 623.4 Q 97.9 623.8, 97.2 624.5 Q 97.3 627.5, 98.2 628.8 Q 99.1 630.1, 101.0 630.1 " fill="#000000"/>
<path class="atom-6" d="M 158.2 582.0 Q 158.2 577.6, 160.3 575.3 Q 162.3 573.0, 166.3 573.0 Q 169.9 573.0, 171.9 575.6 L 170.2 576.9 Q 168.8 575.0, 166.3 575.0 Q 163.6 575.0, 162.2 576.8 Q 160.8 578.6, 160.8 582.0 Q 160.8 585.5, 162.2 587.3 Q 163.7 589.1, 166.5 589.1 Q 168.5 589.1, 170.8 587.9 L 171.5 589.8 Q 170.5 590.4, 169.1 590.8 Q 167.7 591.1, 166.2 591.1 Q 162.3 591.1, 160.3 588.8 Q 158.2 586.4, 158.2 582.0 " fill="#000000"/>
<path class="atom-6" d="M 183.4 575.2 L 174.1 575.2 L 174.1 573.2 L 185.9 573.2 L 185.9 575.0 L 178.7 590.9 L 176.3 590.9 L 183.4 575.2 " fill="#000000"/>
<path class="atom-7" d="M 371.5 623.3 Q 371.5 618.9, 373.6 616.6 Q 375.7 614.3, 379.6 614.3 Q 383.2 614.3, 385.2 616.9 L 383.5 618.2 Q 382.1 616.4, 379.6 616.4 Q 376.9 616.4, 375.5 618.2 Q 374.1 619.9, 374.1 623.3 Q 374.1 626.8, 375.5 628.6 Q 377.0 630.4, 379.9 630.4 Q 381.8 630.4, 384.1 629.3 L 384.8 631.1 Q 383.9 631.7, 382.5 632.1 Q 381.1 632.4, 379.5 632.4 Q 375.7 632.4, 373.6 630.1 Q 371.5 627.7, 371.5 623.3 " fill="#000000"/>
<path class="atom-7" d="M 396.5 622.8 Q 398.1 623.5, 399.1 624.6 Q 400.0 625.6, 400.0 627.4 Q 400.0 628.9, 399.2 630.0 Q 398.4 631.2, 397.0 631.8 Q 395.7 632.5, 393.8 632.5 Q 390.9 632.5, 389.2 631.1 Q 387.5 629.7, 387.5 627.4 Q 387.5 625.9, 388.2 624.8 Q 389.0 623.7, 390.5 622.9 Q 389.4 622.3, 388.8 621.3 Q 388.1 620.3, 388.1 618.8 Q 388.1 616.8, 389.6 615.5 Q 391.2 614.3, 393.7 614.3 Q 396.3 614.3, 397.8 615.5 Q 399.3 616.8, 399.3 618.8 Q 399.3 620.1, 398.6 621.1 Q 397.9 622.1, 396.5 622.8 M 393.7 616.2 Q 392.3 616.2, 391.4 616.9 Q 390.6 617.6, 390.6 618.8 Q 390.6 619.8, 391.2 620.4 Q 391.7 621.0, 392.5 621.3 Q 393.3 621.7, 394.8 622.2 Q 395.9 621.5, 396.4 620.7 Q 396.8 619.9, 396.8 618.8 Q 396.8 617.6, 396.0 616.9 Q 395.2 616.2, 393.7 616.2 M 393.8 630.6 Q 395.5 630.6, 396.5 629.7 Q 397.5 628.8, 397.5 627.3 Q 397.5 626.4, 397.0 625.8 Q 396.4 625.2, 395.6 624.8 Q 394.9 624.5, 393.5 624.0 L 392.3 623.7 Q 391.1 624.4, 390.5 625.3 Q 390.0 626.2, 390.0 627.3 Q 390.0 628.8, 391.0 629.7 Q 392.1 630.6, 393.8 630.6 " fill="#000000"/>
<path class="atom-8" d="M 445.3 573.4 L 451.1 582.8 Q 451.7 583.7, 452.6 585.4 Q 453.5 587.1, 453.6 587.2 L 453.6 573.4 L 455.9 573.4 L 455.9 591.1 L 453.5 591.1 L 447.3 580.9 Q 446.6 579.7, 445.8 578.3 Q 445.0 576.9, 444.8 576.5 L 444.8 591.1 L 442.5 591.1 L 442.5 573.4 L 445.3 573.4 " fill="#0000FF"/>
<path class="atom-8" d="M 465.3 573.2 Q 468.4 573.2, 470.0 575.4 Q 471.6 577.5, 471.6 581.8 Q 471.6 586.5, 469.6 588.9 Q 467.7 591.3, 463.9 591.3 Q 462.8 591.3, 461.8 591.1 Q 460.9 590.8, 460.0 590.3 L 461.0 588.6 Q 462.3 589.3, 463.9 589.3 Q 466.4 589.3, 467.6 587.7 Q 468.9 586.1, 469.1 582.8 Q 468.2 583.6, 467.0 584.1 Q 465.9 584.5, 464.7 584.5 Q 463.1 584.5, 461.9 583.8 Q 460.7 583.1, 460.0 581.9 Q 459.3 580.7, 459.3 579.1 Q 459.3 577.4, 460.1 576.1 Q 460.8 574.7, 462.2 574.0 Q 463.5 573.2, 465.3 573.2 M 461.8 579.1 Q 461.8 580.7, 462.7 581.6 Q 463.6 582.5, 465.1 582.5 Q 466.2 582.5, 467.2 582.1 Q 468.3 581.6, 469.1 580.9 Q 469.0 577.9, 468.0 576.6 Q 467.1 575.3, 465.2 575.3 Q 464.3 575.3, 463.5 575.8 Q 462.7 576.3, 462.3 577.2 Q 461.8 578.0, 461.8 579.1 " fill="#0000FF"/>
<path class="atom-9" d="M 507.4 623.4 Q 507.4 619.0, 509.4 616.7 Q 511.5 614.4, 515.4 614.4 Q 519.1 614.4, 521.0 617.0 L 519.4 618.3 Q 517.9 616.5, 515.4 616.5 Q 512.7 616.5, 511.3 618.3 Q 509.9 620.0, 509.9 623.4 Q 509.9 626.9, 511.4 628.7 Q 512.8 630.5, 515.7 630.5 Q 517.6 630.5, 519.9 629.4 L 520.6 631.2 Q 519.7 631.8, 518.3 632.2 Q 516.9 632.5, 515.3 632.5 Q 511.5 632.5, 509.4 630.2 Q 507.4 627.8, 507.4 623.4 " fill="#000000"/>
<path class="atom-9" d="M 524.2 630.3 L 528.1 630.3 L 528.1 617.1 L 523.8 618.4 L 523.3 616.9 L 528.7 614.5 L 530.5 614.8 L 530.5 630.3 L 533.9 630.3 L 533.9 632.3 L 524.2 632.3 L 524.2 630.3 " fill="#000000"/>
<path class="atom-9" d="M 542.7 632.5 Q 539.4 632.5, 537.8 630.1 Q 536.2 627.7, 536.2 623.4 Q 536.2 619.2, 537.8 616.8 Q 539.4 614.4, 542.7 614.4 Q 546.0 614.4, 547.6 616.8 Q 549.2 619.2, 549.2 623.4 Q 549.2 627.7, 547.5 630.1 Q 545.9 632.5, 542.7 632.5 M 542.7 630.5 Q 544.6 630.5, 545.6 628.7 Q 546.7 626.9, 546.7 623.4 Q 546.7 620.0, 545.6 618.2 Q 544.6 616.4, 542.7 616.4 Q 540.8 616.4, 539.7 618.2 Q 538.7 620.0, 538.7 623.4 Q 538.7 626.9, 539.7 628.7 Q 540.8 630.5, 542.7 630.5 " fill="#000000"/>
<path class="atom-10" d="M 592.7 582.4 Q 592.7 578.0, 594.8 575.7 Q 596.9 573.3, 600.8 573.3 Q 604.4 573.3, 606.4 575.9 L 604.7 577.3 Q 603.3 575.4, 600.8 575.4 Q 598.1 575.4, 596.7 577.2 Q 595.3 579.0, 595.3 582.4 Q 595.3 585.9, 596.7 587.7 Q 598.2 589.5, 601.1 589.5 Q 603.0 589.5, 605.3 588.3 L 606.0 590.2 Q 605.1 590.8, 603.7 591.1 Q 602.3 591.5, 600.7 591.5 Q 596.9 591.5, 594.8 589.1 Q 592.7 586.8, 592.7 582.4 " fill="#000000"/>
<path class="atom-10" d="M 609.5 589.2 L 613.4 589.2 L 613.4 576.0 L 609.1 577.3 L 608.5 575.9 L 614.0 573.4 L 615.7 573.7 L 615.7 589.2 L 619.2 589.2 L 619.2 591.2 L 609.5 591.2 L 609.5 589.2 " fill="#000000"/>
<path class="atom-10" d="M 622.4 589.2 L 626.3 589.2 L 626.3 576.0 L 622.0 577.3 L 621.4 575.9 L 626.9 573.4 L 628.6 573.7 L 628.6 589.2 L 632.1 589.2 L 632.1 591.2 L 622.4 591.2 L 622.4 589.2 " fill="#000000"/>
<path class="atom-11" d="M 579.3 500.1 Q 579.3 495.7, 581.3 493.4 Q 583.4 491.1, 587.3 491.1 Q 591.0 491.1, 592.9 493.6 L 591.3 495.0 Q 589.8 493.1, 587.3 493.1 Q 584.6 493.1, 583.2 494.9 Q 581.8 496.7, 581.8 500.1 Q 581.8 503.6, 583.3 505.4 Q 584.7 507.2, 587.6 507.2 Q 589.5 507.2, 591.8 506.0 L 592.5 507.9 Q 591.6 508.5, 590.2 508.8 Q 588.8 509.2, 587.2 509.2 Q 583.4 509.2, 581.3 506.8 Q 579.3 504.5, 579.3 500.1 " fill="#000000"/>
<path class="atom-11" d="M 596.1 507.0 L 600.0 507.0 L 600.0 493.7 L 595.7 495.1 L 595.1 493.6 L 600.5 491.2 L 602.3 491.5 L 602.3 507.0 L 605.8 507.0 L 605.8 509.0 L 596.1 509.0 L 596.1 507.0 " fill="#000000"/>
<path class="atom-11" d="M 608.1 494.6 Q 608.7 492.9, 610.3 492.0 Q 611.8 491.1, 614.0 491.1 Q 616.7 491.1, 618.2 492.5 Q 619.7 494.0, 619.7 496.5 Q 619.7 499.2, 617.7 501.6 Q 615.8 504.1, 611.8 507.0 L 620.0 507.0 L 620.0 509.0 L 608.0 509.0 L 608.0 507.3 Q 611.3 504.9, 613.3 503.2 Q 615.3 501.4, 616.2 499.9 Q 617.2 498.3, 617.2 496.7 Q 617.2 495.0, 616.3 494.0 Q 615.5 493.1, 614.0 493.1 Q 612.6 493.1, 611.6 493.6 Q 610.7 494.2, 610.0 495.5 L 608.1 494.6 " fill="#000000"/>
<path class="atom-12" d="M 652.9 450.2 L 658.7 459.6 Q 659.3 460.5, 660.2 462.2 Q 661.2 463.8, 661.2 463.9 L 661.2 450.2 L 663.6 450.2 L 663.6 467.9 L 661.1 467.9 L 654.9 457.6 Q 654.2 456.4, 653.4 455.1 Q 652.7 453.7, 652.4 453.3 L 652.4 467.9 L 650.1 467.9 L 650.1 450.2 L 652.9 450.2 " fill="#0000FF"/>
<path class="atom-12" d="M 667.8 465.9 L 671.7 465.9 L 671.7 452.7 L 667.4 454.0 L 666.8 452.5 L 672.3 450.1 L 674.0 450.4 L 674.0 465.9 L 677.5 465.9 L 677.5 467.9 L 667.8 467.9 L 667.8 465.9 " fill="#0000FF"/>
<path class="atom-12" d="M 688.3 458.6 Q 690.0 459.1, 690.8 460.2 Q 691.7 461.3, 691.7 463.0 Q 691.7 464.5, 690.9 465.7 Q 690.2 466.9, 688.8 467.5 Q 687.4 468.1, 685.6 468.1 Q 683.7 468.1, 682.3 467.5 Q 680.9 466.8, 679.8 465.5 L 681.2 464.0 Q 682.3 465.2, 683.2 465.7 Q 684.1 466.1, 685.6 466.1 Q 687.2 466.1, 688.2 465.3 Q 689.2 464.4, 689.2 463.0 Q 689.2 461.2, 688.1 460.4 Q 687.1 459.6, 685.0 459.6 L 683.7 459.6 L 683.7 457.8 L 684.8 457.8 Q 686.7 457.8, 687.8 456.9 Q 688.8 456.1, 688.8 454.5 Q 688.8 453.4, 687.9 452.7 Q 687.1 452.0, 685.6 452.0 Q 684.2 452.0, 683.2 452.5 Q 682.3 453.0, 681.6 454.4 L 679.9 453.4 Q 680.5 452.0, 682.0 451.0 Q 683.5 450.0, 685.6 450.0 Q 688.2 450.0, 689.8 451.2 Q 691.3 452.4, 691.3 454.5 Q 691.3 455.9, 690.5 457.0 Q 689.7 458.0, 688.3 458.6 " fill="#0000FF"/>
<path class="atom-13" d="M 507.1 458.9 Q 507.1 454.5, 509.2 452.2 Q 511.3 449.9, 515.2 449.9 Q 518.8 449.9, 520.8 452.4 L 519.1 453.8 Q 517.7 451.9, 515.2 451.9 Q 512.5 451.9, 511.1 453.7 Q 509.7 455.5, 509.7 458.9 Q 509.7 462.4, 511.1 464.2 Q 512.6 466.0, 515.5 466.0 Q 517.4 466.0, 519.7 464.8 L 520.4 466.7 Q 519.5 467.3, 518.1 467.6 Q 516.7 468.0, 515.1 468.0 Q 511.3 468.0, 509.2 465.6 Q 507.1 463.3, 507.1 458.9 " fill="#000000"/>
<path class="atom-13" d="M 524.0 465.8 L 527.9 465.8 L 527.9 452.5 L 523.6 453.9 L 523.0 452.4 L 528.5 450.0 L 530.2 450.3 L 530.2 465.8 L 533.7 465.8 L 533.7 467.8 L 524.0 467.8 L 524.0 465.8 " fill="#000000"/>
<path class="atom-13" d="M 547.5 461.7 L 549.7 461.7 L 549.7 463.7 L 547.5 463.7 L 547.5 467.8 L 545.2 467.8 L 545.2 463.7 L 536.0 463.7 L 536.0 462.1 L 543.8 450.1 L 547.5 450.1 L 547.5 461.7 M 538.9 461.7 L 545.2 461.7 L 545.2 451.7 L 538.9 461.7 " fill="#000000"/>
<path class="atom-14" d="M 422.3 500.0 Q 422.3 495.6, 424.4 493.3 Q 426.5 490.9, 430.4 490.9 Q 434.0 490.9, 436.0 493.5 L 434.3 494.9 Q 432.9 493.0, 430.4 493.0 Q 427.7 493.0, 426.3 494.8 Q 424.9 496.6, 424.9 500.0 Q 424.9 503.5, 426.3 505.3 Q 427.8 507.1, 430.7 507.1 Q 432.6 507.1, 434.9 505.9 L 435.6 507.8 Q 434.7 508.4, 433.3 508.7 Q 431.9 509.1, 430.3 509.1 Q 426.5 509.1, 424.4 506.7 Q 422.3 504.4, 422.3 500.0 " fill="#000000"/>
<path class="atom-14" d="M 439.2 506.8 L 443.0 506.8 L 443.0 493.6 L 438.8 494.9 L 438.2 493.5 L 443.6 491.0 L 445.4 491.3 L 445.4 506.8 L 448.9 506.8 L 448.9 508.8 L 439.2 508.8 L 439.2 506.8 " fill="#000000"/>
<path class="atom-14" d="M 457.6 497.8 Q 459.1 497.8, 460.4 498.4 Q 461.7 499.1, 462.4 500.3 Q 463.1 501.6, 463.1 503.2 Q 463.1 505.1, 462.2 506.4 Q 461.3 507.7, 459.9 508.4 Q 458.4 509.0, 456.8 509.0 Q 455.2 509.0, 453.7 508.4 Q 452.2 507.8, 451.1 506.7 L 452.6 505.1 Q 453.5 506.0, 454.6 506.5 Q 455.7 507.0, 456.9 507.0 Q 458.4 507.0, 459.5 506.0 Q 460.6 505.1, 460.6 503.3 Q 460.6 501.4, 459.5 500.5 Q 458.4 499.6, 456.7 499.6 Q 455.2 499.6, 453.4 500.3 L 452.1 499.7 L 452.9 491.1 L 462.0 491.1 L 461.8 493.1 L 455.0 493.1 L 454.4 498.4 Q 456.0 497.8, 457.6 497.8 " fill="#000000"/>
<path class="atom-15" d="M 721.6 500.2 Q 721.6 495.8, 723.6 493.5 Q 725.7 491.2, 729.6 491.2 Q 733.3 491.2, 735.2 493.7 L 733.6 495.1 Q 732.1 493.2, 729.6 493.2 Q 726.9 493.2, 725.5 495.0 Q 724.1 496.8, 724.1 500.2 Q 724.1 503.7, 725.6 505.5 Q 727.0 507.3, 729.9 507.3 Q 731.8 507.3, 734.1 506.1 L 734.8 508.0 Q 733.9 508.6, 732.5 508.9 Q 731.1 509.3, 729.5 509.3 Q 725.7 509.3, 723.6 506.9 Q 721.6 504.6, 721.6 500.2 " fill="#000000"/>
<path class="atom-15" d="M 738.4 507.1 L 742.3 507.1 L 742.3 493.8 L 738.0 495.2 L 737.4 493.7 L 742.9 491.3 L 744.6 491.6 L 744.6 507.1 L 748.1 507.1 L 748.1 509.1 L 738.4 509.1 L 738.4 507.1 " fill="#000000"/>
<path class="atom-15" d="M 757.3 498.0 Q 758.9 498.0, 760.1 498.7 Q 761.3 499.4, 762.0 500.6 Q 762.7 501.8, 762.7 503.4 Q 762.7 505.1, 761.9 506.4 Q 761.1 507.8, 759.8 508.5 Q 758.4 509.3, 756.7 509.3 Q 753.6 509.3, 752.0 507.1 Q 750.4 505.0, 750.4 500.7 Q 750.4 496.0, 752.3 493.6 Q 754.3 491.2, 758.1 491.2 Q 759.2 491.2, 760.1 491.4 Q 761.1 491.7, 762.0 492.2 L 761.0 493.9 Q 759.7 493.2, 758.1 493.2 Q 755.6 493.2, 754.3 494.8 Q 753.1 496.4, 752.9 499.7 Q 753.8 498.9, 754.9 498.5 Q 756.1 498.0, 757.3 498.0 M 756.7 507.2 Q 757.7 507.2, 758.5 506.7 Q 759.3 506.2, 759.7 505.3 Q 760.2 504.5, 760.2 503.4 Q 760.2 501.8, 759.3 500.9 Q 758.4 500.0, 756.9 500.0 Q 755.8 500.0, 754.7 500.5 Q 753.7 500.9, 752.9 501.6 Q 753.0 504.6, 753.9 505.9 Q 754.9 507.2, 756.7 507.2 " fill="#000000"/>
<path class="atom-16" d="M 650.7 376.7 Q 650.7 372.3, 652.8 370.0 Q 654.8 367.7, 658.8 367.7 Q 662.4 367.7, 664.4 370.3 L 662.7 371.6 Q 661.3 369.8, 658.8 369.8 Q 656.1 369.8, 654.7 371.6 Q 653.3 373.3, 653.3 376.7 Q 653.3 380.2, 654.7 382.0 Q 656.2 383.8, 659.0 383.8 Q 661.0 383.8, 663.3 382.7 L 664.0 384.5 Q 663.0 385.1, 661.6 385.5 Q 660.2 385.8, 658.7 385.8 Q 654.8 385.8, 652.8 383.5 Q 650.7 381.1, 650.7 376.7 " fill="#000000"/>
<path class="atom-16" d="M 667.5 383.6 L 671.4 383.6 L 671.4 370.4 L 667.1 371.7 L 666.6 370.2 L 672.0 367.8 L 673.8 368.1 L 673.8 383.6 L 677.2 383.6 L 677.2 385.6 L 667.5 385.6 L 667.5 383.6 " fill="#000000"/>
<path class="atom-16" d="M 688.8 369.9 L 679.5 369.9 L 679.5 367.9 L 691.2 367.9 L 691.2 369.7 L 684.1 385.6 L 681.7 385.6 L 688.8 369.9 " fill="#000000"/>
<path class="atom-17" d="M 792.7 459.1 Q 792.7 454.7, 794.8 452.4 Q 796.9 450.1, 800.8 450.1 Q 804.4 450.1, 806.4 452.7 L 804.7 454.0 Q 803.3 452.1, 800.8 452.1 Q 798.1 452.1, 796.7 453.9 Q 795.3 455.7, 795.3 459.1 Q 795.3 462.6, 796.7 464.4 Q 798.2 466.2, 801.1 466.2 Q 803.0 466.2, 805.3 465.0 L 806.0 466.9 Q 805.1 467.5, 803.7 467.9 Q 802.3 468.2, 800.7 468.2 Q 796.9 468.2, 794.8 465.9 Q 792.7 463.5, 792.7 459.1 " fill="#000000"/>
<path class="atom-17" d="M 809.6 466.0 L 813.5 466.0 L 813.5 452.8 L 809.2 454.1 L 808.6 452.6 L 814.0 450.2 L 815.8 450.5 L 815.8 466.0 L 819.3 466.0 L 819.3 468.0 L 809.6 468.0 L 809.6 466.0 " fill="#000000"/>
<path class="atom-17" d="M 830.6 458.6 Q 832.2 459.3, 833.1 460.4 Q 834.1 461.4, 834.1 463.1 Q 834.1 464.6, 833.3 465.8 Q 832.5 467.0, 831.1 467.6 Q 829.7 468.2, 827.9 468.2 Q 825.0 468.2, 823.3 466.9 Q 821.6 465.5, 821.6 463.1 Q 821.6 461.7, 822.3 460.6 Q 823.1 459.5, 824.6 458.7 Q 823.5 458.0, 822.8 457.1 Q 822.2 456.1, 822.2 454.6 Q 822.2 452.5, 823.7 451.3 Q 825.2 450.1, 827.8 450.1 Q 830.4 450.1, 831.9 451.3 Q 833.4 452.5, 833.4 454.6 Q 833.4 455.9, 832.7 456.9 Q 832.0 457.8, 830.6 458.6 M 827.8 452.0 Q 826.3 452.0, 825.5 452.7 Q 824.7 453.4, 824.7 454.6 Q 824.7 455.5, 825.3 456.2 Q 825.8 456.8, 826.6 457.1 Q 827.4 457.5, 828.9 458.0 Q 830.0 457.2, 830.4 456.4 Q 830.9 455.6, 830.9 454.6 Q 830.9 453.4, 830.1 452.7 Q 829.3 452.0, 827.8 452.0 M 827.9 466.4 Q 829.6 466.4, 830.6 465.5 Q 831.6 464.6, 831.6 463.1 Q 831.6 462.2, 831.0 461.6 Q 830.5 461.0, 829.7 460.6 Q 828.9 460.3, 827.5 459.8 L 826.4 459.4 Q 825.2 460.2, 824.6 461.1 Q 824.1 462.0, 824.1 463.1 Q 824.1 464.6, 825.1 465.5 Q 826.2 466.4, 827.9 466.4 " fill="#000000"/>
<path class="atom-18" d="M 877.8 500.3 Q 877.8 495.9, 879.8 493.6 Q 881.9 491.3, 885.8 491.3 Q 889.5 491.3, 891.4 493.9 L 889.8 495.2 Q 888.4 493.3, 885.8 493.3 Q 883.2 493.3, 881.7 495.1 Q 880.3 496.9, 880.3 500.3 Q 880.3 503.8, 881.8 505.6 Q 883.3 507.4, 886.1 507.4 Q 888.1 507.4, 890.3 506.2 L 891.0 508.1 Q 890.1 508.7, 888.7 509.1 Q 887.3 509.4, 885.8 509.4 Q 881.9 509.4, 879.8 507.1 Q 877.8 504.7, 877.8 500.3 " fill="#000000"/>
<path class="atom-18" d="M 894.6 507.2 L 898.5 507.2 L 898.5 494.0 L 894.2 495.3 L 893.7 493.8 L 899.1 491.4 L 900.9 491.7 L 900.9 507.2 L 904.3 507.2 L 904.3 509.2 L 894.6 509.2 L 894.6 507.2 " fill="#000000"/>
<path class="atom-18" d="M 912.6 491.3 Q 915.7 491.3, 917.3 493.4 Q 918.9 495.6, 918.9 499.8 Q 918.9 504.5, 916.9 507.0 Q 915.0 509.4, 911.2 509.4 Q 910.1 509.4, 909.1 509.1 Q 908.2 508.9, 907.3 508.4 L 908.3 506.7 Q 909.6 507.4, 911.2 507.4 Q 913.7 507.4, 914.9 505.8 Q 916.2 504.2, 916.4 500.8 Q 915.5 501.7, 914.3 502.1 Q 913.2 502.5, 912.0 502.5 Q 910.4 502.5, 909.2 501.9 Q 908.0 501.2, 907.3 500.0 Q 906.6 498.7, 906.6 497.2 Q 906.6 495.5, 907.4 494.1 Q 908.1 492.8, 909.5 492.0 Q 910.8 491.3, 912.6 491.3 M 909.1 497.2 Q 909.1 498.7, 910.0 499.6 Q 910.9 500.5, 912.4 500.5 Q 913.5 500.5, 914.5 500.1 Q 915.6 499.7, 916.4 498.9 Q 916.3 496.0, 915.3 494.7 Q 914.4 493.3, 912.5 493.3 Q 911.6 493.3, 910.8 493.8 Q 910.0 494.3, 909.6 495.2 Q 909.1 496.1, 909.1 497.2 " fill="#000000"/>
<path class="atom-19" d="M 877.7 582.6 Q 877.7 578.2, 879.8 575.9 Q 881.9 573.6, 885.8 573.6 Q 889.4 573.6, 891.4 576.1 L 889.7 577.5 Q 888.3 575.6, 885.8 575.6 Q 883.1 575.6, 881.7 577.4 Q 880.3 579.2, 880.3 582.6 Q 880.3 586.1, 881.7 587.9 Q 883.2 589.7, 886.1 589.7 Q 888.0 589.7, 890.3 588.5 L 891.0 590.4 Q 890.1 591.0, 888.7 591.3 Q 887.3 591.7, 885.7 591.7 Q 881.9 591.7, 879.8 589.3 Q 877.7 587.0, 877.7 582.6 " fill="#000000"/>
<path class="atom-19" d="M 893.7 577.1 Q 894.4 575.4, 895.9 574.5 Q 897.5 573.6, 899.6 573.6 Q 902.3 573.6, 903.8 575.0 Q 905.3 576.5, 905.3 579.0 Q 905.3 581.7, 903.3 584.1 Q 901.4 586.6, 897.4 589.5 L 905.6 589.5 L 905.6 591.5 L 893.7 591.5 L 893.7 589.8 Q 897.0 587.4, 898.9 585.7 Q 900.9 583.9, 901.8 582.4 Q 902.8 580.8, 902.8 579.2 Q 902.8 577.5, 901.9 576.5 Q 901.1 575.6, 899.6 575.6 Q 898.2 575.6, 897.2 576.1 Q 896.3 576.7, 895.6 578.0 L 893.7 577.1 " fill="#000000"/>
<path class="atom-19" d="M 914.8 591.7 Q 911.6 591.7, 910.0 589.3 Q 908.4 586.9, 908.4 582.6 Q 908.4 578.3, 910.0 575.9 Q 911.6 573.6, 914.8 573.6 Q 918.1 573.6, 919.7 575.9 Q 921.3 578.3, 921.3 582.6 Q 921.3 586.9, 919.7 589.3 Q 918.1 591.7, 914.8 591.7 M 914.8 589.7 Q 916.8 589.7, 917.8 587.9 Q 918.8 586.1, 918.8 582.6 Q 918.8 579.1, 917.8 577.3 Q 916.8 575.6, 914.8 575.6 Q 912.9 575.6, 911.9 577.3 Q 910.9 579.1, 910.9 582.6 Q 910.9 586.1, 911.9 587.9 Q 912.9 589.7, 914.8 589.7 " fill="#000000"/>
<path class="atom-20" d="M 792.7 623.7 Q 792.7 619.3, 794.7 617.0 Q 796.8 614.6, 800.7 614.6 Q 804.4 614.6, 806.3 617.2 L 804.7 618.6 Q 803.3 616.7, 800.7 616.7 Q 798.1 616.7, 796.6 618.5 Q 795.2 620.3, 795.2 623.7 Q 795.2 627.2, 796.7 629.0 Q 798.2 630.8, 801.0 630.8 Q 803.0 630.8, 805.2 629.6 L 805.9 631.5 Q 805.0 632.1, 803.6 632.4 Q 802.2 632.8, 800.7 632.8 Q 796.8 632.8, 794.7 630.4 Q 792.7 628.1, 792.7 623.7 " fill="#000000"/>
<path class="atom-20" d="M 808.6 618.2 Q 809.2 616.5, 810.8 615.6 Q 812.3 614.6, 814.5 614.6 Q 817.2 614.6, 818.7 616.1 Q 820.2 617.5, 820.2 620.1 Q 820.2 622.7, 818.2 625.2 Q 816.3 627.6, 812.3 630.5 L 820.5 630.5 L 820.5 632.5 L 808.5 632.5 L 808.5 630.9 Q 811.8 628.5, 813.8 626.8 Q 815.8 625.0, 816.7 623.4 Q 817.7 621.9, 817.7 620.2 Q 817.7 618.5, 816.8 617.6 Q 816.0 616.6, 814.5 616.6 Q 813.1 616.6, 812.1 617.2 Q 811.2 617.8, 810.5 619.1 L 808.6 618.2 " fill="#000000"/>
<path class="atom-20" d="M 824.2 630.5 L 828.0 630.5 L 828.0 617.3 L 823.8 618.6 L 823.2 617.2 L 828.6 614.7 L 830.4 615.0 L 830.4 630.5 L 833.9 630.5 L 833.9 632.5 L 824.2 632.5 L 824.2 630.5 " fill="#000000"/>
<path class="atom-21" d="M 705.5 582.5 Q 705.5 578.1, 707.6 575.8 Q 709.6 573.5, 713.6 573.5 Q 717.2 573.5, 719.2 576.0 L 717.5 577.4 Q 716.1 575.5, 713.6 575.5 Q 710.9 575.5, 709.5 577.3 Q 708.1 579.1, 708.1 582.5 Q 708.1 586.0, 709.5 587.8 Q 711.0 589.6, 713.8 589.6 Q 715.8 589.6, 718.1 588.4 L 718.8 590.3 Q 717.8 590.9, 716.4 591.2 Q 715.0 591.6, 713.5 591.6 Q 709.6 591.6, 707.6 589.2 Q 705.5 586.9, 705.5 582.5 " fill="#000000"/>
<path class="atom-21" d="M 721.5 577.0 Q 722.1 575.3, 723.7 574.4 Q 725.2 573.5, 727.4 573.5 Q 730.0 573.5, 731.5 574.9 Q 733.0 576.4, 733.0 578.9 Q 733.0 581.6, 731.1 584.0 Q 729.2 586.5, 725.2 589.4 L 733.3 589.4 L 733.3 591.4 L 721.4 591.4 L 721.4 589.7 Q 724.7 587.3, 726.7 585.6 Q 728.6 583.8, 729.6 582.3 Q 730.5 580.7, 730.5 579.1 Q 730.5 577.4, 729.7 576.4 Q 728.8 575.5, 727.4 575.5 Q 725.9 575.5, 725.0 576.0 Q 724.0 576.6, 723.4 577.9 L 721.5 577.0 " fill="#000000"/>
<path class="atom-21" d="M 736.1 577.0 Q 736.8 575.3, 738.3 574.4 Q 739.9 573.5, 742.0 573.5 Q 744.7 573.5, 746.2 574.9 Q 747.7 576.4, 747.7 578.9 Q 747.7 581.6, 745.8 584.0 Q 743.8 586.5, 739.8 589.4 L 748.0 589.4 L 748.0 591.4 L 736.1 591.4 L 736.1 589.7 Q 739.4 587.3, 741.3 585.6 Q 743.3 583.8, 744.3 582.3 Q 745.2 580.7, 745.2 579.1 Q 745.2 577.4, 744.4 576.4 Q 743.5 575.5, 742.0 575.5 Q 740.6 575.5, 739.7 576.0 Q 738.7 576.6, 738.0 577.9 L 736.1 577.0 " fill="#000000"/>
<path class="atom-22" d="M 560.2 335.5 Q 560.2 331.3, 562.3 328.9 Q 564.4 326.5, 568.3 326.5 Q 572.3 326.5, 574.4 328.9 Q 576.5 331.3, 576.5 335.5 Q 576.5 339.8, 574.3 342.3 Q 572.2 344.7, 568.3 344.7 Q 564.4 344.7, 562.3 342.3 Q 560.2 339.8, 560.2 335.5 M 568.3 342.7 Q 571.0 342.7, 572.5 340.9 Q 574.0 339.1, 574.0 335.5 Q 574.0 332.0, 572.5 330.3 Q 571.0 328.5, 568.3 328.5 Q 565.6 328.5, 564.2 330.3 Q 562.7 332.0, 562.7 335.5 Q 562.7 339.1, 564.2 340.9 Q 565.6 342.7, 568.3 342.7 " fill="#FF0000"/>
<path class="atom-22" d="M 579.1 330.1 Q 579.7 328.4, 581.3 327.5 Q 582.8 326.5, 585.0 326.5 Q 587.7 326.5, 589.2 328.0 Q 590.7 329.4, 590.7 332.0 Q 590.7 334.6, 588.7 337.1 Q 586.8 339.5, 582.8 342.4 L 591.0 342.4 L 591.0 344.4 L 579.0 344.4 L 579.0 342.7 Q 582.3 340.4, 584.3 338.6 Q 586.3 336.9, 587.2 335.3 Q 588.2 333.7, 588.2 332.1 Q 588.2 330.4, 587.3 329.5 Q 586.5 328.5, 585.0 328.5 Q 583.6 328.5, 582.6 329.1 Q 581.7 329.7, 581.0 330.9 L 579.1 330.1 " fill="#FF0000"/>
<path class="atom-22" d="M 602.3 335.1 Q 604.0 335.6, 604.8 336.7 Q 605.7 337.8, 605.7 339.6 Q 605.7 341.1, 604.9 342.2 Q 604.2 343.4, 602.8 344.0 Q 601.4 344.7, 599.6 344.7 Q 597.7 344.7, 596.3 344.0 Q 594.9 343.3, 593.8 342.0 L 595.2 340.5 Q 596.3 341.7, 597.2 342.2 Q 598.2 342.7, 599.6 342.7 Q 601.2 342.7, 602.2 341.8 Q 603.2 340.9, 603.2 339.5 Q 603.2 337.7, 602.2 336.9 Q 601.2 336.1, 599.0 336.1 L 597.7 336.1 L 597.7 334.3 L 598.8 334.3 Q 600.8 334.3, 601.8 333.5 Q 602.8 332.6, 602.8 331.0 Q 602.8 329.9, 602.0 329.2 Q 601.1 328.5, 599.7 328.5 Q 598.2 328.5, 597.3 329.0 Q 596.4 329.6, 595.7 330.9 L 593.9 330.0 Q 594.6 328.5, 596.1 327.5 Q 597.6 326.5, 599.7 326.5 Q 602.3 326.5, 603.8 327.7 Q 605.3 329.0, 605.3 331.0 Q 605.3 332.5, 604.5 333.5 Q 603.8 334.5, 602.3 335.1 " fill="#FF0000"/>
<path class="atom-23" d="M 735.4 335.6 Q 735.4 331.2, 737.5 328.9 Q 739.5 326.6, 743.5 326.6 Q 747.1 326.6, 749.1 329.2 L 747.4 330.5 Q 746.0 328.7, 743.5 328.7 Q 740.8 328.7, 739.4 330.5 Q 738.0 332.2, 738.0 335.6 Q 738.0 339.1, 739.4 340.9 Q 740.9 342.7, 743.7 342.7 Q 745.7 342.7, 748.0 341.6 L 748.7 343.4 Q 747.7 344.0, 746.3 344.4 Q 744.9 344.7, 743.4 344.7 Q 739.5 344.7, 737.5 342.4 Q 735.4 340.0, 735.4 335.6 " fill="#000000"/>
<path class="atom-23" d="M 751.4 330.2 Q 752.1 328.5, 753.6 327.6 Q 755.2 326.6, 757.3 326.6 Q 760.0 326.6, 761.5 328.1 Q 763.0 329.5, 763.0 332.1 Q 763.0 334.7, 761.1 337.2 Q 759.1 339.6, 755.1 342.5 L 763.3 342.5 L 763.3 344.5 L 751.4 344.5 L 751.4 342.8 Q 754.7 340.5, 756.6 338.7 Q 758.6 337.0, 759.6 335.4 Q 760.5 333.8, 760.5 332.2 Q 760.5 330.5, 759.7 329.6 Q 758.8 328.6, 757.3 328.6 Q 755.9 328.6, 755.0 329.2 Q 754.0 329.8, 753.3 331.0 L 751.4 330.2 " fill="#000000"/>
<path class="atom-23" d="M 777.6 338.4 L 779.7 338.4 L 779.7 340.4 L 777.6 340.4 L 777.6 344.5 L 775.3 344.5 L 775.3 340.4 L 766.1 340.4 L 766.1 338.9 L 773.9 326.8 L 777.6 326.8 L 777.6 338.4 M 769.0 338.4 L 775.3 338.4 L 775.3 328.4 L 769.0 338.4 " fill="#000000"/>
<path class="atom-24" d="M 735.5 253.4 Q 735.5 249.0, 737.5 246.7 Q 739.6 244.3, 743.5 244.3 Q 747.2 244.3, 749.1 246.9 L 747.5 248.3 Q 746.1 246.4, 743.5 246.4 Q 740.9 246.4, 739.4 248.2 Q 738.0 250.0, 738.0 253.4 Q 738.0 256.9, 739.5 258.7 Q 741.0 260.5, 743.8 260.5 Q 745.8 260.5, 748.0 259.3 L 748.7 261.2 Q 747.8 261.8, 746.4 262.1 Q 745.0 262.5, 743.5 262.5 Q 739.6 262.5, 737.5 260.1 Q 735.5 257.8, 735.5 253.4 " fill="#000000"/>
<path class="atom-24" d="M 751.4 247.9 Q 752.1 246.2, 753.6 245.3 Q 755.2 244.3, 757.3 244.3 Q 760.0 244.3, 761.5 245.8 Q 763.0 247.2, 763.0 249.8 Q 763.0 252.4, 761.1 254.9 Q 759.1 257.3, 755.1 260.2 L 763.3 260.2 L 763.3 262.2 L 751.4 262.2 L 751.4 260.6 Q 754.7 258.2, 756.6 256.5 Q 758.6 254.7, 759.6 253.1 Q 760.5 251.6, 760.5 249.9 Q 760.5 248.2, 759.7 247.3 Q 758.8 246.3, 757.3 246.3 Q 755.9 246.3, 755.0 246.9 Q 754.0 247.5, 753.3 248.8 L 751.4 247.9 " fill="#000000"/>
<path class="atom-24" d="M 772.5 251.2 Q 774.0 251.2, 775.3 251.8 Q 776.6 252.5, 777.3 253.7 Q 778.0 255.0, 778.0 256.6 Q 778.0 258.5, 777.1 259.8 Q 776.3 261.1, 774.8 261.8 Q 773.4 262.4, 771.7 262.4 Q 770.1 262.4, 768.6 261.8 Q 767.1 261.2, 766.1 260.1 L 767.6 258.5 Q 768.4 259.4, 769.5 259.9 Q 770.6 260.4, 771.8 260.4 Q 773.4 260.4, 774.4 259.4 Q 775.5 258.5, 775.5 256.7 Q 775.5 254.8, 774.4 253.9 Q 773.4 253.0, 771.6 253.0 Q 770.1 253.0, 768.4 253.7 L 767.0 253.1 L 767.8 244.5 L 776.9 244.5 L 776.7 246.5 L 769.9 246.5 L 769.4 251.8 Q 770.9 251.2, 772.5 251.2 " fill="#000000"/>
<text x="1000" y="50" font-size="8" font-family="Verdana" font-weight="normal" letter-spacing="0" text-anchor="start" fill="black">Highlighted Atoms:
Primary SOM: Red
Secondary SOM: Green
Tertiary SOM: Cyan
</text></svg>
