<?xml version='1.0' encoding='ASCII' standalone='yes'?>
<svg xmlns="http://www.w3.org/2000/svg" xmlns:rdkit="http://www.rdkit.org/xml" xmlns:xlink="http://www.w3.org/1999/xlink" style="background-color: white;" version="1.1" baseProfile="full" xml:space="preserve" width="1000px" height="1000px" viewBox="0 0 1000 1000">
<!-- END OF HEADER -->
<rect style="opacity:1.0;fill:#FFFFFF;stroke:none" width="1000.0" height="1000.0" x="0.0" y="0.0"> </rect>
<ellipse cx="482.0" cy="529.6" rx="19.6" ry="18.9" class="atom-6" style="fill:#B20000;fill-rule:evenodd;stroke:#B20000;stroke-width:1.0px;stroke-linecap:butt;stroke-linejoin:miter;stroke-opacity:1"/>
<path class="bond-0 atom-1 atom-0" d="M 636.5,503.4 L 606.2,520.7" style="fill:none;fill-rule:evenodd;stroke:#000000;stroke-width:2.0px;stroke-linecap:butt;stroke-linejoin:miter;stroke-opacity:1"/>
<path class="bond-1 atom-2 atom-1" d="M 645.4,446.6 L 645.4,487.2" style="fill:none;fill-rule:evenodd;stroke:#000000;stroke-width:2.0px;stroke-linecap:butt;stroke-linejoin:miter;stroke-opacity:1"/>
<path class="bond-2 atom-3 atom-2" d="M 607.9,413.7 L 626.3,424.3" style="fill:none;fill-rule:evenodd;stroke:#000000;stroke-width:2.0px;stroke-linecap:butt;stroke-linejoin:miter;stroke-opacity:1"/>
<path class="bond-3 atom-4 atom-3" d="M 544.6,430.6 L 574.1,413.6" style="fill:none;fill-rule:evenodd;stroke:#000000;stroke-width:2.0px;stroke-linecap:butt;stroke-linejoin:miter;stroke-opacity:1"/>
<path class="bond-4 atom-5 atom-0" d="M 553.1,507.7 L 564.3,514.2" style="fill:none;fill-rule:evenodd;stroke:#0000FF;stroke-width:2.0px;stroke-linecap:butt;stroke-linejoin:miter;stroke-opacity:1"/>
<path class="bond-4 atom-5 atom-0" d="M 564.3,514.2 L 575.5,520.7" style="fill:none;fill-rule:evenodd;stroke:#000000;stroke-width:2.0px;stroke-linecap:butt;stroke-linejoin:miter;stroke-opacity:1"/>
<path class="bond-5 atom-5 atom-4" d="M 536.5,487.4 L 536.5,466.9" style="fill:none;fill-rule:evenodd;stroke:#0000FF;stroke-width:2.0px;stroke-linecap:butt;stroke-linejoin:miter;stroke-opacity:1"/>
<path class="bond-5 atom-5 atom-4" d="M 536.5,466.9 L 536.5,446.4" style="fill:none;fill-rule:evenodd;stroke:#000000;stroke-width:2.0px;stroke-linecap:butt;stroke-linejoin:miter;stroke-opacity:1"/>
<path class="bond-6 atom-6 atom-5" d="M 497.9,520.3 L 508.9,514.0" style="fill:none;fill-rule:evenodd;stroke:#000000;stroke-width:2.0px;stroke-linecap:butt;stroke-linejoin:miter;stroke-opacity:1"/>
<path class="bond-6 atom-6 atom-5" d="M 508.9,514.0 L 519.8,507.7" style="fill:none;fill-rule:evenodd;stroke:#0000FF;stroke-width:2.0px;stroke-linecap:butt;stroke-linejoin:miter;stroke-opacity:1"/>
<path class="bond-7 atom-7 atom-2" d="M 662.8,387.6 L 656.1,405.9" style="fill:none;fill-rule:evenodd;stroke:#FF0000;stroke-width:2.0px;stroke-linecap:butt;stroke-linejoin:miter;stroke-opacity:1"/>
<path class="bond-7 atom-7 atom-2" d="M 656.1,405.9 L 649.4,424.3" style="fill:none;fill-rule:evenodd;stroke:#000000;stroke-width:2.0px;stroke-linecap:butt;stroke-linejoin:miter;stroke-opacity:1"/>
<path class="bond-8 atom-8 atom-2" d="M 691.1,443.4 L 653.4,436.7" style="fill:none;fill-rule:evenodd;stroke:#000000;stroke-width:2.0px;stroke-linecap:butt;stroke-linejoin:miter;stroke-opacity:1"/>
<path class="bond-9 atom-9 atom-8" d="M 738.2,409.4 L 716.5,435.3" style="fill:none;fill-rule:evenodd;stroke:#000000;stroke-width:2.0px;stroke-linecap:butt;stroke-linejoin:miter;stroke-opacity:1"/>
<path class="bond-9 atom-9 atom-8" d="M 745.5,415.5 L 723.7,441.4" style="fill:none;fill-rule:evenodd;stroke:#000000;stroke-width:2.0px;stroke-linecap:butt;stroke-linejoin:miter;stroke-opacity:1"/>
<path class="bond-10 atom-10 atom-9" d="M 800.7,407.6 L 770.7,402.3" style="fill:none;fill-rule:evenodd;stroke:#000000;stroke-width:2.0px;stroke-linecap:butt;stroke-linejoin:miter;stroke-opacity:1"/>
<path class="bond-11 atom-11 atom-10" d="M 827.0,457.3 L 813.7,420.4" style="fill:none;fill-rule:evenodd;stroke:#000000;stroke-width:2.0px;stroke-linecap:butt;stroke-linejoin:miter;stroke-opacity:1"/>
<path class="bond-11 atom-11 atom-10" d="M 818.2,460.5 L 804.8,423.6" style="fill:none;fill-rule:evenodd;stroke:#000000;stroke-width:2.0px;stroke-linecap:butt;stroke-linejoin:miter;stroke-opacity:1"/>
<path class="bond-12 atom-12 atom-11" d="M 799.8,505.3 L 821.6,479.5" style="fill:none;fill-rule:evenodd;stroke:#000000;stroke-width:2.0px;stroke-linecap:butt;stroke-linejoin:miter;stroke-opacity:1"/>
<path class="bond-13 atom-13 atom-8" d="M 724.8,494.5 L 711.3,457.5" style="fill:none;fill-rule:evenodd;stroke:#000000;stroke-width:2.0px;stroke-linecap:butt;stroke-linejoin:miter;stroke-opacity:1"/>
<path class="bond-14 atom-13 atom-12" d="M 737.6,507.0 L 768.2,512.4" style="fill:none;fill-rule:evenodd;stroke:#000000;stroke-width:2.0px;stroke-linecap:butt;stroke-linejoin:miter;stroke-opacity:1"/>
<path class="bond-14 atom-13 atom-12" d="M 739.2,497.7 L 769.8,503.1" style="fill:none;fill-rule:evenodd;stroke:#000000;stroke-width:2.0px;stroke-linecap:butt;stroke-linejoin:miter;stroke-opacity:1"/>
<path class="bond-15 atom-14 atom-11" d="M 884.0,477.7 L 868.7,475.0" style="fill:none;fill-rule:evenodd;stroke:#00CC00;stroke-width:2.0px;stroke-linecap:butt;stroke-linejoin:miter;stroke-opacity:1"/>
<path class="bond-15 atom-14 atom-11" d="M 868.7,475.0 L 853.4,472.2" style="fill:none;fill-rule:evenodd;stroke:#000000;stroke-width:2.0px;stroke-linecap:butt;stroke-linejoin:miter;stroke-opacity:1"/>
<path class="bond-16 atom-15 atom-6" d="M 447.0,509.3 L 466.1,520.3" style="fill:none;fill-rule:evenodd;stroke:#000000;stroke-width:2.0px;stroke-linecap:butt;stroke-linejoin:miter;stroke-opacity:1"/>
<path class="bond-17 atom-16 atom-15" d="M 392.0,518.6 L 408.1,509.3" style="fill:none;fill-rule:evenodd;stroke:#000000;stroke-width:2.0px;stroke-linecap:butt;stroke-linejoin:miter;stroke-opacity:1"/>
<path class="bond-18 atom-17 atom-16" d="M 338.3,509.2 L 354.1,518.4" style="fill:none;fill-rule:evenodd;stroke:#000000;stroke-width:2.0px;stroke-linecap:butt;stroke-linejoin:miter;stroke-opacity:1"/>
<path class="bond-19 atom-18 atom-17" d="M 283.5,518.2 L 299.2,509.2" style="fill:none;fill-rule:evenodd;stroke:#000000;stroke-width:2.0px;stroke-linecap:butt;stroke-linejoin:miter;stroke-opacity:1"/>
<path class="bond-20 atom-19 atom-18" d="M 264.3,581.2 L 264.4,540.3" style="fill:none;fill-rule:evenodd;stroke:#000000;stroke-width:2.0px;stroke-linecap:butt;stroke-linejoin:miter;stroke-opacity:1"/>
<path class="bond-20 atom-19 atom-18" d="M 254.9,581.2 L 254.9,540.3" style="fill:none;fill-rule:evenodd;stroke:#000000;stroke-width:2.0px;stroke-linecap:butt;stroke-linejoin:miter;stroke-opacity:1"/>
<path class="bond-21 atom-20 atom-19" d="M 228.9,612.6 L 255.4,597.3" style="fill:none;fill-rule:evenodd;stroke:#000000;stroke-width:2.0px;stroke-linecap:butt;stroke-linejoin:miter;stroke-opacity:1"/>
<path class="bond-22 atom-21 atom-20" d="M 174.6,603.2 L 190.7,612.5" style="fill:none;fill-rule:evenodd;stroke:#000000;stroke-width:2.0px;stroke-linecap:butt;stroke-linejoin:miter;stroke-opacity:1"/>
<path class="bond-22 atom-21 atom-20" d="M 179.3,595.0 L 195.4,604.3" style="fill:none;fill-rule:evenodd;stroke:#000000;stroke-width:2.0px;stroke-linecap:butt;stroke-linejoin:miter;stroke-opacity:1"/>
<path class="bond-23 atom-22 atom-21" d="M 155.5,540.4 L 155.4,581.1" style="fill:none;fill-rule:evenodd;stroke:#000000;stroke-width:2.0px;stroke-linecap:butt;stroke-linejoin:miter;stroke-opacity:1"/>
<path class="bond-24 atom-23 atom-18" d="M 229.1,508.9 L 245.2,518.2" style="fill:none;fill-rule:evenodd;stroke:#000000;stroke-width:2.0px;stroke-linecap:butt;stroke-linejoin:miter;stroke-opacity:1"/>
<path class="bond-25 atom-23 atom-22" d="M 190.3,509.2 L 163.5,524.6" style="fill:none;fill-rule:evenodd;stroke:#000000;stroke-width:2.0px;stroke-linecap:butt;stroke-linejoin:miter;stroke-opacity:1"/>
<path class="bond-25 atom-23 atom-22" d="M 195.0,517.3 L 168.2,532.7" style="fill:none;fill-rule:evenodd;stroke:#000000;stroke-width:2.0px;stroke-linecap:butt;stroke-linejoin:miter;stroke-opacity:1"/>
<path class="bond-26 atom-24 atom-21" d="M 109.1,618.8 L 122.5,611.1" style="fill:none;fill-rule:evenodd;stroke:#33CCCC;stroke-width:2.0px;stroke-linecap:butt;stroke-linejoin:miter;stroke-opacity:1"/>
<path class="bond-26 atom-24 atom-21" d="M 122.5,611.1 L 135.9,603.4" style="fill:none;fill-rule:evenodd;stroke:#000000;stroke-width:2.0px;stroke-linecap:butt;stroke-linejoin:miter;stroke-opacity:1"/>
<path class="bond-27 atom-25 atom-17" d="M 323.5,446.4 L 323.5,466.7" style="fill:none;fill-rule:evenodd;stroke:#FF0000;stroke-width:2.0px;stroke-linecap:butt;stroke-linejoin:miter;stroke-opacity:1"/>
<path class="bond-27 atom-25 atom-17" d="M 323.5,466.7 L 323.5,487.0" style="fill:none;fill-rule:evenodd;stroke:#000000;stroke-width:2.0px;stroke-linecap:butt;stroke-linejoin:miter;stroke-opacity:1"/>
<path class="bond-27 atom-25 atom-17" d="M 314.1,446.4 L 314.1,466.7" style="fill:none;fill-rule:evenodd;stroke:#FF0000;stroke-width:2.0px;stroke-linecap:butt;stroke-linejoin:miter;stroke-opacity:1"/>
<path class="bond-27 atom-25 atom-17" d="M 314.1,466.7 L 314.1,487.0" style="fill:none;fill-rule:evenodd;stroke:#000000;stroke-width:2.0px;stroke-linecap:butt;stroke-linejoin:miter;stroke-opacity:1"/>
<path class="atom-0" d="M 577.6 529.6 Q 577.6 525.2, 579.6 522.9 Q 581.7 520.6, 585.6 520.6 Q 589.3 520.6, 591.2 523.1 L 589.6 524.5 Q 588.2 522.6, 585.6 522.6 Q 583.0 522.6, 581.5 524.4 Q 580.1 526.2, 580.1 529.6 Q 580.1 533.1, 581.6 534.9 Q 583.1 536.7, 585.9 536.7 Q 587.9 536.7, 590.1 535.5 L 590.8 537.4 Q 589.9 538.0, 588.5 538.3 Q 587.1 538.7, 585.6 538.7 Q 581.7 538.7, 579.6 536.3 Q 577.6 534.0, 577.6 529.6 " fill="#000000"/>
<path class="atom-0" d="M 594.4 536.5 L 598.3 536.5 L 598.3 523.2 L 594.0 524.6 L 593.5 523.1 L 598.9 520.7 L 600.7 521.0 L 600.7 536.5 L 604.1 536.5 L 604.1 538.5 L 594.4 538.5 L 594.4 536.5 " fill="#000000"/>
<path class="atom-1" d="M 638.5 498.3 Q 638.5 493.9, 640.6 491.6 Q 642.7 489.3, 646.6 489.3 Q 650.2 489.3, 652.2 491.9 L 650.5 493.2 Q 649.1 491.4, 646.6 491.4 Q 643.9 491.4, 642.5 493.2 Q 641.1 494.9, 641.1 498.3 Q 641.1 501.8, 642.5 503.6 Q 644.0 505.4, 646.9 505.4 Q 648.8 505.4, 651.1 504.3 L 651.8 506.1 Q 650.9 506.7, 649.5 507.1 Q 648.1 507.4, 646.5 507.4 Q 642.7 507.4, 640.6 505.1 Q 638.5 502.7, 638.5 498.3 " fill="#000000"/>
<path class="atom-1" d="M 654.5 492.9 Q 655.2 491.2, 656.7 490.3 Q 658.3 489.3, 660.4 489.3 Q 663.1 489.3, 664.6 490.8 Q 666.1 492.2, 666.1 494.8 Q 666.1 497.4, 664.1 499.9 Q 662.2 502.3, 658.2 505.2 L 666.4 505.2 L 666.4 507.2 L 654.5 507.2 L 654.5 505.5 Q 657.8 503.2, 659.7 501.4 Q 661.7 499.7, 662.6 498.1 Q 663.6 496.5, 663.6 494.9 Q 663.6 493.2, 662.7 492.3 Q 661.9 491.3, 660.4 491.3 Q 659.0 491.3, 658.0 491.9 Q 657.1 492.5, 656.4 493.7 L 654.5 492.9 " fill="#000000"/>
<path class="atom-2" d="M 623.5 435.4 Q 623.5 431.0, 625.6 428.7 Q 627.7 426.3, 631.6 426.3 Q 635.2 426.3, 637.2 428.9 L 635.5 430.3 Q 634.1 428.4, 631.6 428.4 Q 628.9 428.4, 627.5 430.2 Q 626.1 432.0, 626.1 435.4 Q 626.1 438.9, 627.5 440.7 Q 629.0 442.5, 631.9 442.5 Q 633.8 442.5, 636.1 441.3 L 636.8 443.2 Q 635.9 443.8, 634.5 444.1 Q 633.1 444.5, 631.5 444.5 Q 627.7 444.5, 625.6 442.1 Q 623.5 439.8, 623.5 435.4 " fill="#000000"/>
<path class="atom-2" d="M 648.0 434.9 Q 649.7 435.4, 650.5 436.5 Q 651.4 437.6, 651.4 439.4 Q 651.4 440.9, 650.6 442.1 Q 649.9 443.2, 648.5 443.9 Q 647.1 444.5, 645.3 444.5 Q 643.4 444.5, 642.0 443.8 Q 640.6 443.2, 639.5 441.8 L 640.9 440.4 Q 642.0 441.6, 642.9 442.0 Q 643.8 442.5, 645.3 442.5 Q 646.9 442.5, 647.9 441.6 Q 648.9 440.8, 648.9 439.4 Q 648.9 437.6, 647.8 436.8 Q 646.8 435.9, 644.7 435.9 L 643.4 435.9 L 643.4 434.1 L 644.5 434.1 Q 646.4 434.1, 647.5 433.3 Q 648.5 432.4, 648.5 430.9 Q 648.5 429.7, 647.6 429.0 Q 646.8 428.3, 645.3 428.3 Q 643.9 428.3, 642.9 428.9 Q 642.0 429.4, 641.3 430.7 L 639.6 429.8 Q 640.2 428.3, 641.7 427.3 Q 643.2 426.3, 645.3 426.3 Q 647.9 426.3, 649.5 427.6 Q 651.0 428.8, 651.0 430.9 Q 651.0 432.3, 650.2 433.3 Q 649.4 434.3, 648.0 434.9 " fill="#000000"/>
<path class="atom-3" d="M 576.2 404.0 Q 576.2 399.6, 578.2 397.3 Q 580.3 395.0, 584.2 395.0 Q 587.9 395.0, 589.8 397.6 L 588.2 398.9 Q 586.7 397.0, 584.2 397.0 Q 581.5 397.0, 580.1 398.8 Q 578.7 400.6, 578.7 404.0 Q 578.7 407.5, 580.2 409.3 Q 581.6 411.1, 584.5 411.1 Q 586.4 411.1, 588.7 409.9 L 589.4 411.8 Q 588.5 412.4, 587.1 412.8 Q 585.7 413.1, 584.1 413.1 Q 580.3 413.1, 578.2 410.8 Q 576.2 408.4, 576.2 404.0 " fill="#000000"/>
<path class="atom-3" d="M 603.7 406.8 L 605.8 406.8 L 605.8 408.8 L 603.7 408.8 L 603.7 412.9 L 601.3 412.9 L 601.3 408.8 L 592.2 408.8 L 592.2 407.2 L 599.9 395.2 L 603.7 395.2 L 603.7 406.8 M 595.1 406.8 L 601.3 406.8 L 601.3 396.8 L 595.1 406.8 " fill="#000000"/>
<path class="atom-4" d="M 514.6 435.3 Q 514.6 430.9, 516.6 428.6 Q 518.7 426.2, 522.6 426.2 Q 526.3 426.2, 528.2 428.8 L 526.6 430.2 Q 525.2 428.3, 522.6 428.3 Q 520.0 428.3, 518.5 430.1 Q 517.1 431.9, 517.1 435.3 Q 517.1 438.8, 518.6 440.6 Q 520.1 442.4, 522.9 442.4 Q 524.9 442.4, 527.1 441.2 L 527.8 443.1 Q 526.9 443.7, 525.5 444.0 Q 524.1 444.4, 522.6 444.4 Q 518.7 444.4, 516.6 442.0 Q 514.6 439.7, 514.6 435.3 " fill="#000000"/>
<path class="atom-4" d="M 536.9 433.1 Q 538.5 433.1, 539.8 433.7 Q 541.0 434.4, 541.8 435.6 Q 542.5 436.9, 542.5 438.5 Q 542.5 440.4, 541.6 441.7 Q 540.7 443.0, 539.3 443.7 Q 537.8 444.3, 536.2 444.3 Q 534.5 444.3, 533.0 443.7 Q 531.5 443.1, 530.5 442.0 L 532.0 440.4 Q 532.8 441.3, 534.0 441.8 Q 535.1 442.3, 536.2 442.3 Q 537.8 442.3, 538.9 441.3 Q 540.0 440.4, 540.0 438.6 Q 540.0 436.7, 538.9 435.8 Q 537.8 434.9, 536.1 434.9 Q 534.5 434.9, 532.8 435.6 L 531.4 435.0 L 532.3 426.4 L 541.4 426.4 L 541.1 428.4 L 534.3 428.4 L 533.8 433.7 Q 535.4 433.1, 536.9 433.1 " fill="#000000"/>
<path class="atom-5" d="M 524.7 489.4 L 530.5 498.8 Q 531.1 499.7, 532.0 501.4 Q 532.9 503.1, 533.0 503.2 L 533.0 489.4 L 535.3 489.4 L 535.3 507.1 L 532.9 507.1 L 526.7 496.9 Q 526.0 495.7, 525.2 494.3 Q 524.4 492.9, 524.2 492.5 L 524.2 507.1 L 521.9 507.1 L 521.9 489.4 L 524.7 489.4 " fill="#0000FF"/>
<path class="atom-5" d="M 545.6 496.1 Q 547.2 496.1, 548.4 496.8 Q 549.6 497.4, 550.3 498.7 Q 551.0 499.9, 551.0 501.4 Q 551.0 503.2, 550.2 504.5 Q 549.5 505.8, 548.1 506.6 Q 546.8 507.3, 545.0 507.3 Q 541.9 507.3, 540.3 505.2 Q 538.7 503.1, 538.7 498.8 Q 538.7 494.1, 540.7 491.7 Q 542.6 489.2, 546.4 489.2 Q 547.5 489.2, 548.4 489.5 Q 549.4 489.7, 550.3 490.3 L 549.3 491.9 Q 548.0 491.2, 546.4 491.2 Q 543.9 491.2, 542.7 492.9 Q 541.4 494.5, 541.2 497.8 Q 542.1 497.0, 543.3 496.5 Q 544.4 496.1, 545.6 496.1 M 545.1 505.3 Q 546.0 505.3, 546.8 504.8 Q 547.6 504.3, 548.0 503.4 Q 548.5 502.5, 548.5 501.5 Q 548.5 499.9, 547.6 499.0 Q 546.7 498.1, 545.2 498.1 Q 544.1 498.1, 543.0 498.5 Q 542.0 499.0, 541.2 499.7 Q 541.3 502.6, 542.3 504.0 Q 543.2 505.3, 545.1 505.3 " fill="#0000FF"/>
<path class="atom-6" d="M 468.2 529.6 Q 468.2 525.2, 470.2 522.9 Q 472.3 520.6, 476.2 520.6 Q 479.9 520.6, 481.8 523.1 L 480.2 524.5 Q 478.8 522.6, 476.2 522.6 Q 473.6 522.6, 472.1 524.4 Q 470.7 526.2, 470.7 529.6 Q 470.7 533.1, 472.2 534.9 Q 473.7 536.7, 476.5 536.7 Q 478.5 536.7, 480.7 535.5 L 481.4 537.4 Q 480.5 538.0, 479.1 538.3 Q 477.7 538.7, 476.2 538.7 Q 472.3 538.7, 470.2 536.3 Q 468.2 534.0, 468.2 529.6 " fill="#000000"/>
<path class="atom-6" d="M 493.4 522.8 L 484.1 522.8 L 484.1 520.8 L 495.9 520.8 L 495.9 522.5 L 488.7 538.5 L 486.3 538.5 L 493.4 522.8 " fill="#000000"/>
<path class="atom-7" d="M 658.8 376.3 Q 658.8 372.1, 660.9 369.7 Q 663.0 367.3, 666.9 367.3 Q 670.8 367.3, 672.9 369.7 Q 675.0 372.1, 675.0 376.3 Q 675.0 380.6, 672.9 383.1 Q 670.8 385.5, 666.9 385.5 Q 663.0 385.5, 660.9 383.1 Q 658.8 380.7, 658.8 376.3 M 666.9 383.5 Q 669.6 383.5, 671.1 381.7 Q 672.5 379.9, 672.5 376.3 Q 672.5 372.9, 671.1 371.1 Q 669.6 369.3, 666.9 369.3 Q 664.2 369.3, 662.7 371.1 Q 661.3 372.8, 661.3 376.3 Q 661.3 379.9, 662.7 381.7 Q 664.2 383.5, 666.9 383.5 " fill="#FF0000"/>
<path class="atom-7" d="M 686.7 375.9 Q 688.4 376.6, 689.3 377.6 Q 690.2 378.6, 690.2 380.4 Q 690.2 381.9, 689.4 383.1 Q 688.7 384.2, 687.3 384.9 Q 685.9 385.5, 684.1 385.5 Q 681.1 385.5, 679.4 384.1 Q 677.7 382.8, 677.7 380.4 Q 677.7 378.9, 678.5 377.9 Q 679.2 376.8, 680.8 375.9 Q 679.6 375.3, 679.0 374.3 Q 678.4 373.4, 678.4 371.9 Q 678.4 369.8, 679.9 368.6 Q 681.4 367.3, 684.0 367.3 Q 686.5 367.3, 688.0 368.6 Q 689.6 369.8, 689.6 371.9 Q 689.6 373.2, 688.8 374.1 Q 688.1 375.1, 686.7 375.9 M 684.0 369.2 Q 682.5 369.2, 681.7 369.9 Q 680.9 370.6, 680.9 371.9 Q 680.9 372.8, 681.4 373.4 Q 682.0 374.0, 682.7 374.4 Q 683.5 374.7, 685.1 375.2 Q 686.1 374.5, 686.6 373.7 Q 687.1 372.9, 687.1 371.9 Q 687.1 370.6, 686.2 369.9 Q 685.4 369.2, 684.0 369.2 M 684.1 383.6 Q 685.7 383.6, 686.7 382.7 Q 687.7 381.8, 687.7 380.4 Q 687.7 379.4, 687.2 378.8 Q 686.7 378.2, 685.9 377.9 Q 685.1 377.5, 683.7 377.1 L 682.6 376.7 Q 681.3 377.4, 680.8 378.3 Q 680.2 379.2, 680.2 380.4 Q 680.2 381.8, 681.3 382.7 Q 682.3 383.6, 684.1 383.6 " fill="#FF0000"/>
<path class="atom-8" d="M 693.1 446.4 Q 693.1 442.0, 695.2 439.7 Q 697.3 437.4, 701.2 437.4 Q 704.8 437.4, 706.8 440.0 L 705.1 441.3 Q 703.7 439.4, 701.2 439.4 Q 698.5 439.4, 697.1 441.2 Q 695.7 443.0, 695.7 446.4 Q 695.7 449.9, 697.1 451.7 Q 698.6 453.5, 701.5 453.5 Q 703.4 453.5, 705.7 452.3 L 706.4 454.2 Q 705.5 454.8, 704.1 455.2 Q 702.7 455.5, 701.1 455.5 Q 697.3 455.5, 695.2 453.2 Q 693.1 450.8, 693.1 446.4 " fill="#000000"/>
<path class="atom-8" d="M 715.0 437.4 Q 718.2 437.4, 719.8 439.5 Q 721.4 441.7, 721.4 445.9 Q 721.4 450.6, 719.4 453.1 Q 717.4 455.5, 713.7 455.5 Q 712.6 455.5, 711.6 455.2 Q 710.7 455.0, 709.8 454.5 L 710.8 452.8 Q 712.1 453.5, 713.6 453.5 Q 716.1 453.5, 717.4 451.9 Q 718.7 450.3, 718.8 446.9 Q 717.9 447.8, 716.8 448.2 Q 715.7 448.6, 714.4 448.6 Q 712.9 448.6, 711.7 448.0 Q 710.4 447.3, 709.8 446.1 Q 709.1 444.8, 709.1 443.3 Q 709.1 441.6, 709.8 440.2 Q 710.6 438.9, 712.0 438.1 Q 713.3 437.4, 715.0 437.4 M 711.6 443.3 Q 711.6 444.8, 712.5 445.7 Q 713.3 446.6, 714.9 446.6 Q 716.0 446.6, 717.0 446.2 Q 718.1 445.8, 718.8 445.0 Q 718.7 442.1, 717.8 440.8 Q 716.9 439.4, 715.0 439.4 Q 714.1 439.4, 713.3 439.9 Q 712.5 440.4, 712.0 441.3 Q 711.6 442.2, 711.6 443.3 " fill="#000000"/>
<path class="atom-9" d="M 726.8 398.3 Q 726.8 393.9, 728.8 391.6 Q 730.9 389.2, 734.8 389.2 Q 738.5 389.2, 740.4 391.8 L 738.8 393.2 Q 737.3 391.3, 734.8 391.3 Q 732.1 391.3, 730.7 393.1 Q 729.3 394.9, 729.3 398.3 Q 729.3 401.8, 730.8 403.6 Q 732.2 405.4, 735.1 405.4 Q 737.0 405.4, 739.3 404.2 L 740.0 406.1 Q 739.1 406.7, 737.7 407.0 Q 736.3 407.4, 734.7 407.4 Q 730.9 407.4, 728.8 405.0 Q 726.8 402.7, 726.8 398.3 " fill="#000000"/>
<path class="atom-9" d="M 743.6 405.1 L 747.5 405.1 L 747.5 391.9 L 743.2 393.2 L 742.7 391.8 L 748.1 389.3 L 749.9 389.6 L 749.9 405.1 L 753.3 405.1 L 753.3 407.1 L 743.6 407.1 L 743.6 405.1 " fill="#000000"/>
<path class="atom-9" d="M 762.1 407.3 Q 758.9 407.3, 757.2 404.9 Q 755.6 402.5, 755.6 398.3 Q 755.6 394.0, 757.2 391.6 Q 758.8 389.2, 762.1 389.2 Q 765.4 389.2, 767.0 391.6 Q 768.6 394.0, 768.6 398.3 Q 768.6 402.5, 767.0 404.9 Q 765.4 407.3, 762.1 407.3 M 762.1 405.3 Q 764.0 405.3, 765.1 403.6 Q 766.1 401.8, 766.1 398.3 Q 766.1 394.8, 765.1 393.0 Q 764.0 391.2, 762.1 391.2 Q 760.2 391.2, 759.2 393.0 Q 758.1 394.8, 758.1 398.3 Q 758.1 401.8, 759.2 403.6 Q 760.2 405.3, 762.1 405.3 " fill="#000000"/>
<path class="atom-10" d="M 802.7 409.2 Q 802.7 404.8, 804.8 402.5 Q 806.9 400.2, 810.8 400.2 Q 814.4 400.2, 816.4 402.8 L 814.7 404.1 Q 813.3 402.3, 810.8 402.3 Q 808.1 402.3, 806.7 404.1 Q 805.3 405.8, 805.3 409.2 Q 805.3 412.7, 806.7 414.5 Q 808.2 416.3, 811.1 416.3 Q 813.0 416.3, 815.3 415.2 L 816.0 417.0 Q 815.1 417.6, 813.7 418.0 Q 812.3 418.3, 810.7 418.3 Q 806.9 418.3, 804.8 416.0 Q 802.7 413.6, 802.7 409.2 " fill="#000000"/>
<path class="atom-10" d="M 819.5 416.1 L 823.4 416.1 L 823.4 402.9 L 819.1 404.2 L 818.6 402.7 L 824.0 400.3 L 825.8 400.6 L 825.8 416.1 L 829.2 416.1 L 829.2 418.1 L 819.5 418.1 L 819.5 416.1 " fill="#000000"/>
<path class="atom-10" d="M 832.4 416.1 L 836.3 416.1 L 836.3 402.9 L 832.0 404.2 L 831.4 402.7 L 836.9 400.3 L 838.6 400.6 L 838.6 416.1 L 842.1 416.1 L 842.1 418.1 L 832.4 418.1 L 832.4 416.1 " fill="#000000"/>
<path class="atom-11" d="M 810.6 468.3 Q 810.6 463.9, 812.7 461.6 Q 814.8 459.3, 818.7 459.3 Q 822.3 459.3, 824.3 461.8 L 822.6 463.2 Q 821.2 461.3, 818.7 461.3 Q 816.0 461.3, 814.6 463.1 Q 813.2 464.9, 813.2 468.3 Q 813.2 471.8, 814.6 473.6 Q 816.1 475.4, 819.0 475.4 Q 820.9 475.4, 823.2 474.2 L 823.9 476.1 Q 823.0 476.7, 821.6 477.0 Q 820.2 477.4, 818.6 477.4 Q 814.8 477.4, 812.7 475.0 Q 810.6 472.7, 810.6 468.3 " fill="#000000"/>
<path class="atom-11" d="M 827.5 475.2 L 831.4 475.2 L 831.4 461.9 L 827.1 463.3 L 826.5 461.8 L 831.9 459.4 L 833.7 459.7 L 833.7 475.2 L 837.2 475.2 L 837.2 477.2 L 827.5 477.2 L 827.5 475.2 " fill="#000000"/>
<path class="atom-11" d="M 839.5 462.8 Q 840.1 461.1, 841.7 460.2 Q 843.2 459.3, 845.4 459.3 Q 848.1 459.3, 849.6 460.7 Q 851.1 462.2, 851.1 464.7 Q 851.1 467.4, 849.1 469.8 Q 847.2 472.3, 843.2 475.2 L 851.4 475.2 L 851.4 477.2 L 839.4 477.2 L 839.4 475.5 Q 842.7 473.1, 844.7 471.4 Q 846.7 469.6, 847.6 468.1 Q 848.6 466.5, 848.6 464.9 Q 848.6 463.2, 847.7 462.2 Q 846.9 461.3, 845.4 461.3 Q 844.0 461.3, 843.0 461.8 Q 842.1 462.4, 841.4 463.7 L 839.5 462.8 " fill="#000000"/>
<path class="atom-12" d="M 770.2 516.4 Q 770.2 512.0, 772.3 509.7 Q 774.4 507.4, 778.3 507.4 Q 781.9 507.4, 783.9 510.0 L 782.2 511.3 Q 780.8 509.5, 778.3 509.5 Q 775.6 509.5, 774.2 511.3 Q 772.8 513.0, 772.8 516.4 Q 772.8 519.9, 774.2 521.7 Q 775.7 523.5, 778.6 523.5 Q 780.5 523.5, 782.8 522.4 L 783.5 524.2 Q 782.6 524.8, 781.2 525.2 Q 779.8 525.5, 778.2 525.5 Q 774.4 525.5, 772.3 523.2 Q 770.2 520.8, 770.2 516.4 " fill="#000000"/>
<path class="atom-12" d="M 787.1 523.3 L 790.9 523.3 L 790.9 510.1 L 786.7 511.4 L 786.1 509.9 L 791.5 507.5 L 793.3 507.8 L 793.3 523.3 L 796.8 523.3 L 796.8 525.3 L 787.1 525.3 L 787.1 523.3 " fill="#000000"/>
<path class="atom-12" d="M 807.5 516.0 Q 809.3 516.5, 810.1 517.6 Q 810.9 518.7, 810.9 520.5 Q 810.9 522.0, 810.2 523.1 Q 809.4 524.3, 808.1 524.9 Q 806.7 525.6, 804.9 525.6 Q 803.0 525.6, 801.6 524.9 Q 800.2 524.2, 799.0 522.9 L 800.5 521.4 Q 801.6 522.6, 802.5 523.1 Q 803.4 523.6, 804.9 523.6 Q 806.5 523.6, 807.5 522.7 Q 808.4 521.8, 808.4 520.4 Q 808.4 518.6, 807.4 517.8 Q 806.4 517.0, 804.2 517.0 L 803.0 517.0 L 803.0 515.2 L 804.1 515.2 Q 806.0 515.2, 807.0 514.4 Q 808.1 513.5, 808.1 511.9 Q 808.1 510.8, 807.2 510.1 Q 806.4 509.4, 804.9 509.4 Q 803.4 509.4, 802.5 509.9 Q 801.6 510.5, 800.9 511.8 L 799.2 510.9 Q 799.8 509.4, 801.3 508.4 Q 802.8 507.4, 804.9 507.4 Q 807.5 507.4, 809.0 508.6 Q 810.6 509.9, 810.6 511.9 Q 810.6 513.4, 809.8 514.4 Q 809.0 515.4, 807.5 516.0 " fill="#000000"/>
<path class="atom-13" d="M 693.0 505.4 Q 693.0 501.0, 695.0 498.7 Q 697.1 496.4, 701.0 496.4 Q 704.7 496.4, 706.6 499.0 L 705.0 500.3 Q 703.6 498.5, 701.0 498.5 Q 698.4 498.5, 696.9 500.3 Q 695.5 502.0, 695.5 505.4 Q 695.5 508.9, 697.0 510.7 Q 698.5 512.5, 701.3 512.5 Q 703.3 512.5, 705.5 511.4 L 706.2 513.2 Q 705.3 513.8, 703.9 514.2 Q 702.5 514.5, 701.0 514.5 Q 697.1 514.5, 695.0 512.2 Q 693.0 509.8, 693.0 505.4 " fill="#000000"/>
<path class="atom-13" d="M 709.9 512.3 L 713.7 512.3 L 713.7 499.1 L 709.5 500.4 L 708.9 498.9 L 714.3 496.5 L 716.1 496.8 L 716.1 512.3 L 719.6 512.3 L 719.6 514.3 L 709.9 514.3 L 709.9 512.3 " fill="#000000"/>
<path class="atom-13" d="M 733.4 508.2 L 735.5 508.2 L 735.5 510.2 L 733.4 510.2 L 733.4 514.3 L 731.0 514.3 L 731.0 510.2 L 721.9 510.2 L 721.9 508.7 L 729.6 496.6 L 733.4 496.6 L 733.4 508.2 M 724.8 508.2 L 731.0 508.2 L 731.0 498.2 L 724.8 508.2 " fill="#000000"/>
<path class="atom-14" d="M 886.1 479.9 Q 886.1 475.5, 888.1 473.2 Q 890.2 470.9, 894.1 470.9 Q 897.8 470.9, 899.7 473.4 L 898.1 474.8 Q 896.7 472.9, 894.1 472.9 Q 891.5 472.9, 890.0 474.7 Q 888.6 476.5, 888.6 479.9 Q 888.6 483.4, 890.1 485.2 Q 891.6 487.0, 894.4 487.0 Q 896.4 487.0, 898.6 485.8 L 899.3 487.7 Q 898.4 488.3, 897.0 488.6 Q 895.6 489.0, 894.1 489.0 Q 890.2 489.0, 888.1 486.6 Q 886.1 484.3, 886.1 479.9 " fill="#00CC00"/>
<path class="atom-14" d="M 901.7 469.8 L 904.0 469.8 L 904.0 488.8 L 901.7 488.8 L 901.7 469.8 " fill="#00CC00"/>
<path class="atom-14" d="M 908.1 486.8 L 912.0 486.8 L 912.0 473.5 L 907.7 474.9 L 907.1 473.4 L 912.6 471.0 L 914.3 471.3 L 914.3 486.8 L 917.8 486.8 L 917.8 488.8 L 908.1 488.8 L 908.1 486.8 " fill="#00CC00"/>
<path class="atom-14" d="M 926.2 477.7 Q 927.8 477.7, 929.1 478.4 Q 930.3 479.0, 931.1 480.3 Q 931.8 481.5, 931.8 483.2 Q 931.8 485.0, 930.9 486.3 Q 930.0 487.6, 928.6 488.3 Q 927.1 489.0, 925.5 489.0 Q 923.8 489.0, 922.3 488.4 Q 920.8 487.8, 919.8 486.6 L 921.3 485.1 Q 922.1 486.0, 923.3 486.5 Q 924.4 486.9, 925.5 486.9 Q 927.1 486.9, 928.2 486.0 Q 929.3 485.0, 929.3 483.2 Q 929.3 481.3, 928.2 480.5 Q 927.1 479.6, 925.4 479.6 Q 923.8 479.6, 922.1 480.2 L 920.7 479.6 L 921.6 471.1 L 930.7 471.1 L 930.4 473.1 L 923.6 473.1 L 923.1 478.3 Q 924.7 477.7, 926.2 477.7 " fill="#00CC00"/>
<path class="atom-15" d="M 407.1 498.1 Q 407.1 493.7, 409.1 491.4 Q 411.2 489.1, 415.1 489.1 Q 418.8 489.1, 420.7 491.7 L 419.1 493.0 Q 417.7 491.1, 415.1 491.1 Q 412.5 491.1, 411.0 492.9 Q 409.6 494.7, 409.6 498.1 Q 409.6 501.6, 411.1 503.4 Q 412.6 505.2, 415.4 505.2 Q 417.4 505.2, 419.6 504.0 L 420.3 505.9 Q 419.4 506.5, 418.0 506.9 Q 416.6 507.2, 415.1 507.2 Q 411.2 507.2, 409.1 504.9 Q 407.1 502.5, 407.1 498.1 " fill="#000000"/>
<path class="atom-15" d="M 423.9 505.0 L 427.8 505.0 L 427.8 491.8 L 423.5 493.1 L 423.0 491.6 L 428.4 489.2 L 430.2 489.5 L 430.2 505.0 L 433.6 505.0 L 433.6 507.0 L 423.9 507.0 L 423.9 505.0 " fill="#000000"/>
<path class="atom-15" d="M 442.8 495.9 Q 444.4 495.9, 445.6 496.6 Q 446.8 497.3, 447.5 498.5 Q 448.2 499.7, 448.2 501.3 Q 448.2 503.0, 447.4 504.4 Q 446.7 505.7, 445.3 506.4 Q 444.0 507.2, 442.2 507.2 Q 439.1 507.2, 437.5 505.1 Q 435.9 502.9, 435.9 498.7 Q 435.9 494.0, 437.9 491.5 Q 439.8 489.1, 443.6 489.1 Q 444.7 489.1, 445.6 489.3 Q 446.6 489.6, 447.5 490.1 L 446.5 491.8 Q 445.2 491.1, 443.6 491.1 Q 441.1 491.1, 439.9 492.7 Q 438.6 494.3, 438.4 497.6 Q 439.3 496.8, 440.5 496.4 Q 441.6 495.9, 442.8 495.9 M 442.3 505.1 Q 443.2 505.1, 444.0 504.6 Q 444.8 504.1, 445.2 503.3 Q 445.7 502.4, 445.7 501.3 Q 445.7 499.7, 444.8 498.8 Q 443.9 497.9, 442.4 497.9 Q 441.3 497.9, 440.2 498.4 Q 439.2 498.8, 438.4 499.6 Q 438.5 502.5, 439.5 503.8 Q 440.4 505.1, 442.3 505.1 " fill="#000000"/>
<path class="atom-16" d="M 352.9 529.5 Q 352.9 525.1, 355.0 522.8 Q 357.0 520.4, 361.0 520.4 Q 364.6 520.4, 366.6 523.0 L 364.9 524.4 Q 363.5 522.5, 361.0 522.5 Q 358.3 522.5, 356.9 524.3 Q 355.5 526.1, 355.5 529.5 Q 355.5 533.0, 356.9 534.8 Q 358.4 536.6, 361.2 536.6 Q 363.2 536.6, 365.5 535.4 L 366.2 537.3 Q 365.2 537.9, 363.8 538.2 Q 362.4 538.6, 360.9 538.6 Q 357.0 538.6, 355.0 536.2 Q 352.9 533.9, 352.9 529.5 " fill="#000000"/>
<path class="atom-16" d="M 369.7 536.3 L 373.6 536.3 L 373.6 523.1 L 369.3 524.4 L 368.8 523.0 L 374.2 520.5 L 376.0 520.8 L 376.0 536.3 L 379.4 536.3 L 379.4 538.3 L 369.7 538.3 L 369.7 536.3 " fill="#000000"/>
<path class="atom-16" d="M 391.0 522.6 L 381.7 522.6 L 381.7 520.6 L 393.4 520.6 L 393.4 522.4 L 386.3 538.3 L 383.9 538.3 L 391.0 522.6 " fill="#000000"/>
<path class="atom-17" d="M 298.1 498.0 Q 298.1 493.6, 300.2 491.3 Q 302.3 489.0, 306.2 489.0 Q 309.8 489.0, 311.8 491.6 L 310.1 492.9 Q 308.7 491.0, 306.2 491.0 Q 303.5 491.0, 302.1 492.8 Q 300.7 494.6, 300.7 498.0 Q 300.7 501.5, 302.1 503.3 Q 303.6 505.1, 306.5 505.1 Q 308.4 505.1, 310.7 503.9 L 311.4 505.8 Q 310.5 506.4, 309.1 506.8 Q 307.7 507.1, 306.1 507.1 Q 302.3 507.1, 300.2 504.8 Q 298.1 502.4, 298.1 498.0 " fill="#000000"/>
<path class="atom-17" d="M 315.0 504.9 L 318.9 504.9 L 318.9 491.7 L 314.6 493.0 L 314.0 491.5 L 319.4 489.1 L 321.2 489.4 L 321.2 504.9 L 324.7 504.9 L 324.7 506.9 L 315.0 506.9 L 315.0 504.9 " fill="#000000"/>
<path class="atom-17" d="M 336.0 497.5 Q 337.6 498.2, 338.5 499.3 Q 339.5 500.3, 339.5 502.0 Q 339.5 503.5, 338.7 504.7 Q 337.9 505.9, 336.5 506.5 Q 335.1 507.1, 333.3 507.1 Q 330.4 507.1, 328.7 505.8 Q 327.0 504.4, 327.0 502.0 Q 327.0 500.6, 327.7 499.5 Q 328.5 498.4, 330.0 497.6 Q 328.9 496.9, 328.2 496.0 Q 327.6 495.0, 327.6 493.5 Q 327.6 491.4, 329.1 490.2 Q 330.6 489.0, 333.2 489.0 Q 335.8 489.0, 337.3 490.2 Q 338.8 491.4, 338.8 493.5 Q 338.8 494.8, 338.1 495.8 Q 337.4 496.7, 336.0 497.5 M 333.2 490.9 Q 331.7 490.9, 330.9 491.6 Q 330.1 492.3, 330.1 493.5 Q 330.1 494.4, 330.7 495.1 Q 331.2 495.7, 332.0 496.0 Q 332.8 496.4, 334.3 496.9 Q 335.4 496.1, 335.8 495.3 Q 336.3 494.5, 336.3 493.5 Q 336.3 492.3, 335.5 491.6 Q 334.7 490.9, 333.2 490.9 M 333.3 505.3 Q 335.0 505.3, 336.0 504.4 Q 337.0 503.5, 337.0 502.0 Q 337.0 501.1, 336.4 500.5 Q 335.9 499.9, 335.1 499.5 Q 334.3 499.2, 332.9 498.7 L 331.8 498.3 Q 330.6 499.1, 330.0 500.0 Q 329.5 500.9, 329.5 502.0 Q 329.5 503.5, 330.5 504.4 Q 331.6 505.3, 333.3 505.3 " fill="#000000"/>
<path class="atom-18" d="M 243.8 529.3 Q 243.8 524.9, 245.9 522.6 Q 248.0 520.3, 251.9 520.3 Q 255.5 520.3, 257.5 522.9 L 255.8 524.2 Q 254.4 522.3, 251.9 522.3 Q 249.2 522.3, 247.8 524.1 Q 246.4 525.9, 246.4 529.3 Q 246.4 532.8, 247.8 534.6 Q 249.3 536.4, 252.2 536.4 Q 254.1 536.4, 256.4 535.2 L 257.1 537.1 Q 256.2 537.7, 254.8 538.1 Q 253.4 538.4, 251.8 538.4 Q 248.0 538.4, 245.9 536.1 Q 243.8 533.7, 243.8 529.3 " fill="#000000"/>
<path class="atom-18" d="M 260.7 536.2 L 264.5 536.2 L 264.5 523.0 L 260.3 524.3 L 259.7 522.8 L 265.1 520.4 L 266.9 520.7 L 266.9 536.2 L 270.4 536.2 L 270.4 538.2 L 260.7 538.2 L 260.7 536.2 " fill="#000000"/>
<path class="atom-18" d="M 278.6 520.3 Q 281.7 520.3, 283.3 522.4 Q 284.9 524.6, 284.9 528.8 Q 284.9 533.5, 282.9 536.0 Q 281.0 538.4, 277.2 538.4 Q 276.1 538.4, 275.2 538.1 Q 274.2 537.9, 273.3 537.4 L 274.3 535.7 Q 275.6 536.4, 277.2 536.4 Q 279.7 536.4, 281.0 534.8 Q 282.2 533.2, 282.4 529.8 Q 281.5 530.7, 280.3 531.1 Q 279.2 531.5, 278.0 531.5 Q 276.4 531.5, 275.2 530.9 Q 274.0 530.2, 273.3 529.0 Q 272.6 527.7, 272.6 526.2 Q 272.6 524.5, 273.4 523.1 Q 274.2 521.8, 275.5 521.0 Q 276.9 520.3, 278.6 520.3 M 275.1 526.2 Q 275.1 527.7, 276.0 528.6 Q 276.9 529.5, 278.4 529.5 Q 279.5 529.5, 280.6 529.1 Q 281.6 528.7, 282.4 527.9 Q 282.3 525.0, 281.4 523.7 Q 280.4 522.3, 278.6 522.3 Q 277.6 522.3, 276.8 522.8 Q 276.0 523.3, 275.6 524.2 Q 275.1 525.1, 275.1 526.2 " fill="#000000"/>
<path class="atom-19" d="M 257.5 592.3 Q 257.5 587.9, 259.5 585.6 Q 261.6 583.3, 265.5 583.3 Q 269.2 583.3, 271.1 585.9 L 269.5 587.2 Q 268.1 585.3, 265.5 585.3 Q 262.9 585.3, 261.4 587.1 Q 260.0 588.9, 260.0 592.3 Q 260.0 595.8, 261.5 597.6 Q 263.0 599.4, 265.8 599.4 Q 267.8 599.4, 270.0 598.2 L 270.7 600.1 Q 269.8 600.7, 268.4 601.1 Q 267.0 601.4, 265.5 601.4 Q 261.6 601.4, 259.5 599.1 Q 257.5 596.7, 257.5 592.3 " fill="#000000"/>
<path class="atom-19" d="M 273.5 586.8 Q 274.1 585.2, 275.7 584.2 Q 277.2 583.3, 279.4 583.3 Q 282.1 583.3, 283.6 584.7 Q 285.1 586.2, 285.1 588.8 Q 285.1 591.4, 283.1 593.8 Q 281.2 596.3, 277.2 599.2 L 285.4 599.2 L 285.4 601.2 L 273.4 601.2 L 273.4 599.5 Q 276.7 597.2, 278.7 595.4 Q 280.7 593.7, 281.6 592.1 Q 282.6 590.5, 282.6 588.9 Q 282.6 587.2, 281.7 586.2 Q 280.9 585.3, 279.4 585.3 Q 278.0 585.3, 277.0 585.9 Q 276.1 586.4, 275.4 587.7 L 273.5 586.8 " fill="#000000"/>
<path class="atom-19" d="M 294.6 601.4 Q 291.4 601.4, 289.7 599.0 Q 288.1 596.6, 288.1 592.3 Q 288.1 588.0, 289.7 585.7 Q 291.3 583.3, 294.6 583.3 Q 297.9 583.3, 299.5 585.7 Q 301.1 588.0, 301.1 592.3 Q 301.1 596.6, 299.5 599.0 Q 297.9 601.4, 294.6 601.4 M 294.6 599.4 Q 296.5 599.4, 297.6 597.6 Q 298.6 595.8, 298.6 592.3 Q 298.6 588.8, 297.6 587.1 Q 296.5 585.3, 294.6 585.3 Q 292.7 585.3, 291.7 587.1 Q 290.6 588.8, 290.6 592.3 Q 290.6 595.8, 291.7 597.6 Q 292.7 599.4, 294.6 599.4 " fill="#000000"/>
<path class="atom-20" d="M 189.3 623.6 Q 189.3 619.2, 191.3 616.9 Q 193.4 614.5, 197.3 614.5 Q 201.0 614.5, 202.9 617.1 L 201.3 618.5 Q 199.8 616.6, 197.3 616.6 Q 194.6 616.6, 193.2 618.4 Q 191.8 620.2, 191.8 623.6 Q 191.8 627.1, 193.3 628.9 Q 194.7 630.7, 197.6 630.7 Q 199.5 630.7, 201.8 629.5 L 202.5 631.4 Q 201.6 632.0, 200.2 632.3 Q 198.8 632.7, 197.2 632.7 Q 193.4 632.7, 191.3 630.3 Q 189.3 628.0, 189.3 623.6 " fill="#000000"/>
<path class="atom-20" d="M 205.2 618.1 Q 205.8 616.4, 207.4 615.5 Q 208.9 614.5, 211.1 614.5 Q 213.7 614.5, 215.2 616.0 Q 216.7 617.4, 216.7 620.0 Q 216.7 622.6, 214.8 625.1 Q 212.9 627.5, 208.9 630.4 L 217.0 630.4 L 217.0 632.4 L 205.1 632.4 L 205.1 630.8 Q 208.4 628.4, 210.4 626.7 Q 212.3 624.9, 213.3 623.3 Q 214.2 621.8, 214.2 620.1 Q 214.2 618.4, 213.4 617.5 Q 212.5 616.5, 211.1 616.5 Q 209.6 616.5, 208.7 617.1 Q 207.7 617.7, 207.1 619.0 L 205.2 618.1 " fill="#000000"/>
<path class="atom-20" d="M 220.7 630.4 L 224.6 630.4 L 224.6 617.2 L 220.3 618.5 L 219.8 617.1 L 225.2 614.6 L 227.0 614.9 L 227.0 630.4 L 230.4 630.4 L 230.4 632.4 L 220.7 632.4 L 220.7 630.4 " fill="#000000"/>
<path class="atom-21" d="M 134.2 592.2 Q 134.2 587.8, 136.2 585.5 Q 138.3 583.2, 142.2 583.2 Q 145.9 583.2, 147.8 585.8 L 146.2 587.1 Q 144.7 585.2, 142.2 585.2 Q 139.5 585.2, 138.1 587.0 Q 136.7 588.8, 136.7 592.2 Q 136.7 595.7, 138.2 597.5 Q 139.6 599.3, 142.5 599.3 Q 144.4 599.3, 146.7 598.1 L 147.4 600.0 Q 146.5 600.6, 145.1 601.0 Q 143.7 601.3, 142.1 601.3 Q 138.3 601.3, 136.2 599.0 Q 134.2 596.6, 134.2 592.2 " fill="#000000"/>
<path class="atom-21" d="M 150.1 586.7 Q 150.8 585.1, 152.3 584.1 Q 153.9 583.2, 156.0 583.2 Q 158.7 583.2, 160.2 584.6 Q 161.7 586.1, 161.7 588.7 Q 161.7 591.3, 159.7 593.7 Q 157.8 596.2, 153.8 599.1 L 162.0 599.1 L 162.0 601.1 L 150.1 601.1 L 150.1 599.4 Q 153.4 597.1, 155.3 595.3 Q 157.3 593.6, 158.2 592.0 Q 159.2 590.4, 159.2 588.8 Q 159.2 587.1, 158.3 586.1 Q 157.5 585.2, 156.0 585.2 Q 154.6 585.2, 153.6 585.8 Q 152.7 586.3, 152.0 587.6 L 150.1 586.7 " fill="#000000"/>
<path class="atom-21" d="M 164.8 586.7 Q 165.4 585.1, 167.0 584.1 Q 168.5 583.2, 170.7 583.2 Q 173.4 583.2, 174.9 584.6 Q 176.4 586.1, 176.4 588.7 Q 176.4 591.3, 174.4 593.7 Q 172.5 596.2, 168.5 599.1 L 176.7 599.1 L 176.7 601.1 L 164.7 601.1 L 164.7 599.4 Q 168.0 597.1, 170.0 595.3 Q 172.0 593.6, 172.9 592.0 Q 173.9 590.4, 173.9 588.8 Q 173.9 587.1, 173.0 586.1 Q 172.2 585.2, 170.7 585.2 Q 169.3 585.2, 168.3 585.8 Q 167.4 586.3, 166.7 587.6 L 164.8 586.7 " fill="#000000"/>
<path class="atom-22" d="M 118.9 529.2 Q 118.9 524.8, 121.0 522.5 Q 123.1 520.2, 127.0 520.2 Q 130.6 520.2, 132.6 522.8 L 130.9 524.1 Q 129.5 522.3, 127.0 522.3 Q 124.3 522.3, 122.9 524.1 Q 121.5 525.8, 121.5 529.2 Q 121.5 532.7, 122.9 534.5 Q 124.4 536.3, 127.3 536.3 Q 129.2 536.3, 131.5 535.2 L 132.2 537.0 Q 131.3 537.6, 129.9 538.0 Q 128.5 538.3, 126.9 538.3 Q 123.1 538.3, 121.0 536.0 Q 118.9 533.6, 118.9 529.2 " fill="#000000"/>
<path class="atom-22" d="M 134.9 523.8 Q 135.5 522.1, 137.1 521.2 Q 138.6 520.2, 140.8 520.2 Q 143.5 520.2, 145.0 521.7 Q 146.5 523.1, 146.5 525.7 Q 146.5 528.3, 144.5 530.8 Q 142.6 533.2, 138.6 536.1 L 146.8 536.1 L 146.8 538.1 L 134.8 538.1 L 134.8 536.4 Q 138.1 534.1, 140.1 532.3 Q 142.1 530.6, 143.0 529.0 Q 144.0 527.4, 144.0 525.8 Q 144.0 524.1, 143.1 523.2 Q 142.3 522.2, 140.8 522.2 Q 139.4 522.2, 138.4 522.8 Q 137.5 523.4, 136.8 524.6 L 134.9 523.8 " fill="#000000"/>
<path class="atom-22" d="M 158.0 528.8 Q 159.7 529.3, 160.6 530.4 Q 161.4 531.5, 161.4 533.3 Q 161.4 534.8, 160.7 535.9 Q 159.9 537.1, 158.5 537.7 Q 157.2 538.4, 155.4 538.4 Q 153.5 538.4, 152.0 537.7 Q 150.6 537.0, 149.5 535.7 L 150.9 534.2 Q 152.0 535.4, 153.0 535.9 Q 153.9 536.4, 155.4 536.4 Q 157.0 536.4, 157.9 535.5 Q 158.9 534.6, 158.9 533.2 Q 158.9 531.4, 157.9 530.6 Q 156.9 529.8, 154.7 529.8 L 153.4 529.8 L 153.4 528.0 L 154.6 528.0 Q 156.5 528.0, 157.5 527.2 Q 158.5 526.3, 158.5 524.7 Q 158.5 523.6, 157.7 522.9 Q 156.8 522.2, 155.4 522.2 Q 153.9 522.2, 153.0 522.7 Q 152.1 523.3, 151.4 524.6 L 149.7 523.7 Q 150.3 522.2, 151.8 521.2 Q 153.3 520.2, 155.4 520.2 Q 158.0 520.2, 159.5 521.4 Q 161.0 522.7, 161.0 524.7 Q 161.0 526.2, 160.3 527.2 Q 159.5 528.2, 158.0 528.8 " fill="#000000"/>
<path class="atom-23" d="M 187.8 498.0 Q 187.8 493.6, 189.8 491.3 Q 191.9 489.0, 195.8 489.0 Q 199.5 489.0, 201.4 491.5 L 199.8 492.9 Q 198.4 491.0, 195.8 491.0 Q 193.2 491.0, 191.7 492.8 Q 190.3 494.6, 190.3 498.0 Q 190.3 501.5, 191.8 503.3 Q 193.3 505.1, 196.1 505.1 Q 198.1 505.1, 200.3 503.9 L 201.0 505.8 Q 200.1 506.4, 198.7 506.7 Q 197.3 507.1, 195.8 507.1 Q 191.9 507.1, 189.8 504.7 Q 187.8 502.4, 187.8 498.0 " fill="#000000"/>
<path class="atom-23" d="M 203.8 492.5 Q 204.4 490.8, 206.0 489.9 Q 207.5 489.0, 209.7 489.0 Q 212.4 489.0, 213.9 490.4 Q 215.4 491.9, 215.4 494.4 Q 215.4 497.1, 213.4 499.5 Q 211.5 502.0, 207.5 504.9 L 215.7 504.9 L 215.7 506.9 L 203.7 506.9 L 203.7 505.2 Q 207.0 502.8, 209.0 501.1 Q 211.0 499.3, 211.9 497.8 Q 212.9 496.2, 212.9 494.6 Q 212.9 492.9, 212.0 491.9 Q 211.2 491.0, 209.7 491.0 Q 208.3 491.0, 207.3 491.5 Q 206.4 492.1, 205.7 493.4 L 203.8 492.5 " fill="#000000"/>
<path class="atom-23" d="M 230.0 500.8 L 232.1 500.8 L 232.1 502.8 L 230.0 502.8 L 230.0 506.9 L 227.6 506.9 L 227.6 502.8 L 218.5 502.8 L 218.5 501.2 L 226.2 489.2 L 230.0 489.2 L 230.0 500.8 M 221.4 500.8 L 227.6 500.8 L 227.6 490.8 L 221.4 500.8 " fill="#000000"/>
<path class="atom-24" d="M 68.2 614.7 L 78.7 614.7 L 78.7 616.7 L 70.6 616.7 L 70.6 622.1 L 77.8 622.1 L 77.8 624.2 L 70.6 624.2 L 70.6 632.4 L 68.2 632.4 L 68.2 614.7 " fill="#33CCCC"/>
<path class="atom-24" d="M 80.5 618.1 Q 81.1 616.4, 82.7 615.5 Q 84.2 614.5, 86.4 614.5 Q 89.1 614.5, 90.6 616.0 Q 92.1 617.4, 92.1 620.0 Q 92.1 622.6, 90.1 625.1 Q 88.2 627.5, 84.2 630.4 L 92.4 630.4 L 92.4 632.4 L 80.4 632.4 L 80.4 630.7 Q 83.7 628.4, 85.7 626.6 Q 87.7 624.9, 88.6 623.3 Q 89.6 621.7, 89.6 620.1 Q 89.6 618.4, 88.7 617.5 Q 87.9 616.5, 86.4 616.5 Q 85.0 616.5, 84.0 617.1 Q 83.1 617.7, 82.4 618.9 L 80.5 618.1 " fill="#33CCCC"/>
<path class="atom-24" d="M 101.4 621.3 Q 103.0 621.3, 104.3 622.0 Q 105.5 622.7, 106.3 623.9 Q 107.0 625.1, 107.0 626.8 Q 107.0 628.6, 106.1 630.0 Q 105.2 631.3, 103.8 631.9 Q 102.3 632.6, 100.7 632.6 Q 99.0 632.6, 97.5 632.0 Q 96.0 631.4, 95.0 630.3 L 96.5 628.7 Q 97.3 629.6, 98.5 630.1 Q 99.6 630.6, 100.7 630.6 Q 102.3 630.6, 103.4 629.6 Q 104.5 628.6, 104.5 626.9 Q 104.5 625.0, 103.4 624.1 Q 102.3 623.2, 100.6 623.2 Q 99.0 623.2, 97.3 623.9 L 95.9 623.2 L 96.8 614.7 L 105.9 614.7 L 105.6 616.7 L 98.8 616.7 L 98.3 622.0 Q 99.9 621.3, 101.4 621.3 " fill="#33CCCC"/>
<path class="atom-25" d="M 310.7 435.1 Q 310.7 430.9, 312.8 428.5 Q 314.9 426.1, 318.8 426.1 Q 322.8 426.1, 324.9 428.5 Q 327.0 430.9, 327.0 435.1 Q 327.0 439.4, 324.8 441.9 Q 322.7 444.3, 318.8 444.3 Q 314.9 444.3, 312.8 441.9 Q 310.7 439.5, 310.7 435.1 M 318.8 442.3 Q 321.5 442.3, 323.0 440.5 Q 324.5 438.7, 324.5 435.1 Q 324.5 431.7, 323.0 429.9 Q 321.5 428.1, 318.8 428.1 Q 316.1 428.1, 314.7 429.9 Q 313.2 431.6, 313.2 435.1 Q 313.2 438.7, 314.7 440.5 Q 316.1 442.3, 318.8 442.3 " fill="#FF0000"/>
<path class="atom-25" d="M 329.6 429.7 Q 330.3 428.0, 331.8 427.1 Q 333.4 426.1, 335.5 426.1 Q 338.2 426.1, 339.7 427.6 Q 341.2 429.0, 341.2 431.6 Q 341.2 434.2, 339.2 436.7 Q 337.3 439.1, 333.3 442.0 L 341.5 442.0 L 341.5 444.0 L 329.6 444.0 L 329.6 442.4 Q 332.9 440.0, 334.8 438.3 Q 336.8 436.5, 337.7 434.9 Q 338.7 433.4, 338.7 431.7 Q 338.7 430.0, 337.8 429.1 Q 337.0 428.1, 335.5 428.1 Q 334.1 428.1, 333.1 428.7 Q 332.2 429.3, 331.5 430.6 L 329.6 429.7 " fill="#FF0000"/>
<path class="atom-25" d="M 351.3 433.0 Q 352.8 433.0, 354.0 433.7 Q 355.3 434.3, 355.9 435.6 Q 356.6 436.8, 356.6 438.3 Q 356.6 440.1, 355.8 441.4 Q 355.1 442.7, 353.7 443.5 Q 352.4 444.2, 350.7 444.2 Q 347.5 444.2, 345.9 442.1 Q 344.3 440.0, 344.3 435.7 Q 344.3 431.0, 346.3 428.6 Q 348.3 426.1, 352.0 426.1 Q 353.1 426.1, 354.1 426.4 Q 355.0 426.6, 355.9 427.2 L 354.9 428.8 Q 353.6 428.1, 352.1 428.1 Q 349.6 428.1, 348.3 429.8 Q 347.0 431.4, 346.9 434.7 Q 347.8 433.9, 348.9 433.4 Q 350.0 433.0, 351.3 433.0 M 350.7 442.2 Q 351.6 442.2, 352.4 441.7 Q 353.2 441.2, 353.7 440.3 Q 354.1 439.4, 354.1 438.4 Q 354.1 436.8, 353.2 435.9 Q 352.4 435.0, 350.8 435.0 Q 349.7 435.0, 348.7 435.4 Q 347.6 435.9, 346.9 436.6 Q 347.0 439.5, 347.9 440.9 Q 348.8 442.2, 350.7 442.2 " fill="#FF0000"/>
<text x="1000" y="50" font-size="8" font-family="Verdana" font-weight="normal" letter-spacing="0" text-anchor="start" fill="black">Highlighted Atoms:
Primary SOM: Red
Secondary SOM: Green
Tertiary SOM: Cyan
</text></svg>
