<?xml version='1.0' encoding='ASCII' standalone='yes'?>
<svg xmlns="http://www.w3.org/2000/svg" xmlns:rdkit="http://www.rdkit.org/xml" xmlns:xlink="http://www.w3.org/1999/xlink" style="background-color: white;" version="1.1" baseProfile="full" xml:space="preserve" width="1000px" height="1000px" viewBox="0 0 1000 1000">
<!-- END OF HEADER -->
<rect style="opacity:1.0;fill:#FFFFFF;stroke:none" width="1000.0" height="1000.0" x="0.0" y="0.0"> </rect>
<ellipse cx="620.6" cy="229.7" rx="30.1" ry="23.2" class="atom-34" style="fill:#B20000;fill-rule:evenodd;stroke:#B20000;stroke-width:1.0px;stroke-linecap:butt;stroke-linejoin:miter;stroke-opacity:1"/>
<path class="bond-0 atom-1 atom-0" d="M 328.0,542.6 L 282.4,562.7" style="fill:none;fill-rule:evenodd;stroke:#000000;stroke-width:2.0px;stroke-linecap:butt;stroke-linejoin:miter;stroke-opacity:1"/>
<path class="bond-1 atom-2 atom-0" d="M 223.4,521.6 L 256.3,558.1" style="fill:none;fill-rule:evenodd;stroke:#000000;stroke-width:2.0px;stroke-linecap:butt;stroke-linejoin:miter;stroke-opacity:1"/>
<path class="bond-2 atom-3 atom-0" d="M 246.2,631.8 L 262.8,581.4" style="fill:none;fill-rule:evenodd;stroke:#000000;stroke-width:2.0px;stroke-linecap:butt;stroke-linejoin:miter;stroke-opacity:1"/>
<path class="bond-2 atom-3 atom-0" d="M 235.2,628.2 L 251.7,577.7" style="fill:none;fill-rule:evenodd;stroke:#000000;stroke-width:2.0px;stroke-linecap:butt;stroke-linejoin:miter;stroke-opacity:1"/>
<path class="bond-3 atom-4 atom-1" d="M 330.7,473.1 L 336.2,526.9" style="fill:none;fill-rule:evenodd;stroke:#000000;stroke-width:2.0px;stroke-linecap:butt;stroke-linejoin:miter;stroke-opacity:1"/>
<path class="bond-4 atom-5 atom-1" d="M 395.0,571.8 L 376.1,560.9" style="fill:none;fill-rule:evenodd;stroke:#0000FF;stroke-width:2.0px;stroke-linecap:butt;stroke-linejoin:miter;stroke-opacity:1"/>
<path class="bond-4 atom-5 atom-1" d="M 376.1,560.9 L 357.2,549.9" style="fill:none;fill-rule:evenodd;stroke:#000000;stroke-width:2.0px;stroke-linecap:butt;stroke-linejoin:miter;stroke-opacity:1"/>
<path class="bond-5 atom-6 atom-2" d="M 247.1,456.9 L 221.6,500.6" style="fill:none;fill-rule:evenodd;stroke:#000000;stroke-width:2.0px;stroke-linecap:butt;stroke-linejoin:miter;stroke-opacity:1"/>
<path class="bond-6 atom-6 atom-4" d="M 262.3,447.0 L 320.1,459.4" style="fill:none;fill-rule:evenodd;stroke:#000000;stroke-width:2.0px;stroke-linecap:butt;stroke-linejoin:miter;stroke-opacity:1"/>
<path class="bond-7 atom-7 atom-2" d="M 148.2,526.1 L 190.5,517.2" style="fill:none;fill-rule:evenodd;stroke:#000000;stroke-width:2.0px;stroke-linecap:butt;stroke-linejoin:miter;stroke-opacity:1"/>
<path class="bond-7 atom-7 atom-2" d="M 150.6,537.5 L 192.9,528.6" style="fill:none;fill-rule:evenodd;stroke:#000000;stroke-width:2.0px;stroke-linecap:butt;stroke-linejoin:miter;stroke-opacity:1"/>
<path class="bond-8 atom-8 atom-3" d="M 183.4,655.6 L 233.1,645.2" style="fill:none;fill-rule:evenodd;stroke:#000000;stroke-width:2.0px;stroke-linecap:butt;stroke-linejoin:miter;stroke-opacity:1"/>
<path class="bond-9 atom-9 atom-4" d="M 376.5,419.4 L 359.3,434.7" style="fill:none;fill-rule:evenodd;stroke:#FF0000;stroke-width:2.0px;stroke-linecap:butt;stroke-linejoin:miter;stroke-opacity:1"/>
<path class="bond-9 atom-9 atom-4" d="M 359.3,434.7 L 342.1,450.1" style="fill:none;fill-rule:evenodd;stroke:#000000;stroke-width:2.0px;stroke-linecap:butt;stroke-linejoin:miter;stroke-opacity:1"/>
<path class="bond-10 atom-10 atom-5" d="M 404.1,643.2 L 404.2,616.0" style="fill:none;fill-rule:evenodd;stroke:#000000;stroke-width:2.0px;stroke-linecap:butt;stroke-linejoin:miter;stroke-opacity:1"/>
<path class="bond-10 atom-10 atom-5" d="M 404.2,616.0 L 404.2,588.7" style="fill:none;fill-rule:evenodd;stroke:#0000FF;stroke-width:2.0px;stroke-linecap:butt;stroke-linejoin:miter;stroke-opacity:1"/>
<path class="bond-11 atom-11 atom-7" d="M 118.9,590.0 L 135.5,539.7" style="fill:none;fill-rule:evenodd;stroke:#000000;stroke-width:2.0px;stroke-linecap:butt;stroke-linejoin:miter;stroke-opacity:1"/>
<path class="bond-12 atom-11 atom-8" d="M 123.6,611.0 L 156.4,647.5" style="fill:none;fill-rule:evenodd;stroke:#000000;stroke-width:2.0px;stroke-linecap:butt;stroke-linejoin:miter;stroke-opacity:1"/>
<path class="bond-12 atom-11 atom-8" d="M 132.2,603.2 L 165.1,639.8" style="fill:none;fill-rule:evenodd;stroke:#000000;stroke-width:2.0px;stroke-linecap:butt;stroke-linejoin:miter;stroke-opacity:1"/>
<path class="bond-13 atom-12 atom-10" d="M 461.7,688.0 L 412.0,659.2" style="fill:none;fill-rule:evenodd;stroke:#000000;stroke-width:2.0px;stroke-linecap:butt;stroke-linejoin:miter;stroke-opacity:1"/>
<path class="bond-14 atom-13 atom-10" d="M 343.5,682.7 L 362.1,672.0" style="fill:none;fill-rule:evenodd;stroke:#FF0000;stroke-width:2.0px;stroke-linecap:butt;stroke-linejoin:miter;stroke-opacity:1"/>
<path class="bond-14 atom-13 atom-10" d="M 362.1,672.0 L 380.8,661.3" style="fill:none;fill-rule:evenodd;stroke:#000000;stroke-width:2.0px;stroke-linecap:butt;stroke-linejoin:miter;stroke-opacity:1"/>
<path class="bond-14 atom-13 atom-10" d="M 349.3,692.8 L 367.9,682.1" style="fill:none;fill-rule:evenodd;stroke:#FF0000;stroke-width:2.0px;stroke-linecap:butt;stroke-linejoin:miter;stroke-opacity:1"/>
<path class="bond-14 atom-13 atom-10" d="M 367.9,682.1 L 386.6,671.4" style="fill:none;fill-rule:evenodd;stroke:#000000;stroke-width:2.0px;stroke-linecap:butt;stroke-linejoin:miter;stroke-opacity:1"/>
<path class="bond-15 atom-14 atom-12" d="M 470.9,759.3 L 471.0,705.2" style="fill:none;fill-rule:evenodd;stroke:#000000;stroke-width:2.0px;stroke-linecap:butt;stroke-linejoin:miter;stroke-opacity:1"/>
<path class="bond-16 atom-15 atom-12" d="M 528.8,660.3 L 491.1,681.9" style="fill:none;fill-rule:evenodd;stroke:#000000;stroke-width:2.0px;stroke-linecap:butt;stroke-linejoin:miter;stroke-opacity:1"/>
<path class="bond-17 atom-16 atom-14" d="M 412.2,804.6 L 461.5,776.2" style="fill:none;fill-rule:evenodd;stroke:#000000;stroke-width:2.0px;stroke-linecap:butt;stroke-linejoin:miter;stroke-opacity:1"/>
<path class="bond-18 atom-17 atom-15" d="M 538.3,589.1 L 538.2,643.4" style="fill:none;fill-rule:evenodd;stroke:#000000;stroke-width:2.0px;stroke-linecap:butt;stroke-linejoin:miter;stroke-opacity:1"/>
<path class="bond-19 atom-18 atom-16" d="M 357.0,782.2 L 384.0,797.9" style="fill:none;fill-rule:evenodd;stroke:#000000;stroke-width:2.0px;stroke-linecap:butt;stroke-linejoin:miter;stroke-opacity:1"/>
<path class="bond-19 atom-18 atom-16" d="M 351.1,792.2 L 378.1,807.9" style="fill:none;fill-rule:evenodd;stroke:#000000;stroke-width:2.0px;stroke-linecap:butt;stroke-linejoin:miter;stroke-opacity:1"/>
<path class="bond-20 atom-19 atom-16" d="M 403.6,875.3 L 403.7,820.9" style="fill:none;fill-rule:evenodd;stroke:#000000;stroke-width:2.0px;stroke-linecap:butt;stroke-linejoin:miter;stroke-opacity:1"/>
<path class="bond-21 atom-20 atom-17" d="M 596.0,544.5 L 558.4,566.1" style="fill:none;fill-rule:evenodd;stroke:#000000;stroke-width:2.0px;stroke-linecap:butt;stroke-linejoin:miter;stroke-opacity:1"/>
<path class="bond-22 atom-21 atom-17" d="M 479.9,543.7 L 499.2,554.9" style="fill:none;fill-rule:evenodd;stroke:#FF0000;stroke-width:2.0px;stroke-linecap:butt;stroke-linejoin:miter;stroke-opacity:1"/>
<path class="bond-22 atom-21 atom-17" d="M 499.2,554.9 L 518.5,566.1" style="fill:none;fill-rule:evenodd;stroke:#000000;stroke-width:2.0px;stroke-linecap:butt;stroke-linejoin:miter;stroke-opacity:1"/>
<path class="bond-23 atom-22 atom-18" d="M 278.3,804.1 L 316.4,782.2" style="fill:none;fill-rule:evenodd;stroke:#000000;stroke-width:2.0px;stroke-linecap:butt;stroke-linejoin:miter;stroke-opacity:1"/>
<path class="bond-24 atom-23 atom-19" d="M 356.2,913.9 L 394.2,892.1" style="fill:none;fill-rule:evenodd;stroke:#000000;stroke-width:2.0px;stroke-linecap:butt;stroke-linejoin:miter;stroke-opacity:1"/>
<path class="bond-24 atom-23 atom-19" d="M 350.5,903.8 L 388.5,882.1" style="fill:none;fill-rule:evenodd;stroke:#000000;stroke-width:2.0px;stroke-linecap:butt;stroke-linejoin:miter;stroke-opacity:1"/>
<path class="bond-25 atom-24 atom-20" d="M 605.6,473.1 L 605.5,500.4" style="fill:none;fill-rule:evenodd;stroke:#0000FF;stroke-width:2.0px;stroke-linecap:butt;stroke-linejoin:miter;stroke-opacity:1"/>
<path class="bond-25 atom-24 atom-20" d="M 605.5,500.4 L 605.4,527.6" style="fill:none;fill-rule:evenodd;stroke:#000000;stroke-width:2.0px;stroke-linecap:butt;stroke-linejoin:miter;stroke-opacity:1"/>
<path class="bond-26 atom-25 atom-22" d="M 269.6,874.9 L 269.7,820.8" style="fill:none;fill-rule:evenodd;stroke:#000000;stroke-width:2.0px;stroke-linecap:butt;stroke-linejoin:miter;stroke-opacity:1"/>
<path class="bond-26 atom-25 atom-22" d="M 281.2,875.0 L 281.3,820.8" style="fill:none;fill-rule:evenodd;stroke:#000000;stroke-width:2.0px;stroke-linecap:butt;stroke-linejoin:miter;stroke-opacity:1"/>
<path class="bond-27 atom-25 atom-23" d="M 278.2,891.5 L 316.6,913.7" style="fill:none;fill-rule:evenodd;stroke:#000000;stroke-width:2.0px;stroke-linecap:butt;stroke-linejoin:miter;stroke-opacity:1"/>
<path class="bond-28 atom-26 atom-24" d="M 663.4,428.6 L 644.4,439.5" style="fill:none;fill-rule:evenodd;stroke:#000000;stroke-width:2.0px;stroke-linecap:butt;stroke-linejoin:miter;stroke-opacity:1"/>
<path class="bond-28 atom-26 atom-24" d="M 644.4,439.5 L 625.4,450.3" style="fill:none;fill-rule:evenodd;stroke:#0000FF;stroke-width:2.0px;stroke-linecap:butt;stroke-linejoin:miter;stroke-opacity:1"/>
<path class="bond-29 atom-27 atom-24" d="M 547.4,428.0 L 566.8,439.2" style="fill:none;fill-rule:evenodd;stroke:#000000;stroke-width:2.0px;stroke-linecap:butt;stroke-linejoin:miter;stroke-opacity:1"/>
<path class="bond-29 atom-27 atom-24" d="M 566.8,439.2 L 586.1,450.3" style="fill:none;fill-rule:evenodd;stroke:#0000FF;stroke-width:2.0px;stroke-linecap:butt;stroke-linejoin:miter;stroke-opacity:1"/>
<path class="bond-30 atom-28 atom-26" d="M 672.8,357.5 L 672.7,411.7" style="fill:none;fill-rule:evenodd;stroke:#000000;stroke-width:2.0px;stroke-linecap:butt;stroke-linejoin:miter;stroke-opacity:1"/>
<path class="bond-31 atom-29 atom-26" d="M 719.8,450.5 L 692.6,434.7" style="fill:none;fill-rule:evenodd;stroke:#000000;stroke-width:2.0px;stroke-linecap:butt;stroke-linejoin:miter;stroke-opacity:1"/>
<path class="bond-32 atom-30 atom-27" d="M 538.9,357.0 L 538.7,411.4" style="fill:none;fill-rule:evenodd;stroke:#000000;stroke-width:2.0px;stroke-linecap:butt;stroke-linejoin:miter;stroke-opacity:1"/>
<path class="bond-33 atom-31 atom-28" d="M 625.7,318.3 L 644.5,329.3" style="fill:none;fill-rule:evenodd;stroke:#0000FF;stroke-width:2.0px;stroke-linecap:butt;stroke-linejoin:miter;stroke-opacity:1"/>
<path class="bond-33 atom-31 atom-28" d="M 644.5,329.3 L 663.4,340.3" style="fill:none;fill-rule:evenodd;stroke:#000000;stroke-width:2.0px;stroke-linecap:butt;stroke-linejoin:miter;stroke-opacity:1"/>
<path class="bond-34 atom-31 atom-30" d="M 586.0,318.3 L 566.5,329.6" style="fill:none;fill-rule:evenodd;stroke:#0000FF;stroke-width:2.0px;stroke-linecap:butt;stroke-linejoin:miter;stroke-opacity:1"/>
<path class="bond-34 atom-31 atom-30" d="M 566.5,329.6 L 546.9,340.9" style="fill:none;fill-rule:evenodd;stroke:#000000;stroke-width:2.0px;stroke-linecap:butt;stroke-linejoin:miter;stroke-opacity:1"/>
<path class="bond-35 atom-32 atom-29" d="M 739.4,527.9 L 739.5,500.8" style="fill:none;fill-rule:evenodd;stroke:#0000FF;stroke-width:2.0px;stroke-linecap:butt;stroke-linejoin:miter;stroke-opacity:1"/>
<path class="bond-35 atom-32 atom-29" d="M 739.5,500.8 L 739.6,473.7" style="fill:none;fill-rule:evenodd;stroke:#000000;stroke-width:2.0px;stroke-linecap:butt;stroke-linejoin:miter;stroke-opacity:1"/>
<path class="bond-36 atom-33 atom-29" d="M 798.9,434.6 L 775.2,448.2" style="fill:none;fill-rule:evenodd;stroke:#FF0000;stroke-width:2.0px;stroke-linecap:butt;stroke-linejoin:miter;stroke-opacity:1"/>
<path class="bond-36 atom-33 atom-29" d="M 775.2,448.2 L 751.5,461.9" style="fill:none;fill-rule:evenodd;stroke:#000000;stroke-width:2.0px;stroke-linecap:butt;stroke-linejoin:miter;stroke-opacity:1"/>
<path class="bond-36 atom-33 atom-29" d="M 793.1,424.6 L 769.4,438.2" style="fill:none;fill-rule:evenodd;stroke:#FF0000;stroke-width:2.0px;stroke-linecap:butt;stroke-linejoin:miter;stroke-opacity:1"/>
<path class="bond-36 atom-33 atom-29" d="M 769.4,438.2 L 745.7,451.8" style="fill:none;fill-rule:evenodd;stroke:#000000;stroke-width:2.0px;stroke-linecap:butt;stroke-linejoin:miter;stroke-opacity:1"/>
<path class="bond-37 atom-34 atom-31" d="M 606.1,241.3 L 606.0,268.3" style="fill:none;fill-rule:evenodd;stroke:#000000;stroke-width:2.0px;stroke-linecap:butt;stroke-linejoin:miter;stroke-opacity:1"/>
<path class="bond-37 atom-34 atom-31" d="M 606.0,268.3 L 606.0,295.3" style="fill:none;fill-rule:evenodd;stroke:#0000FF;stroke-width:2.0px;stroke-linecap:butt;stroke-linejoin:miter;stroke-opacity:1"/>
<path class="bond-38 atom-35 atom-32" d="M 786.5,566.7 L 767.2,555.5" style="fill:none;fill-rule:evenodd;stroke:#000000;stroke-width:2.0px;stroke-linecap:butt;stroke-linejoin:miter;stroke-opacity:1"/>
<path class="bond-38 atom-35 atom-32" d="M 767.2,555.5 L 747.9,544.3" style="fill:none;fill-rule:evenodd;stroke:#0000FF;stroke-width:2.0px;stroke-linecap:butt;stroke-linejoin:miter;stroke-opacity:1"/>
<path class="bond-39 atom-36 atom-34" d="M 547.6,195.6 L 596.8,224.1" style="fill:none;fill-rule:evenodd;stroke:#000000;stroke-width:2.0px;stroke-linecap:butt;stroke-linejoin:miter;stroke-opacity:1"/>
<path class="bond-40 atom-37 atom-35" d="M 838.4,523.0 L 813.0,566.7" style="fill:none;fill-rule:evenodd;stroke:#000000;stroke-width:2.0px;stroke-linecap:butt;stroke-linejoin:miter;stroke-opacity:1"/>
<path class="bond-41 atom-38 atom-35" d="M 874.3,578.4 L 815.0,578.2" style="fill:none;fill-rule:evenodd;stroke:#000000;stroke-width:2.0px;stroke-linecap:butt;stroke-linejoin:miter;stroke-opacity:1"/>
<path class="bond-42 atom-39 atom-35" d="M 806.2,644.1 L 806.3,589.9" style="fill:none;fill-rule:evenodd;stroke:#000000;stroke-width:2.0px;stroke-linecap:butt;stroke-linejoin:miter;stroke-opacity:1"/>
<path class="bond-43 atom-40 atom-36" d="M 539.4,125.0 L 539.2,179.4" style="fill:none;fill-rule:evenodd;stroke:#000000;stroke-width:2.0px;stroke-linecap:butt;stroke-linejoin:miter;stroke-opacity:1"/>
<path class="bond-43 atom-40 atom-36" d="M 527.8,125.0 L 527.6,179.4" style="fill:none;fill-rule:evenodd;stroke:#000000;stroke-width:2.0px;stroke-linecap:butt;stroke-linejoin:miter;stroke-opacity:1"/>
<path class="bond-44 atom-41 atom-36" d="M 492.1,217.9 L 518.8,202.5" style="fill:none;fill-rule:evenodd;stroke:#000000;stroke-width:2.0px;stroke-linecap:butt;stroke-linejoin:miter;stroke-opacity:1"/>
<path class="bond-45 atom-42 atom-40" d="M 492.8,86.3 L 530.1,107.9" style="fill:none;fill-rule:evenodd;stroke:#000000;stroke-width:2.0px;stroke-linecap:butt;stroke-linejoin:miter;stroke-opacity:1"/>
<path class="bond-46 atom-43 atom-41" d="M 414.7,195.8 L 433.6,206.8" style="fill:none;fill-rule:evenodd;stroke:#0000FF;stroke-width:2.0px;stroke-linecap:butt;stroke-linejoin:miter;stroke-opacity:1"/>
<path class="bond-46 atom-43 atom-41" d="M 433.6,206.8 L 452.5,217.9" style="fill:none;fill-rule:evenodd;stroke:#000000;stroke-width:2.0px;stroke-linecap:butt;stroke-linejoin:miter;stroke-opacity:1"/>
<path class="bond-46 atom-43 atom-41" d="M 420.6,185.8 L 439.5,196.8" style="fill:none;fill-rule:evenodd;stroke:#0000FF;stroke-width:2.0px;stroke-linecap:butt;stroke-linejoin:miter;stroke-opacity:1"/>
<path class="bond-46 atom-43 atom-41" d="M 439.5,196.8 L 458.3,207.8" style="fill:none;fill-rule:evenodd;stroke:#000000;stroke-width:2.0px;stroke-linecap:butt;stroke-linejoin:miter;stroke-opacity:1"/>
<path class="bond-47 atom-44 atom-42" d="M 413.9,108.1 L 452.0,86.3" style="fill:none;fill-rule:evenodd;stroke:#000000;stroke-width:2.0px;stroke-linecap:butt;stroke-linejoin:miter;stroke-opacity:1"/>
<path class="bond-47 atom-44 atom-42" d="M 419.7,118.1 L 457.7,96.4" style="fill:none;fill-rule:evenodd;stroke:#000000;stroke-width:2.0px;stroke-linecap:butt;stroke-linejoin:miter;stroke-opacity:1"/>
<path class="bond-48 atom-44 atom-43" d="M 405.4,124.7 L 405.4,151.8" style="fill:none;fill-rule:evenodd;stroke:#000000;stroke-width:2.0px;stroke-linecap:butt;stroke-linejoin:miter;stroke-opacity:1"/>
<path class="bond-48 atom-44 atom-43" d="M 405.4,151.8 L 405.4,178.9" style="fill:none;fill-rule:evenodd;stroke:#0000FF;stroke-width:2.0px;stroke-linecap:butt;stroke-linejoin:miter;stroke-opacity:1"/>
<path class="atom-0" d="M 253.3 569.7 Q 253.3 565.3, 255.4 563.0 Q 257.5 560.7, 261.4 560.7 Q 265.0 560.7, 267.0 563.3 L 265.3 564.6 Q 263.9 562.7, 261.4 562.7 Q 258.7 562.7, 257.3 564.5 Q 255.9 566.3, 255.9 569.7 Q 255.9 573.2, 257.3 575.0 Q 258.8 576.8, 261.7 576.8 Q 263.6 576.8, 265.9 575.6 L 266.6 577.5 Q 265.7 578.1, 264.3 578.5 Q 262.9 578.8, 261.3 578.8 Q 257.5 578.8, 255.4 576.5 Q 253.3 574.1, 253.3 569.7 " fill="#000000"/>
<path class="atom-0" d="M 270.2 576.6 L 274.1 576.6 L 274.1 563.4 L 269.8 564.7 L 269.2 563.2 L 274.6 560.8 L 276.4 561.1 L 276.4 576.6 L 279.9 576.6 L 279.9 578.6 L 270.2 578.6 L 270.2 576.6 " fill="#000000"/>
<path class="atom-1" d="M 330.6 538.5 Q 330.6 534.1, 332.6 531.8 Q 334.7 529.5, 338.6 529.5 Q 342.3 529.5, 344.2 532.0 L 342.6 533.4 Q 341.2 531.5, 338.6 531.5 Q 336.0 531.5, 334.5 533.3 Q 333.1 535.1, 333.1 538.5 Q 333.1 542.0, 334.6 543.8 Q 336.1 545.6, 338.9 545.6 Q 340.9 545.6, 343.1 544.4 L 343.8 546.3 Q 342.9 546.9, 341.5 547.2 Q 340.1 547.6, 338.6 547.6 Q 334.7 547.6, 332.6 545.2 Q 330.6 542.9, 330.6 538.5 " fill="#000000"/>
<path class="atom-1" d="M 346.6 533.0 Q 347.2 531.3, 348.8 530.4 Q 350.3 529.5, 352.5 529.5 Q 355.1 529.5, 356.6 530.9 Q 358.1 532.4, 358.1 534.9 Q 358.1 537.6, 356.2 540.0 Q 354.3 542.5, 350.3 545.4 L 358.4 545.4 L 358.4 547.4 L 346.5 547.4 L 346.5 545.7 Q 349.8 543.3, 351.8 541.6 Q 353.7 539.8, 354.7 538.3 Q 355.6 536.7, 355.6 535.1 Q 355.6 533.4, 354.8 532.4 Q 353.9 531.5, 352.5 531.5 Q 351.0 531.5, 350.1 532.0 Q 349.1 532.6, 348.5 533.9 L 346.6 533.0 " fill="#000000"/>
<path class="atom-2" d="M 193.1 512.2 Q 193.1 507.8, 195.1 505.5 Q 197.2 503.1, 201.1 503.1 Q 204.8 503.1, 206.7 505.7 L 205.1 507.1 Q 203.6 505.2, 201.1 505.2 Q 198.4 505.2, 197.0 507.0 Q 195.6 508.8, 195.6 512.2 Q 195.6 515.7, 197.1 517.5 Q 198.5 519.3, 201.4 519.3 Q 203.3 519.3, 205.6 518.1 L 206.3 520.0 Q 205.4 520.6, 204.0 520.9 Q 202.6 521.3, 201.0 521.3 Q 197.2 521.3, 195.1 518.9 Q 193.1 516.6, 193.1 512.2 " fill="#000000"/>
<path class="atom-2" d="M 217.5 511.7 Q 219.2 512.2, 220.0 513.3 Q 220.9 514.4, 220.9 516.2 Q 220.9 517.7, 220.1 518.9 Q 219.4 520.0, 218.0 520.7 Q 216.6 521.3, 214.8 521.3 Q 212.9 521.3, 211.5 520.6 Q 210.1 520.0, 209.0 518.6 L 210.4 517.2 Q 211.5 518.4, 212.4 518.8 Q 213.4 519.3, 214.8 519.3 Q 216.4 519.3, 217.4 518.4 Q 218.4 517.6, 218.4 516.2 Q 218.4 514.4, 217.4 513.6 Q 216.4 512.7, 214.2 512.7 L 212.9 512.7 L 212.9 510.9 L 214.0 510.9 Q 216.0 510.9, 217.0 510.1 Q 218.0 509.2, 218.0 507.7 Q 218.0 506.5, 217.2 505.8 Q 216.3 505.1, 214.9 505.1 Q 213.4 505.1, 212.5 505.7 Q 211.6 506.2, 210.9 507.5 L 209.1 506.6 Q 209.8 505.1, 211.3 504.1 Q 212.8 503.1, 214.9 503.1 Q 217.5 503.1, 219.0 504.4 Q 220.5 505.6, 220.5 507.7 Q 220.5 509.1, 219.7 510.1 Q 219.0 511.1, 217.5 511.7 " fill="#000000"/>
<path class="atom-3" d="M 235.7 643.4 Q 235.7 639.0, 237.7 636.7 Q 239.8 634.3, 243.7 634.3 Q 247.4 634.3, 249.3 636.9 L 247.7 638.3 Q 246.2 636.4, 243.7 636.4 Q 241.0 636.4, 239.6 638.2 Q 238.2 640.0, 238.2 643.4 Q 238.2 646.9, 239.7 648.7 Q 241.1 650.5, 244.0 650.5 Q 245.9 650.5, 248.2 649.3 L 248.9 651.2 Q 248.0 651.8, 246.6 652.1 Q 245.2 652.5, 243.6 652.5 Q 239.8 652.5, 237.7 650.1 Q 235.7 647.8, 235.7 643.4 " fill="#000000"/>
<path class="atom-3" d="M 263.2 646.2 L 265.3 646.2 L 265.3 648.2 L 263.2 648.2 L 263.2 652.2 L 260.8 652.2 L 260.8 648.2 L 251.7 648.2 L 251.7 646.6 L 259.4 634.5 L 263.2 634.5 L 263.2 646.2 M 254.6 646.2 L 260.8 646.2 L 260.8 636.1 L 254.6 646.2 " fill="#000000"/>
<path class="atom-4" d="M 322.6 461.5 Q 322.6 457.1, 324.7 454.8 Q 326.7 452.5, 330.7 452.5 Q 334.3 452.5, 336.3 455.0 L 334.6 456.4 Q 333.2 454.5, 330.7 454.5 Q 328.0 454.5, 326.6 456.3 Q 325.2 458.1, 325.2 461.5 Q 325.2 465.0, 326.6 466.8 Q 328.1 468.6, 330.9 468.6 Q 332.9 468.6, 335.2 467.4 L 335.9 469.3 Q 334.9 469.9, 333.5 470.2 Q 332.1 470.6, 330.6 470.6 Q 326.7 470.6, 324.7 468.2 Q 322.6 465.9, 322.6 461.5 " fill="#000000"/>
<path class="atom-4" d="M 345.0 459.3 Q 346.5 459.3, 347.8 460.0 Q 349.1 460.6, 349.8 461.9 Q 350.5 463.1, 350.5 464.8 Q 350.5 466.6, 349.6 467.9 Q 348.7 469.2, 347.3 469.9 Q 345.8 470.6, 344.2 470.6 Q 342.6 470.6, 341.1 470.0 Q 339.6 469.4, 338.5 468.2 L 340.0 466.7 Q 340.9 467.6, 342.0 468.1 Q 343.1 468.5, 344.3 468.5 Q 345.8 468.5, 346.9 467.6 Q 348.0 466.6, 348.0 464.8 Q 348.0 462.9, 346.9 462.1 Q 345.8 461.2, 344.1 461.2 Q 342.6 461.2, 340.8 461.8 L 339.5 461.2 L 340.3 452.7 L 349.4 452.7 L 349.2 454.7 L 342.4 454.7 L 341.8 459.9 Q 343.4 459.3, 345.0 459.3 " fill="#000000"/>
<path class="atom-5" d="M 400.4 568.5 L 406.2 577.9 Q 406.7 578.8, 407.7 580.5 Q 408.6 582.1, 408.6 582.2 L 408.6 568.5 L 411.0 568.5 L 411.0 586.2 L 408.6 586.2 L 402.3 575.9 Q 401.6 574.7, 400.8 573.4 Q 400.1 572.0, 399.9 571.6 L 399.9 586.2 L 397.6 586.2 L 397.6 568.5 L 400.4 568.5 " fill="#0000FF"/>
<path class="atom-5" d="M 421.3 575.1 Q 422.8 575.1, 424.0 575.8 Q 425.3 576.5, 425.9 577.7 Q 426.6 578.9, 426.6 580.5 Q 426.6 582.2, 425.8 583.6 Q 425.1 584.9, 423.7 585.6 Q 422.4 586.4, 420.7 586.4 Q 417.5 586.4, 415.9 584.3 Q 414.3 582.1, 414.3 577.9 Q 414.3 573.2, 416.3 570.7 Q 418.3 568.3, 422.0 568.3 Q 423.1 568.3, 424.1 568.5 Q 425.0 568.8, 425.9 569.3 L 424.9 571.0 Q 423.6 570.3, 422.1 570.3 Q 419.6 570.3, 418.3 571.9 Q 417.0 573.5, 416.9 576.8 Q 417.8 576.0, 418.9 575.6 Q 420.0 575.1, 421.3 575.1 M 420.7 584.3 Q 421.6 584.3, 422.4 583.8 Q 423.2 583.3, 423.7 582.5 Q 424.1 581.6, 424.1 580.5 Q 424.1 578.9, 423.2 578.0 Q 422.4 577.1, 420.8 577.1 Q 419.7 577.1, 418.7 577.6 Q 417.6 578.0, 416.9 578.8 Q 417.0 581.7, 417.9 583.0 Q 418.8 584.3, 420.7 584.3 " fill="#0000FF"/>
<path class="atom-6" d="M 232.1 445.2 Q 232.1 440.8, 234.1 438.5 Q 236.2 436.2, 240.1 436.2 Q 243.8 436.2, 245.7 438.8 L 244.1 440.1 Q 242.7 438.3, 240.1 438.3 Q 237.5 438.3, 236.0 440.1 Q 234.6 441.8, 234.6 445.2 Q 234.6 448.7, 236.1 450.5 Q 237.6 452.3, 240.4 452.3 Q 242.4 452.3, 244.6 451.2 L 245.3 453.0 Q 244.4 453.6, 243.0 454.0 Q 241.6 454.3, 240.1 454.3 Q 236.2 454.3, 234.1 452.0 Q 232.1 449.6, 232.1 445.2 " fill="#000000"/>
<path class="atom-6" d="M 257.3 438.4 L 248.0 438.4 L 248.0 436.4 L 259.8 436.4 L 259.8 438.2 L 252.6 454.1 L 250.2 454.1 L 257.3 438.4 " fill="#000000"/>
<path class="atom-7" d="M 117.2 528.0 Q 117.2 523.6, 119.2 521.3 Q 121.3 519.0, 125.2 519.0 Q 128.9 519.0, 130.8 521.6 L 129.2 522.9 Q 127.7 521.0, 125.2 521.0 Q 122.5 521.0, 121.1 522.8 Q 119.7 524.6, 119.7 528.0 Q 119.7 531.5, 121.2 533.3 Q 122.6 535.1, 125.5 535.1 Q 127.4 535.1, 129.7 533.9 L 130.4 535.8 Q 129.5 536.4, 128.1 536.8 Q 126.7 537.1, 125.1 537.1 Q 121.3 537.1, 119.2 534.8 Q 117.2 532.4, 117.2 528.0 " fill="#000000"/>
<path class="atom-7" d="M 142.1 527.5 Q 143.8 528.2, 144.7 529.3 Q 145.6 530.3, 145.6 532.0 Q 145.6 533.5, 144.8 534.7 Q 144.1 535.9, 142.7 536.5 Q 141.3 537.1, 139.5 537.1 Q 136.5 537.1, 134.8 535.8 Q 133.1 534.4, 133.1 532.0 Q 133.1 530.6, 133.9 529.5 Q 134.6 528.4, 136.2 527.6 Q 135.0 526.9, 134.4 526.0 Q 133.8 525.0, 133.8 523.5 Q 133.8 521.4, 135.3 520.2 Q 136.8 519.0, 139.4 519.0 Q 141.9 519.0, 143.4 520.2 Q 145.0 521.4, 145.0 523.5 Q 145.0 524.8, 144.2 525.8 Q 143.5 526.7, 142.1 527.5 M 139.4 520.9 Q 137.9 520.9, 137.1 521.6 Q 136.3 522.3, 136.3 523.5 Q 136.3 524.4, 136.8 525.1 Q 137.4 525.7, 138.1 526.0 Q 138.9 526.4, 140.5 526.9 Q 141.5 526.1, 142.0 525.3 Q 142.5 524.5, 142.5 523.5 Q 142.5 522.3, 141.6 521.6 Q 140.8 520.9, 139.4 520.9 M 139.5 535.3 Q 141.1 535.3, 142.1 534.4 Q 143.1 533.5, 143.1 532.0 Q 143.1 531.1, 142.6 530.5 Q 142.1 529.9, 141.3 529.5 Q 140.5 529.2, 139.1 528.7 L 138.0 528.3 Q 136.7 529.1, 136.2 530.0 Q 135.6 530.9, 135.6 532.0 Q 135.6 533.5, 136.7 534.4 Q 137.7 535.3, 139.5 535.3 " fill="#000000"/>
<path class="atom-8" d="M 152.7 659.1 Q 152.7 654.7, 154.7 652.4 Q 156.8 650.1, 160.7 650.1 Q 164.4 650.1, 166.3 652.7 L 164.7 654.0 Q 163.2 652.2, 160.7 652.2 Q 158.0 652.2, 156.6 654.0 Q 155.2 655.7, 155.2 659.1 Q 155.2 662.6, 156.7 664.4 Q 158.1 666.2, 161.0 666.2 Q 162.9 666.2, 165.2 665.1 L 165.9 666.9 Q 165.0 667.5, 163.6 667.9 Q 162.2 668.2, 160.6 668.2 Q 156.8 668.2, 154.7 665.9 Q 152.7 663.5, 152.7 659.1 " fill="#000000"/>
<path class="atom-8" d="M 174.5 650.1 Q 177.7 650.1, 179.3 652.3 Q 180.9 654.4, 180.9 658.6 Q 180.9 663.3, 178.9 665.8 Q 176.9 668.2, 173.2 668.2 Q 172.1 668.2, 171.1 668.0 Q 170.2 667.7, 169.3 667.2 L 170.3 665.5 Q 171.6 666.2, 173.1 666.2 Q 175.6 666.2, 176.9 664.6 Q 178.2 663.0, 178.3 659.7 Q 177.4 660.5, 176.3 660.9 Q 175.2 661.4, 173.9 661.4 Q 172.4 661.4, 171.2 660.7 Q 169.9 660.0, 169.3 658.8 Q 168.6 657.6, 168.6 656.0 Q 168.6 654.3, 169.3 653.0 Q 170.1 651.6, 171.5 650.9 Q 172.8 650.1, 174.5 650.1 M 171.1 656.0 Q 171.1 657.6, 172.0 658.5 Q 172.8 659.4, 174.4 659.4 Q 175.5 659.4, 176.5 658.9 Q 177.6 658.5, 178.3 657.7 Q 178.2 654.8, 177.3 653.5 Q 176.4 652.2, 174.5 652.2 Q 173.6 652.2, 172.8 652.7 Q 172.0 653.2, 171.5 654.0 Q 171.1 654.9, 171.1 656.0 " fill="#000000"/>
<path class="atom-9" d="M 379.0 409.9 Q 379.0 405.6, 381.1 403.3 Q 383.2 400.9, 387.2 400.9 Q 391.1 400.9, 393.2 403.3 Q 395.3 405.6, 395.3 409.9 Q 395.3 414.2, 393.2 416.6 Q 391.0 419.1, 387.2 419.1 Q 383.3 419.1, 381.1 416.6 Q 379.0 414.2, 379.0 409.9 M 387.2 417.1 Q 389.9 417.1, 391.3 415.3 Q 392.8 413.4, 392.8 409.9 Q 392.8 406.4, 391.3 404.7 Q 389.9 402.9, 387.2 402.9 Q 384.5 402.9, 383.0 404.6 Q 381.5 406.4, 381.5 409.9 Q 381.5 413.5, 383.0 415.3 Q 384.5 417.1, 387.2 417.1 " fill="#FF0000"/>
<path class="atom-9" d="M 398.9 416.8 L 402.7 416.8 L 402.7 403.6 L 398.5 404.9 L 397.9 403.4 L 403.3 401.0 L 405.1 401.3 L 405.1 416.8 L 408.6 416.8 L 408.6 418.8 L 398.9 418.8 L 398.9 416.8 " fill="#FF0000"/>
<path class="atom-9" d="M 417.4 419.0 Q 414.2 419.0, 412.5 416.6 Q 410.9 414.2, 410.9 409.9 Q 410.9 405.6, 412.5 403.3 Q 414.1 400.9, 417.4 400.9 Q 420.7 400.9, 422.3 403.3 Q 423.9 405.6, 423.9 409.9 Q 423.9 414.2, 422.3 416.6 Q 420.7 419.0, 417.4 419.0 M 417.4 417.0 Q 419.3 417.0, 420.4 415.2 Q 421.4 413.4, 421.4 409.9 Q 421.4 406.4, 420.4 404.7 Q 419.3 402.9, 417.4 402.9 Q 415.5 402.9, 414.5 404.7 Q 413.4 406.4, 413.4 409.9 Q 413.4 413.4, 414.5 415.2 Q 415.5 417.0, 417.4 417.0 " fill="#FF0000"/>
<path class="atom-10" d="M 370.1 654.7 Q 370.1 650.3, 372.1 648.0 Q 374.2 645.7, 378.1 645.7 Q 381.8 645.7, 383.7 648.2 L 382.1 649.6 Q 380.6 647.7, 378.1 647.7 Q 375.4 647.7, 374.0 649.5 Q 372.6 651.3, 372.6 654.7 Q 372.6 658.2, 374.1 660.0 Q 375.5 661.8, 378.4 661.8 Q 380.3 661.8, 382.6 660.6 L 383.3 662.5 Q 382.4 663.1, 381.0 663.4 Q 379.6 663.8, 378.0 663.8 Q 374.2 663.8, 372.1 661.4 Q 370.1 659.1, 370.1 654.7 " fill="#000000"/>
<path class="atom-10" d="M 386.8 661.6 L 390.7 661.6 L 390.7 648.3 L 386.4 649.7 L 385.9 648.2 L 391.3 645.8 L 393.1 646.1 L 393.1 661.6 L 396.5 661.6 L 396.5 663.6 L 386.8 663.6 L 386.8 661.6 " fill="#000000"/>
<path class="atom-10" d="M 399.7 661.6 L 403.6 661.6 L 403.6 648.3 L 399.3 649.7 L 398.8 648.2 L 404.2 645.8 L 406.0 646.1 L 406.0 661.6 L 409.4 661.6 L 409.4 663.6 L 399.7 663.6 L 399.7 661.6 " fill="#000000"/>
<path class="atom-11" d="M 80.3 601.6 Q 80.3 597.2, 82.4 594.9 Q 84.4 592.5, 88.4 592.5 Q 92.0 592.5, 94.0 595.1 L 92.3 596.5 Q 90.9 594.6, 88.4 594.6 Q 85.7 594.6, 84.3 596.4 Q 82.9 598.2, 82.9 601.6 Q 82.9 605.1, 84.3 606.9 Q 85.8 608.7, 88.6 608.7 Q 90.6 608.7, 92.9 607.5 L 93.6 609.4 Q 92.6 610.0, 91.2 610.3 Q 89.8 610.7, 88.3 610.7 Q 84.4 610.7, 82.4 608.3 Q 80.3 606.0, 80.3 601.6 " fill="#000000"/>
<path class="atom-11" d="M 97.1 608.4 L 101.0 608.4 L 101.0 595.2 L 96.7 596.5 L 96.2 595.1 L 101.6 592.6 L 103.4 592.9 L 103.4 608.4 L 106.8 608.4 L 106.8 610.4 L 97.1 610.4 L 97.1 608.4 " fill="#000000"/>
<path class="atom-11" d="M 109.2 596.1 Q 109.8 594.4, 111.4 593.5 Q 112.9 592.5, 115.1 592.5 Q 117.7 592.5, 119.2 594.0 Q 120.7 595.4, 120.7 598.0 Q 120.7 600.6, 118.8 603.1 Q 116.9 605.5, 112.9 608.4 L 121.0 608.4 L 121.0 610.4 L 109.1 610.4 L 109.1 608.8 Q 112.4 606.4, 114.4 604.7 Q 116.3 602.9, 117.3 601.3 Q 118.2 599.8, 118.2 598.1 Q 118.2 596.4, 117.4 595.5 Q 116.5 594.5, 115.1 594.5 Q 113.6 594.5, 112.7 595.1 Q 111.7 595.7, 111.1 597.0 L 109.2 596.1 " fill="#000000"/>
<path class="atom-12" d="M 464.2 693.5 Q 464.2 689.1, 466.3 686.8 Q 468.3 684.5, 472.3 684.5 Q 475.9 684.5, 477.9 687.1 L 476.2 688.4 Q 474.8 686.5, 472.3 686.5 Q 469.6 686.5, 468.2 688.3 Q 466.8 690.1, 466.8 693.5 Q 466.8 697.0, 468.2 698.8 Q 469.7 700.6, 472.5 700.6 Q 474.5 700.6, 476.8 699.4 L 477.5 701.3 Q 476.5 701.9, 475.1 702.3 Q 473.7 702.6, 472.2 702.6 Q 468.3 702.6, 466.3 700.3 Q 464.2 697.9, 464.2 693.5 " fill="#000000"/>
<path class="atom-12" d="M 481.0 700.4 L 484.9 700.4 L 484.9 687.2 L 480.6 688.5 L 480.1 687.0 L 485.5 684.6 L 487.3 684.9 L 487.3 700.4 L 490.7 700.4 L 490.7 702.4 L 481.0 702.4 L 481.0 700.4 " fill="#000000"/>
<path class="atom-12" d="M 501.5 693.1 Q 503.2 693.6, 504.1 694.7 Q 504.9 695.8, 504.9 697.5 Q 504.9 699.0, 504.2 700.2 Q 503.4 701.4, 502.0 702.0 Q 500.7 702.6, 498.9 702.6 Q 497.0 702.6, 495.5 702.0 Q 494.1 701.3, 493.0 700.0 L 494.4 698.5 Q 495.5 699.7, 496.5 700.2 Q 497.4 700.6, 498.9 700.6 Q 500.5 700.6, 501.4 699.8 Q 502.4 698.9, 502.4 697.5 Q 502.4 695.7, 501.4 694.9 Q 500.4 694.1, 498.2 694.1 L 496.9 694.1 L 496.9 692.3 L 498.1 692.3 Q 500.0 692.3, 501.0 691.4 Q 502.0 690.6, 502.0 689.0 Q 502.0 687.9, 501.2 687.2 Q 500.3 686.5, 498.9 686.5 Q 497.4 686.5, 496.5 687.0 Q 495.6 687.5, 494.9 688.9 L 493.2 687.9 Q 493.8 686.5, 495.3 685.5 Q 496.8 684.5, 498.9 684.5 Q 501.5 684.5, 503.0 685.7 Q 504.5 686.9, 504.5 689.0 Q 504.5 690.4, 503.8 691.5 Q 503.0 692.5, 501.5 693.1 " fill="#000000"/>
<path class="atom-13" d="M 298.3 693.2 Q 298.3 688.9, 300.4 686.6 Q 302.5 684.2, 306.4 684.2 Q 310.3 684.2, 312.4 686.6 Q 314.5 688.9, 314.5 693.2 Q 314.5 697.5, 312.4 699.9 Q 310.3 702.4, 306.4 702.4 Q 302.5 702.4, 300.4 699.9 Q 298.3 697.5, 298.3 693.2 M 306.4 700.4 Q 309.1 700.4, 310.6 698.6 Q 312.0 696.7, 312.0 693.2 Q 312.0 689.7, 310.6 688.0 Q 309.1 686.2, 306.4 686.2 Q 303.7 686.2, 302.2 687.9 Q 300.8 689.7, 300.8 693.2 Q 300.8 696.8, 302.2 698.6 Q 303.7 700.4, 306.4 700.4 " fill="#FF0000"/>
<path class="atom-13" d="M 318.1 700.1 L 322.0 700.1 L 322.0 686.9 L 317.7 688.2 L 317.1 686.7 L 322.6 684.3 L 324.3 684.6 L 324.3 700.1 L 327.8 700.1 L 327.8 702.1 L 318.1 702.1 L 318.1 700.1 " fill="#FF0000"/>
<path class="atom-13" d="M 341.7 696.0 L 343.8 696.0 L 343.8 698.0 L 341.7 698.0 L 341.7 702.1 L 339.4 702.1 L 339.4 698.0 L 330.2 698.0 L 330.2 696.4 L 338.0 684.4 L 341.7 684.4 L 341.7 696.0 M 333.1 696.0 L 339.4 696.0 L 339.4 686.0 L 333.1 696.0 " fill="#FF0000"/>
<path class="atom-14" d="M 464.0 770.9 Q 464.0 766.5, 466.1 764.2 Q 468.2 761.9, 472.1 761.9 Q 475.7 761.9, 477.7 764.4 L 476.0 765.8 Q 474.6 763.9, 472.1 763.9 Q 469.4 763.9, 468.0 765.7 Q 466.6 767.5, 466.6 770.9 Q 466.6 774.4, 468.0 776.2 Q 469.5 778.0, 472.4 778.0 Q 474.3 778.0, 476.6 776.8 L 477.3 778.7 Q 476.4 779.3, 475.0 779.6 Q 473.6 780.0, 472.0 780.0 Q 468.2 780.0, 466.1 777.6 Q 464.0 775.3, 464.0 770.9 " fill="#000000"/>
<path class="atom-14" d="M 480.9 777.8 L 484.8 777.8 L 484.8 764.5 L 480.5 765.9 L 479.9 764.4 L 485.3 762.0 L 487.1 762.3 L 487.1 777.8 L 490.6 777.8 L 490.6 779.8 L 480.9 779.8 L 480.9 777.8 " fill="#000000"/>
<path class="atom-14" d="M 499.3 768.7 Q 500.8 768.7, 502.1 769.4 Q 503.4 770.0, 504.1 771.3 Q 504.8 772.5, 504.8 774.2 Q 504.8 776.0, 503.9 777.3 Q 503.0 778.6, 501.6 779.3 Q 500.1 780.0, 498.5 780.0 Q 496.9 780.0, 495.4 779.4 Q 493.9 778.8, 492.8 777.6 L 494.3 776.1 Q 495.2 777.0, 496.3 777.5 Q 497.4 777.9, 498.6 777.9 Q 500.1 777.9, 501.2 777.0 Q 502.3 776.0, 502.3 774.2 Q 502.3 772.3, 501.2 771.5 Q 500.1 770.6, 498.4 770.6 Q 496.9 770.6, 495.1 771.2 L 493.8 770.6 L 494.6 762.1 L 503.7 762.1 L 503.5 764.1 L 496.7 764.1 L 496.1 769.3 Q 497.7 768.7, 499.3 768.7 " fill="#000000"/>
<path class="atom-15" d="M 531.3 655.0 Q 531.3 650.6, 533.4 648.3 Q 535.4 646.0, 539.4 646.0 Q 543.0 646.0, 545.0 648.6 L 543.3 649.9 Q 541.9 648.0, 539.4 648.0 Q 536.7 648.0, 535.3 649.8 Q 533.9 651.6, 533.9 655.0 Q 533.9 658.5, 535.3 660.3 Q 536.8 662.1, 539.6 662.1 Q 541.6 662.1, 543.9 660.9 L 544.6 662.8 Q 543.6 663.4, 542.2 663.8 Q 540.8 664.1, 539.3 664.1 Q 535.4 664.1, 533.4 661.8 Q 531.3 659.4, 531.3 655.0 " fill="#000000"/>
<path class="atom-15" d="M 548.2 661.9 L 552.0 661.9 L 552.0 648.7 L 547.8 650.0 L 547.2 648.5 L 552.6 646.1 L 554.4 646.4 L 554.4 661.9 L 557.9 661.9 L 557.9 663.9 L 548.2 663.9 L 548.2 661.9 " fill="#000000"/>
<path class="atom-15" d="M 567.0 652.8 Q 568.6 652.8, 569.8 653.5 Q 571.0 654.2, 571.7 655.4 Q 572.4 656.6, 572.4 658.2 Q 572.4 659.9, 571.6 661.3 Q 570.9 662.6, 569.5 663.3 Q 568.2 664.1, 566.4 664.1 Q 563.3 664.1, 561.7 662.0 Q 560.1 659.8, 560.1 655.6 Q 560.1 650.9, 562.1 648.4 Q 564.0 646.0, 567.8 646.0 Q 568.9 646.0, 569.8 646.2 Q 570.8 646.5, 571.7 647.0 L 570.7 648.7 Q 569.4 648.0, 567.8 648.0 Q 565.3 648.0, 564.1 649.6 Q 562.8 651.2, 562.6 654.5 Q 563.5 653.7, 564.7 653.3 Q 565.8 652.8, 567.0 652.8 M 566.5 662.0 Q 567.4 662.0, 568.2 661.5 Q 569.0 661.0, 569.4 660.2 Q 569.9 659.3, 569.9 658.2 Q 569.9 656.6, 569.0 655.7 Q 568.1 654.8, 566.6 654.8 Q 565.5 654.8, 564.4 655.3 Q 563.4 655.7, 562.6 656.5 Q 562.7 659.4, 563.7 660.7 Q 564.6 662.0, 566.5 662.0 " fill="#000000"/>
<path class="atom-16" d="M 369.1 809.5 Q 369.1 805.1, 371.1 802.8 Q 373.2 800.4, 377.1 800.4 Q 380.8 800.4, 382.7 803.0 L 381.1 804.4 Q 379.6 802.5, 377.1 802.5 Q 374.4 802.5, 373.0 804.3 Q 371.6 806.1, 371.6 809.5 Q 371.6 813.0, 373.1 814.8 Q 374.5 816.6, 377.4 816.6 Q 379.3 816.6, 381.6 815.4 L 382.3 817.3 Q 381.4 817.9, 380.0 818.2 Q 378.6 818.6, 377.0 818.6 Q 373.2 818.6, 371.1 816.2 Q 369.1 813.9, 369.1 809.5 " fill="#000000"/>
<path class="atom-16" d="M 385.9 816.3 L 389.8 816.3 L 389.8 803.1 L 385.5 804.4 L 384.9 803.0 L 390.4 800.5 L 392.1 800.8 L 392.1 816.3 L 395.6 816.3 L 395.6 818.3 L 385.9 818.3 L 385.9 816.3 " fill="#000000"/>
<path class="atom-16" d="M 407.1 802.6 L 397.9 802.6 L 397.9 800.6 L 409.6 800.6 L 409.6 802.4 L 402.5 818.3 L 400.1 818.3 L 407.1 802.6 " fill="#000000"/>
<path class="atom-17" d="M 517.7 577.7 Q 517.7 573.3, 519.7 571.0 Q 521.8 568.6, 525.7 568.6 Q 529.4 568.6, 531.3 571.2 L 529.7 572.6 Q 528.2 570.7, 525.7 570.7 Q 523.0 570.7, 521.6 572.5 Q 520.2 574.3, 520.2 577.7 Q 520.2 581.2, 521.7 583.0 Q 523.1 584.8, 526.0 584.8 Q 527.9 584.8, 530.2 583.6 L 530.9 585.5 Q 530.0 586.1, 528.6 586.4 Q 527.2 586.8, 525.6 586.8 Q 521.8 586.8, 519.7 584.4 Q 517.7 582.1, 517.7 577.7 " fill="#000000"/>
<path class="atom-17" d="M 534.5 584.5 L 538.4 584.5 L 538.4 571.3 L 534.1 572.6 L 533.5 571.2 L 539.0 568.7 L 540.7 569.0 L 540.7 584.5 L 544.2 584.5 L 544.2 586.5 L 534.5 586.5 L 534.5 584.5 " fill="#000000"/>
<path class="atom-17" d="M 555.5 577.2 Q 557.1 577.9, 558.1 578.9 Q 559.0 579.9, 559.0 581.7 Q 559.0 583.2, 558.2 584.4 Q 557.4 585.5, 556.0 586.2 Q 554.7 586.8, 552.8 586.8 Q 549.9 586.8, 548.2 585.4 Q 546.5 584.1, 546.5 581.7 Q 546.5 580.2, 547.2 579.2 Q 548.0 578.1, 549.5 577.2 Q 548.4 576.6, 547.8 575.6 Q 547.1 574.7, 547.1 573.2 Q 547.1 571.1, 548.6 569.9 Q 550.2 568.6, 552.7 568.6 Q 555.3 568.6, 556.8 569.9 Q 558.3 571.1, 558.3 573.2 Q 558.3 574.5, 557.6 575.4 Q 556.9 576.4, 555.5 577.2 M 552.7 570.5 Q 551.3 570.5, 550.4 571.2 Q 549.6 571.9, 549.6 573.2 Q 549.6 574.1, 550.2 574.7 Q 550.7 575.3, 551.5 575.7 Q 552.3 576.0, 553.8 576.5 Q 554.9 575.8, 555.4 575.0 Q 555.8 574.2, 555.8 573.2 Q 555.8 571.9, 555.0 571.2 Q 554.2 570.5, 552.7 570.5 M 552.8 584.9 Q 554.5 584.9, 555.5 584.0 Q 556.5 583.1, 556.5 581.7 Q 556.5 580.7, 556.0 580.1 Q 555.4 579.5, 554.6 579.2 Q 553.9 578.8, 552.5 578.4 L 551.3 578.0 Q 550.1 578.7, 549.5 579.6 Q 549.0 580.5, 549.0 581.7 Q 549.0 583.1, 550.0 584.0 Q 551.1 584.9, 552.8 584.9 " fill="#000000"/>
<path class="atom-18" d="M 316.3 770.6 Q 316.3 766.2, 318.3 763.9 Q 320.4 761.5, 324.3 761.5 Q 328.0 761.5, 329.9 764.1 L 328.3 765.5 Q 326.9 763.6, 324.3 763.6 Q 321.7 763.6, 320.2 765.4 Q 318.8 767.2, 318.8 770.6 Q 318.8 774.1, 320.3 775.9 Q 321.8 777.7, 324.6 777.7 Q 326.6 777.7, 328.8 776.5 L 329.5 778.4 Q 328.6 779.0, 327.2 779.3 Q 325.8 779.7, 324.3 779.7 Q 320.4 779.7, 318.3 777.3 Q 316.3 775.0, 316.3 770.6 " fill="#000000"/>
<path class="atom-18" d="M 333.1 777.4 L 337.0 777.4 L 337.0 764.2 L 332.7 765.5 L 332.2 764.1 L 337.6 761.6 L 339.4 761.9 L 339.4 777.4 L 342.8 777.4 L 342.8 779.4 L 333.1 779.4 L 333.1 777.4 " fill="#000000"/>
<path class="atom-18" d="M 351.1 761.5 Q 354.2 761.5, 355.8 763.7 Q 357.4 765.8, 357.4 770.1 Q 357.4 774.8, 355.4 777.2 Q 353.5 779.6, 349.7 779.6 Q 348.6 779.6, 347.6 779.4 Q 346.7 779.1, 345.8 778.6 L 346.8 776.9 Q 348.1 777.6, 349.7 777.6 Q 352.2 777.6, 353.4 776.0 Q 354.7 774.4, 354.9 771.1 Q 354.0 771.9, 352.8 772.4 Q 351.7 772.8, 350.5 772.8 Q 348.9 772.8, 347.7 772.1 Q 346.5 771.4, 345.8 770.2 Q 345.1 769.0, 345.1 767.4 Q 345.1 765.7, 345.9 764.4 Q 346.6 763.0, 348.0 762.3 Q 349.3 761.5, 351.1 761.5 M 347.6 767.4 Q 347.6 769.0, 348.5 769.9 Q 349.4 770.8, 350.9 770.8 Q 352.0 770.8, 353.0 770.4 Q 354.1 769.9, 354.9 769.2 Q 354.8 766.2, 353.8 764.9 Q 352.9 763.6, 351.0 763.6 Q 350.1 763.6, 349.3 764.1 Q 348.5 764.6, 348.1 765.5 Q 347.6 766.3, 347.6 767.4 " fill="#000000"/>
<path class="atom-19" d="M 396.8 886.8 Q 396.8 882.4, 398.8 880.1 Q 400.9 877.8, 404.8 877.8 Q 408.5 877.8, 410.4 880.4 L 408.8 881.7 Q 407.4 879.9, 404.8 879.9 Q 402.2 879.9, 400.7 881.7 Q 399.3 883.4, 399.3 886.8 Q 399.3 890.3, 400.8 892.1 Q 402.3 893.9, 405.1 893.9 Q 407.1 893.9, 409.3 892.8 L 410.0 894.6 Q 409.1 895.2, 407.7 895.6 Q 406.3 895.9, 404.8 895.9 Q 400.9 895.9, 398.8 893.6 Q 396.8 891.2, 396.8 886.8 " fill="#000000"/>
<path class="atom-19" d="M 412.8 881.4 Q 413.4 879.7, 415.0 878.8 Q 416.5 877.8, 418.7 877.8 Q 421.4 877.8, 422.9 879.3 Q 424.4 880.7, 424.4 883.3 Q 424.4 885.9, 422.4 888.4 Q 420.5 890.8, 416.5 893.7 L 424.7 893.7 L 424.7 895.7 L 412.7 895.7 L 412.7 894.0 Q 416.0 891.7, 418.0 889.9 Q 420.0 888.2, 420.9 886.6 Q 421.9 885.0, 421.9 883.4 Q 421.9 881.7, 421.0 880.8 Q 420.2 879.8, 418.7 879.8 Q 417.3 879.8, 416.3 880.4 Q 415.4 881.0, 414.7 882.2 L 412.8 881.4 " fill="#000000"/>
<path class="atom-19" d="M 433.9 895.9 Q 430.7 895.9, 429.0 893.5 Q 427.4 891.1, 427.4 886.8 Q 427.4 882.6, 429.0 880.2 Q 430.6 877.8, 433.9 877.8 Q 437.2 877.8, 438.8 880.2 Q 440.4 882.6, 440.4 886.8 Q 440.4 891.1, 438.8 893.5 Q 437.2 895.9, 433.9 895.9 M 433.9 893.9 Q 435.8 893.9, 436.9 892.1 Q 437.9 890.3, 437.9 886.8 Q 437.9 883.4, 436.9 881.6 Q 435.8 879.8, 433.9 879.8 Q 432.0 879.8, 431.0 881.6 Q 429.9 883.4, 429.9 886.8 Q 429.9 890.3, 431.0 892.1 Q 432.0 893.9, 433.9 893.9 " fill="#000000"/>
<path class="atom-20" d="M 598.6 539.1 Q 598.6 534.7, 600.6 532.4 Q 602.7 530.1, 606.6 530.1 Q 610.3 530.1, 612.2 532.7 L 610.6 534.0 Q 609.2 532.2, 606.6 532.2 Q 604.0 532.2, 602.5 534.0 Q 601.1 535.7, 601.1 539.1 Q 601.1 542.6, 602.6 544.4 Q 604.1 546.2, 606.9 546.2 Q 608.9 546.2, 611.1 545.1 L 611.8 546.9 Q 610.9 547.5, 609.5 547.9 Q 608.1 548.2, 606.6 548.2 Q 602.7 548.2, 600.6 545.9 Q 598.6 543.5, 598.6 539.1 " fill="#000000"/>
<path class="atom-20" d="M 614.5 533.7 Q 615.1 532.0, 616.7 531.1 Q 618.2 530.1, 620.4 530.1 Q 623.1 530.1, 624.6 531.6 Q 626.1 533.0, 626.1 535.6 Q 626.1 538.2, 624.1 540.7 Q 622.2 543.1, 618.2 546.0 L 626.4 546.0 L 626.4 548.0 L 614.4 548.0 L 614.4 546.3 Q 617.7 544.0, 619.7 542.2 Q 621.7 540.5, 622.6 538.9 Q 623.6 537.3, 623.6 535.7 Q 623.6 534.0, 622.7 533.1 Q 621.9 532.1, 620.4 532.1 Q 619.0 532.1, 618.0 532.7 Q 617.1 533.3, 616.4 534.5 L 614.5 533.7 " fill="#000000"/>
<path class="atom-20" d="M 630.1 546.0 L 633.9 546.0 L 633.9 532.8 L 629.7 534.1 L 629.1 532.6 L 634.5 530.2 L 636.3 530.5 L 636.3 546.0 L 639.8 546.0 L 639.8 548.0 L 630.1 548.0 L 630.1 546.0 " fill="#000000"/>
<path class="atom-21" d="M 431.8 538.8 Q 431.8 534.5, 433.9 532.2 Q 436.0 529.8, 440.0 529.8 Q 443.9 529.8, 446.0 532.2 Q 448.1 534.5, 448.1 538.8 Q 448.1 543.1, 446.0 545.5 Q 443.8 548.0, 440.0 548.0 Q 436.1 548.0, 433.9 545.5 Q 431.8 543.1, 431.8 538.8 M 440.0 546.0 Q 442.7 546.0, 444.1 544.2 Q 445.6 542.3, 445.6 538.8 Q 445.6 535.3, 444.1 533.6 Q 442.7 531.8, 440.0 531.8 Q 437.3 531.8, 435.8 533.5 Q 434.3 535.3, 434.3 538.8 Q 434.3 542.4, 435.8 544.2 Q 437.3 546.0, 440.0 546.0 " fill="#FF0000"/>
<path class="atom-21" d="M 450.7 533.3 Q 451.4 531.7, 452.9 530.7 Q 454.5 529.8, 456.6 529.8 Q 459.3 529.8, 460.8 531.2 Q 462.3 532.7, 462.3 535.3 Q 462.3 537.9, 460.4 540.3 Q 458.4 542.8, 454.4 545.7 L 462.6 545.7 L 462.6 547.7 L 450.7 547.7 L 450.7 546.0 Q 454.0 543.7, 455.9 541.9 Q 457.9 540.2, 458.9 538.6 Q 459.8 537.0, 459.8 535.4 Q 459.8 533.7, 459.0 532.7 Q 458.1 531.8, 456.6 531.8 Q 455.2 531.8, 454.3 532.4 Q 453.3 532.9, 452.6 534.2 L 450.7 533.3 " fill="#FF0000"/>
<path class="atom-21" d="M 465.5 533.3 Q 466.1 531.7, 467.7 530.7 Q 469.2 529.8, 471.4 529.8 Q 474.1 529.8, 475.6 531.2 Q 477.1 532.7, 477.1 535.3 Q 477.1 537.9, 475.1 540.3 Q 473.2 542.8, 469.2 545.7 L 477.4 545.7 L 477.4 547.7 L 465.4 547.7 L 465.4 546.0 Q 468.7 543.7, 470.7 541.9 Q 472.7 540.2, 473.6 538.6 Q 474.6 537.0, 474.6 535.4 Q 474.6 533.7, 473.7 532.7 Q 472.9 531.8, 471.4 531.8 Q 470.0 531.8, 469.0 532.4 Q 468.1 532.9, 467.4 534.2 L 465.5 533.3 " fill="#FF0000"/>
<path class="atom-22" d="M 233.2 809.1 Q 233.2 804.7, 235.3 802.4 Q 237.4 800.1, 241.3 800.1 Q 244.9 800.1, 246.9 802.7 L 245.2 804.0 Q 243.8 802.1, 241.3 802.1 Q 238.6 802.1, 237.2 803.9 Q 235.8 805.7, 235.8 809.1 Q 235.8 812.6, 237.2 814.4 Q 238.7 816.2, 241.6 816.2 Q 243.5 816.2, 245.8 815.0 L 246.5 816.9 Q 245.6 817.5, 244.2 817.9 Q 242.8 818.2, 241.2 818.2 Q 237.4 818.2, 235.3 815.9 Q 233.2 813.5, 233.2 809.1 " fill="#000000"/>
<path class="atom-22" d="M 249.2 803.6 Q 249.8 802.0, 251.4 801.0 Q 252.9 800.1, 255.1 800.1 Q 257.8 800.1, 259.3 801.5 Q 260.8 803.0, 260.8 805.6 Q 260.8 808.2, 258.8 810.6 Q 256.9 813.1, 252.9 816.0 L 261.1 816.0 L 261.1 818.0 L 249.1 818.0 L 249.1 816.3 Q 252.4 814.0, 254.4 812.2 Q 256.4 810.5, 257.3 808.9 Q 258.3 807.3, 258.3 805.7 Q 258.3 804.0, 257.4 803.0 Q 256.6 802.1, 255.1 802.1 Q 253.7 802.1, 252.7 802.7 Q 251.8 803.2, 251.1 804.5 L 249.2 803.6 " fill="#000000"/>
<path class="atom-22" d="M 272.3 808.7 Q 274.0 809.2, 274.9 810.3 Q 275.7 811.4, 275.7 813.1 Q 275.7 814.6, 275.0 815.8 Q 274.2 817.0, 272.8 817.6 Q 271.5 818.2, 269.7 818.2 Q 267.8 818.2, 266.3 817.6 Q 264.9 816.9, 263.8 815.6 L 265.2 814.1 Q 266.3 815.3, 267.3 815.8 Q 268.2 816.2, 269.7 816.2 Q 271.3 816.2, 272.2 815.4 Q 273.2 814.5, 273.2 813.1 Q 273.2 811.3, 272.2 810.5 Q 271.2 809.7, 269.0 809.7 L 267.7 809.7 L 267.7 807.9 L 268.9 807.9 Q 270.8 807.9, 271.8 807.0 Q 272.8 806.2, 272.8 804.6 Q 272.8 803.5, 272.0 802.8 Q 271.1 802.1, 269.7 802.1 Q 268.2 802.1, 267.3 802.6 Q 266.4 803.1, 265.7 804.5 L 264.0 803.5 Q 264.6 802.1, 266.1 801.1 Q 267.6 800.1, 269.7 800.1 Q 272.3 800.1, 273.8 801.3 Q 275.3 802.5, 275.3 804.6 Q 275.3 806.0, 274.6 807.1 Q 273.8 808.1, 272.3 808.7 " fill="#000000"/>
<path class="atom-23" d="M 314.3 925.3 Q 314.3 920.9, 316.4 918.6 Q 318.5 916.3, 322.4 916.3 Q 326.0 916.3, 328.0 918.8 L 326.3 920.2 Q 324.9 918.3, 322.4 918.3 Q 319.7 918.3, 318.3 920.1 Q 316.9 921.9, 316.9 925.3 Q 316.9 928.8, 318.3 930.6 Q 319.8 932.4, 322.7 932.4 Q 324.6 932.4, 326.9 931.2 L 327.6 933.1 Q 326.7 933.7, 325.3 934.0 Q 323.9 934.4, 322.3 934.4 Q 318.5 934.4, 316.4 932.0 Q 314.3 929.7, 314.3 925.3 " fill="#000000"/>
<path class="atom-23" d="M 330.3 919.8 Q 331.0 918.1, 332.5 917.2 Q 334.1 916.3, 336.2 916.3 Q 338.9 916.3, 340.4 917.7 Q 341.9 919.2, 341.9 921.7 Q 341.9 924.4, 340.0 926.8 Q 338.0 929.3, 334.0 932.2 L 342.2 932.2 L 342.2 934.2 L 330.3 934.2 L 330.3 932.5 Q 333.6 930.1, 335.5 928.4 Q 337.5 926.6, 338.5 925.1 Q 339.4 923.5, 339.4 921.9 Q 339.4 920.2, 338.6 919.2 Q 337.7 918.3, 336.2 918.3 Q 334.8 918.3, 333.9 918.8 Q 332.9 919.4, 332.2 920.7 L 330.3 919.8 " fill="#000000"/>
<path class="atom-23" d="M 356.5 928.1 L 358.7 928.1 L 358.7 930.1 L 356.5 930.1 L 356.5 934.2 L 354.2 934.2 L 354.2 930.1 L 345.0 930.1 L 345.0 928.5 L 352.8 916.5 L 356.5 916.5 L 356.5 928.1 M 347.9 928.1 L 354.2 928.1 L 354.2 918.1 L 347.9 928.1 " fill="#000000"/>
<path class="atom-24" d="M 586.7 452.9 L 592.5 462.3 Q 593.1 463.2, 594.0 464.9 Q 594.9 466.5, 595.0 466.6 L 595.0 452.9 L 597.3 452.9 L 597.3 470.6 L 594.9 470.6 L 588.7 460.3 Q 588.0 459.1, 587.2 457.8 Q 586.4 456.4, 586.2 456.0 L 586.2 470.6 L 583.9 470.6 L 583.9 452.9 L 586.7 452.9 " fill="#0000FF"/>
<path class="atom-24" d="M 600.7 456.2 Q 601.3 454.6, 602.9 453.6 Q 604.4 452.7, 606.6 452.7 Q 609.3 452.7, 610.8 454.1 Q 612.3 455.6, 612.3 458.2 Q 612.3 460.8, 610.3 463.2 Q 608.4 465.7, 604.4 468.6 L 612.6 468.6 L 612.6 470.6 L 600.6 470.6 L 600.6 468.9 Q 603.9 466.6, 605.9 464.8 Q 607.9 463.1, 608.8 461.5 Q 609.8 459.9, 609.8 458.3 Q 609.8 456.6, 608.9 455.6 Q 608.1 454.7, 606.6 454.7 Q 605.2 454.7, 604.2 455.3 Q 603.3 455.8, 602.6 457.1 L 600.7 456.2 " fill="#0000FF"/>
<path class="atom-24" d="M 621.7 459.5 Q 623.3 459.5, 624.6 460.2 Q 625.8 460.8, 626.6 462.1 Q 627.3 463.3, 627.3 465.0 Q 627.3 466.8, 626.4 468.1 Q 625.5 469.4, 624.1 470.1 Q 622.6 470.8, 621.0 470.8 Q 619.3 470.8, 617.8 470.2 Q 616.3 469.6, 615.3 468.4 L 616.8 466.9 Q 617.6 467.8, 618.8 468.3 Q 619.9 468.8, 621.0 468.8 Q 622.6 468.8, 623.7 467.8 Q 624.8 466.8, 624.8 465.0 Q 624.8 463.2, 623.7 462.3 Q 622.6 461.4, 620.9 461.4 Q 619.3 461.4, 617.6 462.1 L 616.2 461.4 L 617.1 452.9 L 626.2 452.9 L 625.9 454.9 L 619.1 454.9 L 618.6 460.1 Q 620.2 459.5, 621.7 459.5 " fill="#0000FF"/>
<path class="atom-25" d="M 232.8 886.5 Q 232.8 882.1, 234.9 879.8 Q 236.9 877.5, 240.9 877.5 Q 244.5 877.5, 246.5 880.0 L 244.8 881.4 Q 243.4 879.5, 240.9 879.5 Q 238.2 879.5, 236.8 881.3 Q 235.4 883.1, 235.4 886.5 Q 235.4 890.0, 236.8 891.8 Q 238.3 893.6, 241.1 893.6 Q 243.1 893.6, 245.4 892.4 L 246.1 894.3 Q 245.1 894.9, 243.7 895.2 Q 242.3 895.6, 240.8 895.6 Q 236.9 895.6, 234.9 893.2 Q 232.8 890.9, 232.8 886.5 " fill="#000000"/>
<path class="atom-25" d="M 248.8 881.0 Q 249.4 879.3, 251.0 878.4 Q 252.5 877.5, 254.7 877.5 Q 257.4 877.5, 258.9 878.9 Q 260.4 880.4, 260.4 882.9 Q 260.4 885.6, 258.4 888.0 Q 256.5 890.5, 252.5 893.4 L 260.7 893.4 L 260.7 895.4 L 248.7 895.4 L 248.7 893.7 Q 252.0 891.3, 254.0 889.6 Q 256.0 887.8, 256.9 886.3 Q 257.9 884.7, 257.9 883.1 Q 257.9 881.4, 257.0 880.4 Q 256.2 879.5, 254.7 879.5 Q 253.3 879.5, 252.3 880.0 Q 251.4 880.6, 250.7 881.9 L 248.8 881.0 " fill="#000000"/>
<path class="atom-25" d="M 270.3 884.3 Q 271.9 884.3, 273.1 885.0 Q 274.3 885.7, 275.0 886.9 Q 275.7 888.1, 275.7 889.7 Q 275.7 891.4, 274.9 892.7 Q 274.2 894.1, 272.8 894.8 Q 271.5 895.6, 269.7 895.6 Q 266.6 895.6, 265.0 893.4 Q 263.4 891.3, 263.4 887.0 Q 263.4 882.3, 265.4 879.9 Q 267.3 877.5, 271.1 877.5 Q 272.2 877.5, 273.1 877.7 Q 274.1 878.0, 275.0 878.5 L 274.0 880.2 Q 272.7 879.5, 271.1 879.5 Q 268.6 879.5, 267.4 881.1 Q 266.1 882.7, 265.9 886.0 Q 266.8 885.2, 268.0 884.8 Q 269.1 884.3, 270.3 884.3 M 269.8 893.5 Q 270.7 893.5, 271.5 893.0 Q 272.3 892.5, 272.7 891.6 Q 273.2 890.8, 273.2 889.7 Q 273.2 888.1, 272.3 887.2 Q 271.4 886.3, 269.9 886.3 Q 268.8 886.3, 267.7 886.8 Q 266.7 887.2, 265.9 887.9 Q 266.0 890.9, 267.0 892.2 Q 267.9 893.5, 269.8 893.5 " fill="#000000"/>
<path class="atom-26" d="M 665.9 423.3 Q 665.9 418.9, 668.0 416.6 Q 670.0 414.3, 674.0 414.3 Q 677.6 414.3, 679.6 416.9 L 677.9 418.2 Q 676.5 416.3, 674.0 416.3 Q 671.3 416.3, 669.9 418.1 Q 668.5 419.9, 668.5 423.3 Q 668.5 426.8, 669.9 428.6 Q 671.4 430.4, 674.2 430.4 Q 676.2 430.4, 678.5 429.2 L 679.2 431.1 Q 678.2 431.7, 676.8 432.1 Q 675.4 432.4, 673.9 432.4 Q 670.0 432.4, 668.0 430.1 Q 665.9 427.7, 665.9 423.3 " fill="#000000"/>
<path class="atom-26" d="M 681.9 417.8 Q 682.5 416.2, 684.1 415.2 Q 685.6 414.3, 687.8 414.3 Q 690.4 414.3, 691.9 415.7 Q 693.4 417.2, 693.4 419.8 Q 693.4 422.4, 691.5 424.8 Q 689.6 427.3, 685.6 430.2 L 693.7 430.2 L 693.7 432.2 L 681.8 432.2 L 681.8 430.5 Q 685.1 428.2, 687.1 426.4 Q 689.0 424.7, 690.0 423.1 Q 690.9 421.5, 690.9 419.9 Q 690.9 418.2, 690.1 417.2 Q 689.2 416.3, 687.8 416.3 Q 686.3 416.3, 685.4 416.9 Q 684.4 417.4, 683.8 418.7 L 681.9 417.8 " fill="#000000"/>
<path class="atom-26" d="M 705.8 416.5 L 696.5 416.5 L 696.5 414.5 L 708.2 414.5 L 708.2 416.3 L 701.1 432.2 L 698.7 432.2 L 705.8 416.5 " fill="#000000"/>
<path class="atom-27" d="M 501.8 423.0 Q 501.8 418.6, 503.8 416.3 Q 505.9 414.0, 509.8 414.0 Q 513.5 414.0, 515.4 416.5 L 513.8 417.9 Q 512.4 416.0, 509.8 416.0 Q 507.2 416.0, 505.7 417.8 Q 504.3 419.6, 504.3 423.0 Q 504.3 426.5, 505.8 428.3 Q 507.3 430.1, 510.1 430.1 Q 512.1 430.1, 514.3 428.9 L 515.0 430.8 Q 514.1 431.4, 512.7 431.7 Q 511.3 432.1, 509.8 432.1 Q 505.9 432.1, 503.8 429.7 Q 501.8 427.4, 501.8 423.0 " fill="#000000"/>
<path class="atom-27" d="M 517.7 417.5 Q 518.4 415.8, 519.9 414.9 Q 521.5 414.0, 523.6 414.0 Q 526.3 414.0, 527.8 415.4 Q 529.3 416.9, 529.3 419.4 Q 529.3 422.1, 527.4 424.5 Q 525.4 427.0, 521.4 429.9 L 529.6 429.9 L 529.6 431.9 L 517.7 431.9 L 517.7 430.2 Q 521.0 427.8, 522.9 426.1 Q 524.9 424.3, 525.9 422.8 Q 526.8 421.2, 526.8 419.6 Q 526.8 417.9, 526.0 416.9 Q 525.1 416.0, 523.6 416.0 Q 522.2 416.0, 521.3 416.5 Q 520.3 417.1, 519.6 418.4 L 517.7 417.5 " fill="#000000"/>
<path class="atom-27" d="M 541.4 422.5 Q 543.0 423.2, 544.0 424.2 Q 544.9 425.3, 544.9 427.0 Q 544.9 428.5, 544.1 429.7 Q 543.3 430.8, 541.9 431.5 Q 540.6 432.1, 538.7 432.1 Q 535.8 432.1, 534.1 430.8 Q 532.4 429.4, 532.4 427.0 Q 532.4 425.6, 533.1 424.5 Q 533.9 423.4, 535.4 422.6 Q 534.3 421.9, 533.7 421.0 Q 533.0 420.0, 533.0 418.5 Q 533.0 416.4, 534.5 415.2 Q 536.1 414.0, 538.6 414.0 Q 541.2 414.0, 542.7 415.2 Q 544.2 416.4, 544.2 418.5 Q 544.2 419.8, 543.5 420.8 Q 542.8 421.7, 541.4 422.5 M 538.6 415.8 Q 537.2 415.8, 536.3 416.5 Q 535.5 417.2, 535.5 418.5 Q 535.5 419.4, 536.1 420.0 Q 536.6 420.6, 537.4 421.0 Q 538.2 421.3, 539.7 421.9 Q 540.8 421.1, 541.3 420.3 Q 541.7 419.5, 541.7 418.5 Q 541.7 417.2, 540.9 416.5 Q 540.1 415.8, 538.6 415.8 M 538.7 430.2 Q 540.4 430.2, 541.4 429.4 Q 542.4 428.5, 542.4 427.0 Q 542.4 426.0, 541.9 425.4 Q 541.3 424.8, 540.5 424.5 Q 539.8 424.1, 538.4 423.7 L 537.2 423.3 Q 536.0 424.1, 535.4 425.0 Q 534.9 425.8, 534.9 427.0 Q 534.9 428.5, 535.9 429.4 Q 537.0 430.2, 538.7 430.2 " fill="#000000"/>
<path class="atom-28" d="M 665.9 345.9 Q 665.9 341.5, 668.0 339.2 Q 670.1 336.9, 674.0 336.9 Q 677.6 336.9, 679.6 339.4 L 677.9 340.8 Q 676.5 338.9, 674.0 338.9 Q 671.3 338.9, 669.9 340.7 Q 668.5 342.5, 668.5 345.9 Q 668.5 349.4, 669.9 351.2 Q 671.4 353.0, 674.3 353.0 Q 676.2 353.0, 678.5 351.8 L 679.2 353.7 Q 678.3 354.3, 676.9 354.6 Q 675.5 355.0, 673.9 355.0 Q 670.1 355.0, 668.0 352.6 Q 665.9 350.3, 665.9 345.9 " fill="#000000"/>
<path class="atom-28" d="M 681.9 340.4 Q 682.5 338.7, 684.1 337.8 Q 685.6 336.9, 687.8 336.9 Q 690.5 336.9, 692.0 338.3 Q 693.5 339.8, 693.5 342.3 Q 693.5 345.0, 691.5 347.4 Q 689.6 349.9, 685.6 352.8 L 693.8 352.8 L 693.8 354.8 L 681.8 354.8 L 681.8 353.1 Q 685.1 350.7, 687.1 349.0 Q 689.1 347.2, 690.0 345.7 Q 691.0 344.1, 691.0 342.5 Q 691.0 340.8, 690.1 339.8 Q 689.3 338.9, 687.8 338.9 Q 686.4 338.9, 685.4 339.4 Q 684.5 340.0, 683.8 341.3 L 681.9 340.4 " fill="#000000"/>
<path class="atom-28" d="M 702.5 336.9 Q 705.6 336.9, 707.2 339.0 Q 708.8 341.1, 708.8 345.4 Q 708.8 350.1, 706.8 352.5 Q 704.9 355.0, 701.1 355.0 Q 700.0 355.0, 699.1 354.7 Q 698.1 354.5, 697.2 353.9 L 698.2 352.3 Q 699.5 353.0, 701.1 353.0 Q 703.6 353.0, 704.9 351.4 Q 706.1 349.7, 706.3 346.4 Q 705.4 347.2, 704.2 347.7 Q 703.1 348.1, 701.9 348.1 Q 700.3 348.1, 699.1 347.4 Q 697.9 346.8, 697.2 345.5 Q 696.5 344.3, 696.5 342.8 Q 696.5 341.0, 697.3 339.7 Q 698.1 338.4, 699.4 337.6 Q 700.8 336.9, 702.5 336.9 M 699.0 342.7 Q 699.0 344.3, 699.9 345.2 Q 700.8 346.1, 702.3 346.1 Q 703.4 346.1, 704.5 345.7 Q 705.5 345.2, 706.3 344.5 Q 706.2 341.6, 705.3 340.2 Q 704.3 338.9, 702.5 338.9 Q 701.5 338.9, 700.7 339.4 Q 699.9 339.9, 699.5 340.8 Q 699.0 341.7, 699.0 342.7 " fill="#000000"/>
<path class="atom-29" d="M 702.5 462.1 Q 702.5 457.7, 704.6 455.4 Q 706.6 453.1, 710.6 453.1 Q 714.2 453.1, 716.2 455.6 L 714.5 457.0 Q 713.1 455.1, 710.6 455.1 Q 707.9 455.1, 706.5 456.9 Q 705.1 458.7, 705.1 462.1 Q 705.1 465.6, 706.5 467.4 Q 708.0 469.2, 710.8 469.2 Q 712.8 469.2, 715.1 468.0 L 715.8 469.9 Q 714.8 470.5, 713.4 470.8 Q 712.0 471.2, 710.5 471.2 Q 706.6 471.2, 704.6 468.8 Q 702.5 466.5, 702.5 462.1 " fill="#000000"/>
<path class="atom-29" d="M 727.0 461.6 Q 728.7 462.1, 729.5 463.3 Q 730.4 464.4, 730.4 466.1 Q 730.4 467.6, 729.6 468.8 Q 728.9 469.9, 727.5 470.6 Q 726.1 471.2, 724.3 471.2 Q 722.4 471.2, 721.0 470.6 Q 719.6 469.9, 718.5 468.5 L 719.9 467.1 Q 721.0 468.3, 721.9 468.8 Q 722.8 469.2, 724.3 469.2 Q 725.9 469.2, 726.9 468.4 Q 727.9 467.5, 727.9 466.1 Q 727.9 464.3, 726.8 463.5 Q 725.8 462.7, 723.7 462.7 L 722.4 462.7 L 722.4 460.9 L 723.5 460.9 Q 725.4 460.8, 726.5 460.0 Q 727.5 459.2, 727.5 457.6 Q 727.5 456.4, 726.6 455.8 Q 725.8 455.1, 724.3 455.1 Q 722.9 455.1, 721.9 455.6 Q 721.0 456.1, 720.3 457.4 L 718.6 456.5 Q 719.2 455.0, 720.7 454.1 Q 722.2 453.1, 724.3 453.1 Q 726.9 453.1, 728.5 454.3 Q 730.0 455.5, 730.0 457.6 Q 730.0 459.0, 729.2 460.0 Q 728.4 461.1, 727.0 461.6 " fill="#000000"/>
<path class="atom-29" d="M 739.6 471.2 Q 736.3 471.2, 734.7 468.8 Q 733.1 466.4, 733.1 462.1 Q 733.1 457.8, 734.7 455.4 Q 736.3 453.1, 739.6 453.1 Q 742.9 453.1, 744.5 455.4 Q 746.1 457.8, 746.1 462.1 Q 746.1 466.4, 744.4 468.8 Q 742.8 471.2, 739.6 471.2 M 739.6 469.2 Q 741.5 469.2, 742.5 467.4 Q 743.6 465.6, 743.6 462.1 Q 743.6 458.6, 742.5 456.8 Q 741.5 455.1, 739.6 455.1 Q 737.7 455.1, 736.6 456.8 Q 735.6 458.6, 735.6 462.1 Q 735.6 465.6, 736.6 467.4 Q 737.7 469.2, 739.6 469.2 " fill="#000000"/>
<path class="atom-30" d="M 503.2 345.6 Q 503.2 341.2, 505.3 338.9 Q 507.3 336.5, 511.3 336.5 Q 514.9 336.5, 516.9 339.1 L 515.2 340.5 Q 513.8 338.6, 511.3 338.6 Q 508.6 338.6, 507.2 340.4 Q 505.8 342.2, 505.8 345.6 Q 505.8 349.1, 507.2 350.9 Q 508.7 352.7, 511.5 352.7 Q 513.5 352.7, 515.8 351.5 L 516.5 353.4 Q 515.5 354.0, 514.1 354.3 Q 512.7 354.7, 511.2 354.7 Q 507.3 354.7, 505.3 352.3 Q 503.2 350.0, 503.2 345.6 " fill="#000000"/>
<path class="atom-30" d="M 527.6 345.1 Q 529.3 345.6, 530.1 346.7 Q 531.0 347.8, 531.0 349.6 Q 531.0 351.1, 530.2 352.3 Q 529.5 353.4, 528.1 354.1 Q 526.7 354.7, 524.9 354.7 Q 523.0 354.7, 521.6 354.0 Q 520.2 353.4, 519.1 352.0 L 520.5 350.6 Q 521.6 351.8, 522.5 352.2 Q 523.4 352.7, 524.9 352.7 Q 526.5 352.7, 527.5 351.8 Q 528.5 351.0, 528.5 349.6 Q 528.5 347.8, 527.4 347.0 Q 526.4 346.1, 524.3 346.1 L 523.0 346.1 L 523.0 344.3 L 524.1 344.3 Q 526.0 344.3, 527.1 343.5 Q 528.1 342.6, 528.1 341.1 Q 528.1 339.9, 527.2 339.2 Q 526.4 338.5, 524.9 338.5 Q 523.5 338.5, 522.5 339.1 Q 521.6 339.6, 520.9 340.9 L 519.2 340.0 Q 519.8 338.5, 521.3 337.5 Q 522.8 336.5, 524.9 336.5 Q 527.5 336.5, 529.1 337.8 Q 530.6 339.0, 530.6 341.1 Q 530.6 342.5, 529.8 343.5 Q 529.0 344.5, 527.6 345.1 " fill="#000000"/>
<path class="atom-30" d="M 534.6 352.4 L 538.5 352.4 L 538.5 339.2 L 534.2 340.5 L 533.6 339.1 L 539.1 336.6 L 540.8 336.9 L 540.8 352.4 L 544.3 352.4 L 544.3 354.4 L 534.6 354.4 L 534.6 352.4 " fill="#000000"/>
<path class="atom-31" d="M 587.1 298.0 L 592.9 307.4 Q 593.5 308.3, 594.4 310.0 Q 595.3 311.7, 595.4 311.8 L 595.4 298.0 L 597.7 298.0 L 597.7 315.7 L 595.3 315.7 L 589.1 305.5 Q 588.4 304.3, 587.6 302.9 Q 586.8 301.5, 586.6 301.1 L 586.6 315.7 L 584.3 315.7 L 584.3 298.0 L 587.1 298.0 " fill="#0000FF"/>
<path class="atom-31" d="M 609.6 306.4 Q 611.3 306.9, 612.1 308.0 Q 613.0 309.1, 613.0 310.9 Q 613.0 312.4, 612.2 313.6 Q 611.5 314.7, 610.1 315.4 Q 608.7 316.0, 606.9 316.0 Q 605.0 316.0, 603.6 315.3 Q 602.2 314.7, 601.1 313.3 L 602.5 311.9 Q 603.6 313.1, 604.5 313.5 Q 605.4 314.0, 606.9 314.0 Q 608.5 314.0, 609.5 313.1 Q 610.5 312.3, 610.5 310.9 Q 610.5 309.1, 609.4 308.3 Q 608.4 307.4, 606.3 307.4 L 605.0 307.4 L 605.0 305.6 L 606.1 305.6 Q 608.0 305.6, 609.1 304.8 Q 610.1 303.9, 610.1 302.4 Q 610.1 301.2, 609.2 300.5 Q 608.4 299.8, 606.9 299.8 Q 605.5 299.8, 604.5 300.4 Q 603.6 300.9, 602.9 302.2 L 601.2 301.3 Q 601.8 299.8, 603.3 298.8 Q 604.8 297.8, 606.9 297.8 Q 609.5 297.8, 611.1 299.1 Q 612.6 300.3, 612.6 302.4 Q 612.6 303.8, 611.8 304.8 Q 611.0 305.8, 609.6 306.4 " fill="#0000FF"/>
<path class="atom-31" d="M 615.7 301.4 Q 616.4 299.7, 617.9 298.8 Q 619.5 297.8, 621.6 297.8 Q 624.3 297.8, 625.8 299.3 Q 627.3 300.7, 627.3 303.3 Q 627.3 305.9, 625.3 308.4 Q 623.4 310.8, 619.4 313.7 L 627.6 313.7 L 627.6 315.7 L 615.7 315.7 L 615.7 314.1 Q 619.0 311.7, 620.9 310.0 Q 622.9 308.2, 623.8 306.6 Q 624.8 305.1, 624.8 303.4 Q 624.8 301.7, 623.9 300.8 Q 623.1 299.8, 621.6 299.8 Q 620.2 299.8, 619.2 300.4 Q 618.3 301.0, 617.6 302.3 L 615.7 301.4 " fill="#0000FF"/>
<path class="atom-32" d="M 704.9 530.6 L 710.7 540.0 Q 711.3 540.9, 712.2 542.6 Q 713.1 544.3, 713.2 544.4 L 713.2 530.6 L 715.5 530.6 L 715.5 548.3 L 713.1 548.3 L 706.9 538.1 Q 706.2 536.9, 705.4 535.5 Q 704.6 534.1, 704.4 533.7 L 704.4 548.3 L 702.1 548.3 L 702.1 530.6 L 704.9 530.6 " fill="#0000FF"/>
<path class="atom-32" d="M 727.3 539.0 Q 729.1 539.5, 729.9 540.6 Q 730.7 541.7, 730.7 543.5 Q 730.7 545.0, 730.0 546.2 Q 729.2 547.3, 727.9 548.0 Q 726.5 548.6, 724.7 548.6 Q 722.8 548.6, 721.4 547.9 Q 720.0 547.3, 718.8 545.9 L 720.3 544.5 Q 721.4 545.7, 722.3 546.1 Q 723.2 546.6, 724.7 546.6 Q 726.3 546.6, 727.3 545.7 Q 728.2 544.9, 728.2 543.5 Q 728.2 541.7, 727.2 540.9 Q 726.2 540.0, 724.0 540.0 L 722.8 540.0 L 722.8 538.2 L 723.9 538.2 Q 725.8 538.2, 726.8 537.4 Q 727.9 536.5, 727.9 535.0 Q 727.9 533.8, 727.0 533.1 Q 726.2 532.4, 724.7 532.4 Q 723.2 532.4, 722.3 533.0 Q 721.4 533.5, 720.7 534.8 L 719.0 533.9 Q 719.6 532.4, 721.1 531.4 Q 722.6 530.4, 724.7 530.4 Q 727.3 530.4, 728.8 531.7 Q 730.4 532.9, 730.4 535.0 Q 730.4 536.4, 729.6 537.4 Q 728.8 538.4, 727.3 539.0 " fill="#0000FF"/>
<path class="atom-32" d="M 742.0 539.0 Q 743.7 539.5, 744.5 540.6 Q 745.4 541.7, 745.4 543.5 Q 745.4 545.0, 744.6 546.2 Q 743.9 547.3, 742.5 548.0 Q 741.1 548.6, 739.3 548.6 Q 737.4 548.6, 736.0 547.9 Q 734.6 547.3, 733.5 545.9 L 734.9 544.5 Q 736.0 545.7, 736.9 546.1 Q 737.8 546.6, 739.3 546.6 Q 740.9 546.6, 741.9 545.7 Q 742.9 544.9, 742.9 543.5 Q 742.9 541.7, 741.8 540.9 Q 740.8 540.0, 738.7 540.0 L 737.4 540.0 L 737.4 538.2 L 738.5 538.2 Q 740.4 538.2, 741.5 537.4 Q 742.5 536.5, 742.5 535.0 Q 742.5 533.8, 741.6 533.1 Q 740.8 532.4, 739.3 532.4 Q 737.9 532.4, 736.9 533.0 Q 736.0 533.5, 735.3 534.8 L 733.6 533.9 Q 734.2 532.4, 735.7 531.4 Q 737.2 530.4, 739.3 530.4 Q 741.9 530.4, 743.5 531.7 Q 745.0 532.9, 745.0 535.0 Q 745.0 536.4, 744.2 537.4 Q 743.4 538.4, 742.0 539.0 " fill="#0000FF"/>
<path class="atom-33" d="M 798.6 423.5 Q 798.6 419.3, 800.7 416.9 Q 802.8 414.5, 806.7 414.5 Q 810.6 414.5, 812.7 416.9 Q 814.8 419.3, 814.8 423.5 Q 814.8 427.8, 812.7 430.3 Q 810.6 432.7, 806.7 432.7 Q 802.8 432.7, 800.7 430.3 Q 798.6 427.9, 798.6 423.5 M 806.7 430.7 Q 809.4 430.7, 810.8 428.9 Q 812.3 427.1, 812.3 423.5 Q 812.3 420.1, 810.8 418.3 Q 809.4 416.5, 806.7 416.5 Q 804.0 416.5, 802.5 418.3 Q 801.1 420.0, 801.1 423.5 Q 801.1 427.1, 802.5 428.9 Q 804.0 430.7, 806.7 430.7 " fill="#FF0000"/>
<path class="atom-33" d="M 825.9 423.1 Q 827.7 423.6, 828.5 424.7 Q 829.3 425.8, 829.3 427.6 Q 829.3 429.1, 828.6 430.3 Q 827.8 431.4, 826.5 432.1 Q 825.1 432.7, 823.3 432.7 Q 821.4 432.7, 820.0 432.0 Q 818.6 431.4, 817.4 430.0 L 818.9 428.6 Q 820.0 429.8, 820.9 430.2 Q 821.8 430.7, 823.3 430.7 Q 824.9 430.7, 825.9 429.8 Q 826.8 429.0, 826.8 427.6 Q 826.8 425.8, 825.8 425.0 Q 824.8 424.1, 822.6 424.1 L 821.4 424.1 L 821.4 422.3 L 822.5 422.3 Q 824.4 422.3, 825.4 421.5 Q 826.5 420.6, 826.5 419.1 Q 826.5 417.9, 825.6 417.2 Q 824.8 416.5, 823.3 416.5 Q 821.8 416.5, 820.9 417.1 Q 820.0 417.6, 819.3 418.9 L 817.6 418.0 Q 818.2 416.5, 819.7 415.5 Q 821.2 414.5, 823.3 414.5 Q 825.9 414.5, 827.4 415.8 Q 829.0 417.0, 829.0 419.1 Q 829.0 420.5, 828.2 421.5 Q 827.4 422.5, 825.9 423.1 " fill="#FF0000"/>
<path class="atom-33" d="M 843.7 426.4 L 845.8 426.4 L 845.8 428.4 L 843.7 428.4 L 843.7 432.4 L 841.4 432.4 L 841.4 428.4 L 832.2 428.4 L 832.2 426.8 L 840.0 414.7 L 843.7 414.7 L 843.7 426.4 M 835.1 426.4 L 841.4 426.4 L 841.4 416.3 L 835.1 426.4 " fill="#FF0000"/>
<path class="atom-34" d="M 599.3 229.6 Q 599.3 225.2, 601.4 222.9 Q 603.4 220.6, 607.4 220.6 Q 611.0 220.6, 613.0 223.2 L 611.3 224.5 Q 609.9 222.6, 607.4 222.6 Q 604.7 222.6, 603.3 224.4 Q 601.9 226.2, 601.9 229.6 Q 601.9 233.1, 603.3 234.9 Q 604.8 236.7, 607.6 236.7 Q 609.6 236.7, 611.9 235.5 L 612.6 237.4 Q 611.6 238.0, 610.2 238.4 Q 608.8 238.7, 607.3 238.7 Q 603.4 238.7, 601.4 236.4 Q 599.3 234.0, 599.3 229.6 " fill="#000000"/>
<path class="atom-34" d="M 623.7 229.2 Q 625.4 229.7, 626.3 230.8 Q 627.1 231.9, 627.1 233.6 Q 627.1 235.1, 626.4 236.3 Q 625.6 237.5, 624.2 238.1 Q 622.9 238.7, 621.1 238.7 Q 619.2 238.7, 617.7 238.1 Q 616.3 237.4, 615.2 236.1 L 616.6 234.6 Q 617.7 235.8, 618.7 236.3 Q 619.6 236.7, 621.1 236.7 Q 622.7 236.7, 623.6 235.9 Q 624.6 235.0, 624.6 233.6 Q 624.6 231.8, 623.6 231.0 Q 622.6 230.2, 620.4 230.2 L 619.1 230.2 L 619.1 228.4 L 620.3 228.4 Q 622.2 228.4, 623.2 227.5 Q 624.2 226.7, 624.2 225.1 Q 624.2 224.0, 623.4 223.3 Q 622.5 222.6, 621.1 222.6 Q 619.6 222.6, 618.7 223.1 Q 617.8 223.6, 617.1 225.0 L 615.4 224.0 Q 616.0 222.6, 617.5 221.6 Q 619.0 220.6, 621.1 220.6 Q 623.7 220.6, 625.2 221.8 Q 626.7 223.0, 626.7 225.1 Q 626.7 226.5, 626.0 227.6 Q 625.2 228.6, 623.7 229.2 " fill="#000000"/>
<path class="atom-34" d="M 636.3 227.4 Q 637.8 227.4, 639.1 228.1 Q 640.4 228.7, 641.1 230.0 Q 641.8 231.2, 641.8 232.9 Q 641.8 234.7, 640.9 236.0 Q 640.0 237.3, 638.6 238.0 Q 637.1 238.7, 635.5 238.7 Q 633.9 238.7, 632.4 238.1 Q 630.9 237.5, 629.8 236.3 L 631.3 234.8 Q 632.2 235.7, 633.3 236.2 Q 634.4 236.7, 635.6 236.7 Q 637.1 236.7, 638.2 235.7 Q 639.3 234.7, 639.3 232.9 Q 639.3 231.1, 638.2 230.2 Q 637.1 229.3, 635.4 229.3 Q 633.9 229.3, 632.1 230.0 L 630.8 229.3 L 631.6 220.8 L 640.7 220.8 L 640.5 222.8 L 633.7 222.8 L 633.1 228.0 Q 634.7 227.4, 636.3 227.4 " fill="#000000"/>
<path class="atom-35" d="M 769.6 578.3 Q 769.6 573.9, 771.7 571.6 Q 773.8 569.3, 777.7 569.3 Q 781.3 569.3, 783.3 571.8 L 781.6 573.2 Q 780.2 571.3, 777.7 571.3 Q 775.0 571.3, 773.6 573.1 Q 772.2 574.9, 772.2 578.3 Q 772.2 581.8, 773.6 583.6 Q 775.1 585.4, 778.0 585.4 Q 779.9 585.4, 782.2 584.2 L 782.9 586.1 Q 782.0 586.7, 780.6 587.0 Q 779.2 587.4, 777.6 587.4 Q 773.8 587.4, 771.7 585.0 Q 769.6 582.7, 769.6 578.3 " fill="#000000"/>
<path class="atom-35" d="M 794.1 577.8 Q 795.8 578.3, 796.6 579.5 Q 797.5 580.6, 797.5 582.3 Q 797.5 583.8, 796.7 585.0 Q 796.0 586.1, 794.6 586.8 Q 793.2 587.4, 791.4 587.4 Q 789.5 587.4, 788.1 586.8 Q 786.7 586.1, 785.6 584.7 L 787.0 583.3 Q 788.1 584.5, 789.0 585.0 Q 789.9 585.4, 791.4 585.4 Q 793.0 585.4, 794.0 584.6 Q 795.0 583.7, 795.0 582.3 Q 795.0 580.5, 793.9 579.7 Q 792.9 578.9, 790.8 578.9 L 789.5 578.9 L 789.5 577.1 L 790.6 577.1 Q 792.5 577.0, 793.6 576.2 Q 794.6 575.4, 794.6 573.8 Q 794.6 572.6, 793.7 572.0 Q 792.9 571.3, 791.4 571.3 Q 790.0 571.3, 789.0 571.8 Q 788.1 572.3, 787.4 573.6 L 785.7 572.7 Q 786.3 571.2, 787.8 570.3 Q 789.3 569.3, 791.4 569.3 Q 794.0 569.3, 795.6 570.5 Q 797.1 571.7, 797.1 573.8 Q 797.1 575.2, 796.3 576.2 Q 795.5 577.3, 794.1 577.8 " fill="#000000"/>
<path class="atom-35" d="M 807.1 576.1 Q 808.7 576.1, 809.9 576.8 Q 811.1 577.5, 811.8 578.7 Q 812.5 579.9, 812.5 581.5 Q 812.5 583.2, 811.7 584.5 Q 810.9 585.9, 809.6 586.6 Q 808.2 587.4, 806.5 587.4 Q 803.4 587.4, 801.8 585.2 Q 800.2 583.1, 800.2 578.8 Q 800.2 574.1, 802.1 571.7 Q 804.1 569.3, 807.9 569.3 Q 809.0 569.3, 809.9 569.5 Q 810.9 569.8, 811.8 570.3 L 810.8 572.0 Q 809.5 571.3, 807.9 571.3 Q 805.4 571.3, 804.1 572.9 Q 802.9 574.5, 802.7 577.8 Q 803.6 577.0, 804.7 576.6 Q 805.9 576.1, 807.1 576.1 M 806.5 585.3 Q 807.5 585.3, 808.3 584.8 Q 809.1 584.3, 809.5 583.4 Q 810.0 582.6, 810.0 581.5 Q 810.0 579.9, 809.1 579.0 Q 808.2 578.1, 806.7 578.1 Q 805.6 578.1, 804.5 578.6 Q 803.5 579.0, 802.7 579.7 Q 802.8 582.7, 803.7 584.0 Q 804.7 585.3, 806.5 585.3 " fill="#000000"/>
<path class="atom-36" d="M 502.8 190.8 Q 502.8 186.4, 504.8 184.1 Q 506.9 181.8, 510.8 181.8 Q 514.5 181.8, 516.4 184.3 L 514.8 185.7 Q 513.4 183.8, 510.8 183.8 Q 508.2 183.8, 506.7 185.6 Q 505.3 187.4, 505.3 190.8 Q 505.3 194.3, 506.8 196.1 Q 508.3 197.9, 511.1 197.9 Q 513.1 197.9, 515.3 196.7 L 516.0 198.6 Q 515.1 199.2, 513.7 199.5 Q 512.3 199.9, 510.8 199.9 Q 506.9 199.9, 504.8 197.5 Q 502.8 195.2, 502.8 190.8 " fill="#000000"/>
<path class="atom-36" d="M 527.2 190.3 Q 528.9 190.8, 529.7 192.0 Q 530.6 193.1, 530.6 194.8 Q 530.6 196.3, 529.8 197.5 Q 529.1 198.6, 527.7 199.3 Q 526.3 199.9, 524.5 199.9 Q 522.6 199.9, 521.2 199.3 Q 519.8 198.6, 518.7 197.2 L 520.1 195.8 Q 521.2 197.0, 522.1 197.5 Q 523.1 197.9, 524.5 197.9 Q 526.1 197.9, 527.1 197.1 Q 528.1 196.2, 528.1 194.8 Q 528.1 193.0, 527.1 192.2 Q 526.1 191.4, 523.9 191.4 L 522.6 191.4 L 522.6 189.6 L 523.7 189.6 Q 525.7 189.5, 526.7 188.7 Q 527.7 187.9, 527.7 186.3 Q 527.7 185.1, 526.9 184.5 Q 526.0 183.8, 524.6 183.8 Q 523.1 183.8, 522.2 184.3 Q 521.3 184.8, 520.6 186.1 L 518.8 185.2 Q 519.5 183.7, 521.0 182.8 Q 522.5 181.8, 524.6 181.8 Q 527.2 181.8, 528.7 183.0 Q 530.2 184.2, 530.2 186.3 Q 530.2 187.7, 529.4 188.7 Q 528.7 189.8, 527.2 190.3 " fill="#000000"/>
<path class="atom-36" d="M 542.6 184.0 L 533.3 184.0 L 533.3 182.0 L 545.0 182.0 L 545.0 183.7 L 537.9 199.7 L 535.5 199.7 L 542.6 184.0 " fill="#000000"/>
<path class="atom-37" d="M 838.3 511.4 Q 838.3 507.0, 840.4 504.7 Q 842.5 502.3, 846.4 502.3 Q 850.0 502.3, 852.0 504.9 L 850.3 506.3 Q 848.9 504.4, 846.4 504.4 Q 843.7 504.4, 842.3 506.2 Q 840.9 508.0, 840.9 511.4 Q 840.9 514.9, 842.3 516.7 Q 843.8 518.5, 846.7 518.5 Q 848.6 518.5, 850.9 517.3 L 851.6 519.2 Q 850.7 519.8, 849.3 520.1 Q 847.9 520.5, 846.3 520.5 Q 842.5 520.5, 840.4 518.1 Q 838.3 515.8, 838.3 511.4 " fill="#000000"/>
<path class="atom-37" d="M 862.8 510.9 Q 864.5 511.4, 865.3 512.5 Q 866.2 513.6, 866.2 515.4 Q 866.2 516.9, 865.4 518.1 Q 864.7 519.2, 863.3 519.9 Q 861.9 520.5, 860.1 520.5 Q 858.2 520.5, 856.8 519.8 Q 855.4 519.2, 854.3 517.8 L 855.7 516.4 Q 856.8 517.6, 857.7 518.0 Q 858.6 518.5, 860.1 518.5 Q 861.7 518.5, 862.7 517.6 Q 863.7 516.8, 863.7 515.4 Q 863.7 513.6, 862.6 512.8 Q 861.6 511.9, 859.5 511.9 L 858.2 511.9 L 858.2 510.1 L 859.3 510.1 Q 861.2 510.1, 862.3 509.3 Q 863.3 508.4, 863.3 506.9 Q 863.3 505.7, 862.4 505.0 Q 861.6 504.3, 860.1 504.3 Q 858.7 504.3, 857.7 504.9 Q 856.8 505.4, 856.1 506.7 L 854.4 505.8 Q 855.0 504.3, 856.5 503.3 Q 858.0 502.3, 860.1 502.3 Q 862.7 502.3, 864.3 503.6 Q 865.8 504.8, 865.8 506.9 Q 865.8 508.3, 865.0 509.3 Q 864.2 510.3, 862.8 510.9 " fill="#000000"/>
<path class="atom-37" d="M 877.9 510.9 Q 879.5 511.6, 880.5 512.6 Q 881.4 513.6, 881.4 515.4 Q 881.4 516.9, 880.6 518.1 Q 879.8 519.2, 878.4 519.9 Q 877.1 520.5, 875.2 520.5 Q 872.3 520.5, 870.6 519.1 Q 868.9 517.8, 868.9 515.4 Q 868.9 513.9, 869.6 512.9 Q 870.4 511.8, 871.9 510.9 Q 870.8 510.3, 870.2 509.3 Q 869.5 508.4, 869.5 506.9 Q 869.5 504.8, 871.0 503.6 Q 872.6 502.3, 875.1 502.3 Q 877.7 502.3, 879.2 503.6 Q 880.7 504.8, 880.7 506.9 Q 880.7 508.2, 880.0 509.1 Q 879.3 510.1, 877.9 510.9 M 875.1 504.2 Q 873.7 504.2, 872.8 504.9 Q 872.0 505.6, 872.0 506.9 Q 872.0 507.8, 872.6 508.4 Q 873.1 509.0, 873.9 509.4 Q 874.7 509.7, 876.2 510.2 Q 877.3 509.5, 877.8 508.7 Q 878.2 507.9, 878.2 506.9 Q 878.2 505.6, 877.4 504.9 Q 876.6 504.2, 875.1 504.2 M 875.2 518.6 Q 876.9 518.6, 877.9 517.7 Q 878.9 516.8, 878.9 515.4 Q 878.9 514.4, 878.4 513.8 Q 877.8 513.2, 877.0 512.9 Q 876.3 512.5, 874.9 512.1 L 873.7 511.7 Q 872.5 512.4, 871.9 513.3 Q 871.4 514.2, 871.4 515.4 Q 871.4 516.8, 872.4 517.7 Q 873.5 518.6, 875.2 518.6 " fill="#000000"/>
<path class="atom-38" d="M 876.9 578.5 Q 876.9 574.1, 878.9 571.8 Q 881.0 569.4, 884.9 569.4 Q 888.6 569.4, 890.5 572.0 L 888.9 573.4 Q 887.4 571.5, 884.9 571.5 Q 882.2 571.5, 880.8 573.3 Q 879.4 575.1, 879.4 578.5 Q 879.4 582.0, 880.9 583.8 Q 882.3 585.6, 885.2 585.6 Q 887.1 585.6, 889.4 584.4 L 890.1 586.3 Q 889.2 586.9, 887.8 587.2 Q 886.4 587.6, 884.8 587.6 Q 881.0 587.6, 878.9 585.2 Q 876.9 582.9, 876.9 578.5 " fill="#000000"/>
<path class="atom-38" d="M 901.3 578.0 Q 903.0 578.5, 903.8 579.6 Q 904.7 580.7, 904.7 582.5 Q 904.7 584.0, 903.9 585.2 Q 903.2 586.3, 901.8 587.0 Q 900.4 587.6, 898.6 587.6 Q 896.7 587.6, 895.3 586.9 Q 893.9 586.3, 892.8 584.9 L 894.2 583.5 Q 895.3 584.7, 896.2 585.1 Q 897.2 585.6, 898.6 585.6 Q 900.2 585.6, 901.2 584.7 Q 902.2 583.9, 902.2 582.5 Q 902.2 580.7, 901.2 579.9 Q 900.2 579.0, 898.0 579.0 L 896.7 579.0 L 896.7 577.2 L 897.8 577.2 Q 899.8 577.2, 900.8 576.4 Q 901.8 575.5, 901.8 574.0 Q 901.8 572.8, 901.0 572.1 Q 900.1 571.4, 898.7 571.4 Q 897.2 571.4, 896.3 572.0 Q 895.4 572.5, 894.7 573.8 L 892.9 572.9 Q 893.6 571.4, 895.1 570.4 Q 896.6 569.4, 898.7 569.4 Q 901.3 569.4, 902.8 570.7 Q 904.3 571.9, 904.3 574.0 Q 904.3 575.4, 903.5 576.4 Q 902.8 577.4, 901.3 578.0 " fill="#000000"/>
<path class="atom-38" d="M 913.4 569.4 Q 916.5 569.4, 918.1 571.6 Q 919.7 573.7, 919.7 578.0 Q 919.7 582.7, 917.7 585.1 Q 915.8 587.5, 912.0 587.5 Q 910.9 587.5, 909.9 587.3 Q 909.0 587.0, 908.1 586.5 L 909.1 584.8 Q 910.4 585.5, 912.0 585.5 Q 914.5 585.5, 915.7 583.9 Q 917.0 582.3, 917.2 579.0 Q 916.3 579.8, 915.1 580.3 Q 914.0 580.7, 912.8 580.7 Q 911.2 580.7, 910.0 580.0 Q 908.8 579.3, 908.1 578.1 Q 907.4 576.9, 907.4 575.3 Q 907.4 573.6, 908.2 572.3 Q 908.9 570.9, 910.3 570.2 Q 911.6 569.4, 913.4 569.4 M 909.9 575.3 Q 909.9 576.9, 910.8 577.8 Q 911.7 578.7, 913.2 578.7 Q 914.3 578.7, 915.3 578.3 Q 916.4 577.8, 917.2 577.1 Q 917.1 574.1, 916.1 572.8 Q 915.2 571.5, 913.3 571.5 Q 912.4 571.5, 911.6 572.0 Q 910.8 572.5, 910.4 573.4 Q 909.9 574.2, 909.9 575.3 " fill="#000000"/>
<path class="atom-39" d="M 799.3 655.7 Q 799.3 651.3, 801.4 649.0 Q 803.5 646.6, 807.4 646.6 Q 811.0 646.6, 813.0 649.2 L 811.3 650.6 Q 809.9 648.7, 807.4 648.7 Q 804.7 648.7, 803.3 650.5 Q 801.9 652.3, 801.9 655.7 Q 801.9 659.2, 803.3 661.0 Q 804.8 662.8, 807.7 662.8 Q 809.6 662.8, 811.9 661.6 L 812.6 663.5 Q 811.7 664.1, 810.3 664.4 Q 808.9 664.8, 807.3 664.8 Q 803.5 664.8, 801.4 662.4 Q 799.3 660.1, 799.3 655.7 " fill="#000000"/>
<path class="atom-39" d="M 826.8 658.5 L 828.9 658.5 L 828.9 660.5 L 826.8 660.5 L 826.8 664.5 L 824.5 664.5 L 824.5 660.5 L 815.3 660.5 L 815.3 658.9 L 823.1 646.8 L 826.8 646.8 L 826.8 658.5 M 818.2 658.5 L 824.5 658.5 L 824.5 648.4 L 818.2 658.5 " fill="#000000"/>
<path class="atom-39" d="M 838.0 664.7 Q 834.7 664.7, 833.1 662.3 Q 831.5 659.9, 831.5 655.7 Q 831.5 651.4, 833.1 649.0 Q 834.7 646.6, 838.0 646.6 Q 841.3 646.6, 842.9 649.0 Q 844.5 651.4, 844.5 655.7 Q 844.5 659.9, 842.8 662.3 Q 841.2 664.7, 838.0 664.7 M 838.0 662.7 Q 839.9 662.7, 840.9 661.0 Q 842.0 659.2, 842.0 655.7 Q 842.0 652.2, 840.9 650.4 Q 839.9 648.6, 838.0 648.6 Q 836.1 648.6, 835.0 650.4 Q 834.0 652.2, 834.0 655.7 Q 834.0 659.2, 835.0 661.0 Q 836.1 662.7, 838.0 662.7 " fill="#000000"/>
<path class="atom-40" d="M 532.7 113.4 Q 532.7 109.0, 534.7 106.7 Q 536.8 104.4, 540.7 104.4 Q 544.4 104.4, 546.3 106.9 L 544.7 108.3 Q 543.2 106.4, 540.7 106.4 Q 538.0 106.4, 536.6 108.2 Q 535.2 110.0, 535.2 113.4 Q 535.2 116.9, 536.7 118.7 Q 538.1 120.5, 541.0 120.5 Q 542.9 120.5, 545.2 119.3 L 545.9 121.2 Q 545.0 121.8, 543.6 122.1 Q 542.2 122.5, 540.6 122.5 Q 536.8 122.5, 534.7 120.1 Q 532.7 117.8, 532.7 113.4 " fill="#000000"/>
<path class="atom-40" d="M 560.1 116.2 L 562.2 116.2 L 562.2 118.2 L 560.1 118.2 L 560.1 122.3 L 557.7 122.3 L 557.7 118.2 L 548.6 118.2 L 548.6 116.6 L 556.3 104.6 L 560.1 104.6 L 560.1 116.2 M 551.5 116.2 L 557.7 116.2 L 557.7 106.2 L 551.5 116.2 " fill="#000000"/>
<path class="atom-40" d="M 565.7 120.3 L 569.5 120.3 L 569.5 107.0 L 565.3 108.4 L 564.7 106.9 L 570.1 104.5 L 571.9 104.8 L 571.9 120.3 L 575.4 120.3 L 575.4 122.3 L 565.7 122.3 L 565.7 120.3 " fill="#000000"/>
<path class="atom-41" d="M 450.2 229.4 Q 450.2 225.0, 452.2 222.7 Q 454.3 220.4, 458.2 220.4 Q 461.9 220.4, 463.8 223.0 L 462.2 224.3 Q 460.7 222.5, 458.2 222.5 Q 455.5 222.5, 454.1 224.3 Q 452.7 226.0, 452.7 229.4 Q 452.7 232.9, 454.2 234.7 Q 455.6 236.5, 458.5 236.5 Q 460.4 236.5, 462.7 235.4 L 463.4 237.2 Q 462.5 237.8, 461.1 238.2 Q 459.7 238.5, 458.1 238.5 Q 454.3 238.5, 452.2 236.2 Q 450.2 233.8, 450.2 229.4 " fill="#000000"/>
<path class="atom-41" d="M 477.6 232.2 L 479.7 232.2 L 479.7 234.2 L 477.6 234.2 L 477.6 238.3 L 475.3 238.3 L 475.3 234.2 L 466.1 234.2 L 466.1 232.7 L 473.9 220.6 L 477.6 220.6 L 477.6 232.2 M 469.0 232.2 L 475.3 232.2 L 475.3 222.2 L 469.0 232.2 " fill="#000000"/>
<path class="atom-41" d="M 482.3 224.0 Q 483.0 222.3, 484.5 221.4 Q 486.1 220.4, 488.2 220.4 Q 490.9 220.4, 492.4 221.9 Q 493.9 223.3, 493.9 225.9 Q 493.9 228.5, 492.0 231.0 Q 490.0 233.4, 486.0 236.3 L 494.2 236.3 L 494.2 238.3 L 482.3 238.3 L 482.3 236.6 Q 485.6 234.3, 487.5 232.5 Q 489.5 230.8, 490.5 229.2 Q 491.4 227.6, 491.4 226.0 Q 491.4 224.3, 490.6 223.4 Q 489.7 222.4, 488.2 222.4 Q 486.8 222.4, 485.9 223.0 Q 484.9 223.6, 484.2 224.8 L 482.3 224.0 " fill="#000000"/>
<path class="atom-42" d="M 450.5 74.6 Q 450.5 70.2, 452.5 67.9 Q 454.6 65.6, 458.5 65.6 Q 462.2 65.6, 464.1 68.2 L 462.5 69.5 Q 461.1 67.7, 458.5 67.7 Q 455.9 67.7, 454.4 69.5 Q 453.0 71.2, 453.0 74.6 Q 453.0 78.1, 454.5 79.9 Q 456.0 81.7, 458.8 81.7 Q 460.8 81.7, 463.0 80.6 L 463.7 82.4 Q 462.8 83.0, 461.4 83.4 Q 460.0 83.7, 458.5 83.7 Q 454.6 83.7, 452.5 81.4 Q 450.5 79.0, 450.5 74.6 " fill="#000000"/>
<path class="atom-42" d="M 477.9 77.4 L 480.1 77.4 L 480.1 79.4 L 477.9 79.4 L 477.9 83.5 L 475.6 83.5 L 475.6 79.4 L 466.4 79.4 L 466.4 77.9 L 474.2 65.8 L 477.9 65.8 L 477.9 77.4 M 469.3 77.4 L 475.6 77.4 L 475.6 67.4 L 469.3 77.4 " fill="#000000"/>
<path class="atom-42" d="M 491.1 74.2 Q 492.8 74.7, 493.6 75.8 Q 494.5 76.9, 494.5 78.7 Q 494.5 80.2, 493.7 81.3 Q 493.0 82.5, 491.6 83.1 Q 490.2 83.8, 488.4 83.8 Q 486.5 83.8, 485.1 83.1 Q 483.7 82.4, 482.6 81.1 L 484.0 79.6 Q 485.1 80.8, 486.0 81.3 Q 487.0 81.8, 488.4 81.8 Q 490.0 81.8, 491.0 80.9 Q 492.0 80.0, 492.0 78.6 Q 492.0 76.8, 491.0 76.0 Q 490.0 75.2, 487.8 75.2 L 486.5 75.2 L 486.5 73.4 L 487.6 73.4 Q 489.6 73.4, 490.6 72.6 Q 491.6 71.7, 491.6 70.1 Q 491.6 69.0, 490.8 68.3 Q 489.9 67.6, 488.5 67.6 Q 487.0 67.6, 486.1 68.1 Q 485.2 68.7, 484.5 70.0 L 482.7 69.1 Q 483.4 67.6, 484.9 66.6 Q 486.4 65.6, 488.5 65.6 Q 491.1 65.6, 492.6 66.8 Q 494.1 68.1, 494.1 70.1 Q 494.1 71.6, 493.3 72.6 Q 492.6 73.6, 491.1 74.2 " fill="#000000"/>
<path class="atom-43" d="M 368.3 181.5 L 374.1 190.9 Q 374.7 191.8, 375.6 193.5 Q 376.5 195.2, 376.6 195.3 L 376.6 181.5 L 378.9 181.5 L 378.9 199.2 L 376.5 199.2 L 370.3 189.0 Q 369.5 187.8, 368.8 186.4 Q 368.0 185.0, 367.8 184.6 L 367.8 199.2 L 365.5 199.2 L 365.5 181.5 L 368.3 181.5 " fill="#0000FF"/>
<path class="atom-43" d="M 393.8 193.1 L 396.0 193.1 L 396.0 195.1 L 393.8 195.1 L 393.8 199.2 L 391.5 199.2 L 391.5 195.1 L 382.3 195.1 L 382.3 193.6 L 390.1 181.5 L 393.8 181.5 L 393.8 193.1 M 385.2 193.1 L 391.5 193.1 L 391.5 183.1 L 385.2 193.1 " fill="#0000FF"/>
<path class="atom-43" d="M 410.1 193.1 L 412.2 193.1 L 412.2 195.1 L 410.1 195.1 L 410.1 199.2 L 407.7 199.2 L 407.7 195.1 L 398.6 195.1 L 398.6 193.6 L 406.3 181.5 L 410.1 181.5 L 410.1 193.1 M 401.5 193.1 L 407.7 193.1 L 407.7 183.1 L 401.5 193.1 " fill="#0000FF"/>
<path class="atom-44" d="M 367.3 113.0 Q 367.3 108.6, 369.3 106.3 Q 371.4 104.0, 375.3 104.0 Q 379.0 104.0, 380.9 106.6 L 379.3 107.9 Q 377.8 106.1, 375.3 106.1 Q 372.6 106.1, 371.2 107.9 Q 369.8 109.6, 369.8 113.0 Q 369.8 116.5, 371.3 118.3 Q 372.7 120.1, 375.6 120.1 Q 377.5 120.1, 379.8 119.0 L 380.5 120.8 Q 379.6 121.4, 378.2 121.8 Q 376.8 122.1, 375.2 122.1 Q 371.4 122.1, 369.3 119.8 Q 367.3 117.4, 367.3 113.0 " fill="#000000"/>
<path class="atom-44" d="M 394.7 115.8 L 396.8 115.8 L 396.8 117.8 L 394.7 117.8 L 394.7 121.9 L 392.4 121.9 L 392.4 117.8 L 383.2 117.8 L 383.2 116.3 L 391.0 104.2 L 394.7 104.2 L 394.7 115.8 M 386.1 115.8 L 392.4 115.8 L 392.4 105.8 L 386.1 115.8 " fill="#000000"/>
<path class="atom-44" d="M 405.8 110.8 Q 407.4 110.8, 408.6 111.5 Q 409.9 112.2, 410.6 113.4 Q 411.4 114.6, 411.4 116.3 Q 411.4 118.1, 410.5 119.5 Q 409.6 120.8, 408.1 121.4 Q 406.7 122.1, 405.0 122.1 Q 403.4 122.1, 401.9 121.5 Q 400.4 120.9, 399.4 119.8 L 400.9 118.2 Q 401.7 119.1, 402.8 119.6 Q 404.0 120.1, 405.1 120.1 Q 406.7 120.1, 407.8 119.1 Q 408.9 118.1, 408.9 116.4 Q 408.9 114.5, 407.8 113.6 Q 406.7 112.7, 405.0 112.7 Q 403.4 112.7, 401.7 113.4 L 400.3 112.7 L 401.2 104.2 L 410.3 104.2 L 410.0 106.2 L 403.2 106.2 L 402.7 111.5 Q 404.3 110.8, 405.8 110.8 " fill="#000000"/>
<text x="1000" y="50" font-size="8" font-family="Verdana" font-weight="normal" letter-spacing="0" text-anchor="start" fill="black">Highlighted Atoms:
Primary SOM: Red
Secondary SOM: Green
Tertiary SOM: Cyan
</text></svg>
