<?xml version='1.0' encoding='ASCII' standalone='yes'?>
<svg xmlns="http://www.w3.org/2000/svg" xmlns:rdkit="http://www.rdkit.org/xml" xmlns:xlink="http://www.w3.org/1999/xlink" style="background-color: white;" version="1.1" baseProfile="full" xml:space="preserve" width="1000px" height="1000px" viewBox="0 0 1000 1000">
<!-- END OF HEADER -->
<rect style="opacity:1.0;fill:#FFFFFF;stroke:none" width="1000.0" height="1000.0" x="0.0" y="0.0"> </rect>
<ellipse cx="805.5" cy="338.1" rx="31.3" ry="24.7" class="atom-23" style="fill:#B20000;fill-rule:evenodd;stroke:#B20000;stroke-width:1.0px;stroke-linecap:butt;stroke-linejoin:miter;stroke-opacity:1"/>
<path class="bond-0 atom-1 atom-0" d="M 403.2,739.2 L 349.3,722.5" style="fill:none;fill-rule:evenodd;stroke:#000000;stroke-width:2.0px;stroke-linecap:butt;stroke-linejoin:miter;stroke-opacity:1"/>
<path class="bond-0 atom-1 atom-0" d="M 406.8,727.4 L 353.0,710.7" style="fill:none;fill-rule:evenodd;stroke:#000000;stroke-width:2.0px;stroke-linecap:butt;stroke-linejoin:miter;stroke-opacity:1"/>
<path class="bond-1 atom-2 atom-1" d="M 470.8,697.4 L 432.5,732.7" style="fill:none;fill-rule:evenodd;stroke:#000000;stroke-width:2.0px;stroke-linecap:butt;stroke-linejoin:miter;stroke-opacity:1"/>
<path class="bond-2 atom-3 atom-2" d="M 464.8,619.9 L 471.2,648.5" style="fill:none;fill-rule:evenodd;stroke:#0000FF;stroke-width:2.0px;stroke-linecap:butt;stroke-linejoin:miter;stroke-opacity:1"/>
<path class="bond-2 atom-3 atom-2" d="M 471.2,648.5 L 477.7,677.0" style="fill:none;fill-rule:evenodd;stroke:#000000;stroke-width:2.0px;stroke-linecap:butt;stroke-linejoin:miter;stroke-opacity:1"/>
<path class="bond-2 atom-3 atom-2" d="M 452.7,622.6 L 459.2,651.2" style="fill:none;fill-rule:evenodd;stroke:#0000FF;stroke-width:2.0px;stroke-linecap:butt;stroke-linejoin:miter;stroke-opacity:1"/>
<path class="bond-2 atom-3 atom-2" d="M 459.2,651.2 L 465.7,679.7" style="fill:none;fill-rule:evenodd;stroke:#000000;stroke-width:2.0px;stroke-linecap:butt;stroke-linejoin:miter;stroke-opacity:1"/>
<path class="bond-3 atom-4 atom-3" d="M 392.4,586.6 L 422.6,596.0" style="fill:none;fill-rule:evenodd;stroke:#000000;stroke-width:2.0px;stroke-linecap:butt;stroke-linejoin:miter;stroke-opacity:1"/>
<path class="bond-3 atom-4 atom-3" d="M 422.6,596.0 L 452.7,605.4" style="fill:none;fill-rule:evenodd;stroke:#0000FF;stroke-width:2.0px;stroke-linecap:butt;stroke-linejoin:miter;stroke-opacity:1"/>
<path class="bond-4 atom-5 atom-0" d="M 325.8,651.5 L 338.7,708.4" style="fill:none;fill-rule:evenodd;stroke:#000000;stroke-width:2.0px;stroke-linecap:butt;stroke-linejoin:miter;stroke-opacity:1"/>
<path class="bond-5 atom-5 atom-4" d="M 335.8,628.0 L 370.8,595.8" style="fill:none;fill-rule:evenodd;stroke:#000000;stroke-width:2.0px;stroke-linecap:butt;stroke-linejoin:miter;stroke-opacity:1"/>
<path class="bond-5 atom-5 atom-4" d="M 344.2,637.1 L 379.2,604.9" style="fill:none;fill-rule:evenodd;stroke:#000000;stroke-width:2.0px;stroke-linecap:butt;stroke-linejoin:miter;stroke-opacity:1"/>
<path class="bond-6 atom-6 atom-5" d="M 250.4,628.7 L 306.3,637.1" style="fill:none;fill-rule:evenodd;stroke:#000000;stroke-width:2.0px;stroke-linecap:butt;stroke-linejoin:miter;stroke-opacity:1"/>
<path class="bond-7 atom-7 atom-6" d="M 207.8,568.0 L 235.1,615.8" style="fill:none;fill-rule:evenodd;stroke:#000000;stroke-width:2.0px;stroke-linecap:butt;stroke-linejoin:miter;stroke-opacity:1"/>
<path class="bond-8 atom-8 atom-7" d="M 226.4,491.3 L 205.5,544.4" style="fill:none;fill-rule:evenodd;stroke:#000000;stroke-width:2.0px;stroke-linecap:butt;stroke-linejoin:miter;stroke-opacity:1"/>
<path class="bond-9 atom-9 atom-8" d="M 271.7,467.0 L 255.1,472.0" style="fill:none;fill-rule:evenodd;stroke:#000000;stroke-width:2.0px;stroke-linecap:butt;stroke-linejoin:miter;stroke-opacity:1"/>
<path class="bond-9 atom-9 atom-8" d="M 268.1,455.2 L 251.5,460.2" style="fill:none;fill-rule:evenodd;stroke:#000000;stroke-width:2.0px;stroke-linecap:butt;stroke-linejoin:miter;stroke-opacity:1"/>
<path class="bond-10 atom-10 atom-9" d="M 325.3,386.9 L 312.4,443.7" style="fill:none;fill-rule:evenodd;stroke:#000000;stroke-width:2.0px;stroke-linecap:butt;stroke-linejoin:miter;stroke-opacity:1"/>
<path class="bond-11 atom-11 atom-10" d="M 280.4,330.6 L 318.5,366.1" style="fill:none;fill-rule:evenodd;stroke:#000000;stroke-width:2.0px;stroke-linecap:butt;stroke-linejoin:miter;stroke-opacity:1"/>
<path class="bond-11 atom-11 atom-10" d="M 272.0,339.6 L 310.0,375.2" style="fill:none;fill-rule:evenodd;stroke:#000000;stroke-width:2.0px;stroke-linecap:butt;stroke-linejoin:miter;stroke-opacity:1"/>
<path class="bond-12 atom-12 atom-11" d="M 225.9,331.9 L 244.8,326.0" style="fill:none;fill-rule:evenodd;stroke:#000000;stroke-width:2.0px;stroke-linecap:butt;stroke-linejoin:miter;stroke-opacity:1"/>
<path class="bond-13 atom-13 atom-8" d="M 180.3,432.3 L 221.5,470.5" style="fill:none;fill-rule:evenodd;stroke:#000000;stroke-width:2.0px;stroke-linecap:butt;stroke-linejoin:miter;stroke-opacity:1"/>
<path class="bond-14 atom-13 atom-12" d="M 173.4,412.0 L 186.5,355.1" style="fill:none;fill-rule:evenodd;stroke:#000000;stroke-width:2.0px;stroke-linecap:butt;stroke-linejoin:miter;stroke-opacity:1"/>
<path class="bond-14 atom-13 atom-12" d="M 185.4,414.7 L 198.6,357.9" style="fill:none;fill-rule:evenodd;stroke:#000000;stroke-width:2.0px;stroke-linecap:butt;stroke-linejoin:miter;stroke-opacity:1"/>
<path class="bond-15 atom-14 atom-4" d="M 378.5,513.6 L 382.9,572.5" style="fill:none;fill-rule:evenodd;stroke:#000000;stroke-width:2.0px;stroke-linecap:butt;stroke-linejoin:miter;stroke-opacity:1"/>
<path class="bond-16 atom-14 atom-9" d="M 360.7,490.2 L 318.9,461.6" style="fill:none;fill-rule:evenodd;stroke:#000000;stroke-width:2.0px;stroke-linecap:butt;stroke-linejoin:miter;stroke-opacity:1"/>
<path class="bond-17 atom-15 atom-14" d="M 431.3,478.0 L 389.4,502.1" style="fill:none;fill-rule:evenodd;stroke:#000000;stroke-width:2.0px;stroke-linecap:butt;stroke-linejoin:miter;stroke-opacity:1"/>
<path class="bond-17 atom-15 atom-14" d="M 425.1,467.3 L 383.2,491.4" style="fill:none;fill-rule:evenodd;stroke:#000000;stroke-width:2.0px;stroke-linecap:butt;stroke-linejoin:miter;stroke-opacity:1"/>
<path class="bond-18 atom-16 atom-15" d="M 499.9,490.2 L 457.7,465.9" style="fill:none;fill-rule:evenodd;stroke:#000000;stroke-width:2.0px;stroke-linecap:butt;stroke-linejoin:miter;stroke-opacity:1"/>
<path class="bond-19 atom-17 atom-16" d="M 582.0,466.5 L 540.2,490.4" style="fill:none;fill-rule:evenodd;stroke:#000000;stroke-width:2.0px;stroke-linecap:butt;stroke-linejoin:miter;stroke-opacity:1"/>
<path class="bond-20 atom-18 atom-17" d="M 591.6,390.6 L 591.6,420.0" style="fill:none;fill-rule:evenodd;stroke:#0000FF;stroke-width:2.0px;stroke-linecap:butt;stroke-linejoin:miter;stroke-opacity:1"/>
<path class="bond-20 atom-18 atom-17" d="M 591.6,420.0 L 591.6,449.3" style="fill:none;fill-rule:evenodd;stroke:#000000;stroke-width:2.0px;stroke-linecap:butt;stroke-linejoin:miter;stroke-opacity:1"/>
<path class="bond-21 atom-19 atom-18" d="M 540.8,349.2 L 556.3,358.2" style="fill:none;fill-rule:evenodd;stroke:#000000;stroke-width:2.0px;stroke-linecap:butt;stroke-linejoin:miter;stroke-opacity:1"/>
<path class="bond-21 atom-19 atom-18" d="M 556.3,358.2 L 571.7,367.2" style="fill:none;fill-rule:evenodd;stroke:#0000FF;stroke-width:2.0px;stroke-linecap:butt;stroke-linejoin:miter;stroke-opacity:1"/>
<path class="bond-22 atom-20 atom-15" d="M 449.1,390.2 L 448.9,449.1" style="fill:none;fill-rule:evenodd;stroke:#000000;stroke-width:2.0px;stroke-linecap:butt;stroke-linejoin:miter;stroke-opacity:1"/>
<path class="bond-23 atom-20 atom-19" d="M 457.2,373.9 L 499.8,349.3" style="fill:none;fill-rule:evenodd;stroke:#000000;stroke-width:2.0px;stroke-linecap:butt;stroke-linejoin:miter;stroke-opacity:1"/>
<path class="bond-24 atom-21 atom-18" d="M 653.4,343.2 L 626.9,358.4" style="fill:none;fill-rule:evenodd;stroke:#000000;stroke-width:2.0px;stroke-linecap:butt;stroke-linejoin:miter;stroke-opacity:1"/>
<path class="bond-24 atom-21 atom-18" d="M 626.9,358.4 L 600.4,373.6" style="fill:none;fill-rule:evenodd;stroke:#0000FF;stroke-width:2.0px;stroke-linecap:butt;stroke-linejoin:miter;stroke-opacity:1"/>
<path class="bond-25 atom-22 atom-21" d="M 714.0,367.3 L 698.6,358.3" style="fill:none;fill-rule:evenodd;stroke:#FF0000;stroke-width:2.0px;stroke-linecap:butt;stroke-linejoin:miter;stroke-opacity:1"/>
<path class="bond-25 atom-22 atom-21" d="M 698.6,358.3 L 683.1,349.3" style="fill:none;fill-rule:evenodd;stroke:#000000;stroke-width:2.0px;stroke-linecap:butt;stroke-linejoin:miter;stroke-opacity:1"/>
<path class="bond-26 atom-23 atom-22" d="M 784.8,349.8 L 769.6,358.6" style="fill:none;fill-rule:evenodd;stroke:#000000;stroke-width:2.0px;stroke-linecap:butt;stroke-linejoin:miter;stroke-opacity:1"/>
<path class="bond-26 atom-23 atom-22" d="M 769.6,358.6 L 754.5,367.3" style="fill:none;fill-rule:evenodd;stroke:#FF0000;stroke-width:2.0px;stroke-linecap:butt;stroke-linejoin:miter;stroke-opacity:1"/>
<path class="bond-27 atom-24 atom-23" d="M 867.1,373.7 L 825.6,349.6" style="fill:none;fill-rule:evenodd;stroke:#000000;stroke-width:2.0px;stroke-linecap:butt;stroke-linejoin:miter;stroke-opacity:1"/>
<path class="bond-28 atom-25 atom-21" d="M 669.3,267.3 L 669.2,296.7" style="fill:none;fill-rule:evenodd;stroke:#FF0000;stroke-width:2.0px;stroke-linecap:butt;stroke-linejoin:miter;stroke-opacity:1"/>
<path class="bond-28 atom-25 atom-21" d="M 669.2,296.7 L 669.2,326.0" style="fill:none;fill-rule:evenodd;stroke:#000000;stroke-width:2.0px;stroke-linecap:butt;stroke-linejoin:miter;stroke-opacity:1"/>
<path class="bond-28 atom-25 atom-21" d="M 656.9,267.3 L 656.9,296.7" style="fill:none;fill-rule:evenodd;stroke:#FF0000;stroke-width:2.0px;stroke-linecap:butt;stroke-linejoin:miter;stroke-opacity:1"/>
<path class="bond-28 atom-25 atom-21" d="M 656.9,296.7 L 656.8,326.0" style="fill:none;fill-rule:evenodd;stroke:#000000;stroke-width:2.0px;stroke-linecap:butt;stroke-linejoin:miter;stroke-opacity:1"/>
<path class="bond-29 atom-26 atom-12" d="M 137.5,295.1 L 158.6,314.7" style="fill:none;fill-rule:evenodd;stroke:#00CC00;stroke-width:2.0px;stroke-linecap:butt;stroke-linejoin:miter;stroke-opacity:1"/>
<path class="bond-29 atom-26 atom-12" d="M 158.6,314.7 L 179.8,334.3" style="fill:none;fill-rule:evenodd;stroke:#000000;stroke-width:2.0px;stroke-linecap:butt;stroke-linejoin:miter;stroke-opacity:1"/>
<path class="atom-0" d="M 320.1 720.1 Q 320.1 715.7, 322.1 713.4 Q 324.2 711.1, 328.1 711.1 Q 331.8 711.1, 333.7 713.6 L 332.1 715.0 Q 330.7 713.1, 328.1 713.1 Q 325.5 713.1, 324.0 714.9 Q 322.6 716.7, 322.6 720.1 Q 322.6 723.6, 324.1 725.4 Q 325.6 727.2, 328.4 727.2 Q 330.4 727.2, 332.6 726.0 L 333.3 727.9 Q 332.4 728.5, 331.0 728.8 Q 329.6 729.2, 328.1 729.2 Q 324.2 729.2, 322.1 726.8 Q 320.1 724.5, 320.1 720.1 " fill="#000000"/>
<path class="atom-0" d="M 336.9 727.0 L 340.8 727.0 L 340.8 713.7 L 336.5 715.1 L 335.9 713.6 L 341.4 711.2 L 343.1 711.5 L 343.1 727.0 L 346.6 727.0 L 346.6 729.0 L 336.9 729.0 L 336.9 727.0 " fill="#000000"/>
<path class="atom-1" d="M 405.9 744.5 Q 405.9 740.1, 408.0 737.8 Q 410.0 735.4, 414.0 735.4 Q 417.6 735.4, 419.6 738.0 L 417.9 739.4 Q 416.5 737.5, 414.0 737.5 Q 411.3 737.5, 409.9 739.3 Q 408.5 741.1, 408.5 744.5 Q 408.5 748.0, 409.9 749.8 Q 411.4 751.6, 414.2 751.6 Q 416.2 751.6, 418.5 750.4 L 419.2 752.3 Q 418.2 752.9, 416.8 753.2 Q 415.4 753.6, 413.9 753.6 Q 410.0 753.6, 408.0 751.2 Q 405.9 748.9, 405.9 744.5 " fill="#000000"/>
<path class="atom-1" d="M 421.9 739.0 Q 422.5 737.3, 424.1 736.4 Q 425.6 735.4, 427.8 735.4 Q 430.5 735.4, 432.0 736.9 Q 433.5 738.3, 433.5 740.9 Q 433.5 743.5, 431.5 746.0 Q 429.6 748.4, 425.6 751.3 L 433.8 751.3 L 433.8 753.3 L 421.8 753.3 L 421.8 751.7 Q 425.1 749.3, 427.1 747.6 Q 429.1 745.8, 430.0 744.2 Q 431.0 742.7, 431.0 741.0 Q 431.0 739.3, 430.1 738.4 Q 429.3 737.4, 427.8 737.4 Q 426.4 737.4, 425.4 738.0 Q 424.5 738.6, 423.8 739.9 L 421.9 739.0 " fill="#000000"/>
<path class="atom-2" d="M 473.5 688.7 Q 473.5 684.3, 475.6 682.0 Q 477.7 679.7, 481.6 679.7 Q 485.2 679.7, 487.2 682.3 L 485.5 683.6 Q 484.1 681.8, 481.6 681.8 Q 478.9 681.8, 477.5 683.6 Q 476.1 685.3, 476.1 688.7 Q 476.1 692.2, 477.5 694.0 Q 479.0 695.8, 481.9 695.8 Q 483.8 695.8, 486.1 694.7 L 486.8 696.5 Q 485.9 697.1, 484.5 697.5 Q 483.1 697.8, 481.5 697.8 Q 477.7 697.8, 475.6 695.5 Q 473.5 693.1, 473.5 688.7 " fill="#000000"/>
<path class="atom-2" d="M 498.0 688.3 Q 499.7 688.8, 500.5 689.9 Q 501.4 691.0, 501.4 692.8 Q 501.4 694.3, 500.6 695.4 Q 499.9 696.6, 498.5 697.2 Q 497.1 697.9, 495.3 697.9 Q 493.4 697.9, 492.0 697.2 Q 490.6 696.5, 489.5 695.2 L 490.9 693.7 Q 492.0 694.9, 492.9 695.4 Q 493.8 695.9, 495.3 695.9 Q 496.9 695.9, 497.9 695.0 Q 498.9 694.1, 498.9 692.7 Q 498.9 690.9, 497.8 690.1 Q 496.8 689.3, 494.7 689.3 L 493.4 689.3 L 493.4 687.5 L 494.5 687.5 Q 496.4 687.5, 497.5 686.7 Q 498.5 685.8, 498.5 684.2 Q 498.5 683.1, 497.6 682.4 Q 496.8 681.7, 495.3 681.7 Q 493.9 681.7, 492.9 682.2 Q 492.0 682.8, 491.3 684.1 L 489.6 683.2 Q 490.2 681.7, 491.7 680.7 Q 493.2 679.7, 495.3 679.7 Q 497.9 679.7, 499.5 680.9 Q 501.0 682.2, 501.0 684.2 Q 501.0 685.7, 500.2 686.7 Q 499.4 687.7, 498.0 688.3 " fill="#000000"/>
<path class="atom-3" d="M 458.2 599.5 L 464.0 608.9 Q 464.6 609.8, 465.5 611.5 Q 466.4 613.1, 466.5 613.2 L 466.5 599.5 L 468.8 599.5 L 468.8 617.2 L 466.4 617.2 L 460.2 606.9 Q 459.5 605.7, 458.7 604.4 Q 457.9 603.0, 457.7 602.6 L 457.7 617.2 L 455.4 617.2 L 455.4 599.5 L 458.2 599.5 " fill="#0000FF"/>
<path class="atom-3" d="M 483.8 611.1 L 485.9 611.1 L 485.9 613.1 L 483.8 613.1 L 483.8 617.2 L 481.4 617.2 L 481.4 613.1 L 472.3 613.1 L 472.3 611.5 L 480.0 599.5 L 483.8 599.5 L 483.8 611.1 M 475.2 611.1 L 481.4 611.1 L 481.4 601.1 L 475.2 611.1 " fill="#0000FF"/>
<path class="atom-4" d="M 361.8 584.0 Q 361.8 579.6, 363.8 577.3 Q 365.9 575.0, 369.8 575.0 Q 373.5 575.0, 375.4 577.5 L 373.8 578.9 Q 372.4 577.0, 369.8 577.0 Q 367.2 577.0, 365.7 578.8 Q 364.3 580.6, 364.3 584.0 Q 364.3 587.5, 365.8 589.3 Q 367.3 591.1, 370.1 591.1 Q 372.1 591.1, 374.3 589.9 L 375.0 591.8 Q 374.1 592.4, 372.7 592.7 Q 371.3 593.1, 369.8 593.1 Q 365.9 593.1, 363.8 590.7 Q 361.8 588.4, 361.8 584.0 " fill="#000000"/>
<path class="atom-4" d="M 384.1 581.8 Q 385.7 581.8, 387.0 582.5 Q 388.2 583.1, 389.0 584.4 Q 389.7 585.6, 389.7 587.3 Q 389.7 589.1, 388.8 590.4 Q 387.9 591.7, 386.5 592.4 Q 385.0 593.1, 383.4 593.1 Q 381.7 593.1, 380.2 592.5 Q 378.7 591.9, 377.7 590.7 L 379.2 589.2 Q 380.0 590.1, 381.2 590.6 Q 382.3 591.0, 383.4 591.0 Q 385.0 591.0, 386.1 590.1 Q 387.2 589.1, 387.2 587.3 Q 387.2 585.4, 386.1 584.6 Q 385.0 583.7, 383.3 583.7 Q 381.7 583.7, 380.0 584.3 L 378.6 583.7 L 379.5 575.2 L 388.6 575.2 L 388.3 577.2 L 381.5 577.2 L 381.0 582.4 Q 382.6 581.8, 384.1 581.8 " fill="#000000"/>
<path class="atom-5" d="M 309.0 639.7 Q 309.0 635.3, 311.1 633.0 Q 313.2 630.7, 317.1 630.7 Q 320.7 630.7, 322.7 633.3 L 321.0 634.6 Q 319.6 632.8, 317.1 632.8 Q 314.4 632.8, 313.0 634.6 Q 311.6 636.3, 311.6 639.7 Q 311.6 643.2, 313.0 645.0 Q 314.5 646.8, 317.4 646.8 Q 319.3 646.8, 321.6 645.7 L 322.3 647.5 Q 321.4 648.1, 320.0 648.5 Q 318.6 648.8, 317.0 648.8 Q 313.2 648.8, 311.1 646.5 Q 309.0 644.1, 309.0 639.7 " fill="#000000"/>
<path class="atom-5" d="M 331.9 637.6 Q 333.5 637.6, 334.7 638.2 Q 335.9 638.9, 336.6 640.1 Q 337.3 641.4, 337.3 642.9 Q 337.3 644.6, 336.5 646.0 Q 335.7 647.3, 334.4 648.1 Q 333.0 648.8, 331.3 648.8 Q 328.2 648.8, 326.6 646.7 Q 325.0 644.5, 325.0 640.3 Q 325.0 635.6, 326.9 633.2 Q 328.9 630.7, 332.7 630.7 Q 333.8 630.7, 334.7 631.0 Q 335.7 631.2, 336.6 631.7 L 335.6 633.4 Q 334.3 632.7, 332.7 632.7 Q 330.2 632.7, 328.9 634.3 Q 327.7 635.9, 327.5 639.3 Q 328.4 638.4, 329.5 638.0 Q 330.7 637.6, 331.9 637.6 M 331.3 646.8 Q 332.3 646.8, 333.1 646.3 Q 333.9 645.8, 334.3 644.9 Q 334.8 644.0, 334.8 642.9 Q 334.8 641.4, 333.9 640.5 Q 333.0 639.6, 331.5 639.6 Q 330.4 639.6, 329.3 640.0 Q 328.3 640.4, 327.5 641.2 Q 327.6 644.1, 328.5 645.4 Q 329.5 646.8, 331.3 646.8 " fill="#000000"/>
<path class="atom-6" d="M 220.0 627.5 Q 220.0 623.1, 222.1 620.8 Q 224.1 618.5, 228.1 618.5 Q 231.7 618.5, 233.7 621.1 L 232.0 622.4 Q 230.6 620.5, 228.1 620.5 Q 225.4 620.5, 224.0 622.3 Q 222.6 624.1, 222.6 627.5 Q 222.6 631.0, 224.0 632.8 Q 225.5 634.6, 228.3 634.6 Q 230.3 634.6, 232.6 633.4 L 233.3 635.3 Q 232.3 635.9, 230.9 636.3 Q 229.5 636.6, 228.0 636.6 Q 224.1 636.6, 222.1 634.3 Q 220.0 631.9, 220.0 627.5 " fill="#000000"/>
<path class="atom-6" d="M 245.2 620.7 L 235.9 620.7 L 235.9 618.7 L 247.7 618.7 L 247.7 620.5 L 240.5 636.4 L 238.1 636.4 L 245.2 620.7 " fill="#000000"/>
<path class="atom-7" d="M 178.7 556.1 Q 178.7 551.7, 180.8 549.4 Q 182.9 547.1, 186.8 547.1 Q 190.4 547.1, 192.4 549.7 L 190.7 551.0 Q 189.3 549.1, 186.8 549.1 Q 184.1 549.1, 182.7 550.9 Q 181.3 552.7, 181.3 556.1 Q 181.3 559.6, 182.7 561.4 Q 184.2 563.2, 187.1 563.2 Q 189.0 563.2, 191.3 562.0 L 192.0 563.9 Q 191.1 564.5, 189.7 564.9 Q 188.3 565.2, 186.7 565.2 Q 182.9 565.2, 180.8 562.9 Q 178.7 560.5, 178.7 556.1 " fill="#000000"/>
<path class="atom-7" d="M 203.7 555.6 Q 205.3 556.3, 206.3 557.4 Q 207.2 558.4, 207.2 560.1 Q 207.2 561.6, 206.4 562.8 Q 205.6 564.0, 204.2 564.6 Q 202.9 565.2, 201.0 565.2 Q 198.1 565.2, 196.4 563.9 Q 194.7 562.5, 194.7 560.1 Q 194.7 558.7, 195.4 557.6 Q 196.2 556.5, 197.7 555.7 Q 196.6 555.0, 196.0 554.1 Q 195.3 553.1, 195.3 551.6 Q 195.3 549.5, 196.8 548.3 Q 198.4 547.1, 200.9 547.1 Q 203.5 547.1, 205.0 548.3 Q 206.5 549.5, 206.5 551.6 Q 206.5 552.9, 205.8 553.9 Q 205.1 554.8, 203.7 555.6 M 200.9 549.0 Q 199.5 549.0, 198.6 549.7 Q 197.8 550.4, 197.8 551.6 Q 197.8 552.5, 198.4 553.2 Q 198.9 553.8, 199.7 554.1 Q 200.5 554.5, 202.0 555.0 Q 203.1 554.2, 203.6 553.4 Q 204.0 552.6, 204.0 551.6 Q 204.0 550.4, 203.2 549.7 Q 202.4 549.0, 200.9 549.0 M 201.0 563.4 Q 202.7 563.4, 203.7 562.5 Q 204.7 561.6, 204.7 560.1 Q 204.7 559.2, 204.2 558.6 Q 203.6 558.0, 202.8 557.6 Q 202.1 557.3, 200.7 556.8 L 199.5 556.4 Q 198.3 557.2, 197.7 558.1 Q 197.2 559.0, 197.2 560.1 Q 197.2 561.6, 198.2 562.5 Q 199.3 563.4, 201.0 563.4 " fill="#000000"/>
<path class="atom-8" d="M 224.2 479.5 Q 224.2 475.1, 226.3 472.8 Q 228.3 470.4, 232.3 470.4 Q 235.9 470.4, 237.9 473.0 L 236.2 474.4 Q 234.8 472.5, 232.3 472.5 Q 229.6 472.5, 228.2 474.3 Q 226.8 476.1, 226.8 479.5 Q 226.8 483.0, 228.2 484.8 Q 229.7 486.6, 232.5 486.6 Q 234.5 486.6, 236.8 485.4 L 237.5 487.3 Q 236.5 487.9, 235.1 488.2 Q 233.7 488.6, 232.2 488.6 Q 228.3 488.6, 226.3 486.2 Q 224.2 483.9, 224.2 479.5 " fill="#000000"/>
<path class="atom-8" d="M 246.1 470.4 Q 249.2 470.4, 250.8 472.6 Q 252.4 474.7, 252.4 479.0 Q 252.4 483.7, 250.4 486.1 Q 248.5 488.5, 244.7 488.5 Q 243.6 488.5, 242.7 488.3 Q 241.7 488.0, 240.8 487.5 L 241.8 485.8 Q 243.1 486.5, 244.7 486.5 Q 247.2 486.5, 248.5 484.9 Q 249.7 483.3, 249.9 480.0 Q 249.0 480.8, 247.8 481.3 Q 246.7 481.7, 245.5 481.7 Q 243.9 481.7, 242.7 481.0 Q 241.5 480.3, 240.8 479.1 Q 240.1 477.9, 240.1 476.3 Q 240.1 474.6, 240.9 473.3 Q 241.7 471.9, 243.0 471.2 Q 244.4 470.4, 246.1 470.4 M 242.6 476.3 Q 242.6 477.9, 243.5 478.8 Q 244.4 479.7, 245.9 479.7 Q 247.0 479.7, 248.1 479.3 Q 249.1 478.8, 249.9 478.1 Q 249.8 475.1, 248.9 473.8 Q 247.9 472.5, 246.1 472.5 Q 245.1 472.5, 244.3 473.0 Q 243.5 473.5, 243.1 474.4 Q 242.6 475.2, 242.6 476.3 " fill="#000000"/>
<path class="atom-9" d="M 274.4 455.4 Q 274.4 451.0, 276.4 448.7 Q 278.5 446.4, 282.4 446.4 Q 286.1 446.4, 288.0 449.0 L 286.4 450.3 Q 285.0 448.5, 282.4 448.5 Q 279.8 448.5, 278.3 450.3 Q 276.9 452.0, 276.9 455.4 Q 276.9 458.9, 278.4 460.7 Q 279.9 462.5, 282.7 462.5 Q 284.7 462.5, 286.9 461.4 L 287.6 463.2 Q 286.7 463.8, 285.3 464.2 Q 283.9 464.5, 282.4 464.5 Q 278.5 464.5, 276.4 462.2 Q 274.4 459.8, 274.4 455.4 " fill="#000000"/>
<path class="atom-9" d="M 291.3 462.3 L 295.1 462.3 L 295.1 449.1 L 290.9 450.4 L 290.3 448.9 L 295.7 446.5 L 297.5 446.8 L 297.5 462.3 L 301.0 462.3 L 301.0 464.3 L 291.3 464.3 L 291.3 462.3 " fill="#000000"/>
<path class="atom-9" d="M 309.7 464.5 Q 306.5 464.5, 304.9 462.1 Q 303.3 459.7, 303.3 455.4 Q 303.3 451.2, 304.9 448.8 Q 306.5 446.4, 309.7 446.4 Q 313.0 446.4, 314.6 448.8 Q 316.2 451.2, 316.2 455.4 Q 316.2 459.7, 314.6 462.1 Q 313.0 464.5, 309.7 464.5 M 309.7 462.5 Q 311.7 462.5, 312.7 460.7 Q 313.7 458.9, 313.7 455.4 Q 313.7 452.0, 312.7 450.2 Q 311.7 448.4, 309.7 448.4 Q 307.8 448.4, 306.8 450.2 Q 305.8 452.0, 305.8 455.4 Q 305.8 458.9, 306.8 460.7 Q 307.8 462.5, 309.7 462.5 " fill="#000000"/>
<path class="atom-10" d="M 321.2 375.1 Q 321.2 370.7, 323.2 368.4 Q 325.3 366.1, 329.2 366.1 Q 332.9 366.1, 334.8 368.7 L 333.2 370.0 Q 331.8 368.2, 329.2 368.2 Q 326.6 368.2, 325.1 370.0 Q 323.7 371.7, 323.7 375.1 Q 323.7 378.6, 325.2 380.4 Q 326.7 382.2, 329.5 382.2 Q 331.5 382.2, 333.7 381.1 L 334.4 382.9 Q 333.5 383.5, 332.1 383.9 Q 330.7 384.2, 329.2 384.2 Q 325.3 384.2, 323.2 381.9 Q 321.2 379.5, 321.2 375.1 " fill="#000000"/>
<path class="atom-10" d="M 338.0 382.0 L 341.9 382.0 L 341.9 368.8 L 337.6 370.1 L 337.0 368.6 L 342.4 366.2 L 344.2 366.5 L 344.2 382.0 L 347.7 382.0 L 347.7 384.0 L 338.0 384.0 L 338.0 382.0 " fill="#000000"/>
<path class="atom-10" d="M 350.9 382.0 L 354.7 382.0 L 354.7 368.8 L 350.5 370.1 L 349.9 368.6 L 355.3 366.2 L 357.1 366.5 L 357.1 382.0 L 360.6 382.0 L 360.6 384.0 L 350.9 384.0 L 350.9 382.0 " fill="#000000"/>
<path class="atom-11" d="M 247.5 319.0 Q 247.5 314.6, 249.6 312.3 Q 251.7 310.0, 255.6 310.0 Q 259.2 310.0, 261.2 312.5 L 259.5 313.9 Q 258.1 312.0, 255.6 312.0 Q 252.9 312.0, 251.5 313.8 Q 250.1 315.6, 250.1 319.0 Q 250.1 322.5, 251.5 324.3 Q 253.0 326.1, 255.9 326.1 Q 257.8 326.1, 260.1 324.9 L 260.8 326.8 Q 259.9 327.4, 258.5 327.7 Q 257.1 328.1, 255.5 328.1 Q 251.7 328.1, 249.6 325.7 Q 247.5 323.4, 247.5 319.0 " fill="#000000"/>
<path class="atom-11" d="M 264.4 325.9 L 268.2 325.9 L 268.2 312.6 L 264.0 314.0 L 263.4 312.5 L 268.8 310.1 L 270.6 310.4 L 270.6 325.9 L 274.1 325.9 L 274.1 327.9 L 264.4 327.9 L 264.4 325.9 " fill="#000000"/>
<path class="atom-11" d="M 276.4 313.5 Q 277.0 311.8, 278.6 310.9 Q 280.1 310.0, 282.3 310.0 Q 285.0 310.0, 286.5 311.4 Q 288.0 312.9, 288.0 315.4 Q 288.0 318.1, 286.0 320.5 Q 284.1 323.0, 280.1 325.9 L 288.3 325.9 L 288.3 327.9 L 276.3 327.9 L 276.3 326.2 Q 279.6 323.8, 281.6 322.1 Q 283.6 320.3, 284.5 318.8 Q 285.5 317.2, 285.5 315.6 Q 285.5 313.9, 284.6 312.9 Q 283.8 312.0, 282.3 312.0 Q 280.9 312.0, 279.9 312.5 Q 279.0 313.1, 278.3 314.4 L 276.4 313.5 " fill="#000000"/>
<path class="atom-12" d="M 182.5 343.3 Q 182.5 338.9, 184.5 336.6 Q 186.6 334.3, 190.5 334.3 Q 194.2 334.3, 196.1 336.8 L 194.5 338.2 Q 193.0 336.3, 190.5 336.3 Q 187.8 336.3, 186.4 338.1 Q 185.0 339.9, 185.0 343.3 Q 185.0 346.8, 186.5 348.6 Q 187.9 350.4, 190.8 350.4 Q 192.7 350.4, 195.0 349.2 L 195.7 351.1 Q 194.8 351.7, 193.4 352.0 Q 192.0 352.4, 190.4 352.4 Q 186.6 352.4, 184.5 350.0 Q 182.5 347.7, 182.5 343.3 " fill="#000000"/>
<path class="atom-12" d="M 199.3 350.2 L 203.2 350.2 L 203.2 336.9 L 198.9 338.3 L 198.3 336.8 L 203.7 334.4 L 205.5 334.7 L 205.5 350.2 L 209.0 350.2 L 209.0 352.2 L 199.3 352.2 L 199.3 350.2 " fill="#000000"/>
<path class="atom-12" d="M 219.8 342.8 Q 221.5 343.3, 222.3 344.5 Q 223.2 345.6, 223.2 347.3 Q 223.2 348.8, 222.4 350.0 Q 221.7 351.1, 220.3 351.8 Q 218.9 352.4, 217.1 352.4 Q 215.2 352.4, 213.8 351.8 Q 212.4 351.1, 211.3 349.7 L 212.7 348.3 Q 213.8 349.5, 214.7 350.0 Q 215.6 350.4, 217.1 350.4 Q 218.7 350.4, 219.7 349.6 Q 220.7 348.7, 220.7 347.3 Q 220.7 345.5, 219.6 344.7 Q 218.6 343.9, 216.5 343.9 L 215.2 343.9 L 215.2 342.1 L 216.3 342.1 Q 218.2 342.0, 219.3 341.2 Q 220.3 340.4, 220.3 338.8 Q 220.3 337.6, 219.4 337.0 Q 218.6 336.3, 217.1 336.3 Q 215.7 336.3, 214.7 336.8 Q 213.8 337.3, 213.1 338.6 L 211.4 337.7 Q 212.0 336.2, 213.5 335.3 Q 215.0 334.3, 217.1 334.3 Q 219.7 334.3, 221.3 335.5 Q 222.8 336.7, 222.8 338.8 Q 222.8 340.2, 222.0 341.2 Q 221.2 342.3, 219.8 342.8 " fill="#000000"/>
<path class="atom-13" d="M 135.0 423.5 Q 135.0 419.1, 137.1 416.8 Q 139.2 414.5, 143.1 414.5 Q 146.7 414.5, 148.7 417.0 L 147.0 418.4 Q 145.6 416.5, 143.1 416.5 Q 140.4 416.5, 139.0 418.3 Q 137.6 420.1, 137.6 423.5 Q 137.6 427.0, 139.0 428.8 Q 140.5 430.6, 143.4 430.6 Q 145.3 430.6, 147.6 429.4 L 148.3 431.3 Q 147.4 431.9, 146.0 432.2 Q 144.6 432.6, 143.0 432.6 Q 139.2 432.6, 137.1 430.2 Q 135.0 427.9, 135.0 423.5 " fill="#000000"/>
<path class="atom-13" d="M 151.9 430.4 L 155.8 430.4 L 155.8 417.1 L 151.5 418.5 L 150.9 417.0 L 156.4 414.6 L 158.1 414.9 L 158.1 430.4 L 161.6 430.4 L 161.6 432.4 L 151.9 432.4 L 151.9 430.4 " fill="#000000"/>
<path class="atom-13" d="M 175.4 426.3 L 177.6 426.3 L 177.6 428.3 L 175.4 428.3 L 175.4 432.4 L 173.1 432.4 L 173.1 428.3 L 163.9 428.3 L 163.9 426.7 L 171.7 414.7 L 175.4 414.7 L 175.4 426.3 M 166.8 426.3 L 173.1 426.3 L 173.1 416.3 L 166.8 426.3 " fill="#000000"/>
<path class="atom-14" d="M 342.8 501.8 Q 342.8 497.4, 344.9 495.1 Q 346.9 492.8, 350.9 492.8 Q 354.5 492.8, 356.5 495.4 L 354.8 496.7 Q 353.4 494.9, 350.9 494.9 Q 348.2 494.9, 346.8 496.7 Q 345.4 498.4, 345.4 501.8 Q 345.4 505.3, 346.8 507.1 Q 348.3 508.9, 351.1 508.9 Q 353.1 508.9, 355.4 507.8 L 356.1 509.6 Q 355.1 510.2, 353.7 510.6 Q 352.3 510.9, 350.8 510.9 Q 346.9 510.9, 344.9 508.6 Q 342.8 506.2, 342.8 501.8 " fill="#000000"/>
<path class="atom-14" d="M 359.6 508.7 L 363.5 508.7 L 363.5 495.5 L 359.2 496.8 L 358.7 495.3 L 364.1 492.9 L 365.9 493.2 L 365.9 508.7 L 369.3 508.7 L 369.3 510.7 L 359.6 510.7 L 359.6 508.7 " fill="#000000"/>
<path class="atom-14" d="M 378.0 499.6 Q 379.6 499.6, 380.8 500.3 Q 382.1 501.0, 382.8 502.2 Q 383.6 503.4, 383.6 505.1 Q 383.6 506.9, 382.7 508.3 Q 381.8 509.6, 380.3 510.2 Q 378.9 510.9, 377.2 510.9 Q 375.6 510.9, 374.1 510.3 Q 372.6 509.7, 371.6 508.6 L 373.1 507.0 Q 373.9 507.9, 375.0 508.4 Q 376.2 508.9, 377.3 508.9 Q 378.9 508.9, 380.0 507.9 Q 381.1 506.9, 381.1 505.2 Q 381.1 503.3, 380.0 502.4 Q 378.9 501.5, 377.2 501.5 Q 375.6 501.5, 373.9 502.2 L 372.5 501.5 L 373.4 493.0 L 382.5 493.0 L 382.2 495.0 L 375.4 495.0 L 374.9 500.3 Q 376.5 499.6, 378.0 499.6 " fill="#000000"/>
<path class="atom-15" d="M 413.9 460.9 Q 413.9 456.5, 416.0 454.2 Q 418.1 451.8, 422.0 451.8 Q 425.6 451.8, 427.6 454.4 L 425.9 455.8 Q 424.5 453.9, 422.0 453.9 Q 419.3 453.9, 417.9 455.7 Q 416.5 457.5, 416.5 460.9 Q 416.5 464.4, 417.9 466.2 Q 419.4 468.0, 422.3 468.0 Q 424.2 468.0, 426.5 466.8 L 427.2 468.7 Q 426.3 469.3, 424.9 469.6 Q 423.5 470.0, 421.9 470.0 Q 418.1 470.0, 416.0 467.6 Q 413.9 465.3, 413.9 460.9 " fill="#000000"/>
<path class="atom-15" d="M 430.8 467.7 L 434.6 467.7 L 434.6 454.5 L 430.4 455.8 L 429.8 454.4 L 435.2 451.9 L 437.0 452.2 L 437.0 467.7 L 440.5 467.7 L 440.5 469.7 L 430.8 469.7 L 430.8 467.7 " fill="#000000"/>
<path class="atom-15" d="M 449.7 458.7 Q 451.2 458.7, 452.4 459.4 Q 453.7 460.0, 454.3 461.3 Q 455.0 462.5, 455.0 464.0 Q 455.0 465.8, 454.2 467.1 Q 453.5 468.4, 452.1 469.2 Q 450.8 469.9, 449.1 469.9 Q 445.9 469.9, 444.3 467.8 Q 442.7 465.7, 442.7 461.4 Q 442.7 456.7, 444.7 454.3 Q 446.7 451.8, 450.4 451.8 Q 451.5 451.8, 452.5 452.1 Q 453.4 452.3, 454.3 452.9 L 453.3 454.5 Q 452.0 453.8, 450.5 453.8 Q 448.0 453.8, 446.7 455.5 Q 445.4 457.1, 445.3 460.4 Q 446.2 459.6, 447.3 459.1 Q 448.4 458.7, 449.7 458.7 M 449.1 467.9 Q 450.0 467.9, 450.8 467.4 Q 451.6 466.9, 452.1 466.0 Q 452.5 465.1, 452.5 464.1 Q 452.5 462.5, 451.6 461.6 Q 450.8 460.7, 449.2 460.7 Q 448.1 460.7, 447.1 461.1 Q 446.0 461.6, 445.3 462.3 Q 445.4 465.2, 446.3 466.6 Q 447.2 467.9, 449.1 467.9 " fill="#000000"/>
<path class="atom-16" d="M 499.9 502.0 Q 499.9 497.6, 501.9 495.3 Q 504.0 493.0, 507.9 493.0 Q 511.6 493.0, 513.5 495.5 L 511.9 496.9 Q 510.5 495.0, 507.9 495.0 Q 505.3 495.0, 503.8 496.8 Q 502.4 498.6, 502.4 502.0 Q 502.4 505.5, 503.9 507.3 Q 505.4 509.1, 508.2 509.1 Q 510.2 509.1, 512.4 507.9 L 513.1 509.8 Q 512.2 510.4, 510.8 510.7 Q 509.4 511.1, 507.9 511.1 Q 504.0 511.1, 501.9 508.7 Q 499.9 506.4, 499.9 502.0 " fill="#000000"/>
<path class="atom-16" d="M 516.7 508.9 L 520.6 508.9 L 520.6 495.6 L 516.3 497.0 L 515.7 495.5 L 521.2 493.1 L 522.9 493.4 L 522.9 508.9 L 526.4 508.9 L 526.4 510.9 L 516.7 510.9 L 516.7 508.9 " fill="#000000"/>
<path class="atom-16" d="M 538.0 495.2 L 528.7 495.2 L 528.7 493.2 L 540.4 493.2 L 540.4 494.9 L 533.3 510.9 L 530.9 510.9 L 538.0 495.2 " fill="#000000"/>
<path class="atom-17" d="M 584.8 461.1 Q 584.8 456.7, 586.8 454.4 Q 588.9 452.0, 592.8 452.0 Q 596.5 452.0, 598.4 454.6 L 596.8 456.0 Q 595.3 454.1, 592.8 454.1 Q 590.1 454.1, 588.7 455.9 Q 587.3 457.7, 587.3 461.1 Q 587.3 464.6, 588.8 466.4 Q 590.2 468.2, 593.1 468.2 Q 595.0 468.2, 597.3 467.0 L 598.0 468.9 Q 597.1 469.5, 595.7 469.8 Q 594.3 470.2, 592.7 470.2 Q 588.9 470.2, 586.8 467.8 Q 584.8 465.5, 584.8 461.1 " fill="#000000"/>
<path class="atom-17" d="M 601.6 467.9 L 605.5 467.9 L 605.5 454.7 L 601.2 456.0 L 600.6 454.6 L 606.1 452.1 L 607.8 452.4 L 607.8 467.9 L 611.3 467.9 L 611.3 469.9 L 601.6 469.9 L 601.6 467.9 " fill="#000000"/>
<path class="atom-17" d="M 622.6 460.6 Q 624.2 461.3, 625.2 462.3 Q 626.1 463.3, 626.1 465.1 Q 626.1 466.6, 625.3 467.8 Q 624.5 468.9, 623.1 469.6 Q 621.8 470.2, 619.9 470.2 Q 617.0 470.2, 615.3 468.8 Q 613.6 467.5, 613.6 465.1 Q 613.6 463.6, 614.3 462.6 Q 615.1 461.5, 616.6 460.6 Q 615.5 460.0, 614.9 459.0 Q 614.2 458.1, 614.2 456.6 Q 614.2 454.5, 615.7 453.3 Q 617.3 452.0, 619.8 452.0 Q 622.4 452.0, 623.9 453.3 Q 625.4 454.5, 625.4 456.6 Q 625.4 457.9, 624.7 458.8 Q 624.0 459.8, 622.6 460.6 M 619.8 453.9 Q 618.4 453.9, 617.5 454.6 Q 616.7 455.3, 616.7 456.6 Q 616.7 457.5, 617.3 458.1 Q 617.8 458.7, 618.6 459.1 Q 619.4 459.4, 620.9 459.9 Q 622.0 459.2, 622.5 458.4 Q 622.9 457.6, 622.9 456.6 Q 622.9 455.3, 622.1 454.6 Q 621.3 453.9, 619.8 453.9 M 619.9 468.3 Q 621.6 468.3, 622.6 467.4 Q 623.6 466.5, 623.6 465.1 Q 623.6 464.1, 623.1 463.5 Q 622.5 462.9, 621.7 462.6 Q 621.0 462.2, 619.6 461.8 L 618.4 461.4 Q 617.2 462.1, 616.6 463.0 Q 616.1 463.9, 616.1 465.1 Q 616.1 466.5, 617.1 467.4 Q 618.2 468.3, 619.9 468.3 " fill="#000000"/>
<path class="atom-18" d="M 558.6 370.0 L 564.4 379.4 Q 565.0 380.3, 565.9 382.0 Q 566.8 383.6, 566.9 383.7 L 566.9 370.0 L 569.2 370.0 L 569.2 387.7 L 566.8 387.7 L 560.6 377.4 Q 559.8 376.2, 559.1 374.9 Q 558.3 373.5, 558.1 373.1 L 558.1 387.7 L 555.8 387.7 L 555.8 370.0 L 558.6 370.0 " fill="#0000FF"/>
<path class="atom-18" d="M 573.5 385.7 L 577.4 385.7 L 577.4 372.5 L 573.1 373.8 L 572.5 372.3 L 577.9 369.9 L 579.7 370.2 L 579.7 385.7 L 583.2 385.7 L 583.2 387.7 L 573.5 387.7 L 573.5 385.7 " fill="#0000FF"/>
<path class="atom-18" d="M 591.4 369.8 Q 594.5 369.8, 596.1 371.9 Q 597.7 374.1, 597.7 378.3 Q 597.7 383.0, 595.7 385.5 Q 593.8 387.9, 590.0 387.9 Q 588.9 387.9, 588.0 387.6 Q 587.0 387.4, 586.1 386.9 L 587.1 385.2 Q 588.4 385.9, 590.0 385.9 Q 592.5 385.9, 593.8 384.3 Q 595.0 382.7, 595.2 379.3 Q 594.3 380.2, 593.1 380.6 Q 592.0 381.0, 590.8 381.0 Q 589.2 381.0, 588.0 380.4 Q 586.8 379.7, 586.1 378.5 Q 585.4 377.2, 585.4 375.7 Q 585.4 374.0, 586.2 372.6 Q 587.0 371.3, 588.3 370.5 Q 589.7 369.8, 591.4 369.8 M 587.9 375.7 Q 587.9 377.2, 588.8 378.1 Q 589.7 379.0, 591.2 379.0 Q 592.3 379.0, 593.4 378.6 Q 594.4 378.2, 595.2 377.4 Q 595.1 374.5, 594.2 373.2 Q 593.2 371.8, 591.4 371.8 Q 590.4 371.8, 589.6 372.3 Q 588.8 372.8, 588.4 373.7 Q 587.9 374.6, 587.9 375.7 " fill="#0000FF"/>
<path class="atom-19" d="M 498.6 337.4 Q 498.6 333.0, 500.7 330.7 Q 502.8 328.4, 506.7 328.4 Q 510.3 328.4, 512.3 331.0 L 510.6 332.3 Q 509.2 330.5, 506.7 330.5 Q 504.0 330.5, 502.6 332.3 Q 501.2 334.0, 501.2 337.4 Q 501.2 340.9, 502.6 342.7 Q 504.1 344.5, 507.0 344.5 Q 508.9 344.5, 511.2 343.4 L 511.9 345.2 Q 511.0 345.8, 509.6 346.2 Q 508.2 346.5, 506.6 346.5 Q 502.8 346.5, 500.7 344.2 Q 498.6 341.8, 498.6 337.4 " fill="#000000"/>
<path class="atom-19" d="M 514.6 332.0 Q 515.3 330.3, 516.8 329.4 Q 518.4 328.4, 520.5 328.4 Q 523.2 328.4, 524.7 329.9 Q 526.2 331.3, 526.2 333.9 Q 526.2 336.5, 524.3 339.0 Q 522.3 341.4, 518.3 344.3 L 526.5 344.3 L 526.5 346.3 L 514.6 346.3 L 514.6 344.6 Q 517.9 342.3, 519.8 340.5 Q 521.8 338.8, 522.8 337.2 Q 523.7 335.6, 523.7 334.0 Q 523.7 332.3, 522.9 331.4 Q 522.0 330.4, 520.5 330.4 Q 519.1 330.4, 518.2 331.0 Q 517.2 331.6, 516.5 332.8 L 514.6 332.0 " fill="#000000"/>
<path class="atom-19" d="M 535.8 346.5 Q 532.5 346.5, 530.9 344.1 Q 529.3 341.7, 529.3 337.4 Q 529.3 333.2, 530.9 330.8 Q 532.5 328.4, 535.8 328.4 Q 539.0 328.4, 540.6 330.8 Q 542.2 333.2, 542.2 337.4 Q 542.2 341.7, 540.6 344.1 Q 539.0 346.5, 535.8 346.5 M 535.8 344.5 Q 537.7 344.5, 538.7 342.7 Q 539.7 340.9, 539.7 337.4 Q 539.7 334.0, 538.7 332.2 Q 537.7 330.4, 535.8 330.4 Q 533.9 330.4, 532.8 332.2 Q 531.8 334.0, 531.8 337.4 Q 531.8 340.9, 532.8 342.7 Q 533.9 344.5, 535.8 344.5 " fill="#000000"/>
<path class="atom-20" d="M 413.3 378.6 Q 413.3 374.2, 415.4 371.9 Q 417.5 369.6, 421.4 369.6 Q 425.0 369.6, 427.0 372.2 L 425.3 373.5 Q 423.9 371.6, 421.4 371.6 Q 418.7 371.6, 417.3 373.4 Q 415.9 375.2, 415.9 378.6 Q 415.9 382.1, 417.3 383.9 Q 418.8 385.7, 421.7 385.7 Q 423.6 385.7, 425.9 384.5 L 426.6 386.4 Q 425.7 387.0, 424.3 387.4 Q 422.9 387.7, 421.3 387.7 Q 417.5 387.7, 415.4 385.4 Q 413.3 383.0, 413.3 378.6 " fill="#000000"/>
<path class="atom-20" d="M 429.2 373.1 Q 429.9 371.5, 431.4 370.5 Q 433.0 369.6, 435.1 369.6 Q 437.8 369.6, 439.3 371.0 Q 440.8 372.5, 440.8 375.1 Q 440.8 377.7, 438.9 380.1 Q 436.9 382.6, 432.9 385.5 L 441.1 385.5 L 441.1 387.5 L 429.2 387.5 L 429.2 385.8 Q 432.5 383.5, 434.4 381.7 Q 436.4 380.0, 437.4 378.4 Q 438.3 376.8, 438.3 375.2 Q 438.3 373.5, 437.5 372.5 Q 436.6 371.6, 435.1 371.6 Q 433.7 371.6, 432.8 372.2 Q 431.8 372.7, 431.1 374.0 L 429.2 373.1 " fill="#000000"/>
<path class="atom-20" d="M 444.8 385.5 L 448.7 385.5 L 448.7 372.3 L 444.4 373.6 L 443.8 372.1 L 449.2 369.7 L 451.0 370.0 L 451.0 385.5 L 454.5 385.5 L 454.5 387.5 L 444.8 387.5 L 444.8 385.5 " fill="#000000"/>
<path class="atom-21" d="M 656.2 337.8 Q 656.2 333.4, 658.2 331.1 Q 660.3 328.7, 664.2 328.7 Q 667.9 328.7, 669.8 331.3 L 668.2 332.7 Q 666.7 330.8, 664.2 330.8 Q 661.5 330.8, 660.1 332.6 Q 658.7 334.4, 658.7 337.8 Q 658.7 341.3, 660.2 343.1 Q 661.6 344.9, 664.5 344.9 Q 666.4 344.9, 668.7 343.7 L 669.4 345.6 Q 668.5 346.2, 667.1 346.5 Q 665.7 346.9, 664.1 346.9 Q 660.3 346.9, 658.2 344.5 Q 656.2 342.2, 656.2 337.8 " fill="#000000"/>
<path class="atom-21" d="M 672.1 332.3 Q 672.8 330.6, 674.3 329.7 Q 675.9 328.7, 678.0 328.7 Q 680.7 328.7, 682.2 330.2 Q 683.7 331.6, 683.7 334.2 Q 683.7 336.8, 681.7 339.3 Q 679.8 341.7, 675.8 344.6 L 684.0 344.6 L 684.0 346.6 L 672.1 346.6 L 672.1 345.0 Q 675.4 342.6, 677.3 340.9 Q 679.3 339.1, 680.2 337.5 Q 681.2 336.0, 681.2 334.3 Q 681.2 332.6, 680.3 331.7 Q 679.5 330.7, 678.0 330.7 Q 676.6 330.7, 675.6 331.3 Q 674.7 331.9, 674.0 333.2 L 672.1 332.3 " fill="#000000"/>
<path class="atom-21" d="M 686.8 332.3 Q 687.4 330.6, 689.0 329.7 Q 690.5 328.7, 692.7 328.7 Q 695.4 328.7, 696.9 330.2 Q 698.4 331.6, 698.4 334.2 Q 698.4 336.8, 696.4 339.3 Q 694.5 341.7, 690.5 344.6 L 698.7 344.6 L 698.7 346.6 L 686.7 346.6 L 686.7 345.0 Q 690.0 342.6, 692.0 340.9 Q 694.0 339.1, 694.9 337.5 Q 695.9 336.0, 695.9 334.3 Q 695.9 332.6, 695.0 331.7 Q 694.2 330.7, 692.7 330.7 Q 691.3 330.7, 690.3 331.3 Q 689.4 331.9, 688.7 333.2 L 686.8 332.3 " fill="#000000"/>
<path class="atom-22" d="M 711.4 379.0 Q 711.4 374.8, 713.5 372.4 Q 715.6 370.0, 719.5 370.0 Q 723.5 370.0, 725.6 372.4 Q 727.7 374.8, 727.7 379.0 Q 727.7 383.3, 725.5 385.8 Q 723.4 388.2, 719.5 388.2 Q 715.6 388.2, 713.5 385.8 Q 711.4 383.3, 711.4 379.0 M 719.5 386.2 Q 722.2 386.2, 723.7 384.4 Q 725.2 382.6, 725.2 379.0 Q 725.2 375.5, 723.7 373.8 Q 722.2 372.0, 719.5 372.0 Q 716.8 372.0, 715.4 373.8 Q 713.9 375.5, 713.9 379.0 Q 713.9 382.6, 715.4 384.4 Q 716.8 386.2, 719.5 386.2 " fill="#FF0000"/>
<path class="atom-22" d="M 730.3 373.6 Q 730.9 371.9, 732.5 371.0 Q 734.0 370.0, 736.2 370.0 Q 738.9 370.0, 740.4 371.5 Q 741.9 372.9, 741.9 375.5 Q 741.9 378.1, 739.9 380.6 Q 738.0 383.0, 734.0 385.9 L 742.2 385.9 L 742.2 387.9 L 730.2 387.9 L 730.2 386.2 Q 733.5 383.9, 735.5 382.1 Q 737.5 380.4, 738.4 378.8 Q 739.4 377.2, 739.4 375.6 Q 739.4 373.9, 738.5 373.0 Q 737.7 372.0, 736.2 372.0 Q 734.8 372.0, 733.8 372.6 Q 732.9 373.2, 732.2 374.4 L 730.3 373.6 " fill="#FF0000"/>
<path class="atom-22" d="M 753.5 378.6 Q 755.2 379.1, 756.1 380.2 Q 756.9 381.3, 756.9 383.1 Q 756.9 384.6, 756.2 385.7 Q 755.4 386.9, 754.0 387.5 Q 752.7 388.2, 750.9 388.2 Q 749.0 388.2, 747.5 387.5 Q 746.1 386.8, 745.0 385.5 L 746.4 384.0 Q 747.5 385.2, 748.5 385.7 Q 749.4 386.2, 750.9 386.2 Q 752.5 386.2, 753.4 385.3 Q 754.4 384.4, 754.4 383.0 Q 754.4 381.2, 753.4 380.4 Q 752.4 379.6, 750.2 379.6 L 748.9 379.6 L 748.9 377.8 L 750.1 377.8 Q 752.0 377.8, 753.0 377.0 Q 754.0 376.1, 754.0 374.5 Q 754.0 373.4, 753.2 372.7 Q 752.3 372.0, 750.9 372.0 Q 749.4 372.0, 748.5 372.5 Q 747.6 373.1, 746.9 374.4 L 745.2 373.5 Q 745.8 372.0, 747.3 371.0 Q 748.8 370.0, 750.9 370.0 Q 753.5 370.0, 755.0 371.2 Q 756.5 372.5, 756.5 374.5 Q 756.5 376.0, 755.8 377.0 Q 755.0 378.0, 753.5 378.6 " fill="#FF0000"/>
<path class="atom-23" d="M 783.4 338.0 Q 783.4 333.6, 785.4 331.3 Q 787.5 329.0, 791.4 329.0 Q 795.1 329.0, 797.0 331.6 L 795.4 332.9 Q 793.9 331.1, 791.4 331.1 Q 788.7 331.1, 787.3 332.9 Q 785.9 334.6, 785.9 338.0 Q 785.9 341.5, 787.4 343.3 Q 788.8 345.1, 791.7 345.1 Q 793.6 345.1, 795.9 344.0 L 796.6 345.8 Q 795.7 346.4, 794.3 346.8 Q 792.9 347.1, 791.3 347.1 Q 787.5 347.1, 785.4 344.8 Q 783.4 342.4, 783.4 338.0 " fill="#000000"/>
<path class="atom-23" d="M 799.4 332.6 Q 800.0 330.9, 801.6 330.0 Q 803.1 329.0, 805.3 329.0 Q 807.9 329.0, 809.4 330.5 Q 810.9 331.9, 810.9 334.5 Q 810.9 337.1, 809.0 339.6 Q 807.1 342.0, 803.1 344.9 L 811.2 344.9 L 811.2 346.9 L 799.3 346.9 L 799.3 345.2 Q 802.6 342.9, 804.6 341.1 Q 806.5 339.4, 807.5 337.8 Q 808.4 336.2, 808.4 334.6 Q 808.4 332.9, 807.6 332.0 Q 806.7 331.0, 805.3 331.0 Q 803.8 331.0, 802.9 331.6 Q 801.9 332.2, 801.3 333.4 L 799.4 332.6 " fill="#000000"/>
<path class="atom-23" d="M 825.5 340.8 L 827.7 340.8 L 827.7 342.8 L 825.5 342.8 L 825.5 346.9 L 823.2 346.9 L 823.2 342.8 L 814.0 342.8 L 814.0 341.3 L 821.8 329.2 L 825.5 329.2 L 825.5 340.8 M 816.9 340.8 L 823.2 340.8 L 823.2 330.8 L 816.9 340.8 " fill="#000000"/>
<path class="atom-24" d="M 869.9 379.3 Q 869.9 374.9, 871.9 372.6 Q 874.0 370.3, 877.9 370.3 Q 881.6 370.3, 883.5 372.9 L 881.9 374.2 Q 880.4 372.4, 877.9 372.4 Q 875.2 372.4, 873.8 374.2 Q 872.4 375.9, 872.4 379.3 Q 872.4 382.8, 873.9 384.6 Q 875.3 386.4, 878.2 386.4 Q 880.1 386.4, 882.4 385.3 L 883.1 387.1 Q 882.2 387.7, 880.8 388.1 Q 879.4 388.4, 877.8 388.4 Q 874.0 388.4, 871.9 386.1 Q 869.9 383.7, 869.9 379.3 " fill="#000000"/>
<path class="atom-24" d="M 885.8 373.9 Q 886.5 372.2, 888.0 371.3 Q 889.6 370.3, 891.7 370.3 Q 894.4 370.3, 895.9 371.8 Q 897.4 373.2, 897.4 375.8 Q 897.4 378.4, 895.4 380.9 Q 893.5 383.3, 889.5 386.2 L 897.7 386.2 L 897.7 388.2 L 885.8 388.2 L 885.8 386.5 Q 889.1 384.2, 891.0 382.4 Q 893.0 380.7, 893.9 379.1 Q 894.9 377.5, 894.9 375.9 Q 894.9 374.2, 894.0 373.3 Q 893.2 372.3, 891.7 372.3 Q 890.3 372.3, 889.3 372.9 Q 888.4 373.5, 887.7 374.7 L 885.8 373.9 " fill="#000000"/>
<path class="atom-24" d="M 906.9 377.1 Q 908.4 377.1, 909.7 377.8 Q 911.0 378.5, 911.7 379.7 Q 912.4 380.9, 912.4 382.6 Q 912.4 384.4, 911.5 385.8 Q 910.6 387.1, 909.2 387.7 Q 907.7 388.4, 906.1 388.4 Q 904.5 388.4, 903.0 387.8 Q 901.5 387.2, 900.4 386.1 L 901.9 384.5 Q 902.8 385.4, 903.9 385.9 Q 905.0 386.4, 906.2 386.4 Q 907.7 386.4, 908.8 385.4 Q 909.9 384.4, 909.9 382.7 Q 909.9 380.8, 908.8 379.9 Q 907.7 379.0, 906.0 379.0 Q 904.5 379.0, 902.7 379.7 L 901.4 379.0 L 902.2 370.5 L 911.3 370.5 L 911.1 372.5 L 904.3 372.5 L 903.7 377.8 Q 905.3 377.1, 906.9 377.1 " fill="#000000"/>
<path class="atom-25" d="M 655.0 255.4 Q 655.0 251.2, 657.1 248.8 Q 659.2 246.4, 663.1 246.4 Q 667.1 246.4, 669.2 248.8 Q 671.3 251.2, 671.3 255.4 Q 671.3 259.7, 669.1 262.2 Q 667.0 264.6, 663.1 264.6 Q 659.2 264.6, 657.1 262.2 Q 655.0 259.8, 655.0 255.4 M 663.1 262.6 Q 665.8 262.6, 667.3 260.8 Q 668.8 259.0, 668.8 255.4 Q 668.8 252.0, 667.3 250.2 Q 665.8 248.4, 663.1 248.4 Q 660.4 248.4, 659.0 250.2 Q 657.5 251.9, 657.5 255.4 Q 657.5 259.0, 659.0 260.8 Q 660.4 262.6, 663.1 262.6 " fill="#FF0000"/>
<path class="atom-25" d="M 673.9 250.0 Q 674.6 248.3, 676.1 247.4 Q 677.7 246.4, 679.8 246.4 Q 682.5 246.4, 684.0 247.9 Q 685.5 249.3, 685.5 251.9 Q 685.5 254.5, 683.5 257.0 Q 681.6 259.4, 677.6 262.3 L 685.8 262.3 L 685.8 264.3 L 673.9 264.3 L 673.9 262.7 Q 677.2 260.3, 679.1 258.6 Q 681.1 256.8, 682.0 255.2 Q 683.0 253.7, 683.0 252.0 Q 683.0 250.3, 682.1 249.4 Q 681.3 248.4, 679.8 248.4 Q 678.4 248.4, 677.4 249.0 Q 676.5 249.6, 675.8 250.9 L 673.9 250.0 " fill="#FF0000"/>
<path class="atom-25" d="M 695.6 253.3 Q 697.1 253.3, 698.3 254.0 Q 699.6 254.6, 700.2 255.9 Q 700.9 257.1, 700.9 258.6 Q 700.9 260.4, 700.1 261.7 Q 699.4 263.0, 698.0 263.8 Q 696.7 264.5, 695.0 264.5 Q 691.8 264.5, 690.2 262.4 Q 688.6 260.3, 688.6 256.0 Q 688.6 251.3, 690.6 248.9 Q 692.6 246.4, 696.3 246.4 Q 697.4 246.4, 698.4 246.7 Q 699.3 246.9, 700.2 247.5 L 699.2 249.1 Q 697.9 248.4, 696.4 248.4 Q 693.9 248.4, 692.6 250.1 Q 691.3 251.7, 691.2 255.0 Q 692.1 254.2, 693.2 253.7 Q 694.3 253.3, 695.6 253.3 M 695.0 262.5 Q 695.9 262.5, 696.7 262.0 Q 697.5 261.5, 698.0 260.6 Q 698.4 259.7, 698.4 258.7 Q 698.4 257.1, 697.5 256.2 Q 696.7 255.3, 695.1 255.3 Q 694.0 255.3, 693.0 255.7 Q 691.9 256.2, 691.2 256.9 Q 691.3 259.8, 692.2 261.2 Q 693.1 262.5, 695.0 262.5 " fill="#FF0000"/>
<path class="atom-26" d="M 87.6 287.7 Q 87.6 283.3, 89.6 281.0 Q 91.7 278.7, 95.6 278.7 Q 99.3 278.7, 101.2 281.3 L 99.6 282.6 Q 98.2 280.8, 95.6 280.8 Q 93.0 280.8, 91.5 282.6 Q 90.1 284.3, 90.1 287.7 Q 90.1 291.2, 91.6 293.0 Q 93.1 294.8, 95.9 294.8 Q 97.9 294.8, 100.1 293.7 L 100.8 295.5 Q 99.9 296.1, 98.5 296.5 Q 97.1 296.8, 95.6 296.8 Q 91.7 296.8, 89.6 294.5 Q 87.6 292.1, 87.6 287.7 " fill="#00CC00"/>
<path class="atom-26" d="M 103.2 277.6 L 105.5 277.6 L 105.5 296.6 L 103.2 296.6 L 103.2 277.6 " fill="#00CC00"/>
<path class="atom-26" d="M 108.7 282.3 Q 109.4 280.6, 110.9 279.7 Q 112.5 278.7, 114.6 278.7 Q 117.3 278.7, 118.8 280.2 Q 120.3 281.6, 120.3 284.2 Q 120.3 286.8, 118.3 289.3 Q 116.4 291.7, 112.4 294.6 L 120.6 294.6 L 120.6 296.6 L 108.7 296.6 L 108.7 294.9 Q 112.0 292.6, 113.9 290.8 Q 115.9 289.1, 116.8 287.5 Q 117.8 285.9, 117.8 284.3 Q 117.8 282.6, 116.9 281.7 Q 116.1 280.7, 114.6 280.7 Q 113.2 280.7, 112.2 281.3 Q 111.3 281.9, 110.6 283.1 L 108.7 282.3 " fill="#00CC00"/>
<path class="atom-26" d="M 132.4 280.9 L 123.1 280.9 L 123.1 278.9 L 134.8 278.9 L 134.8 280.7 L 127.7 296.6 L 125.3 296.6 L 132.4 280.9 " fill="#00CC00"/>
<text x="1000" y="50" font-size="8" font-family="Verdana" font-weight="normal" letter-spacing="0" text-anchor="start" fill="black">Highlighted Atoms:
Primary SOM: Red
Secondary SOM: Green
Tertiary SOM: Cyan
</text></svg>
