<?xml version='1.0' encoding='ASCII' standalone='yes'?>
<svg xmlns="http://www.w3.org/2000/svg" xmlns:rdkit="http://www.rdkit.org/xml" xmlns:xlink="http://www.w3.org/1999/xlink" style="background-color: white;" version="1.1" baseProfile="full" xml:space="preserve" width="1000px" height="1000px" viewBox="0 0 1000 1000">
<!-- END OF HEADER -->
<rect style="opacity:1.0;fill:#FFFFFF;stroke:none" width="1000.0" height="1000.0" x="0.0" y="0.0"> </rect>
<ellipse cx="803.3" cy="521.7" rx="25.9" ry="25.9" class="atom-1" style="fill:#B20000;fill-rule:evenodd;stroke:#B20000;stroke-width:1.0px;stroke-linecap:butt;stroke-linejoin:miter;stroke-opacity:1"/>
<path class="bond-0 atom-1 atom-0" d="M 786.6,511.9 L 744.7,487.6" style="fill:none;fill-rule:evenodd;stroke:#000000;stroke-width:2.0px;stroke-linecap:butt;stroke-linejoin:miter;stroke-opacity:1"/>
<path class="bond-1 atom-2 atom-1" d="M 803.3,596.2 L 803.3,533.6" style="fill:none;fill-rule:evenodd;stroke:#000000;stroke-width:2.0px;stroke-linecap:butt;stroke-linejoin:miter;stroke-opacity:1"/>
<path class="bond-2 atom-3 atom-0" d="M 663.3,515.9 L 712.4,487.6" style="fill:none;fill-rule:evenodd;stroke:#000000;stroke-width:2.0px;stroke-linecap:butt;stroke-linejoin:miter;stroke-opacity:1"/>
<path class="bond-3 atom-4 atom-2" d="M 745.2,641.4 L 793.6,613.5" style="fill:none;fill-rule:evenodd;stroke:#000000;stroke-width:2.0px;stroke-linecap:butt;stroke-linejoin:miter;stroke-opacity:1"/>
<path class="bond-3 atom-4 atom-2" d="M 738.7,630.2 L 787.1,602.3" style="fill:none;fill-rule:evenodd;stroke:#000000;stroke-width:2.0px;stroke-linecap:butt;stroke-linejoin:miter;stroke-opacity:1"/>
<path class="bond-4 atom-5 atom-3" d="M 653.6,596.1 L 653.7,533.2" style="fill:none;fill-rule:evenodd;stroke:#000000;stroke-width:2.0px;stroke-linecap:butt;stroke-linejoin:miter;stroke-opacity:1"/>
<path class="bond-5 atom-5 atom-4" d="M 670.6,617.7 L 711.6,641.4" style="fill:none;fill-rule:evenodd;stroke:#000000;stroke-width:2.0px;stroke-linecap:butt;stroke-linejoin:miter;stroke-opacity:1"/>
<path class="bond-6 atom-6 atom-4" d="M 728.3,725.7 L 728.4,663.1" style="fill:none;fill-rule:evenodd;stroke:#000000;stroke-width:2.0px;stroke-linecap:butt;stroke-linejoin:miter;stroke-opacity:1"/>
<path class="bond-7 atom-7 atom-6" d="M 670.6,770.8 L 718.7,743.1" style="fill:none;fill-rule:evenodd;stroke:#000000;stroke-width:2.0px;stroke-linecap:butt;stroke-linejoin:miter;stroke-opacity:1"/>
<path class="bond-7 atom-7 atom-6" d="M 664.1,759.6 L 712.2,731.9" style="fill:none;fill-rule:evenodd;stroke:#000000;stroke-width:2.0px;stroke-linecap:butt;stroke-linejoin:miter;stroke-opacity:1"/>
<path class="bond-8 atom-8 atom-7" d="M 587.6,742.6 L 636.4,770.8" style="fill:none;fill-rule:evenodd;stroke:#000000;stroke-width:2.0px;stroke-linecap:butt;stroke-linejoin:miter;stroke-opacity:1"/>
<path class="bond-9 atom-9 atom-5" d="M 599.2,639.2 L 636.6,617.6" style="fill:none;fill-rule:evenodd;stroke:#000000;stroke-width:2.0px;stroke-linecap:butt;stroke-linejoin:miter;stroke-opacity:1"/>
<path class="bond-10 atom-9 atom-8" d="M 578.7,662.8 L 578.7,725.6" style="fill:none;fill-rule:evenodd;stroke:#000000;stroke-width:2.0px;stroke-linecap:butt;stroke-linejoin:miter;stroke-opacity:1"/>
<path class="bond-11 atom-10 atom-1" d="M 868.5,484.0 L 820.1,511.9" style="fill:none;fill-rule:evenodd;stroke:#000000;stroke-width:2.0px;stroke-linecap:butt;stroke-linejoin:miter;stroke-opacity:1"/>
<path class="bond-12 atom-11 atom-3" d="M 587.7,483.3 L 610.5,496.5" style="fill:none;fill-rule:evenodd;stroke:#FF0000;stroke-width:2.0px;stroke-linecap:butt;stroke-linejoin:miter;stroke-opacity:1"/>
<path class="bond-12 atom-11 atom-3" d="M 610.5,496.5 L 633.3,509.6" style="fill:none;fill-rule:evenodd;stroke:#000000;stroke-width:2.0px;stroke-linecap:butt;stroke-linejoin:miter;stroke-opacity:1"/>
<path class="bond-13 atom-12 atom-8" d="M 512.6,775.5 L 557.8,749.4" style="fill:none;fill-rule:evenodd;stroke:#000000;stroke-width:2.0px;stroke-linecap:butt;stroke-linejoin:miter;stroke-opacity:1"/>
<path class="bond-14 atom-13 atom-9" d="M 524.3,619.5 L 558.3,639.2" style="fill:none;fill-rule:evenodd;stroke:#000000;stroke-width:2.0px;stroke-linecap:butt;stroke-linejoin:miter;stroke-opacity:1"/>
<path class="bond-15 atom-14 atom-13" d="M 449.2,639.3 L 483.1,619.8" style="fill:none;fill-rule:evenodd;stroke:#000000;stroke-width:2.0px;stroke-linecap:butt;stroke-linejoin:miter;stroke-opacity:1"/>
<path class="bond-16 atom-15 atom-14" d="M 375.0,619.6 L 408.7,639.1" style="fill:none;fill-rule:evenodd;stroke:#000000;stroke-width:2.0px;stroke-linecap:butt;stroke-linejoin:miter;stroke-opacity:1"/>
<path class="bond-17 atom-16 atom-15" d="M 299.6,639.1 L 333.4,619.6" style="fill:none;fill-rule:evenodd;stroke:#000000;stroke-width:2.0px;stroke-linecap:butt;stroke-linejoin:miter;stroke-opacity:1"/>
<path class="bond-18 atom-17 atom-15" d="M 354.3,533.3 L 354.3,564.6" style="fill:none;fill-rule:evenodd;stroke:#FF0000;stroke-width:2.0px;stroke-linecap:butt;stroke-linejoin:miter;stroke-opacity:1"/>
<path class="bond-18 atom-17 atom-15" d="M 354.3,564.6 L 354.3,595.9" style="fill:none;fill-rule:evenodd;stroke:#000000;stroke-width:2.0px;stroke-linecap:butt;stroke-linejoin:miter;stroke-opacity:1"/>
<path class="bond-19 atom-18 atom-11" d="M 578.9,403.6 L 578.9,435.0" style="fill:none;fill-rule:evenodd;stroke:#000000;stroke-width:2.0px;stroke-linecap:butt;stroke-linejoin:miter;stroke-opacity:1"/>
<path class="bond-19 atom-18 atom-11" d="M 578.9,435.0 L 578.9,466.4" style="fill:none;fill-rule:evenodd;stroke:#FF0000;stroke-width:2.0px;stroke-linecap:butt;stroke-linejoin:miter;stroke-opacity:1"/>
<path class="bond-20 atom-19 atom-16" d="M 213.9,612.9 L 259.0,638.9" style="fill:none;fill-rule:evenodd;stroke:#000000;stroke-width:2.0px;stroke-linecap:butt;stroke-linejoin:miter;stroke-opacity:1"/>
<path class="bond-21 atom-20 atom-17" d="M 300.0,489.7 L 321.7,502.3" style="fill:none;fill-rule:evenodd;stroke:#000000;stroke-width:2.0px;stroke-linecap:butt;stroke-linejoin:miter;stroke-opacity:1"/>
<path class="bond-21 atom-20 atom-17" d="M 321.7,502.3 L 343.4,514.9" style="fill:none;fill-rule:evenodd;stroke:#FF0000;stroke-width:2.0px;stroke-linecap:butt;stroke-linejoin:miter;stroke-opacity:1"/>
<path class="bond-22 atom-21 atom-19" d="M 204.7,532.9 L 204.6,595.7" style="fill:none;fill-rule:evenodd;stroke:#000000;stroke-width:2.0px;stroke-linecap:butt;stroke-linejoin:miter;stroke-opacity:1"/>
<path class="bond-23 atom-21 atom-20" d="M 213.5,516.0 L 269.9,483.5" style="fill:none;fill-rule:evenodd;stroke:#000000;stroke-width:2.0px;stroke-linecap:butt;stroke-linejoin:miter;stroke-opacity:1"/>
<path class="bond-24 atom-22 atom-20" d="M 286.1,403.6 L 286.1,434.9" style="fill:none;fill-rule:evenodd;stroke:#FF0000;stroke-width:2.0px;stroke-linecap:butt;stroke-linejoin:miter;stroke-opacity:1"/>
<path class="bond-24 atom-22 atom-20" d="M 286.1,434.9 L 286.1,466.1" style="fill:none;fill-rule:evenodd;stroke:#000000;stroke-width:2.0px;stroke-linecap:butt;stroke-linejoin:miter;stroke-opacity:1"/>
<path class="bond-24 atom-22 atom-20" d="M 273.1,403.6 L 273.1,434.9" style="fill:none;fill-rule:evenodd;stroke:#FF0000;stroke-width:2.0px;stroke-linecap:butt;stroke-linejoin:miter;stroke-opacity:1"/>
<path class="bond-24 atom-22 atom-20" d="M 273.1,434.9 L 273.1,466.1" style="fill:none;fill-rule:evenodd;stroke:#000000;stroke-width:2.0px;stroke-linecap:butt;stroke-linejoin:miter;stroke-opacity:1"/>
<path class="bond-25 atom-23 atom-19" d="M 139.4,645.1 L 161.6,632.3" style="fill:none;fill-rule:evenodd;stroke:#FF0000;stroke-width:2.0px;stroke-linecap:butt;stroke-linejoin:miter;stroke-opacity:1"/>
<path class="bond-25 atom-23 atom-19" d="M 161.6,632.3 L 183.7,619.5" style="fill:none;fill-rule:evenodd;stroke:#000000;stroke-width:2.0px;stroke-linecap:butt;stroke-linejoin:miter;stroke-opacity:1"/>
<path class="bond-26 atom-24 atom-18" d="M 644.1,354.2 L 599.4,380.0" style="fill:none;fill-rule:evenodd;stroke:#000000;stroke-width:2.0px;stroke-linecap:butt;stroke-linejoin:miter;stroke-opacity:1"/>
<path class="bond-27 atom-25 atom-18" d="M 516.4,348.1 L 539.1,361.2" style="fill:none;fill-rule:evenodd;stroke:#FF0000;stroke-width:2.0px;stroke-linecap:butt;stroke-linejoin:miter;stroke-opacity:1"/>
<path class="bond-27 atom-25 atom-18" d="M 539.1,361.2 L 561.8,374.4" style="fill:none;fill-rule:evenodd;stroke:#000000;stroke-width:2.0px;stroke-linecap:butt;stroke-linejoin:miter;stroke-opacity:1"/>
<path class="bond-27 atom-25 atom-18" d="M 509.9,359.3 L 532.6,372.4" style="fill:none;fill-rule:evenodd;stroke:#FF0000;stroke-width:2.0px;stroke-linecap:butt;stroke-linejoin:miter;stroke-opacity:1"/>
<path class="bond-27 atom-25 atom-18" d="M 532.6,372.4 L 555.3,385.6" style="fill:none;fill-rule:evenodd;stroke:#000000;stroke-width:2.0px;stroke-linecap:butt;stroke-linejoin:miter;stroke-opacity:1"/>
<path class="bond-28 atom-26 atom-24" d="M 653.9,274.0 L 653.8,336.8" style="fill:none;fill-rule:evenodd;stroke:#000000;stroke-width:2.0px;stroke-linecap:butt;stroke-linejoin:miter;stroke-opacity:1"/>
<path class="bond-29 atom-27 atom-24" d="M 718.9,386.3 L 674.2,360.4" style="fill:none;fill-rule:evenodd;stroke:#000000;stroke-width:2.0px;stroke-linecap:butt;stroke-linejoin:miter;stroke-opacity:1"/>
<path class="bond-30 atom-28 atom-26" d="M 719.1,224.7 L 662.6,257.2" style="fill:none;fill-rule:evenodd;stroke:#000000;stroke-width:2.0px;stroke-linecap:butt;stroke-linejoin:miter;stroke-opacity:1"/>
<path class="atom-0" d="M 715.3 478.4 Q 715.3 474.0, 717.3 471.7 Q 719.4 469.4, 723.3 469.4 Q 727.0 469.4, 728.9 471.9 L 727.3 473.3 Q 725.8 471.4, 723.3 471.4 Q 720.6 471.4, 719.2 473.2 Q 717.8 475.0, 717.8 478.4 Q 717.8 481.9, 719.3 483.7 Q 720.7 485.5, 723.6 485.5 Q 725.5 485.5, 727.8 484.3 L 728.5 486.2 Q 727.6 486.8, 726.2 487.1 Q 724.8 487.5, 723.2 487.5 Q 719.4 487.5, 717.3 485.1 Q 715.3 482.8, 715.3 478.4 " fill="#000000"/>
<path class="atom-0" d="M 732.1 485.3 L 736.0 485.3 L 736.0 472.0 L 731.7 473.4 L 731.1 471.9 L 736.6 469.5 L 738.3 469.8 L 738.3 485.3 L 741.8 485.3 L 741.8 487.3 L 732.1 487.3 L 732.1 485.3 " fill="#000000"/>
<path class="atom-1" d="M 789.4 521.6 Q 789.4 517.2, 791.5 514.9 Q 793.5 512.6, 797.5 512.6 Q 801.1 512.6, 803.1 515.2 L 801.4 516.5 Q 800.0 514.7, 797.5 514.7 Q 794.8 514.7, 793.4 516.5 Q 792.0 518.2, 792.0 521.6 Q 792.0 525.1, 793.4 526.9 Q 794.9 528.7, 797.7 528.7 Q 799.7 528.7, 802.0 527.6 L 802.7 529.4 Q 801.7 530.0, 800.3 530.4 Q 798.9 530.7, 797.4 530.7 Q 793.5 530.7, 791.5 528.4 Q 789.4 526.0, 789.4 521.6 " fill="#000000"/>
<path class="atom-1" d="M 805.4 516.2 Q 806.0 514.5, 807.6 513.6 Q 809.1 512.6, 811.3 512.6 Q 814.0 512.6, 815.5 514.1 Q 817.0 515.5, 817.0 518.1 Q 817.0 520.7, 815.0 523.2 Q 813.1 525.6, 809.1 528.5 L 817.3 528.5 L 817.3 530.5 L 805.3 530.5 L 805.3 528.8 Q 808.6 526.5, 810.6 524.7 Q 812.6 523.0, 813.5 521.4 Q 814.5 519.8, 814.5 518.2 Q 814.5 516.5, 813.6 515.6 Q 812.8 514.6, 811.3 514.6 Q 809.9 514.6, 808.9 515.2 Q 808.0 515.8, 807.3 517.0 L 805.4 516.2 " fill="#000000"/>
<path class="atom-2" d="M 796.4 608.0 Q 796.4 603.6, 798.5 601.3 Q 800.6 599.0, 804.5 599.0 Q 808.1 599.0, 810.1 601.6 L 808.4 602.9 Q 807.0 601.1, 804.5 601.1 Q 801.8 601.1, 800.4 602.9 Q 799.0 604.6, 799.0 608.0 Q 799.0 611.5, 800.4 613.3 Q 801.9 615.1, 804.8 615.1 Q 806.7 615.1, 809.0 614.0 L 809.7 615.8 Q 808.8 616.4, 807.4 616.8 Q 806.0 617.1, 804.4 617.1 Q 800.6 617.1, 798.5 614.8 Q 796.4 612.4, 796.4 608.0 " fill="#000000"/>
<path class="atom-2" d="M 820.9 607.6 Q 822.6 608.1, 823.4 609.2 Q 824.3 610.3, 824.3 612.1 Q 824.3 613.6, 823.5 614.7 Q 822.8 615.9, 821.4 616.5 Q 820.0 617.2, 818.2 617.2 Q 816.3 617.2, 814.9 616.5 Q 813.5 615.8, 812.4 614.5 L 813.8 613.0 Q 814.9 614.2, 815.8 614.7 Q 816.7 615.2, 818.2 615.2 Q 819.8 615.2, 820.8 614.3 Q 821.8 613.4, 821.8 612.0 Q 821.8 610.2, 820.7 609.4 Q 819.7 608.6, 817.6 608.6 L 816.3 608.6 L 816.3 606.8 L 817.4 606.8 Q 819.3 606.8, 820.4 606.0 Q 821.4 605.1, 821.4 603.5 Q 821.4 602.4, 820.5 601.7 Q 819.7 601.0, 818.2 601.0 Q 816.8 601.0, 815.8 601.5 Q 814.9 602.1, 814.2 603.4 L 812.5 602.5 Q 813.1 601.0, 814.6 600.0 Q 816.1 599.0, 818.2 599.0 Q 820.8 599.0, 822.4 600.2 Q 823.9 601.5, 823.9 603.5 Q 823.9 605.0, 823.1 606.0 Q 822.3 607.0, 820.9 607.6 " fill="#000000"/>
<path class="atom-3" d="M 630.8 521.5 Q 630.8 517.1, 632.9 514.8 Q 635.0 512.5, 638.9 512.5 Q 642.5 512.5, 644.5 515.1 L 642.8 516.4 Q 641.4 514.5, 638.9 514.5 Q 636.2 514.5, 634.8 516.3 Q 633.4 518.1, 633.4 521.5 Q 633.4 525.0, 634.8 526.8 Q 636.3 528.6, 639.2 528.6 Q 641.1 528.6, 643.4 527.4 L 644.1 529.3 Q 643.2 529.9, 641.8 530.3 Q 640.4 530.6, 638.8 530.6 Q 635.0 530.6, 632.9 528.3 Q 630.8 525.9, 630.8 521.5 " fill="#000000"/>
<path class="atom-3" d="M 658.3 524.3 L 660.5 524.3 L 660.5 526.3 L 658.3 526.3 L 658.3 530.4 L 656.0 530.4 L 656.0 526.3 L 646.8 526.3 L 646.8 524.7 L 654.6 512.7 L 658.3 512.7 L 658.3 524.3 M 649.7 524.3 L 656.0 524.3 L 656.0 514.3 L 649.7 524.3 " fill="#000000"/>
<path class="atom-4" d="M 714.5 651.2 Q 714.5 646.8, 716.5 644.5 Q 718.6 642.2, 722.5 642.2 Q 726.2 642.2, 728.1 644.7 L 726.5 646.1 Q 725.0 644.2, 722.5 644.2 Q 719.8 644.2, 718.4 646.0 Q 717.0 647.8, 717.0 651.2 Q 717.0 654.7, 718.5 656.5 Q 719.9 658.3, 722.8 658.3 Q 724.7 658.3, 727.0 657.1 L 727.7 659.0 Q 726.8 659.6, 725.4 659.9 Q 724.0 660.3, 722.4 660.3 Q 718.6 660.3, 716.5 657.9 Q 714.5 655.6, 714.5 651.2 " fill="#000000"/>
<path class="atom-4" d="M 736.8 649.0 Q 738.4 649.0, 739.6 649.7 Q 740.9 650.3, 741.6 651.6 Q 742.4 652.8, 742.4 654.5 Q 742.4 656.3, 741.5 657.6 Q 740.6 658.9, 739.1 659.6 Q 737.7 660.3, 736.0 660.3 Q 734.4 660.3, 732.9 659.7 Q 731.4 659.1, 730.4 657.9 L 731.9 656.4 Q 732.7 657.3, 733.8 657.8 Q 735.0 658.2, 736.1 658.2 Q 737.7 658.2, 738.8 657.3 Q 739.9 656.3, 739.9 654.5 Q 739.9 652.6, 738.8 651.8 Q 737.7 650.9, 736.0 650.9 Q 734.4 650.9, 732.7 651.5 L 731.3 650.9 L 732.2 642.4 L 741.3 642.4 L 741.0 644.4 L 734.2 644.4 L 733.7 649.6 Q 735.3 649.0, 736.8 649.0 " fill="#000000"/>
<path class="atom-5" d="M 639.5 607.9 Q 639.5 603.5, 641.5 601.2 Q 643.6 598.9, 647.5 598.9 Q 651.2 598.9, 653.1 601.5 L 651.5 602.8 Q 650.1 601.0, 647.5 601.0 Q 644.9 601.0, 643.4 602.8 Q 642.0 604.5, 642.0 607.9 Q 642.0 611.4, 643.5 613.2 Q 645.0 615.0, 647.8 615.0 Q 649.8 615.0, 652.0 613.9 L 652.7 615.7 Q 651.8 616.3, 650.4 616.7 Q 649.0 617.0, 647.5 617.0 Q 643.6 617.0, 641.5 614.7 Q 639.5 612.3, 639.5 607.9 " fill="#000000"/>
<path class="atom-5" d="M 662.4 605.8 Q 663.9 605.8, 665.1 606.4 Q 666.4 607.1, 667.0 608.3 Q 667.7 609.6, 667.7 611.1 Q 667.7 612.8, 666.9 614.2 Q 666.2 615.5, 664.8 616.3 Q 663.5 617.0, 661.8 617.0 Q 658.6 617.0, 657.0 614.9 Q 655.4 612.7, 655.4 608.5 Q 655.4 603.8, 657.4 601.4 Q 659.4 598.9, 663.1 598.9 Q 664.2 598.9, 665.2 599.2 Q 666.1 599.4, 667.0 599.9 L 666.0 601.6 Q 664.7 600.9, 663.2 600.9 Q 660.7 600.9, 659.4 602.5 Q 658.1 604.1, 658.0 607.5 Q 658.9 606.6, 660.0 606.2 Q 661.1 605.8, 662.4 605.8 M 661.8 615.0 Q 662.7 615.0, 663.5 614.5 Q 664.3 614.0, 664.8 613.1 Q 665.2 612.2, 665.2 611.1 Q 665.2 609.6, 664.3 608.7 Q 663.5 607.8, 661.9 607.8 Q 660.8 607.8, 659.8 608.2 Q 658.7 608.6, 658.0 609.4 Q 658.1 612.3, 659.0 613.6 Q 659.9 615.0, 661.8 615.0 " fill="#000000"/>
<path class="atom-6" d="M 721.5 737.6 Q 721.5 733.2, 723.6 730.9 Q 725.6 728.6, 729.6 728.6 Q 733.2 728.6, 735.2 731.2 L 733.5 732.5 Q 732.1 730.6, 729.6 730.6 Q 726.9 730.6, 725.5 732.4 Q 724.1 734.2, 724.1 737.6 Q 724.1 741.1, 725.5 742.9 Q 727.0 744.7, 729.8 744.7 Q 731.8 744.7, 734.1 743.5 L 734.8 745.4 Q 733.8 746.0, 732.4 746.4 Q 731.0 746.7, 729.5 746.7 Q 725.6 746.7, 723.6 744.4 Q 721.5 742.0, 721.5 737.6 " fill="#000000"/>
<path class="atom-6" d="M 746.7 730.8 L 737.4 730.8 L 737.4 728.8 L 749.2 728.8 L 749.2 730.6 L 742.0 746.5 L 739.6 746.5 L 746.7 730.8 " fill="#000000"/>
<path class="atom-7" d="M 639.2 780.7 Q 639.2 776.3, 641.3 774.0 Q 643.4 771.7, 647.3 771.7 Q 650.9 771.7, 652.9 774.3 L 651.2 775.6 Q 649.8 773.8, 647.3 773.8 Q 644.6 773.8, 643.2 775.6 Q 641.8 777.3, 641.8 780.7 Q 641.8 784.2, 643.2 786.0 Q 644.7 787.8, 647.6 787.8 Q 649.5 787.8, 651.8 786.7 L 652.5 788.5 Q 651.6 789.1, 650.2 789.5 Q 648.8 789.8, 647.2 789.8 Q 643.4 789.8, 641.3 787.5 Q 639.2 785.1, 639.2 780.7 " fill="#000000"/>
<path class="atom-7" d="M 664.2 780.2 Q 665.8 780.9, 666.8 782.0 Q 667.7 783.0, 667.7 784.8 Q 667.7 786.3, 666.9 787.4 Q 666.1 788.6, 664.7 789.2 Q 663.4 789.9, 661.5 789.9 Q 658.6 789.9, 656.9 788.5 Q 655.2 787.1, 655.2 784.8 Q 655.2 783.3, 655.9 782.2 Q 656.7 781.1, 658.2 780.3 Q 657.1 779.7, 656.5 778.7 Q 655.8 777.7, 655.8 776.2 Q 655.8 774.2, 657.3 772.9 Q 658.9 771.7, 661.4 771.7 Q 664.0 771.7, 665.5 772.9 Q 667.0 774.2, 667.0 776.2 Q 667.0 777.5, 666.3 778.5 Q 665.6 779.5, 664.2 780.2 M 661.4 773.6 Q 660.0 773.6, 659.1 774.3 Q 658.3 775.0, 658.3 776.2 Q 658.3 777.2, 658.9 777.8 Q 659.4 778.4, 660.2 778.7 Q 661.0 779.1, 662.5 779.6 Q 663.6 778.9, 664.1 778.1 Q 664.5 777.3, 664.5 776.2 Q 664.5 775.0, 663.7 774.3 Q 662.9 773.6, 661.4 773.6 M 661.5 788.0 Q 663.2 788.0, 664.2 787.1 Q 665.2 786.2, 665.2 784.7 Q 665.2 783.8, 664.7 783.2 Q 664.1 782.6, 663.3 782.2 Q 662.6 781.9, 661.2 781.4 L 660.0 781.1 Q 658.8 781.8, 658.2 782.7 Q 657.7 783.6, 657.7 784.7 Q 657.7 786.2, 658.7 787.1 Q 659.8 788.0, 661.5 788.0 " fill="#000000"/>
<path class="atom-8" d="M 556.6 737.5 Q 556.6 733.1, 558.6 730.8 Q 560.7 728.5, 564.6 728.5 Q 568.3 728.5, 570.2 731.0 L 568.6 732.4 Q 567.1 730.5, 564.6 730.5 Q 561.9 730.5, 560.5 732.3 Q 559.1 734.1, 559.1 737.5 Q 559.1 741.0, 560.6 742.8 Q 562.0 744.6, 564.9 744.6 Q 566.8 744.6, 569.1 743.4 L 569.8 745.3 Q 568.9 745.9, 567.5 746.2 Q 566.1 746.6, 564.5 746.6 Q 560.7 746.6, 558.6 744.2 Q 556.6 741.9, 556.6 737.5 " fill="#000000"/>
<path class="atom-8" d="M 578.5 728.5 Q 581.6 728.5, 583.2 730.6 Q 584.8 732.7, 584.8 737.0 Q 584.8 741.7, 582.8 744.1 Q 580.9 746.6, 577.1 746.6 Q 576.0 746.6, 575.0 746.3 Q 574.1 746.1, 573.2 745.5 L 574.2 743.9 Q 575.5 744.6, 577.1 744.6 Q 579.6 744.6, 580.8 743.0 Q 582.1 741.3, 582.3 738.0 Q 581.4 738.8, 580.2 739.3 Q 579.1 739.7, 577.9 739.7 Q 576.3 739.7, 575.1 739.0 Q 573.9 738.4, 573.2 737.1 Q 572.5 735.9, 572.5 734.4 Q 572.5 732.6, 573.3 731.3 Q 574.0 730.0, 575.4 729.2 Q 576.7 728.5, 578.5 728.5 M 575.0 734.3 Q 575.0 735.9, 575.9 736.8 Q 576.8 737.7, 578.3 737.7 Q 579.4 737.7, 580.4 737.3 Q 581.5 736.8, 582.3 736.1 Q 582.2 733.2, 581.2 731.8 Q 580.3 730.5, 578.4 730.5 Q 577.5 730.5, 576.7 731.0 Q 575.9 731.5, 575.5 732.4 Q 575.0 733.3, 575.0 734.3 " fill="#000000"/>
<path class="atom-9" d="M 557.8 651.1 Q 557.8 646.7, 559.9 644.4 Q 561.9 642.0, 565.9 642.0 Q 569.5 642.0, 571.5 644.6 L 569.8 646.0 Q 568.4 644.1, 565.9 644.1 Q 563.2 644.1, 561.8 645.9 Q 560.4 647.7, 560.4 651.1 Q 560.4 654.6, 561.8 656.4 Q 563.3 658.2, 566.1 658.2 Q 568.1 658.2, 570.4 657.0 L 571.1 658.9 Q 570.1 659.5, 568.7 659.8 Q 567.3 660.2, 565.8 660.2 Q 561.9 660.2, 559.9 657.8 Q 557.8 655.5, 557.8 651.1 " fill="#000000"/>
<path class="atom-9" d="M 574.7 657.9 L 578.6 657.9 L 578.6 644.7 L 574.3 646.0 L 573.7 644.6 L 579.1 642.1 L 580.9 642.4 L 580.9 657.9 L 584.4 657.9 L 584.4 659.9 L 574.7 659.9 L 574.7 657.9 " fill="#000000"/>
<path class="atom-9" d="M 593.2 660.1 Q 589.9 660.1, 588.3 657.7 Q 586.7 655.3, 586.7 651.1 Q 586.7 646.8, 588.3 644.4 Q 589.9 642.0, 593.2 642.0 Q 596.4 642.0, 598.0 644.4 Q 599.6 646.8, 599.6 651.1 Q 599.6 655.3, 598.0 657.7 Q 596.4 660.1, 593.2 660.1 M 593.2 658.1 Q 595.1 658.1, 596.1 656.4 Q 597.1 654.6, 597.1 651.1 Q 597.1 647.6, 596.1 645.8 Q 595.1 644.0, 593.2 644.0 Q 591.3 644.0, 590.2 645.8 Q 589.2 647.6, 589.2 651.1 Q 589.2 654.6, 590.2 656.4 Q 591.3 658.1, 593.2 658.1 " fill="#000000"/>
<path class="atom-10" d="M 871.4 478.5 Q 871.4 474.1, 873.4 471.8 Q 875.5 469.5, 879.4 469.5 Q 883.1 469.5, 885.0 472.0 L 883.4 473.4 Q 882.0 471.5, 879.4 471.5 Q 876.8 471.5, 875.3 473.3 Q 873.9 475.1, 873.9 478.5 Q 873.9 482.0, 875.4 483.8 Q 876.9 485.6, 879.7 485.6 Q 881.7 485.6, 883.9 484.4 L 884.6 486.3 Q 883.7 486.9, 882.3 487.2 Q 880.9 487.6, 879.4 487.6 Q 875.5 487.6, 873.4 485.2 Q 871.4 482.9, 871.4 478.5 " fill="#000000"/>
<path class="atom-10" d="M 888.2 485.4 L 892.0 485.4 L 892.0 472.1 L 887.8 473.5 L 887.2 472.0 L 892.6 469.6 L 894.4 469.9 L 894.4 485.4 L 897.9 485.4 L 897.9 487.4 L 888.2 487.4 L 888.2 485.4 " fill="#000000"/>
<path class="atom-10" d="M 901.1 485.4 L 904.9 485.4 L 904.9 472.1 L 900.7 473.5 L 900.1 472.0 L 905.5 469.6 L 907.3 469.9 L 907.3 485.4 L 910.8 485.4 L 910.8 487.4 L 901.1 487.4 L 901.1 485.4 " fill="#000000"/>
<path class="atom-11" d="M 541.1 478.2 Q 541.1 474.0, 543.2 471.6 Q 545.3 469.2, 549.2 469.2 Q 553.2 469.2, 555.3 471.6 Q 557.4 474.0, 557.4 478.2 Q 557.4 482.5, 555.2 485.0 Q 553.1 487.4, 549.2 487.4 Q 545.3 487.4, 543.2 485.0 Q 541.1 482.6, 541.1 478.2 M 549.2 485.4 Q 551.9 485.4, 553.4 483.6 Q 554.9 481.8, 554.9 478.2 Q 554.9 474.8, 553.4 473.0 Q 551.9 471.2, 549.2 471.2 Q 546.5 471.2, 545.1 473.0 Q 543.6 474.7, 543.6 478.2 Q 543.6 481.8, 545.1 483.6 Q 546.5 485.4, 549.2 485.4 " fill="#FF0000"/>
<path class="atom-11" d="M 560.9 485.1 L 564.7 485.1 L 564.7 471.9 L 560.5 473.2 L 559.9 471.8 L 565.3 469.3 L 567.1 469.6 L 567.1 485.1 L 570.6 485.1 L 570.6 487.1 L 560.9 487.1 L 560.9 485.1 " fill="#FF0000"/>
<path class="atom-11" d="M 573.0 472.8 Q 573.6 471.1, 575.2 470.2 Q 576.7 469.2, 578.9 469.2 Q 581.5 469.2, 583.0 470.7 Q 584.5 472.1, 584.5 474.7 Q 584.5 477.3, 582.6 479.8 Q 580.7 482.2, 576.7 485.1 L 584.8 485.1 L 584.8 487.1 L 572.9 487.1 L 572.9 485.5 Q 576.2 483.1, 578.2 481.4 Q 580.1 479.6, 581.1 478.0 Q 582.0 476.5, 582.0 474.8 Q 582.0 473.1, 581.2 472.2 Q 580.3 471.2, 578.9 471.2 Q 577.4 471.2, 576.5 471.8 Q 575.5 472.4, 574.9 473.7 L 573.0 472.8 " fill="#FF0000"/>
<path class="atom-12" d="M 469.1 780.6 Q 469.1 776.2, 471.1 773.9 Q 473.2 771.6, 477.1 771.6 Q 480.8 771.6, 482.7 774.2 L 481.1 775.5 Q 479.6 773.6, 477.1 773.6 Q 474.4 773.6, 473.0 775.4 Q 471.6 777.2, 471.6 780.6 Q 471.6 784.1, 473.1 785.9 Q 474.5 787.7, 477.4 787.7 Q 479.3 787.7, 481.6 786.5 L 482.3 788.4 Q 481.4 789.0, 480.0 789.4 Q 478.6 789.7, 477.0 789.7 Q 473.2 789.7, 471.1 787.4 Q 469.1 785.0, 469.1 780.6 " fill="#000000"/>
<path class="atom-12" d="M 485.9 787.5 L 489.8 787.5 L 489.8 774.3 L 485.5 775.6 L 484.9 774.1 L 490.4 771.7 L 492.1 772.0 L 492.1 787.5 L 495.6 787.5 L 495.6 789.5 L 485.9 789.5 L 485.9 787.5 " fill="#000000"/>
<path class="atom-12" d="M 506.4 780.2 Q 508.1 780.7, 508.9 781.8 Q 509.8 782.9, 509.8 784.6 Q 509.8 786.1, 509.0 787.3 Q 508.3 788.5, 506.9 789.1 Q 505.5 789.7, 503.7 789.7 Q 501.8 789.7, 500.4 789.1 Q 499.0 788.4, 497.9 787.1 L 499.3 785.6 Q 500.4 786.8, 501.3 787.3 Q 502.2 787.7, 503.7 787.7 Q 505.3 787.7, 506.3 786.9 Q 507.3 786.0, 507.3 784.6 Q 507.3 782.8, 506.2 782.0 Q 505.2 781.2, 503.1 781.2 L 501.8 781.2 L 501.8 779.4 L 502.9 779.4 Q 504.8 779.4, 505.9 778.5 Q 506.9 777.7, 506.9 776.1 Q 506.9 775.0, 506.0 774.3 Q 505.2 773.6, 503.7 773.6 Q 502.3 773.6, 501.3 774.1 Q 500.4 774.6, 499.7 776.0 L 498.0 775.0 Q 498.6 773.6, 500.1 772.6 Q 501.6 771.6, 503.7 771.6 Q 506.3 771.6, 507.9 772.8 Q 509.4 774.0, 509.4 776.1 Q 509.4 777.5, 508.6 778.6 Q 507.8 779.6, 506.4 780.2 " fill="#000000"/>
<path class="atom-13" d="M 482.7 607.8 Q 482.7 603.4, 484.7 601.1 Q 486.8 598.8, 490.7 598.8 Q 494.4 598.8, 496.3 601.4 L 494.7 602.7 Q 493.3 600.8, 490.7 600.8 Q 488.1 600.8, 486.6 602.6 Q 485.2 604.4, 485.2 607.8 Q 485.2 611.3, 486.7 613.1 Q 488.2 614.9, 491.0 614.9 Q 493.0 614.9, 495.2 613.7 L 495.9 615.6 Q 495.0 616.2, 493.6 616.6 Q 492.2 616.9, 490.7 616.9 Q 486.8 616.9, 484.7 614.6 Q 482.7 612.2, 482.7 607.8 " fill="#000000"/>
<path class="atom-13" d="M 499.6 614.7 L 503.4 614.7 L 503.4 601.5 L 499.2 602.8 L 498.6 601.3 L 504.0 598.9 L 505.8 599.2 L 505.8 614.7 L 509.3 614.7 L 509.3 616.7 L 499.6 616.7 L 499.6 614.7 " fill="#000000"/>
<path class="atom-13" d="M 523.1 610.6 L 525.2 610.6 L 525.2 612.6 L 523.1 612.6 L 523.1 616.7 L 520.7 616.7 L 520.7 612.6 L 511.6 612.6 L 511.6 611.0 L 519.3 599.0 L 523.1 599.0 L 523.1 610.6 M 514.5 610.6 L 520.7 610.6 L 520.7 600.6 L 514.5 610.6 " fill="#000000"/>
<path class="atom-14" d="M 408.7 651.0 Q 408.7 646.6, 410.7 644.3 Q 412.8 641.9, 416.7 641.9 Q 420.4 641.9, 422.3 644.5 L 420.7 645.9 Q 419.3 644.0, 416.7 644.0 Q 414.1 644.0, 412.6 645.8 Q 411.2 647.6, 411.2 651.0 Q 411.2 654.5, 412.7 656.3 Q 414.2 658.1, 417.0 658.1 Q 419.0 658.1, 421.2 656.9 L 421.9 658.8 Q 421.0 659.4, 419.6 659.7 Q 418.2 660.1, 416.7 660.1 Q 412.8 660.1, 410.7 657.7 Q 408.7 655.4, 408.7 651.0 " fill="#000000"/>
<path class="atom-14" d="M 425.5 657.8 L 429.4 657.8 L 429.4 644.6 L 425.1 645.9 L 424.6 644.5 L 430.0 642.0 L 431.8 642.3 L 431.8 657.8 L 435.2 657.8 L 435.2 659.8 L 425.5 659.8 L 425.5 657.8 " fill="#000000"/>
<path class="atom-14" d="M 443.9 648.8 Q 445.5 648.8, 446.7 649.4 Q 448.0 650.1, 448.7 651.3 Q 449.5 652.6, 449.5 654.2 Q 449.5 656.1, 448.6 657.4 Q 447.7 658.7, 446.2 659.4 Q 444.8 660.0, 443.1 660.0 Q 441.5 660.0, 440.0 659.4 Q 438.5 658.8, 437.5 657.7 L 439.0 656.1 Q 439.8 657.0, 440.9 657.5 Q 442.1 658.0, 443.2 658.0 Q 444.8 658.0, 445.9 657.0 Q 447.0 656.1, 447.0 654.3 Q 447.0 652.4, 445.9 651.5 Q 444.8 650.6, 443.1 650.6 Q 441.5 650.6, 439.8 651.3 L 438.4 650.7 L 439.3 642.1 L 448.4 642.1 L 448.1 644.1 L 441.3 644.1 L 440.8 649.4 Q 442.4 648.8, 443.9 648.8 " fill="#000000"/>
<path class="atom-15" d="M 333.7 607.7 Q 333.7 603.3, 335.8 601.0 Q 337.9 598.7, 341.8 598.7 Q 345.4 598.7, 347.4 601.2 L 345.7 602.6 Q 344.3 600.7, 341.8 600.7 Q 339.1 600.7, 337.7 602.5 Q 336.3 604.3, 336.3 607.7 Q 336.3 611.2, 337.7 613.0 Q 339.2 614.8, 342.1 614.8 Q 344.0 614.8, 346.3 613.6 L 347.0 615.5 Q 346.1 616.1, 344.7 616.4 Q 343.3 616.8, 341.7 616.8 Q 337.9 616.8, 335.8 614.4 Q 333.7 612.1, 333.7 607.7 " fill="#000000"/>
<path class="atom-15" d="M 350.6 614.6 L 354.5 614.6 L 354.5 601.3 L 350.2 602.7 L 349.6 601.2 L 355.0 598.8 L 356.8 599.1 L 356.8 614.6 L 360.3 614.6 L 360.3 616.6 L 350.6 616.6 L 350.6 614.6 " fill="#000000"/>
<path class="atom-15" d="M 369.5 605.5 Q 371.0 605.5, 372.3 606.2 Q 373.5 606.9, 374.2 608.1 Q 374.8 609.3, 374.8 610.9 Q 374.8 612.6, 374.1 613.9 Q 373.3 615.3, 372.0 616.0 Q 370.6 616.8, 368.9 616.8 Q 365.7 616.8, 364.1 614.6 Q 362.6 612.5, 362.6 608.2 Q 362.6 603.5, 364.5 601.1 Q 366.5 598.7, 370.3 598.7 Q 371.4 598.7, 372.3 598.9 Q 373.2 599.2, 374.1 599.7 L 373.2 601.4 Q 371.9 600.7, 370.3 600.7 Q 367.8 600.7, 366.5 602.3 Q 365.2 603.9, 365.1 607.2 Q 366.0 606.4, 367.1 606.0 Q 368.3 605.5, 369.5 605.5 M 368.9 614.7 Q 369.9 614.7, 370.6 614.2 Q 371.4 613.7, 371.9 612.8 Q 372.3 612.0, 372.3 610.9 Q 372.3 609.3, 371.5 608.4 Q 370.6 607.5, 369.0 607.5 Q 368.0 607.5, 366.9 608.0 Q 365.8 608.4, 365.1 609.1 Q 365.2 612.1, 366.1 613.4 Q 367.0 614.7, 368.9 614.7 " fill="#000000"/>
<path class="atom-16" d="M 259.2 650.8 Q 259.2 646.4, 261.2 644.1 Q 263.3 641.8, 267.2 641.8 Q 270.9 641.8, 272.8 644.4 L 271.2 645.7 Q 269.7 643.8, 267.2 643.8 Q 264.5 643.8, 263.1 645.6 Q 261.7 647.4, 261.7 650.8 Q 261.7 654.3, 263.2 656.1 Q 264.6 657.9, 267.5 657.9 Q 269.4 657.9, 271.7 656.7 L 272.4 658.6 Q 271.5 659.2, 270.1 659.6 Q 268.7 659.9, 267.1 659.9 Q 263.3 659.9, 261.2 657.6 Q 259.2 655.2, 259.2 650.8 " fill="#000000"/>
<path class="atom-16" d="M 276.0 657.7 L 279.9 657.7 L 279.9 644.5 L 275.6 645.8 L 275.0 644.3 L 280.4 641.9 L 282.2 642.2 L 282.2 657.7 L 285.7 657.7 L 285.7 659.7 L 276.0 659.7 L 276.0 657.7 " fill="#000000"/>
<path class="atom-16" d="M 297.2 644.0 L 287.9 644.0 L 287.9 642.0 L 299.7 642.0 L 299.7 643.8 L 292.5 659.7 L 290.1 659.7 L 297.2 644.0 " fill="#000000"/>
<path class="atom-17" d="M 346.2 521.3 Q 346.2 517.0, 348.3 514.6 Q 350.4 512.3, 354.4 512.3 Q 358.3 512.3, 360.4 514.6 Q 362.5 517.0, 362.5 521.3 Q 362.5 525.6, 360.4 528.0 Q 358.2 530.4, 354.4 530.4 Q 350.5 530.4, 348.3 528.0 Q 346.2 525.6, 346.2 521.3 M 354.4 528.4 Q 357.1 528.4, 358.5 526.6 Q 360.0 524.8, 360.0 521.3 Q 360.0 517.8, 358.5 516.0 Q 357.1 514.3, 354.4 514.3 Q 351.7 514.3, 350.2 516.0 Q 348.7 517.8, 348.7 521.3 Q 348.7 524.8, 350.2 526.6 Q 351.7 528.4, 354.4 528.4 " fill="#FF0000"/>
<path class="atom-17" d="M 366.0 528.2 L 369.9 528.2 L 369.9 514.9 L 365.6 516.3 L 365.0 514.8 L 370.5 512.4 L 372.2 512.7 L 372.2 528.2 L 375.7 528.2 L 375.7 530.2 L 366.0 530.2 L 366.0 528.2 " fill="#FF0000"/>
<path class="atom-17" d="M 387.1 520.8 Q 388.7 521.5, 389.7 522.5 Q 390.6 523.6, 390.6 525.3 Q 390.6 526.8, 389.8 528.0 Q 389.0 529.1, 387.6 529.8 Q 386.3 530.4, 384.4 530.4 Q 381.5 530.4, 379.8 529.1 Q 378.1 527.7, 378.1 525.3 Q 378.1 523.9, 378.8 522.8 Q 379.6 521.7, 381.1 520.9 Q 380.0 520.2, 379.4 519.3 Q 378.7 518.3, 378.7 516.8 Q 378.7 514.7, 380.2 513.5 Q 381.8 512.3, 384.3 512.3 Q 386.9 512.3, 388.4 513.5 Q 389.9 514.7, 389.9 516.8 Q 389.9 518.1, 389.2 519.1 Q 388.5 520.0, 387.1 520.8 M 384.3 514.1 Q 382.9 514.1, 382.0 514.8 Q 381.2 515.5, 381.2 516.8 Q 381.2 517.7, 381.8 518.3 Q 382.3 518.9, 383.1 519.3 Q 383.9 519.6, 385.4 520.2 Q 386.5 519.4, 387.0 518.6 Q 387.4 517.8, 387.4 516.8 Q 387.4 515.5, 386.6 514.8 Q 385.8 514.1, 384.3 514.1 M 384.4 528.5 Q 386.1 528.5, 387.1 527.7 Q 388.1 526.8, 388.1 525.3 Q 388.1 524.3, 387.6 523.7 Q 387.0 523.1, 386.2 522.8 Q 385.5 522.4, 384.1 522.0 L 382.9 521.6 Q 381.7 522.4, 381.1 523.3 Q 380.6 524.1, 380.6 525.3 Q 380.6 526.8, 381.6 527.7 Q 382.7 528.5, 384.4 528.5 " fill="#FF0000"/>
<path class="atom-18" d="M 558.4 391.9 Q 558.4 387.5, 560.5 385.2 Q 562.5 382.8, 566.5 382.8 Q 570.1 382.8, 572.1 385.4 L 570.4 386.8 Q 569.0 384.9, 566.5 384.9 Q 563.8 384.9, 562.4 386.7 Q 561.0 388.5, 561.0 391.9 Q 561.0 395.4, 562.4 397.2 Q 563.9 399.0, 566.7 399.0 Q 568.7 399.0, 571.0 397.8 L 571.7 399.7 Q 570.7 400.3, 569.3 400.6 Q 567.9 401.0, 566.4 401.0 Q 562.5 401.0, 560.5 398.6 Q 558.4 396.3, 558.4 391.9 " fill="#000000"/>
<path class="atom-18" d="M 575.3 398.7 L 579.1 398.7 L 579.1 385.5 L 574.9 386.8 L 574.3 385.4 L 579.7 382.9 L 581.5 383.2 L 581.5 398.7 L 585.0 398.7 L 585.0 400.7 L 575.3 400.7 L 575.3 398.7 " fill="#000000"/>
<path class="atom-18" d="M 593.2 382.8 Q 596.3 382.8, 597.9 385.0 Q 599.5 387.1, 599.5 391.4 Q 599.5 396.1, 597.5 398.5 Q 595.6 400.9, 591.8 400.9 Q 590.7 400.9, 589.7 400.7 Q 588.8 400.4, 587.9 399.9 L 588.9 398.2 Q 590.2 398.9, 591.8 398.9 Q 594.3 398.9, 595.5 397.3 Q 596.8 395.7, 597.0 392.4 Q 596.1 393.2, 594.9 393.7 Q 593.8 394.1, 592.6 394.1 Q 591.0 394.1, 589.8 393.4 Q 588.6 392.7, 587.9 391.5 Q 587.2 390.3, 587.2 388.7 Q 587.2 387.0, 588.0 385.7 Q 588.7 384.3, 590.1 383.6 Q 591.4 382.8, 593.2 382.8 M 589.7 388.7 Q 589.7 390.3, 590.6 391.2 Q 591.5 392.1, 593.0 392.1 Q 594.1 392.1, 595.1 391.7 Q 596.2 391.2, 597.0 390.5 Q 596.9 387.5, 595.9 386.2 Q 595.0 384.9, 593.1 384.9 Q 592.2 384.9, 591.4 385.4 Q 590.6 385.9, 590.2 386.8 Q 589.7 387.6, 589.7 388.7 " fill="#000000"/>
<path class="atom-19" d="M 167.5 607.6 Q 167.5 603.2, 169.5 600.9 Q 171.6 598.6, 175.5 598.6 Q 179.2 598.6, 181.1 601.1 L 179.5 602.5 Q 178.1 600.6, 175.5 600.6 Q 172.9 600.6, 171.4 602.4 Q 170.0 604.2, 170.0 607.6 Q 170.0 611.1, 171.5 612.9 Q 173.0 614.7, 175.8 614.7 Q 177.8 614.7, 180.0 613.5 L 180.7 615.4 Q 179.8 616.0, 178.4 616.3 Q 177.0 616.7, 175.5 616.7 Q 171.6 616.7, 169.5 614.3 Q 167.5 612.0, 167.5 607.6 " fill="#000000"/>
<path class="atom-19" d="M 183.5 602.1 Q 184.1 600.4, 185.7 599.5 Q 187.2 598.6, 189.4 598.6 Q 192.1 598.6, 193.6 600.0 Q 195.1 601.5, 195.1 604.0 Q 195.1 606.7, 193.1 609.1 Q 191.2 611.6, 187.2 614.5 L 195.4 614.5 L 195.4 616.5 L 183.4 616.5 L 183.4 614.8 Q 186.7 612.4, 188.7 610.7 Q 190.7 608.9, 191.6 607.4 Q 192.6 605.8, 192.6 604.2 Q 192.6 602.5, 191.7 601.5 Q 190.9 600.6, 189.4 600.6 Q 188.0 600.6, 187.0 601.1 Q 186.1 601.7, 185.4 603.0 L 183.5 602.1 " fill="#000000"/>
<path class="atom-19" d="M 204.6 616.7 Q 201.4 616.7, 199.7 614.3 Q 198.1 611.9, 198.1 607.6 Q 198.1 603.3, 199.7 600.9 Q 201.3 598.6, 204.6 598.6 Q 207.9 598.6, 209.5 600.9 Q 211.1 603.3, 211.1 607.6 Q 211.1 611.9, 209.5 614.3 Q 207.9 616.7, 204.6 616.7 M 204.6 614.7 Q 206.5 614.7, 207.6 612.9 Q 208.6 611.1, 208.6 607.6 Q 208.6 604.1, 207.6 602.3 Q 206.5 600.6, 204.6 600.6 Q 202.7 600.6, 201.7 602.3 Q 200.6 604.1, 200.6 607.6 Q 200.6 611.1, 201.7 612.9 Q 202.7 614.7, 204.6 614.7 " fill="#000000"/>
<path class="atom-20" d="M 272.7 478.0 Q 272.7 473.6, 274.8 471.3 Q 276.9 469.0, 280.8 469.0 Q 284.4 469.0, 286.4 471.6 L 284.7 472.9 Q 283.3 471.0, 280.8 471.0 Q 278.1 471.0, 276.7 472.8 Q 275.3 474.6, 275.3 478.0 Q 275.3 481.5, 276.7 483.3 Q 278.2 485.1, 281.1 485.1 Q 283.0 485.1, 285.3 483.9 L 286.0 485.8 Q 285.1 486.4, 283.7 486.8 Q 282.3 487.1, 280.7 487.1 Q 276.9 487.1, 274.8 484.8 Q 272.7 482.4, 272.7 478.0 " fill="#000000"/>
<path class="atom-20" d="M 288.6 472.5 Q 289.3 470.9, 290.8 469.9 Q 292.4 469.0, 294.5 469.0 Q 297.2 469.0, 298.7 470.4 Q 300.2 471.9, 300.2 474.5 Q 300.2 477.1, 298.3 479.5 Q 296.3 482.0, 292.3 484.9 L 300.5 484.9 L 300.5 486.9 L 288.6 486.9 L 288.6 485.2 Q 291.9 482.9, 293.8 481.1 Q 295.8 479.4, 296.8 477.8 Q 297.7 476.2, 297.7 474.6 Q 297.7 472.9, 296.9 471.9 Q 296.0 471.0, 294.5 471.0 Q 293.1 471.0, 292.2 471.6 Q 291.2 472.1, 290.5 473.4 L 288.6 472.5 " fill="#000000"/>
<path class="atom-20" d="M 304.2 484.9 L 308.1 484.9 L 308.1 471.7 L 303.8 473.0 L 303.2 471.5 L 308.7 469.1 L 310.4 469.4 L 310.4 484.9 L 313.9 484.9 L 313.9 486.9 L 304.2 486.9 L 304.2 484.9 " fill="#000000"/>
<path class="atom-21" d="M 168.1 521.2 Q 168.1 516.8, 170.2 514.5 Q 172.3 512.1, 176.2 512.1 Q 179.8 512.1, 181.8 514.7 L 180.1 516.1 Q 178.7 514.2, 176.2 514.2 Q 173.5 514.2, 172.1 516.0 Q 170.7 517.8, 170.7 521.2 Q 170.7 524.7, 172.1 526.5 Q 173.6 528.3, 176.5 528.3 Q 178.4 528.3, 180.7 527.1 L 181.4 529.0 Q 180.5 529.6, 179.1 529.9 Q 177.7 530.3, 176.1 530.3 Q 172.3 530.3, 170.2 527.9 Q 168.1 525.6, 168.1 521.2 " fill="#000000"/>
<path class="atom-21" d="M 184.1 515.7 Q 184.7 514.0, 186.3 513.1 Q 187.8 512.1, 190.0 512.1 Q 192.7 512.1, 194.2 513.6 Q 195.7 515.0, 195.7 517.6 Q 195.7 520.2, 193.7 522.7 Q 191.8 525.1, 187.8 528.0 L 196.0 528.0 L 196.0 530.0 L 184.0 530.0 L 184.0 528.4 Q 187.3 526.0, 189.3 524.3 Q 191.3 522.5, 192.2 520.9 Q 193.2 519.4, 193.2 517.7 Q 193.2 516.0, 192.3 515.1 Q 191.5 514.1, 190.0 514.1 Q 188.6 514.1, 187.6 514.7 Q 186.7 515.3, 186.0 516.6 L 184.1 515.7 " fill="#000000"/>
<path class="atom-21" d="M 198.8 515.7 Q 199.4 514.0, 201.0 513.1 Q 202.5 512.1, 204.7 512.1 Q 207.3 512.1, 208.8 513.6 Q 210.3 515.0, 210.3 517.6 Q 210.3 520.2, 208.4 522.7 Q 206.5 525.1, 202.5 528.0 L 210.6 528.0 L 210.6 530.0 L 198.7 530.0 L 198.7 528.4 Q 202.0 526.0, 204.0 524.3 Q 205.9 522.5, 206.9 520.9 Q 207.8 519.4, 207.8 517.7 Q 207.8 516.0, 207.0 515.1 Q 206.1 514.1, 204.7 514.1 Q 203.2 514.1, 202.3 514.7 Q 201.3 515.3, 200.7 516.6 L 198.8 515.7 " fill="#000000"/>
<path class="atom-22" d="M 271.5 391.6 Q 271.5 387.3, 273.6 385.0 Q 275.7 382.6, 279.6 382.6 Q 283.6 382.6, 285.7 385.0 Q 287.8 387.3, 287.8 391.6 Q 287.8 395.9, 285.6 398.3 Q 283.5 400.8, 279.6 400.8 Q 275.7 400.8, 273.6 398.3 Q 271.5 395.9, 271.5 391.6 M 279.6 398.8 Q 282.3 398.8, 283.8 397.0 Q 285.3 395.1, 285.3 391.6 Q 285.3 388.1, 283.8 386.4 Q 282.3 384.6, 279.6 384.6 Q 276.9 384.6, 275.5 386.3 Q 274.0 388.1, 274.0 391.6 Q 274.0 395.2, 275.5 397.0 Q 276.9 398.8, 279.6 398.8 " fill="#FF0000"/>
<path class="atom-22" d="M 290.4 386.1 Q 291.0 384.5, 292.6 383.5 Q 294.1 382.6, 296.3 382.6 Q 299.0 382.6, 300.5 384.0 Q 302.0 385.5, 302.0 388.1 Q 302.0 390.7, 300.0 393.1 Q 298.1 395.6, 294.1 398.5 L 302.3 398.5 L 302.3 400.5 L 290.3 400.5 L 290.3 398.8 Q 293.6 396.5, 295.6 394.7 Q 297.6 393.0, 298.5 391.4 Q 299.5 389.8, 299.5 388.2 Q 299.5 386.5, 298.6 385.5 Q 297.8 384.6, 296.3 384.6 Q 294.9 384.6, 293.9 385.2 Q 293.0 385.7, 292.3 387.0 L 290.4 386.1 " fill="#FF0000"/>
<path class="atom-22" d="M 313.6 391.2 Q 315.3 391.7, 316.2 392.8 Q 317.0 393.9, 317.0 395.6 Q 317.0 397.1, 316.3 398.3 Q 315.5 399.5, 314.1 400.1 Q 312.8 400.7, 311.0 400.7 Q 309.1 400.7, 307.6 400.1 Q 306.2 399.4, 305.1 398.1 L 306.5 396.6 Q 307.6 397.8, 308.6 398.3 Q 309.5 398.7, 311.0 398.7 Q 312.6 398.7, 313.5 397.9 Q 314.5 397.0, 314.5 395.6 Q 314.5 393.8, 313.5 393.0 Q 312.5 392.2, 310.3 392.2 L 309.0 392.2 L 309.0 390.4 L 310.2 390.4 Q 312.1 390.4, 313.1 389.5 Q 314.1 388.7, 314.1 387.1 Q 314.1 386.0, 313.3 385.3 Q 312.4 384.6, 311.0 384.6 Q 309.5 384.6, 308.6 385.1 Q 307.7 385.6, 307.0 387.0 L 305.3 386.0 Q 305.9 384.6, 307.4 383.6 Q 308.9 382.6, 311.0 382.6 Q 313.6 382.6, 315.1 383.8 Q 316.6 385.0, 316.6 387.1 Q 316.6 388.5, 315.9 389.6 Q 315.1 390.6, 313.6 391.2 " fill="#FF0000"/>
<path class="atom-23" d="M 89.2 650.7 Q 89.2 646.4, 91.3 644.1 Q 93.4 641.7, 97.4 641.7 Q 101.3 641.7, 103.4 644.1 Q 105.5 646.4, 105.5 650.7 Q 105.5 655.0, 103.4 657.4 Q 101.2 659.9, 97.4 659.9 Q 93.5 659.9, 91.3 657.4 Q 89.2 655.0, 89.2 650.7 M 97.4 657.9 Q 100.1 657.9, 101.5 656.1 Q 103.0 654.2, 103.0 650.7 Q 103.0 647.2, 101.5 645.5 Q 100.1 643.7, 97.4 643.7 Q 94.7 643.7, 93.2 645.4 Q 91.7 647.2, 91.7 650.7 Q 91.7 654.3, 93.2 656.1 Q 94.7 657.9, 97.4 657.9 " fill="#FF0000"/>
<path class="atom-23" d="M 108.2 645.2 Q 108.8 643.6, 110.4 642.6 Q 111.9 641.7, 114.1 641.7 Q 116.8 641.7, 118.3 643.1 Q 119.8 644.6, 119.8 647.2 Q 119.8 649.8, 117.8 652.2 Q 115.9 654.7, 111.9 657.6 L 120.1 657.6 L 120.1 659.6 L 108.1 659.6 L 108.1 657.9 Q 111.4 655.6, 113.4 653.8 Q 115.4 652.1, 116.3 650.5 Q 117.3 648.9, 117.3 647.3 Q 117.3 645.6, 116.4 644.6 Q 115.6 643.7, 114.1 643.7 Q 112.7 643.7, 111.7 644.3 Q 110.8 644.8, 110.1 646.1 L 108.2 645.2 " fill="#FF0000"/>
<path class="atom-23" d="M 134.5 653.5 L 136.6 653.5 L 136.6 655.5 L 134.5 655.5 L 134.5 659.6 L 132.1 659.6 L 132.1 655.5 L 123.0 655.5 L 123.0 653.9 L 130.7 641.9 L 134.5 641.9 L 134.5 653.5 M 125.9 653.5 L 132.1 653.5 L 132.1 643.5 L 125.9 653.5 " fill="#FF0000"/>
<path class="atom-24" d="M 647.0 348.7 Q 647.0 344.3, 649.0 342.0 Q 651.1 339.7, 655.0 339.7 Q 658.7 339.7, 660.6 342.2 L 659.0 343.6 Q 657.6 341.7, 655.0 341.7 Q 652.4 341.7, 650.9 343.5 Q 649.5 345.3, 649.5 348.7 Q 649.5 352.2, 651.0 354.0 Q 652.5 355.8, 655.3 355.8 Q 657.3 355.8, 659.5 354.6 L 660.2 356.5 Q 659.3 357.1, 657.9 357.4 Q 656.5 357.8, 655.0 357.8 Q 651.1 357.8, 649.0 355.4 Q 647.0 353.1, 647.0 348.7 " fill="#000000"/>
<path class="atom-24" d="M 662.9 343.2 Q 663.6 341.5, 665.1 340.6 Q 666.7 339.7, 668.8 339.7 Q 671.5 339.7, 673.0 341.1 Q 674.5 342.6, 674.5 345.1 Q 674.5 347.8, 672.6 350.2 Q 670.6 352.7, 666.6 355.6 L 674.8 355.6 L 674.8 357.6 L 662.9 357.6 L 662.9 355.9 Q 666.2 353.5, 668.1 351.8 Q 670.1 350.0, 671.1 348.5 Q 672.0 346.9, 672.0 345.3 Q 672.0 343.6, 671.2 342.6 Q 670.3 341.7, 668.8 341.7 Q 667.4 341.7, 666.5 342.2 Q 665.5 342.8, 664.8 344.1 L 662.9 343.2 " fill="#000000"/>
<path class="atom-24" d="M 684.0 346.5 Q 685.5 346.5, 686.8 347.2 Q 688.1 347.8, 688.8 349.1 Q 689.5 350.3, 689.5 352.0 Q 689.5 353.8, 688.6 355.1 Q 687.8 356.4, 686.3 357.1 Q 684.9 357.8, 683.2 357.8 Q 681.6 357.8, 680.1 357.2 Q 678.6 356.6, 677.6 355.4 L 679.1 353.9 Q 679.9 354.8, 681.0 355.3 Q 682.1 355.7, 683.3 355.7 Q 684.9 355.7, 685.9 354.8 Q 687.0 353.8, 687.0 352.0 Q 687.0 350.1, 685.9 349.3 Q 684.9 348.4, 683.1 348.4 Q 681.6 348.4, 679.9 349.0 L 678.5 348.4 L 679.3 339.9 L 688.4 339.9 L 688.2 341.9 L 681.4 341.9 L 680.9 347.1 Q 682.4 346.5, 684.0 346.5 " fill="#000000"/>
<path class="atom-25" d="M 464.4 348.6 Q 464.4 344.3, 466.5 341.9 Q 468.6 339.6, 472.5 339.6 Q 476.4 339.6, 478.5 341.9 Q 480.6 344.3, 480.6 348.6 Q 480.6 352.9, 478.5 355.3 Q 476.4 357.7, 472.5 357.7 Q 468.6 357.7, 466.5 355.3 Q 464.4 352.9, 464.4 348.6 M 472.5 355.7 Q 475.2 355.7, 476.7 353.9 Q 478.1 352.1, 478.1 348.6 Q 478.1 345.1, 476.7 343.3 Q 475.2 341.6, 472.5 341.6 Q 469.8 341.6, 468.3 343.3 Q 466.9 345.1, 466.9 348.6 Q 466.9 352.1, 468.3 353.9 Q 469.8 355.7, 472.5 355.7 " fill="#FF0000"/>
<path class="atom-25" d="M 483.3 343.1 Q 483.9 341.4, 485.5 340.5 Q 487.0 339.6, 489.2 339.6 Q 491.9 339.6, 493.4 341.0 Q 494.9 342.5, 494.9 345.0 Q 494.9 347.7, 492.9 350.1 Q 491.0 352.6, 487.0 355.5 L 495.2 355.5 L 495.2 357.5 L 483.2 357.5 L 483.2 355.8 Q 486.5 353.4, 488.5 351.7 Q 490.5 349.9, 491.4 348.4 Q 492.4 346.8, 492.4 345.2 Q 492.4 343.5, 491.5 342.5 Q 490.7 341.6, 489.2 341.6 Q 487.8 341.6, 486.8 342.1 Q 485.9 342.7, 485.2 344.0 L 483.3 343.1 " fill="#FF0000"/>
<path class="atom-25" d="M 504.9 346.4 Q 506.5 346.4, 507.7 347.1 Q 508.9 347.8, 509.6 349.0 Q 510.3 350.2, 510.3 351.8 Q 510.3 353.5, 509.5 354.8 Q 508.8 356.2, 507.4 356.9 Q 506.1 357.7, 504.3 357.7 Q 501.2 357.7, 499.6 355.5 Q 498.0 353.4, 498.0 349.1 Q 498.0 344.4, 500.0 342.0 Q 501.9 339.6, 505.7 339.6 Q 506.8 339.6, 507.7 339.8 Q 508.7 340.1, 509.6 340.6 L 508.6 342.3 Q 507.3 341.6, 505.7 341.6 Q 503.2 341.6, 502.0 343.2 Q 500.7 344.8, 500.5 348.1 Q 501.4 347.3, 502.6 346.9 Q 503.7 346.4, 504.9 346.4 M 504.4 355.6 Q 505.3 355.6, 506.1 355.1 Q 506.9 354.6, 507.3 353.7 Q 507.8 352.9, 507.8 351.8 Q 507.8 350.2, 506.9 349.3 Q 506.0 348.4, 504.5 348.4 Q 503.4 348.4, 502.3 348.9 Q 501.3 349.3, 500.5 350.0 Q 500.6 353.0, 501.6 354.3 Q 502.5 355.6, 504.4 355.6 " fill="#FF0000"/>
<path class="atom-26" d="M 617.4 262.3 Q 617.4 257.9, 619.5 255.6 Q 621.6 253.3, 625.5 253.3 Q 629.1 253.3, 631.1 255.8 L 629.4 257.2 Q 628.0 255.3, 625.5 255.3 Q 622.8 255.3, 621.4 257.1 Q 620.0 258.9, 620.0 262.3 Q 620.0 265.8, 621.4 267.6 Q 622.9 269.4, 625.8 269.4 Q 627.7 269.4, 630.0 268.2 L 630.7 270.1 Q 629.8 270.7, 628.4 271.0 Q 627.0 271.4, 625.4 271.4 Q 621.6 271.4, 619.5 269.0 Q 617.4 266.7, 617.4 262.3 " fill="#000000"/>
<path class="atom-26" d="M 633.4 256.8 Q 634.0 255.1, 635.6 254.2 Q 637.1 253.3, 639.3 253.3 Q 641.9 253.3, 643.4 254.7 Q 644.9 256.2, 644.9 258.7 Q 644.9 261.4, 643.0 263.8 Q 641.1 266.3, 637.1 269.2 L 645.2 269.2 L 645.2 271.2 L 633.3 271.2 L 633.3 269.5 Q 636.6 267.1, 638.6 265.4 Q 640.5 263.6, 641.5 262.1 Q 642.4 260.5, 642.4 258.9 Q 642.4 257.2, 641.6 256.2 Q 640.7 255.3, 639.3 255.3 Q 637.8 255.3, 636.9 255.8 Q 635.9 256.4, 635.3 257.7 L 633.4 256.8 " fill="#000000"/>
<path class="atom-26" d="M 657.3 255.5 L 648.0 255.5 L 648.0 253.5 L 659.7 253.5 L 659.7 255.2 L 652.6 271.2 L 650.2 271.2 L 657.3 255.5 " fill="#000000"/>
<path class="atom-27" d="M 721.8 392.0 Q 721.8 387.6, 723.8 385.3 Q 725.9 382.9, 729.8 382.9 Q 733.5 382.9, 735.4 385.5 L 733.8 386.9 Q 732.4 385.0, 729.8 385.0 Q 727.2 385.0, 725.7 386.8 Q 724.3 388.6, 724.3 392.0 Q 724.3 395.5, 725.8 397.3 Q 727.3 399.1, 730.1 399.1 Q 732.1 399.1, 734.3 397.9 L 735.0 399.8 Q 734.1 400.4, 732.7 400.7 Q 731.3 401.1, 729.8 401.1 Q 725.9 401.1, 723.8 398.7 Q 721.8 396.4, 721.8 392.0 " fill="#000000"/>
<path class="atom-27" d="M 737.8 386.5 Q 738.4 384.8, 740.0 383.9 Q 741.5 382.9, 743.7 382.9 Q 746.3 382.9, 747.8 384.4 Q 749.3 385.8, 749.3 388.4 Q 749.3 391.0, 747.4 393.5 Q 745.5 395.9, 741.5 398.8 L 749.6 398.8 L 749.6 400.8 L 737.7 400.8 L 737.7 399.2 Q 741.0 396.8, 743.0 395.1 Q 744.9 393.3, 745.9 391.7 Q 746.8 390.2, 746.8 388.5 Q 746.8 386.8, 746.0 385.9 Q 745.1 384.9, 743.7 384.9 Q 742.2 384.9, 741.3 385.5 Q 740.3 386.1, 739.7 387.4 L 737.8 386.5 " fill="#000000"/>
<path class="atom-27" d="M 761.4 391.5 Q 763.1 392.2, 764.0 393.2 Q 764.9 394.2, 764.9 396.0 Q 764.9 397.5, 764.1 398.7 Q 763.4 399.8, 762.0 400.5 Q 760.6 401.1, 758.8 401.1 Q 755.8 401.1, 754.1 399.7 Q 752.4 398.4, 752.4 396.0 Q 752.4 394.5, 753.2 393.5 Q 753.9 392.4, 755.5 391.5 Q 754.3 390.9, 753.7 389.9 Q 753.1 389.0, 753.1 387.5 Q 753.1 385.4, 754.6 384.2 Q 756.1 382.9, 758.7 382.9 Q 761.2 382.9, 762.7 384.2 Q 764.3 385.4, 764.3 387.5 Q 764.3 388.8, 763.5 389.7 Q 762.8 390.7, 761.4 391.5 M 758.7 384.8 Q 757.2 384.8, 756.4 385.5 Q 755.6 386.2, 755.6 387.5 Q 755.6 388.4, 756.1 389.0 Q 756.7 389.6, 757.4 390.0 Q 758.2 390.3, 759.8 390.8 Q 760.8 390.1, 761.3 389.3 Q 761.8 388.5, 761.8 387.5 Q 761.8 386.2, 760.9 385.5 Q 760.1 384.8, 758.7 384.8 M 758.8 399.2 Q 760.4 399.2, 761.4 398.3 Q 762.4 397.4, 762.4 396.0 Q 762.4 395.0, 761.9 394.4 Q 761.4 393.8, 760.6 393.5 Q 759.8 393.1, 758.4 392.7 L 757.3 392.3 Q 756.0 393.0, 755.5 393.9 Q 754.9 394.8, 754.9 396.0 Q 754.9 397.4, 756.0 398.3 Q 757.0 399.2, 758.8 399.2 " fill="#000000"/>
<path class="atom-28" d="M 721.9 219.2 Q 721.9 214.8, 724.0 212.5 Q 726.0 210.1, 730.0 210.1 Q 733.6 210.1, 735.6 212.7 L 733.9 214.1 Q 732.5 212.2, 730.0 212.2 Q 727.3 212.2, 725.9 214.0 Q 724.5 215.8, 724.5 219.2 Q 724.5 222.7, 725.9 224.5 Q 727.4 226.3, 730.2 226.3 Q 732.2 226.3, 734.5 225.1 L 735.2 227.0 Q 734.2 227.6, 732.8 227.9 Q 731.4 228.3, 729.9 228.3 Q 726.0 228.3, 724.0 225.9 Q 721.9 223.6, 721.9 219.2 " fill="#000000"/>
<path class="atom-28" d="M 737.9 213.7 Q 738.5 212.0, 740.1 211.1 Q 741.6 210.1, 743.8 210.1 Q 746.4 210.1, 747.9 211.6 Q 749.4 213.0, 749.4 215.6 Q 749.4 218.2, 747.5 220.7 Q 745.6 223.1, 741.6 226.0 L 749.7 226.0 L 749.7 228.0 L 737.8 228.0 L 737.8 226.4 Q 741.1 224.0, 743.1 222.3 Q 745.0 220.5, 746.0 218.9 Q 746.9 217.4, 746.9 215.7 Q 746.9 214.0, 746.1 213.1 Q 745.2 212.1, 743.8 212.1 Q 742.3 212.1, 741.4 212.7 Q 740.4 213.3, 739.8 214.6 L 737.9 213.7 " fill="#000000"/>
<path class="atom-28" d="M 758.5 210.1 Q 761.6 210.1, 763.2 212.3 Q 764.8 214.4, 764.8 218.7 Q 764.8 223.4, 762.8 225.8 Q 760.9 228.2, 757.1 228.2 Q 756.0 228.2, 755.0 228.0 Q 754.1 227.7, 753.2 227.2 L 754.2 225.5 Q 755.5 226.2, 757.1 226.2 Q 759.6 226.2, 760.8 224.6 Q 762.1 223.0, 762.3 219.7 Q 761.4 220.5, 760.2 221.0 Q 759.1 221.4, 757.9 221.4 Q 756.3 221.4, 755.1 220.7 Q 753.9 220.0, 753.2 218.8 Q 752.5 217.6, 752.5 216.0 Q 752.5 214.3, 753.3 213.0 Q 754.0 211.6, 755.4 210.9 Q 756.7 210.1, 758.5 210.1 M 755.0 216.0 Q 755.0 217.6, 755.9 218.5 Q 756.8 219.4, 758.3 219.4 Q 759.4 219.4, 760.4 219.0 Q 761.5 218.5, 762.3 217.8 Q 762.2 214.8, 761.2 213.5 Q 760.3 212.2, 758.4 212.2 Q 757.5 212.2, 756.7 212.7 Q 755.9 213.2, 755.5 214.1 Q 755.0 214.9, 755.0 216.0 " fill="#000000"/>
<text x="1000" y="50" font-size="8" font-family="Verdana" font-weight="normal" letter-spacing="0" text-anchor="start" fill="black">Highlighted Atoms:
Primary SOM: Red
Secondary SOM: Green
Tertiary SOM: Cyan
</text></svg>
