<?xml version='1.0' encoding='ASCII' standalone='yes'?>
<svg xmlns="http://www.w3.org/2000/svg" xmlns:rdkit="http://www.rdkit.org/xml" xmlns:xlink="http://www.w3.org/1999/xlink" style="background-color: white;" version="1.1" baseProfile="full" xml:space="preserve" width="1000px" height="1000px" viewBox="0 0 1000 1000">
<!-- END OF HEADER -->
<rect style="opacity:1.0;fill:#FFFFFF;stroke:none" width="1000.0" height="1000.0" x="0.0" y="0.0"> </rect>
<ellipse cx="506.6" cy="622.0" rx="31.6" ry="31.6" class="atom-6" style="fill:#B20000;fill-rule:evenodd;stroke:#B20000;stroke-width:1.0px;stroke-linecap:butt;stroke-linejoin:miter;stroke-opacity:1"/>
<ellipse cx="507.4" cy="834.2" rx="31.6" ry="31.6" class="atom-9" style="fill:#B20000;fill-rule:evenodd;stroke:#B20000;stroke-width:1.0px;stroke-linecap:butt;stroke-linejoin:miter;stroke-opacity:1"/>
<path class="bond-0 atom-1 atom-0" d="M 602.0,208.2 L 602.4,288.9" style="fill:none;fill-rule:evenodd;stroke:#000000;stroke-width:2.0px;stroke-linecap:butt;stroke-linejoin:miter;stroke-opacity:1"/>
<path class="bond-0 atom-1 atom-0" d="M 585.3,208.3 L 585.6,289.0" style="fill:none;fill-rule:evenodd;stroke:#000000;stroke-width:2.0px;stroke-linecap:butt;stroke-linejoin:miter;stroke-opacity:1"/>
<path class="bond-1 atom-2 atom-1" d="M 527.7,153.1 L 591.5,189.4" style="fill:none;fill-rule:evenodd;stroke:#000000;stroke-width:2.0px;stroke-linecap:butt;stroke-linejoin:miter;stroke-opacity:1"/>
<path class="bond-2 atom-3 atom-2" d="M 429.3,190.4 L 492.5,153.4" style="fill:none;fill-rule:evenodd;stroke:#000000;stroke-width:2.0px;stroke-linecap:butt;stroke-linejoin:miter;stroke-opacity:1"/>
<path class="bond-2 atom-3 atom-2" d="M 437.8,204.9 L 500.9,167.9" style="fill:none;fill-rule:evenodd;stroke:#000000;stroke-width:2.0px;stroke-linecap:butt;stroke-linejoin:miter;stroke-opacity:1"/>
<path class="bond-3 atom-4 atom-3" d="M 419.6,290.2 L 418.9,209.2" style="fill:none;fill-rule:evenodd;stroke:#000000;stroke-width:2.0px;stroke-linecap:butt;stroke-linejoin:miter;stroke-opacity:1"/>
<path class="bond-4 atom-5 atom-0" d="M 529.1,344.8 L 580.7,314.3" style="fill:none;fill-rule:evenodd;stroke:#000000;stroke-width:2.0px;stroke-linecap:butt;stroke-linejoin:miter;stroke-opacity:1"/>
<path class="bond-5 atom-5 atom-4" d="M 493.5,345.1 L 429.4,308.2" style="fill:none;fill-rule:evenodd;stroke:#000000;stroke-width:2.0px;stroke-linecap:butt;stroke-linejoin:miter;stroke-opacity:1"/>
<path class="bond-5 atom-5 atom-4" d="M 501.9,330.5 L 437.7,293.7" style="fill:none;fill-rule:evenodd;stroke:#000000;stroke-width:2.0px;stroke-linecap:butt;stroke-linejoin:miter;stroke-opacity:1"/>
<path class="bond-6 atom-6 atom-5" d="M 506.8,609.2 L 511.1,368.2" style="fill:none;fill-rule:evenodd;stroke:#000000;stroke-width:2.0px;stroke-linecap:butt;stroke-linejoin:miter;stroke-opacity:1"/>
<path class="bond-7 atom-7 atom-6" d="M 587.5,668.6 L 524.1,632.0" style="fill:none;fill-rule:evenodd;stroke:#000000;stroke-width:2.0px;stroke-linecap:butt;stroke-linejoin:miter;stroke-opacity:1"/>
<path class="bond-8 atom-8 atom-7" d="M 598.6,768.2 L 598.1,687.6" style="fill:none;fill-rule:evenodd;stroke:#000000;stroke-width:2.0px;stroke-linecap:butt;stroke-linejoin:miter;stroke-opacity:1"/>
<path class="bond-8 atom-8 atom-7" d="M 581.9,768.3 L 581.3,687.7" style="fill:none;fill-rule:evenodd;stroke:#000000;stroke-width:2.0px;stroke-linecap:butt;stroke-linejoin:miter;stroke-opacity:1"/>
<path class="bond-9 atom-9 atom-8" d="M 529.0,821.4 L 558.6,804.2" style="fill:none;fill-rule:evenodd;stroke:#0000FF;stroke-width:2.0px;stroke-linecap:butt;stroke-linejoin:miter;stroke-opacity:1"/>
<path class="bond-9 atom-9 atom-8" d="M 558.6,804.2 L 588.2,787.0" style="fill:none;fill-rule:evenodd;stroke:#000000;stroke-width:2.0px;stroke-linecap:butt;stroke-linejoin:miter;stroke-opacity:1"/>
<path class="bond-10 atom-10 atom-9" d="M 424.6,786.8 L 455.1,804.2" style="fill:none;fill-rule:evenodd;stroke:#000000;stroke-width:2.0px;stroke-linecap:butt;stroke-linejoin:miter;stroke-opacity:1"/>
<path class="bond-10 atom-10 atom-9" d="M 455.1,804.2 L 485.6,821.6" style="fill:none;fill-rule:evenodd;stroke:#0000FF;stroke-width:2.0px;stroke-linecap:butt;stroke-linejoin:miter;stroke-opacity:1"/>
<path class="bond-11 atom-11 atom-6" d="M 425.0,669.8 L 489.0,632.1" style="fill:none;fill-rule:evenodd;stroke:#000000;stroke-width:2.0px;stroke-linecap:butt;stroke-linejoin:miter;stroke-opacity:1"/>
<path class="bond-12 atom-11 atom-10" d="M 415.4,688.1 L 415.5,769.1" style="fill:none;fill-rule:evenodd;stroke:#000000;stroke-width:2.0px;stroke-linecap:butt;stroke-linejoin:miter;stroke-opacity:1"/>
<path class="bond-12 atom-11 atom-10" d="M 432.2,688.1 L 432.3,769.1" style="fill:none;fill-rule:evenodd;stroke:#000000;stroke-width:2.0px;stroke-linecap:butt;stroke-linejoin:miter;stroke-opacity:1"/>
<path class="bond-13 atom-12 atom-8" d="M 679.8,826.9 L 621.3,793.7" style="fill:none;fill-rule:evenodd;stroke:#000000;stroke-width:2.0px;stroke-linecap:butt;stroke-linejoin:miter;stroke-opacity:1"/>
<path class="bond-14 atom-13 atom-10" d="M 335.1,828.6 L 393.5,794.5" style="fill:none;fill-rule:evenodd;stroke:#000000;stroke-width:2.0px;stroke-linecap:butt;stroke-linejoin:miter;stroke-opacity:1"/>
<path class="bond-15 atom-14 atom-7" d="M 655.3,637.3 L 617.3,662.1" style="fill:none;fill-rule:evenodd;stroke:#000000;stroke-width:2.0px;stroke-linecap:butt;stroke-linejoin:miter;stroke-opacity:1"/>
<path class="bond-16 atom-15 atom-14" d="M 743.6,659.8 L 714.1,644.6" style="fill:none;fill-rule:evenodd;stroke:#FF0000;stroke-width:2.0px;stroke-linecap:butt;stroke-linejoin:miter;stroke-opacity:1"/>
<path class="bond-16 atom-15 atom-14" d="M 714.1,644.6 L 684.6,629.4" style="fill:none;fill-rule:evenodd;stroke:#000000;stroke-width:2.0px;stroke-linecap:butt;stroke-linejoin:miter;stroke-opacity:1"/>
<path class="bond-17 atom-16 atom-14" d="M 672.6,532.0 L 677.2,571.5" style="fill:none;fill-rule:evenodd;stroke:#FF0000;stroke-width:2.0px;stroke-linecap:butt;stroke-linejoin:miter;stroke-opacity:1"/>
<path class="bond-17 atom-16 atom-14" d="M 677.2,571.5 L 681.8,611.0" style="fill:none;fill-rule:evenodd;stroke:#000000;stroke-width:2.0px;stroke-linecap:butt;stroke-linejoin:miter;stroke-opacity:1"/>
<path class="bond-17 atom-16 atom-14" d="M 655.9,534.0 L 660.6,573.5" style="fill:none;fill-rule:evenodd;stroke:#FF0000;stroke-width:2.0px;stroke-linecap:butt;stroke-linejoin:miter;stroke-opacity:1"/>
<path class="bond-17 atom-16 atom-14" d="M 660.6,573.5 L 665.2,613.0" style="fill:none;fill-rule:evenodd;stroke:#000000;stroke-width:2.0px;stroke-linecap:butt;stroke-linejoin:miter;stroke-opacity:1"/>
<path class="bond-18 atom-17 atom-11" d="M 334.1,628.4 L 393.6,662.8" style="fill:none;fill-rule:evenodd;stroke:#000000;stroke-width:2.0px;stroke-linecap:butt;stroke-linejoin:miter;stroke-opacity:1"/>
<path class="bond-19 atom-18 atom-17" d="M 255.0,662.0 L 278.3,648.7" style="fill:none;fill-rule:evenodd;stroke:#FF0000;stroke-width:2.0px;stroke-linecap:butt;stroke-linejoin:miter;stroke-opacity:1"/>
<path class="bond-19 atom-18 atom-17" d="M 278.3,648.7 L 301.6,635.5" style="fill:none;fill-rule:evenodd;stroke:#000000;stroke-width:2.0px;stroke-linecap:butt;stroke-linejoin:miter;stroke-opacity:1"/>
<path class="bond-20 atom-19 atom-17" d="M 333.1,530.1 L 332.8,570.1" style="fill:none;fill-rule:evenodd;stroke:#FF0000;stroke-width:2.0px;stroke-linecap:butt;stroke-linejoin:miter;stroke-opacity:1"/>
<path class="bond-20 atom-19 atom-17" d="M 332.8,570.1 L 332.6,610.0" style="fill:none;fill-rule:evenodd;stroke:#000000;stroke-width:2.0px;stroke-linecap:butt;stroke-linejoin:miter;stroke-opacity:1"/>
<path class="bond-20 atom-19 atom-17" d="M 316.3,530.0 L 316.1,570.0" style="fill:none;fill-rule:evenodd;stroke:#FF0000;stroke-width:2.0px;stroke-linecap:butt;stroke-linejoin:miter;stroke-opacity:1"/>
<path class="bond-20 atom-19 atom-17" d="M 316.1,570.0 L 315.9,609.9" style="fill:none;fill-rule:evenodd;stroke:#000000;stroke-width:2.0px;stroke-linecap:butt;stroke-linejoin:miter;stroke-opacity:1"/>
<path class="bond-21 atom-20 atom-18" d="M 151.0,626.3 L 181.1,644.2" style="fill:none;fill-rule:evenodd;stroke:#000000;stroke-width:2.0px;stroke-linecap:butt;stroke-linejoin:miter;stroke-opacity:1"/>
<path class="bond-21 atom-20 atom-18" d="M 181.1,644.2 L 211.3,662.0" style="fill:none;fill-rule:evenodd;stroke:#FF0000;stroke-width:2.0px;stroke-linecap:butt;stroke-linejoin:miter;stroke-opacity:1"/>
<path class="bond-22 atom-23 atom-15" d="M 845.9,624.4 L 817.3,642.1" style="fill:none;fill-rule:evenodd;stroke:#000000;stroke-width:2.0px;stroke-linecap:butt;stroke-linejoin:miter;stroke-opacity:1"/>
<path class="bond-22 atom-23 atom-15" d="M 817.3,642.1 L 788.6,659.8" style="fill:none;fill-rule:evenodd;stroke:#FF0000;stroke-width:2.0px;stroke-linecap:butt;stroke-linejoin:miter;stroke-opacity:1"/>
<path class="bond-23 atom-24 atom-0" d="M 697.8,348.6 L 654.6,327.2" style="fill:none;fill-rule:evenodd;stroke:#0000FF;stroke-width:2.0px;stroke-linecap:butt;stroke-linejoin:miter;stroke-opacity:1"/>
<path class="bond-23 atom-24 atom-0" d="M 654.6,327.2 L 611.5,305.9" style="fill:none;fill-rule:evenodd;stroke:#000000;stroke-width:2.0px;stroke-linecap:butt;stroke-linejoin:miter;stroke-opacity:1"/>
<path class="bond-24 atom-24 atom-21" d="M 726.9,341.1 L 755.7,321.6" style="fill:none;fill-rule:evenodd;stroke:#0000FF;stroke-width:2.0px;stroke-linecap:butt;stroke-linejoin:miter;stroke-opacity:1"/>
<path class="bond-24 atom-24 atom-21" d="M 755.7,321.6 L 784.5,302.0" style="fill:none;fill-rule:evenodd;stroke:#FF0000;stroke-width:2.0px;stroke-linecap:butt;stroke-linejoin:miter;stroke-opacity:1"/>
<path class="bond-25 atom-24 atom-22" d="M 701.5,367.4 L 706.4,407.7" style="fill:none;fill-rule:evenodd;stroke:#0000FF;stroke-width:2.0px;stroke-linecap:butt;stroke-linejoin:miter;stroke-opacity:1"/>
<path class="bond-25 atom-24 atom-22" d="M 706.4,407.7 L 711.4,448.0" style="fill:none;fill-rule:evenodd;stroke:#FF0000;stroke-width:2.0px;stroke-linecap:butt;stroke-linejoin:miter;stroke-opacity:1"/>
<path class="bond-25 atom-24 atom-22" d="M 718.1,365.3 L 723.1,405.6" style="fill:none;fill-rule:evenodd;stroke:#0000FF;stroke-width:2.0px;stroke-linecap:butt;stroke-linejoin:miter;stroke-opacity:1"/>
<path class="bond-25 atom-24 atom-22" d="M 723.1,405.6 L 728.1,445.9" style="fill:none;fill-rule:evenodd;stroke:#FF0000;stroke-width:2.0px;stroke-linecap:butt;stroke-linejoin:miter;stroke-opacity:1"/>
<path class="atom-0" d="M 581.3 301.5 Q 581.3 297.1, 583.3 294.8 Q 585.4 292.5, 589.3 292.5 Q 593.0 292.5, 594.9 295.1 L 593.3 296.4 Q 591.8 294.5, 589.3 294.5 Q 586.6 294.5, 585.2 296.3 Q 583.8 298.1, 583.8 301.5 Q 583.8 305.0, 585.3 306.8 Q 586.7 308.6, 589.6 308.6 Q 591.5 308.6, 593.8 307.4 L 594.5 309.3 Q 593.6 309.9, 592.2 310.3 Q 590.8 310.6, 589.2 310.6 Q 585.4 310.6, 583.3 308.3 Q 581.3 305.9, 581.3 301.5 " fill="#000000"/>
<path class="atom-0" d="M 598.1 308.4 L 602.0 308.4 L 602.0 295.2 L 597.7 296.5 L 597.1 295.0 L 602.5 292.6 L 604.3 292.9 L 604.3 308.4 L 607.8 308.4 L 607.8 310.4 L 598.1 310.4 L 598.1 308.4 " fill="#000000"/>
<path class="atom-1" d="M 595.2 195.4 Q 595.2 191.0, 597.2 188.7 Q 599.3 186.4, 603.2 186.4 Q 606.9 186.4, 608.8 189.0 L 607.2 190.3 Q 605.7 188.5, 603.2 188.5 Q 600.5 188.5, 599.1 190.3 Q 597.7 192.0, 597.7 195.4 Q 597.7 198.9, 599.2 200.7 Q 600.6 202.5, 603.5 202.5 Q 605.4 202.5, 607.7 201.4 L 608.4 203.2 Q 607.5 203.8, 606.1 204.2 Q 604.7 204.5, 603.1 204.5 Q 599.3 204.5, 597.2 202.2 Q 595.2 199.8, 595.2 195.4 " fill="#000000"/>
<path class="atom-1" d="M 611.1 190.0 Q 611.8 188.3, 613.3 187.4 Q 614.9 186.4, 617.0 186.4 Q 619.7 186.4, 621.2 187.9 Q 622.7 189.3, 622.7 191.9 Q 622.7 194.5, 620.8 197.0 Q 618.8 199.4, 614.8 202.3 L 623.0 202.3 L 623.0 204.3 L 611.1 204.3 L 611.1 202.6 Q 614.4 200.3, 616.3 198.5 Q 618.3 196.8, 619.3 195.2 Q 620.2 193.6, 620.2 192.0 Q 620.2 190.3, 619.4 189.4 Q 618.5 188.4, 617.0 188.4 Q 615.6 188.4, 614.7 189.0 Q 613.7 189.6, 613.0 190.8 L 611.1 190.0 " fill="#000000"/>
<path class="atom-2" d="M 496.2 143.2 Q 496.2 138.8, 498.2 136.5 Q 500.3 134.2, 504.2 134.2 Q 507.9 134.2, 509.8 136.8 L 508.2 138.1 Q 506.7 136.2, 504.2 136.2 Q 501.5 136.2, 500.1 138.0 Q 498.7 139.8, 498.7 143.2 Q 498.7 146.7, 500.2 148.5 Q 501.6 150.3, 504.5 150.3 Q 506.4 150.3, 508.7 149.1 L 509.4 151.0 Q 508.5 151.6, 507.1 152.0 Q 505.7 152.3, 504.1 152.3 Q 500.3 152.3, 498.2 150.0 Q 496.2 147.6, 496.2 143.2 " fill="#000000"/>
<path class="atom-2" d="M 520.6 142.8 Q 522.3 143.3, 523.1 144.4 Q 524.0 145.5, 524.0 147.2 Q 524.0 148.7, 523.2 149.9 Q 522.5 151.1, 521.1 151.7 Q 519.7 152.3, 517.9 152.3 Q 516.0 152.3, 514.6 151.7 Q 513.2 151.0, 512.1 149.7 L 513.5 148.2 Q 514.6 149.4, 515.5 149.9 Q 516.5 150.3, 517.9 150.3 Q 519.5 150.3, 520.5 149.5 Q 521.5 148.6, 521.5 147.2 Q 521.5 145.4, 520.5 144.6 Q 519.5 143.8, 517.3 143.8 L 516.0 143.8 L 516.0 142.0 L 517.1 142.0 Q 519.1 142.0, 520.1 141.1 Q 521.1 140.3, 521.1 138.7 Q 521.1 137.6, 520.3 136.9 Q 519.4 136.2, 518.0 136.2 Q 516.5 136.2, 515.6 136.7 Q 514.7 137.2, 514.0 138.6 L 512.2 137.6 Q 512.9 136.2, 514.4 135.2 Q 515.9 134.2, 518.0 134.2 Q 520.6 134.2, 522.1 135.4 Q 523.6 136.6, 523.6 138.7 Q 523.6 140.1, 522.8 141.2 Q 522.1 142.2, 520.6 142.8 " fill="#000000"/>
<path class="atom-3" d="M 396.0 196.6 Q 396.0 192.2, 398.1 189.9 Q 400.1 187.6, 404.1 187.6 Q 407.7 187.6, 409.7 190.2 L 408.0 191.5 Q 406.6 189.6, 404.1 189.6 Q 401.4 189.6, 400.0 191.4 Q 398.6 193.2, 398.6 196.6 Q 398.6 200.1, 400.0 201.9 Q 401.5 203.7, 404.3 203.7 Q 406.3 203.7, 408.6 202.5 L 409.3 204.4 Q 408.3 205.0, 406.9 205.4 Q 405.5 205.7, 404.0 205.7 Q 400.1 205.7, 398.1 203.4 Q 396.0 201.0, 396.0 196.6 " fill="#000000"/>
<path class="atom-3" d="M 423.5 199.4 L 425.6 199.4 L 425.6 201.4 L 423.5 201.4 L 423.5 205.5 L 421.2 205.5 L 421.2 201.4 L 412.0 201.4 L 412.0 199.8 L 419.8 187.8 L 423.5 187.8 L 423.5 199.4 M 414.9 199.4 L 421.2 199.4 L 421.2 189.4 L 414.9 199.4 " fill="#000000"/>
<path class="atom-4" d="M 397.8 302.7 Q 397.8 298.3, 399.8 296.0 Q 401.9 293.7, 405.8 293.7 Q 409.5 293.7, 411.4 296.2 L 409.8 297.6 Q 408.4 295.7, 405.8 295.7 Q 403.2 295.7, 401.7 297.5 Q 400.3 299.3, 400.3 302.7 Q 400.3 306.2, 401.8 308.0 Q 403.3 309.8, 406.1 309.8 Q 408.1 309.8, 410.3 308.6 L 411.0 310.5 Q 410.1 311.1, 408.7 311.4 Q 407.3 311.8, 405.8 311.8 Q 401.9 311.8, 399.8 309.4 Q 397.8 307.1, 397.8 302.7 " fill="#000000"/>
<path class="atom-4" d="M 420.2 300.5 Q 421.7 300.5, 423.0 301.2 Q 424.3 301.8, 425.0 303.1 Q 425.7 304.3, 425.7 306.0 Q 425.7 307.8, 424.8 309.1 Q 423.9 310.4, 422.5 311.1 Q 421.0 311.8, 419.4 311.8 Q 417.8 311.8, 416.3 311.2 Q 414.8 310.6, 413.7 309.4 L 415.2 307.9 Q 416.1 308.8, 417.2 309.3 Q 418.3 309.7, 419.5 309.7 Q 421.0 309.7, 422.1 308.8 Q 423.2 307.8, 423.2 306.0 Q 423.2 304.1, 422.1 303.3 Q 421.0 302.4, 419.3 302.4 Q 417.8 302.4, 416.0 303.0 L 414.7 302.4 L 415.5 293.9 L 424.6 293.9 L 424.4 295.9 L 417.6 295.9 L 417.0 301.1 Q 418.6 300.5, 420.2 300.5 " fill="#000000"/>
<path class="atom-5" d="M 497.2 355.4 Q 497.2 351.0, 499.3 348.7 Q 501.4 346.4, 505.3 346.4 Q 508.9 346.4, 510.9 348.9 L 509.2 350.3 Q 507.8 348.4, 505.3 348.4 Q 502.6 348.4, 501.2 350.2 Q 499.8 352.0, 499.8 355.4 Q 499.8 358.9, 501.2 360.7 Q 502.7 362.5, 505.6 362.5 Q 507.5 362.5, 509.8 361.3 L 510.5 363.2 Q 509.6 363.8, 508.2 364.1 Q 506.8 364.5, 505.2 364.5 Q 501.4 364.5, 499.3 362.1 Q 497.2 359.8, 497.2 355.4 " fill="#000000"/>
<path class="atom-5" d="M 520.1 353.2 Q 521.6 353.2, 522.9 353.9 Q 524.1 354.6, 524.8 355.8 Q 525.4 357.0, 525.4 358.6 Q 525.4 360.3, 524.7 361.6 Q 523.9 363.0, 522.6 363.7 Q 521.2 364.5, 519.5 364.5 Q 516.3 364.5, 514.7 362.3 Q 513.2 360.2, 513.2 355.9 Q 513.2 351.2, 515.1 348.8 Q 517.1 346.4, 520.9 346.4 Q 522.0 346.4, 522.9 346.6 Q 523.8 346.9, 524.7 347.4 L 523.8 349.1 Q 522.5 348.4, 520.9 348.4 Q 518.4 348.4, 517.1 350.0 Q 515.8 351.6, 515.7 354.9 Q 516.6 354.1, 517.7 353.7 Q 518.9 353.2, 520.1 353.2 M 519.5 362.4 Q 520.5 362.4, 521.2 361.9 Q 522.0 361.4, 522.5 360.5 Q 522.9 359.7, 522.9 358.6 Q 522.9 357.0, 522.1 356.1 Q 521.2 355.2, 519.6 355.2 Q 518.6 355.2, 517.5 355.7 Q 516.4 356.1, 515.7 356.8 Q 515.8 359.8, 516.7 361.1 Q 517.6 362.4, 519.5 362.4 " fill="#000000"/>
<path class="atom-6" d="M 492.7 621.9 Q 492.7 617.5, 494.8 615.2 Q 496.8 612.9, 500.8 612.9 Q 504.4 612.9, 506.4 615.5 L 504.7 616.8 Q 503.3 614.9, 500.8 614.9 Q 498.1 614.9, 496.7 616.7 Q 495.3 618.5, 495.3 621.9 Q 495.3 625.4, 496.7 627.2 Q 498.2 629.0, 501.0 629.0 Q 503.0 629.0, 505.3 627.8 L 506.0 629.7 Q 505.0 630.3, 503.6 630.7 Q 502.2 631.0, 500.7 631.0 Q 496.8 631.0, 494.8 628.7 Q 492.7 626.3, 492.7 621.9 " fill="#000000"/>
<path class="atom-6" d="M 517.9 615.1 L 508.6 615.1 L 508.6 613.1 L 520.4 613.1 L 520.4 614.9 L 513.2 630.8 L 510.8 630.8 L 517.9 615.1 " fill="#000000"/>
<path class="atom-7" d="M 591.2 674.8 Q 591.2 670.4, 593.2 668.1 Q 595.3 665.8, 599.2 665.8 Q 602.9 665.8, 604.8 668.3 L 603.2 669.7 Q 601.7 667.8, 599.2 667.8 Q 596.5 667.8, 595.1 669.6 Q 593.7 671.4, 593.7 674.8 Q 593.7 678.3, 595.2 680.1 Q 596.6 681.9, 599.5 681.9 Q 601.4 681.9, 603.7 680.7 L 604.4 682.6 Q 603.5 683.2, 602.1 683.5 Q 600.7 683.9, 599.1 683.9 Q 595.3 683.9, 593.2 681.5 Q 591.2 679.2, 591.2 674.8 " fill="#000000"/>
<path class="atom-7" d="M 616.1 674.3 Q 617.8 675.0, 618.7 676.0 Q 619.6 677.1, 619.6 678.8 Q 619.6 680.3, 618.8 681.5 Q 618.1 682.6, 616.7 683.3 Q 615.3 683.9, 613.5 683.9 Q 610.5 683.9, 608.8 682.6 Q 607.1 681.2, 607.1 678.8 Q 607.1 677.4, 607.9 676.3 Q 608.6 675.2, 610.2 674.4 Q 609.0 673.7, 608.4 672.8 Q 607.8 671.8, 607.8 670.3 Q 607.8 668.2, 609.3 667.0 Q 610.8 665.8, 613.4 665.8 Q 615.9 665.8, 617.4 667.0 Q 619.0 668.2, 619.0 670.3 Q 619.0 671.6, 618.2 672.6 Q 617.5 673.5, 616.1 674.3 M 613.4 667.6 Q 611.9 667.6, 611.1 668.3 Q 610.3 669.0, 610.3 670.3 Q 610.3 671.2, 610.8 671.8 Q 611.4 672.4, 612.1 672.8 Q 612.9 673.1, 614.5 673.7 Q 615.5 672.9, 616.0 672.1 Q 616.5 671.3, 616.5 670.3 Q 616.5 669.0, 615.6 668.3 Q 614.8 667.6, 613.4 667.6 M 613.5 682.0 Q 615.1 682.0, 616.1 681.2 Q 617.1 680.3, 617.1 678.8 Q 617.1 677.8, 616.6 677.2 Q 616.1 676.6, 615.3 676.3 Q 614.5 675.9, 613.1 675.5 L 612.0 675.1 Q 610.7 675.9, 610.2 676.8 Q 609.6 677.6, 609.6 678.8 Q 609.6 680.3, 610.7 681.2 Q 611.7 682.0, 613.5 682.0 " fill="#000000"/>
<path class="atom-8" d="M 591.9 780.9 Q 591.9 776.5, 593.9 774.2 Q 596.0 771.9, 599.9 771.9 Q 603.6 771.9, 605.5 774.5 L 603.9 775.8 Q 602.5 773.9, 599.9 773.9 Q 597.3 773.9, 595.8 775.7 Q 594.4 777.5, 594.4 780.9 Q 594.4 784.4, 595.9 786.2 Q 597.4 788.0, 600.2 788.0 Q 602.2 788.0, 604.4 786.8 L 605.1 788.7 Q 604.2 789.3, 602.8 789.7 Q 601.4 790.0, 599.9 790.0 Q 596.0 790.0, 593.9 787.7 Q 591.9 785.3, 591.9 780.9 " fill="#000000"/>
<path class="atom-8" d="M 613.8 771.9 Q 616.9 771.9, 618.5 774.0 Q 620.1 776.2, 620.1 780.4 Q 620.1 785.1, 618.1 787.6 Q 616.2 790.0, 612.4 790.0 Q 611.3 790.0, 610.3 789.7 Q 609.4 789.5, 608.5 789.0 L 609.5 787.3 Q 610.8 788.0, 612.4 788.0 Q 614.9 788.0, 616.1 786.4 Q 617.4 784.8, 617.6 781.4 Q 616.7 782.3, 615.5 782.7 Q 614.4 783.1, 613.2 783.1 Q 611.6 783.1, 610.4 782.5 Q 609.2 781.8, 608.5 780.6 Q 607.8 779.3, 607.8 777.8 Q 607.8 776.1, 608.6 774.7 Q 609.3 773.4, 610.7 772.6 Q 612.0 771.9, 613.8 771.9 M 610.3 777.8 Q 610.3 779.3, 611.2 780.2 Q 612.1 781.1, 613.6 781.1 Q 614.7 781.1, 615.7 780.7 Q 616.8 780.3, 617.6 779.5 Q 617.5 776.6, 616.5 775.3 Q 615.6 773.9, 613.7 773.9 Q 612.8 773.9, 612.0 774.4 Q 611.2 774.9, 610.8 775.8 Q 610.3 776.7, 610.3 777.8 " fill="#000000"/>
<path class="atom-9" d="M 488.8 825.3 L 494.6 834.7 Q 495.2 835.6, 496.1 837.3 Q 497.1 839.0, 497.1 839.1 L 497.1 825.3 L 499.5 825.3 L 499.5 843.0 L 497.0 843.0 L 490.8 832.8 Q 490.1 831.6, 489.3 830.2 Q 488.6 828.8, 488.3 828.4 L 488.3 843.0 L 486.0 843.0 L 486.0 825.3 L 488.8 825.3 " fill="#0000FF"/>
<path class="atom-9" d="M 503.7 841.0 L 507.6 841.0 L 507.6 827.8 L 503.3 829.1 L 502.8 827.7 L 508.2 825.2 L 510.0 825.5 L 510.0 841.0 L 513.4 841.0 L 513.4 843.0 L 503.7 843.0 L 503.7 841.0 " fill="#0000FF"/>
<path class="atom-9" d="M 522.2 843.2 Q 518.9 843.2, 517.3 840.8 Q 515.7 838.4, 515.7 834.2 Q 515.7 829.9, 517.3 827.5 Q 518.9 825.1, 522.2 825.1 Q 525.5 825.1, 527.1 827.5 Q 528.7 829.9, 528.7 834.2 Q 528.7 838.4, 527.0 840.8 Q 525.4 843.2, 522.2 843.2 M 522.2 841.2 Q 524.1 841.2, 525.1 839.5 Q 526.2 837.7, 526.2 834.2 Q 526.2 830.7, 525.1 828.9 Q 524.1 827.1, 522.2 827.1 Q 520.3 827.1, 519.2 828.9 Q 518.2 830.7, 518.2 834.2 Q 518.2 837.7, 519.2 839.5 Q 520.3 841.2, 522.2 841.2 " fill="#0000FF"/>
<path class="atom-10" d="M 381.5 781.7 Q 381.5 777.3, 383.6 775.0 Q 385.6 772.7, 389.6 772.7 Q 393.2 772.7, 395.2 775.3 L 393.5 776.6 Q 392.1 774.7, 389.6 774.7 Q 386.9 774.7, 385.5 776.5 Q 384.1 778.3, 384.1 781.7 Q 384.1 785.2, 385.5 787.0 Q 387.0 788.8, 389.8 788.8 Q 391.8 788.8, 394.1 787.6 L 394.8 789.5 Q 393.8 790.1, 392.4 790.5 Q 391.0 790.8, 389.5 790.8 Q 385.6 790.8, 383.6 788.5 Q 381.5 786.1, 381.5 781.7 " fill="#000000"/>
<path class="atom-10" d="M 398.3 788.6 L 402.2 788.6 L 402.2 775.4 L 397.9 776.7 L 397.3 775.2 L 402.8 772.8 L 404.5 773.1 L 404.5 788.6 L 408.0 788.6 L 408.0 790.6 L 398.3 790.6 L 398.3 788.6 " fill="#000000"/>
<path class="atom-10" d="M 411.2 788.6 L 415.1 788.6 L 415.1 775.4 L 410.8 776.7 L 410.2 775.2 L 415.6 772.8 L 417.4 773.1 L 417.4 788.6 L 420.9 788.6 L 420.9 790.6 L 411.2 790.6 L 411.2 788.6 " fill="#000000"/>
<path class="atom-11" d="M 380.6 675.5 Q 380.6 671.1, 382.7 668.8 Q 384.8 666.5, 388.7 666.5 Q 392.3 666.5, 394.3 669.1 L 392.6 670.4 Q 391.2 668.6, 388.7 668.6 Q 386.0 668.6, 384.6 670.4 Q 383.2 672.1, 383.2 675.5 Q 383.2 679.0, 384.6 680.8 Q 386.1 682.6, 389.0 682.6 Q 390.9 682.6, 393.2 681.5 L 393.9 683.3 Q 393.0 683.9, 391.6 684.3 Q 390.2 684.6, 388.6 684.6 Q 384.8 684.6, 382.7 682.3 Q 380.6 679.9, 380.6 675.5 " fill="#000000"/>
<path class="atom-11" d="M 397.5 682.4 L 401.3 682.4 L 401.3 669.2 L 397.1 670.5 L 396.5 669.0 L 401.9 666.6 L 403.7 666.9 L 403.7 682.4 L 407.2 682.4 L 407.2 684.4 L 397.5 684.4 L 397.5 682.4 " fill="#000000"/>
<path class="atom-11" d="M 409.5 670.1 Q 410.1 668.4, 411.7 667.5 Q 413.2 666.5, 415.4 666.5 Q 418.1 666.5, 419.6 668.0 Q 421.1 669.4, 421.1 672.0 Q 421.1 674.6, 419.1 677.1 Q 417.2 679.5, 413.2 682.4 L 421.4 682.4 L 421.4 684.4 L 409.4 684.4 L 409.4 682.7 Q 412.7 680.4, 414.7 678.6 Q 416.7 676.9, 417.6 675.3 Q 418.6 673.7, 418.6 672.1 Q 418.6 670.4, 417.7 669.5 Q 416.9 668.5, 415.4 668.5 Q 414.0 668.5, 413.0 669.1 Q 412.1 669.7, 411.4 670.9 L 409.5 670.1 " fill="#000000"/>
<path class="atom-12" d="M 683.5 833.0 Q 683.5 828.6, 685.5 826.3 Q 687.6 823.9, 691.5 823.9 Q 695.2 823.9, 697.1 826.5 L 695.5 827.9 Q 694.0 826.0, 691.5 826.0 Q 688.8 826.0, 687.4 827.8 Q 686.0 829.6, 686.0 833.0 Q 686.0 836.5, 687.5 838.3 Q 688.9 840.1, 691.8 840.1 Q 693.7 840.1, 696.0 838.9 L 696.7 840.8 Q 695.8 841.4, 694.4 841.7 Q 693.0 842.1, 691.4 842.1 Q 687.6 842.1, 685.5 839.7 Q 683.5 837.4, 683.5 833.0 " fill="#000000"/>
<path class="atom-12" d="M 700.3 839.8 L 704.2 839.8 L 704.2 826.6 L 699.9 827.9 L 699.3 826.5 L 704.7 824.0 L 706.5 824.3 L 706.5 839.8 L 710.0 839.8 L 710.0 841.8 L 700.3 841.8 L 700.3 839.8 " fill="#000000"/>
<path class="atom-12" d="M 720.7 832.5 Q 722.5 833.0, 723.3 834.1 Q 724.1 835.2, 724.1 837.0 Q 724.1 838.5, 723.4 839.7 Q 722.6 840.8, 721.3 841.5 Q 719.9 842.1, 718.1 842.1 Q 716.2 842.1, 714.8 841.4 Q 713.4 840.8, 712.2 839.4 L 713.7 838.0 Q 714.8 839.2, 715.7 839.6 Q 716.6 840.1, 718.1 840.1 Q 719.7 840.1, 720.7 839.2 Q 721.6 838.4, 721.6 837.0 Q 721.6 835.2, 720.6 834.4 Q 719.6 833.5, 717.4 833.5 L 716.2 833.5 L 716.2 831.7 L 717.3 831.7 Q 719.2 831.7, 720.2 830.9 Q 721.3 830.0, 721.3 828.5 Q 721.3 827.3, 720.4 826.6 Q 719.6 825.9, 718.1 825.9 Q 716.6 825.9, 715.7 826.5 Q 714.8 827.0, 714.1 828.3 L 712.4 827.4 Q 713.0 825.9, 714.5 824.9 Q 716.0 823.9, 718.1 823.9 Q 720.7 823.9, 722.2 825.2 Q 723.8 826.4, 723.8 828.5 Q 723.8 829.9, 723.0 830.9 Q 722.2 831.9, 720.7 832.5 " fill="#000000"/>
<path class="atom-13" d="M 288.9 834.8 Q 288.9 830.4, 290.9 828.1 Q 293.0 825.7, 296.9 825.7 Q 300.6 825.7, 302.5 828.3 L 300.9 829.7 Q 299.4 827.8, 296.9 827.8 Q 294.2 827.8, 292.8 829.6 Q 291.4 831.4, 291.4 834.8 Q 291.4 838.3, 292.9 840.1 Q 294.3 841.9, 297.2 841.9 Q 299.1 841.9, 301.4 840.7 L 302.1 842.6 Q 301.2 843.2, 299.8 843.5 Q 298.4 843.9, 296.8 843.9 Q 293.0 843.9, 290.9 841.5 Q 288.9 839.2, 288.9 834.8 " fill="#000000"/>
<path class="atom-13" d="M 305.7 841.6 L 309.6 841.6 L 309.6 828.4 L 305.3 829.7 L 304.8 828.3 L 310.2 825.8 L 312.0 826.1 L 312.0 841.6 L 315.4 841.6 L 315.4 843.6 L 305.7 843.6 L 305.7 841.6 " fill="#000000"/>
<path class="atom-13" d="M 329.3 837.6 L 331.4 837.6 L 331.4 839.6 L 329.3 839.6 L 329.3 843.6 L 326.9 843.6 L 326.9 839.6 L 317.8 839.6 L 317.8 838.0 L 325.5 825.9 L 329.3 825.9 L 329.3 837.6 M 320.7 837.6 L 326.9 837.6 L 326.9 827.5 L 320.7 837.6 " fill="#000000"/>
<path class="atom-14" d="M 640.2 624.5 Q 640.2 620.1, 642.2 617.8 Q 644.3 615.5, 648.2 615.5 Q 651.9 615.5, 653.8 618.1 L 652.2 619.4 Q 650.7 617.5, 648.2 617.5 Q 645.5 617.5, 644.1 619.3 Q 642.7 621.1, 642.7 624.5 Q 642.7 628.0, 644.2 629.8 Q 645.6 631.6, 648.5 631.6 Q 650.4 631.6, 652.7 630.4 L 653.4 632.3 Q 652.5 632.9, 651.1 633.3 Q 649.7 633.6, 648.1 633.6 Q 644.3 633.6, 642.2 631.3 Q 640.2 628.9, 640.2 624.5 " fill="#000000"/>
<path class="atom-14" d="M 657.0 631.4 L 660.9 631.4 L 660.9 618.2 L 656.6 619.5 L 656.0 618.0 L 661.5 615.6 L 663.2 615.9 L 663.2 631.4 L 666.7 631.4 L 666.7 633.4 L 657.0 633.4 L 657.0 631.4 " fill="#000000"/>
<path class="atom-14" d="M 675.4 622.3 Q 676.9 622.3, 678.2 623.0 Q 679.5 623.6, 680.2 624.9 Q 680.9 626.1, 680.9 627.8 Q 680.9 629.6, 680.0 630.9 Q 679.2 632.2, 677.7 632.9 Q 676.3 633.6, 674.6 633.6 Q 673.0 633.6, 671.5 633.0 Q 670.0 632.4, 669.0 631.2 L 670.5 629.7 Q 671.3 630.6, 672.4 631.1 Q 673.5 631.6, 674.7 631.6 Q 676.3 631.6, 677.3 630.6 Q 678.4 629.6, 678.4 627.8 Q 678.4 626.0, 677.3 625.1 Q 676.3 624.2, 674.5 624.2 Q 673.0 624.2, 671.3 624.9 L 669.9 624.2 L 670.7 615.7 L 679.8 615.7 L 679.6 617.7 L 672.8 617.7 L 672.3 622.9 Q 673.8 622.3, 675.4 622.3 " fill="#000000"/>
<path class="atom-15" d="M 746.1 672.5 Q 746.1 668.2, 748.2 665.9 Q 750.3 663.5, 754.2 663.5 Q 758.2 663.5, 760.3 665.9 Q 762.4 668.2, 762.4 672.5 Q 762.4 676.8, 760.2 679.2 Q 758.1 681.7, 754.2 681.7 Q 750.3 681.7, 748.2 679.2 Q 746.1 676.8, 746.1 672.5 M 754.2 679.7 Q 756.9 679.7, 758.4 677.9 Q 759.9 676.0, 759.9 672.5 Q 759.9 669.0, 758.4 667.3 Q 756.9 665.5, 754.2 665.5 Q 751.5 665.5, 750.1 667.2 Q 748.6 669.0, 748.6 672.5 Q 748.6 676.1, 750.1 677.9 Q 751.5 679.7, 754.2 679.7 " fill="#FF0000"/>
<path class="atom-15" d="M 765.9 679.4 L 769.8 679.4 L 769.8 666.2 L 765.5 667.5 L 764.9 666.0 L 770.3 663.6 L 772.1 663.9 L 772.1 679.4 L 775.6 679.4 L 775.6 681.4 L 765.9 681.4 L 765.9 679.4 " fill="#FF0000"/>
<path class="atom-15" d="M 784.9 670.3 Q 786.4 670.3, 787.6 671.0 Q 788.9 671.7, 789.5 672.9 Q 790.2 674.1, 790.2 675.7 Q 790.2 677.4, 789.4 678.8 Q 788.7 680.1, 787.3 680.8 Q 786.0 681.6, 784.3 681.6 Q 781.1 681.6, 779.5 679.5 Q 777.9 677.3, 777.9 673.1 Q 777.9 668.4, 779.9 665.9 Q 781.9 663.5, 785.6 663.5 Q 786.7 663.5, 787.7 663.7 Q 788.6 664.0, 789.5 664.5 L 788.5 666.2 Q 787.2 665.5, 785.7 665.5 Q 783.2 665.5, 781.9 667.1 Q 780.6 668.7, 780.5 672.0 Q 781.4 671.2, 782.5 670.8 Q 783.6 670.3, 784.9 670.3 M 784.3 679.5 Q 785.2 679.5, 786.0 679.0 Q 786.8 678.5, 787.3 677.7 Q 787.7 676.8, 787.7 675.7 Q 787.7 674.1, 786.8 673.2 Q 786.0 672.3, 784.4 672.3 Q 783.3 672.3, 782.3 672.8 Q 781.2 673.2, 780.5 674.0 Q 780.6 676.9, 781.5 678.2 Q 782.4 679.5, 784.3 679.5 " fill="#FF0000"/>
<path class="atom-16" d="M 654.6 520.1 Q 654.6 515.9, 656.7 513.5 Q 658.8 511.1, 662.7 511.1 Q 666.7 511.1, 668.8 513.5 Q 670.9 515.9, 670.9 520.1 Q 670.9 524.4, 668.7 526.9 Q 666.6 529.3, 662.7 529.3 Q 658.8 529.3, 656.7 526.9 Q 654.6 524.5, 654.6 520.1 M 662.7 527.3 Q 665.4 527.3, 666.9 525.5 Q 668.4 523.7, 668.4 520.1 Q 668.4 516.7, 666.9 514.9 Q 665.4 513.1, 662.7 513.1 Q 660.0 513.1, 658.6 514.9 Q 657.1 516.6, 657.1 520.1 Q 657.1 523.7, 658.6 525.5 Q 660.0 527.3, 662.7 527.3 " fill="#FF0000"/>
<path class="atom-16" d="M 674.4 527.0 L 678.3 527.0 L 678.3 513.8 L 674.0 515.1 L 673.4 513.7 L 678.8 511.2 L 680.6 511.5 L 680.6 527.0 L 684.1 527.0 L 684.1 529.0 L 674.4 529.0 L 674.4 527.0 " fill="#FF0000"/>
<path class="atom-16" d="M 695.7 513.3 L 686.4 513.3 L 686.4 511.3 L 698.2 511.3 L 698.2 513.1 L 691.0 529.0 L 688.6 529.0 L 695.7 513.3 " fill="#FF0000"/>
<path class="atom-17" d="M 289.1 622.7 Q 289.1 618.3, 291.2 616.0 Q 293.2 613.6, 297.2 613.6 Q 300.8 613.6, 302.8 616.2 L 301.1 617.6 Q 299.7 615.7, 297.2 615.7 Q 294.5 615.7, 293.1 617.5 Q 291.7 619.3, 291.7 622.7 Q 291.7 626.2, 293.1 628.0 Q 294.6 629.8, 297.4 629.8 Q 299.4 629.8, 301.7 628.6 L 302.4 630.5 Q 301.4 631.1, 300.0 631.4 Q 298.6 631.8, 297.1 631.8 Q 293.2 631.8, 291.2 629.4 Q 289.1 627.1, 289.1 622.7 " fill="#000000"/>
<path class="atom-17" d="M 306.0 629.5 L 309.8 629.5 L 309.8 616.3 L 305.6 617.6 L 305.0 616.2 L 310.4 613.7 L 312.2 614.0 L 312.2 629.5 L 315.7 629.5 L 315.7 631.5 L 306.0 631.5 L 306.0 629.5 " fill="#000000"/>
<path class="atom-17" d="M 327.0 622.2 Q 328.6 622.9, 329.5 623.9 Q 330.4 624.9, 330.4 626.7 Q 330.4 628.2, 329.7 629.4 Q 328.9 630.5, 327.5 631.2 Q 326.1 631.8, 324.3 631.8 Q 321.3 631.8, 319.6 630.4 Q 317.9 629.1, 317.9 626.7 Q 317.9 625.2, 318.7 624.2 Q 319.4 623.1, 321.0 622.2 Q 319.8 621.6, 319.2 620.6 Q 318.6 619.7, 318.6 618.2 Q 318.6 616.1, 320.1 614.9 Q 321.6 613.6, 324.2 613.6 Q 326.8 613.6, 328.3 614.9 Q 329.8 616.1, 329.8 618.2 Q 329.8 619.5, 329.1 620.4 Q 328.4 621.4, 327.0 622.2 M 324.2 615.5 Q 322.7 615.5, 321.9 616.2 Q 321.1 616.9, 321.1 618.2 Q 321.1 619.1, 321.6 619.7 Q 322.2 620.3, 323.0 620.7 Q 323.8 621.0, 325.3 621.5 Q 326.4 620.8, 326.8 620.0 Q 327.3 619.2, 327.3 618.2 Q 327.3 616.9, 326.5 616.2 Q 325.7 615.5, 324.2 615.5 M 324.3 629.9 Q 325.9 629.9, 326.9 629.0 Q 327.9 628.1, 327.9 626.7 Q 327.9 625.7, 327.4 625.1 Q 326.9 624.5, 326.1 624.2 Q 325.3 623.8, 323.9 623.4 L 322.8 623.0 Q 321.5 623.7, 321.0 624.6 Q 320.4 625.5, 320.4 626.7 Q 320.4 628.1, 321.5 629.0 Q 322.5 629.9, 324.3 629.9 " fill="#000000"/>
<path class="atom-18" d="M 210.7 674.7 Q 210.7 670.4, 212.8 668.0 Q 214.9 665.7, 218.8 665.7 Q 222.7 665.7, 224.8 668.0 Q 226.9 670.4, 226.9 674.7 Q 226.9 679.0, 224.8 681.4 Q 222.7 683.8, 218.8 683.8 Q 214.9 683.8, 212.8 681.4 Q 210.7 679.0, 210.7 674.7 M 218.8 681.8 Q 221.5 681.8, 223.0 680.0 Q 224.4 678.2, 224.4 674.7 Q 224.4 671.2, 223.0 669.4 Q 221.5 667.7, 218.8 667.7 Q 216.1 667.7, 214.6 669.4 Q 213.2 671.2, 213.2 674.7 Q 213.2 678.2, 214.6 680.0 Q 216.1 681.8, 218.8 681.8 " fill="#FF0000"/>
<path class="atom-18" d="M 230.5 681.6 L 234.3 681.6 L 234.3 668.3 L 230.1 669.7 L 229.5 668.2 L 234.9 665.8 L 236.7 666.1 L 236.7 681.6 L 240.2 681.6 L 240.2 683.6 L 230.5 683.6 L 230.5 681.6 " fill="#FF0000"/>
<path class="atom-18" d="M 248.5 665.7 Q 251.6 665.7, 253.2 667.8 Q 254.8 669.9, 254.8 674.2 Q 254.8 678.9, 252.8 681.3 Q 250.9 683.8, 247.1 683.8 Q 246.0 683.8, 245.0 683.5 Q 244.1 683.3, 243.2 682.7 L 244.2 681.1 Q 245.5 681.8, 247.1 681.8 Q 249.6 681.8, 250.8 680.2 Q 252.1 678.5, 252.3 675.2 Q 251.4 676.0, 250.2 676.5 Q 249.1 676.9, 247.9 676.9 Q 246.3 676.9, 245.1 676.2 Q 243.9 675.6, 243.2 674.3 Q 242.5 673.1, 242.5 671.6 Q 242.5 669.8, 243.3 668.5 Q 244.0 667.2, 245.4 666.4 Q 246.7 665.7, 248.5 665.7 M 245.0 671.5 Q 245.0 673.1, 245.9 674.0 Q 246.8 674.9, 248.3 674.9 Q 249.4 674.9, 250.4 674.5 Q 251.5 674.0, 252.3 673.3 Q 252.2 670.4, 251.2 669.0 Q 250.3 667.7, 248.4 667.7 Q 247.5 667.7, 246.7 668.2 Q 245.9 668.7, 245.5 669.6 Q 245.0 670.5, 245.0 671.5 " fill="#FF0000"/>
<path class="atom-19" d="M 316.6 517.2 Q 316.6 513.0, 318.7 510.6 Q 320.8 508.2, 324.7 508.2 Q 328.7 508.2, 330.8 510.6 Q 332.9 513.0, 332.9 517.2 Q 332.9 521.5, 330.7 524.0 Q 328.6 526.4, 324.7 526.4 Q 320.8 526.4, 318.7 524.0 Q 316.6 521.5, 316.6 517.2 M 324.7 524.4 Q 327.4 524.4, 328.9 522.6 Q 330.4 520.8, 330.4 517.2 Q 330.4 513.7, 328.9 512.0 Q 327.4 510.2, 324.7 510.2 Q 322.0 510.2, 320.6 512.0 Q 319.1 513.7, 319.1 517.2 Q 319.1 520.8, 320.6 522.6 Q 322.0 524.4, 324.7 524.4 " fill="#FF0000"/>
<path class="atom-19" d="M 335.5 511.8 Q 336.2 510.1, 337.7 509.2 Q 339.3 508.2, 341.4 508.2 Q 344.1 508.2, 345.6 509.7 Q 347.1 511.1, 347.1 513.7 Q 347.1 516.3, 345.2 518.8 Q 343.2 521.2, 339.2 524.1 L 347.4 524.1 L 347.4 526.1 L 335.5 526.1 L 335.5 524.4 Q 338.8 522.1, 340.7 520.3 Q 342.7 518.6, 343.7 517.0 Q 344.6 515.4, 344.6 513.8 Q 344.6 512.1, 343.8 511.2 Q 342.9 510.2, 341.4 510.2 Q 340.0 510.2, 339.1 510.8 Q 338.1 511.4, 337.4 512.6 L 335.5 511.8 " fill="#FF0000"/>
<path class="atom-19" d="M 356.8 526.3 Q 353.5 526.3, 351.9 523.9 Q 350.3 521.5, 350.3 517.2 Q 350.3 513.0, 351.9 510.6 Q 353.5 508.2, 356.8 508.2 Q 360.0 508.2, 361.6 510.6 Q 363.2 513.0, 363.2 517.2 Q 363.2 521.5, 361.6 523.9 Q 360.0 526.3, 356.8 526.3 M 356.8 524.3 Q 358.7 524.3, 359.7 522.5 Q 360.7 520.7, 360.7 517.2 Q 360.7 513.8, 359.7 512.0 Q 358.7 510.2, 356.8 510.2 Q 354.9 510.2, 353.8 512.0 Q 352.8 513.8, 352.8 517.2 Q 352.8 520.7, 353.8 522.5 Q 354.9 524.3, 356.8 524.3 " fill="#FF0000"/>
<path class="atom-20" d="M 106.1 621.1 Q 106.1 616.7, 108.2 614.4 Q 110.2 612.1, 114.2 612.1 Q 117.8 612.1, 119.8 614.6 L 118.1 616.0 Q 116.7 614.1, 114.2 614.1 Q 111.5 614.1, 110.1 615.9 Q 108.7 617.7, 108.7 621.1 Q 108.7 624.6, 110.1 626.4 Q 111.6 628.2, 114.4 628.2 Q 116.4 628.2, 118.7 627.0 L 119.4 628.9 Q 118.4 629.5, 117.0 629.8 Q 115.6 630.2, 114.1 630.2 Q 110.2 630.2, 108.2 627.8 Q 106.1 625.5, 106.1 621.1 " fill="#000000"/>
<path class="atom-20" d="M 122.0 615.6 Q 122.7 613.9, 124.2 613.0 Q 125.8 612.1, 127.9 612.1 Q 130.6 612.1, 132.1 613.5 Q 133.6 615.0, 133.6 617.5 Q 133.6 620.2, 131.6 622.6 Q 129.7 625.1, 125.7 628.0 L 133.9 628.0 L 133.9 630.0 L 122.0 630.0 L 122.0 628.3 Q 125.3 625.9, 127.2 624.2 Q 129.2 622.4, 130.1 620.9 Q 131.1 619.3, 131.1 617.7 Q 131.1 616.0, 130.2 615.0 Q 129.4 614.1, 127.9 614.1 Q 126.5 614.1, 125.5 614.6 Q 124.6 615.2, 123.9 616.5 L 122.0 615.6 " fill="#000000"/>
<path class="atom-20" d="M 137.6 628.0 L 141.4 628.0 L 141.4 614.7 L 137.2 616.1 L 136.6 614.6 L 142.0 612.2 L 143.8 612.5 L 143.8 628.0 L 147.3 628.0 L 147.3 630.0 L 137.6 630.0 L 137.6 628.0 " fill="#000000"/>
<path class="atom-21" d="M 788.2 294.1 Q 788.2 289.8, 790.3 287.4 Q 792.4 285.1, 796.3 285.1 Q 800.2 285.1, 802.3 287.4 Q 804.4 289.8, 804.4 294.1 Q 804.4 298.4, 802.3 300.8 Q 800.2 303.2, 796.3 303.2 Q 792.4 303.2, 790.3 300.8 Q 788.2 298.4, 788.2 294.1 M 796.3 301.2 Q 799.0 301.2, 800.4 299.4 Q 801.9 297.6, 801.9 294.1 Q 801.9 290.6, 800.4 288.8 Q 799.0 287.1, 796.3 287.1 Q 793.6 287.1, 792.1 288.8 Q 790.7 290.6, 790.7 294.1 Q 790.7 297.6, 792.1 299.4 Q 793.6 301.2, 796.3 301.2 " fill="#FF0000"/>
<path class="atom-21" d="M 807.0 288.6 Q 807.7 286.9, 809.2 286.0 Q 810.8 285.1, 812.9 285.1 Q 815.6 285.1, 817.1 286.5 Q 818.6 288.0, 818.6 290.5 Q 818.6 293.2, 816.7 295.6 Q 814.7 298.1, 810.7 301.0 L 818.9 301.0 L 818.9 303.0 L 807.0 303.0 L 807.0 301.3 Q 810.3 298.9, 812.2 297.2 Q 814.2 295.4, 815.2 293.9 Q 816.1 292.3, 816.1 290.7 Q 816.1 289.0, 815.3 288.0 Q 814.4 287.1, 812.9 287.1 Q 811.5 287.1, 810.6 287.6 Q 809.6 288.2, 808.9 289.5 L 807.0 288.6 " fill="#FF0000"/>
<path class="atom-21" d="M 821.8 288.6 Q 822.5 286.9, 824.0 286.0 Q 825.6 285.1, 827.7 285.1 Q 830.4 285.1, 831.9 286.5 Q 833.4 288.0, 833.4 290.5 Q 833.4 293.2, 831.4 295.6 Q 829.5 298.1, 825.5 301.0 L 833.7 301.0 L 833.7 303.0 L 821.8 303.0 L 821.8 301.3 Q 825.1 298.9, 827.0 297.2 Q 829.0 295.4, 829.9 293.9 Q 830.9 292.3, 830.9 290.7 Q 830.9 289.0, 830.0 288.0 Q 829.2 287.1, 827.7 287.1 Q 826.3 287.1, 825.3 287.6 Q 824.4 288.2, 823.7 289.5 L 821.8 288.6 " fill="#FF0000"/>
<path class="atom-22" d="M 713.2 459.7 Q 713.2 455.4, 715.3 453.0 Q 717.4 450.7, 721.3 450.7 Q 725.2 450.7, 727.3 453.0 Q 729.4 455.4, 729.4 459.7 Q 729.4 464.0, 727.3 466.4 Q 725.2 468.8, 721.3 468.8 Q 717.4 468.8, 715.3 466.4 Q 713.2 464.0, 713.2 459.7 M 721.3 466.8 Q 724.0 466.8, 725.5 465.0 Q 726.9 463.2, 726.9 459.7 Q 726.9 456.2, 725.5 454.4 Q 724.0 452.7, 721.3 452.7 Q 718.6 452.7, 717.1 454.4 Q 715.7 456.2, 715.7 459.7 Q 715.7 463.2, 717.1 465.0 Q 718.6 466.8, 721.3 466.8 " fill="#FF0000"/>
<path class="atom-22" d="M 732.1 454.2 Q 732.7 452.5, 734.3 451.6 Q 735.8 450.7, 738.0 450.7 Q 740.6 450.7, 742.1 452.1 Q 743.6 453.6, 743.6 456.1 Q 743.6 458.8, 741.7 461.2 Q 739.8 463.7, 735.8 466.6 L 743.9 466.6 L 743.9 468.6 L 732.0 468.6 L 732.0 466.9 Q 735.3 464.5, 737.3 462.8 Q 739.2 461.0, 740.2 459.5 Q 741.1 457.9, 741.1 456.3 Q 741.1 454.6, 740.3 453.6 Q 739.4 452.7, 738.0 452.7 Q 736.5 452.7, 735.6 453.2 Q 734.6 453.8, 734.0 455.1 L 732.1 454.2 " fill="#FF0000"/>
<path class="atom-22" d="M 755.3 459.2 Q 757.0 459.7, 757.8 460.9 Q 758.7 462.0, 758.7 463.7 Q 758.7 465.2, 757.9 466.4 Q 757.2 467.5, 755.8 468.2 Q 754.4 468.8, 752.6 468.8 Q 750.7 468.8, 749.3 468.2 Q 747.9 467.5, 746.8 466.1 L 748.2 464.7 Q 749.3 465.9, 750.2 466.4 Q 751.1 466.8, 752.6 466.8 Q 754.2 466.8, 755.2 466.0 Q 756.2 465.1, 756.2 463.7 Q 756.2 461.9, 755.1 461.1 Q 754.1 460.3, 752.0 460.3 L 750.7 460.3 L 750.7 458.5 L 751.8 458.5 Q 753.7 458.4, 754.8 457.6 Q 755.8 456.8, 755.8 455.2 Q 755.8 454.0, 754.9 453.4 Q 754.1 452.7, 752.6 452.7 Q 751.2 452.7, 750.2 453.2 Q 749.3 453.7, 748.6 455.0 L 746.9 454.1 Q 747.5 452.6, 749.0 451.7 Q 750.5 450.7, 752.6 450.7 Q 755.2 450.7, 756.8 451.9 Q 758.3 453.1, 758.3 455.2 Q 758.3 456.6, 757.5 457.6 Q 756.7 458.7, 755.3 459.2 " fill="#FF0000"/>
<path class="atom-23" d="M 849.6 618.0 Q 849.6 613.6, 851.6 611.3 Q 853.7 609.0, 857.6 609.0 Q 861.3 609.0, 863.2 611.6 L 861.6 612.9 Q 860.2 611.1, 857.6 611.1 Q 855.0 611.1, 853.5 612.9 Q 852.1 614.6, 852.1 618.0 Q 852.1 621.5, 853.6 623.3 Q 855.1 625.1, 857.9 625.1 Q 859.9 625.1, 862.1 624.0 L 862.8 625.8 Q 861.9 626.4, 860.5 626.8 Q 859.1 627.1, 857.6 627.1 Q 853.7 627.1, 851.6 624.8 Q 849.6 622.4, 849.6 618.0 " fill="#000000"/>
<path class="atom-23" d="M 865.6 612.6 Q 866.2 610.9, 867.8 610.0 Q 869.3 609.0, 871.5 609.0 Q 874.2 609.0, 875.7 610.5 Q 877.2 611.9, 877.2 614.5 Q 877.2 617.1, 875.2 619.6 Q 873.3 622.0, 869.3 624.9 L 877.5 624.9 L 877.5 626.9 L 865.5 626.9 L 865.5 625.2 Q 868.8 622.9, 870.8 621.1 Q 872.8 619.4, 873.7 617.8 Q 874.7 616.2, 874.7 614.6 Q 874.7 612.9, 873.8 612.0 Q 873.0 611.0, 871.5 611.0 Q 870.1 611.0, 869.1 611.6 Q 868.2 612.2, 867.5 613.4 L 865.6 612.6 " fill="#000000"/>
<path class="atom-23" d="M 891.8 620.8 L 893.9 620.8 L 893.9 622.8 L 891.8 622.8 L 891.8 626.9 L 889.4 626.9 L 889.4 622.8 L 880.3 622.8 L 880.3 621.3 L 888.0 609.2 L 891.8 609.2 L 891.8 620.8 M 883.2 620.8 L 889.4 620.8 L 889.4 610.8 L 883.2 620.8 " fill="#000000"/>
<path class="atom-24" d="M 704.3 345.0 L 710.1 354.3 Q 710.7 355.3, 711.6 356.9 Q 712.5 358.6, 712.6 358.7 L 712.6 345.0 L 714.9 345.0 L 714.9 362.7 L 712.5 362.7 L 706.3 352.4 Q 705.5 351.2, 704.8 349.8 Q 704.0 348.5, 703.8 348.0 L 703.8 362.7 L 701.5 362.7 L 701.5 345.0 L 704.3 345.0 " fill="#0000FF"/>
<path class="atom-24" d="M 718.3 348.3 Q 718.9 346.6, 720.5 345.7 Q 722.0 344.8, 724.2 344.8 Q 726.9 344.8, 728.4 346.2 Q 729.9 347.7, 729.9 350.2 Q 729.9 352.9, 727.9 355.3 Q 726.0 357.8, 722.0 360.7 L 730.2 360.7 L 730.2 362.7 L 718.2 362.7 L 718.2 361.0 Q 721.5 358.6, 723.5 356.9 Q 725.5 355.1, 726.4 353.6 Q 727.4 352.0, 727.4 350.4 Q 727.4 348.7, 726.5 347.7 Q 725.7 346.8, 724.2 346.8 Q 722.8 346.8, 721.8 347.3 Q 720.9 347.9, 720.2 349.2 L 718.3 348.3 " fill="#0000FF"/>
<path class="atom-24" d="M 739.3 351.6 Q 740.9 351.6, 742.2 352.3 Q 743.4 352.9, 744.2 354.2 Q 744.9 355.4, 744.9 357.1 Q 744.9 358.9, 744.0 360.2 Q 743.1 361.5, 741.7 362.2 Q 740.2 362.9, 738.6 362.9 Q 736.9 362.9, 735.4 362.3 Q 733.9 361.7, 732.9 360.5 L 734.4 359.0 Q 735.2 359.9, 736.4 360.4 Q 737.5 360.8, 738.6 360.8 Q 740.2 360.8, 741.3 359.9 Q 742.4 358.9, 742.4 357.1 Q 742.4 355.2, 741.3 354.4 Q 740.2 353.5, 738.5 353.5 Q 736.9 353.5, 735.2 354.1 L 733.8 353.5 L 734.7 345.0 L 743.8 345.0 L 743.5 347.0 L 736.7 347.0 L 736.2 352.2 Q 737.8 351.6, 739.3 351.6 " fill="#0000FF"/>
<text x="1000" y="50" font-size="8" font-family="Verdana" font-weight="normal" letter-spacing="0" text-anchor="start" fill="black">Highlighted Atoms:
Primary SOM: Red
Secondary SOM: Green
Tertiary SOM: Cyan
</text></svg>
