<?xml version='1.0' encoding='ASCII' standalone='yes'?>
<svg xmlns="http://www.w3.org/2000/svg" xmlns:rdkit="http://www.rdkit.org/xml" xmlns:xlink="http://www.w3.org/1999/xlink" style="background-color: white;" version="1.1" baseProfile="full" xml:space="preserve" width="1000px" height="1000px" viewBox="0 0 1000 1000">
<!-- END OF HEADER -->
<rect style="opacity:1.0;fill:#FFFFFF;stroke:none" width="1000.0" height="1000.0" x="0.0" y="0.0"> </rect>
<ellipse cx="230.3" cy="625.0" rx="30.0" ry="21.4" class="atom-22" style="fill:#B20000;fill-rule:evenodd;stroke:#B20000;stroke-width:1.0px;stroke-linecap:butt;stroke-linejoin:miter;stroke-opacity:1"/>
<path class="bond-0 atom-1 atom-0" d="M 731.5,406.1 L 769.2,384.4" style="fill:none;fill-rule:evenodd;stroke:#000000;stroke-width:2.0px;stroke-linecap:butt;stroke-linejoin:miter;stroke-opacity:1"/>
<path class="bond-1 atom-2 atom-0" d="M 784.8,315.7 L 784.8,364.0" style="fill:none;fill-rule:evenodd;stroke:#000000;stroke-width:2.0px;stroke-linecap:butt;stroke-linejoin:miter;stroke-opacity:1"/>
<path class="bond-1 atom-2 atom-0" d="M 795.5,315.7 L 795.5,364.0" style="fill:none;fill-rule:evenodd;stroke:#000000;stroke-width:2.0px;stroke-linecap:butt;stroke-linejoin:miter;stroke-opacity:1"/>
<path class="bond-2 atom-3 atom-2" d="M 829.2,278.4 L 793.1,299.3" style="fill:none;fill-rule:evenodd;stroke:#000000;stroke-width:2.0px;stroke-linecap:butt;stroke-linejoin:miter;stroke-opacity:1"/>
<path class="bond-3 atom-4 atom-3" d="M 898.9,298.8 L 863.5,278.4" style="fill:none;fill-rule:evenodd;stroke:#000000;stroke-width:2.0px;stroke-linecap:butt;stroke-linejoin:miter;stroke-opacity:1"/>
<path class="bond-3 atom-4 atom-3" d="M 893.5,308.0 L 858.2,287.7" style="fill:none;fill-rule:evenodd;stroke:#000000;stroke-width:2.0px;stroke-linecap:butt;stroke-linejoin:miter;stroke-opacity:1"/>
<path class="bond-4 atom-5 atom-4" d="M 908.1,363.9 L 908.0,315.6" style="fill:none;fill-rule:evenodd;stroke:#000000;stroke-width:2.0px;stroke-linecap:butt;stroke-linejoin:miter;stroke-opacity:1"/>
<path class="bond-5 atom-6 atom-0" d="M 830.3,401.5 L 800.4,384.3" style="fill:none;fill-rule:evenodd;stroke:#000000;stroke-width:2.0px;stroke-linecap:butt;stroke-linejoin:miter;stroke-opacity:1"/>
<path class="bond-6 atom-6 atom-5" d="M 862.7,401.5 L 898.9,380.5" style="fill:none;fill-rule:evenodd;stroke:#000000;stroke-width:2.0px;stroke-linecap:butt;stroke-linejoin:miter;stroke-opacity:1"/>
<path class="bond-6 atom-6 atom-5" d="M 857.3,392.2 L 893.6,371.3" style="fill:none;fill-rule:evenodd;stroke:#000000;stroke-width:2.0px;stroke-linecap:butt;stroke-linejoin:miter;stroke-opacity:1"/>
<path class="bond-7 atom-7 atom-1" d="M 723.3,470.8 L 723.2,422.2" style="fill:none;fill-rule:evenodd;stroke:#000000;stroke-width:2.0px;stroke-linecap:butt;stroke-linejoin:miter;stroke-opacity:1"/>
<path class="bond-8 atom-8 atom-7" d="M 678.1,508.2 L 714.1,487.4" style="fill:none;fill-rule:evenodd;stroke:#000000;stroke-width:2.0px;stroke-linecap:butt;stroke-linejoin:miter;stroke-opacity:1"/>
<path class="bond-9 atom-9 atom-8" d="M 661.7,577.7 L 661.7,529.3" style="fill:none;fill-rule:evenodd;stroke:#000000;stroke-width:2.0px;stroke-linecap:butt;stroke-linejoin:miter;stroke-opacity:1"/>
<path class="bond-10 atom-10 atom-9" d="M 714.2,619.2 L 681.7,600.4" style="fill:none;fill-rule:evenodd;stroke:#000000;stroke-width:2.0px;stroke-linecap:butt;stroke-linejoin:miter;stroke-opacity:1"/>
<path class="bond-10 atom-10 atom-9" d="M 708.9,628.4 L 676.4,609.7" style="fill:none;fill-rule:evenodd;stroke:#000000;stroke-width:2.0px;stroke-linecap:butt;stroke-linejoin:miter;stroke-opacity:1"/>
<path class="bond-11 atom-11 atom-10" d="M 723.4,684.3 L 723.4,636.0" style="fill:none;fill-rule:evenodd;stroke:#000000;stroke-width:2.0px;stroke-linecap:butt;stroke-linejoin:miter;stroke-opacity:1"/>
<path class="bond-12 atom-12 atom-11" d="M 681.4,719.9 L 714.3,700.9" style="fill:none;fill-rule:evenodd;stroke:#000000;stroke-width:2.0px;stroke-linecap:butt;stroke-linejoin:miter;stroke-opacity:1"/>
<path class="bond-12 atom-12 atom-11" d="M 676.0,710.7 L 708.9,691.7" style="fill:none;fill-rule:evenodd;stroke:#000000;stroke-width:2.0px;stroke-linecap:butt;stroke-linejoin:miter;stroke-opacity:1"/>
<path class="bond-13 atom-13 atom-12" d="M 609.3,701.0 L 642.2,719.9" style="fill:none;fill-rule:evenodd;stroke:#000000;stroke-width:2.0px;stroke-linecap:butt;stroke-linejoin:miter;stroke-opacity:1"/>
<path class="bond-14 atom-14 atom-9" d="M 619.3,613.4 L 641.8,600.4" style="fill:none;fill-rule:evenodd;stroke:#000000;stroke-width:2.0px;stroke-linecap:butt;stroke-linejoin:miter;stroke-opacity:1"/>
<path class="bond-15 atom-14 atom-13" d="M 600.1,635.8 L 600.2,684.6" style="fill:none;fill-rule:evenodd;stroke:#000000;stroke-width:2.0px;stroke-linecap:butt;stroke-linejoin:miter;stroke-opacity:1"/>
<path class="bond-15 atom-14 atom-13" d="M 610.8,635.8 L 610.9,684.6" style="fill:none;fill-rule:evenodd;stroke:#000000;stroke-width:2.0px;stroke-linecap:butt;stroke-linejoin:miter;stroke-opacity:1"/>
<path class="bond-16 atom-15 atom-14" d="M 558.4,600.5 L 569.5,606.9" style="fill:none;fill-rule:evenodd;stroke:#FF0000;stroke-width:2.0px;stroke-linecap:butt;stroke-linejoin:miter;stroke-opacity:1"/>
<path class="bond-16 atom-15 atom-14" d="M 569.5,606.9 L 580.5,613.2" style="fill:none;fill-rule:evenodd;stroke:#000000;stroke-width:2.0px;stroke-linecap:butt;stroke-linejoin:miter;stroke-opacity:1"/>
<path class="bond-17 atom-16 atom-8" d="M 610.9,482.3 L 629.4,493.0" style="fill:none;fill-rule:evenodd;stroke:#FF0000;stroke-width:2.0px;stroke-linecap:butt;stroke-linejoin:miter;stroke-opacity:1"/>
<path class="bond-17 atom-16 atom-8" d="M 629.4,493.0 L 647.9,503.6" style="fill:none;fill-rule:evenodd;stroke:#000000;stroke-width:2.0px;stroke-linecap:butt;stroke-linejoin:miter;stroke-opacity:1"/>
<path class="bond-17 atom-16 atom-8" d="M 605.6,491.6 L 624.1,502.2" style="fill:none;fill-rule:evenodd;stroke:#FF0000;stroke-width:2.0px;stroke-linecap:butt;stroke-linejoin:miter;stroke-opacity:1"/>
<path class="bond-17 atom-16 atom-8" d="M 624.1,502.2 L 642.6,512.9" style="fill:none;fill-rule:evenodd;stroke:#000000;stroke-width:2.0px;stroke-linecap:butt;stroke-linejoin:miter;stroke-opacity:1"/>
<path class="bond-18 atom-17 atom-15" d="M 496.4,613.3 L 507.4,607.0" style="fill:none;fill-rule:evenodd;stroke:#000000;stroke-width:2.0px;stroke-linecap:butt;stroke-linejoin:miter;stroke-opacity:1"/>
<path class="bond-18 atom-17 atom-15" d="M 507.4,607.0 L 518.5,600.6" style="fill:none;fill-rule:evenodd;stroke:#FF0000;stroke-width:2.0px;stroke-linecap:butt;stroke-linejoin:miter;stroke-opacity:1"/>
<path class="bond-19 atom-18 atom-17" d="M 435.2,600.6 L 457.3,613.3" style="fill:none;fill-rule:evenodd;stroke:#000000;stroke-width:2.0px;stroke-linecap:butt;stroke-linejoin:miter;stroke-opacity:1"/>
<path class="bond-20 atom-19 atom-18" d="M 373.1,613.4 L 395.3,600.6" style="fill:none;fill-rule:evenodd;stroke:#000000;stroke-width:2.0px;stroke-linecap:butt;stroke-linejoin:miter;stroke-opacity:1"/>
<path class="bond-21 atom-20 atom-19" d="M 311.6,600.5 L 322.8,607.0" style="fill:none;fill-rule:evenodd;stroke:#0000FF;stroke-width:2.0px;stroke-linecap:butt;stroke-linejoin:miter;stroke-opacity:1"/>
<path class="bond-21 atom-20 atom-19" d="M 322.8,607.0 L 334.0,613.4" style="fill:none;fill-rule:evenodd;stroke:#000000;stroke-width:2.0px;stroke-linecap:butt;stroke-linejoin:miter;stroke-opacity:1"/>
<path class="bond-22 atom-21 atom-18" d="M 415.2,529.5 L 415.2,553.7" style="fill:none;fill-rule:evenodd;stroke:#FF0000;stroke-width:2.0px;stroke-linecap:butt;stroke-linejoin:miter;stroke-opacity:1"/>
<path class="bond-22 atom-21 atom-18" d="M 415.2,553.7 L 415.2,577.9" style="fill:none;fill-rule:evenodd;stroke:#000000;stroke-width:2.0px;stroke-linecap:butt;stroke-linejoin:miter;stroke-opacity:1"/>
<path class="bond-23 atom-22 atom-20" d="M 249.9,613.5 L 261.1,607.0" style="fill:none;fill-rule:evenodd;stroke:#000000;stroke-width:2.0px;stroke-linecap:butt;stroke-linejoin:miter;stroke-opacity:1"/>
<path class="bond-23 atom-22 atom-20" d="M 261.1,607.0 L 272.4,600.5" style="fill:none;fill-rule:evenodd;stroke:#0000FF;stroke-width:2.0px;stroke-linecap:butt;stroke-linejoin:miter;stroke-opacity:1"/>
<path class="bond-24 atom-23 atom-22" d="M 188.3,600.6 L 210.7,613.5" style="fill:none;fill-rule:evenodd;stroke:#000000;stroke-width:2.0px;stroke-linecap:butt;stroke-linejoin:miter;stroke-opacity:1"/>
<path class="bond-25 atom-24 atom-23" d="M 115.4,620.1 L 148.8,600.8" style="fill:none;fill-rule:evenodd;stroke:#000000;stroke-width:2.0px;stroke-linecap:butt;stroke-linejoin:miter;stroke-opacity:1"/>
<path class="atom-0" d="M 771.6 375.4 Q 771.6 371.0, 773.6 368.7 Q 775.7 366.4, 779.6 366.4 Q 783.3 366.4, 785.2 368.9 L 783.6 370.3 Q 782.1 368.4, 779.6 368.4 Q 776.9 368.4, 775.5 370.2 Q 774.1 372.0, 774.1 375.4 Q 774.1 378.9, 775.6 380.7 Q 777.0 382.5, 779.9 382.5 Q 781.8 382.5, 784.1 381.3 L 784.8 383.2 Q 783.9 383.8, 782.5 384.1 Q 781.1 384.5, 779.5 384.5 Q 775.7 384.5, 773.6 382.1 Q 771.6 379.8, 771.6 375.4 " fill="#000000"/>
<path class="atom-0" d="M 788.4 382.3 L 792.3 382.3 L 792.3 369.0 L 788.0 370.4 L 787.4 368.9 L 792.8 366.5 L 794.6 366.8 L 794.6 382.3 L 798.1 382.3 L 798.1 384.3 L 788.4 384.3 L 788.4 382.3 " fill="#000000"/>
<path class="atom-1" d="M 701.3 411.0 Q 701.3 406.6, 703.4 404.3 Q 705.5 402.0, 709.4 402.0 Q 713.0 402.0, 715.0 404.6 L 713.3 405.9 Q 711.9 404.0, 709.4 404.0 Q 706.7 404.0, 705.3 405.8 Q 703.9 407.6, 703.9 411.0 Q 703.9 414.5, 705.3 416.3 Q 706.8 418.1, 709.7 418.1 Q 711.6 418.1, 713.9 416.9 L 714.6 418.8 Q 713.7 419.4, 712.3 419.8 Q 710.9 420.1, 709.3 420.1 Q 705.5 420.1, 703.4 417.8 Q 701.3 415.4, 701.3 411.0 " fill="#000000"/>
<path class="atom-1" d="M 717.3 405.5 Q 718.0 403.9, 719.5 402.9 Q 721.1 402.0, 723.2 402.0 Q 725.9 402.0, 727.4 403.4 Q 728.9 404.9, 728.9 407.5 Q 728.9 410.1, 726.9 412.5 Q 725.0 415.0, 721.0 417.9 L 729.2 417.9 L 729.2 419.9 L 717.3 419.9 L 717.3 418.2 Q 720.6 415.9, 722.5 414.1 Q 724.5 412.4, 725.4 410.8 Q 726.4 409.2, 726.4 407.6 Q 726.4 405.9, 725.5 404.9 Q 724.7 404.0, 723.2 404.0 Q 721.8 404.0, 720.8 404.6 Q 719.9 405.1, 719.2 406.4 L 717.3 405.5 " fill="#000000"/>
<path class="atom-2" d="M 762.9 304.2 Q 762.9 299.8, 764.9 297.5 Q 767.0 295.2, 770.9 295.2 Q 774.6 295.2, 776.5 297.8 L 774.9 299.1 Q 773.5 297.2, 770.9 297.2 Q 768.3 297.2, 766.8 299.0 Q 765.4 300.8, 765.4 304.2 Q 765.4 307.7, 766.9 309.5 Q 768.4 311.3, 771.2 311.3 Q 773.2 311.3, 775.4 310.1 L 776.1 312.0 Q 775.2 312.6, 773.8 313.0 Q 772.4 313.3, 770.9 313.3 Q 767.0 313.3, 764.9 311.0 Q 762.9 308.6, 762.9 304.2 " fill="#000000"/>
<path class="atom-2" d="M 787.3 303.8 Q 789.0 304.3, 789.9 305.4 Q 790.7 306.5, 790.7 308.2 Q 790.7 309.7, 790.0 310.9 Q 789.2 312.1, 787.8 312.7 Q 786.5 313.3, 784.7 313.3 Q 782.8 313.3, 781.3 312.7 Q 779.9 312.0, 778.8 310.7 L 780.2 309.2 Q 781.3 310.4, 782.3 310.9 Q 783.2 311.3, 784.7 311.3 Q 786.3 311.3, 787.2 310.5 Q 788.2 309.6, 788.2 308.2 Q 788.2 306.4, 787.2 305.6 Q 786.2 304.8, 784.0 304.8 L 782.7 304.8 L 782.7 303.0 L 783.9 303.0 Q 785.8 303.0, 786.8 302.1 Q 787.8 301.3, 787.8 299.7 Q 787.8 298.6, 787.0 297.9 Q 786.1 297.2, 784.7 297.2 Q 783.2 297.2, 782.3 297.7 Q 781.4 298.2, 780.7 299.6 L 779.0 298.6 Q 779.6 297.2, 781.1 296.2 Q 782.6 295.2, 784.7 295.2 Q 787.3 295.2, 788.8 296.4 Q 790.3 297.6, 790.3 299.7 Q 790.3 301.1, 789.6 302.2 Q 788.8 303.2, 787.3 303.8 " fill="#000000"/>
<path class="atom-3" d="M 831.5 268.6 Q 831.5 264.2, 833.6 261.9 Q 835.7 259.6, 839.6 259.6 Q 843.2 259.6, 845.2 262.1 L 843.5 263.5 Q 842.1 261.6, 839.6 261.6 Q 836.9 261.6, 835.5 263.4 Q 834.1 265.2, 834.1 268.6 Q 834.1 272.1, 835.5 273.9 Q 837.0 275.7, 839.9 275.7 Q 841.8 275.7, 844.1 274.5 L 844.8 276.4 Q 843.9 277.0, 842.5 277.3 Q 841.1 277.7, 839.5 277.7 Q 835.7 277.7, 833.6 275.3 Q 831.5 273.0, 831.5 268.6 " fill="#000000"/>
<path class="atom-3" d="M 859.1 271.4 L 861.2 271.4 L 861.2 273.4 L 859.1 273.4 L 859.1 277.5 L 856.7 277.5 L 856.7 273.4 L 847.6 273.4 L 847.6 271.8 L 855.3 259.8 L 859.1 259.8 L 859.1 271.4 M 850.5 271.4 L 856.7 271.4 L 856.7 261.4 L 850.5 271.4 " fill="#000000"/>
<path class="atom-4" d="M 901.2 304.1 Q 901.2 299.7, 903.3 297.4 Q 905.3 295.1, 909.3 295.1 Q 912.9 295.1, 914.9 297.7 L 913.2 299.0 Q 911.8 297.1, 909.3 297.1 Q 906.6 297.1, 905.2 298.9 Q 903.8 300.7, 903.8 304.1 Q 903.8 307.6, 905.2 309.4 Q 906.7 311.2, 909.5 311.2 Q 911.5 311.2, 913.8 310.0 L 914.5 311.9 Q 913.5 312.5, 912.1 312.9 Q 910.7 313.2, 909.2 313.2 Q 905.3 313.2, 903.3 310.9 Q 901.2 308.5, 901.2 304.1 " fill="#000000"/>
<path class="atom-4" d="M 923.6 301.9 Q 925.1 301.9, 926.4 302.6 Q 927.7 303.2, 928.4 304.5 Q 929.1 305.7, 929.1 307.4 Q 929.1 309.2, 928.2 310.5 Q 927.3 311.8, 925.9 312.5 Q 924.4 313.2, 922.8 313.2 Q 921.2 313.2, 919.7 312.6 Q 918.2 312.0, 917.1 310.8 L 918.6 309.3 Q 919.5 310.2, 920.6 310.7 Q 921.7 311.2, 922.9 311.2 Q 924.4 311.2, 925.5 310.2 Q 926.6 309.2, 926.6 307.4 Q 926.6 305.6, 925.5 304.7 Q 924.4 303.8, 922.7 303.8 Q 921.2 303.8, 919.4 304.5 L 918.1 303.8 L 918.9 295.3 L 928.0 295.3 L 927.8 297.3 L 921.0 297.3 L 920.4 302.5 Q 922.0 301.9, 923.6 301.9 " fill="#000000"/>
<path class="atom-5" d="M 901.3 375.3 Q 901.3 370.9, 903.3 368.6 Q 905.4 366.3, 909.3 366.3 Q 913.0 366.3, 914.9 368.8 L 913.3 370.2 Q 911.8 368.3, 909.3 368.3 Q 906.6 368.3, 905.2 370.1 Q 903.8 371.9, 903.8 375.3 Q 903.8 378.8, 905.3 380.6 Q 906.7 382.4, 909.6 382.4 Q 911.5 382.4, 913.8 381.2 L 914.5 383.1 Q 913.6 383.7, 912.2 384.0 Q 910.8 384.4, 909.2 384.4 Q 905.4 384.4, 903.3 382.0 Q 901.3 379.7, 901.3 375.3 " fill="#000000"/>
<path class="atom-5" d="M 924.1 373.1 Q 925.7 373.1, 926.9 373.8 Q 928.1 374.5, 928.8 375.7 Q 929.5 376.9, 929.5 378.5 Q 929.5 380.2, 928.7 381.5 Q 928.0 382.9, 926.6 383.6 Q 925.3 384.4, 923.5 384.4 Q 920.4 384.4, 918.8 382.2 Q 917.2 380.1, 917.2 375.8 Q 917.2 371.1, 919.2 368.7 Q 921.1 366.3, 924.9 366.3 Q 926.0 366.3, 926.9 366.5 Q 927.9 366.8, 928.8 367.3 L 927.8 369.0 Q 926.5 368.3, 924.9 368.3 Q 922.4 368.3, 921.2 369.9 Q 919.9 371.5, 919.7 374.8 Q 920.6 374.0, 921.8 373.6 Q 922.9 373.1, 924.1 373.1 M 923.6 382.3 Q 924.5 382.3, 925.3 381.8 Q 926.1 381.3, 926.5 380.4 Q 927.0 379.6, 927.0 378.5 Q 927.0 376.9, 926.1 376.0 Q 925.2 375.1, 923.7 375.1 Q 922.6 375.1, 921.5 375.6 Q 920.5 376.0, 919.7 376.7 Q 919.8 379.7, 920.8 381.0 Q 921.7 382.3, 923.6 382.3 " fill="#000000"/>
<path class="atom-6" d="M 832.6 410.9 Q 832.6 406.5, 834.7 404.2 Q 836.8 401.9, 840.7 401.9 Q 844.3 401.9, 846.3 404.5 L 844.6 405.8 Q 843.2 403.9, 840.7 403.9 Q 838.0 403.9, 836.6 405.7 Q 835.2 407.5, 835.2 410.9 Q 835.2 414.4, 836.6 416.2 Q 838.1 418.0, 841.0 418.0 Q 842.9 418.0, 845.2 416.8 L 845.9 418.7 Q 845.0 419.3, 843.6 419.7 Q 842.2 420.0, 840.6 420.0 Q 836.8 420.0, 834.7 417.7 Q 832.6 415.3, 832.6 410.9 " fill="#000000"/>
<path class="atom-6" d="M 857.8 404.1 L 848.6 404.1 L 848.6 402.1 L 860.3 402.1 L 860.3 403.9 L 853.2 419.8 L 850.8 419.8 L 857.8 404.1 " fill="#000000"/>
<path class="atom-7" d="M 716.5 482.2 Q 716.5 477.8, 718.5 475.5 Q 720.6 473.2, 724.5 473.2 Q 728.2 473.2, 730.1 475.7 L 728.5 477.1 Q 727.0 475.2, 724.5 475.2 Q 721.8 475.2, 720.4 477.0 Q 719.0 478.8, 719.0 482.2 Q 719.0 485.7, 720.5 487.5 Q 721.9 489.3, 724.8 489.3 Q 726.7 489.3, 729.0 488.1 L 729.7 490.0 Q 728.8 490.6, 727.4 490.9 Q 726.0 491.3, 724.4 491.3 Q 720.6 491.3, 718.5 488.9 Q 716.5 486.6, 716.5 482.2 " fill="#000000"/>
<path class="atom-7" d="M 741.4 481.7 Q 743.1 482.4, 744.0 483.4 Q 744.9 484.5, 744.9 486.2 Q 744.9 487.7, 744.1 488.9 Q 743.4 490.0, 742.0 490.7 Q 740.6 491.3, 738.8 491.3 Q 735.8 491.3, 734.1 490.0 Q 732.4 488.6, 732.4 486.2 Q 732.4 484.8, 733.2 483.7 Q 733.9 482.6, 735.5 481.8 Q 734.3 481.1, 733.7 480.2 Q 733.1 479.2, 733.1 477.7 Q 733.1 475.6, 734.6 474.4 Q 736.1 473.2, 738.7 473.2 Q 741.2 473.2, 742.7 474.4 Q 744.3 475.6, 744.3 477.7 Q 744.3 479.0, 743.5 480.0 Q 742.8 480.9, 741.4 481.7 M 738.7 475.0 Q 737.2 475.0, 736.4 475.7 Q 735.6 476.4, 735.6 477.7 Q 735.6 478.6, 736.1 479.2 Q 736.7 479.8, 737.4 480.2 Q 738.2 480.5, 739.8 481.1 Q 740.8 480.3, 741.3 479.5 Q 741.8 478.7, 741.8 477.7 Q 741.8 476.4, 740.9 475.7 Q 740.1 475.0, 738.7 475.0 M 738.8 489.4 Q 740.4 489.4, 741.4 488.6 Q 742.4 487.7, 742.4 486.2 Q 742.4 485.2, 741.9 484.6 Q 741.4 484.0, 740.6 483.7 Q 739.8 483.3, 738.4 482.9 L 737.3 482.5 Q 736.0 483.3, 735.5 484.2 Q 734.9 485.0, 734.9 486.2 Q 734.9 487.7, 736.0 488.6 Q 737.0 489.4, 738.8 489.4 " fill="#000000"/>
<path class="atom-8" d="M 647.6 517.8 Q 647.6 513.4, 649.6 511.1 Q 651.7 508.8, 655.6 508.8 Q 659.3 508.8, 661.2 511.4 L 659.6 512.7 Q 658.1 510.8, 655.6 510.8 Q 652.9 510.8, 651.5 512.6 Q 650.1 514.4, 650.1 517.8 Q 650.1 521.3, 651.6 523.1 Q 653.0 524.9, 655.9 524.9 Q 657.8 524.9, 660.1 523.7 L 660.8 525.6 Q 659.9 526.2, 658.5 526.6 Q 657.1 526.9, 655.5 526.9 Q 651.7 526.9, 649.6 524.6 Q 647.6 522.2, 647.6 517.8 " fill="#000000"/>
<path class="atom-8" d="M 669.5 508.8 Q 672.6 508.8, 674.2 510.9 Q 675.8 513.1, 675.8 517.3 Q 675.8 522.0, 673.8 524.5 Q 671.9 526.9, 668.1 526.9 Q 667.0 526.9, 666.0 526.6 Q 665.1 526.4, 664.2 525.9 L 665.2 524.2 Q 666.5 524.9, 668.1 524.9 Q 670.6 524.9, 671.8 523.3 Q 673.1 521.7, 673.3 518.3 Q 672.4 519.2, 671.2 519.6 Q 670.1 520.0, 668.9 520.0 Q 667.3 520.0, 666.1 519.4 Q 664.9 518.7, 664.2 517.5 Q 663.5 516.2, 663.5 514.7 Q 663.5 513.0, 664.3 511.6 Q 665.0 510.3, 666.4 509.5 Q 667.7 508.8, 669.5 508.8 M 666.0 514.7 Q 666.0 516.2, 666.9 517.1 Q 667.8 518.0, 669.3 518.0 Q 670.4 518.0, 671.4 517.6 Q 672.5 517.2, 673.3 516.4 Q 673.2 513.5, 672.2 512.2 Q 671.3 510.8, 669.4 510.8 Q 668.5 510.8, 667.7 511.3 Q 666.9 511.8, 666.5 512.7 Q 666.0 513.6, 666.0 514.7 " fill="#000000"/>
<path class="atom-9" d="M 640.8 589.0 Q 640.8 584.6, 642.9 582.3 Q 645.0 580.0, 648.9 580.0 Q 652.5 580.0, 654.5 582.5 L 652.8 583.9 Q 651.4 582.0, 648.9 582.0 Q 646.2 582.0, 644.8 583.8 Q 643.4 585.6, 643.4 589.0 Q 643.4 592.5, 644.8 594.3 Q 646.3 596.1, 649.2 596.1 Q 651.1 596.1, 653.4 594.9 L 654.1 596.8 Q 653.2 597.4, 651.8 597.7 Q 650.4 598.1, 648.8 598.1 Q 645.0 598.1, 642.9 595.7 Q 640.8 593.4, 640.8 589.0 " fill="#000000"/>
<path class="atom-9" d="M 657.7 595.9 L 661.6 595.9 L 661.6 582.6 L 657.3 584.0 L 656.7 582.5 L 662.1 580.1 L 663.9 580.4 L 663.9 595.9 L 667.4 595.9 L 667.4 597.9 L 657.7 597.9 L 657.7 595.9 " fill="#000000"/>
<path class="atom-9" d="M 676.2 598.1 Q 672.9 598.1, 671.3 595.7 Q 669.7 593.3, 669.7 589.0 Q 669.7 584.7, 671.3 582.3 Q 672.9 580.0, 676.2 580.0 Q 679.4 580.0, 681.0 582.3 Q 682.6 584.7, 682.6 589.0 Q 682.6 593.3, 681.0 595.7 Q 679.4 598.1, 676.2 598.1 M 676.2 596.1 Q 678.1 596.1, 679.1 594.3 Q 680.1 592.5, 680.1 589.0 Q 680.1 585.5, 679.1 583.7 Q 678.1 582.0, 676.2 582.0 Q 674.3 582.0, 673.2 583.7 Q 672.2 585.5, 672.2 589.0 Q 672.2 592.5, 673.2 594.3 Q 674.3 596.1, 676.2 596.1 " fill="#000000"/>
<path class="atom-10" d="M 716.6 624.5 Q 716.6 620.1, 718.6 617.8 Q 720.7 615.5, 724.6 615.5 Q 728.3 615.5, 730.2 618.1 L 728.6 619.4 Q 727.1 617.5, 724.6 617.5 Q 721.9 617.5, 720.5 619.3 Q 719.1 621.1, 719.1 624.5 Q 719.1 628.0, 720.6 629.8 Q 722.0 631.6, 724.9 631.6 Q 726.8 631.6, 729.1 630.4 L 729.8 632.3 Q 728.9 632.9, 727.5 633.3 Q 726.1 633.6, 724.5 633.6 Q 720.7 633.6, 718.6 631.3 Q 716.6 628.9, 716.6 624.5 " fill="#000000"/>
<path class="atom-10" d="M 733.4 631.4 L 737.2 631.4 L 737.2 618.2 L 733.0 619.5 L 732.4 618.0 L 737.8 615.6 L 739.6 615.9 L 739.6 631.4 L 743.1 631.4 L 743.1 633.4 L 733.4 633.4 L 733.4 631.4 " fill="#000000"/>
<path class="atom-10" d="M 746.3 631.4 L 750.1 631.4 L 750.1 618.2 L 745.9 619.5 L 745.3 618.0 L 750.7 615.6 L 752.5 615.9 L 752.5 631.4 L 756.0 631.4 L 756.0 633.4 L 746.3 633.4 L 746.3 631.4 " fill="#000000"/>
<path class="atom-11" d="M 716.6 695.7 Q 716.6 691.3, 718.7 689.0 Q 720.7 686.7, 724.7 686.7 Q 728.3 686.7, 730.3 689.2 L 728.6 690.6 Q 727.2 688.7, 724.7 688.7 Q 722.0 688.7, 720.6 690.5 Q 719.2 692.3, 719.2 695.7 Q 719.2 699.2, 720.6 701.0 Q 722.1 702.8, 724.9 702.8 Q 726.9 702.8, 729.2 701.6 L 729.9 703.5 Q 728.9 704.1, 727.5 704.4 Q 726.1 704.8, 724.6 704.8 Q 720.7 704.8, 718.7 702.4 Q 716.6 700.1, 716.6 695.7 " fill="#000000"/>
<path class="atom-11" d="M 733.5 702.6 L 737.3 702.6 L 737.3 689.3 L 733.1 690.7 L 732.5 689.2 L 737.9 686.8 L 739.7 687.1 L 739.7 702.6 L 743.2 702.6 L 743.2 704.6 L 733.5 704.6 L 733.5 702.6 " fill="#000000"/>
<path class="atom-11" d="M 745.5 690.2 Q 746.1 688.5, 747.7 687.6 Q 749.2 686.7, 751.4 686.7 Q 754.0 686.7, 755.5 688.1 Q 757.0 689.6, 757.0 692.1 Q 757.0 694.8, 755.1 697.2 Q 753.2 699.7, 749.2 702.6 L 757.3 702.6 L 757.3 704.6 L 745.4 704.6 L 745.4 702.9 Q 748.7 700.5, 750.7 698.8 Q 752.6 697.0, 753.6 695.5 Q 754.5 693.9, 754.5 692.3 Q 754.5 690.6, 753.7 689.6 Q 752.8 688.7, 751.4 688.7 Q 749.9 688.7, 749.0 689.2 Q 748.0 689.8, 747.4 691.1 L 745.5 690.2 " fill="#000000"/>
<path class="atom-12" d="M 641.5 731.3 Q 641.5 726.9, 643.6 724.6 Q 645.6 722.3, 649.6 722.3 Q 653.2 722.3, 655.2 724.9 L 653.5 726.2 Q 652.1 724.3, 649.6 724.3 Q 646.9 724.3, 645.5 726.1 Q 644.1 727.9, 644.1 731.3 Q 644.1 734.8, 645.5 736.6 Q 647.0 738.4, 649.8 738.4 Q 651.8 738.4, 654.1 737.2 L 654.8 739.1 Q 653.8 739.7, 652.4 740.1 Q 651.0 740.4, 649.5 740.4 Q 645.6 740.4, 643.6 738.1 Q 641.5 735.7, 641.5 731.3 " fill="#000000"/>
<path class="atom-12" d="M 658.3 738.2 L 662.2 738.2 L 662.2 725.0 L 657.9 726.3 L 657.4 724.8 L 662.8 722.4 L 664.6 722.7 L 664.6 738.2 L 668.0 738.2 L 668.0 740.2 L 658.3 740.2 L 658.3 738.2 " fill="#000000"/>
<path class="atom-12" d="M 678.8 730.9 Q 680.5 731.4, 681.3 732.5 Q 682.2 733.6, 682.2 735.3 Q 682.2 736.8, 681.4 738.0 Q 680.7 739.2, 679.3 739.8 Q 677.9 740.4, 676.1 740.4 Q 674.2 740.4, 672.8 739.8 Q 671.4 739.1, 670.3 737.8 L 671.7 736.3 Q 672.8 737.5, 673.7 738.0 Q 674.7 738.4, 676.1 738.4 Q 677.7 738.4, 678.7 737.6 Q 679.7 736.7, 679.7 735.3 Q 679.7 733.5, 678.7 732.7 Q 677.7 731.9, 675.5 731.9 L 674.2 731.9 L 674.2 730.1 L 675.3 730.1 Q 677.3 730.1, 678.3 729.2 Q 679.3 728.4, 679.3 726.8 Q 679.3 725.7, 678.5 725.0 Q 677.6 724.3, 676.2 724.3 Q 674.7 724.3, 673.8 724.8 Q 672.9 725.3, 672.2 726.7 L 670.4 725.7 Q 671.1 724.3, 672.6 723.3 Q 674.1 722.3, 676.2 722.3 Q 678.8 722.3, 680.3 723.5 Q 681.8 724.7, 681.8 726.8 Q 681.8 728.2, 681.0 729.3 Q 680.3 730.3, 678.8 730.9 " fill="#000000"/>
<path class="atom-13" d="M 564.5 695.8 Q 564.5 691.4, 566.5 689.1 Q 568.6 686.8, 572.5 686.8 Q 576.2 686.8, 578.1 689.3 L 576.5 690.7 Q 575.0 688.8, 572.5 688.8 Q 569.8 688.8, 568.4 690.6 Q 567.0 692.4, 567.0 695.8 Q 567.0 699.3, 568.5 701.1 Q 569.9 702.9, 572.8 702.9 Q 574.7 702.9, 577.0 701.7 L 577.7 703.6 Q 576.8 704.2, 575.4 704.5 Q 574.0 704.9, 572.4 704.9 Q 568.6 704.9, 566.5 702.5 Q 564.5 700.2, 564.5 695.8 " fill="#000000"/>
<path class="atom-13" d="M 581.4 702.7 L 585.2 702.7 L 585.2 689.4 L 581.0 690.8 L 580.4 689.3 L 585.8 686.9 L 587.6 687.2 L 587.6 702.7 L 591.1 702.7 L 591.1 704.7 L 581.4 704.7 L 581.4 702.7 " fill="#000000"/>
<path class="atom-13" d="M 604.9 698.6 L 607.0 698.6 L 607.0 700.6 L 604.9 700.6 L 604.9 704.7 L 602.5 704.7 L 602.5 700.6 L 593.4 700.6 L 593.4 699.0 L 601.1 687.0 L 604.9 687.0 L 604.9 698.6 M 596.3 698.6 L 602.5 698.6 L 602.5 688.6 L 596.3 698.6 " fill="#000000"/>
<path class="atom-14" d="M 579.7 624.6 Q 579.7 620.2, 581.8 617.9 Q 583.9 615.6, 587.8 615.6 Q 591.4 615.6, 593.4 618.2 L 591.7 619.5 Q 590.3 617.6, 587.8 617.6 Q 585.1 617.6, 583.7 619.4 Q 582.3 621.2, 582.3 624.6 Q 582.3 628.1, 583.7 629.9 Q 585.2 631.7, 588.1 631.7 Q 590.0 631.7, 592.3 630.5 L 593.0 632.4 Q 592.1 633.0, 590.7 633.4 Q 589.3 633.7, 587.7 633.7 Q 583.9 633.7, 581.8 631.4 Q 579.7 629.0, 579.7 624.6 " fill="#000000"/>
<path class="atom-14" d="M 596.6 631.5 L 600.5 631.5 L 600.5 618.3 L 596.2 619.6 L 595.6 618.1 L 601.0 615.7 L 602.8 616.0 L 602.8 631.5 L 606.3 631.5 L 606.3 633.5 L 596.6 633.5 L 596.6 631.5 " fill="#000000"/>
<path class="atom-14" d="M 615.0 622.4 Q 616.5 622.4, 617.8 623.1 Q 619.1 623.7, 619.8 625.0 Q 620.5 626.2, 620.5 627.9 Q 620.5 629.7, 619.6 631.0 Q 618.7 632.3, 617.3 633.0 Q 615.8 633.7, 614.2 633.7 Q 612.6 633.7, 611.1 633.1 Q 609.6 632.5, 608.5 631.3 L 610.0 629.8 Q 610.9 630.7, 612.0 631.2 Q 613.1 631.7, 614.3 631.7 Q 615.8 631.7, 616.9 630.7 Q 618.0 629.7, 618.0 627.9 Q 618.0 626.1, 616.9 625.2 Q 615.8 624.3, 614.1 624.3 Q 612.6 624.3, 610.8 625.0 L 609.5 624.3 L 610.3 615.8 L 619.4 615.8 L 619.2 617.8 L 612.4 617.8 L 611.8 623.0 Q 613.4 622.4, 615.0 622.4 " fill="#000000"/>
<path class="atom-15" d="M 516.4 589.1 Q 516.4 584.8, 518.5 582.4 Q 520.6 580.1, 524.5 580.1 Q 528.5 580.1, 530.6 582.4 Q 532.7 584.8, 532.7 589.1 Q 532.7 593.4, 530.5 595.8 Q 528.4 598.2, 524.5 598.2 Q 520.6 598.2, 518.5 595.8 Q 516.4 593.4, 516.4 589.1 M 524.5 596.2 Q 527.2 596.2, 528.7 594.4 Q 530.2 592.6, 530.2 589.1 Q 530.2 585.6, 528.7 583.8 Q 527.2 582.1, 524.5 582.1 Q 521.8 582.1, 520.4 583.8 Q 518.9 585.6, 518.9 589.1 Q 518.9 592.6, 520.4 594.4 Q 521.8 596.2, 524.5 596.2 " fill="#FF0000"/>
<path class="atom-15" d="M 536.2 596.0 L 540.1 596.0 L 540.1 582.7 L 535.8 584.1 L 535.2 582.6 L 540.6 580.2 L 542.4 580.5 L 542.4 596.0 L 545.9 596.0 L 545.9 598.0 L 536.2 598.0 L 536.2 596.0 " fill="#FF0000"/>
<path class="atom-15" d="M 555.2 586.9 Q 556.7 586.9, 558.0 587.6 Q 559.2 588.3, 559.9 589.5 Q 560.5 590.7, 560.5 592.3 Q 560.5 594.0, 559.8 595.3 Q 559.0 596.7, 557.7 597.4 Q 556.3 598.2, 554.6 598.2 Q 551.4 598.2, 549.8 596.0 Q 548.3 593.9, 548.3 589.6 Q 548.3 584.9, 550.2 582.5 Q 552.2 580.1, 556.0 580.1 Q 557.1 580.1, 558.0 580.3 Q 558.9 580.6, 559.8 581.1 L 558.9 582.8 Q 557.6 582.1, 556.0 582.1 Q 553.5 582.1, 552.2 583.7 Q 550.9 585.3, 550.8 588.6 Q 551.7 587.8, 552.8 587.4 Q 554.0 586.9, 555.2 586.9 M 554.6 596.1 Q 555.6 596.1, 556.3 595.6 Q 557.1 595.1, 557.6 594.2 Q 558.0 593.4, 558.0 592.3 Q 558.0 590.7, 557.2 589.8 Q 556.3 588.9, 554.7 588.9 Q 553.7 588.9, 552.6 589.4 Q 551.5 589.8, 550.8 590.5 Q 550.9 593.5, 551.8 594.8 Q 552.7 596.1, 554.6 596.1 " fill="#FF0000"/>
<path class="atom-16" d="M 562.3 482.3 Q 562.3 478.0, 564.4 475.6 Q 566.5 473.3, 570.5 473.3 Q 574.4 473.3, 576.5 475.6 Q 578.6 478.0, 578.6 482.3 Q 578.6 486.6, 576.5 489.0 Q 574.3 491.4, 570.5 491.4 Q 566.6 491.4, 564.4 489.0 Q 562.3 486.6, 562.3 482.3 M 570.5 489.4 Q 573.2 489.4, 574.6 487.6 Q 576.1 485.8, 576.1 482.3 Q 576.1 478.8, 574.6 477.0 Q 573.2 475.3, 570.5 475.3 Q 567.8 475.3, 566.3 477.0 Q 564.8 478.8, 564.8 482.3 Q 564.8 485.8, 566.3 487.6 Q 567.8 489.4, 570.5 489.4 " fill="#FF0000"/>
<path class="atom-16" d="M 582.1 489.2 L 586.0 489.2 L 586.0 475.9 L 581.7 477.3 L 581.1 475.8 L 586.6 473.4 L 588.3 473.7 L 588.3 489.2 L 591.8 489.2 L 591.8 491.2 L 582.1 491.2 L 582.1 489.2 " fill="#FF0000"/>
<path class="atom-16" d="M 603.4 475.5 L 594.1 475.5 L 594.1 473.5 L 605.9 473.5 L 605.9 475.2 L 598.7 491.2 L 596.3 491.2 L 603.4 475.5 " fill="#FF0000"/>
<path class="atom-17" d="M 456.2 624.7 Q 456.2 620.3, 458.3 618.0 Q 460.3 615.7, 464.3 615.7 Q 467.9 615.7, 469.9 618.3 L 468.2 619.6 Q 466.8 617.7, 464.3 617.7 Q 461.6 617.7, 460.2 619.5 Q 458.8 621.3, 458.8 624.7 Q 458.8 628.2, 460.2 630.0 Q 461.7 631.8, 464.5 631.8 Q 466.5 631.8, 468.8 630.6 L 469.5 632.5 Q 468.5 633.1, 467.1 633.5 Q 465.7 633.8, 464.2 633.8 Q 460.3 633.8, 458.3 631.5 Q 456.2 629.1, 456.2 624.7 " fill="#000000"/>
<path class="atom-17" d="M 473.1 631.6 L 476.9 631.6 L 476.9 618.4 L 472.7 619.7 L 472.1 618.2 L 477.5 615.8 L 479.3 616.1 L 479.3 631.6 L 482.8 631.6 L 482.8 633.6 L 473.1 633.6 L 473.1 631.6 " fill="#000000"/>
<path class="atom-17" d="M 494.1 624.2 Q 495.7 624.9, 496.6 626.0 Q 497.5 627.0, 497.5 628.7 Q 497.5 630.2, 496.8 631.4 Q 496.0 632.6, 494.6 633.2 Q 493.2 633.8, 491.4 633.8 Q 488.4 633.8, 486.7 632.5 Q 485.0 631.1, 485.0 628.7 Q 485.0 627.3, 485.8 626.2 Q 486.5 625.1, 488.1 624.3 Q 486.9 623.6, 486.3 622.7 Q 485.7 621.7, 485.7 620.2 Q 485.7 618.1, 487.2 616.9 Q 488.7 615.7, 491.3 615.7 Q 493.9 615.7, 495.4 616.9 Q 496.9 618.1, 496.9 620.2 Q 496.9 621.5, 496.2 622.5 Q 495.5 623.4, 494.1 624.2 M 491.3 617.6 Q 489.8 617.6, 489.0 618.3 Q 488.2 619.0, 488.2 620.2 Q 488.2 621.1, 488.7 621.8 Q 489.3 622.4, 490.1 622.7 Q 490.9 623.1, 492.4 623.6 Q 493.5 622.8, 493.9 622.0 Q 494.4 621.2, 494.4 620.2 Q 494.4 619.0, 493.6 618.3 Q 492.8 617.6, 491.3 617.6 M 491.4 632.0 Q 493.0 632.0, 494.0 631.1 Q 495.0 630.2, 495.0 628.7 Q 495.0 627.8, 494.5 627.2 Q 494.0 626.6, 493.2 626.2 Q 492.4 625.9, 491.0 625.4 L 489.9 625.0 Q 488.6 625.8, 488.1 626.7 Q 487.5 627.6, 487.5 628.7 Q 487.5 630.2, 488.6 631.1 Q 489.6 632.0, 491.4 632.0 " fill="#000000"/>
<path class="atom-18" d="M 394.7 589.2 Q 394.7 584.8, 396.7 582.5 Q 398.8 580.2, 402.7 580.2 Q 406.4 580.2, 408.3 582.7 L 406.7 584.1 Q 405.2 582.2, 402.7 582.2 Q 400.0 582.2, 398.6 584.0 Q 397.2 585.8, 397.2 589.2 Q 397.2 592.7, 398.7 594.5 Q 400.1 596.3, 403.0 596.3 Q 404.9 596.3, 407.2 595.1 L 407.9 597.0 Q 407.0 597.6, 405.6 597.9 Q 404.2 598.3, 402.6 598.3 Q 398.8 598.3, 396.7 595.9 Q 394.7 593.6, 394.7 589.2 " fill="#000000"/>
<path class="atom-18" d="M 411.5 596.1 L 415.4 596.1 L 415.4 582.8 L 411.1 584.2 L 410.5 582.7 L 416.0 580.3 L 417.7 580.6 L 417.7 596.1 L 421.2 596.1 L 421.2 598.1 L 411.5 598.1 L 411.5 596.1 " fill="#000000"/>
<path class="atom-18" d="M 429.4 580.2 Q 432.6 580.2, 434.2 582.3 Q 435.8 584.4, 435.8 588.7 Q 435.8 593.4, 433.8 595.8 Q 431.8 598.3, 428.1 598.3 Q 427.0 598.3, 426.0 598.0 Q 425.1 597.8, 424.2 597.2 L 425.2 595.6 Q 426.5 596.3, 428.0 596.3 Q 430.5 596.3, 431.8 594.7 Q 433.1 593.0, 433.2 589.7 Q 432.3 590.5, 431.2 591.0 Q 430.1 591.4, 428.8 591.4 Q 427.3 591.4, 426.1 590.7 Q 424.8 590.1, 424.2 588.8 Q 423.5 587.6, 423.5 586.1 Q 423.5 584.3, 424.2 583.0 Q 425.0 581.7, 426.4 580.9 Q 427.7 580.2, 429.4 580.2 M 426.0 586.0 Q 426.0 587.6, 426.9 588.5 Q 427.7 589.4, 429.3 589.4 Q 430.4 589.4, 431.4 589.0 Q 432.5 588.5, 433.2 587.8 Q 433.1 584.9, 432.2 583.5 Q 431.3 582.2, 429.4 582.2 Q 428.5 582.2, 427.7 582.7 Q 426.9 583.2, 426.4 584.1 Q 426.0 585.0, 426.0 586.0 " fill="#000000"/>
<path class="atom-19" d="M 331.8 624.8 Q 331.8 620.4, 333.9 618.1 Q 335.9 615.8, 339.9 615.8 Q 343.5 615.8, 345.5 618.4 L 343.8 619.7 Q 342.4 617.8, 339.9 617.8 Q 337.2 617.8, 335.8 619.6 Q 334.4 621.4, 334.4 624.8 Q 334.4 628.3, 335.8 630.1 Q 337.3 631.9, 340.1 631.9 Q 342.1 631.9, 344.4 630.7 L 345.1 632.6 Q 344.1 633.2, 342.7 633.6 Q 341.3 633.9, 339.8 633.9 Q 335.9 633.9, 333.9 631.6 Q 331.8 629.2, 331.8 624.8 " fill="#000000"/>
<path class="atom-19" d="M 347.8 619.3 Q 348.4 617.7, 350.0 616.7 Q 351.5 615.8, 353.7 615.8 Q 356.4 615.8, 357.9 617.2 Q 359.4 618.7, 359.4 621.3 Q 359.4 623.9, 357.4 626.3 Q 355.5 628.8, 351.5 631.7 L 359.7 631.7 L 359.7 633.7 L 347.7 633.7 L 347.7 632.0 Q 351.0 629.7, 353.0 627.9 Q 355.0 626.2, 355.9 624.6 Q 356.9 623.0, 356.9 621.4 Q 356.9 619.7, 356.0 618.7 Q 355.2 617.8, 353.7 617.8 Q 352.3 617.8, 351.3 618.4 Q 350.4 618.9, 349.7 620.2 L 347.8 619.3 " fill="#000000"/>
<path class="atom-19" d="M 368.9 633.9 Q 365.7 633.9, 364.1 631.5 Q 362.5 629.1, 362.5 624.8 Q 362.5 620.5, 364.1 618.2 Q 365.7 615.8, 368.9 615.8 Q 372.2 615.8, 373.8 618.2 Q 375.4 620.5, 375.4 624.8 Q 375.4 629.1, 373.8 631.5 Q 372.2 633.9, 368.9 633.9 M 368.9 631.9 Q 370.9 631.9, 371.9 630.1 Q 372.9 628.3, 372.9 624.8 Q 372.9 621.3, 371.9 619.6 Q 370.9 617.8, 368.9 617.8 Q 367.0 617.8, 366.0 619.6 Q 365.0 621.3, 365.0 624.8 Q 365.0 628.3, 366.0 630.1 Q 367.0 631.9, 368.9 631.9 " fill="#000000"/>
<path class="atom-20" d="M 273.7 580.5 L 279.5 589.8 Q 280.1 590.8, 281.0 592.4 Q 282.0 594.1, 282.0 594.2 L 282.0 580.5 L 284.4 580.5 L 284.4 598.2 L 281.9 598.2 L 275.7 587.9 Q 275.0 586.7, 274.2 585.3 Q 273.5 584.0, 273.2 583.5 L 273.2 598.2 L 270.9 598.2 L 270.9 580.5 L 273.7 580.5 " fill="#0000FF"/>
<path class="atom-20" d="M 287.7 583.8 Q 288.3 582.1, 289.9 581.2 Q 291.4 580.3, 293.6 580.3 Q 296.3 580.3, 297.8 581.7 Q 299.3 583.2, 299.3 585.7 Q 299.3 588.4, 297.3 590.8 Q 295.4 593.3, 291.4 596.2 L 299.6 596.2 L 299.6 598.2 L 287.6 598.2 L 287.6 596.5 Q 290.9 594.1, 292.9 592.4 Q 294.9 590.6, 295.8 589.1 Q 296.8 587.5, 296.8 585.9 Q 296.8 584.2, 295.9 583.2 Q 295.1 582.3, 293.6 582.3 Q 292.2 582.3, 291.2 582.8 Q 290.3 583.4, 289.6 584.7 L 287.7 583.8 " fill="#0000FF"/>
<path class="atom-20" d="M 303.2 596.2 L 307.1 596.2 L 307.1 582.9 L 302.8 584.3 L 302.3 582.8 L 307.7 580.4 L 309.5 580.7 L 309.5 596.2 L 312.9 596.2 L 312.9 598.2 L 303.2 598.2 L 303.2 596.2 " fill="#0000FF"/>
<path class="atom-21" d="M 407.0 518.0 Q 407.0 513.7, 409.1 511.4 Q 411.2 509.0, 415.2 509.0 Q 419.1 509.0, 421.2 511.4 Q 423.3 513.7, 423.3 518.0 Q 423.3 522.3, 421.2 524.7 Q 419.0 527.2, 415.2 527.2 Q 411.3 527.2, 409.1 524.7 Q 407.0 522.3, 407.0 518.0 M 415.2 525.2 Q 417.9 525.2, 419.3 523.4 Q 420.8 521.5, 420.8 518.0 Q 420.8 514.5, 419.3 512.8 Q 417.9 511.0, 415.2 511.0 Q 412.5 511.0, 411.0 512.7 Q 409.5 514.5, 409.5 518.0 Q 409.5 521.6, 411.0 523.4 Q 412.5 525.2, 415.2 525.2 " fill="#FF0000"/>
<path class="atom-21" d="M 425.9 512.5 Q 426.6 510.9, 428.1 509.9 Q 429.7 509.0, 431.8 509.0 Q 434.5 509.0, 436.0 510.4 Q 437.5 511.9, 437.5 514.5 Q 437.5 517.1, 435.5 519.5 Q 433.6 522.0, 429.6 524.9 L 437.8 524.9 L 437.8 526.9 L 425.9 526.9 L 425.9 525.2 Q 429.2 522.9, 431.1 521.1 Q 433.1 519.4, 434.0 517.8 Q 435.0 516.2, 435.0 514.6 Q 435.0 512.9, 434.1 511.9 Q 433.3 511.0, 431.8 511.0 Q 430.4 511.0, 429.4 511.6 Q 428.5 512.1, 427.8 513.4 L 425.9 512.5 " fill="#FF0000"/>
<path class="atom-21" d="M 440.7 512.5 Q 441.3 510.9, 442.9 509.9 Q 444.4 509.0, 446.6 509.0 Q 449.3 509.0, 450.8 510.4 Q 452.3 511.9, 452.3 514.5 Q 452.3 517.1, 450.3 519.5 Q 448.4 522.0, 444.4 524.9 L 452.6 524.9 L 452.6 526.9 L 440.6 526.9 L 440.6 525.2 Q 443.9 522.9, 445.9 521.1 Q 447.9 519.4, 448.8 517.8 Q 449.8 516.2, 449.8 514.6 Q 449.8 512.9, 448.9 511.9 Q 448.1 511.0, 446.6 511.0 Q 445.2 511.0, 444.2 511.6 Q 443.3 512.1, 442.6 513.4 L 440.7 512.5 " fill="#FF0000"/>
<path class="atom-22" d="M 209.1 624.9 Q 209.1 620.5, 211.2 618.2 Q 213.2 615.9, 217.2 615.9 Q 220.8 615.9, 222.8 618.5 L 221.1 619.8 Q 219.7 617.9, 217.2 617.9 Q 214.5 617.9, 213.1 619.7 Q 211.7 621.5, 211.7 624.9 Q 211.7 628.4, 213.1 630.2 Q 214.6 632.0, 217.4 632.0 Q 219.4 632.0, 221.7 630.8 L 222.4 632.7 Q 221.4 633.3, 220.0 633.7 Q 218.6 634.0, 217.1 634.0 Q 213.2 634.0, 211.2 631.7 Q 209.1 629.3, 209.1 624.9 " fill="#000000"/>
<path class="atom-22" d="M 225.1 619.4 Q 225.7 617.8, 227.3 616.8 Q 228.8 615.9, 231.0 615.9 Q 233.6 615.9, 235.1 617.3 Q 236.6 618.8, 236.6 621.4 Q 236.6 624.0, 234.7 626.4 Q 232.8 628.9, 228.8 631.8 L 236.9 631.8 L 236.9 633.8 L 225.0 633.8 L 225.0 632.1 Q 228.3 629.8, 230.3 628.0 Q 232.2 626.3, 233.2 624.7 Q 234.1 623.1, 234.1 621.5 Q 234.1 619.8, 233.3 618.8 Q 232.4 617.9, 231.0 617.9 Q 229.5 617.9, 228.6 618.5 Q 227.6 619.0, 227.0 620.3 L 225.1 619.4 " fill="#000000"/>
<path class="atom-22" d="M 248.2 624.5 Q 249.9 625.0, 250.7 626.1 Q 251.6 627.2, 251.6 628.9 Q 251.6 630.4, 250.8 631.6 Q 250.1 632.8, 248.7 633.4 Q 247.3 634.0, 245.5 634.0 Q 243.6 634.0, 242.2 633.4 Q 240.8 632.7, 239.7 631.4 L 241.1 629.9 Q 242.2 631.1, 243.1 631.6 Q 244.1 632.0, 245.5 632.0 Q 247.1 632.0, 248.1 631.2 Q 249.1 630.3, 249.1 628.9 Q 249.1 627.1, 248.1 626.3 Q 247.1 625.5, 244.9 625.5 L 243.6 625.5 L 243.6 623.7 L 244.7 623.7 Q 246.7 623.7, 247.7 622.8 Q 248.7 622.0, 248.7 620.4 Q 248.7 619.3, 247.9 618.6 Q 247.0 617.9, 245.6 617.9 Q 244.1 617.9, 243.2 618.4 Q 242.3 618.9, 241.6 620.3 L 239.8 619.3 Q 240.5 617.9, 242.0 616.9 Q 243.5 615.9, 245.6 615.9 Q 248.2 615.9, 249.7 617.1 Q 251.2 618.3, 251.2 620.4 Q 251.2 621.8, 250.4 622.9 Q 249.7 623.9, 248.2 624.5 " fill="#000000"/>
<path class="atom-23" d="M 146.5 589.4 Q 146.5 585.0, 148.6 582.7 Q 150.7 580.4, 154.6 580.4 Q 158.2 580.4, 160.2 582.9 L 158.5 584.3 Q 157.1 582.4, 154.6 582.4 Q 151.9 582.4, 150.5 584.2 Q 149.1 586.0, 149.1 589.4 Q 149.1 592.9, 150.5 594.7 Q 152.0 596.5, 154.9 596.5 Q 156.8 596.5, 159.1 595.3 L 159.8 597.2 Q 158.9 597.8, 157.5 598.1 Q 156.1 598.5, 154.5 598.5 Q 150.7 598.5, 148.6 596.1 Q 146.5 593.8, 146.5 589.4 " fill="#000000"/>
<path class="atom-23" d="M 162.5 583.9 Q 163.2 582.2, 164.7 581.3 Q 166.3 580.4, 168.4 580.4 Q 171.1 580.4, 172.6 581.8 Q 174.1 583.3, 174.1 585.8 Q 174.1 588.5, 172.2 590.9 Q 170.2 593.4, 166.2 596.3 L 174.4 596.3 L 174.4 598.3 L 162.5 598.3 L 162.5 596.6 Q 165.8 594.2, 167.7 592.5 Q 169.7 590.7, 170.7 589.2 Q 171.6 587.6, 171.6 586.0 Q 171.6 584.3, 170.8 583.3 Q 169.9 582.4, 168.4 582.4 Q 167.0 582.4, 166.1 582.9 Q 165.1 583.5, 164.4 584.8 L 162.5 583.9 " fill="#000000"/>
<path class="atom-23" d="M 188.7 592.2 L 190.8 592.2 L 190.8 594.2 L 188.7 594.2 L 188.7 598.3 L 186.4 598.3 L 186.4 594.2 L 177.2 594.2 L 177.2 592.6 L 185.0 580.6 L 188.7 580.6 L 188.7 592.2 M 180.1 592.2 L 186.4 592.2 L 186.4 582.2 L 180.1 592.2 " fill="#000000"/>
<path class="atom-24" d="M 70.5 625.0 Q 70.5 620.6, 72.6 618.3 Q 74.6 616.0, 78.6 616.0 Q 82.2 616.0, 84.2 618.6 L 82.5 619.9 Q 81.1 618.0, 78.6 618.0 Q 75.9 618.0, 74.5 619.8 Q 73.1 621.6, 73.1 625.0 Q 73.1 628.5, 74.5 630.3 Q 76.0 632.1, 78.8 632.1 Q 80.8 632.1, 83.1 630.9 L 83.8 632.8 Q 82.8 633.4, 81.4 633.8 Q 80.0 634.1, 78.5 634.1 Q 74.6 634.1, 72.6 631.8 Q 70.5 629.4, 70.5 625.0 " fill="#000000"/>
<path class="atom-24" d="M 86.5 619.5 Q 87.1 617.9, 88.7 616.9 Q 90.2 616.0, 92.4 616.0 Q 95.0 616.0, 96.5 617.4 Q 98.0 618.9, 98.0 621.5 Q 98.0 624.1, 96.1 626.5 Q 94.2 629.0, 90.2 631.9 L 98.3 631.9 L 98.3 633.9 L 86.4 633.9 L 86.4 632.2 Q 89.7 629.9, 91.7 628.1 Q 93.6 626.4, 94.6 624.8 Q 95.5 623.2, 95.5 621.6 Q 95.5 619.9, 94.7 618.9 Q 93.8 618.0, 92.4 618.0 Q 90.9 618.0, 90.0 618.6 Q 89.0 619.1, 88.4 620.4 L 86.5 619.5 " fill="#000000"/>
<path class="atom-24" d="M 107.5 622.8 Q 109.1 622.8, 110.3 623.5 Q 111.6 624.1, 112.3 625.4 Q 113.1 626.6, 113.1 628.3 Q 113.1 630.1, 112.2 631.4 Q 111.3 632.7, 109.8 633.4 Q 108.4 634.1, 106.7 634.1 Q 105.1 634.1, 103.6 633.5 Q 102.1 632.9, 101.1 631.7 L 102.6 630.2 Q 103.4 631.1, 104.5 631.6 Q 105.7 632.1, 106.8 632.1 Q 108.4 632.1, 109.5 631.1 Q 110.6 630.1, 110.6 628.3 Q 110.6 626.5, 109.5 625.6 Q 108.4 624.7, 106.7 624.7 Q 105.1 624.7, 103.4 625.4 L 102.0 624.7 L 102.9 616.2 L 112.0 616.2 L 111.7 618.2 L 104.9 618.2 L 104.4 623.4 Q 106.0 622.8, 107.5 622.8 " fill="#000000"/>
<text x="1000" y="50" font-size="8" font-family="Verdana" font-weight="normal" letter-spacing="0" text-anchor="start" fill="black">Highlighted Atoms:
Primary SOM: Red
Secondary SOM: Green
Tertiary SOM: Cyan
</text></svg>
