<?xml version='1.0' encoding='ASCII' standalone='yes'?>
<svg xmlns="http://www.w3.org/2000/svg" xmlns:rdkit="http://www.rdkit.org/xml" xmlns:xlink="http://www.w3.org/1999/xlink" style="background-color: white;" version="1.1" baseProfile="full" xml:space="preserve" width="1000px" height="1000px" viewBox="0 0 1000 1000">
<!-- END OF HEADER -->
<rect style="opacity:1.0;fill:#FFFFFF;stroke:none" width="1000.0" height="1000.0" x="0.0" y="0.0"> </rect>
<ellipse cx="740.1" cy="673.4" rx="28.8" ry="26.0" class="atom-14" style="fill:#B20000;fill-rule:evenodd;stroke:#B20000;stroke-width:1.0px;stroke-linecap:butt;stroke-linejoin:miter;stroke-opacity:1"/>
<path class="bond-0 atom-1 atom-0" d="M 274.8,337.6 L 274.9,400.8" style="fill:none;fill-rule:evenodd;stroke:#000000;stroke-width:2.0px;stroke-linecap:butt;stroke-linejoin:miter;stroke-opacity:1"/>
<path class="bond-0 atom-1 atom-0" d="M 287.6,337.6 L 287.6,400.8" style="fill:none;fill-rule:evenodd;stroke:#000000;stroke-width:2.0px;stroke-linecap:butt;stroke-linejoin:miter;stroke-opacity:1"/>
<path class="bond-1 atom-2 atom-1" d="M 333.1,292.2 L 283.6,320.8" style="fill:none;fill-rule:evenodd;stroke:#000000;stroke-width:2.0px;stroke-linecap:butt;stroke-linejoin:miter;stroke-opacity:1"/>
<path class="bond-2 atom-3 atom-2" d="M 407.3,315.6 L 366.6,292.1" style="fill:none;fill-rule:evenodd;stroke:#000000;stroke-width:2.0px;stroke-linecap:butt;stroke-linejoin:miter;stroke-opacity:1"/>
<path class="bond-2 atom-3 atom-2" d="M 401.0,326.7 L 360.2,303.2" style="fill:none;fill-rule:evenodd;stroke:#000000;stroke-width:2.0px;stroke-linecap:butt;stroke-linejoin:miter;stroke-opacity:1"/>
<path class="bond-3 atom-4 atom-3" d="M 425.0,400.7 L 425.0,337.7" style="fill:none;fill-rule:evenodd;stroke:#000000;stroke-width:2.0px;stroke-linecap:butt;stroke-linejoin:miter;stroke-opacity:1"/>
<path class="bond-4 atom-5 atom-0" d="M 333.1,446.1 L 291.0,421.8" style="fill:none;fill-rule:evenodd;stroke:#000000;stroke-width:2.0px;stroke-linecap:butt;stroke-linejoin:miter;stroke-opacity:1"/>
<path class="bond-5 atom-5 atom-4" d="M 366.9,446.1 L 408.3,422.1" style="fill:none;fill-rule:evenodd;stroke:#000000;stroke-width:2.0px;stroke-linecap:butt;stroke-linejoin:miter;stroke-opacity:1"/>
<path class="bond-5 atom-5 atom-4" d="M 360.5,435.0 L 401.9,411.1" style="fill:none;fill-rule:evenodd;stroke:#000000;stroke-width:2.0px;stroke-linecap:butt;stroke-linejoin:miter;stroke-opacity:1"/>
<path class="bond-6 atom-6 atom-3" d="M 482.9,292.2 L 462.8,303.9" style="fill:none;fill-rule:evenodd;stroke:#0000FF;stroke-width:2.0px;stroke-linecap:butt;stroke-linejoin:miter;stroke-opacity:1"/>
<path class="bond-6 atom-6 atom-3" d="M 462.8,303.9 L 442.6,315.6" style="fill:none;fill-rule:evenodd;stroke:#000000;stroke-width:2.0px;stroke-linecap:butt;stroke-linejoin:miter;stroke-opacity:1"/>
<path class="bond-7 atom-7 atom-6" d="M 565.5,320.1 L 541.3,306.1" style="fill:none;fill-rule:evenodd;stroke:#000000;stroke-width:2.0px;stroke-linecap:butt;stroke-linejoin:miter;stroke-opacity:1"/>
<path class="bond-7 atom-7 atom-6" d="M 541.3,306.1 L 517.1,292.2" style="fill:none;fill-rule:evenodd;stroke:#0000FF;stroke-width:2.0px;stroke-linecap:butt;stroke-linejoin:miter;stroke-opacity:1"/>
<path class="bond-7 atom-7 atom-6" d="M 559.1,331.1 L 534.9,317.2" style="fill:none;fill-rule:evenodd;stroke:#000000;stroke-width:2.0px;stroke-linecap:butt;stroke-linejoin:miter;stroke-opacity:1"/>
<path class="bond-7 atom-7 atom-6" d="M 534.9,317.2 L 510.7,303.2" style="fill:none;fill-rule:evenodd;stroke:#0000FF;stroke-width:2.0px;stroke-linecap:butt;stroke-linejoin:miter;stroke-opacity:1"/>
<path class="bond-8 atom-8 atom-7" d="M 575.2,400.6 L 575.1,337.6" style="fill:none;fill-rule:evenodd;stroke:#000000;stroke-width:2.0px;stroke-linecap:butt;stroke-linejoin:miter;stroke-opacity:1"/>
<path class="bond-9 atom-9 atom-4" d="M 479.7,444.0 L 441.8,422.1" style="fill:none;fill-rule:evenodd;stroke:#000000;stroke-width:2.0px;stroke-linecap:butt;stroke-linejoin:miter;stroke-opacity:1"/>
<path class="bond-10 atom-9 atom-8" d="M 520.5,444.0 L 565.5,417.9" style="fill:none;fill-rule:evenodd;stroke:#000000;stroke-width:2.0px;stroke-linecap:butt;stroke-linejoin:miter;stroke-opacity:1"/>
<path class="bond-10 atom-9 atom-8" d="M 514.1,432.9 L 559.1,406.9" style="fill:none;fill-rule:evenodd;stroke:#000000;stroke-width:2.0px;stroke-linecap:butt;stroke-linejoin:miter;stroke-opacity:1"/>
<path class="bond-11 atom-10 atom-9" d="M 500.2,530.7 L 500.1,467.5" style="fill:none;fill-rule:evenodd;stroke:#000000;stroke-width:2.0px;stroke-linecap:butt;stroke-linejoin:miter;stroke-opacity:1"/>
<path class="bond-12 atom-11 atom-10" d="M 554.9,573.9 L 520.6,554.2" style="fill:none;fill-rule:evenodd;stroke:#000000;stroke-width:2.0px;stroke-linecap:butt;stroke-linejoin:miter;stroke-opacity:1"/>
<path class="bond-13 atom-12 atom-11" d="M 630.0,554.0 L 612.8,564.0" style="fill:none;fill-rule:evenodd;stroke:#0000FF;stroke-width:2.0px;stroke-linecap:butt;stroke-linejoin:miter;stroke-opacity:1"/>
<path class="bond-13 atom-12 atom-11" d="M 612.8,564.0 L 595.6,573.9" style="fill:none;fill-rule:evenodd;stroke:#000000;stroke-width:2.0px;stroke-linecap:butt;stroke-linejoin:miter;stroke-opacity:1"/>
<path class="bond-14 atom-13 atom-12" d="M 716.9,580.1 L 694.2,567.2" style="fill:none;fill-rule:evenodd;stroke:#000000;stroke-width:2.0px;stroke-linecap:butt;stroke-linejoin:miter;stroke-opacity:1"/>
<path class="bond-14 atom-13 atom-12" d="M 694.2,567.2 L 671.5,554.3" style="fill:none;fill-rule:evenodd;stroke:#0000FF;stroke-width:2.0px;stroke-linecap:butt;stroke-linejoin:miter;stroke-opacity:1"/>
<path class="bond-15 atom-14 atom-13" d="M 726.6,661.6 L 726.5,597.6" style="fill:none;fill-rule:evenodd;stroke:#000000;stroke-width:2.0px;stroke-linecap:butt;stroke-linejoin:miter;stroke-opacity:1"/>
<path class="bond-16 atom-15 atom-14" d="M 671.1,705.0 L 716.9,678.8" style="fill:none;fill-rule:evenodd;stroke:#000000;stroke-width:2.0px;stroke-linecap:butt;stroke-linejoin:miter;stroke-opacity:1"/>
<path class="bond-17 atom-16 atom-11" d="M 575.4,661.9 L 575.3,597.5" style="fill:none;fill-rule:evenodd;stroke:#000000;stroke-width:2.0px;stroke-linecap:butt;stroke-linejoin:miter;stroke-opacity:1"/>
<path class="bond-18 atom-16 atom-15" d="M 584.1,678.5 L 630.1,705.0" style="fill:none;fill-rule:evenodd;stroke:#000000;stroke-width:2.0px;stroke-linecap:butt;stroke-linejoin:miter;stroke-opacity:1"/>
<path class="bond-19 atom-17 atom-14" d="M 782.1,705.5 L 747.2,685.3" style="fill:none;fill-rule:evenodd;stroke:#000000;stroke-width:2.0px;stroke-linecap:butt;stroke-linejoin:miter;stroke-opacity:1"/>
<path class="bond-20 atom-18 atom-17" d="M 871.0,685.2 L 826.0,711.1" style="fill:none;fill-rule:evenodd;stroke:#000000;stroke-width:2.0px;stroke-linecap:butt;stroke-linejoin:miter;stroke-opacity:1"/>
<path class="bond-20 atom-18 atom-17" d="M 864.7,674.1 L 819.6,700.0" style="fill:none;fill-rule:evenodd;stroke:#000000;stroke-width:2.0px;stroke-linecap:butt;stroke-linejoin:miter;stroke-opacity:1"/>
<path class="bond-21 atom-19 atom-15" d="M 630.9,667.4 L 645.8,705.0" style="fill:none;fill-rule:evenodd;stroke:#000000;stroke-width:2.0px;stroke-linecap:butt;stroke-linejoin:miter;stroke-opacity:1"/>
<path class="bond-22 atom-20 atom-12" d="M 676.2,593.9 L 666.2,574.0" style="fill:none;fill-rule:evenodd;stroke:#000000;stroke-width:2.0px;stroke-linecap:butt;stroke-linejoin:miter;stroke-opacity:1"/>
<path class="bond-22 atom-20 atom-12" d="M 666.2,574.0 L 656.2,554.0" style="fill:none;fill-rule:evenodd;stroke:#0000FF;stroke-width:2.0px;stroke-linecap:butt;stroke-linejoin:miter;stroke-opacity:1"/>
<path class="bond-23 atom-20 atom-19" d="M 672.5,614.3 L 635.4,647.2" style="fill:none;fill-rule:evenodd;stroke:#000000;stroke-width:2.0px;stroke-linecap:butt;stroke-linejoin:miter;stroke-opacity:1"/>
<path class="bond-24 atom-21 atom-0" d="M 220.2,444.2 L 239.5,433.0" style="fill:none;fill-rule:evenodd;stroke:#FF0000;stroke-width:2.0px;stroke-linecap:butt;stroke-linejoin:miter;stroke-opacity:1"/>
<path class="bond-24 atom-21 atom-0" d="M 239.5,433.0 L 258.8,421.9" style="fill:none;fill-rule:evenodd;stroke:#000000;stroke-width:2.0px;stroke-linecap:butt;stroke-linejoin:miter;stroke-opacity:1"/>
<path class="bond-25 atom-22 atom-21" d="M 133.5,417.7 L 156.5,431.0" style="fill:none;fill-rule:evenodd;stroke:#000000;stroke-width:2.0px;stroke-linecap:butt;stroke-linejoin:miter;stroke-opacity:1"/>
<path class="bond-25 atom-22 atom-21" d="M 156.5,431.0 L 179.5,444.2" style="fill:none;fill-rule:evenodd;stroke:#FF0000;stroke-width:2.0px;stroke-linecap:butt;stroke-linejoin:miter;stroke-opacity:1"/>
<path class="bond-26 atom-23 atom-10" d="M 434.8,580.2 L 457.1,567.3" style="fill:none;fill-rule:evenodd;stroke:#FF0000;stroke-width:2.0px;stroke-linecap:butt;stroke-linejoin:miter;stroke-opacity:1"/>
<path class="bond-26 atom-23 atom-10" d="M 457.1,567.3 L 479.5,554.4" style="fill:none;fill-rule:evenodd;stroke:#000000;stroke-width:2.0px;stroke-linecap:butt;stroke-linejoin:miter;stroke-opacity:1"/>
<path class="atom-0" d="M 261.6 412.6 Q 261.6 408.2, 263.7 405.9 Q 265.8 403.6, 269.7 403.6 Q 273.3 403.6, 275.3 406.2 L 273.6 407.5 Q 272.2 405.7, 269.7 405.7 Q 267.0 405.7, 265.6 407.5 Q 264.2 409.2, 264.2 412.6 Q 264.2 416.1, 265.6 417.9 Q 267.1 419.7, 270.0 419.7 Q 271.9 419.7, 274.2 418.6 L 274.9 420.4 Q 274.0 421.0, 272.6 421.4 Q 271.2 421.7, 269.6 421.7 Q 265.8 421.7, 263.7 419.4 Q 261.6 417.0, 261.6 412.6 " fill="#000000"/>
<path class="atom-0" d="M 278.5 419.5 L 282.3 419.5 L 282.3 406.3 L 278.1 407.6 L 277.5 406.1 L 282.9 403.7 L 284.7 404.0 L 284.7 419.5 L 288.2 419.5 L 288.2 421.5 L 278.5 421.5 L 278.5 419.5 " fill="#000000"/>
<path class="atom-1" d="M 252.9 326.0 Q 252.9 321.6, 255.0 319.3 Q 257.1 316.9, 261.0 316.9 Q 264.6 316.9, 266.6 319.5 L 264.9 320.9 Q 263.5 319.0, 261.0 319.0 Q 258.3 319.0, 256.9 320.8 Q 255.5 322.6, 255.5 326.0 Q 255.5 329.5, 256.9 331.3 Q 258.4 333.1, 261.3 333.1 Q 263.2 333.1, 265.5 331.9 L 266.2 333.8 Q 265.3 334.4, 263.9 334.7 Q 262.5 335.1, 260.9 335.1 Q 257.1 335.1, 255.0 332.7 Q 252.9 330.4, 252.9 326.0 " fill="#000000"/>
<path class="atom-1" d="M 268.9 320.5 Q 269.6 318.8, 271.1 317.9 Q 272.7 316.9, 274.8 316.9 Q 277.5 316.9, 279.0 318.4 Q 280.5 319.8, 280.5 322.4 Q 280.5 325.0, 278.5 327.5 Q 276.6 329.9, 272.6 332.8 L 280.8 332.8 L 280.8 334.8 L 268.9 334.8 L 268.9 333.2 Q 272.2 330.8, 274.1 329.1 Q 276.1 327.3, 277.0 325.7 Q 278.0 324.2, 278.0 322.5 Q 278.0 320.8, 277.1 319.9 Q 276.3 318.9, 274.8 318.9 Q 273.4 318.9, 272.4 319.5 Q 271.5 320.1, 270.8 321.4 L 268.9 320.5 " fill="#000000"/>
<path class="atom-2" d="M 335.9 282.6 Q 335.9 278.2, 338.0 275.9 Q 340.1 273.5, 344.0 273.5 Q 347.6 273.5, 349.6 276.1 L 347.9 277.5 Q 346.5 275.6, 344.0 275.6 Q 341.3 275.6, 339.9 277.4 Q 338.5 279.2, 338.5 282.6 Q 338.5 286.1, 339.9 287.9 Q 341.4 289.7, 344.3 289.7 Q 346.2 289.7, 348.5 288.5 L 349.2 290.4 Q 348.3 291.0, 346.9 291.3 Q 345.5 291.7, 343.9 291.7 Q 340.1 291.7, 338.0 289.3 Q 335.9 287.0, 335.9 282.6 " fill="#000000"/>
<path class="atom-2" d="M 360.4 282.1 Q 362.1 282.6, 362.9 283.7 Q 363.8 284.8, 363.8 286.6 Q 363.8 288.1, 363.0 289.3 Q 362.3 290.4, 360.9 291.1 Q 359.5 291.7, 357.7 291.7 Q 355.8 291.7, 354.4 291.0 Q 353.0 290.4, 351.9 289.0 L 353.3 287.6 Q 354.4 288.8, 355.3 289.2 Q 356.2 289.7, 357.7 289.7 Q 359.3 289.7, 360.3 288.8 Q 361.3 288.0, 361.3 286.6 Q 361.3 284.8, 360.2 284.0 Q 359.2 283.1, 357.1 283.1 L 355.8 283.1 L 355.8 281.3 L 356.9 281.3 Q 358.8 281.3, 359.9 280.5 Q 360.9 279.6, 360.9 278.1 Q 360.9 276.9, 360.0 276.2 Q 359.2 275.5, 357.7 275.5 Q 356.3 275.5, 355.3 276.1 Q 354.4 276.6, 353.7 277.9 L 352.0 277.0 Q 352.6 275.5, 354.1 274.5 Q 355.6 273.5, 357.7 273.5 Q 360.3 273.5, 361.9 274.8 Q 363.4 276.0, 363.4 278.1 Q 363.4 279.5, 362.6 280.5 Q 361.8 281.5, 360.4 282.1 " fill="#000000"/>
<path class="atom-3" d="M 410.1 325.8 Q 410.1 321.4, 412.2 319.1 Q 414.3 316.8, 418.2 316.8 Q 421.8 316.8, 423.8 319.4 L 422.1 320.7 Q 420.7 318.9, 418.2 318.9 Q 415.5 318.9, 414.1 320.7 Q 412.7 322.4, 412.7 325.8 Q 412.7 329.3, 414.1 331.1 Q 415.6 332.9, 418.5 332.9 Q 420.4 332.9, 422.7 331.8 L 423.4 333.6 Q 422.5 334.2, 421.1 334.6 Q 419.7 334.9, 418.1 334.9 Q 414.3 334.9, 412.2 332.6 Q 410.1 330.2, 410.1 325.8 " fill="#000000"/>
<path class="atom-3" d="M 437.7 328.6 L 439.8 328.6 L 439.8 330.6 L 437.7 330.6 L 437.7 334.7 L 435.3 334.7 L 435.3 330.6 L 426.2 330.6 L 426.2 329.1 L 433.9 317.0 L 437.7 317.0 L 437.7 328.6 M 429.1 328.6 L 435.3 328.6 L 435.3 318.6 L 429.1 328.6 " fill="#000000"/>
<path class="atom-4" d="M 411.1 412.5 Q 411.1 408.1, 413.1 405.8 Q 415.2 403.5, 419.1 403.5 Q 422.8 403.5, 424.7 406.1 L 423.1 407.4 Q 421.7 405.5, 419.1 405.5 Q 416.5 405.5, 415.0 407.3 Q 413.6 409.1, 413.6 412.5 Q 413.6 416.0, 415.1 417.8 Q 416.6 419.6, 419.4 419.6 Q 421.4 419.6, 423.6 418.4 L 424.3 420.3 Q 423.4 420.9, 422.0 421.3 Q 420.6 421.6, 419.1 421.6 Q 415.2 421.6, 413.1 419.3 Q 411.1 416.9, 411.1 412.5 " fill="#000000"/>
<path class="atom-4" d="M 433.4 410.3 Q 435.0 410.3, 436.3 411.0 Q 437.5 411.6, 438.3 412.9 Q 439.0 414.1, 439.0 415.8 Q 439.0 417.6, 438.1 418.9 Q 437.2 420.2, 435.8 420.9 Q 434.3 421.6, 432.7 421.6 Q 431.0 421.6, 429.5 421.0 Q 428.0 420.4, 427.0 419.2 L 428.5 417.7 Q 429.3 418.6, 430.5 419.1 Q 431.6 419.6, 432.7 419.6 Q 434.3 419.6, 435.4 418.6 Q 436.5 417.6, 436.5 415.8 Q 436.5 414.0, 435.4 413.1 Q 434.3 412.2, 432.6 412.2 Q 431.0 412.2, 429.3 412.9 L 427.9 412.2 L 428.8 403.7 L 437.9 403.7 L 437.6 405.7 L 430.8 405.7 L 430.3 410.9 Q 431.9 410.3, 433.4 410.3 " fill="#000000"/>
<path class="atom-5" d="M 335.9 455.9 Q 335.9 451.5, 337.9 449.2 Q 340.0 446.9, 343.9 446.9 Q 347.6 446.9, 349.5 449.5 L 347.9 450.8 Q 346.5 448.9, 343.9 448.9 Q 341.3 448.9, 339.8 450.7 Q 338.4 452.5, 338.4 455.9 Q 338.4 459.4, 339.9 461.2 Q 341.4 463.0, 344.2 463.0 Q 346.2 463.0, 348.4 461.8 L 349.1 463.7 Q 348.2 464.3, 346.8 464.7 Q 345.4 465.0, 343.9 465.0 Q 340.0 465.0, 337.9 462.7 Q 335.9 460.3, 335.9 455.9 " fill="#000000"/>
<path class="atom-5" d="M 358.8 453.7 Q 360.3 453.7, 361.5 454.4 Q 362.8 455.1, 363.4 456.3 Q 364.1 457.5, 364.1 459.1 Q 364.1 460.8, 363.3 462.2 Q 362.6 463.5, 361.2 464.2 Q 359.9 465.0, 358.2 465.0 Q 355.0 465.0, 353.4 462.9 Q 351.8 460.7, 351.8 456.5 Q 351.8 451.8, 353.8 449.3 Q 355.8 446.9, 359.5 446.9 Q 360.6 446.9, 361.6 447.1 Q 362.5 447.4, 363.4 447.9 L 362.4 449.6 Q 361.1 448.9, 359.6 448.9 Q 357.1 448.9, 355.8 450.5 Q 354.5 452.1, 354.4 455.4 Q 355.3 454.6, 356.4 454.2 Q 357.5 453.7, 358.8 453.7 M 358.2 462.9 Q 359.1 462.9, 359.9 462.4 Q 360.7 461.9, 361.2 461.1 Q 361.6 460.2, 361.6 459.1 Q 361.6 457.5, 360.7 456.6 Q 359.9 455.7, 358.3 455.7 Q 357.2 455.7, 356.2 456.2 Q 355.1 456.6, 354.4 457.4 Q 354.5 460.3, 355.4 461.6 Q 356.3 462.9, 358.2 462.9 " fill="#000000"/>
<path class="atom-6" d="M 488.5 273.5 L 494.3 282.9 Q 494.9 283.8, 495.8 285.5 Q 496.8 287.2, 496.8 287.3 L 496.8 273.5 L 499.2 273.5 L 499.2 291.2 L 496.7 291.2 L 490.5 281.0 Q 489.8 279.8, 489.0 278.4 Q 488.3 277.0, 488.0 276.6 L 488.0 291.2 L 485.7 291.2 L 485.7 273.5 L 488.5 273.5 " fill="#0000FF"/>
<path class="atom-6" d="M 511.8 275.5 L 502.5 275.5 L 502.5 273.5 L 514.2 273.5 L 514.2 275.3 L 507.1 291.2 L 504.7 291.2 L 511.8 275.5 " fill="#0000FF"/>
<path class="atom-7" d="M 568.3 325.7 Q 568.3 321.3, 570.3 319.0 Q 572.4 316.7, 576.3 316.7 Q 580.0 316.7, 581.9 319.3 L 580.3 320.6 Q 578.8 318.7, 576.3 318.7 Q 573.6 318.7, 572.2 320.5 Q 570.8 322.3, 570.8 325.7 Q 570.8 329.2, 572.3 331.0 Q 573.7 332.8, 576.6 332.8 Q 578.5 332.8, 580.8 331.6 L 581.5 333.5 Q 580.6 334.1, 579.2 334.5 Q 577.8 334.8, 576.2 334.8 Q 572.4 334.8, 570.3 332.5 Q 568.3 330.1, 568.3 325.7 " fill="#000000"/>
<path class="atom-7" d="M 593.3 325.2 Q 594.9 325.9, 595.8 327.0 Q 596.7 328.0, 596.7 329.7 Q 596.7 331.2, 596.0 332.4 Q 595.2 333.6, 593.8 334.2 Q 592.4 334.8, 590.6 334.8 Q 587.6 334.8, 585.9 333.5 Q 584.2 332.1, 584.2 329.7 Q 584.2 328.3, 585.0 327.2 Q 585.7 326.1, 587.3 325.3 Q 586.1 324.6, 585.5 323.7 Q 584.9 322.7, 584.9 321.2 Q 584.9 319.1, 586.4 317.9 Q 587.9 316.7, 590.5 316.7 Q 593.1 316.7, 594.6 317.9 Q 596.1 319.1, 596.1 321.2 Q 596.1 322.5, 595.4 323.5 Q 594.7 324.4, 593.3 325.2 M 590.5 318.6 Q 589.0 318.6, 588.2 319.3 Q 587.4 320.0, 587.4 321.2 Q 587.4 322.1, 587.9 322.8 Q 588.5 323.4, 589.3 323.7 Q 590.1 324.1, 591.6 324.6 Q 592.7 323.8, 593.1 323.0 Q 593.6 322.2, 593.6 321.2 Q 593.6 320.0, 592.8 319.3 Q 592.0 318.6, 590.5 318.6 M 590.6 333.0 Q 592.2 333.0, 593.2 332.1 Q 594.2 331.2, 594.2 329.7 Q 594.2 328.8, 593.7 328.2 Q 593.2 327.6, 592.4 327.2 Q 591.6 326.9, 590.2 326.4 L 589.1 326.0 Q 587.8 326.8, 587.3 327.7 Q 586.7 328.6, 586.7 329.7 Q 586.7 331.2, 587.8 332.1 Q 588.8 333.0, 590.6 333.0 " fill="#000000"/>
<path class="atom-8" d="M 568.3 412.4 Q 568.3 408.0, 570.4 405.7 Q 572.5 403.4, 576.4 403.4 Q 580.0 403.4, 582.0 406.0 L 580.3 407.3 Q 578.9 405.4, 576.4 405.4 Q 573.7 405.4, 572.3 407.2 Q 570.9 409.0, 570.9 412.4 Q 570.9 415.9, 572.3 417.7 Q 573.8 419.5, 576.7 419.5 Q 578.6 419.5, 580.9 418.3 L 581.6 420.2 Q 580.7 420.8, 579.3 421.2 Q 577.9 421.5, 576.3 421.5 Q 572.5 421.5, 570.4 419.2 Q 568.3 416.8, 568.3 412.4 " fill="#000000"/>
<path class="atom-8" d="M 590.2 403.4 Q 593.4 403.4, 595.0 405.5 Q 596.6 407.7, 596.6 411.9 Q 596.6 416.6, 594.6 419.1 Q 592.6 421.5, 588.9 421.5 Q 587.8 421.5, 586.8 421.2 Q 585.9 421.0, 585.0 420.5 L 586.0 418.8 Q 587.3 419.5, 588.8 419.5 Q 591.3 419.5, 592.6 417.9 Q 593.9 416.3, 594.0 412.9 Q 593.1 413.8, 592.0 414.2 Q 590.9 414.6, 589.6 414.6 Q 588.1 414.6, 586.9 414.0 Q 585.6 413.3, 585.0 412.1 Q 584.3 410.8, 584.3 409.3 Q 584.3 407.6, 585.0 406.2 Q 585.8 404.9, 587.2 404.1 Q 588.5 403.4, 590.2 403.4 M 586.8 409.3 Q 586.8 410.8, 587.7 411.7 Q 588.5 412.6, 590.1 412.6 Q 591.2 412.6, 592.2 412.2 Q 593.3 411.8, 594.0 411.0 Q 593.9 408.1, 593.0 406.8 Q 592.1 405.4, 590.2 405.4 Q 589.3 405.4, 588.5 405.9 Q 587.7 406.4, 587.2 407.3 Q 586.8 408.2, 586.8 409.3 " fill="#000000"/>
<path class="atom-9" d="M 479.2 455.8 Q 479.2 451.4, 481.3 449.1 Q 483.4 446.8, 487.3 446.8 Q 490.9 446.8, 492.9 449.3 L 491.2 450.7 Q 489.8 448.8, 487.3 448.8 Q 484.6 448.8, 483.2 450.6 Q 481.8 452.4, 481.8 455.8 Q 481.8 459.3, 483.2 461.1 Q 484.7 462.9, 487.6 462.9 Q 489.5 462.9, 491.8 461.7 L 492.5 463.6 Q 491.6 464.2, 490.2 464.5 Q 488.8 464.9, 487.2 464.9 Q 483.4 464.9, 481.3 462.5 Q 479.2 460.2, 479.2 455.8 " fill="#000000"/>
<path class="atom-9" d="M 496.1 462.7 L 500.0 462.7 L 500.0 449.4 L 495.7 450.8 L 495.1 449.3 L 500.5 446.9 L 502.3 447.2 L 502.3 462.7 L 505.8 462.7 L 505.8 464.7 L 496.1 464.7 L 496.1 462.7 " fill="#000000"/>
<path class="atom-9" d="M 514.6 464.9 Q 511.3 464.9, 509.7 462.5 Q 508.1 460.1, 508.1 455.8 Q 508.1 451.5, 509.7 449.1 Q 511.3 446.8, 514.6 446.8 Q 517.8 446.8, 519.4 449.1 Q 521.0 451.5, 521.0 455.8 Q 521.0 460.1, 519.4 462.5 Q 517.8 464.9, 514.6 464.9 M 514.6 462.9 Q 516.5 462.9, 517.5 461.1 Q 518.5 459.3, 518.5 455.8 Q 518.5 452.3, 517.5 450.5 Q 516.5 448.8, 514.6 448.8 Q 512.7 448.8, 511.6 450.5 Q 510.6 452.3, 510.6 455.8 Q 510.6 459.3, 511.6 461.1 Q 512.7 462.9, 514.6 462.9 " fill="#000000"/>
<path class="atom-10" d="M 480.5 542.5 Q 480.5 538.1, 482.6 535.8 Q 484.6 533.5, 488.6 533.5 Q 492.2 533.5, 494.2 536.0 L 492.5 537.4 Q 491.1 535.5, 488.6 535.5 Q 485.9 535.5, 484.5 537.3 Q 483.1 539.1, 483.1 542.5 Q 483.1 546.0, 484.5 547.8 Q 486.0 549.6, 488.8 549.6 Q 490.8 549.6, 493.1 548.4 L 493.8 550.3 Q 492.8 550.9, 491.4 551.2 Q 490.0 551.6, 488.5 551.6 Q 484.6 551.6, 482.6 549.2 Q 480.5 546.9, 480.5 542.5 " fill="#000000"/>
<path class="atom-10" d="M 497.3 549.4 L 501.2 549.4 L 501.2 536.1 L 496.9 537.5 L 496.3 536.0 L 501.8 533.6 L 503.5 533.9 L 503.5 549.4 L 507.0 549.4 L 507.0 551.4 L 497.3 551.4 L 497.3 549.4 " fill="#000000"/>
<path class="atom-10" d="M 510.2 549.4 L 514.1 549.4 L 514.1 536.1 L 509.8 537.5 L 509.2 536.0 L 514.6 533.6 L 516.4 533.9 L 516.4 549.4 L 519.9 549.4 L 519.9 551.4 L 510.2 551.4 L 510.2 549.4 " fill="#000000"/>
<path class="atom-11" d="M 554.9 585.8 Q 554.9 581.4, 557.0 579.1 Q 559.1 576.7, 563.0 576.7 Q 566.6 576.7, 568.6 579.3 L 566.9 580.7 Q 565.5 578.8, 563.0 578.8 Q 560.3 578.8, 558.9 580.6 Q 557.5 582.4, 557.5 585.8 Q 557.5 589.3, 558.9 591.1 Q 560.4 592.9, 563.3 592.9 Q 565.2 592.9, 567.5 591.7 L 568.2 593.6 Q 567.3 594.2, 565.9 594.5 Q 564.5 594.9, 562.9 594.9 Q 559.1 594.9, 557.0 592.5 Q 554.9 590.2, 554.9 585.8 " fill="#000000"/>
<path class="atom-11" d="M 571.8 592.6 L 575.7 592.6 L 575.7 579.4 L 571.4 580.7 L 570.8 579.3 L 576.2 576.8 L 578.0 577.1 L 578.0 592.6 L 581.5 592.6 L 581.5 594.6 L 571.8 594.6 L 571.8 592.6 " fill="#000000"/>
<path class="atom-11" d="M 583.8 580.3 Q 584.4 578.6, 586.0 577.7 Q 587.5 576.7, 589.7 576.7 Q 592.4 576.7, 593.9 578.2 Q 595.4 579.6, 595.4 582.2 Q 595.4 584.8, 593.4 587.3 Q 591.5 589.7, 587.5 592.6 L 595.7 592.6 L 595.7 594.6 L 583.7 594.6 L 583.7 593.0 Q 587.0 590.6, 589.0 588.9 Q 591.0 587.1, 591.9 585.5 Q 592.9 584.0, 592.9 582.3 Q 592.9 580.6, 592.0 579.7 Q 591.2 578.7, 589.7 578.7 Q 588.3 578.7, 587.3 579.3 Q 586.4 579.9, 585.7 581.2 L 583.8 580.3 " fill="#000000"/>
<path class="atom-12" d="M 632.4 533.5 L 638.2 542.9 Q 638.7 543.8, 639.7 545.5 Q 640.6 547.2, 640.6 547.3 L 640.6 533.5 L 643.0 533.5 L 643.0 551.2 L 640.6 551.2 L 634.3 541.0 Q 633.6 539.8, 632.8 538.4 Q 632.1 537.0, 631.9 536.6 L 631.9 551.2 L 629.6 551.2 L 629.6 533.5 L 632.4 533.5 " fill="#0000FF"/>
<path class="atom-12" d="M 647.2 549.2 L 651.1 549.2 L 651.1 536.0 L 646.8 537.3 L 646.3 535.9 L 651.7 533.4 L 653.5 533.7 L 653.5 549.2 L 656.9 549.2 L 656.9 551.2 L 647.2 551.2 L 647.2 549.2 " fill="#0000FF"/>
<path class="atom-12" d="M 667.7 541.9 Q 669.4 542.4, 670.2 543.5 Q 671.1 544.6, 671.1 546.4 Q 671.1 547.9, 670.3 549.1 Q 669.6 550.2, 668.2 550.9 Q 666.8 551.5, 665.0 551.5 Q 663.1 551.5, 661.7 550.8 Q 660.3 550.2, 659.2 548.8 L 660.6 547.4 Q 661.7 548.6, 662.6 549.0 Q 663.6 549.5, 665.0 549.5 Q 666.6 549.5, 667.6 548.6 Q 668.6 547.8, 668.6 546.4 Q 668.6 544.6, 667.6 543.8 Q 666.6 542.9, 664.4 542.9 L 663.1 542.9 L 663.1 541.1 L 664.2 541.1 Q 666.2 541.1, 667.2 540.3 Q 668.2 539.4, 668.2 537.9 Q 668.2 536.7, 667.4 536.0 Q 666.5 535.3, 665.1 535.3 Q 663.6 535.3, 662.7 535.9 Q 661.8 536.4, 661.1 537.7 L 659.3 536.8 Q 660.0 535.3, 661.5 534.3 Q 663.0 533.3, 665.1 533.3 Q 667.7 533.3, 669.2 534.6 Q 670.7 535.8, 670.7 537.9 Q 670.7 539.3, 669.9 540.3 Q 669.2 541.3, 667.7 541.9 " fill="#0000FF"/>
<path class="atom-13" d="M 719.7 585.6 Q 719.7 581.2, 721.7 578.9 Q 723.8 576.6, 727.7 576.6 Q 731.4 576.6, 733.3 579.2 L 731.7 580.5 Q 730.3 578.7, 727.7 578.7 Q 725.1 578.7, 723.6 580.5 Q 722.2 582.2, 722.2 585.6 Q 722.2 589.1, 723.7 590.9 Q 725.2 592.7, 728.0 592.7 Q 730.0 592.7, 732.2 591.6 L 732.9 593.4 Q 732.0 594.0, 730.6 594.4 Q 729.2 594.7, 727.7 594.7 Q 723.8 594.7, 721.7 592.4 Q 719.7 590.0, 719.7 585.6 " fill="#000000"/>
<path class="atom-13" d="M 736.6 592.5 L 740.5 592.5 L 740.5 579.3 L 736.2 580.6 L 735.6 579.1 L 741.0 576.7 L 742.8 577.0 L 742.8 592.5 L 746.3 592.5 L 746.3 594.5 L 736.6 594.5 L 736.6 592.5 " fill="#000000"/>
<path class="atom-13" d="M 760.1 588.4 L 762.2 588.4 L 762.2 590.4 L 760.1 590.4 L 760.1 594.5 L 757.7 594.5 L 757.7 590.4 L 748.6 590.4 L 748.6 588.9 L 756.3 576.8 L 760.1 576.8 L 760.1 588.4 M 751.5 588.4 L 757.7 588.4 L 757.7 578.4 L 751.5 588.4 " fill="#000000"/>
<path class="atom-14" d="M 719.7 673.4 Q 719.7 669.0, 721.8 666.7 Q 723.9 664.4, 727.8 664.4 Q 731.4 664.4, 733.4 667.0 L 731.7 668.3 Q 730.3 666.4, 727.8 666.4 Q 725.1 666.4, 723.7 668.2 Q 722.3 670.0, 722.3 673.4 Q 722.3 676.9, 723.7 678.7 Q 725.2 680.5, 728.1 680.5 Q 730.0 680.5, 732.3 679.3 L 733.0 681.2 Q 732.1 681.8, 730.7 682.2 Q 729.3 682.5, 727.7 682.5 Q 723.9 682.5, 721.8 680.2 Q 719.7 677.8, 719.7 673.4 " fill="#000000"/>
<path class="atom-14" d="M 736.6 680.3 L 740.4 680.3 L 740.4 667.1 L 736.2 668.4 L 735.6 666.9 L 741.0 664.5 L 742.8 664.8 L 742.8 680.3 L 746.3 680.3 L 746.3 682.3 L 736.6 682.3 L 736.6 680.3 " fill="#000000"/>
<path class="atom-14" d="M 755.0 671.2 Q 756.5 671.2, 757.8 671.9 Q 759.1 672.5, 759.8 673.8 Q 760.5 675.0, 760.5 676.7 Q 760.5 678.5, 759.6 679.8 Q 758.7 681.1, 757.3 681.8 Q 755.8 682.5, 754.2 682.5 Q 752.6 682.5, 751.1 681.9 Q 749.6 681.3, 748.5 680.1 L 750.0 678.6 Q 750.9 679.5, 752.0 680.0 Q 753.1 680.5, 754.3 680.5 Q 755.8 680.5, 756.9 679.5 Q 758.0 678.5, 758.0 676.7 Q 758.0 674.9, 756.9 674.0 Q 755.8 673.1, 754.1 673.1 Q 752.6 673.1, 750.8 673.8 L 749.5 673.1 L 750.3 664.6 L 759.4 664.6 L 759.2 666.6 L 752.4 666.6 L 751.8 671.8 Q 753.4 671.2, 755.0 671.2 " fill="#000000"/>
<path class="atom-15" d="M 629.9 716.8 Q 629.9 712.4, 632.0 710.1 Q 634.1 707.8, 638.0 707.8 Q 641.6 707.8, 643.6 710.3 L 641.9 711.7 Q 640.5 709.8, 638.0 709.8 Q 635.3 709.8, 633.9 711.6 Q 632.5 713.4, 632.5 716.8 Q 632.5 720.3, 633.9 722.1 Q 635.4 723.9, 638.3 723.9 Q 640.2 723.9, 642.5 722.7 L 643.2 724.6 Q 642.3 725.2, 640.9 725.5 Q 639.5 725.9, 637.9 725.9 Q 634.1 725.9, 632.0 723.5 Q 629.9 721.2, 629.9 716.8 " fill="#000000"/>
<path class="atom-15" d="M 646.8 723.7 L 650.6 723.7 L 650.6 710.4 L 646.4 711.8 L 645.8 710.3 L 651.2 707.9 L 653.0 708.2 L 653.0 723.7 L 656.5 723.7 L 656.5 725.7 L 646.8 725.7 L 646.8 723.7 " fill="#000000"/>
<path class="atom-15" d="M 665.7 714.6 Q 667.2 714.6, 668.4 715.3 Q 669.7 716.0, 670.3 717.2 Q 671.0 718.4, 671.0 720.0 Q 671.0 721.7, 670.2 723.0 Q 669.5 724.4, 668.1 725.1 Q 666.8 725.9, 665.1 725.9 Q 661.9 725.9, 660.3 723.7 Q 658.7 721.6, 658.7 717.3 Q 658.7 712.6, 660.7 710.2 Q 662.7 707.8, 666.4 707.8 Q 667.5 707.8, 668.5 708.0 Q 669.4 708.3, 670.3 708.8 L 669.3 710.5 Q 668.0 709.8, 666.5 709.8 Q 664.0 709.8, 662.7 711.4 Q 661.4 713.0, 661.3 716.3 Q 662.2 715.5, 663.3 715.1 Q 664.4 714.6, 665.7 714.6 M 665.1 723.8 Q 666.0 723.8, 666.8 723.3 Q 667.6 722.8, 668.1 721.9 Q 668.5 721.1, 668.5 720.0 Q 668.5 718.4, 667.6 717.5 Q 666.8 716.6, 665.2 716.6 Q 664.1 716.6, 663.1 717.1 Q 662.0 717.5, 661.3 718.2 Q 661.4 721.2, 662.3 722.5 Q 663.2 723.8, 665.1 723.8 " fill="#000000"/>
<path class="atom-16" d="M 540.7 673.5 Q 540.7 669.1, 542.8 666.8 Q 544.8 664.5, 548.8 664.5 Q 552.4 664.5, 554.4 667.1 L 552.7 668.4 Q 551.3 666.6, 548.8 666.6 Q 546.1 666.6, 544.7 668.4 Q 543.3 670.1, 543.3 673.5 Q 543.3 677.0, 544.7 678.8 Q 546.2 680.6, 549.0 680.6 Q 551.0 680.6, 553.3 679.5 L 554.0 681.3 Q 553.0 681.9, 551.6 682.3 Q 550.2 682.6, 548.7 682.6 Q 544.8 682.6, 542.8 680.3 Q 540.7 677.9, 540.7 673.5 " fill="#000000"/>
<path class="atom-16" d="M 557.5 680.4 L 561.4 680.4 L 561.4 667.2 L 557.1 668.5 L 556.6 667.0 L 562.0 664.6 L 563.8 664.9 L 563.8 680.4 L 567.2 680.4 L 567.2 682.4 L 557.5 682.4 L 557.5 680.4 " fill="#000000"/>
<path class="atom-16" d="M 578.8 666.7 L 569.5 666.7 L 569.5 664.7 L 581.2 664.7 L 581.2 666.5 L 574.1 682.4 L 571.7 682.4 L 578.8 666.7 " fill="#000000"/>
<path class="atom-17" d="M 781.7 717.4 Q 781.7 713.0, 783.7 710.7 Q 785.8 708.3, 789.7 708.3 Q 793.4 708.3, 795.3 710.9 L 793.7 712.3 Q 792.2 710.4, 789.7 710.4 Q 787.0 710.4, 785.6 712.2 Q 784.2 714.0, 784.2 717.4 Q 784.2 720.9, 785.7 722.7 Q 787.1 724.5, 790.0 724.5 Q 791.9 724.5, 794.2 723.3 L 794.9 725.2 Q 794.0 725.8, 792.6 726.1 Q 791.2 726.5, 789.6 726.5 Q 785.8 726.5, 783.7 724.1 Q 781.7 721.8, 781.7 717.4 " fill="#000000"/>
<path class="atom-17" d="M 798.5 724.2 L 802.4 724.2 L 802.4 711.0 L 798.1 712.3 L 797.5 710.9 L 803.0 708.4 L 804.7 708.7 L 804.7 724.2 L 808.2 724.2 L 808.2 726.2 L 798.5 726.2 L 798.5 724.2 " fill="#000000"/>
<path class="atom-17" d="M 819.5 716.9 Q 821.1 717.6, 822.1 718.6 Q 823.0 719.6, 823.0 721.4 Q 823.0 722.9, 822.2 724.1 Q 821.4 725.2, 820.0 725.9 Q 818.7 726.5, 816.8 726.5 Q 813.9 726.5, 812.2 725.1 Q 810.5 723.8, 810.5 721.4 Q 810.5 719.9, 811.2 718.9 Q 812.0 717.8, 813.5 716.9 Q 812.4 716.3, 811.8 715.3 Q 811.1 714.4, 811.1 712.9 Q 811.1 710.8, 812.6 709.6 Q 814.2 708.3, 816.7 708.3 Q 819.3 708.3, 820.8 709.6 Q 822.3 710.8, 822.3 712.9 Q 822.3 714.2, 821.6 715.1 Q 820.9 716.1, 819.5 716.9 M 816.7 710.2 Q 815.3 710.2, 814.4 710.9 Q 813.6 711.6, 813.6 712.9 Q 813.6 713.8, 814.2 714.4 Q 814.7 715.0, 815.5 715.4 Q 816.3 715.7, 817.8 716.2 Q 818.9 715.5, 819.4 714.7 Q 819.8 713.9, 819.8 712.9 Q 819.8 711.6, 819.0 710.9 Q 818.2 710.2, 816.7 710.2 M 816.8 724.6 Q 818.5 724.6, 819.5 723.7 Q 820.5 722.8, 820.5 721.4 Q 820.5 720.4, 820.0 719.8 Q 819.4 719.2, 818.6 718.9 Q 817.9 718.5, 816.5 718.1 L 815.3 717.7 Q 814.1 718.4, 813.5 719.3 Q 813.0 720.2, 813.0 721.4 Q 813.0 722.8, 814.0 723.7 Q 815.1 724.6, 816.8 724.6 " fill="#000000"/>
<path class="atom-18" d="M 870.7 674.2 Q 870.7 669.8, 872.7 667.5 Q 874.8 665.2, 878.7 665.2 Q 882.4 665.2, 884.3 667.8 L 882.7 669.1 Q 881.2 667.2, 878.7 667.2 Q 876.0 667.2, 874.6 669.0 Q 873.2 670.8, 873.2 674.2 Q 873.2 677.7, 874.7 679.5 Q 876.1 681.3, 879.0 681.3 Q 880.9 681.3, 883.2 680.1 L 883.9 682.0 Q 883.0 682.6, 881.6 683.0 Q 880.2 683.3, 878.6 683.3 Q 874.8 683.3, 872.7 681.0 Q 870.7 678.6, 870.7 674.2 " fill="#000000"/>
<path class="atom-18" d="M 887.5 681.1 L 891.4 681.1 L 891.4 667.9 L 887.1 669.2 L 886.5 667.7 L 892.0 665.3 L 893.7 665.6 L 893.7 681.1 L 897.2 681.1 L 897.2 683.1 L 887.5 683.1 L 887.5 681.1 " fill="#000000"/>
<path class="atom-18" d="M 905.4 665.2 Q 908.6 665.2, 910.2 667.3 Q 911.8 669.5, 911.8 673.7 Q 911.8 678.4, 909.8 680.9 Q 907.8 683.3, 904.1 683.3 Q 903.0 683.3, 902.0 683.0 Q 901.1 682.8, 900.2 682.3 L 901.2 680.6 Q 902.5 681.3, 904.0 681.3 Q 906.5 681.3, 907.8 679.7 Q 909.1 678.1, 909.2 674.7 Q 908.3 675.6, 907.2 676.0 Q 906.1 676.4, 904.8 676.4 Q 903.3 676.4, 902.1 675.8 Q 900.8 675.1, 900.2 673.9 Q 899.5 672.6, 899.5 671.1 Q 899.5 669.4, 900.2 668.0 Q 901.0 666.7, 902.4 665.9 Q 903.7 665.2, 905.4 665.2 M 902.0 671.1 Q 902.0 672.6, 902.9 673.5 Q 903.7 674.4, 905.3 674.4 Q 906.4 674.4, 907.4 674.0 Q 908.5 673.6, 909.2 672.8 Q 909.1 669.9, 908.2 668.6 Q 907.3 667.2, 905.4 667.2 Q 904.5 667.2, 903.7 667.7 Q 902.9 668.2, 902.4 669.1 Q 902.0 670.0, 902.0 671.1 " fill="#000000"/>
<path class="atom-19" d="M 589.0 655.5 Q 589.0 651.1, 591.0 648.8 Q 593.1 646.5, 597.0 646.5 Q 600.7 646.5, 602.6 649.0 L 601.0 650.4 Q 599.6 648.5, 597.0 648.5 Q 594.4 648.5, 592.9 650.3 Q 591.5 652.1, 591.5 655.5 Q 591.5 659.0, 593.0 660.8 Q 594.5 662.6, 597.3 662.6 Q 599.3 662.6, 601.5 661.4 L 602.2 663.3 Q 601.3 663.9, 599.9 664.2 Q 598.5 664.6, 597.0 664.6 Q 593.1 664.6, 591.0 662.2 Q 589.0 659.9, 589.0 655.5 " fill="#000000"/>
<path class="atom-19" d="M 605.0 650.0 Q 605.6 648.3, 607.2 647.4 Q 608.7 646.5, 610.9 646.5 Q 613.5 646.5, 615.0 647.9 Q 616.5 649.4, 616.5 651.9 Q 616.5 654.6, 614.6 657.0 Q 612.7 659.5, 608.7 662.4 L 616.8 662.4 L 616.8 664.4 L 604.9 664.4 L 604.9 662.7 Q 608.2 660.3, 610.2 658.6 Q 612.1 656.8, 613.1 655.3 Q 614.0 653.7, 614.0 652.1 Q 614.0 650.4, 613.2 649.4 Q 612.3 648.5, 610.9 648.5 Q 609.4 648.5, 608.5 649.0 Q 607.5 649.6, 606.9 650.9 L 605.0 650.0 " fill="#000000"/>
<path class="atom-19" d="M 626.1 664.6 Q 622.8 664.6, 621.2 662.2 Q 619.6 659.8, 619.6 655.5 Q 619.6 651.2, 621.2 648.8 Q 622.8 646.5, 626.1 646.5 Q 629.4 646.5, 631.0 648.8 Q 632.6 651.2, 632.6 655.5 Q 632.6 659.8, 630.9 662.2 Q 629.3 664.6, 626.1 664.6 M 626.1 662.6 Q 628.0 662.6, 629.0 660.8 Q 630.1 659.0, 630.1 655.5 Q 630.1 652.0, 629.0 650.2 Q 628.0 648.5, 626.1 648.5 Q 624.2 648.5, 623.1 650.2 Q 622.1 652.0, 622.1 655.5 Q 622.1 659.0, 623.1 660.8 Q 624.2 662.6, 626.1 662.6 " fill="#000000"/>
<path class="atom-20" d="M 675.3 605.8 Q 675.3 601.4, 677.3 599.1 Q 679.4 596.7, 683.3 596.7 Q 687.0 596.7, 688.9 599.3 L 687.3 600.7 Q 685.8 598.8, 683.3 598.8 Q 680.6 598.8, 679.2 600.6 Q 677.8 602.4, 677.8 605.8 Q 677.8 609.3, 679.3 611.1 Q 680.7 612.9, 683.6 612.9 Q 685.5 612.9, 687.8 611.7 L 688.5 613.6 Q 687.6 614.2, 686.2 614.5 Q 684.8 614.9, 683.2 614.9 Q 679.4 614.9, 677.3 612.5 Q 675.3 610.2, 675.3 605.8 " fill="#000000"/>
<path class="atom-20" d="M 691.2 600.3 Q 691.8 598.6, 693.4 597.7 Q 694.9 596.7, 697.1 596.7 Q 699.8 596.7, 701.3 598.2 Q 702.8 599.6, 702.8 602.2 Q 702.8 604.8, 700.8 607.3 Q 698.9 609.7, 694.9 612.6 L 703.1 612.6 L 703.1 614.6 L 691.1 614.6 L 691.1 613.0 Q 694.4 610.6, 696.4 608.9 Q 698.4 607.1, 699.3 605.5 Q 700.3 604.0, 700.3 602.3 Q 700.3 600.6, 699.4 599.7 Q 698.6 598.7, 697.1 598.7 Q 695.7 598.7, 694.7 599.3 Q 693.8 599.9, 693.1 601.2 L 691.2 600.3 " fill="#000000"/>
<path class="atom-20" d="M 706.7 612.6 L 710.6 612.6 L 710.6 599.4 L 706.3 600.7 L 705.8 599.3 L 711.2 596.8 L 713.0 597.1 L 713.0 612.6 L 716.4 612.6 L 716.4 614.6 L 706.7 614.6 L 706.7 612.6 " fill="#000000"/>
<path class="atom-21" d="M 177.1 456.0 Q 177.1 451.8, 179.2 449.4 Q 181.3 447.0, 185.2 447.0 Q 189.2 447.0, 191.3 449.4 Q 193.4 451.8, 193.4 456.0 Q 193.4 460.3, 191.2 462.8 Q 189.1 465.2, 185.2 465.2 Q 181.3 465.2, 179.2 462.8 Q 177.1 460.3, 177.1 456.0 M 185.2 463.2 Q 187.9 463.2, 189.4 461.4 Q 190.9 459.6, 190.9 456.0 Q 190.9 452.5, 189.4 450.8 Q 187.9 449.0, 185.2 449.0 Q 182.5 449.0, 181.1 450.8 Q 179.6 452.5, 179.6 456.0 Q 179.6 459.6, 181.1 461.4 Q 182.5 463.2, 185.2 463.2 " fill="#FF0000"/>
<path class="atom-21" d="M 196.0 450.6 Q 196.6 448.9, 198.2 448.0 Q 199.7 447.0, 201.9 447.0 Q 204.6 447.0, 206.1 448.5 Q 207.6 449.9, 207.6 452.5 Q 207.6 455.1, 205.6 457.6 Q 203.7 460.0, 199.7 462.9 L 207.9 462.9 L 207.9 464.9 L 195.9 464.9 L 195.9 463.2 Q 199.2 460.9, 201.2 459.1 Q 203.2 457.4, 204.1 455.8 Q 205.1 454.2, 205.1 452.6 Q 205.1 450.9, 204.2 450.0 Q 203.4 449.0, 201.9 449.0 Q 200.5 449.0, 199.5 449.6 Q 198.6 450.2, 197.9 451.4 L 196.0 450.6 " fill="#FF0000"/>
<path class="atom-21" d="M 210.8 450.6 Q 211.4 448.9, 213.0 448.0 Q 214.5 447.0, 216.7 447.0 Q 219.3 447.0, 220.8 448.5 Q 222.3 449.9, 222.3 452.5 Q 222.3 455.1, 220.4 457.6 Q 218.5 460.0, 214.5 462.9 L 222.6 462.9 L 222.6 464.9 L 210.7 464.9 L 210.7 463.2 Q 214.0 460.9, 216.0 459.1 Q 217.9 457.4, 218.9 455.8 Q 219.8 454.2, 219.8 452.6 Q 219.8 450.9, 219.0 450.0 Q 218.1 449.0, 216.7 449.0 Q 215.2 449.0, 214.3 449.6 Q 213.3 450.2, 212.7 451.4 L 210.8 450.6 " fill="#FF0000"/>
<path class="atom-22" d="M 88.2 412.7 Q 88.2 408.3, 90.3 406.0 Q 92.4 403.7, 96.3 403.7 Q 99.9 403.7, 101.9 406.3 L 100.2 407.6 Q 98.8 405.8, 96.3 405.8 Q 93.6 405.8, 92.2 407.6 Q 90.8 409.3, 90.8 412.7 Q 90.8 416.2, 92.2 418.0 Q 93.7 419.8, 96.6 419.8 Q 98.5 419.8, 100.8 418.7 L 101.5 420.5 Q 100.6 421.1, 99.2 421.5 Q 97.8 421.8, 96.2 421.8 Q 92.4 421.8, 90.3 419.5 Q 88.2 417.1, 88.2 412.7 " fill="#000000"/>
<path class="atom-22" d="M 104.2 407.3 Q 104.8 405.6, 106.4 404.7 Q 107.9 403.7, 110.1 403.7 Q 112.8 403.7, 114.3 405.2 Q 115.8 406.6, 115.8 409.2 Q 115.8 411.8, 113.8 414.3 Q 111.9 416.7, 107.9 419.6 L 116.1 419.6 L 116.1 421.6 L 104.1 421.6 L 104.1 419.9 Q 107.4 417.6, 109.4 415.8 Q 111.4 414.1, 112.3 412.5 Q 113.3 410.9, 113.3 409.3 Q 113.3 407.6, 112.4 406.7 Q 111.6 405.7, 110.1 405.7 Q 108.7 405.7, 107.7 406.3 Q 106.8 406.9, 106.1 408.1 L 104.2 407.3 " fill="#000000"/>
<path class="atom-22" d="M 127.3 412.3 Q 129.0 412.8, 129.9 413.9 Q 130.7 415.0, 130.7 416.8 Q 130.7 418.3, 130.0 419.4 Q 129.2 420.6, 127.8 421.2 Q 126.5 421.9, 124.7 421.9 Q 122.8 421.9, 121.3 421.2 Q 119.9 420.5, 118.8 419.2 L 120.2 417.7 Q 121.3 418.9, 122.3 419.4 Q 123.2 419.9, 124.7 419.9 Q 126.3 419.9, 127.2 419.0 Q 128.2 418.1, 128.2 416.7 Q 128.2 414.9, 127.2 414.1 Q 126.2 413.3, 124.0 413.3 L 122.7 413.3 L 122.7 411.5 L 123.9 411.5 Q 125.8 411.5, 126.8 410.7 Q 127.8 409.8, 127.8 408.2 Q 127.8 407.1, 127.0 406.4 Q 126.1 405.7, 124.7 405.7 Q 123.2 405.7, 122.3 406.2 Q 121.4 406.8, 120.7 408.1 L 119.0 407.2 Q 119.6 405.7, 121.1 404.7 Q 122.6 403.7, 124.7 403.7 Q 127.3 403.7, 128.8 404.9 Q 130.3 406.2, 130.3 408.2 Q 130.3 409.7, 129.6 410.7 Q 128.8 411.7, 127.3 412.3 " fill="#000000"/>
<path class="atom-23" d="M 384.6 585.9 Q 384.6 581.6, 386.7 579.2 Q 388.8 576.9, 392.8 576.9 Q 396.7 576.9, 398.8 579.2 Q 400.9 581.6, 400.9 585.9 Q 400.9 590.2, 398.8 592.6 Q 396.6 595.0, 392.8 595.0 Q 388.9 595.0, 386.7 592.6 Q 384.6 590.2, 384.6 585.9 M 392.8 593.0 Q 395.5 593.0, 396.9 591.2 Q 398.4 589.4, 398.4 585.9 Q 398.4 582.4, 396.9 580.6 Q 395.5 578.9, 392.8 578.9 Q 390.1 578.9, 388.6 580.6 Q 387.1 582.4, 387.1 585.9 Q 387.1 589.4, 388.6 591.2 Q 390.1 593.0, 392.8 593.0 " fill="#FF0000"/>
<path class="atom-23" d="M 403.6 580.4 Q 404.2 578.7, 405.8 577.8 Q 407.3 576.9, 409.5 576.9 Q 412.2 576.9, 413.7 578.3 Q 415.2 579.8, 415.2 582.3 Q 415.2 585.0, 413.2 587.4 Q 411.3 589.9, 407.3 592.8 L 415.5 592.8 L 415.5 594.8 L 403.5 594.8 L 403.5 593.1 Q 406.8 590.7, 408.8 589.0 Q 410.8 587.2, 411.7 585.7 Q 412.7 584.1, 412.7 582.5 Q 412.7 580.8, 411.8 579.8 Q 411.0 578.9, 409.5 578.9 Q 408.1 578.9, 407.1 579.4 Q 406.2 580.0, 405.5 581.3 L 403.6 580.4 " fill="#FF0000"/>
<path class="atom-23" d="M 429.9 588.7 L 432.0 588.7 L 432.0 590.7 L 429.9 590.7 L 429.9 594.8 L 427.5 594.8 L 427.5 590.7 L 418.4 590.7 L 418.4 589.1 L 426.1 577.1 L 429.9 577.1 L 429.9 588.7 M 421.3 588.7 L 427.5 588.7 L 427.5 578.7 L 421.3 588.7 " fill="#FF0000"/>
<text x="1000" y="50" font-size="8" font-family="Verdana" font-weight="normal" letter-spacing="0" text-anchor="start" fill="black">Highlighted Atoms:
Primary SOM: Red
Secondary SOM: Green
Tertiary SOM: Cyan
</text></svg>
