<?xml version='1.0' encoding='ASCII' standalone='yes'?>
<svg xmlns="http://www.w3.org/2000/svg" xmlns:rdkit="http://www.rdkit.org/xml" xmlns:xlink="http://www.w3.org/1999/xlink" style="background-color: white;" version="1.1" baseProfile="full" xml:space="preserve" width="1000px" height="1000px" viewBox="0 0 1000 1000">
<!-- END OF HEADER -->
<rect style="opacity:1.0;fill:#FFFFFF;stroke:none" width="1000.0" height="1000.0" x="0.0" y="0.0"> </rect>
<ellipse cx="885.3" cy="657.5" rx="28.7" ry="23.5" class="atom-16" style="fill:#B20000;fill-rule:evenodd;stroke:#B20000;stroke-width:1.0px;stroke-linecap:butt;stroke-linejoin:miter;stroke-opacity:1"/>
<path class="bond-0 atom-1 atom-0" d="M 601.2,433.0 L 601.0,488.1" style="fill:none;fill-rule:evenodd;stroke:#000000;stroke-width:2.0px;stroke-linecap:butt;stroke-linejoin:miter;stroke-opacity:1"/>
<path class="bond-1 atom-2 atom-1" d="M 659.8,387.7 L 617.7,411.8" style="fill:none;fill-rule:evenodd;stroke:#000000;stroke-width:2.0px;stroke-linecap:butt;stroke-linejoin:miter;stroke-opacity:1"/>
<path class="bond-1 atom-2 atom-1" d="M 654.0,377.5 L 611.9,401.6" style="fill:none;fill-rule:evenodd;stroke:#000000;stroke-width:2.0px;stroke-linecap:butt;stroke-linejoin:miter;stroke-opacity:1"/>
<path class="bond-2 atom-3 atom-2" d="M 669.5,315.7 L 669.3,370.8" style="fill:none;fill-rule:evenodd;stroke:#000000;stroke-width:2.0px;stroke-linecap:butt;stroke-linejoin:miter;stroke-opacity:1"/>
<path class="bond-3 atom-4 atom-3" d="M 618.3,274.1 L 660.1,298.4" style="fill:none;fill-rule:evenodd;stroke:#000000;stroke-width:2.0px;stroke-linecap:butt;stroke-linejoin:miter;stroke-opacity:1"/>
<path class="bond-3 atom-4 atom-3" d="M 612.4,284.3 L 654.2,308.6" style="fill:none;fill-rule:evenodd;stroke:#000000;stroke-width:2.0px;stroke-linecap:butt;stroke-linejoin:miter;stroke-opacity:1"/>
<path class="bond-4 atom-5 atom-4" d="M 542.5,298.4 L 585.2,273.9" style="fill:none;fill-rule:evenodd;stroke:#000000;stroke-width:2.0px;stroke-linecap:butt;stroke-linejoin:miter;stroke-opacity:1"/>
<path class="bond-5 atom-6 atom-1" d="M 541.9,386.7 L 584.7,411.6" style="fill:none;fill-rule:evenodd;stroke:#000000;stroke-width:2.0px;stroke-linecap:butt;stroke-linejoin:miter;stroke-opacity:1"/>
<path class="bond-6 atom-6 atom-5" d="M 533.5,370.5 L 533.7,315.1" style="fill:none;fill-rule:evenodd;stroke:#000000;stroke-width:2.0px;stroke-linecap:butt;stroke-linejoin:miter;stroke-opacity:1"/>
<path class="bond-6 atom-6 atom-5" d="M 545.3,370.5 L 545.5,315.2" style="fill:none;fill-rule:evenodd;stroke:#000000;stroke-width:2.0px;stroke-linecap:butt;stroke-linejoin:miter;stroke-opacity:1"/>
<path class="bond-7 atom-7 atom-0" d="M 648.8,527.5 L 620.7,511.2" style="fill:none;fill-rule:evenodd;stroke:#000000;stroke-width:2.0px;stroke-linecap:butt;stroke-linejoin:miter;stroke-opacity:1"/>
<path class="bond-8 atom-8 atom-0" d="M 549.6,529.0 L 591.5,505.0" style="fill:none;fill-rule:evenodd;stroke:#000000;stroke-width:2.0px;stroke-linecap:butt;stroke-linejoin:miter;stroke-opacity:1"/>
<path class="bond-9 atom-9 atom-7" d="M 668.4,605.9 L 668.6,550.8" style="fill:none;fill-rule:evenodd;stroke:#000000;stroke-width:2.0px;stroke-linecap:butt;stroke-linejoin:miter;stroke-opacity:1"/>
<path class="bond-9 atom-9 atom-7" d="M 680.2,605.9 L 680.4,550.9" style="fill:none;fill-rule:evenodd;stroke:#000000;stroke-width:2.0px;stroke-linecap:butt;stroke-linejoin:miter;stroke-opacity:1"/>
<path class="bond-10 atom-10 atom-7" d="M 727.3,505.5 L 677.5,534.0" style="fill:none;fill-rule:evenodd;stroke:#000000;stroke-width:2.0px;stroke-linecap:butt;stroke-linejoin:miter;stroke-opacity:1"/>
<path class="bond-11 atom-11 atom-9" d="M 716.3,645.4 L 688.5,629.2" style="fill:none;fill-rule:evenodd;stroke:#000000;stroke-width:2.0px;stroke-linecap:butt;stroke-linejoin:miter;stroke-opacity:1"/>
<path class="bond-12 atom-12 atom-10" d="M 742.8,433.6 L 742.7,461.1" style="fill:none;fill-rule:evenodd;stroke:#FF0000;stroke-width:2.0px;stroke-linecap:butt;stroke-linejoin:miter;stroke-opacity:1"/>
<path class="bond-12 atom-12 atom-10" d="M 742.7,461.1 L 742.6,488.6" style="fill:none;fill-rule:evenodd;stroke:#000000;stroke-width:2.0px;stroke-linecap:butt;stroke-linejoin:miter;stroke-opacity:1"/>
<path class="bond-12 atom-12 atom-10" d="M 731.1,433.5 L 731.0,461.0" style="fill:none;fill-rule:evenodd;stroke:#FF0000;stroke-width:2.0px;stroke-linecap:butt;stroke-linejoin:miter;stroke-opacity:1"/>
<path class="bond-12 atom-12 atom-10" d="M 731.0,461.0 L 730.9,488.6" style="fill:none;fill-rule:evenodd;stroke:#000000;stroke-width:2.0px;stroke-linecap:butt;stroke-linejoin:miter;stroke-opacity:1"/>
<path class="bond-13 atom-13 atom-10" d="M 784.6,528.0 L 756.5,511.7" style="fill:none;fill-rule:evenodd;stroke:#000000;stroke-width:2.0px;stroke-linecap:butt;stroke-linejoin:miter;stroke-opacity:1"/>
<path class="bond-14 atom-14 atom-11" d="M 730.0,723.7 L 730.1,696.1" style="fill:none;fill-rule:evenodd;stroke:#FF0000;stroke-width:2.0px;stroke-linecap:butt;stroke-linejoin:miter;stroke-opacity:1"/>
<path class="bond-14 atom-14 atom-11" d="M 730.1,696.1 L 730.2,668.4" style="fill:none;fill-rule:evenodd;stroke:#000000;stroke-width:2.0px;stroke-linecap:butt;stroke-linejoin:miter;stroke-opacity:1"/>
<path class="bond-14 atom-14 atom-11" d="M 741.8,723.7 L 741.9,696.1" style="fill:none;fill-rule:evenodd;stroke:#FF0000;stroke-width:2.0px;stroke-linecap:butt;stroke-linejoin:miter;stroke-opacity:1"/>
<path class="bond-14 atom-14 atom-11" d="M 741.9,696.1 L 742.0,668.4" style="fill:none;fill-rule:evenodd;stroke:#000000;stroke-width:2.0px;stroke-linecap:butt;stroke-linejoin:miter;stroke-opacity:1"/>
<path class="bond-15 atom-15 atom-11" d="M 794.7,623.3 L 756.3,645.4" style="fill:none;fill-rule:evenodd;stroke:#000000;stroke-width:2.0px;stroke-linecap:butt;stroke-linejoin:miter;stroke-opacity:1"/>
<path class="bond-16 atom-15 atom-13" d="M 804.2,606.4 L 804.4,551.1" style="fill:none;fill-rule:evenodd;stroke:#000000;stroke-width:2.0px;stroke-linecap:butt;stroke-linejoin:miter;stroke-opacity:1"/>
<path class="bond-16 atom-15 atom-13" d="M 792.4,606.4 L 792.6,551.1" style="fill:none;fill-rule:evenodd;stroke:#000000;stroke-width:2.0px;stroke-linecap:butt;stroke-linejoin:miter;stroke-opacity:1"/>
<path class="bond-17 atom-16 atom-15" d="M 862.5,651.9 L 824.3,629.7" style="fill:none;fill-rule:evenodd;stroke:#000000;stroke-width:2.0px;stroke-linecap:butt;stroke-linejoin:miter;stroke-opacity:1"/>
<path class="bond-18 atom-17 atom-13" d="M 863.1,506.0 L 813.8,534.2" style="fill:none;fill-rule:evenodd;stroke:#000000;stroke-width:2.0px;stroke-linecap:butt;stroke-linejoin:miter;stroke-opacity:1"/>
<path class="bond-19 atom-18 atom-9" d="M 609.1,651.4 L 659.0,622.8" style="fill:none;fill-rule:evenodd;stroke:#000000;stroke-width:2.0px;stroke-linecap:butt;stroke-linejoin:miter;stroke-opacity:1"/>
<path class="bond-20 atom-19 atom-8" d="M 485.3,510.9 L 516.2,528.9" style="fill:none;fill-rule:evenodd;stroke:#000000;stroke-width:2.0px;stroke-linecap:butt;stroke-linejoin:miter;stroke-opacity:1"/>
<path class="bond-21 atom-20 atom-19" d="M 417.1,526.6 L 444.6,510.9" style="fill:none;fill-rule:evenodd;stroke:#000000;stroke-width:2.0px;stroke-linecap:butt;stroke-linejoin:miter;stroke-opacity:1"/>
<path class="bond-22 atom-21 atom-20" d="M 349.2,510.2 L 377.3,526.5" style="fill:none;fill-rule:evenodd;stroke:#000000;stroke-width:2.0px;stroke-linecap:butt;stroke-linejoin:miter;stroke-opacity:1"/>
<path class="bond-23 atom-22 atom-21" d="M 281.5,526.1 L 308.8,510.4" style="fill:none;fill-rule:evenodd;stroke:#000000;stroke-width:2.0px;stroke-linecap:butt;stroke-linejoin:miter;stroke-opacity:1"/>
<path class="bond-24 atom-23 atom-22" d="M 213.4,509.7 L 241.5,526.1" style="fill:none;fill-rule:evenodd;stroke:#000000;stroke-width:2.0px;stroke-linecap:butt;stroke-linejoin:miter;stroke-opacity:1"/>
<path class="bond-25 atom-24 atom-23" d="M 134.2,532.2 L 153.6,521.1" style="fill:none;fill-rule:evenodd;stroke:#FF0000;stroke-width:2.0px;stroke-linecap:butt;stroke-linejoin:miter;stroke-opacity:1"/>
<path class="bond-25 atom-24 atom-23" d="M 153.6,521.1 L 173.1,509.9" style="fill:none;fill-rule:evenodd;stroke:#000000;stroke-width:2.0px;stroke-linecap:butt;stroke-linejoin:miter;stroke-opacity:1"/>
<path class="bond-26 atom-25 atom-23" d="M 199.7,431.6 L 199.6,459.1" style="fill:none;fill-rule:evenodd;stroke:#FF0000;stroke-width:2.0px;stroke-linecap:butt;stroke-linejoin:miter;stroke-opacity:1"/>
<path class="bond-26 atom-25 atom-23" d="M 199.6,459.1 L 199.5,486.7" style="fill:none;fill-rule:evenodd;stroke:#000000;stroke-width:2.0px;stroke-linecap:butt;stroke-linejoin:miter;stroke-opacity:1"/>
<path class="bond-26 atom-25 atom-23" d="M 188.0,431.6 L 187.9,459.1" style="fill:none;fill-rule:evenodd;stroke:#FF0000;stroke-width:2.0px;stroke-linecap:butt;stroke-linejoin:miter;stroke-opacity:1"/>
<path class="bond-26 atom-25 atom-23" d="M 187.9,459.1 L 187.8,486.6" style="fill:none;fill-rule:evenodd;stroke:#000000;stroke-width:2.0px;stroke-linecap:butt;stroke-linejoin:miter;stroke-opacity:1"/>
<path class="atom-0" d="M 594.1 499.7 Q 594.1 495.3, 596.2 493.0 Q 598.2 490.7, 602.2 490.7 Q 605.8 490.7, 607.8 493.3 L 606.1 494.6 Q 604.7 492.7, 602.2 492.7 Q 599.5 492.7, 598.1 494.5 Q 596.7 496.3, 596.7 499.7 Q 596.7 503.2, 598.1 505.0 Q 599.6 506.8, 602.4 506.8 Q 604.4 506.8, 606.7 505.6 L 607.4 507.5 Q 606.4 508.1, 605.0 508.5 Q 603.6 508.8, 602.1 508.8 Q 598.2 508.8, 596.2 506.5 Q 594.1 504.1, 594.1 499.7 " fill="#000000"/>
<path class="atom-0" d="M 610.9 506.6 L 614.8 506.6 L 614.8 493.4 L 610.5 494.7 L 610.0 493.2 L 615.4 490.8 L 617.2 491.1 L 617.2 506.6 L 620.6 506.6 L 620.6 508.6 L 610.9 508.6 L 610.9 506.6 " fill="#000000"/>
<path class="atom-1" d="M 587.3 421.3 Q 587.3 416.9, 589.3 414.6 Q 591.4 412.3, 595.3 412.3 Q 599.0 412.3, 600.9 414.9 L 599.3 416.2 Q 597.9 414.3, 595.3 414.3 Q 592.7 414.3, 591.2 416.1 Q 589.8 417.9, 589.8 421.3 Q 589.8 424.8, 591.3 426.6 Q 592.8 428.4, 595.6 428.4 Q 597.6 428.4, 599.8 427.2 L 600.5 429.1 Q 599.6 429.7, 598.2 430.1 Q 596.8 430.4, 595.3 430.4 Q 591.4 430.4, 589.3 428.1 Q 587.3 425.7, 587.3 421.3 " fill="#000000"/>
<path class="atom-1" d="M 603.3 415.8 Q 603.9 414.2, 605.5 413.2 Q 607.0 412.3, 609.2 412.3 Q 611.8 412.3, 613.3 413.7 Q 614.8 415.2, 614.8 417.8 Q 614.8 420.4, 612.9 422.8 Q 611.0 425.3, 607.0 428.2 L 615.1 428.2 L 615.1 430.2 L 603.2 430.2 L 603.2 428.5 Q 606.5 426.2, 608.5 424.4 Q 610.4 422.7, 611.4 421.1 Q 612.3 419.5, 612.3 417.9 Q 612.3 416.2, 611.5 415.2 Q 610.6 414.3, 609.2 414.3 Q 607.7 414.3, 606.8 414.9 Q 605.8 415.4, 605.2 416.7 L 603.3 415.8 " fill="#000000"/>
<path class="atom-2" d="M 662.4 382.4 Q 662.4 378.0, 664.5 375.7 Q 666.5 373.3, 670.5 373.3 Q 674.1 373.3, 676.1 375.9 L 674.4 377.3 Q 673.0 375.4, 670.5 375.4 Q 667.8 375.4, 666.4 377.2 Q 665.0 379.0, 665.0 382.4 Q 665.0 385.9, 666.4 387.7 Q 667.9 389.5, 670.7 389.5 Q 672.7 389.5, 675.0 388.3 L 675.7 390.2 Q 674.7 390.8, 673.3 391.1 Q 671.9 391.5, 670.4 391.5 Q 666.5 391.5, 664.5 389.1 Q 662.4 386.8, 662.4 382.4 " fill="#000000"/>
<path class="atom-2" d="M 686.8 381.9 Q 688.6 382.4, 689.4 383.5 Q 690.2 384.6, 690.2 386.4 Q 690.2 387.9, 689.5 389.1 Q 688.7 390.2, 687.4 390.9 Q 686.0 391.5, 684.2 391.5 Q 682.3 391.5, 680.9 390.8 Q 679.5 390.2, 678.3 388.8 L 679.8 387.4 Q 680.9 388.6, 681.8 389.0 Q 682.7 389.5, 684.2 389.5 Q 685.8 389.5, 686.8 388.6 Q 687.7 387.8, 687.7 386.4 Q 687.7 384.6, 686.7 383.8 Q 685.7 382.9, 683.5 382.9 L 682.3 382.9 L 682.3 381.1 L 683.4 381.1 Q 685.3 381.1, 686.3 380.3 Q 687.4 379.4, 687.4 377.9 Q 687.4 376.7, 686.5 376.0 Q 685.7 375.3, 684.2 375.3 Q 682.7 375.3, 681.8 375.9 Q 680.9 376.4, 680.2 377.7 L 678.5 376.8 Q 679.1 375.3, 680.6 374.3 Q 682.1 373.3, 684.2 373.3 Q 686.8 373.3, 688.3 374.6 Q 689.9 375.8, 689.9 377.9 Q 689.9 379.3, 689.1 380.3 Q 688.3 381.3, 686.8 381.9 " fill="#000000"/>
<path class="atom-3" d="M 662.7 304.0 Q 662.7 299.6, 664.7 297.3 Q 666.8 295.0, 670.7 295.0 Q 674.4 295.0, 676.3 297.5 L 674.7 298.9 Q 673.3 297.0, 670.7 297.0 Q 668.1 297.0, 666.6 298.8 Q 665.2 300.6, 665.2 304.0 Q 665.2 307.5, 666.7 309.3 Q 668.2 311.1, 671.0 311.1 Q 673.0 311.1, 675.2 309.9 L 675.9 311.8 Q 675.0 312.4, 673.6 312.7 Q 672.2 313.1, 670.7 313.1 Q 666.8 313.1, 664.7 310.7 Q 662.7 308.4, 662.7 304.0 " fill="#000000"/>
<path class="atom-3" d="M 690.2 306.8 L 692.3 306.8 L 692.3 308.8 L 690.2 308.8 L 690.2 312.9 L 687.8 312.9 L 687.8 308.8 L 678.7 308.8 L 678.7 307.2 L 686.4 295.2 L 690.2 295.2 L 690.2 306.8 M 681.6 306.8 L 687.8 306.8 L 687.8 296.8 L 681.6 306.8 " fill="#000000"/>
<path class="atom-4" d="M 587.8 264.5 Q 587.8 260.1, 589.9 257.8 Q 592.0 255.5, 595.9 255.5 Q 599.5 255.5, 601.5 258.1 L 599.8 259.4 Q 598.4 257.6, 595.9 257.6 Q 593.2 257.6, 591.8 259.4 Q 590.4 261.1, 590.4 264.5 Q 590.4 268.0, 591.8 269.8 Q 593.3 271.6, 596.2 271.6 Q 598.1 271.6, 600.4 270.5 L 601.1 272.3 Q 600.2 272.9, 598.8 273.3 Q 597.4 273.6, 595.8 273.6 Q 592.0 273.6, 589.9 271.3 Q 587.8 268.9, 587.8 264.5 " fill="#000000"/>
<path class="atom-4" d="M 610.2 262.3 Q 611.7 262.3, 613.0 263.0 Q 614.3 263.7, 615.0 264.9 Q 615.7 266.1, 615.7 267.8 Q 615.7 269.6, 614.8 271.0 Q 614.0 272.3, 612.5 272.9 Q 611.1 273.6, 609.4 273.6 Q 607.8 273.6, 606.3 273.0 Q 604.8 272.4, 603.8 271.3 L 605.3 269.7 Q 606.1 270.6, 607.2 271.1 Q 608.3 271.6, 609.5 271.6 Q 611.1 271.6, 612.1 270.6 Q 613.2 269.6, 613.2 267.9 Q 613.2 266.0, 612.1 265.1 Q 611.1 264.2, 609.3 264.2 Q 607.8 264.2, 606.1 264.9 L 604.7 264.2 L 605.5 255.7 L 614.6 255.7 L 614.4 257.7 L 607.6 257.7 L 607.1 263.0 Q 608.6 262.3, 610.2 262.3 " fill="#000000"/>
<path class="atom-5" d="M 511.7 303.5 Q 511.7 299.1, 513.7 296.8 Q 515.8 294.5, 519.7 294.5 Q 523.4 294.5, 525.3 297.0 L 523.7 298.4 Q 522.2 296.5, 519.7 296.5 Q 517.0 296.5, 515.6 298.3 Q 514.2 300.1, 514.2 303.5 Q 514.2 307.0, 515.7 308.8 Q 517.1 310.6, 520.0 310.6 Q 521.9 310.6, 524.2 309.4 L 524.9 311.3 Q 524.0 311.9, 522.6 312.2 Q 521.2 312.6, 519.6 312.6 Q 515.8 312.6, 513.7 310.2 Q 511.7 307.9, 511.7 303.5 " fill="#000000"/>
<path class="atom-5" d="M 534.5 301.3 Q 536.1 301.3, 537.3 302.0 Q 538.5 302.7, 539.2 303.9 Q 539.9 305.1, 539.9 306.7 Q 539.9 308.4, 539.1 309.7 Q 538.4 311.1, 537.0 311.8 Q 535.7 312.6, 533.9 312.6 Q 530.8 312.6, 529.2 310.4 Q 527.6 308.3, 527.6 304.0 Q 527.6 299.3, 529.6 296.9 Q 531.5 294.5, 535.3 294.5 Q 536.4 294.5, 537.3 294.7 Q 538.3 295.0, 539.2 295.5 L 538.2 297.2 Q 536.9 296.5, 535.3 296.5 Q 532.8 296.5, 531.6 298.1 Q 530.3 299.7, 530.1 303.0 Q 531.0 302.2, 532.2 301.8 Q 533.3 301.3, 534.5 301.3 M 534.0 310.5 Q 534.9 310.5, 535.7 310.0 Q 536.5 309.5, 536.9 308.6 Q 537.4 307.8, 537.4 306.7 Q 537.4 305.1, 536.5 304.2 Q 535.6 303.3, 534.1 303.3 Q 533.0 303.3, 531.9 303.8 Q 530.9 304.2, 530.1 304.9 Q 530.2 307.9, 531.2 309.2 Q 532.1 310.5, 534.0 310.5 " fill="#000000"/>
<path class="atom-6" d="M 511.7 381.9 Q 511.7 377.5, 513.7 375.2 Q 515.8 372.8, 519.7 372.8 Q 523.4 372.8, 525.3 375.4 L 523.7 376.8 Q 522.3 374.9, 519.7 374.9 Q 517.1 374.9, 515.6 376.7 Q 514.2 378.5, 514.2 381.9 Q 514.2 385.4, 515.7 387.2 Q 517.2 389.0, 520.0 389.0 Q 522.0 389.0, 524.2 387.8 L 524.9 389.7 Q 524.0 390.3, 522.6 390.6 Q 521.2 391.0, 519.7 391.0 Q 515.8 391.0, 513.7 388.6 Q 511.7 386.3, 511.7 381.9 " fill="#000000"/>
<path class="atom-6" d="M 536.9 375.0 L 527.6 375.0 L 527.6 373.0 L 539.3 373.0 L 539.3 374.8 L 532.2 390.7 L 529.8 390.7 L 536.9 375.0 " fill="#000000"/>
<path class="atom-7" d="M 646.5 539.1 Q 646.5 534.7, 648.5 532.4 Q 650.6 530.1, 654.5 530.1 Q 658.2 530.1, 660.1 532.7 L 658.5 534.0 Q 657.0 532.2, 654.5 532.2 Q 651.8 532.2, 650.4 534.0 Q 649.0 535.7, 649.0 539.1 Q 649.0 542.6, 650.5 544.4 Q 651.9 546.2, 654.8 546.2 Q 656.7 546.2, 659.0 545.1 L 659.7 546.9 Q 658.8 547.5, 657.4 547.9 Q 656.0 548.2, 654.4 548.2 Q 650.6 548.2, 648.5 545.9 Q 646.5 543.5, 646.5 539.1 " fill="#000000"/>
<path class="atom-7" d="M 671.4 538.6 Q 673.1 539.3, 674.0 540.4 Q 674.9 541.4, 674.9 543.2 Q 674.9 544.7, 674.1 545.8 Q 673.4 547.0, 672.0 547.6 Q 670.6 548.3, 668.8 548.3 Q 665.8 548.3, 664.1 546.9 Q 662.4 545.5, 662.4 543.2 Q 662.4 541.7, 663.2 540.6 Q 663.9 539.5, 665.5 538.7 Q 664.3 538.1, 663.7 537.1 Q 663.1 536.1, 663.1 534.6 Q 663.1 532.6, 664.6 531.3 Q 666.1 530.1, 668.7 530.1 Q 671.2 530.1, 672.7 531.3 Q 674.3 532.6, 674.3 534.6 Q 674.3 535.9, 673.5 536.9 Q 672.8 537.9, 671.4 538.6 M 668.7 532.0 Q 667.2 532.0, 666.4 532.7 Q 665.6 533.4, 665.6 534.6 Q 665.6 535.6, 666.1 536.2 Q 666.7 536.8, 667.4 537.1 Q 668.2 537.5, 669.8 538.0 Q 670.8 537.3, 671.3 536.5 Q 671.8 535.7, 671.8 534.6 Q 671.8 533.4, 670.9 532.7 Q 670.1 532.0, 668.7 532.0 M 668.8 546.4 Q 670.4 546.4, 671.4 545.5 Q 672.4 544.6, 672.4 543.1 Q 672.4 542.2, 671.9 541.6 Q 671.4 541.0, 670.6 540.6 Q 669.8 540.3, 668.4 539.8 L 667.3 539.5 Q 666.0 540.2, 665.5 541.1 Q 664.9 542.0, 664.9 543.1 Q 664.9 544.6, 666.0 545.5 Q 667.0 546.4, 668.8 546.4 " fill="#000000"/>
<path class="atom-8" d="M 518.8 538.6 Q 518.8 534.2, 520.8 531.9 Q 522.9 529.6, 526.8 529.6 Q 530.5 529.6, 532.4 532.2 L 530.8 533.5 Q 529.4 531.7, 526.8 531.7 Q 524.2 531.7, 522.7 533.5 Q 521.3 535.2, 521.3 538.6 Q 521.3 542.1, 522.8 543.9 Q 524.3 545.7, 527.1 545.7 Q 529.1 545.7, 531.3 544.6 L 532.0 546.4 Q 531.1 547.0, 529.7 547.4 Q 528.3 547.7, 526.8 547.7 Q 522.9 547.7, 520.8 545.4 Q 518.8 543.0, 518.8 538.6 " fill="#000000"/>
<path class="atom-8" d="M 540.7 529.6 Q 543.8 529.6, 545.4 531.8 Q 547.0 533.9, 547.0 538.1 Q 547.0 542.8, 545.0 545.3 Q 543.1 547.7, 539.3 547.7 Q 538.2 547.7, 537.3 547.5 Q 536.3 547.2, 535.4 546.7 L 536.4 545.0 Q 537.7 545.7, 539.3 545.7 Q 541.8 545.7, 543.1 544.1 Q 544.3 542.5, 544.5 539.2 Q 543.6 540.0, 542.4 540.4 Q 541.3 540.9, 540.1 540.9 Q 538.5 540.9, 537.3 540.2 Q 536.1 539.5, 535.4 538.3 Q 534.7 537.1, 534.7 535.5 Q 534.7 533.8, 535.5 532.5 Q 536.3 531.1, 537.6 530.4 Q 539.0 529.6, 540.7 529.6 M 537.2 535.5 Q 537.2 537.1, 538.1 538.0 Q 539.0 538.9, 540.5 538.9 Q 541.6 538.9, 542.7 538.4 Q 543.7 538.0, 544.5 537.2 Q 544.4 534.3, 543.5 533.0 Q 542.5 531.7, 540.7 531.7 Q 539.7 531.7, 538.9 532.2 Q 538.1 532.7, 537.7 533.5 Q 537.2 534.4, 537.2 535.5 " fill="#000000"/>
<path class="atom-9" d="M 661.6 617.5 Q 661.6 613.1, 663.6 610.8 Q 665.7 608.5, 669.6 608.5 Q 673.3 608.5, 675.2 611.1 L 673.6 612.4 Q 672.1 610.5, 669.6 610.5 Q 666.9 610.5, 665.5 612.3 Q 664.1 614.1, 664.1 617.5 Q 664.1 621.0, 665.6 622.8 Q 667.0 624.6, 669.9 624.6 Q 671.8 624.6, 674.1 623.4 L 674.8 625.3 Q 673.9 625.9, 672.5 626.3 Q 671.1 626.6, 669.5 626.6 Q 665.7 626.6, 663.6 624.3 Q 661.6 621.9, 661.6 617.5 " fill="#000000"/>
<path class="atom-9" d="M 678.4 624.4 L 682.3 624.4 L 682.3 611.2 L 678.0 612.5 L 677.5 611.0 L 682.9 608.6 L 684.7 608.9 L 684.7 624.4 L 688.1 624.4 L 688.1 626.4 L 678.4 626.4 L 678.4 624.4 " fill="#000000"/>
<path class="atom-9" d="M 696.9 626.6 Q 693.7 626.6, 692.0 624.2 Q 690.4 621.8, 690.4 617.5 Q 690.4 613.2, 692.0 610.9 Q 693.6 608.5, 696.9 608.5 Q 700.2 608.5, 701.8 610.9 Q 703.4 613.2, 703.4 617.5 Q 703.4 621.8, 701.8 624.2 Q 700.2 626.6, 696.9 626.6 M 696.9 624.6 Q 698.8 624.6, 699.9 622.8 Q 700.9 621.0, 700.9 617.5 Q 700.9 614.0, 699.9 612.3 Q 698.8 610.5, 696.9 610.5 Q 695.0 610.5, 694.0 612.3 Q 692.9 614.0, 692.9 617.5 Q 692.9 621.0, 694.0 622.8 Q 695.0 624.6, 696.9 624.6 " fill="#000000"/>
<path class="atom-10" d="M 729.9 500.2 Q 729.9 495.8, 731.9 493.5 Q 734.0 491.2, 737.9 491.2 Q 741.6 491.2, 743.5 493.7 L 741.9 495.1 Q 740.5 493.2, 737.9 493.2 Q 735.3 493.2, 733.8 495.0 Q 732.4 496.8, 732.4 500.2 Q 732.4 503.7, 733.9 505.5 Q 735.4 507.3, 738.2 507.3 Q 740.2 507.3, 742.4 506.1 L 743.1 508.0 Q 742.2 508.6, 740.8 508.9 Q 739.4 509.3, 737.9 509.3 Q 734.0 509.3, 731.9 506.9 Q 729.9 504.6, 729.9 500.2 " fill="#000000"/>
<path class="atom-10" d="M 746.7 507.1 L 750.5 507.1 L 750.5 493.8 L 746.3 495.2 L 745.7 493.7 L 751.1 491.3 L 752.9 491.6 L 752.9 507.1 L 756.4 507.1 L 756.4 509.1 L 746.7 509.1 L 746.7 507.1 " fill="#000000"/>
<path class="atom-10" d="M 759.6 507.1 L 763.4 507.1 L 763.4 493.8 L 759.2 495.2 L 758.6 493.7 L 764.0 491.3 L 765.8 491.6 L 765.8 507.1 L 769.3 507.1 L 769.3 509.1 L 759.6 509.1 L 759.6 507.1 " fill="#000000"/>
<path class="atom-11" d="M 715.8 657.0 Q 715.8 652.6, 717.8 650.3 Q 719.9 647.9, 723.8 647.9 Q 727.5 647.9, 729.4 650.5 L 727.8 651.9 Q 726.4 650.0, 723.8 650.0 Q 721.2 650.0, 719.7 651.8 Q 718.3 653.6, 718.3 657.0 Q 718.3 660.5, 719.8 662.3 Q 721.3 664.1, 724.1 664.1 Q 726.1 664.1, 728.3 662.9 L 729.0 664.8 Q 728.1 665.4, 726.7 665.7 Q 725.3 666.1, 723.8 666.1 Q 719.9 666.1, 717.8 663.7 Q 715.8 661.4, 715.8 657.0 " fill="#000000"/>
<path class="atom-11" d="M 732.6 663.8 L 736.5 663.8 L 736.5 650.6 L 732.2 651.9 L 731.6 650.5 L 737.1 648.0 L 738.8 648.3 L 738.8 663.8 L 742.3 663.8 L 742.3 665.8 L 732.6 665.8 L 732.6 663.8 " fill="#000000"/>
<path class="atom-11" d="M 744.6 651.5 Q 745.3 649.8, 746.8 648.9 Q 748.4 647.9, 750.5 647.9 Q 753.2 647.9, 754.7 649.4 Q 756.2 650.8, 756.2 653.4 Q 756.2 656.0, 754.2 658.5 Q 752.3 660.9, 748.3 663.8 L 756.5 663.8 L 756.5 665.8 L 744.6 665.8 L 744.6 664.2 Q 747.9 661.8, 749.8 660.1 Q 751.8 658.3, 752.7 656.7 Q 753.7 655.2, 753.7 653.5 Q 753.7 651.8, 752.8 650.9 Q 752.0 649.9, 750.5 649.9 Q 749.1 649.9, 748.1 650.5 Q 747.2 651.1, 746.5 652.4 L 744.6 651.5 " fill="#000000"/>
<path class="atom-12" d="M 728.9 421.8 Q 728.9 417.5, 731.0 415.2 Q 733.1 412.8, 737.0 412.8 Q 740.9 412.8, 743.0 415.2 Q 745.1 417.5, 745.1 421.8 Q 745.1 426.1, 743.0 428.5 Q 740.9 431.0, 737.0 431.0 Q 733.1 431.0, 731.0 428.5 Q 728.9 426.1, 728.9 421.8 M 737.0 429.0 Q 739.7 429.0, 741.1 427.2 Q 742.6 425.3, 742.6 421.8 Q 742.6 418.3, 741.1 416.6 Q 739.7 414.8, 737.0 414.8 Q 734.3 414.8, 732.8 416.5 Q 731.4 418.3, 731.4 421.8 Q 731.4 425.4, 732.8 427.2 Q 734.3 429.0, 737.0 429.0 " fill="#FF0000"/>
<path class="atom-12" d="M 748.6 428.7 L 752.5 428.7 L 752.5 415.5 L 748.2 416.8 L 747.7 415.3 L 753.1 412.9 L 754.9 413.2 L 754.9 428.7 L 758.3 428.7 L 758.3 430.7 L 748.6 430.7 L 748.6 428.7 " fill="#FF0000"/>
<path class="atom-12" d="M 769.2 421.4 Q 770.9 421.9, 771.7 423.0 Q 772.6 424.1, 772.6 425.8 Q 772.6 427.3, 771.8 428.5 Q 771.1 429.7, 769.7 430.3 Q 768.3 430.9, 766.5 430.9 Q 764.6 430.9, 763.2 430.3 Q 761.8 429.6, 760.7 428.3 L 762.1 426.8 Q 763.2 428.0, 764.1 428.5 Q 765.0 428.9, 766.5 428.9 Q 768.1 428.9, 769.1 428.1 Q 770.1 427.2, 770.1 425.8 Q 770.1 424.0, 769.0 423.2 Q 768.0 422.4, 765.9 422.4 L 764.6 422.4 L 764.6 420.6 L 765.7 420.6 Q 767.6 420.6, 768.7 419.7 Q 769.7 418.9, 769.7 417.3 Q 769.7 416.2, 768.8 415.5 Q 768.0 414.8, 766.5 414.8 Q 765.1 414.8, 764.1 415.3 Q 763.2 415.8, 762.5 417.2 L 760.8 416.2 Q 761.4 414.8, 762.9 413.8 Q 764.4 412.8, 766.5 412.8 Q 769.1 412.8, 770.7 414.0 Q 772.2 415.2, 772.2 417.3 Q 772.2 418.7, 771.4 419.8 Q 770.6 420.8, 769.2 421.4 " fill="#FF0000"/>
<path class="atom-13" d="M 768.7 539.6 Q 768.7 535.2, 770.8 532.9 Q 772.8 530.6, 776.8 530.6 Q 780.4 530.6, 782.4 533.2 L 780.7 534.5 Q 779.3 532.7, 776.8 532.7 Q 774.1 532.7, 772.7 534.5 Q 771.3 536.2, 771.3 539.6 Q 771.3 543.1, 772.7 544.9 Q 774.2 546.7, 777.0 546.7 Q 779.0 546.7, 781.3 545.6 L 782.0 547.4 Q 781.0 548.0, 779.6 548.4 Q 778.2 548.7, 776.7 548.7 Q 772.8 548.7, 770.8 546.4 Q 768.7 544.0, 768.7 539.6 " fill="#000000"/>
<path class="atom-13" d="M 785.6 546.5 L 789.5 546.5 L 789.5 533.3 L 785.2 534.6 L 784.6 533.1 L 790.1 530.7 L 791.8 531.0 L 791.8 546.5 L 795.3 546.5 L 795.3 548.5 L 785.6 548.5 L 785.6 546.5 " fill="#000000"/>
<path class="atom-13" d="M 809.1 542.4 L 811.2 542.4 L 811.2 544.4 L 809.1 544.4 L 809.1 548.5 L 806.8 548.5 L 806.8 544.4 L 797.6 544.4 L 797.6 542.9 L 805.4 530.8 L 809.1 530.8 L 809.1 542.4 M 800.5 542.4 L 806.8 542.4 L 806.8 532.4 L 800.5 542.4 " fill="#000000"/>
<path class="atom-14" d="M 727.7 735.3 Q 727.7 731.1, 729.8 728.7 Q 731.9 726.3, 735.9 726.3 Q 739.8 726.3, 741.9 728.7 Q 744.0 731.1, 744.0 735.3 Q 744.0 739.6, 741.9 742.1 Q 739.7 744.5, 735.9 744.5 Q 732.0 744.5, 729.8 742.1 Q 727.7 739.6, 727.7 735.3 M 735.9 742.5 Q 738.6 742.5, 740.0 740.7 Q 741.5 738.9, 741.5 735.3 Q 741.5 731.8, 740.0 730.1 Q 738.6 728.3, 735.9 728.3 Q 733.2 728.3, 731.7 730.1 Q 730.2 731.8, 730.2 735.3 Q 730.2 738.9, 731.7 740.7 Q 733.2 742.5, 735.9 742.5 " fill="#FF0000"/>
<path class="atom-14" d="M 747.5 742.2 L 751.4 742.2 L 751.4 729.0 L 747.1 730.3 L 746.5 728.8 L 752.0 726.4 L 753.7 726.7 L 753.7 742.2 L 757.2 742.2 L 757.2 744.2 L 747.5 744.2 L 747.5 742.2 " fill="#FF0000"/>
<path class="atom-14" d="M 766.0 733.1 Q 767.5 733.1, 768.8 733.8 Q 770.1 734.5, 770.8 735.7 Q 771.5 736.9, 771.5 738.6 Q 771.5 740.4, 770.6 741.8 Q 769.7 743.1, 768.3 743.7 Q 766.8 744.4, 765.2 744.4 Q 763.6 744.4, 762.1 743.8 Q 760.6 743.2, 759.5 742.1 L 761.0 740.5 Q 761.9 741.4, 763.0 741.9 Q 764.1 742.4, 765.3 742.4 Q 766.8 742.4, 767.9 741.4 Q 769.0 740.4, 769.0 738.7 Q 769.0 736.8, 767.9 735.9 Q 766.8 735.0, 765.1 735.0 Q 763.6 735.0, 761.8 735.7 L 760.5 735.0 L 761.3 726.5 L 770.4 726.5 L 770.2 728.5 L 763.4 728.5 L 762.8 733.8 Q 764.4 733.1, 766.0 733.1 " fill="#FF0000"/>
<path class="atom-15" d="M 797.3 618.0 Q 797.3 613.6, 799.4 611.3 Q 801.5 609.0, 805.4 609.0 Q 809.0 609.0, 811.0 611.6 L 809.3 612.9 Q 807.9 611.0, 805.4 611.0 Q 802.7 611.0, 801.3 612.8 Q 799.9 614.6, 799.9 618.0 Q 799.9 621.5, 801.3 623.3 Q 802.8 625.1, 805.7 625.1 Q 807.6 625.1, 809.9 623.9 L 810.6 625.8 Q 809.7 626.4, 808.3 626.8 Q 806.9 627.1, 805.3 627.1 Q 801.5 627.1, 799.4 624.8 Q 797.3 622.4, 797.3 618.0 " fill="#000000"/>
<path class="atom-15" d="M 814.2 624.9 L 818.1 624.9 L 818.1 611.7 L 813.8 613.0 L 813.2 611.5 L 818.6 609.1 L 820.4 609.4 L 820.4 624.9 L 823.9 624.9 L 823.9 626.9 L 814.2 626.9 L 814.2 624.9 " fill="#000000"/>
<path class="atom-15" d="M 833.1 615.8 Q 834.6 615.8, 835.9 616.5 Q 837.1 617.2, 837.8 618.4 Q 838.4 619.6, 838.4 621.2 Q 838.4 622.9, 837.7 624.3 Q 836.9 625.6, 835.6 626.3 Q 834.2 627.1, 832.5 627.1 Q 829.3 627.1, 827.7 625.0 Q 826.2 622.8, 826.2 618.6 Q 826.2 613.9, 828.1 611.4 Q 830.1 609.0, 833.9 609.0 Q 835.0 609.0, 835.9 609.2 Q 836.8 609.5, 837.7 610.0 L 836.8 611.7 Q 835.5 611.0, 833.9 611.0 Q 831.4 611.0, 830.1 612.6 Q 828.8 614.2, 828.7 617.5 Q 829.6 616.7, 830.7 616.3 Q 831.9 615.8, 833.1 615.8 M 832.5 625.0 Q 833.5 625.0, 834.2 624.5 Q 835.0 624.0, 835.5 623.2 Q 835.9 622.3, 835.9 621.2 Q 835.9 619.6, 835.1 618.7 Q 834.2 617.8, 832.6 617.8 Q 831.6 617.8, 830.5 618.3 Q 829.4 618.7, 828.7 619.5 Q 828.8 622.4, 829.7 623.7 Q 830.6 625.0, 832.5 625.0 " fill="#000000"/>
<path class="atom-16" d="M 865.1 657.5 Q 865.1 653.1, 867.1 650.8 Q 869.2 648.4, 873.1 648.4 Q 876.8 648.4, 878.7 651.0 L 877.1 652.4 Q 875.7 650.5, 873.1 650.5 Q 870.5 650.5, 869.0 652.3 Q 867.6 654.1, 867.6 657.5 Q 867.6 661.0, 869.1 662.8 Q 870.6 664.6, 873.4 664.6 Q 875.4 664.6, 877.6 663.4 L 878.3 665.3 Q 877.4 665.9, 876.0 666.2 Q 874.6 666.6, 873.1 666.6 Q 869.2 666.6, 867.1 664.2 Q 865.1 661.9, 865.1 657.5 " fill="#000000"/>
<path class="atom-16" d="M 881.9 664.3 L 885.8 664.3 L 885.8 651.1 L 881.5 652.4 L 880.9 651.0 L 886.4 648.5 L 888.1 648.8 L 888.1 664.3 L 891.6 664.3 L 891.6 666.3 L 881.9 666.3 L 881.9 664.3 " fill="#000000"/>
<path class="atom-16" d="M 903.1 650.6 L 893.9 650.6 L 893.9 648.6 L 905.6 648.6 L 905.6 650.4 L 898.5 666.3 L 896.1 666.3 L 903.1 650.6 " fill="#000000"/>
<path class="atom-17" d="M 865.6 500.7 Q 865.6 496.3, 867.7 494.0 Q 869.8 491.6, 873.7 491.6 Q 877.3 491.6, 879.3 494.2 L 877.6 495.6 Q 876.2 493.7, 873.7 493.7 Q 871.0 493.7, 869.6 495.5 Q 868.2 497.3, 868.2 500.7 Q 868.2 504.2, 869.6 506.0 Q 871.1 507.8, 874.0 507.8 Q 875.9 507.8, 878.2 506.6 L 878.9 508.5 Q 878.0 509.1, 876.6 509.4 Q 875.2 509.8, 873.6 509.8 Q 869.8 509.8, 867.7 507.4 Q 865.6 505.1, 865.6 500.7 " fill="#000000"/>
<path class="atom-17" d="M 882.5 507.5 L 886.4 507.5 L 886.4 494.3 L 882.1 495.6 L 881.5 494.2 L 886.9 491.7 L 888.7 492.0 L 888.7 507.5 L 892.2 507.5 L 892.2 509.5 L 882.5 509.5 L 882.5 507.5 " fill="#000000"/>
<path class="atom-17" d="M 903.5 500.2 Q 905.1 500.9, 906.0 501.9 Q 907.0 502.9, 907.0 504.7 Q 907.0 506.2, 906.2 507.4 Q 905.4 508.5, 904.0 509.2 Q 902.6 509.8, 900.8 509.8 Q 897.9 509.8, 896.2 508.4 Q 894.5 507.1, 894.5 504.7 Q 894.5 503.2, 895.2 502.2 Q 896.0 501.1, 897.5 500.2 Q 896.4 499.6, 895.7 498.6 Q 895.1 497.7, 895.1 496.2 Q 895.1 494.1, 896.6 492.9 Q 898.1 491.6, 900.7 491.6 Q 903.3 491.6, 904.8 492.9 Q 906.3 494.1, 906.3 496.2 Q 906.3 497.5, 905.6 498.4 Q 904.9 499.4, 903.5 500.2 M 900.7 493.5 Q 899.2 493.5, 898.4 494.2 Q 897.6 494.9, 897.6 496.2 Q 897.6 497.1, 898.2 497.7 Q 898.7 498.3, 899.5 498.7 Q 900.3 499.0, 901.8 499.5 Q 902.9 498.8, 903.3 498.0 Q 903.8 497.2, 903.8 496.2 Q 903.8 494.9, 903.0 494.2 Q 902.2 493.5, 900.7 493.5 M 900.8 507.9 Q 902.5 507.9, 903.5 507.0 Q 904.5 506.1, 904.5 504.7 Q 904.5 503.7, 903.9 503.1 Q 903.4 502.5, 902.6 502.2 Q 901.8 501.8, 900.4 501.4 L 899.3 501.0 Q 898.1 501.7, 897.5 502.6 Q 897.0 503.5, 897.0 504.7 Q 897.0 506.1, 898.0 507.0 Q 899.1 507.9, 900.8 507.9 " fill="#000000"/>
<path class="atom-18" d="M 565.4 656.5 Q 565.4 652.1, 567.4 649.8 Q 569.5 647.5, 573.4 647.5 Q 577.1 647.5, 579.0 650.0 L 577.4 651.4 Q 576.0 649.5, 573.4 649.5 Q 570.8 649.5, 569.3 651.3 Q 567.9 653.1, 567.9 656.5 Q 567.9 660.0, 569.4 661.8 Q 570.9 663.6, 573.7 663.6 Q 575.7 663.6, 577.9 662.4 L 578.6 664.3 Q 577.7 664.9, 576.3 665.2 Q 574.9 665.6, 573.4 665.6 Q 569.5 665.6, 567.4 663.2 Q 565.4 660.9, 565.4 656.5 " fill="#000000"/>
<path class="atom-18" d="M 582.2 663.4 L 586.1 663.4 L 586.1 650.1 L 581.8 651.5 L 581.3 650.0 L 586.7 647.6 L 588.5 647.9 L 588.5 663.4 L 591.9 663.4 L 591.9 665.4 L 582.2 665.4 L 582.2 663.4 " fill="#000000"/>
<path class="atom-18" d="M 600.2 647.5 Q 603.3 647.5, 604.9 649.6 Q 606.5 651.7, 606.5 656.0 Q 606.5 660.7, 604.5 663.1 Q 602.6 665.6, 598.8 665.6 Q 597.7 665.6, 596.7 665.3 Q 595.8 665.1, 594.9 664.5 L 595.9 662.9 Q 597.2 663.6, 598.8 663.6 Q 601.3 663.6, 602.5 662.0 Q 603.8 660.3, 604.0 657.0 Q 603.1 657.8, 601.9 658.3 Q 600.8 658.7, 599.6 658.7 Q 598.0 658.7, 596.8 658.0 Q 595.6 657.4, 594.9 656.1 Q 594.2 654.9, 594.2 653.4 Q 594.2 651.6, 595.0 650.3 Q 595.7 649.0, 597.1 648.2 Q 598.4 647.5, 600.2 647.5 M 596.7 653.3 Q 596.7 654.9, 597.6 655.8 Q 598.5 656.7, 600.0 656.7 Q 601.1 656.7, 602.1 656.3 Q 603.2 655.8, 604.0 655.1 Q 603.9 652.2, 602.9 650.8 Q 602.0 649.5, 600.1 649.5 Q 599.2 649.5, 598.4 650.0 Q 597.6 650.5, 597.2 651.4 Q 596.7 652.3, 596.7 653.3 " fill="#000000"/>
<path class="atom-19" d="M 443.4 499.2 Q 443.4 494.8, 445.4 492.5 Q 447.5 490.2, 451.4 490.2 Q 455.1 490.2, 457.0 492.8 L 455.4 494.1 Q 453.9 492.2, 451.4 492.2 Q 448.7 492.2, 447.3 494.0 Q 445.9 495.8, 445.9 499.2 Q 445.9 502.7, 447.4 504.5 Q 448.8 506.3, 451.7 506.3 Q 453.6 506.3, 455.9 505.1 L 456.6 507.0 Q 455.7 507.6, 454.3 508.0 Q 452.9 508.3, 451.3 508.3 Q 447.5 508.3, 445.4 506.0 Q 443.4 503.6, 443.4 499.2 " fill="#000000"/>
<path class="atom-19" d="M 459.3 493.7 Q 460.0 492.1, 461.5 491.1 Q 463.1 490.2, 465.2 490.2 Q 467.9 490.2, 469.4 491.6 Q 470.9 493.1, 470.9 495.7 Q 470.9 498.3, 469.0 500.7 Q 467.0 503.2, 463.0 506.1 L 471.2 506.1 L 471.2 508.1 L 459.3 508.1 L 459.3 506.4 Q 462.6 504.1, 464.5 502.3 Q 466.5 500.6, 467.5 499.0 Q 468.4 497.4, 468.4 495.8 Q 468.4 494.1, 467.6 493.1 Q 466.7 492.2, 465.2 492.2 Q 463.8 492.2, 462.9 492.8 Q 461.9 493.3, 461.2 494.6 L 459.3 493.7 " fill="#000000"/>
<path class="atom-19" d="M 480.5 508.3 Q 477.2 508.3, 475.6 505.9 Q 474.0 503.5, 474.0 499.2 Q 474.0 494.9, 475.6 492.6 Q 477.2 490.2, 480.5 490.2 Q 483.7 490.2, 485.3 492.6 Q 486.9 494.9, 486.9 499.2 Q 486.9 503.5, 485.3 505.9 Q 483.7 508.3, 480.5 508.3 M 480.5 506.3 Q 482.4 506.3, 483.4 504.5 Q 484.4 502.7, 484.4 499.2 Q 484.4 495.7, 483.4 494.0 Q 482.4 492.2, 480.5 492.2 Q 478.6 492.2, 477.5 494.0 Q 476.5 495.7, 476.5 499.2 Q 476.5 502.7, 477.5 504.5 Q 478.6 506.3, 480.5 506.3 " fill="#000000"/>
<path class="atom-20" d="M 376.5 538.2 Q 376.5 533.8, 378.6 531.5 Q 380.7 529.1, 384.6 529.1 Q 388.2 529.1, 390.2 531.7 L 388.5 533.1 Q 387.1 531.2, 384.6 531.2 Q 381.9 531.2, 380.5 533.0 Q 379.1 534.8, 379.1 538.2 Q 379.1 541.7, 380.5 543.5 Q 382.0 545.3, 384.9 545.3 Q 386.8 545.3, 389.1 544.1 L 389.8 546.0 Q 388.9 546.6, 387.5 546.9 Q 386.1 547.3, 384.5 547.3 Q 380.7 547.3, 378.6 544.9 Q 376.5 542.6, 376.5 538.2 " fill="#000000"/>
<path class="atom-20" d="M 392.4 532.7 Q 393.1 531.0, 394.6 530.1 Q 396.2 529.1, 398.3 529.1 Q 401.0 529.1, 402.5 530.6 Q 404.0 532.0, 404.0 534.6 Q 404.0 537.2, 402.1 539.7 Q 400.1 542.1, 396.1 545.0 L 404.3 545.0 L 404.3 547.0 L 392.4 547.0 L 392.4 545.4 Q 395.7 543.0, 397.6 541.3 Q 399.6 539.5, 400.6 537.9 Q 401.5 536.4, 401.5 534.7 Q 401.5 533.0, 400.7 532.1 Q 399.8 531.1, 398.3 531.1 Q 396.9 531.1, 396.0 531.7 Q 395.0 532.3, 394.3 533.6 L 392.4 532.7 " fill="#000000"/>
<path class="atom-20" d="M 408.0 545.0 L 411.9 545.0 L 411.9 531.8 L 407.6 533.1 L 407.0 531.7 L 412.5 529.2 L 414.2 529.5 L 414.2 545.0 L 417.7 545.0 L 417.7 547.0 L 408.0 547.0 L 408.0 545.0 " fill="#000000"/>
<path class="atom-21" d="M 308.1 498.7 Q 308.1 494.3, 310.2 492.0 Q 312.3 489.7, 316.2 489.7 Q 319.8 489.7, 321.8 492.3 L 320.1 493.6 Q 318.7 491.8, 316.2 491.8 Q 313.5 491.8, 312.1 493.6 Q 310.7 495.3, 310.7 498.7 Q 310.7 502.2, 312.1 504.0 Q 313.6 505.8, 316.5 505.8 Q 318.4 505.8, 320.7 504.7 L 321.4 506.5 Q 320.5 507.1, 319.1 507.5 Q 317.7 507.8, 316.1 507.8 Q 312.3 507.8, 310.2 505.5 Q 308.1 503.1, 308.1 498.7 " fill="#000000"/>
<path class="atom-21" d="M 324.1 493.3 Q 324.7 491.6, 326.3 490.7 Q 327.8 489.7, 330.0 489.7 Q 332.7 489.7, 334.2 491.2 Q 335.7 492.6, 335.7 495.2 Q 335.7 497.8, 333.7 500.3 Q 331.8 502.7, 327.8 505.6 L 336.0 505.6 L 336.0 507.6 L 324.0 507.6 L 324.0 505.9 Q 327.3 503.6, 329.3 501.8 Q 331.3 500.1, 332.2 498.5 Q 333.2 496.9, 333.2 495.3 Q 333.2 493.6, 332.3 492.7 Q 331.5 491.7, 330.0 491.7 Q 328.6 491.7, 327.6 492.3 Q 326.7 492.9, 326.0 494.1 L 324.1 493.3 " fill="#000000"/>
<path class="atom-21" d="M 338.8 493.3 Q 339.4 491.6, 341.0 490.7 Q 342.5 489.7, 344.7 489.7 Q 347.3 489.7, 348.8 491.2 Q 350.3 492.6, 350.3 495.2 Q 350.3 497.8, 348.4 500.3 Q 346.5 502.7, 342.5 505.6 L 350.6 505.6 L 350.6 507.6 L 338.7 507.6 L 338.7 505.9 Q 342.0 503.6, 344.0 501.8 Q 345.9 500.1, 346.9 498.5 Q 347.8 496.9, 347.8 495.3 Q 347.8 493.6, 347.0 492.7 Q 346.1 491.7, 344.7 491.7 Q 343.2 491.7, 342.3 492.3 Q 341.3 492.9, 340.7 494.1 L 338.8 493.3 " fill="#000000"/>
<path class="atom-22" d="M 240.1 537.7 Q 240.1 533.3, 242.2 531.0 Q 244.2 528.6, 248.2 528.6 Q 251.8 528.6, 253.8 531.2 L 252.1 532.6 Q 250.7 530.7, 248.2 530.7 Q 245.5 530.7, 244.1 532.5 Q 242.7 534.3, 242.7 537.7 Q 242.7 541.2, 244.1 543.0 Q 245.6 544.8, 248.4 544.8 Q 250.4 544.8, 252.7 543.6 L 253.4 545.5 Q 252.4 546.1, 251.0 546.4 Q 249.6 546.8, 248.1 546.8 Q 244.2 546.8, 242.2 544.4 Q 240.1 542.1, 240.1 537.7 " fill="#000000"/>
<path class="atom-22" d="M 256.1 532.2 Q 256.7 530.5, 258.3 529.6 Q 259.8 528.6, 262.0 528.6 Q 264.6 528.6, 266.1 530.1 Q 267.6 531.5, 267.6 534.1 Q 267.6 536.7, 265.7 539.2 Q 263.8 541.6, 259.8 544.5 L 267.9 544.5 L 267.9 546.5 L 256.0 546.5 L 256.0 544.9 Q 259.3 542.5, 261.3 540.8 Q 263.2 539.0, 264.2 537.4 Q 265.1 535.9, 265.1 534.2 Q 265.1 532.5, 264.3 531.6 Q 263.4 530.6, 262.0 530.6 Q 260.5 530.6, 259.6 531.2 Q 258.6 531.8, 258.0 533.1 L 256.1 532.2 " fill="#000000"/>
<path class="atom-22" d="M 279.2 537.2 Q 280.9 537.7, 281.7 538.8 Q 282.6 539.9, 282.6 541.7 Q 282.6 543.2, 281.8 544.4 Q 281.1 545.5, 279.7 546.2 Q 278.3 546.8, 276.5 546.8 Q 274.6 546.8, 273.2 546.1 Q 271.8 545.5, 270.7 544.1 L 272.1 542.7 Q 273.2 543.9, 274.1 544.3 Q 275.1 544.8, 276.5 544.8 Q 278.1 544.8, 279.1 543.9 Q 280.1 543.1, 280.1 541.7 Q 280.1 539.9, 279.1 539.1 Q 278.1 538.2, 275.9 538.2 L 274.6 538.2 L 274.6 536.4 L 275.7 536.4 Q 277.7 536.4, 278.7 535.6 Q 279.7 534.7, 279.7 533.2 Q 279.7 532.0, 278.9 531.3 Q 278.0 530.6, 276.6 530.6 Q 275.1 530.6, 274.2 531.2 Q 273.3 531.7, 272.6 533.0 L 270.8 532.1 Q 271.5 530.6, 273.0 529.6 Q 274.5 528.6, 276.6 528.6 Q 279.2 528.6, 280.7 529.9 Q 282.2 531.1, 282.2 533.2 Q 282.2 534.6, 281.4 535.6 Q 280.7 536.6, 279.2 537.2 " fill="#000000"/>
<path class="atom-23" d="M 171.5 498.2 Q 171.5 493.8, 173.5 491.5 Q 175.6 489.2, 179.5 489.2 Q 183.2 489.2, 185.1 491.8 L 183.5 493.1 Q 182.0 491.3, 179.5 491.3 Q 176.8 491.3, 175.4 493.1 Q 174.0 494.8, 174.0 498.2 Q 174.0 501.7, 175.5 503.5 Q 176.9 505.3, 179.8 505.3 Q 181.7 505.3, 184.0 504.2 L 184.7 506.0 Q 183.8 506.6, 182.4 507.0 Q 181.0 507.3, 179.4 507.3 Q 175.6 507.3, 173.5 505.0 Q 171.5 502.6, 171.5 498.2 " fill="#000000"/>
<path class="atom-23" d="M 187.5 492.8 Q 188.1 491.1, 189.7 490.2 Q 191.2 489.2, 193.4 489.2 Q 196.0 489.2, 197.5 490.7 Q 199.0 492.1, 199.0 494.7 Q 199.0 497.3, 197.1 499.8 Q 195.2 502.2, 191.2 505.1 L 199.3 505.1 L 199.3 507.1 L 187.4 507.1 L 187.4 505.4 Q 190.7 503.1, 192.7 501.3 Q 194.6 499.6, 195.6 498.0 Q 196.5 496.4, 196.5 494.8 Q 196.5 493.1, 195.7 492.2 Q 194.8 491.2, 193.4 491.2 Q 191.9 491.2, 191.0 491.8 Q 190.0 492.4, 189.4 493.6 L 187.5 492.8 " fill="#000000"/>
<path class="atom-23" d="M 213.6 501.0 L 215.8 501.0 L 215.8 503.0 L 213.6 503.0 L 213.6 507.1 L 211.3 507.1 L 211.3 503.0 L 202.1 503.0 L 202.1 501.5 L 209.9 489.4 L 213.6 489.4 L 213.6 501.0 M 205.0 501.0 L 211.3 501.0 L 211.3 491.0 L 205.0 501.0 " fill="#000000"/>
<path class="atom-24" d="M 86.0 537.2 Q 86.0 532.9, 88.1 530.5 Q 90.2 528.2, 94.1 528.2 Q 98.0 528.2, 100.1 530.5 Q 102.2 532.9, 102.2 537.2 Q 102.2 541.5, 100.1 543.9 Q 98.0 546.3, 94.1 546.3 Q 90.2 546.3, 88.1 543.9 Q 86.0 541.5, 86.0 537.2 M 94.1 544.3 Q 96.8 544.3, 98.3 542.5 Q 99.7 540.7, 99.7 537.2 Q 99.7 533.7, 98.3 531.9 Q 96.8 530.2, 94.1 530.2 Q 91.4 530.2, 89.9 531.9 Q 88.5 533.7, 88.5 537.2 Q 88.5 540.7, 89.9 542.5 Q 91.4 544.3, 94.1 544.3 " fill="#FF0000"/>
<path class="atom-24" d="M 104.9 531.7 Q 105.5 530.0, 107.1 529.1 Q 108.6 528.2, 110.8 528.2 Q 113.5 528.2, 115.0 529.6 Q 116.5 531.1, 116.5 533.6 Q 116.5 536.3, 114.5 538.7 Q 112.6 541.2, 108.6 544.1 L 116.8 544.1 L 116.8 546.1 L 104.8 546.1 L 104.8 544.4 Q 108.1 542.0, 110.1 540.3 Q 112.1 538.5, 113.0 537.0 Q 114.0 535.4, 114.0 533.8 Q 114.0 532.1, 113.1 531.1 Q 112.3 530.2, 110.8 530.2 Q 109.4 530.2, 108.4 530.7 Q 107.5 531.3, 106.8 532.6 L 104.9 531.7 " fill="#FF0000"/>
<path class="atom-24" d="M 126.0 535.0 Q 127.6 535.0, 128.8 535.7 Q 130.1 536.3, 130.8 537.6 Q 131.6 538.8, 131.6 540.5 Q 131.6 542.3, 130.7 543.6 Q 129.8 544.9, 128.3 545.6 Q 126.9 546.3, 125.2 546.3 Q 123.6 546.3, 122.1 545.7 Q 120.6 545.1, 119.6 543.9 L 121.1 542.4 Q 121.9 543.3, 123.0 543.8 Q 124.2 544.2, 125.3 544.2 Q 126.9 544.2, 128.0 543.3 Q 129.1 542.3, 129.1 540.5 Q 129.1 538.6, 128.0 537.8 Q 126.9 536.9, 125.2 536.9 Q 123.6 536.9, 121.9 537.5 L 120.5 536.9 L 121.4 528.4 L 130.5 528.4 L 130.2 530.4 L 123.4 530.4 L 122.9 535.6 Q 124.5 535.0, 126.0 535.0 " fill="#FF0000"/>
<path class="atom-25" d="M 185.8 419.8 Q 185.8 415.6, 187.9 413.2 Q 190.0 410.8, 193.9 410.8 Q 197.8 410.8, 199.9 413.2 Q 202.0 415.6, 202.0 419.8 Q 202.0 424.1, 199.9 426.6 Q 197.8 429.0, 193.9 429.0 Q 190.0 429.0, 187.9 426.6 Q 185.8 424.2, 185.8 419.8 M 193.9 427.0 Q 196.6 427.0, 198.0 425.2 Q 199.5 423.4, 199.5 419.8 Q 199.5 416.4, 198.0 414.6 Q 196.6 412.8, 193.9 412.8 Q 191.2 412.8, 189.7 414.6 Q 188.3 416.3, 188.3 419.8 Q 188.3 423.4, 189.7 425.2 Q 191.2 427.0, 193.9 427.0 " fill="#FF0000"/>
<path class="atom-25" d="M 204.7 414.4 Q 205.3 412.7, 206.9 411.8 Q 208.4 410.8, 210.6 410.8 Q 213.2 410.8, 214.7 412.3 Q 216.2 413.7, 216.2 416.3 Q 216.2 418.9, 214.3 421.4 Q 212.4 423.8, 208.4 426.7 L 216.5 426.7 L 216.5 428.7 L 204.6 428.7 L 204.6 427.1 Q 207.9 424.7, 209.9 423.0 Q 211.8 421.2, 212.8 419.6 Q 213.7 418.1, 213.7 416.4 Q 213.7 414.7, 212.9 413.8 Q 212.0 412.8, 210.6 412.8 Q 209.1 412.8, 208.2 413.4 Q 207.2 414.0, 206.6 415.3 L 204.7 414.4 " fill="#FF0000"/>
<path class="atom-25" d="M 226.3 417.7 Q 227.9 417.7, 229.1 418.4 Q 230.3 419.0, 231.0 420.3 Q 231.7 421.5, 231.7 423.0 Q 231.7 424.8, 230.9 426.1 Q 230.1 427.4, 228.8 428.2 Q 227.4 428.9, 225.7 428.9 Q 222.6 428.9, 221.0 426.8 Q 219.4 424.7, 219.4 420.4 Q 219.4 415.7, 221.3 413.3 Q 223.3 410.8, 227.1 410.8 Q 228.2 410.8, 229.1 411.1 Q 230.1 411.3, 231.0 411.9 L 230.0 413.5 Q 228.7 412.8, 227.1 412.8 Q 224.6 412.8, 223.3 414.5 Q 222.1 416.1, 221.9 419.4 Q 222.8 418.6, 223.9 418.1 Q 225.1 417.7, 226.3 417.7 M 225.7 426.9 Q 226.7 426.9, 227.5 426.4 Q 228.3 425.9, 228.7 425.0 Q 229.2 424.1, 229.2 423.1 Q 229.2 421.5, 228.3 420.6 Q 227.4 419.7, 225.9 419.7 Q 224.8 419.7, 223.7 420.1 Q 222.7 420.6, 221.9 421.3 Q 222.0 424.2, 222.9 425.6 Q 223.9 426.9, 225.7 426.9 " fill="#FF0000"/>
<text x="1000" y="50" font-size="8" font-family="Verdana" font-weight="normal" letter-spacing="0" text-anchor="start" fill="black">Highlighted Atoms:
Primary SOM: Red
Secondary SOM: Green
Tertiary SOM: Cyan
</text></svg>
