<?xml version='1.0' encoding='ASCII' standalone='yes'?>
<svg xmlns="http://www.w3.org/2000/svg" xmlns:rdkit="http://www.rdkit.org/xml" xmlns:xlink="http://www.w3.org/1999/xlink" style="background-color: white;" version="1.1" baseProfile="full" xml:space="preserve" width="1000px" height="1000px" viewBox="0 0 1000 1000">
<!-- END OF HEADER -->
<rect style="opacity:1.0;fill:#FFFFFF;stroke:none" width="1000.0" height="1000.0" x="0.0" y="0.0"> </rect>
<ellipse cx="115.3" cy="689.3" rx="29.9" ry="23.6" class="atom-26" style="fill:#B20000;fill-rule:evenodd;stroke:#B20000;stroke-width:1.0px;stroke-linecap:butt;stroke-linejoin:miter;stroke-opacity:1"/>
<ellipse cx="213.5" cy="571.3" rx="30.5" ry="23.6" class="atom-27" style="fill:#B20000;fill-rule:evenodd;stroke:#B20000;stroke-width:1.0px;stroke-linecap:butt;stroke-linejoin:miter;stroke-opacity:1"/>
<path class="bond-0 atom-1 atom-0" d="M 681.9,465.1 L 681.8,520.8" style="fill:none;fill-rule:evenodd;stroke:#000000;stroke-width:2.0px;stroke-linecap:butt;stroke-linejoin:miter;stroke-opacity:1"/>
<path class="bond-0 atom-1 atom-0" d="M 670.1,465.1 L 670.0,520.8" style="fill:none;fill-rule:evenodd;stroke:#000000;stroke-width:2.0px;stroke-linecap:butt;stroke-linejoin:miter;stroke-opacity:1"/>
<path class="bond-1 atom-2 atom-0" d="M 627.8,560.0 L 655.5,544.0" style="fill:none;fill-rule:evenodd;stroke:#000000;stroke-width:2.0px;stroke-linecap:butt;stroke-linejoin:miter;stroke-opacity:1"/>
<path class="bond-2 atom-3 atom-0" d="M 726.6,561.6 L 683.9,536.8" style="fill:none;fill-rule:evenodd;stroke:#000000;stroke-width:2.0px;stroke-linecap:butt;stroke-linejoin:miter;stroke-opacity:1"/>
<path class="bond-3 atom-4 atom-1" d="M 628.2,425.9 L 656.0,442.0" style="fill:none;fill-rule:evenodd;stroke:#000000;stroke-width:2.0px;stroke-linecap:butt;stroke-linejoin:miter;stroke-opacity:1"/>
<path class="bond-4 atom-5 atom-1" d="M 734.7,419.7 L 684.5,448.6" style="fill:none;fill-rule:evenodd;stroke:#000000;stroke-width:2.0px;stroke-linecap:butt;stroke-linejoin:miter;stroke-opacity:1"/>
<path class="bond-5 atom-6 atom-2" d="M 607.7,638.7 L 607.7,583.3" style="fill:none;fill-rule:evenodd;stroke:#000000;stroke-width:2.0px;stroke-linecap:butt;stroke-linejoin:miter;stroke-opacity:1"/>
<path class="bond-5 atom-6 atom-2" d="M 595.9,638.7 L 595.9,583.3" style="fill:none;fill-rule:evenodd;stroke:#000000;stroke-width:2.0px;stroke-linecap:butt;stroke-linejoin:miter;stroke-opacity:1"/>
<path class="bond-6 atom-7 atom-2" d="M 556.4,541.9 L 598.3,566.1" style="fill:none;fill-rule:evenodd;stroke:#000000;stroke-width:2.0px;stroke-linecap:butt;stroke-linejoin:miter;stroke-opacity:1"/>
<path class="bond-7 atom-8 atom-3" d="M 795.5,542.0 L 761.5,561.6" style="fill:none;fill-rule:evenodd;stroke:#000000;stroke-width:2.0px;stroke-linecap:butt;stroke-linejoin:miter;stroke-opacity:1"/>
<path class="bond-7 atom-8 atom-3" d="M 801.4,552.2 L 767.4,571.8" style="fill:none;fill-rule:evenodd;stroke:#000000;stroke-width:2.0px;stroke-linecap:butt;stroke-linejoin:miter;stroke-opacity:1"/>
<path class="bond-8 atom-9 atom-3" d="M 744.0,638.8 L 744.0,583.4" style="fill:none;fill-rule:evenodd;stroke:#000000;stroke-width:2.0px;stroke-linecap:butt;stroke-linejoin:miter;stroke-opacity:1"/>
<path class="bond-9 atom-10 atom-4" d="M 559.5,442.0 L 598.5,419.6" style="fill:none;fill-rule:evenodd;stroke:#000000;stroke-width:2.0px;stroke-linecap:butt;stroke-linejoin:miter;stroke-opacity:1"/>
<path class="bond-9 atom-10 atom-4" d="M 553.7,431.7 L 592.6,409.3" style="fill:none;fill-rule:evenodd;stroke:#000000;stroke-width:2.0px;stroke-linecap:butt;stroke-linejoin:miter;stroke-opacity:1"/>
<path class="bond-10 atom-11 atom-4" d="M 607.9,347.2 L 607.9,402.6" style="fill:none;fill-rule:evenodd;stroke:#000000;stroke-width:2.0px;stroke-linecap:butt;stroke-linejoin:miter;stroke-opacity:1"/>
<path class="bond-11 atom-12 atom-5" d="M 744.2,347.3 L 744.2,402.7" style="fill:none;fill-rule:evenodd;stroke:#000000;stroke-width:2.0px;stroke-linecap:butt;stroke-linejoin:miter;stroke-opacity:1"/>
<path class="bond-12 atom-13 atom-6" d="M 559.2,678.2 L 598.3,655.7" style="fill:none;fill-rule:evenodd;stroke:#000000;stroke-width:2.0px;stroke-linecap:butt;stroke-linejoin:miter;stroke-opacity:1"/>
<path class="bond-13 atom-14 atom-7" d="M 480.0,566.5 L 522.8,541.8" style="fill:none;fill-rule:evenodd;stroke:#000000;stroke-width:2.0px;stroke-linecap:butt;stroke-linejoin:miter;stroke-opacity:1"/>
<path class="bond-13 atom-14 atom-7" d="M 485.9,576.7 L 528.7,552.1" style="fill:none;fill-rule:evenodd;stroke:#000000;stroke-width:2.0px;stroke-linecap:butt;stroke-linejoin:miter;stroke-opacity:1"/>
<path class="bond-14 atom-15 atom-8" d="M 870.9,566.3 L 828.9,542.0" style="fill:none;fill-rule:evenodd;stroke:#000000;stroke-width:2.0px;stroke-linecap:butt;stroke-linejoin:miter;stroke-opacity:1"/>
<path class="bond-15 atom-16 atom-9" d="M 792.1,678.2 L 753.1,655.6" style="fill:none;fill-rule:evenodd;stroke:#000000;stroke-width:2.0px;stroke-linecap:butt;stroke-linejoin:miter;stroke-opacity:1"/>
<path class="bond-15 atom-16 atom-9" d="M 798.0,668.0 L 759.0,645.4" style="fill:none;fill-rule:evenodd;stroke:#000000;stroke-width:2.0px;stroke-linecap:butt;stroke-linejoin:miter;stroke-opacity:1"/>
<path class="bond-16 atom-17 atom-10" d="M 480.4,419.1 L 519.7,441.9" style="fill:none;fill-rule:evenodd;stroke:#000000;stroke-width:2.0px;stroke-linecap:butt;stroke-linejoin:miter;stroke-opacity:1"/>
<path class="bond-17 atom-18 atom-11" d="M 560.1,307.8 L 598.5,330.0" style="fill:none;fill-rule:evenodd;stroke:#000000;stroke-width:2.0px;stroke-linecap:butt;stroke-linejoin:miter;stroke-opacity:1"/>
<path class="bond-17 atom-18 atom-11" d="M 554.2,318.0 L 592.6,340.2" style="fill:none;fill-rule:evenodd;stroke:#000000;stroke-width:2.0px;stroke-linecap:butt;stroke-linejoin:miter;stroke-opacity:1"/>
<path class="bond-18 atom-19 atom-13" d="M 491.7,661.9 L 519.5,678.0" style="fill:none;fill-rule:evenodd;stroke:#000000;stroke-width:2.0px;stroke-linecap:butt;stroke-linejoin:miter;stroke-opacity:1"/>
<path class="bond-18 atom-19 atom-13" d="M 497.6,651.7 L 525.4,667.8" style="fill:none;fill-rule:evenodd;stroke:#000000;stroke-width:2.0px;stroke-linecap:butt;stroke-linejoin:miter;stroke-opacity:1"/>
<path class="bond-19 atom-19 atom-14" d="M 471.4,638.6 L 471.4,583.2" style="fill:none;fill-rule:evenodd;stroke:#000000;stroke-width:2.0px;stroke-linecap:butt;stroke-linejoin:miter;stroke-opacity:1"/>
<path class="bond-20 atom-20 atom-15" d="M 880.3,638.9 L 880.4,583.5" style="fill:none;fill-rule:evenodd;stroke:#000000;stroke-width:2.0px;stroke-linecap:butt;stroke-linejoin:miter;stroke-opacity:1"/>
<path class="bond-20 atom-20 atom-15" d="M 868.5,638.9 L 868.6,583.5" style="fill:none;fill-rule:evenodd;stroke:#000000;stroke-width:2.0px;stroke-linecap:butt;stroke-linejoin:miter;stroke-opacity:1"/>
<path class="bond-21 atom-20 atom-16" d="M 870.9,655.9 L 831.8,678.4" style="fill:none;fill-rule:evenodd;stroke:#000000;stroke-width:2.0px;stroke-linecap:butt;stroke-linejoin:miter;stroke-opacity:1"/>
<path class="bond-22 atom-21 atom-17" d="M 471.6,346.9 L 471.6,402.5" style="fill:none;fill-rule:evenodd;stroke:#000000;stroke-width:2.0px;stroke-linecap:butt;stroke-linejoin:miter;stroke-opacity:1"/>
<path class="bond-22 atom-21 atom-17" d="M 483.4,346.9 L 483.4,402.5" style="fill:none;fill-rule:evenodd;stroke:#000000;stroke-width:2.0px;stroke-linecap:butt;stroke-linejoin:miter;stroke-opacity:1"/>
<path class="bond-23 atom-21 atom-18" d="M 480.2,330.4 L 519.4,307.8" style="fill:none;fill-rule:evenodd;stroke:#000000;stroke-width:2.0px;stroke-linecap:butt;stroke-linejoin:miter;stroke-opacity:1"/>
<path class="bond-24 atom-22 atom-19" d="M 423.2,677.9 L 437.1,669.9" style="fill:none;fill-rule:evenodd;stroke:#FF0000;stroke-width:2.0px;stroke-linecap:butt;stroke-linejoin:miter;stroke-opacity:1"/>
<path class="bond-24 atom-22 atom-19" d="M 437.1,669.9 L 450.9,661.9" style="fill:none;fill-rule:evenodd;stroke:#000000;stroke-width:2.0px;stroke-linecap:butt;stroke-linejoin:miter;stroke-opacity:1"/>
<path class="bond-25 atom-23 atom-22" d="M 355.0,661.6 L 369.1,669.7" style="fill:none;fill-rule:evenodd;stroke:#000000;stroke-width:2.0px;stroke-linecap:butt;stroke-linejoin:miter;stroke-opacity:1"/>
<path class="bond-25 atom-23 atom-22" d="M 369.1,669.7 L 383.2,677.9" style="fill:none;fill-rule:evenodd;stroke:#FF0000;stroke-width:2.0px;stroke-linecap:butt;stroke-linejoin:miter;stroke-opacity:1"/>
<path class="bond-26 atom-24 atom-23" d="M 286.6,678.0 L 314.6,661.8" style="fill:none;fill-rule:evenodd;stroke:#000000;stroke-width:2.0px;stroke-linecap:butt;stroke-linejoin:miter;stroke-opacity:1"/>
<path class="bond-27 atom-25 atom-24" d="M 219.1,661.7 L 233.0,669.7" style="fill:none;fill-rule:evenodd;stroke:#0000FF;stroke-width:2.0px;stroke-linecap:butt;stroke-linejoin:miter;stroke-opacity:1"/>
<path class="bond-27 atom-25 atom-24" d="M 233.0,669.7 L 246.9,677.8" style="fill:none;fill-rule:evenodd;stroke:#000000;stroke-width:2.0px;stroke-linecap:butt;stroke-linejoin:miter;stroke-opacity:1"/>
<path class="bond-28 atom-26 atom-25" d="M 139.0,684.3 L 158.9,672.9" style="fill:none;fill-rule:evenodd;stroke:#000000;stroke-width:2.0px;stroke-linecap:butt;stroke-linejoin:miter;stroke-opacity:1"/>
<path class="bond-28 atom-26 atom-25" d="M 158.9,672.9 L 178.7,661.5" style="fill:none;fill-rule:evenodd;stroke:#0000FF;stroke-width:2.0px;stroke-linecap:butt;stroke-linejoin:miter;stroke-opacity:1"/>
<path class="bond-29 atom-27 atom-25" d="M 198.8,583.0 L 198.8,610.7" style="fill:none;fill-rule:evenodd;stroke:#000000;stroke-width:2.0px;stroke-linecap:butt;stroke-linejoin:miter;stroke-opacity:1"/>
<path class="bond-29 atom-27 atom-25" d="M 198.8,610.7 L 198.7,638.4" style="fill:none;fill-rule:evenodd;stroke:#0000FF;stroke-width:2.0px;stroke-linecap:butt;stroke-linejoin:miter;stroke-opacity:1"/>
<path class="atom-0" d="M 654.7 532.3 Q 654.7 527.9, 656.8 525.6 Q 658.8 523.3, 662.8 523.3 Q 666.4 523.3, 668.4 525.9 L 666.7 527.2 Q 665.3 525.3, 662.8 525.3 Q 660.1 525.3, 658.7 527.1 Q 657.3 528.9, 657.3 532.3 Q 657.3 535.8, 658.7 537.6 Q 660.2 539.4, 663.0 539.4 Q 665.0 539.4, 667.3 538.2 L 668.0 540.1 Q 667.0 540.7, 665.6 541.1 Q 664.2 541.4, 662.7 541.4 Q 658.8 541.4, 656.8 539.1 Q 654.7 536.7, 654.7 532.3 " fill="#000000"/>
<path class="atom-0" d="M 671.6 539.2 L 675.4 539.2 L 675.4 526.0 L 671.2 527.3 L 670.6 525.8 L 676.0 523.4 L 677.8 523.7 L 677.8 539.2 L 681.3 539.2 L 681.3 541.2 L 671.6 541.2 L 671.6 539.2 " fill="#000000"/>
<path class="atom-1" d="M 654.1 453.6 Q 654.1 449.2, 656.1 446.9 Q 658.2 444.6, 662.1 444.6 Q 665.8 444.6, 667.7 447.2 L 666.1 448.5 Q 664.7 446.6, 662.1 446.6 Q 659.5 446.6, 658.0 448.4 Q 656.6 450.2, 656.6 453.6 Q 656.6 457.1, 658.1 458.9 Q 659.6 460.7, 662.4 460.7 Q 664.4 460.7, 666.6 459.5 L 667.3 461.4 Q 666.4 462.0, 665.0 462.4 Q 663.6 462.7, 662.1 462.7 Q 658.2 462.7, 656.1 460.4 Q 654.1 458.0, 654.1 453.6 " fill="#000000"/>
<path class="atom-1" d="M 670.1 448.1 Q 670.7 446.5, 672.3 445.5 Q 673.8 444.6, 676.0 444.6 Q 678.6 444.6, 680.1 446.0 Q 681.6 447.5, 681.6 450.1 Q 681.6 452.7, 679.7 455.1 Q 677.8 457.6, 673.8 460.5 L 681.9 460.5 L 681.9 462.5 L 670.0 462.5 L 670.0 460.8 Q 673.3 458.5, 675.3 456.7 Q 677.2 455.0, 678.2 453.4 Q 679.1 451.8, 679.1 450.2 Q 679.1 448.5, 678.3 447.5 Q 677.4 446.6, 676.0 446.6 Q 674.5 446.6, 673.6 447.2 Q 672.6 447.7, 672.0 449.0 L 670.1 448.1 " fill="#000000"/>
<path class="atom-2" d="M 600.9 571.6 Q 600.9 567.2, 603.0 564.9 Q 605.0 562.6, 609.0 562.6 Q 612.6 562.6, 614.6 565.1 L 612.9 566.5 Q 611.5 564.6, 609.0 564.6 Q 606.3 564.6, 604.9 566.4 Q 603.5 568.2, 603.5 571.6 Q 603.5 575.1, 604.9 576.9 Q 606.4 578.7, 609.2 578.7 Q 611.2 578.7, 613.5 577.5 L 614.2 579.4 Q 613.2 580.0, 611.8 580.3 Q 610.4 580.7, 608.9 580.7 Q 605.0 580.7, 603.0 578.3 Q 600.9 576.0, 600.9 571.6 " fill="#000000"/>
<path class="atom-2" d="M 625.4 571.1 Q 627.1 571.6, 627.9 572.8 Q 628.8 573.9, 628.8 575.6 Q 628.8 577.1, 628.0 578.3 Q 627.3 579.4, 625.9 580.1 Q 624.5 580.7, 622.7 580.7 Q 620.8 580.7, 619.4 580.1 Q 618.0 579.4, 616.9 578.0 L 618.3 576.6 Q 619.4 577.8, 620.3 578.3 Q 621.2 578.7, 622.7 578.7 Q 624.3 578.7, 625.3 577.9 Q 626.3 577.0, 626.3 575.6 Q 626.3 573.8, 625.2 573.0 Q 624.2 572.2, 622.1 572.2 L 620.8 572.2 L 620.8 570.4 L 621.9 570.4 Q 623.8 570.3, 624.9 569.5 Q 625.9 568.7, 625.9 567.1 Q 625.9 565.9, 625.0 565.3 Q 624.2 564.6, 622.7 564.6 Q 621.3 564.6, 620.3 565.1 Q 619.4 565.6, 618.7 566.9 L 617.0 566.0 Q 617.6 564.5, 619.1 563.6 Q 620.6 562.6, 622.7 562.6 Q 625.3 562.6, 626.9 563.8 Q 628.4 565.0, 628.4 567.1 Q 628.4 568.5, 627.6 569.5 Q 626.8 570.6, 625.4 571.1 " fill="#000000"/>
<path class="atom-3" d="M 729.2 571.7 Q 729.2 567.3, 731.3 565.0 Q 733.4 562.7, 737.3 562.7 Q 740.9 562.7, 742.9 565.3 L 741.2 566.6 Q 739.8 564.7, 737.3 564.7 Q 734.6 564.7, 733.2 566.5 Q 731.8 568.3, 731.8 571.7 Q 731.8 575.2, 733.2 577.0 Q 734.7 578.8, 737.6 578.8 Q 739.5 578.8, 741.8 577.6 L 742.5 579.5 Q 741.6 580.1, 740.2 580.5 Q 738.8 580.8, 737.2 580.8 Q 733.4 580.8, 731.3 578.5 Q 729.2 576.1, 729.2 571.7 " fill="#000000"/>
<path class="atom-3" d="M 756.7 574.5 L 758.9 574.5 L 758.9 576.5 L 756.7 576.5 L 756.7 580.6 L 754.4 580.6 L 754.4 576.5 L 745.2 576.5 L 745.2 574.9 L 753.0 562.9 L 756.7 562.9 L 756.7 574.5 M 748.1 574.5 L 754.4 574.5 L 754.4 564.5 L 748.1 574.5 " fill="#000000"/>
<path class="atom-4" d="M 601.1 414.2 Q 601.1 409.8, 603.1 407.5 Q 605.2 405.2, 609.1 405.2 Q 612.8 405.2, 614.7 407.8 L 613.1 409.1 Q 611.6 407.2, 609.1 407.2 Q 606.4 407.2, 605.0 409.0 Q 603.6 410.8, 603.6 414.2 Q 603.6 417.7, 605.1 419.5 Q 606.5 421.3, 609.4 421.3 Q 611.3 421.3, 613.6 420.1 L 614.3 422.0 Q 613.4 422.6, 612.0 423.0 Q 610.6 423.3, 609.0 423.3 Q 605.2 423.3, 603.1 421.0 Q 601.1 418.6, 601.1 414.2 " fill="#000000"/>
<path class="atom-4" d="M 623.4 412.0 Q 625.0 412.0, 626.2 412.7 Q 627.5 413.3, 628.2 414.6 Q 629.0 415.8, 629.0 417.5 Q 629.0 419.3, 628.1 420.6 Q 627.2 421.9, 625.7 422.6 Q 624.3 423.3, 622.6 423.3 Q 621.0 423.3, 619.5 422.7 Q 618.0 422.1, 617.0 420.9 L 618.5 419.4 Q 619.3 420.3, 620.4 420.8 Q 621.6 421.3, 622.7 421.3 Q 624.3 421.3, 625.4 420.3 Q 626.5 419.3, 626.5 417.5 Q 626.5 415.7, 625.4 414.8 Q 624.3 413.9, 622.6 413.9 Q 621.0 413.9, 619.3 414.6 L 617.9 413.9 L 618.8 405.4 L 627.9 405.4 L 627.6 407.4 L 620.8 407.4 L 620.3 412.6 Q 621.9 412.0, 623.4 412.0 " fill="#000000"/>
<path class="atom-5" d="M 737.3 414.3 Q 737.3 409.9, 739.4 407.6 Q 741.5 405.3, 745.4 405.3 Q 749.0 405.3, 751.0 407.9 L 749.3 409.2 Q 747.9 407.3, 745.4 407.3 Q 742.7 407.3, 741.3 409.1 Q 739.9 410.9, 739.9 414.3 Q 739.9 417.8, 741.3 419.6 Q 742.8 421.4, 745.7 421.4 Q 747.6 421.4, 749.9 420.2 L 750.6 422.1 Q 749.7 422.7, 748.3 423.1 Q 746.9 423.4, 745.3 423.4 Q 741.5 423.4, 739.4 421.1 Q 737.3 418.7, 737.3 414.3 " fill="#000000"/>
<path class="atom-5" d="M 760.2 412.1 Q 761.8 412.1, 763.0 412.8 Q 764.2 413.5, 764.9 414.7 Q 765.6 415.9, 765.6 417.5 Q 765.6 419.2, 764.8 420.6 Q 764.0 421.9, 762.7 422.6 Q 761.3 423.4, 759.6 423.4 Q 756.5 423.4, 754.9 421.3 Q 753.3 419.1, 753.3 414.9 Q 753.3 410.2, 755.2 407.7 Q 757.2 405.3, 761.0 405.3 Q 762.1 405.3, 763.0 405.5 Q 764.0 405.8, 764.9 406.3 L 763.9 408.0 Q 762.6 407.3, 761.0 407.3 Q 758.5 407.3, 757.2 408.9 Q 756.0 410.5, 755.8 413.8 Q 756.7 413.0, 757.8 412.6 Q 759.0 412.1, 760.2 412.1 M 759.6 421.3 Q 760.6 421.3, 761.4 420.8 Q 762.2 420.3, 762.6 419.5 Q 763.1 418.6, 763.1 417.5 Q 763.1 415.9, 762.2 415.0 Q 761.3 414.1, 759.8 414.1 Q 758.7 414.1, 757.6 414.6 Q 756.6 415.0, 755.8 415.8 Q 755.9 418.7, 756.8 420.0 Q 757.8 421.3, 759.6 421.3 " fill="#000000"/>
<path class="atom-6" d="M 600.9 650.3 Q 600.9 645.9, 602.9 643.6 Q 605.0 641.3, 608.9 641.3 Q 612.6 641.3, 614.5 643.9 L 612.9 645.2 Q 611.4 643.3, 608.9 643.3 Q 606.2 643.3, 604.8 645.1 Q 603.4 646.9, 603.4 650.3 Q 603.4 653.8, 604.9 655.6 Q 606.3 657.4, 609.2 657.4 Q 611.1 657.4, 613.4 656.2 L 614.1 658.1 Q 613.2 658.7, 611.8 659.1 Q 610.4 659.4, 608.8 659.4 Q 605.0 659.4, 602.9 657.1 Q 600.9 654.7, 600.9 650.3 " fill="#000000"/>
<path class="atom-6" d="M 626.1 643.5 L 616.8 643.5 L 616.8 641.5 L 628.5 641.5 L 628.5 643.3 L 621.4 659.2 L 619.0 659.2 L 626.1 643.5 " fill="#000000"/>
<path class="atom-7" d="M 525.4 532.2 Q 525.4 527.8, 527.4 525.5 Q 529.5 523.2, 533.4 523.2 Q 537.1 523.2, 539.0 525.8 L 537.4 527.1 Q 536.0 525.2, 533.4 525.2 Q 530.8 525.2, 529.3 527.0 Q 527.9 528.8, 527.9 532.2 Q 527.9 535.7, 529.4 537.5 Q 530.9 539.3, 533.7 539.3 Q 535.7 539.3, 537.9 538.1 L 538.6 540.0 Q 537.7 540.6, 536.3 541.0 Q 534.9 541.3, 533.4 541.3 Q 529.5 541.3, 527.4 539.0 Q 525.4 536.6, 525.4 532.2 " fill="#000000"/>
<path class="atom-7" d="M 550.4 531.7 Q 552.0 532.4, 552.9 533.5 Q 553.8 534.5, 553.8 536.2 Q 553.8 537.7, 553.1 538.9 Q 552.3 540.1, 550.9 540.7 Q 549.5 541.3, 547.7 541.3 Q 544.7 541.3, 543.0 540.0 Q 541.3 538.6, 541.3 536.2 Q 541.3 534.8, 542.1 533.7 Q 542.8 532.6, 544.4 531.8 Q 543.2 531.1, 542.6 530.2 Q 542.0 529.2, 542.0 527.7 Q 542.0 525.6, 543.5 524.4 Q 545.0 523.2, 547.6 523.2 Q 550.2 523.2, 551.7 524.4 Q 553.2 525.6, 553.2 527.7 Q 553.2 529.0, 552.5 530.0 Q 551.8 530.9, 550.4 531.7 M 547.6 525.1 Q 546.1 525.1, 545.3 525.8 Q 544.5 526.5, 544.5 527.7 Q 544.5 528.6, 545.0 529.3 Q 545.6 529.9, 546.4 530.2 Q 547.2 530.6, 548.7 531.1 Q 549.8 530.3, 550.2 529.5 Q 550.7 528.7, 550.7 527.7 Q 550.7 526.5, 549.9 525.8 Q 549.1 525.1, 547.6 525.1 M 547.7 539.5 Q 549.3 539.5, 550.3 538.6 Q 551.3 537.7, 551.3 536.2 Q 551.3 535.3, 550.8 534.7 Q 550.3 534.1, 549.5 533.7 Q 548.7 533.4, 547.3 532.9 L 546.2 532.5 Q 544.9 533.3, 544.4 534.2 Q 543.8 535.1, 543.8 536.2 Q 543.8 537.7, 544.9 538.6 Q 545.9 539.5, 547.7 539.5 " fill="#000000"/>
<path class="atom-8" d="M 798.1 532.4 Q 798.1 528.0, 800.2 525.7 Q 802.2 523.4, 806.2 523.4 Q 809.8 523.4, 811.8 526.0 L 810.1 527.3 Q 808.7 525.4, 806.2 525.4 Q 803.5 525.4, 802.1 527.2 Q 800.7 529.0, 800.7 532.4 Q 800.7 535.9, 802.1 537.7 Q 803.6 539.5, 806.4 539.5 Q 808.4 539.5, 810.7 538.3 L 811.4 540.2 Q 810.4 540.8, 809.0 541.2 Q 807.6 541.5, 806.1 541.5 Q 802.2 541.5, 800.2 539.2 Q 798.1 536.8, 798.1 532.4 " fill="#000000"/>
<path class="atom-8" d="M 820.0 523.4 Q 823.2 523.4, 824.7 525.5 Q 826.3 527.7, 826.3 531.9 Q 826.3 536.6, 824.4 539.1 Q 822.4 541.5, 818.6 541.5 Q 817.5 541.5, 816.6 541.2 Q 815.7 541.0, 814.8 540.5 L 815.7 538.8 Q 817.0 539.5, 818.6 539.5 Q 821.1 539.5, 822.4 537.9 Q 823.7 536.3, 823.8 532.9 Q 822.9 533.8, 821.8 534.2 Q 820.6 534.6, 819.4 534.6 Q 817.9 534.6, 816.6 534.0 Q 815.4 533.3, 814.7 532.1 Q 814.1 530.8, 814.1 529.3 Q 814.1 527.6, 814.8 526.2 Q 815.6 524.9, 816.9 524.1 Q 818.3 523.4, 820.0 523.4 M 816.6 529.3 Q 816.6 530.8, 817.4 531.7 Q 818.3 532.6, 819.9 532.6 Q 820.9 532.6, 822.0 532.2 Q 823.1 531.8, 823.8 531.0 Q 823.7 528.1, 822.8 526.8 Q 821.9 525.4, 820.0 525.4 Q 819.0 525.4, 818.2 525.9 Q 817.5 526.4, 817.0 527.3 Q 816.6 528.2, 816.6 529.3 " fill="#000000"/>
<path class="atom-9" d="M 708.6 650.4 Q 708.6 646.0, 710.7 643.7 Q 712.8 641.4, 716.7 641.4 Q 720.3 641.4, 722.3 644.0 L 720.6 645.3 Q 719.2 643.4, 716.7 643.4 Q 714.0 643.4, 712.6 645.2 Q 711.2 647.0, 711.2 650.4 Q 711.2 653.9, 712.6 655.7 Q 714.1 657.5, 717.0 657.5 Q 718.9 657.5, 721.2 656.3 L 721.9 658.2 Q 721.0 658.8, 719.6 659.2 Q 718.2 659.5, 716.6 659.5 Q 712.8 659.5, 710.7 657.2 Q 708.6 654.8, 708.6 650.4 " fill="#000000"/>
<path class="atom-9" d="M 725.5 657.3 L 729.4 657.3 L 729.4 644.1 L 725.1 645.4 L 724.5 643.9 L 730.0 641.5 L 731.7 641.8 L 731.7 657.3 L 735.2 657.3 L 735.2 659.3 L 725.5 659.3 L 725.5 657.3 " fill="#000000"/>
<path class="atom-9" d="M 744.0 659.5 Q 740.7 659.5, 739.1 657.1 Q 737.5 654.7, 737.5 650.4 Q 737.5 646.1, 739.1 643.8 Q 740.7 641.4, 744.0 641.4 Q 747.3 641.4, 748.9 643.8 Q 750.5 646.1, 750.5 650.4 Q 750.5 654.7, 748.8 657.1 Q 747.2 659.5, 744.0 659.5 M 744.0 657.5 Q 745.9 657.5, 746.9 655.7 Q 748.0 653.9, 748.0 650.4 Q 748.0 646.9, 746.9 645.2 Q 745.9 643.4, 744.0 643.4 Q 742.1 643.4, 741.0 645.2 Q 740.0 646.9, 740.0 650.4 Q 740.0 653.9, 741.0 655.7 Q 742.1 657.5, 744.0 657.5 " fill="#000000"/>
<path class="atom-10" d="M 520.0 453.5 Q 520.0 449.1, 522.0 446.8 Q 524.1 444.5, 528.0 444.5 Q 531.7 444.5, 533.6 447.0 L 532.0 448.4 Q 530.6 446.5, 528.0 446.5 Q 525.4 446.5, 523.9 448.3 Q 522.5 450.1, 522.5 453.5 Q 522.5 457.0, 524.0 458.8 Q 525.5 460.6, 528.3 460.6 Q 530.3 460.6, 532.5 459.4 L 533.2 461.3 Q 532.3 461.9, 530.9 462.2 Q 529.5 462.6, 528.0 462.6 Q 524.1 462.6, 522.0 460.2 Q 520.0 457.9, 520.0 453.5 " fill="#000000"/>
<path class="atom-10" d="M 536.8 460.4 L 540.6 460.4 L 540.6 447.1 L 536.4 448.5 L 535.8 447.0 L 541.2 444.6 L 543.0 444.9 L 543.0 460.4 L 546.5 460.4 L 546.5 462.4 L 536.8 462.4 L 536.8 460.4 " fill="#000000"/>
<path class="atom-10" d="M 549.7 460.4 L 553.5 460.4 L 553.5 447.1 L 549.3 448.5 L 548.7 447.0 L 554.1 444.6 L 555.9 444.9 L 555.9 460.4 L 559.4 460.4 L 559.4 462.4 L 549.7 462.4 L 549.7 460.4 " fill="#000000"/>
<path class="atom-11" d="M 601.1 335.5 Q 601.1 331.1, 603.2 328.8 Q 605.2 326.5, 609.2 326.5 Q 612.8 326.5, 614.8 329.0 L 613.1 330.4 Q 611.7 328.5, 609.2 328.5 Q 606.5 328.5, 605.1 330.3 Q 603.7 332.1, 603.7 335.5 Q 603.7 339.0, 605.1 340.8 Q 606.6 342.6, 609.4 342.6 Q 611.4 342.6, 613.7 341.4 L 614.4 343.3 Q 613.4 343.9, 612.0 344.2 Q 610.6 344.6, 609.1 344.6 Q 605.2 344.6, 603.2 342.2 Q 601.1 339.9, 601.1 335.5 " fill="#000000"/>
<path class="atom-11" d="M 617.9 342.4 L 621.8 342.4 L 621.8 329.1 L 617.5 330.5 L 617.0 329.0 L 622.4 326.6 L 624.2 326.9 L 624.2 342.4 L 627.6 342.4 L 627.6 344.4 L 617.9 344.4 L 617.9 342.4 " fill="#000000"/>
<path class="atom-11" d="M 630.0 330.0 Q 630.6 328.3, 632.2 327.4 Q 633.7 326.5, 635.9 326.5 Q 638.5 326.5, 640.0 327.9 Q 641.5 329.4, 641.5 331.9 Q 641.5 334.6, 639.6 337.0 Q 637.7 339.5, 633.7 342.4 L 641.8 342.4 L 641.8 344.4 L 629.9 344.4 L 629.9 342.7 Q 633.2 340.3, 635.2 338.6 Q 637.1 336.8, 638.1 335.3 Q 639.0 333.7, 639.0 332.1 Q 639.0 330.4, 638.2 329.4 Q 637.3 328.5, 635.9 328.5 Q 634.4 328.5, 633.5 329.0 Q 632.5 329.6, 631.9 330.9 L 630.0 330.0 " fill="#000000"/>
<path class="atom-12" d="M 737.4 335.6 Q 737.4 331.2, 739.5 328.9 Q 741.5 326.6, 745.5 326.6 Q 749.1 326.6, 751.1 329.2 L 749.4 330.5 Q 748.0 328.6, 745.5 328.6 Q 742.8 328.6, 741.4 330.4 Q 740.0 332.2, 740.0 335.6 Q 740.0 339.1, 741.4 340.9 Q 742.9 342.7, 745.7 342.7 Q 747.7 342.7, 750.0 341.5 L 750.7 343.4 Q 749.7 344.0, 748.3 344.4 Q 746.9 344.7, 745.4 344.7 Q 741.5 344.7, 739.5 342.4 Q 737.4 340.0, 737.4 335.6 " fill="#000000"/>
<path class="atom-12" d="M 754.2 342.5 L 758.1 342.5 L 758.1 329.3 L 753.8 330.6 L 753.3 329.1 L 758.7 326.7 L 760.5 327.0 L 760.5 342.5 L 763.9 342.5 L 763.9 344.5 L 754.2 344.5 L 754.2 342.5 " fill="#000000"/>
<path class="atom-12" d="M 774.7 335.2 Q 776.4 335.7, 777.2 336.8 Q 778.1 337.9, 778.1 339.6 Q 778.1 341.1, 777.3 342.3 Q 776.6 343.5, 775.2 344.1 Q 773.8 344.7, 772.0 344.7 Q 770.1 344.7, 768.7 344.1 Q 767.3 343.4, 766.2 342.1 L 767.6 340.6 Q 768.7 341.8, 769.6 342.3 Q 770.6 342.7, 772.0 342.7 Q 773.6 342.7, 774.6 341.9 Q 775.6 341.0, 775.6 339.6 Q 775.6 337.8, 774.6 337.0 Q 773.6 336.2, 771.4 336.2 L 770.1 336.2 L 770.1 334.4 L 771.2 334.4 Q 773.2 334.4, 774.2 333.5 Q 775.2 332.7, 775.2 331.1 Q 775.2 330.0, 774.4 329.3 Q 773.5 328.6, 772.1 328.6 Q 770.6 328.6, 769.7 329.1 Q 768.8 329.6, 768.1 331.0 L 766.3 330.0 Q 767.0 328.6, 768.5 327.6 Q 770.0 326.6, 772.1 326.6 Q 774.7 326.6, 776.2 327.8 Q 777.7 329.0, 777.7 331.1 Q 777.7 332.5, 776.9 333.6 Q 776.2 334.6, 774.7 335.2 " fill="#000000"/>
<path class="atom-13" d="M 518.2 689.6 Q 518.2 685.2, 520.3 682.9 Q 522.3 680.6, 526.3 680.6 Q 529.9 680.6, 531.9 683.1 L 530.2 684.5 Q 528.8 682.6, 526.3 682.6 Q 523.6 682.6, 522.2 684.4 Q 520.8 686.2, 520.8 689.6 Q 520.8 693.1, 522.2 694.9 Q 523.7 696.7, 526.5 696.7 Q 528.5 696.7, 530.8 695.5 L 531.5 697.4 Q 530.5 698.0, 529.1 698.3 Q 527.7 698.7, 526.2 698.7 Q 522.3 698.7, 520.3 696.3 Q 518.2 694.0, 518.2 689.6 " fill="#000000"/>
<path class="atom-13" d="M 535.1 696.5 L 539.0 696.5 L 539.0 683.2 L 534.7 684.6 L 534.1 683.1 L 539.6 680.7 L 541.3 681.0 L 541.3 696.5 L 544.8 696.5 L 544.8 698.5 L 535.1 698.5 L 535.1 696.5 " fill="#000000"/>
<path class="atom-13" d="M 558.6 692.4 L 560.7 692.4 L 560.7 694.4 L 558.6 694.4 L 558.6 698.5 L 556.3 698.5 L 556.3 694.4 L 547.1 694.4 L 547.1 692.8 L 554.9 680.8 L 558.6 680.8 L 558.6 692.4 M 550.0 692.4 L 556.3 692.4 L 556.3 682.4 L 550.0 692.4 " fill="#000000"/>
<path class="atom-14" d="M 436.6 571.5 Q 436.6 567.1, 438.7 564.8 Q 440.8 562.5, 444.7 562.5 Q 448.3 562.5, 450.3 565.0 L 448.6 566.4 Q 447.2 564.5, 444.7 564.5 Q 442.0 564.5, 440.6 566.3 Q 439.2 568.1, 439.2 571.5 Q 439.2 575.0, 440.6 576.8 Q 442.1 578.6, 445.0 578.6 Q 446.9 578.6, 449.2 577.4 L 449.9 579.3 Q 449.0 579.9, 447.6 580.2 Q 446.2 580.6, 444.6 580.6 Q 440.8 580.6, 438.7 578.2 Q 436.6 575.9, 436.6 571.5 " fill="#000000"/>
<path class="atom-14" d="M 453.5 578.4 L 457.4 578.4 L 457.4 565.1 L 453.1 566.5 L 452.5 565.0 L 457.9 562.6 L 459.7 562.9 L 459.7 578.4 L 463.2 578.4 L 463.2 580.4 L 453.5 580.4 L 453.5 578.4 " fill="#000000"/>
<path class="atom-14" d="M 471.9 569.3 Q 473.4 569.3, 474.7 570.0 Q 476.0 570.6, 476.7 571.9 Q 477.4 573.1, 477.4 574.8 Q 477.4 576.6, 476.5 577.9 Q 475.6 579.2, 474.2 579.9 Q 472.7 580.6, 471.1 580.6 Q 469.5 580.6, 468.0 580.0 Q 466.5 579.4, 465.4 578.2 L 466.9 576.7 Q 467.8 577.6, 468.9 578.1 Q 470.0 578.5, 471.2 578.5 Q 472.7 578.5, 473.8 577.6 Q 474.9 576.6, 474.9 574.8 Q 474.9 572.9, 473.8 572.1 Q 472.7 571.2, 471.0 571.2 Q 469.5 571.2, 467.7 571.8 L 466.4 571.2 L 467.2 562.7 L 476.3 562.7 L 476.1 564.7 L 469.3 564.7 L 468.7 569.9 Q 470.3 569.3, 471.9 569.3 " fill="#000000"/>
<path class="atom-15" d="M 873.5 571.8 Q 873.5 567.4, 875.6 565.1 Q 877.7 562.8, 881.6 562.8 Q 885.2 562.8, 887.2 565.4 L 885.5 566.7 Q 884.1 564.8, 881.6 564.8 Q 878.9 564.8, 877.5 566.6 Q 876.1 568.4, 876.1 571.8 Q 876.1 575.3, 877.5 577.1 Q 879.0 578.9, 881.9 578.9 Q 883.8 578.9, 886.1 577.7 L 886.8 579.6 Q 885.9 580.2, 884.5 580.6 Q 883.1 580.9, 881.5 580.9 Q 877.7 580.9, 875.6 578.6 Q 873.5 576.2, 873.5 571.8 " fill="#000000"/>
<path class="atom-15" d="M 890.4 578.7 L 894.3 578.7 L 894.3 565.5 L 890.0 566.8 L 889.4 565.3 L 894.8 562.9 L 896.6 563.2 L 896.6 578.7 L 900.1 578.7 L 900.1 580.7 L 890.4 580.7 L 890.4 578.7 " fill="#000000"/>
<path class="atom-15" d="M 909.3 569.6 Q 910.8 569.6, 912.1 570.3 Q 913.3 571.0, 914.0 572.2 Q 914.6 573.4, 914.6 575.0 Q 914.6 576.7, 913.9 578.1 Q 913.1 579.4, 911.8 580.1 Q 910.4 580.9, 908.7 580.9 Q 905.5 580.9, 903.9 578.8 Q 902.4 576.6, 902.4 572.4 Q 902.4 567.7, 904.3 565.2 Q 906.3 562.8, 910.1 562.8 Q 911.2 562.8, 912.1 563.0 Q 913.0 563.3, 913.9 563.8 L 913.0 565.5 Q 911.7 564.8, 910.1 564.8 Q 907.6 564.8, 906.3 566.4 Q 905.0 568.0, 904.9 571.3 Q 905.8 570.5, 906.9 570.1 Q 908.1 569.6, 909.3 569.6 M 908.7 578.8 Q 909.7 578.8, 910.4 578.3 Q 911.2 577.8, 911.7 577.0 Q 912.1 576.1, 912.1 575.0 Q 912.1 573.4, 911.3 572.5 Q 910.4 571.6, 908.8 571.6 Q 907.8 571.6, 906.7 572.1 Q 905.6 572.5, 904.9 573.3 Q 905.0 576.2, 905.9 577.5 Q 906.8 578.8, 908.7 578.8 " fill="#000000"/>
<path class="atom-16" d="M 791.8 689.8 Q 791.8 685.4, 793.9 683.1 Q 796.0 680.8, 799.9 680.8 Q 803.5 680.8, 805.5 683.4 L 803.8 684.7 Q 802.4 682.8, 799.9 682.8 Q 797.2 682.8, 795.8 684.6 Q 794.4 686.4, 794.4 689.8 Q 794.4 693.3, 795.8 695.1 Q 797.3 696.9, 800.2 696.9 Q 802.1 696.9, 804.4 695.7 L 805.1 697.6 Q 804.2 698.2, 802.8 698.6 Q 801.4 698.9, 799.8 698.9 Q 796.0 698.9, 793.9 696.6 Q 791.8 694.2, 791.8 689.8 " fill="#000000"/>
<path class="atom-16" d="M 808.7 696.7 L 812.5 696.7 L 812.5 683.5 L 808.3 684.8 L 807.7 683.3 L 813.1 680.9 L 814.9 681.2 L 814.9 696.7 L 818.4 696.7 L 818.4 698.7 L 808.7 698.7 L 808.7 696.7 " fill="#000000"/>
<path class="atom-16" d="M 829.9 683.0 L 820.6 683.0 L 820.6 681.0 L 832.4 681.0 L 832.4 682.8 L 825.2 698.7 L 822.8 698.7 L 829.9 683.0 " fill="#000000"/>
<path class="atom-17" d="M 436.5 414.1 Q 436.5 409.7, 438.5 407.4 Q 440.6 405.1, 444.5 405.1 Q 448.2 405.1, 450.1 407.6 L 448.5 409.0 Q 447.0 407.1, 444.5 407.1 Q 441.8 407.1, 440.4 408.9 Q 439.0 410.7, 439.0 414.1 Q 439.0 417.6, 440.5 419.4 Q 441.9 421.2, 444.8 421.2 Q 446.7 421.2, 449.0 420.0 L 449.7 421.9 Q 448.8 422.5, 447.4 422.8 Q 446.0 423.2, 444.4 423.2 Q 440.6 423.2, 438.5 420.8 Q 436.5 418.5, 436.5 414.1 " fill="#000000"/>
<path class="atom-17" d="M 453.3 421.0 L 457.2 421.0 L 457.2 407.7 L 452.9 409.1 L 452.3 407.6 L 457.8 405.2 L 459.5 405.5 L 459.5 421.0 L 463.0 421.0 L 463.0 423.0 L 453.3 423.0 L 453.3 421.0 " fill="#000000"/>
<path class="atom-17" d="M 474.3 413.6 Q 475.9 414.3, 476.9 415.3 Q 477.8 416.4, 477.8 418.1 Q 477.8 419.6, 477.0 420.8 Q 476.2 421.9, 474.8 422.6 Q 473.5 423.2, 471.6 423.2 Q 468.7 423.2, 467.0 421.9 Q 465.3 420.5, 465.3 418.1 Q 465.3 416.7, 466.0 415.6 Q 466.8 414.5, 468.3 413.7 Q 467.2 413.0, 466.6 412.1 Q 465.9 411.1, 465.9 409.6 Q 465.9 407.5, 467.4 406.3 Q 469.0 405.1, 471.5 405.1 Q 474.1 405.1, 475.6 406.3 Q 477.1 407.5, 477.1 409.6 Q 477.1 410.9, 476.4 411.9 Q 475.7 412.8, 474.3 413.6 M 471.5 406.9 Q 470.1 406.9, 469.2 407.6 Q 468.4 408.3, 468.4 409.6 Q 468.4 410.5, 469.0 411.1 Q 469.5 411.7, 470.3 412.1 Q 471.1 412.4, 472.6 413.0 Q 473.7 412.2, 474.2 411.4 Q 474.6 410.6, 474.6 409.6 Q 474.6 408.3, 473.8 407.6 Q 473.0 406.9, 471.5 406.9 M 471.6 421.3 Q 473.3 421.3, 474.3 420.5 Q 475.3 419.6, 475.3 418.1 Q 475.3 417.1, 474.8 416.5 Q 474.2 415.9, 473.4 415.6 Q 472.7 415.2, 471.3 414.8 L 470.1 414.4 Q 468.9 415.2, 468.3 416.1 Q 467.8 416.9, 467.8 418.1 Q 467.8 419.6, 468.8 420.5 Q 469.9 421.3, 471.6 421.3 " fill="#000000"/>
<path class="atom-18" d="M 519.3 296.1 Q 519.3 291.7, 521.3 289.4 Q 523.4 287.1, 527.3 287.1 Q 531.0 287.1, 532.9 289.7 L 531.3 291.0 Q 529.8 289.1, 527.3 289.1 Q 524.6 289.1, 523.2 290.9 Q 521.8 292.7, 521.8 296.1 Q 521.8 299.6, 523.3 301.4 Q 524.7 303.2, 527.6 303.2 Q 529.5 303.2, 531.8 302.0 L 532.5 303.9 Q 531.6 304.5, 530.2 304.9 Q 528.8 305.2, 527.2 305.2 Q 523.4 305.2, 521.3 302.9 Q 519.3 300.5, 519.3 296.1 " fill="#000000"/>
<path class="atom-18" d="M 536.1 303.0 L 540.0 303.0 L 540.0 289.8 L 535.7 291.1 L 535.1 289.6 L 540.5 287.2 L 542.3 287.5 L 542.3 303.0 L 545.8 303.0 L 545.8 305.0 L 536.1 305.0 L 536.1 303.0 " fill="#000000"/>
<path class="atom-18" d="M 554.0 287.1 Q 557.2 287.1, 558.7 289.2 Q 560.3 291.4, 560.3 295.6 Q 560.3 300.3, 558.4 302.8 Q 556.4 305.2, 552.6 305.2 Q 551.5 305.2, 550.6 304.9 Q 549.7 304.7, 548.8 304.2 L 549.7 302.5 Q 551.0 303.2, 552.6 303.2 Q 555.1 303.2, 556.4 301.6 Q 557.7 300.0, 557.8 296.6 Q 556.9 297.5, 555.8 297.9 Q 554.6 298.3, 553.4 298.3 Q 551.9 298.3, 550.6 297.7 Q 549.4 297.0, 548.7 295.8 Q 548.1 294.5, 548.1 293.0 Q 548.1 291.3, 548.8 289.9 Q 549.6 288.6, 550.9 287.8 Q 552.3 287.1, 554.0 287.1 M 550.6 293.0 Q 550.6 294.5, 551.4 295.4 Q 552.3 296.3, 553.9 296.3 Q 554.9 296.3, 556.0 295.9 Q 557.1 295.5, 557.8 294.7 Q 557.7 291.8, 556.8 290.5 Q 555.9 289.1, 554.0 289.1 Q 553.0 289.1, 552.2 289.6 Q 551.5 290.1, 551.0 291.0 Q 550.6 291.9, 550.6 293.0 " fill="#000000"/>
<path class="atom-19" d="M 449.6 650.2 Q 449.6 645.8, 451.6 643.5 Q 453.7 641.2, 457.6 641.2 Q 461.3 641.2, 463.2 643.8 L 461.6 645.1 Q 460.1 643.2, 457.6 643.2 Q 454.9 643.2, 453.5 645.0 Q 452.1 646.8, 452.1 650.2 Q 452.1 653.7, 453.6 655.5 Q 455.0 657.3, 457.9 657.3 Q 459.8 657.3, 462.1 656.1 L 462.8 658.0 Q 461.9 658.6, 460.5 659.0 Q 459.1 659.3, 457.5 659.3 Q 453.7 659.3, 451.6 657.0 Q 449.6 654.6, 449.6 650.2 " fill="#000000"/>
<path class="atom-19" d="M 465.5 644.7 Q 466.2 643.1, 467.7 642.1 Q 469.3 641.2, 471.4 641.2 Q 474.1 641.2, 475.6 642.6 Q 477.1 644.1, 477.1 646.7 Q 477.1 649.3, 475.2 651.7 Q 473.2 654.2, 469.2 657.1 L 477.4 657.1 L 477.4 659.1 L 465.5 659.1 L 465.5 657.4 Q 468.8 655.1, 470.7 653.3 Q 472.7 651.6, 473.7 650.0 Q 474.6 648.4, 474.6 646.8 Q 474.6 645.1, 473.8 644.1 Q 472.9 643.2, 471.4 643.2 Q 470.0 643.2, 469.1 643.8 Q 468.1 644.3, 467.4 645.6 L 465.5 644.7 " fill="#000000"/>
<path class="atom-19" d="M 486.7 659.3 Q 483.4 659.3, 481.8 656.9 Q 480.2 654.5, 480.2 650.2 Q 480.2 645.9, 481.8 643.6 Q 483.4 641.2, 486.7 641.2 Q 490.0 641.2, 491.6 643.6 Q 493.2 645.9, 493.2 650.2 Q 493.2 654.5, 491.5 656.9 Q 489.9 659.3, 486.7 659.3 M 486.7 657.3 Q 488.6 657.3, 489.6 655.5 Q 490.7 653.7, 490.7 650.2 Q 490.7 646.7, 489.6 645.0 Q 488.6 643.2, 486.7 643.2 Q 484.8 643.2, 483.7 645.0 Q 482.7 646.7, 482.7 650.2 Q 482.7 653.7, 483.7 655.5 Q 484.8 657.3, 486.7 657.3 " fill="#000000"/>
<path class="atom-20" d="M 873.5 650.5 Q 873.5 646.1, 875.5 643.8 Q 877.6 641.5, 881.5 641.5 Q 885.2 641.5, 887.1 644.1 L 885.5 645.4 Q 884.1 643.6, 881.5 643.6 Q 878.9 643.6, 877.4 645.4 Q 876.0 647.1, 876.0 650.5 Q 876.0 654.0, 877.5 655.8 Q 879.0 657.6, 881.8 657.6 Q 883.8 657.6, 886.0 656.5 L 886.7 658.3 Q 885.8 658.9, 884.4 659.3 Q 883.0 659.6, 881.5 659.6 Q 877.6 659.6, 875.5 657.3 Q 873.5 654.9, 873.5 650.5 " fill="#000000"/>
<path class="atom-20" d="M 889.4 645.1 Q 890.0 643.4, 891.6 642.5 Q 893.1 641.5, 895.3 641.5 Q 898.0 641.5, 899.5 643.0 Q 901.0 644.4, 901.0 647.0 Q 901.0 649.6, 899.0 652.1 Q 897.1 654.5, 893.1 657.4 L 901.3 657.4 L 901.3 659.4 L 889.3 659.4 L 889.3 657.7 Q 892.6 655.4, 894.6 653.6 Q 896.6 651.9, 897.5 650.3 Q 898.5 648.7, 898.5 647.1 Q 898.5 645.4, 897.6 644.5 Q 896.8 643.5, 895.3 643.5 Q 893.9 643.5, 892.9 644.1 Q 892.0 644.7, 891.3 645.9 L 889.4 645.1 " fill="#000000"/>
<path class="atom-20" d="M 904.9 657.4 L 908.8 657.4 L 908.8 644.2 L 904.5 645.5 L 904.0 644.0 L 909.4 641.6 L 911.2 641.9 L 911.2 657.4 L 914.6 657.4 L 914.6 659.4 L 904.9 659.4 L 904.9 657.4 " fill="#000000"/>
<path class="atom-21" d="M 435.1 335.4 Q 435.1 331.0, 437.1 328.7 Q 439.2 326.4, 443.1 326.4 Q 446.8 326.4, 448.7 328.9 L 447.1 330.3 Q 445.6 328.4, 443.1 328.4 Q 440.4 328.4, 439.0 330.2 Q 437.6 332.0, 437.6 335.4 Q 437.6 338.9, 439.1 340.7 Q 440.5 342.5, 443.4 342.5 Q 445.3 342.5, 447.6 341.3 L 448.3 343.2 Q 447.4 343.8, 446.0 344.1 Q 444.6 344.5, 443.0 344.5 Q 439.2 344.5, 437.1 342.1 Q 435.1 339.8, 435.1 335.4 " fill="#000000"/>
<path class="atom-21" d="M 451.0 329.9 Q 451.7 328.2, 453.2 327.3 Q 454.8 326.4, 456.9 326.4 Q 459.6 326.4, 461.1 327.8 Q 462.6 329.3, 462.6 331.8 Q 462.6 334.5, 460.6 336.9 Q 458.7 339.4, 454.7 342.3 L 462.9 342.3 L 462.9 344.3 L 451.0 344.3 L 451.0 342.6 Q 454.3 340.2, 456.2 338.5 Q 458.2 336.7, 459.1 335.2 Q 460.1 333.6, 460.1 332.0 Q 460.1 330.3, 459.2 329.3 Q 458.4 328.4, 456.9 328.4 Q 455.5 328.4, 454.5 328.9 Q 453.6 329.5, 452.9 330.8 L 451.0 329.9 " fill="#000000"/>
<path class="atom-21" d="M 465.7 329.9 Q 466.3 328.2, 467.9 327.3 Q 469.4 326.4, 471.6 326.4 Q 474.3 326.4, 475.8 327.8 Q 477.3 329.3, 477.3 331.8 Q 477.3 334.5, 475.3 336.9 Q 473.4 339.4, 469.4 342.3 L 477.6 342.3 L 477.6 344.3 L 465.6 344.3 L 465.6 342.6 Q 468.9 340.2, 470.9 338.5 Q 472.9 336.7, 473.8 335.2 Q 474.8 333.6, 474.8 332.0 Q 474.8 330.3, 473.9 329.3 Q 473.1 328.4, 471.6 328.4 Q 470.2 328.4, 469.2 328.9 Q 468.3 329.5, 467.6 330.8 L 465.7 329.9 " fill="#000000"/>
<path class="atom-22" d="M 380.4 689.5 Q 380.4 685.2, 382.5 682.8 Q 384.6 680.5, 388.6 680.5 Q 392.5 680.5, 394.6 682.8 Q 396.7 685.2, 396.7 689.5 Q 396.7 693.8, 394.6 696.2 Q 392.4 698.6, 388.6 698.6 Q 384.7 698.6, 382.5 696.2 Q 380.4 693.8, 380.4 689.5 M 388.6 696.6 Q 391.3 696.6, 392.7 694.8 Q 394.2 693.0, 394.2 689.5 Q 394.2 686.0, 392.7 684.2 Q 391.3 682.5, 388.6 682.5 Q 385.9 682.5, 384.4 684.2 Q 382.9 686.0, 382.9 689.5 Q 382.9 693.0, 384.4 694.8 Q 385.9 696.6, 388.6 696.6 " fill="#FF0000"/>
<path class="atom-22" d="M 399.3 684.0 Q 400.0 682.3, 401.5 681.4 Q 403.1 680.5, 405.2 680.5 Q 407.9 680.5, 409.4 681.9 Q 410.9 683.4, 410.9 685.9 Q 410.9 688.6, 408.9 691.0 Q 407.0 693.5, 403.0 696.4 L 411.2 696.4 L 411.2 698.4 L 399.3 698.4 L 399.3 696.7 Q 402.6 694.3, 404.5 692.6 Q 406.5 690.8, 407.4 689.3 Q 408.4 687.7, 408.4 686.1 Q 408.4 684.4, 407.5 683.4 Q 406.7 682.5, 405.2 682.5 Q 403.8 682.5, 402.8 683.0 Q 401.9 683.6, 401.2 684.9 L 399.3 684.0 " fill="#FF0000"/>
<path class="atom-22" d="M 422.5 689.0 Q 424.2 689.5, 425.1 690.7 Q 425.9 691.8, 425.9 693.5 Q 425.9 695.0, 425.2 696.2 Q 424.4 697.3, 423.0 698.0 Q 421.7 698.6, 419.9 698.6 Q 418.0 698.6, 416.5 698.0 Q 415.1 697.3, 414.0 695.9 L 415.4 694.5 Q 416.5 695.7, 417.5 696.2 Q 418.4 696.6, 419.9 696.6 Q 421.5 696.6, 422.4 695.8 Q 423.4 694.9, 423.4 693.5 Q 423.4 691.7, 422.4 690.9 Q 421.4 690.1, 419.2 690.1 L 417.9 690.1 L 417.9 688.3 L 419.1 688.3 Q 421.0 688.2, 422.0 687.4 Q 423.0 686.6, 423.0 685.0 Q 423.0 683.8, 422.2 683.2 Q 421.3 682.5, 419.9 682.5 Q 418.4 682.5, 417.5 683.0 Q 416.6 683.5, 415.9 684.8 L 414.2 683.9 Q 414.8 682.4, 416.3 681.5 Q 417.8 680.5, 419.9 680.5 Q 422.5 680.5, 424.0 681.7 Q 425.5 682.9, 425.5 685.0 Q 425.5 686.4, 424.8 687.4 Q 424.0 688.5, 422.5 689.0 " fill="#FF0000"/>
<path class="atom-23" d="M 312.9 650.1 Q 312.9 645.7, 314.9 643.4 Q 317.0 641.1, 320.9 641.1 Q 324.6 641.1, 326.5 643.6 L 324.9 645.0 Q 323.5 643.1, 320.9 643.1 Q 318.3 643.1, 316.8 644.9 Q 315.4 646.7, 315.4 650.1 Q 315.4 653.6, 316.9 655.4 Q 318.4 657.2, 321.2 657.2 Q 323.2 657.2, 325.4 656.0 L 326.1 657.9 Q 325.2 658.5, 323.8 658.8 Q 322.4 659.2, 320.9 659.2 Q 317.0 659.2, 314.9 656.8 Q 312.9 654.5, 312.9 650.1 " fill="#000000"/>
<path class="atom-23" d="M 328.9 644.6 Q 329.5 642.9, 331.1 642.0 Q 332.6 641.1, 334.8 641.1 Q 337.5 641.1, 339.0 642.5 Q 340.5 644.0, 340.5 646.5 Q 340.5 649.2, 338.5 651.6 Q 336.6 654.1, 332.6 657.0 L 340.8 657.0 L 340.8 659.0 L 328.8 659.0 L 328.8 657.3 Q 332.1 654.9, 334.1 653.2 Q 336.1 651.4, 337.0 649.9 Q 338.0 648.3, 338.0 646.7 Q 338.0 645.0, 337.1 644.0 Q 336.3 643.1, 334.8 643.1 Q 333.4 643.1, 332.4 643.6 Q 331.5 644.2, 330.8 645.5 L 328.9 644.6 " fill="#000000"/>
<path class="atom-23" d="M 355.1 652.9 L 357.2 652.9 L 357.2 654.9 L 355.1 654.9 L 355.1 659.0 L 352.7 659.0 L 352.7 654.9 L 343.6 654.9 L 343.6 653.3 L 351.3 641.3 L 355.1 641.3 L 355.1 652.9 M 346.5 652.9 L 352.7 652.9 L 352.7 642.9 L 346.5 652.9 " fill="#000000"/>
<path class="atom-24" d="M 245.6 689.4 Q 245.6 685.0, 247.6 682.7 Q 249.7 680.4, 253.6 680.4 Q 257.3 680.4, 259.2 682.9 L 257.6 684.3 Q 256.2 682.4, 253.6 682.4 Q 251.0 682.4, 249.5 684.2 Q 248.1 686.0, 248.1 689.4 Q 248.1 692.9, 249.6 694.7 Q 251.1 696.5, 253.9 696.5 Q 255.9 696.5, 258.1 695.3 L 258.8 697.2 Q 257.9 697.8, 256.5 698.1 Q 255.1 698.5, 253.6 698.5 Q 249.7 698.5, 247.6 696.1 Q 245.6 693.8, 245.6 689.4 " fill="#000000"/>
<path class="atom-24" d="M 261.5 683.9 Q 262.2 682.2, 263.7 681.3 Q 265.3 680.4, 267.4 680.4 Q 270.1 680.4, 271.6 681.8 Q 273.1 683.3, 273.1 685.8 Q 273.1 688.5, 271.2 690.9 Q 269.2 693.4, 265.2 696.3 L 273.4 696.3 L 273.4 698.3 L 261.5 698.3 L 261.5 696.6 Q 264.8 694.2, 266.7 692.5 Q 268.7 690.7, 269.7 689.2 Q 270.6 687.6, 270.6 686.0 Q 270.6 684.3, 269.8 683.3 Q 268.9 682.4, 267.4 682.4 Q 266.0 682.4, 265.1 682.9 Q 264.1 683.5, 263.4 684.8 L 261.5 683.9 " fill="#000000"/>
<path class="atom-24" d="M 282.6 687.2 Q 284.1 687.2, 285.4 687.9 Q 286.7 688.5, 287.4 689.8 Q 288.1 691.0, 288.1 692.7 Q 288.1 694.5, 287.2 695.8 Q 286.4 697.1, 284.9 697.8 Q 283.5 698.5, 281.8 698.5 Q 280.2 698.5, 278.7 697.9 Q 277.2 697.3, 276.2 696.1 L 277.7 694.6 Q 278.5 695.5, 279.6 696.0 Q 280.7 696.4, 281.9 696.4 Q 283.5 696.4, 284.5 695.5 Q 285.6 694.5, 285.6 692.7 Q 285.6 690.8, 284.5 690.0 Q 283.5 689.1, 281.7 689.1 Q 280.2 689.1, 278.5 689.7 L 277.1 689.1 L 277.9 680.6 L 287.0 680.6 L 286.8 682.6 L 280.0 682.6 L 279.5 687.8 Q 281.0 687.2, 282.6 687.2 " fill="#000000"/>
<path class="atom-25" d="M 179.7 641.2 L 185.5 650.5 Q 186.1 651.5, 187.0 653.1 Q 187.9 654.8, 188.0 654.9 L 188.0 641.2 L 190.3 641.2 L 190.3 658.9 L 187.9 658.9 L 181.7 648.6 Q 180.9 647.4, 180.2 646.0 Q 179.4 644.7, 179.2 644.2 L 179.2 658.9 L 176.9 658.9 L 176.9 641.2 L 179.7 641.2 " fill="#0000FF"/>
<path class="atom-25" d="M 193.7 644.5 Q 194.3 642.8, 195.9 641.9 Q 197.4 641.0, 199.6 641.0 Q 202.3 641.0, 203.8 642.4 Q 205.3 643.9, 205.3 646.4 Q 205.3 649.1, 203.3 651.5 Q 201.4 654.0, 197.4 656.9 L 205.6 656.9 L 205.6 658.9 L 193.6 658.9 L 193.6 657.2 Q 196.9 654.8, 198.9 653.1 Q 200.9 651.3, 201.8 649.8 Q 202.8 648.2, 202.8 646.6 Q 202.8 644.9, 201.9 643.9 Q 201.1 643.0, 199.6 643.0 Q 198.2 643.0, 197.2 643.5 Q 196.3 644.1, 195.6 645.4 L 193.7 644.5 " fill="#0000FF"/>
<path class="atom-25" d="M 215.2 647.8 Q 216.8 647.8, 218.0 648.5 Q 219.2 649.2, 219.9 650.4 Q 220.6 651.6, 220.6 653.2 Q 220.6 654.9, 219.8 656.2 Q 219.1 657.6, 217.7 658.3 Q 216.4 659.1, 214.6 659.1 Q 211.5 659.1, 209.9 656.9 Q 208.3 654.8, 208.3 650.5 Q 208.3 645.8, 210.3 643.4 Q 212.2 641.0, 216.0 641.0 Q 217.1 641.0, 218.0 641.2 Q 219.0 641.5, 219.9 642.0 L 218.9 643.7 Q 217.6 643.0, 216.0 643.0 Q 213.5 643.0, 212.3 644.6 Q 211.0 646.2, 210.8 649.5 Q 211.7 648.7, 212.9 648.3 Q 214.0 647.8, 215.2 647.8 M 214.7 657.0 Q 215.6 657.0, 216.4 656.5 Q 217.2 656.0, 217.6 655.1 Q 218.1 654.3, 218.1 653.2 Q 218.1 651.6, 217.2 650.7 Q 216.3 649.8, 214.8 649.8 Q 213.7 649.8, 212.6 650.3 Q 211.6 650.7, 210.8 651.4 Q 210.9 654.4, 211.9 655.7 Q 212.8 657.0, 214.7 657.0 " fill="#0000FF"/>
<path class="atom-26" d="M 94.1 689.3 Q 94.1 684.9, 96.2 682.6 Q 98.2 680.2, 102.2 680.2 Q 105.8 680.2, 107.8 682.8 L 106.1 684.2 Q 104.7 682.3, 102.2 682.3 Q 99.5 682.3, 98.1 684.1 Q 96.7 685.9, 96.7 689.3 Q 96.7 692.8, 98.1 694.6 Q 99.6 696.4, 102.4 696.4 Q 104.4 696.4, 106.7 695.2 L 107.4 697.1 Q 106.4 697.7, 105.0 698.0 Q 103.6 698.4, 102.1 698.4 Q 98.2 698.4, 96.2 696.0 Q 94.1 693.7, 94.1 689.3 " fill="#000000"/>
<path class="atom-26" d="M 110.1 683.8 Q 110.7 682.1, 112.3 681.2 Q 113.8 680.2, 116.0 680.2 Q 118.6 680.2, 120.1 681.7 Q 121.6 683.1, 121.6 685.7 Q 121.6 688.3, 119.7 690.8 Q 117.8 693.2, 113.8 696.1 L 121.9 696.1 L 121.9 698.1 L 110.0 698.1 L 110.0 696.5 Q 113.3 694.1, 115.3 692.4 Q 117.2 690.6, 118.2 689.0 Q 119.1 687.5, 119.1 685.8 Q 119.1 684.1, 118.3 683.2 Q 117.4 682.2, 116.0 682.2 Q 114.5 682.2, 113.6 682.8 Q 112.6 683.4, 112.0 684.7 L 110.1 683.8 " fill="#000000"/>
<path class="atom-26" d="M 134.0 682.4 L 124.7 682.4 L 124.7 680.4 L 136.4 680.4 L 136.4 682.2 L 129.3 698.1 L 126.9 698.1 L 134.0 682.4 " fill="#000000"/>
<path class="atom-27" d="M 192.0 571.3 Q 192.0 566.9, 194.0 564.6 Q 196.1 562.3, 200.0 562.3 Q 203.7 562.3, 205.6 564.8 L 204.0 566.2 Q 202.6 564.3, 200.0 564.3 Q 197.4 564.3, 195.9 566.1 Q 194.5 567.9, 194.5 571.3 Q 194.5 574.8, 196.0 576.6 Q 197.5 578.4, 200.3 578.4 Q 202.3 578.4, 204.5 577.2 L 205.2 579.1 Q 204.3 579.7, 202.9 580.0 Q 201.5 580.4, 200.0 580.4 Q 196.1 580.4, 194.0 578.0 Q 192.0 575.7, 192.0 571.3 " fill="#000000"/>
<path class="atom-27" d="M 207.9 565.8 Q 208.6 564.1, 210.1 563.2 Q 211.7 562.3, 213.8 562.3 Q 216.5 562.3, 218.0 563.7 Q 219.5 565.2, 219.5 567.7 Q 219.5 570.4, 217.6 572.8 Q 215.6 575.3, 211.6 578.2 L 219.8 578.2 L 219.8 580.2 L 207.9 580.2 L 207.9 578.5 Q 211.2 576.1, 213.1 574.4 Q 215.1 572.6, 216.1 571.1 Q 217.0 569.5, 217.0 567.9 Q 217.0 566.2, 216.2 565.2 Q 215.3 564.3, 213.8 564.3 Q 212.4 564.3, 211.5 564.8 Q 210.5 565.4, 209.8 566.7 L 207.9 565.8 " fill="#000000"/>
<path class="atom-27" d="M 231.6 570.8 Q 233.2 571.5, 234.2 572.5 Q 235.1 573.6, 235.1 575.3 Q 235.1 576.8, 234.3 578.0 Q 233.5 579.1, 232.1 579.8 Q 230.8 580.4, 228.9 580.4 Q 226.0 580.4, 224.3 579.1 Q 222.6 577.7, 222.6 575.3 Q 222.6 573.9, 223.3 572.8 Q 224.1 571.7, 225.6 570.9 Q 224.5 570.2, 223.9 569.3 Q 223.2 568.3, 223.2 566.8 Q 223.2 564.7, 224.7 563.5 Q 226.3 562.3, 228.8 562.3 Q 231.4 562.3, 232.9 563.5 Q 234.4 564.7, 234.4 566.8 Q 234.4 568.1, 233.7 569.1 Q 233.0 570.0, 231.6 570.8 M 228.8 564.1 Q 227.4 564.1, 226.5 564.8 Q 225.7 565.5, 225.7 566.8 Q 225.7 567.7, 226.3 568.3 Q 226.8 568.9, 227.6 569.3 Q 228.4 569.6, 229.9 570.2 Q 231.0 569.4, 231.5 568.6 Q 231.9 567.8, 231.9 566.8 Q 231.9 565.5, 231.1 564.8 Q 230.3 564.1, 228.8 564.1 M 228.9 578.5 Q 230.6 578.5, 231.6 577.7 Q 232.6 576.8, 232.6 575.3 Q 232.6 574.3, 232.1 573.7 Q 231.5 573.1, 230.7 572.8 Q 230.0 572.4, 228.6 572.0 L 227.4 571.6 Q 226.2 572.4, 225.6 573.3 Q 225.1 574.1, 225.1 575.3 Q 225.1 576.8, 226.1 577.7 Q 227.2 578.5, 228.9 578.5 " fill="#000000"/>
<text x="1000" y="50" font-size="8" font-family="Verdana" font-weight="normal" letter-spacing="0" text-anchor="start" fill="black">Highlighted Atoms:
Primary SOM: Red
Secondary SOM: Green
Tertiary SOM: Cyan
</text></svg>
