<?xml version='1.0' encoding='ASCII' standalone='yes'?>
<svg xmlns="http://www.w3.org/2000/svg" xmlns:rdkit="http://www.rdkit.org/xml" xmlns:xlink="http://www.w3.org/1999/xlink" style="background-color: white;" version="1.1" baseProfile="full" xml:space="preserve" width="1000px" height="1000px" viewBox="0 0 1000 1000">
<!-- END OF HEADER -->
<rect style="opacity:1.0;fill:#FFFFFF;stroke:none" width="1000.0" height="1000.0" x="0.0" y="0.0"> </rect>
<ellipse cx="741.6" cy="621.1" rx="30.7" ry="30.7" class="atom-10" style="fill:#B20000;fill-rule:evenodd;stroke:#B20000;stroke-width:1.0px;stroke-linecap:butt;stroke-linejoin:miter;stroke-opacity:1"/>
<path class="bond-0 atom-1 atom-0" d="M 534.1,917.5 L 471.6,881.4" style="fill:none;fill-rule:evenodd;stroke:#000000;stroke-width:2.0px;stroke-linecap:butt;stroke-linejoin:miter;stroke-opacity:1"/>
<path class="bond-0 atom-1 atom-0" d="M 541.8,904.2 L 479.3,868.1" style="fill:none;fill-rule:evenodd;stroke:#000000;stroke-width:2.0px;stroke-linecap:butt;stroke-linejoin:miter;stroke-opacity:1"/>
<path class="bond-1 atom-2 atom-1" d="M 622.7,886.4 L 568.7,917.5" style="fill:none;fill-rule:evenodd;stroke:#000000;stroke-width:2.0px;stroke-linecap:butt;stroke-linejoin:miter;stroke-opacity:1"/>
<path class="bond-2 atom-3 atom-2" d="M 640.0,786.8 L 640.0,864.2" style="fill:none;fill-rule:evenodd;stroke:#000000;stroke-width:2.0px;stroke-linecap:butt;stroke-linejoin:miter;stroke-opacity:1"/>
<path class="bond-2 atom-3 atom-2" d="M 624.7,786.8 L 624.6,864.2" style="fill:none;fill-rule:evenodd;stroke:#000000;stroke-width:2.0px;stroke-linecap:butt;stroke-linejoin:miter;stroke-opacity:1"/>
<path class="bond-3 atom-4 atom-3" d="M 568.9,733.1 L 621.9,763.7" style="fill:none;fill-rule:evenodd;stroke:#000000;stroke-width:2.0px;stroke-linecap:butt;stroke-linejoin:miter;stroke-opacity:1"/>
<path class="bond-4 atom-5 atom-0" d="M 463.0,786.6 L 462.9,864.1" style="fill:none;fill-rule:evenodd;stroke:#000000;stroke-width:2.0px;stroke-linecap:butt;stroke-linejoin:miter;stroke-opacity:1"/>
<path class="bond-5 atom-5 atom-4" d="M 472.5,768.6 L 534.2,733.1" style="fill:none;fill-rule:evenodd;stroke:#000000;stroke-width:2.0px;stroke-linecap:butt;stroke-linejoin:miter;stroke-opacity:1"/>
<path class="bond-5 atom-5 atom-4" d="M 480.2,781.9 L 541.9,746.4" style="fill:none;fill-rule:evenodd;stroke:#000000;stroke-width:2.0px;stroke-linecap:butt;stroke-linejoin:miter;stroke-opacity:1"/>
<path class="bond-6 atom-6 atom-2" d="M 711.2,917.7 L 657.3,886.5" style="fill:none;fill-rule:evenodd;stroke:#000000;stroke-width:2.0px;stroke-linecap:butt;stroke-linejoin:miter;stroke-opacity:1"/>
<path class="bond-7 atom-7 atom-6" d="M 806.8,882.5 L 745.7,917.7" style="fill:none;fill-rule:evenodd;stroke:#000000;stroke-width:2.0px;stroke-linecap:butt;stroke-linejoin:miter;stroke-opacity:1"/>
<path class="bond-7 atom-7 atom-6" d="M 799.2,869.2 L 738.0,904.5" style="fill:none;fill-rule:evenodd;stroke:#000000;stroke-width:2.0px;stroke-linecap:butt;stroke-linejoin:miter;stroke-opacity:1"/>
<path class="bond-8 atom-8 atom-7" d="M 817.1,787.0 L 817.0,864.3" style="fill:none;fill-rule:evenodd;stroke:#000000;stroke-width:2.0px;stroke-linecap:butt;stroke-linejoin:miter;stroke-opacity:1"/>
<path class="bond-9 atom-9 atom-3" d="M 706.8,735.8 L 658.2,763.8" style="fill:none;fill-rule:evenodd;stroke:#000000;stroke-width:2.0px;stroke-linecap:butt;stroke-linejoin:miter;stroke-opacity:1"/>
<path class="bond-10 atom-9 atom-8" d="M 750.3,735.8 L 806.9,768.5" style="fill:none;fill-rule:evenodd;stroke:#000000;stroke-width:2.0px;stroke-linecap:butt;stroke-linejoin:miter;stroke-opacity:1"/>
<path class="bond-10 atom-9 atom-8" d="M 742.6,749.0 L 799.2,781.8" style="fill:none;fill-rule:evenodd;stroke:#000000;stroke-width:2.0px;stroke-linecap:butt;stroke-linejoin:miter;stroke-opacity:1"/>
<path class="bond-11 atom-10 atom-9" d="M 728.7,633.6 L 728.6,711.0" style="fill:none;fill-rule:evenodd;stroke:#000000;stroke-width:2.0px;stroke-linecap:butt;stroke-linejoin:miter;stroke-opacity:1"/>
<path class="bond-12 atom-11 atom-10" d="M 661.5,582.2 L 690.0,598.6" style="fill:none;fill-rule:evenodd;stroke:#0000FF;stroke-width:2.0px;stroke-linecap:butt;stroke-linejoin:miter;stroke-opacity:1"/>
<path class="bond-12 atom-11 atom-10" d="M 690.0,598.6 L 718.5,615.1" style="fill:none;fill-rule:evenodd;stroke:#000000;stroke-width:2.0px;stroke-linecap:butt;stroke-linejoin:miter;stroke-opacity:1"/>
<path class="bond-13 atom-12 atom-11" d="M 561.0,615.5 L 589.9,598.8" style="fill:none;fill-rule:evenodd;stroke:#000000;stroke-width:2.0px;stroke-linecap:butt;stroke-linejoin:miter;stroke-opacity:1"/>
<path class="bond-13 atom-12 atom-11" d="M 589.9,598.8 L 618.8,582.2" style="fill:none;fill-rule:evenodd;stroke:#0000FF;stroke-width:2.0px;stroke-linecap:butt;stroke-linejoin:miter;stroke-opacity:1"/>
<path class="bond-14 atom-13 atom-11" d="M 640.3,480.2 L 640.3,518.9" style="fill:none;fill-rule:evenodd;stroke:#000000;stroke-width:2.0px;stroke-linecap:butt;stroke-linejoin:miter;stroke-opacity:1"/>
<path class="bond-14 atom-13 atom-11" d="M 640.3,518.9 L 640.2,557.6" style="fill:none;fill-rule:evenodd;stroke:#0000FF;stroke-width:2.0px;stroke-linecap:butt;stroke-linejoin:miter;stroke-opacity:1"/>
<path class="bond-15 atom-14 atom-13" d="M 561.2,421.9 L 630.1,461.7" style="fill:none;fill-rule:evenodd;stroke:#000000;stroke-width:2.0px;stroke-linecap:butt;stroke-linejoin:miter;stroke-opacity:1"/>
<path class="bond-16 atom-15 atom-14" d="M 559.6,326.8 L 559.5,404.3" style="fill:none;fill-rule:evenodd;stroke:#000000;stroke-width:2.0px;stroke-linecap:butt;stroke-linejoin:miter;stroke-opacity:1"/>
<path class="bond-16 atom-15 atom-14" d="M 544.2,326.8 L 544.2,404.3" style="fill:none;fill-rule:evenodd;stroke:#000000;stroke-width:2.0px;stroke-linecap:butt;stroke-linejoin:miter;stroke-opacity:1"/>
<path class="bond-17 atom-16 atom-15" d="M 484.7,275.4 L 541.7,308.3" style="fill:none;fill-rule:evenodd;stroke:#000000;stroke-width:2.0px;stroke-linecap:butt;stroke-linejoin:miter;stroke-opacity:1"/>
<path class="bond-18 atom-17 atom-16" d="M 396.7,224.4 L 442.1,250.7" style="fill:none;fill-rule:evenodd;stroke:#000000;stroke-width:2.0px;stroke-linecap:butt;stroke-linejoin:miter;stroke-opacity:1"/>
<path class="bond-18 atom-17 atom-16" d="M 404.4,211.2 L 449.8,237.4" style="fill:none;fill-rule:evenodd;stroke:#000000;stroke-width:2.0px;stroke-linecap:butt;stroke-linejoin:miter;stroke-opacity:1"/>
<path class="bond-18 atom-17 atom-16" d="M 389.0,237.7 L 434.4,264.0" style="fill:none;fill-rule:evenodd;stroke:#000000;stroke-width:2.0px;stroke-linecap:butt;stroke-linejoin:miter;stroke-opacity:1"/>
<path class="bond-19 atom-18 atom-17" d="M 308.1,173.2 L 353.6,199.5" style="fill:none;fill-rule:evenodd;stroke:#000000;stroke-width:2.0px;stroke-linecap:butt;stroke-linejoin:miter;stroke-opacity:1"/>
<path class="bond-20 atom-19 atom-18" d="M 330.4,84.7 L 293.6,148.4" style="fill:none;fill-rule:evenodd;stroke:#000000;stroke-width:2.0px;stroke-linecap:butt;stroke-linejoin:miter;stroke-opacity:1"/>
<path class="bond-21 atom-20 atom-18" d="M 242.5,84.4 L 279.4,148.4" style="fill:none;fill-rule:evenodd;stroke:#000000;stroke-width:2.0px;stroke-linecap:butt;stroke-linejoin:miter;stroke-opacity:1"/>
<path class="bond-22 atom-21 atom-18" d="M 207.2,206.3 L 264.7,173.2" style="fill:none;fill-rule:evenodd;stroke:#000000;stroke-width:2.0px;stroke-linecap:butt;stroke-linejoin:miter;stroke-opacity:1"/>
<path class="atom-0" d="M 441.7 876.4 Q 441.7 872.0, 443.8 869.7 Q 445.8 867.4, 449.8 867.4 Q 453.4 867.4, 455.4 870.0 L 453.7 871.3 Q 452.3 869.4, 449.8 869.4 Q 447.1 869.4, 445.7 871.2 Q 444.3 873.0, 444.3 876.4 Q 444.3 879.9, 445.7 881.7 Q 447.2 883.5, 450.0 883.5 Q 452.0 883.5, 454.3 882.3 L 455.0 884.2 Q 454.0 884.8, 452.6 885.2 Q 451.2 885.5, 449.7 885.5 Q 445.8 885.5, 443.8 883.2 Q 441.7 880.8, 441.7 876.4 " fill="#000000"/>
<path class="atom-0" d="M 458.6 883.3 L 462.4 883.3 L 462.4 870.1 L 458.2 871.4 L 457.6 869.9 L 463.0 867.5 L 464.8 867.8 L 464.8 883.3 L 468.3 883.3 L 468.3 885.3 L 458.6 885.3 L 458.6 883.3 " fill="#000000"/>
<path class="atom-1" d="M 537.5 927.6 Q 537.5 923.2, 539.5 920.9 Q 541.6 918.6, 545.5 918.6 Q 549.2 918.6, 551.1 921.1 L 549.5 922.5 Q 548.1 920.6, 545.5 920.6 Q 542.9 920.6, 541.4 922.4 Q 540.0 924.2, 540.0 927.6 Q 540.0 931.1, 541.5 932.9 Q 543.0 934.7, 545.8 934.7 Q 547.8 934.7, 550.0 933.5 L 550.7 935.4 Q 549.8 936.0, 548.4 936.3 Q 547.0 936.7, 545.5 936.7 Q 541.6 936.7, 539.5 934.3 Q 537.5 932.0, 537.5 927.6 " fill="#000000"/>
<path class="atom-1" d="M 553.5 922.1 Q 554.1 920.4, 555.7 919.5 Q 557.2 918.6, 559.4 918.6 Q 562.0 918.6, 563.5 920.0 Q 565.0 921.5, 565.0 924.0 Q 565.0 926.7, 563.1 929.1 Q 561.2 931.6, 557.2 934.5 L 565.3 934.5 L 565.3 936.5 L 553.4 936.5 L 553.4 934.8 Q 556.7 932.4, 558.7 930.7 Q 560.6 928.9, 561.6 927.4 Q 562.5 925.8, 562.5 924.2 Q 562.5 922.5, 561.7 921.5 Q 560.8 920.6, 559.4 920.6 Q 557.9 920.6, 557.0 921.1 Q 556.0 921.7, 555.4 923.0 L 553.5 922.1 " fill="#000000"/>
<path class="atom-2" d="M 626.1 876.6 Q 626.1 872.2, 628.1 869.9 Q 630.2 867.5, 634.1 867.5 Q 637.8 867.5, 639.7 870.1 L 638.1 871.5 Q 636.6 869.6, 634.1 869.6 Q 631.4 869.6, 630.0 871.4 Q 628.6 873.2, 628.6 876.6 Q 628.6 880.1, 630.1 881.9 Q 631.5 883.7, 634.4 883.7 Q 636.3 883.7, 638.6 882.5 L 639.3 884.4 Q 638.4 885.0, 637.0 885.3 Q 635.6 885.7, 634.0 885.7 Q 630.2 885.7, 628.1 883.3 Q 626.1 881.0, 626.1 876.6 " fill="#000000"/>
<path class="atom-2" d="M 650.5 876.1 Q 652.2 876.6, 653.0 877.7 Q 653.9 878.8, 653.9 880.6 Q 653.9 882.1, 653.1 883.3 Q 652.4 884.4, 651.0 885.1 Q 649.6 885.7, 647.8 885.7 Q 645.9 885.7, 644.5 885.0 Q 643.1 884.4, 642.0 883.0 L 643.4 881.6 Q 644.5 882.8, 645.4 883.2 Q 646.4 883.7, 647.8 883.7 Q 649.4 883.7, 650.4 882.8 Q 651.4 882.0, 651.4 880.6 Q 651.4 878.8, 650.4 878.0 Q 649.4 877.1, 647.2 877.1 L 645.9 877.1 L 645.9 875.3 L 647.0 875.3 Q 649.0 875.3, 650.0 874.5 Q 651.0 873.6, 651.0 872.1 Q 651.0 870.9, 650.2 870.2 Q 649.3 869.5, 647.9 869.5 Q 646.4 869.5, 645.5 870.1 Q 644.6 870.6, 643.9 871.9 L 642.1 871.0 Q 642.8 869.5, 644.3 868.5 Q 645.8 867.5, 647.9 867.5 Q 650.5 867.5, 652.0 868.8 Q 653.5 870.0, 653.5 872.1 Q 653.5 873.5, 652.7 874.5 Q 652.0 875.5, 650.5 876.1 " fill="#000000"/>
<path class="atom-3" d="M 625.2 774.3 Q 625.2 769.9, 627.3 767.6 Q 629.4 765.3, 633.3 765.3 Q 636.9 765.3, 638.9 767.9 L 637.2 769.2 Q 635.8 767.4, 633.3 767.4 Q 630.6 767.4, 629.2 769.2 Q 627.8 770.9, 627.8 774.3 Q 627.8 777.8, 629.2 779.6 Q 630.7 781.4, 633.6 781.4 Q 635.5 781.4, 637.8 780.3 L 638.5 782.1 Q 637.6 782.7, 636.2 783.1 Q 634.8 783.4, 633.2 783.4 Q 629.4 783.4, 627.3 781.1 Q 625.2 778.7, 625.2 774.3 " fill="#000000"/>
<path class="atom-3" d="M 652.7 777.1 L 654.9 777.1 L 654.9 779.1 L 652.7 779.1 L 652.7 783.2 L 650.4 783.2 L 650.4 779.1 L 641.2 779.1 L 641.2 777.6 L 649.0 765.5 L 652.7 765.5 L 652.7 777.1 M 644.1 777.1 L 650.4 777.1 L 650.4 767.1 L 644.1 777.1 " fill="#000000"/>
<path class="atom-4" d="M 537.6 723.2 Q 537.6 718.8, 539.7 716.5 Q 541.7 714.1, 545.7 714.1 Q 549.3 714.1, 551.3 716.7 L 549.6 718.1 Q 548.2 716.2, 545.7 716.2 Q 543.0 716.2, 541.6 718.0 Q 540.2 719.8, 540.2 723.2 Q 540.2 726.7, 541.6 728.5 Q 543.1 730.3, 545.9 730.3 Q 547.9 730.3, 550.2 729.1 L 550.9 731.0 Q 549.9 731.6, 548.5 731.9 Q 547.1 732.3, 545.6 732.3 Q 541.7 732.3, 539.7 729.9 Q 537.6 727.6, 537.6 723.2 " fill="#000000"/>
<path class="atom-4" d="M 560.0 721.0 Q 561.5 721.0, 562.8 721.6 Q 564.1 722.3, 564.8 723.5 Q 565.5 724.8, 565.5 726.4 Q 565.5 728.3, 564.6 729.6 Q 563.7 730.9, 562.3 731.6 Q 560.8 732.2, 559.2 732.2 Q 557.6 732.2, 556.1 731.6 Q 554.6 731.0, 553.5 729.9 L 555.0 728.3 Q 555.9 729.2, 557.0 729.7 Q 558.1 730.2, 559.3 730.2 Q 560.8 730.2, 561.9 729.2 Q 563.0 728.3, 563.0 726.5 Q 563.0 724.6, 561.9 723.7 Q 560.8 722.8, 559.1 722.8 Q 557.6 722.8, 555.8 723.5 L 554.5 722.9 L 555.3 714.3 L 564.4 714.3 L 564.2 716.3 L 557.4 716.3 L 556.8 721.6 Q 558.4 721.0, 560.0 721.0 " fill="#000000"/>
<path class="atom-5" d="M 440.9 774.2 Q 440.9 769.8, 443.0 767.5 Q 445.0 765.2, 449.0 765.2 Q 452.6 765.2, 454.6 767.8 L 452.9 769.1 Q 451.5 767.2, 449.0 767.2 Q 446.3 767.2, 444.9 769.0 Q 443.5 770.8, 443.5 774.2 Q 443.5 777.7, 444.9 779.5 Q 446.4 781.3, 449.2 781.3 Q 451.2 781.3, 453.5 780.1 L 454.2 782.0 Q 453.2 782.6, 451.8 783.0 Q 450.4 783.3, 448.9 783.3 Q 445.0 783.3, 443.0 781.0 Q 440.9 778.6, 440.9 774.2 " fill="#000000"/>
<path class="atom-5" d="M 463.8 772.0 Q 465.3 772.0, 466.6 772.7 Q 467.8 773.4, 468.5 774.6 Q 469.1 775.8, 469.1 777.4 Q 469.1 779.1, 468.4 780.5 Q 467.6 781.8, 466.3 782.5 Q 464.9 783.3, 463.2 783.3 Q 460.0 783.3, 458.4 781.2 Q 456.9 779.0, 456.9 774.8 Q 456.9 770.1, 458.8 767.6 Q 460.8 765.2, 464.6 765.2 Q 465.7 765.2, 466.6 765.4 Q 467.5 765.7, 468.4 766.2 L 467.5 767.9 Q 466.2 767.2, 464.6 767.2 Q 462.1 767.2, 460.8 768.8 Q 459.5 770.4, 459.4 773.7 Q 460.3 772.9, 461.4 772.5 Q 462.6 772.0, 463.8 772.0 M 463.2 781.2 Q 464.2 781.2, 464.9 780.7 Q 465.7 780.2, 466.2 779.4 Q 466.6 778.5, 466.6 777.4 Q 466.6 775.8, 465.8 774.9 Q 464.9 774.0, 463.3 774.0 Q 462.3 774.0, 461.2 774.5 Q 460.1 774.9, 459.4 775.7 Q 459.5 778.6, 460.4 779.9 Q 461.3 781.2, 463.2 781.2 " fill="#000000"/>
<path class="atom-6" d="M 714.6 927.7 Q 714.6 923.3, 716.7 921.0 Q 718.7 918.7, 722.7 918.7 Q 726.3 918.7, 728.3 921.3 L 726.6 922.6 Q 725.2 920.8, 722.7 920.8 Q 720.0 920.8, 718.6 922.6 Q 717.2 924.3, 717.2 927.7 Q 717.2 931.2, 718.6 933.0 Q 720.1 934.8, 722.9 934.8 Q 724.9 934.8, 727.2 933.7 L 727.9 935.5 Q 726.9 936.1, 725.5 936.5 Q 724.1 936.8, 722.6 936.8 Q 718.7 936.8, 716.7 934.5 Q 714.6 932.1, 714.6 927.7 " fill="#000000"/>
<path class="atom-6" d="M 739.8 920.9 L 730.5 920.9 L 730.5 918.9 L 742.3 918.9 L 742.3 920.7 L 735.1 936.6 L 732.7 936.6 L 739.8 920.9 " fill="#000000"/>
<path class="atom-7" d="M 810.2 876.7 Q 810.2 872.3, 812.2 870.0 Q 814.3 867.7, 818.2 867.7 Q 821.9 867.7, 823.8 870.3 L 822.2 871.6 Q 820.8 869.7, 818.2 869.7 Q 815.6 869.7, 814.1 871.5 Q 812.7 873.3, 812.7 876.7 Q 812.7 880.2, 814.2 882.0 Q 815.7 883.8, 818.5 883.8 Q 820.5 883.8, 822.7 882.6 L 823.4 884.5 Q 822.5 885.1, 821.1 885.5 Q 819.7 885.8, 818.2 885.8 Q 814.3 885.8, 812.2 883.5 Q 810.2 881.1, 810.2 876.7 " fill="#000000"/>
<path class="atom-7" d="M 835.2 876.2 Q 836.8 876.9, 837.7 878.0 Q 838.6 879.0, 838.6 880.7 Q 838.6 882.2, 837.9 883.4 Q 837.1 884.6, 835.7 885.2 Q 834.3 885.8, 832.5 885.8 Q 829.5 885.8, 827.8 884.5 Q 826.1 883.1, 826.1 880.7 Q 826.1 879.3, 826.9 878.2 Q 827.6 877.1, 829.2 876.3 Q 828.0 875.6, 827.4 874.7 Q 826.8 873.7, 826.8 872.2 Q 826.8 870.1, 828.3 868.9 Q 829.8 867.7, 832.4 867.7 Q 835.0 867.7, 836.5 868.9 Q 838.0 870.1, 838.0 872.2 Q 838.0 873.5, 837.3 874.5 Q 836.6 875.4, 835.2 876.2 M 832.4 869.6 Q 830.9 869.6, 830.1 870.3 Q 829.3 871.0, 829.3 872.2 Q 829.3 873.1, 829.8 873.8 Q 830.4 874.4, 831.2 874.7 Q 832.0 875.1, 833.5 875.6 Q 834.6 874.8, 835.0 874.0 Q 835.5 873.2, 835.5 872.2 Q 835.5 871.0, 834.7 870.3 Q 833.9 869.6, 832.4 869.6 M 832.5 884.0 Q 834.1 884.0, 835.1 883.1 Q 836.1 882.2, 836.1 880.7 Q 836.1 879.8, 835.6 879.2 Q 835.1 878.6, 834.3 878.2 Q 833.5 877.9, 832.1 877.4 L 831.0 877.0 Q 829.7 877.8, 829.2 878.7 Q 828.6 879.6, 828.6 880.7 Q 828.6 882.2, 829.7 883.1 Q 830.7 884.0, 832.5 884.0 " fill="#000000"/>
<path class="atom-8" d="M 810.3 774.5 Q 810.3 770.1, 812.3 767.8 Q 814.4 765.5, 818.3 765.5 Q 822.0 765.5, 823.9 768.0 L 822.3 769.4 Q 820.8 767.5, 818.3 767.5 Q 815.6 767.5, 814.2 769.3 Q 812.8 771.1, 812.8 774.5 Q 812.8 778.0, 814.3 779.8 Q 815.7 781.6, 818.6 781.6 Q 820.5 781.6, 822.8 780.4 L 823.5 782.3 Q 822.6 782.9, 821.2 783.2 Q 819.8 783.6, 818.2 783.6 Q 814.4 783.6, 812.3 781.2 Q 810.3 778.9, 810.3 774.5 " fill="#000000"/>
<path class="atom-8" d="M 832.2 765.5 Q 835.3 765.5, 836.9 767.6 Q 838.5 769.7, 838.5 774.0 Q 838.5 778.7, 836.5 781.1 Q 834.6 783.6, 830.8 783.6 Q 829.7 783.6, 828.7 783.3 Q 827.8 783.1, 826.9 782.5 L 827.9 780.9 Q 829.2 781.6, 830.8 781.6 Q 833.3 781.6, 834.5 780.0 Q 835.8 778.3, 836.0 775.0 Q 835.1 775.8, 833.9 776.3 Q 832.8 776.7, 831.6 776.7 Q 830.0 776.7, 828.8 776.0 Q 827.6 775.4, 826.9 774.1 Q 826.2 772.9, 826.2 771.4 Q 826.2 769.6, 827.0 768.3 Q 827.7 767.0, 829.1 766.2 Q 830.4 765.5, 832.2 765.5 M 828.7 771.3 Q 828.7 772.9, 829.6 773.8 Q 830.5 774.7, 832.0 774.7 Q 833.1 774.7, 834.1 774.3 Q 835.2 773.8, 836.0 773.1 Q 835.9 770.2, 834.9 768.8 Q 834.0 767.5, 832.1 767.5 Q 831.2 767.5, 830.4 768.0 Q 829.6 768.5, 829.2 769.4 Q 828.7 770.3, 828.7 771.3 " fill="#000000"/>
<path class="atom-9" d="M 707.7 723.3 Q 707.7 718.9, 709.8 716.6 Q 711.8 714.3, 715.8 714.3 Q 719.4 714.3, 721.4 716.9 L 719.7 718.2 Q 718.3 716.3, 715.8 716.3 Q 713.1 716.3, 711.7 718.1 Q 710.3 719.9, 710.3 723.3 Q 710.3 726.8, 711.7 728.6 Q 713.2 730.4, 716.0 730.4 Q 718.0 730.4, 720.3 729.2 L 721.0 731.1 Q 720.0 731.7, 718.6 732.1 Q 717.2 732.4, 715.7 732.4 Q 711.8 732.4, 709.8 730.1 Q 707.7 727.7, 707.7 723.3 " fill="#000000"/>
<path class="atom-9" d="M 724.6 730.2 L 728.4 730.2 L 728.4 717.0 L 724.2 718.3 L 723.6 716.8 L 729.0 714.4 L 730.8 714.7 L 730.8 730.2 L 734.3 730.2 L 734.3 732.2 L 724.6 732.2 L 724.6 730.2 " fill="#000000"/>
<path class="atom-9" d="M 743.0 732.4 Q 739.8 732.4, 738.2 730.0 Q 736.6 727.6, 736.6 723.3 Q 736.6 719.0, 738.2 716.7 Q 739.8 714.3, 743.0 714.3 Q 746.3 714.3, 747.9 716.7 Q 749.5 719.0, 749.5 723.3 Q 749.5 727.6, 747.9 730.0 Q 746.3 732.4, 743.0 732.4 M 743.0 730.4 Q 745.0 730.4, 746.0 728.6 Q 747.0 726.8, 747.0 723.3 Q 747.0 719.8, 746.0 718.1 Q 745.0 716.3, 743.0 716.3 Q 741.1 716.3, 740.1 718.1 Q 739.1 719.8, 739.1 723.3 Q 739.1 726.8, 740.1 728.6 Q 741.1 730.4, 743.0 730.4 " fill="#000000"/>
<path class="atom-10" d="M 721.9 621.1 Q 721.9 616.7, 723.9 614.4 Q 726.0 612.1, 729.9 612.1 Q 733.6 612.1, 735.5 614.6 L 733.9 616.0 Q 732.4 614.1, 729.9 614.1 Q 727.2 614.1, 725.8 615.9 Q 724.4 617.7, 724.4 621.1 Q 724.4 624.6, 725.9 626.4 Q 727.3 628.2, 730.2 628.2 Q 732.1 628.2, 734.4 627.0 L 735.1 628.9 Q 734.2 629.5, 732.8 629.8 Q 731.4 630.2, 729.8 630.2 Q 726.0 630.2, 723.9 627.8 Q 721.9 625.5, 721.9 621.1 " fill="#000000"/>
<path class="atom-10" d="M 738.7 628.0 L 742.5 628.0 L 742.5 614.7 L 738.3 616.1 L 737.7 614.6 L 743.1 612.2 L 744.9 612.5 L 744.9 628.0 L 748.4 628.0 L 748.4 630.0 L 738.7 630.0 L 738.7 628.0 " fill="#000000"/>
<path class="atom-10" d="M 751.5 628.0 L 755.4 628.0 L 755.4 614.7 L 751.1 616.1 L 750.6 614.6 L 756.0 612.2 L 757.8 612.5 L 757.8 628.0 L 761.2 628.0 L 761.2 630.0 L 751.5 630.0 L 751.5 628.0 " fill="#000000"/>
<path class="atom-11" d="M 622.2 561.1 L 628.0 570.5 Q 628.6 571.4, 629.5 573.1 Q 630.5 574.7, 630.5 574.8 L 630.5 561.1 L 632.9 561.1 L 632.9 578.8 L 630.4 578.8 L 624.2 568.5 Q 623.5 567.3, 622.7 566.0 Q 622.0 564.6, 621.7 564.2 L 621.7 578.8 L 619.4 578.8 L 619.4 561.1 L 622.2 561.1 " fill="#0000FF"/>
<path class="atom-11" d="M 637.1 576.8 L 641.0 576.8 L 641.0 563.6 L 636.7 564.9 L 636.1 563.4 L 641.6 561.0 L 643.3 561.3 L 643.3 576.8 L 646.8 576.8 L 646.8 578.8 L 637.1 578.8 L 637.1 576.8 " fill="#0000FF"/>
<path class="atom-11" d="M 649.1 564.4 Q 649.8 562.8, 651.3 561.8 Q 652.9 560.9, 655.0 560.9 Q 657.7 560.9, 659.2 562.3 Q 660.7 563.8, 660.7 566.4 Q 660.7 569.0, 658.7 571.4 Q 656.8 573.9, 652.8 576.8 L 661.0 576.8 L 661.0 578.8 L 649.1 578.8 L 649.1 577.1 Q 652.4 574.8, 654.3 573.0 Q 656.3 571.3, 657.2 569.7 Q 658.2 568.1, 658.2 566.5 Q 658.2 564.8, 657.3 563.8 Q 656.5 562.9, 655.0 562.9 Q 653.6 562.9, 652.6 563.5 Q 651.7 564.0, 651.0 565.3 L 649.1 564.4 " fill="#0000FF"/>
<path class="atom-12" d="M 516.9 621.0 Q 516.9 616.6, 519.0 614.3 Q 521.0 611.9, 525.0 611.9 Q 528.6 611.9, 530.6 614.5 L 528.9 615.9 Q 527.5 614.0, 525.0 614.0 Q 522.3 614.0, 520.9 615.8 Q 519.5 617.6, 519.5 621.0 Q 519.5 624.5, 520.9 626.3 Q 522.4 628.1, 525.2 628.1 Q 527.2 628.1, 529.5 626.9 L 530.2 628.8 Q 529.2 629.4, 527.8 629.7 Q 526.4 630.1, 524.9 630.1 Q 521.0 630.1, 519.0 627.7 Q 516.9 625.4, 516.9 621.0 " fill="#000000"/>
<path class="atom-12" d="M 533.7 627.8 L 537.6 627.8 L 537.6 614.6 L 533.3 615.9 L 532.8 614.5 L 538.2 612.0 L 540.0 612.3 L 540.0 627.8 L 543.4 627.8 L 543.4 629.8 L 533.7 629.8 L 533.7 627.8 " fill="#000000"/>
<path class="atom-12" d="M 554.2 620.5 Q 555.9 621.0, 556.8 622.1 Q 557.6 623.2, 557.6 625.0 Q 557.6 626.5, 556.9 627.7 Q 556.1 628.8, 554.7 629.5 Q 553.4 630.1, 551.6 630.1 Q 549.7 630.1, 548.2 629.4 Q 546.8 628.8, 545.7 627.4 L 547.1 626.0 Q 548.2 627.2, 549.2 627.6 Q 550.1 628.1, 551.6 628.1 Q 553.2 628.1, 554.1 627.2 Q 555.1 626.4, 555.1 625.0 Q 555.1 623.2, 554.1 622.4 Q 553.1 621.5, 550.9 621.5 L 549.6 621.5 L 549.6 619.7 L 550.8 619.7 Q 552.7 619.7, 553.7 618.9 Q 554.7 618.0, 554.7 616.5 Q 554.7 615.3, 553.9 614.6 Q 553.0 613.9, 551.6 613.9 Q 550.1 613.9, 549.2 614.5 Q 548.3 615.0, 547.6 616.3 L 545.9 615.4 Q 546.5 613.9, 548.0 612.9 Q 549.5 611.9, 551.6 611.9 Q 554.2 611.9, 555.7 613.2 Q 557.2 614.4, 557.2 616.5 Q 557.2 617.9, 556.5 618.9 Q 555.7 619.9, 554.2 620.5 " fill="#000000"/>
<path class="atom-13" d="M 633.5 467.7 Q 633.5 463.3, 635.5 461.0 Q 637.6 458.7, 641.5 458.7 Q 645.2 458.7, 647.1 461.2 L 645.5 462.6 Q 644.0 460.7, 641.5 460.7 Q 638.8 460.7, 637.4 462.5 Q 636.0 464.3, 636.0 467.7 Q 636.0 471.2, 637.5 473.0 Q 638.9 474.8, 641.8 474.8 Q 643.7 474.8, 646.0 473.6 L 646.7 475.5 Q 645.8 476.1, 644.4 476.4 Q 643.0 476.8, 641.4 476.8 Q 637.6 476.8, 635.5 474.4 Q 633.5 472.1, 633.5 467.7 " fill="#000000"/>
<path class="atom-13" d="M 650.4 474.6 L 654.2 474.6 L 654.2 461.3 L 650.0 462.7 L 649.4 461.2 L 654.8 458.8 L 656.6 459.1 L 656.6 474.6 L 660.1 474.6 L 660.1 476.6 L 650.4 476.6 L 650.4 474.6 " fill="#000000"/>
<path class="atom-13" d="M 673.9 470.5 L 676.0 470.5 L 676.0 472.5 L 673.9 472.5 L 673.9 476.6 L 671.5 476.6 L 671.5 472.5 L 662.4 472.5 L 662.4 470.9 L 670.1 458.9 L 673.9 458.9 L 673.9 470.5 M 665.3 470.5 L 671.5 470.5 L 671.5 460.5 L 665.3 470.5 " fill="#000000"/>
<path class="atom-14" d="M 517.0 416.5 Q 517.0 412.1, 519.1 409.8 Q 521.2 407.5, 525.1 407.5 Q 528.7 407.5, 530.7 410.1 L 529.0 411.4 Q 527.6 409.5, 525.1 409.5 Q 522.4 409.5, 521.0 411.3 Q 519.6 413.1, 519.6 416.5 Q 519.6 420.0, 521.0 421.8 Q 522.5 423.6, 525.4 423.6 Q 527.3 423.6, 529.6 422.4 L 530.3 424.3 Q 529.4 424.9, 528.0 425.3 Q 526.6 425.6, 525.0 425.6 Q 521.2 425.6, 519.1 423.3 Q 517.0 420.9, 517.0 416.5 " fill="#000000"/>
<path class="atom-14" d="M 533.9 423.4 L 537.7 423.4 L 537.7 410.2 L 533.5 411.5 L 532.9 410.0 L 538.3 407.6 L 540.1 407.9 L 540.1 423.4 L 543.6 423.4 L 543.6 425.4 L 533.9 425.4 L 533.9 423.4 " fill="#000000"/>
<path class="atom-14" d="M 552.3 414.3 Q 553.8 414.3, 555.1 415.0 Q 556.4 415.6, 557.1 416.9 Q 557.8 418.1, 557.8 419.8 Q 557.8 421.6, 556.9 422.9 Q 556.0 424.2, 554.6 424.9 Q 553.1 425.6, 551.5 425.6 Q 549.9 425.6, 548.4 425.0 Q 546.9 424.4, 545.8 423.2 L 547.3 421.7 Q 548.2 422.6, 549.3 423.1 Q 550.4 423.6, 551.6 423.6 Q 553.1 423.6, 554.2 422.6 Q 555.3 421.6, 555.3 419.8 Q 555.3 418.0, 554.2 417.1 Q 553.1 416.2, 551.4 416.2 Q 549.9 416.2, 548.1 416.9 L 546.8 416.2 L 547.6 407.7 L 556.7 407.7 L 556.5 409.7 L 549.7 409.7 L 549.1 414.9 Q 550.7 414.3, 552.3 414.3 " fill="#000000"/>
<path class="atom-15" d="M 545.1 314.3 Q 545.1 309.9, 547.1 307.6 Q 549.2 305.3, 553.1 305.3 Q 556.8 305.3, 558.7 307.9 L 557.1 309.2 Q 555.6 307.3, 553.1 307.3 Q 550.4 307.3, 549.0 309.1 Q 547.6 310.9, 547.6 314.3 Q 547.6 317.8, 549.1 319.6 Q 550.5 321.4, 553.4 321.4 Q 555.3 321.4, 557.6 320.2 L 558.3 322.1 Q 557.4 322.7, 556.0 323.1 Q 554.6 323.4, 553.0 323.4 Q 549.2 323.4, 547.1 321.1 Q 545.1 318.7, 545.1 314.3 " fill="#000000"/>
<path class="atom-15" d="M 561.9 321.2 L 565.8 321.2 L 565.8 308.0 L 561.5 309.3 L 560.9 307.8 L 566.4 305.4 L 568.1 305.7 L 568.1 321.2 L 571.6 321.2 L 571.6 323.2 L 561.9 323.2 L 561.9 321.2 " fill="#000000"/>
<path class="atom-15" d="M 580.8 312.1 Q 582.4 312.1, 583.6 312.8 Q 584.8 313.5, 585.5 314.7 Q 586.2 315.9, 586.2 317.5 Q 586.2 319.2, 585.4 320.6 Q 584.6 321.9, 583.3 322.6 Q 581.9 323.4, 580.2 323.4 Q 577.1 323.4, 575.5 321.3 Q 573.9 319.1, 573.9 314.9 Q 573.9 310.2, 575.8 307.7 Q 577.8 305.3, 581.6 305.3 Q 582.7 305.3, 583.6 305.5 Q 584.6 305.8, 585.5 306.3 L 584.5 308.0 Q 583.2 307.3, 581.6 307.3 Q 579.1 307.3, 577.8 308.9 Q 576.6 310.5, 576.4 313.8 Q 577.3 313.0, 578.4 312.6 Q 579.6 312.1, 580.8 312.1 M 580.2 321.3 Q 581.2 321.3, 582.0 320.8 Q 582.8 320.3, 583.2 319.5 Q 583.7 318.6, 583.7 317.5 Q 583.7 315.9, 582.8 315.0 Q 581.9 314.1, 580.4 314.1 Q 579.3 314.1, 578.2 314.6 Q 577.2 315.0, 576.4 315.8 Q 576.5 318.7, 577.4 320.0 Q 578.4 321.3, 580.2 321.3 " fill="#000000"/>
<path class="atom-16" d="M 443.2 263.1 Q 443.2 258.7, 445.2 256.4 Q 447.3 254.1, 451.2 254.1 Q 454.9 254.1, 456.8 256.7 L 455.2 258.0 Q 453.7 256.1, 451.2 256.1 Q 448.5 256.1, 447.1 257.9 Q 445.7 259.7, 445.7 263.1 Q 445.7 266.6, 447.2 268.4 Q 448.6 270.2, 451.5 270.2 Q 453.4 270.2, 455.7 269.0 L 456.4 270.9 Q 455.5 271.5, 454.1 271.9 Q 452.7 272.2, 451.1 272.2 Q 447.3 272.2, 445.2 269.9 Q 443.2 267.5, 443.2 263.1 " fill="#000000"/>
<path class="atom-16" d="M 460.0 270.0 L 463.9 270.0 L 463.9 256.8 L 459.6 258.1 L 459.0 256.6 L 464.4 254.2 L 466.2 254.5 L 466.2 270.0 L 469.7 270.0 L 469.7 272.0 L 460.0 272.0 L 460.0 270.0 " fill="#000000"/>
<path class="atom-16" d="M 481.2 256.3 L 471.9 256.3 L 471.9 254.3 L 483.7 254.3 L 483.7 256.1 L 476.5 272.0 L 474.1 272.0 L 481.2 256.3 " fill="#000000"/>
<path class="atom-17" d="M 354.3 211.9 Q 354.3 207.5, 356.3 205.2 Q 358.4 202.9, 362.3 202.9 Q 366.0 202.9, 367.9 205.5 L 366.3 206.8 Q 364.8 205.0, 362.3 205.0 Q 359.6 205.0, 358.2 206.8 Q 356.8 208.5, 356.8 211.9 Q 356.8 215.4, 358.3 217.2 Q 359.7 219.0, 362.6 219.0 Q 364.5 219.0, 366.8 217.9 L 367.5 219.7 Q 366.6 220.3, 365.2 220.7 Q 363.8 221.0, 362.2 221.0 Q 358.4 221.0, 356.3 218.7 Q 354.3 216.3, 354.3 211.9 " fill="#000000"/>
<path class="atom-17" d="M 371.1 218.8 L 375.0 218.8 L 375.0 205.6 L 370.7 206.9 L 370.2 205.4 L 375.6 203.0 L 377.4 203.3 L 377.4 218.8 L 380.8 218.8 L 380.8 220.8 L 371.1 220.8 L 371.1 218.8 " fill="#000000"/>
<path class="atom-17" d="M 392.1 211.4 Q 393.8 212.1, 394.7 213.2 Q 395.6 214.2, 395.6 216.0 Q 395.6 217.5, 394.8 218.6 Q 394.1 219.8, 392.7 220.4 Q 391.3 221.1, 389.5 221.1 Q 386.5 221.1, 384.8 219.7 Q 383.1 218.3, 383.1 216.0 Q 383.1 214.5, 383.9 213.4 Q 384.6 212.3, 386.2 211.5 Q 385.0 210.9, 384.4 209.9 Q 383.8 208.9, 383.8 207.4 Q 383.8 205.4, 385.3 204.1 Q 386.8 202.9, 389.4 202.9 Q 391.9 202.9, 393.4 204.1 Q 395.0 205.4, 395.0 207.4 Q 395.0 208.7, 394.2 209.7 Q 393.5 210.7, 392.1 211.4 M 389.4 204.8 Q 387.9 204.8, 387.1 205.5 Q 386.3 206.2, 386.3 207.4 Q 386.3 208.4, 386.8 209.0 Q 387.4 209.6, 388.1 209.9 Q 388.9 210.3, 390.5 210.8 Q 391.5 210.1, 392.0 209.3 Q 392.5 208.5, 392.5 207.4 Q 392.5 206.2, 391.6 205.5 Q 390.8 204.8, 389.4 204.8 M 389.5 219.2 Q 391.1 219.2, 392.1 218.3 Q 393.1 217.4, 393.1 215.9 Q 393.1 215.0, 392.6 214.4 Q 392.1 213.8, 391.3 213.4 Q 390.5 213.1, 389.1 212.6 L 388.0 212.3 Q 386.7 213.0, 386.2 213.9 Q 385.6 214.8, 385.6 215.9 Q 385.6 217.4, 386.7 218.3 Q 387.7 219.2, 389.5 219.2 " fill="#000000"/>
<path class="atom-18" d="M 265.9 160.8 Q 265.9 156.4, 268.0 154.1 Q 270.0 151.7, 274.0 151.7 Q 277.6 151.7, 279.6 154.3 L 277.9 155.7 Q 276.5 153.8, 274.0 153.8 Q 271.3 153.8, 269.9 155.6 Q 268.5 157.4, 268.5 160.8 Q 268.5 164.3, 269.9 166.1 Q 271.4 167.9, 274.2 167.9 Q 276.2 167.9, 278.5 166.7 L 279.2 168.6 Q 278.2 169.2, 276.8 169.5 Q 275.4 169.9, 273.9 169.9 Q 270.0 169.9, 268.0 167.5 Q 265.9 165.2, 265.9 160.8 " fill="#000000"/>
<path class="atom-18" d="M 282.8 167.6 L 286.6 167.6 L 286.6 154.4 L 282.4 155.7 L 281.8 154.3 L 287.2 151.8 L 289.0 152.1 L 289.0 167.6 L 292.5 167.6 L 292.5 169.6 L 282.8 169.6 L 282.8 167.6 " fill="#000000"/>
<path class="atom-18" d="M 300.7 151.7 Q 303.8 151.7, 305.4 153.9 Q 307.0 156.0, 307.0 160.3 Q 307.0 165.0, 305.0 167.4 Q 303.1 169.8, 299.3 169.8 Q 298.2 169.8, 297.3 169.6 Q 296.3 169.3, 295.4 168.8 L 296.4 167.1 Q 297.7 167.8, 299.3 167.8 Q 301.8 167.8, 303.1 166.2 Q 304.3 164.6, 304.5 161.3 Q 303.6 162.1, 302.4 162.6 Q 301.3 163.0, 300.1 163.0 Q 298.5 163.0, 297.3 162.3 Q 296.1 161.6, 295.4 160.4 Q 294.7 159.2, 294.7 157.6 Q 294.7 155.9, 295.5 154.6 Q 296.3 153.2, 297.6 152.5 Q 299.0 151.7, 300.7 151.7 M 297.2 157.6 Q 297.2 159.2, 298.1 160.1 Q 299.0 161.0, 300.5 161.0 Q 301.6 161.0, 302.7 160.6 Q 303.7 160.1, 304.5 159.4 Q 304.4 156.4, 303.5 155.1 Q 302.5 153.8, 300.7 153.8 Q 299.7 153.8, 298.9 154.3 Q 298.1 154.8, 297.7 155.7 Q 297.2 156.5, 297.2 157.6 " fill="#000000"/>
<path class="atom-19" d="M 330.8 72.3 Q 330.8 67.9, 332.9 65.6 Q 334.9 63.3, 338.9 63.3 Q 342.5 63.3, 344.5 65.8 L 342.8 67.2 Q 341.4 65.3, 338.9 65.3 Q 336.2 65.3, 334.8 67.1 Q 333.4 68.9, 333.4 72.3 Q 333.4 75.8, 334.8 77.6 Q 336.3 79.4, 339.1 79.4 Q 341.1 79.4, 343.4 78.2 L 344.1 80.1 Q 343.1 80.7, 341.7 81.0 Q 340.3 81.4, 338.8 81.4 Q 334.9 81.4, 332.9 79.0 Q 330.8 76.7, 330.8 72.3 " fill="#000000"/>
<path class="atom-19" d="M 346.8 66.8 Q 347.4 65.1, 349.0 64.2 Q 350.5 63.3, 352.7 63.3 Q 355.4 63.3, 356.9 64.7 Q 358.4 66.2, 358.4 68.7 Q 358.4 71.4, 356.4 73.8 Q 354.5 76.3, 350.5 79.2 L 358.7 79.2 L 358.7 81.2 L 346.7 81.2 L 346.7 79.5 Q 350.0 77.1, 352.0 75.4 Q 354.0 73.6, 354.9 72.1 Q 355.9 70.5, 355.9 68.9 Q 355.9 67.2, 355.0 66.2 Q 354.2 65.3, 352.7 65.3 Q 351.3 65.3, 350.3 65.8 Q 349.4 66.4, 348.7 67.7 L 346.8 66.8 " fill="#000000"/>
<path class="atom-19" d="M 367.9 81.4 Q 364.7 81.4, 363.0 79.0 Q 361.4 76.6, 361.4 72.3 Q 361.4 68.0, 363.0 65.6 Q 364.6 63.3, 367.9 63.3 Q 371.2 63.3, 372.8 65.6 Q 374.4 68.0, 374.4 72.3 Q 374.4 76.6, 372.8 79.0 Q 371.2 81.4, 367.9 81.4 M 367.9 79.4 Q 369.8 79.4, 370.9 77.6 Q 371.9 75.8, 371.9 72.3 Q 371.9 68.8, 370.9 67.0 Q 369.8 65.3, 367.9 65.3 Q 366.0 65.3, 365.0 67.0 Q 363.9 68.8, 363.9 72.3 Q 363.9 75.8, 365.0 77.6 Q 366.0 79.4, 367.9 79.4 " fill="#000000"/>
<path class="atom-20" d="M 199.6 72.2 Q 199.6 67.8, 201.6 65.5 Q 203.7 63.2, 207.6 63.2 Q 211.3 63.2, 213.2 65.7 L 211.6 67.1 Q 210.2 65.2, 207.6 65.2 Q 205.0 65.2, 203.5 67.0 Q 202.1 68.8, 202.1 72.2 Q 202.1 75.7, 203.6 77.5 Q 205.1 79.3, 207.9 79.3 Q 209.9 79.3, 212.1 78.1 L 212.8 80.0 Q 211.9 80.6, 210.5 80.9 Q 209.1 81.3, 207.6 81.3 Q 203.7 81.3, 201.6 78.9 Q 199.6 76.6, 199.6 72.2 " fill="#000000"/>
<path class="atom-20" d="M 215.5 66.7 Q 216.1 65.0, 217.7 64.1 Q 219.2 63.2, 221.4 63.2 Q 224.1 63.2, 225.6 64.6 Q 227.1 66.1, 227.1 68.6 Q 227.1 71.3, 225.1 73.7 Q 223.2 76.2, 219.2 79.1 L 227.4 79.1 L 227.4 81.1 L 215.4 81.1 L 215.4 79.4 Q 218.7 77.0, 220.7 75.3 Q 222.7 73.5, 223.6 72.0 Q 224.6 70.4, 224.6 68.8 Q 224.6 67.1, 223.7 66.1 Q 222.9 65.2, 221.4 65.2 Q 220.0 65.2, 219.0 65.7 Q 218.1 66.3, 217.4 67.6 L 215.5 66.7 " fill="#000000"/>
<path class="atom-20" d="M 231.0 79.1 L 234.9 79.1 L 234.9 65.8 L 230.6 67.2 L 230.1 65.7 L 235.5 63.3 L 237.3 63.6 L 237.3 79.1 L 240.7 79.1 L 240.7 81.1 L 231.0 81.1 L 231.0 79.1 " fill="#000000"/>
<path class="atom-21" d="M 161.4 211.8 Q 161.4 207.4, 163.4 205.1 Q 165.5 202.8, 169.4 202.8 Q 173.1 202.8, 175.0 205.4 L 173.4 206.7 Q 171.9 204.8, 169.4 204.8 Q 166.7 204.8, 165.3 206.6 Q 163.9 208.4, 163.9 211.8 Q 163.9 215.3, 165.4 217.1 Q 166.8 218.9, 169.7 218.9 Q 171.6 218.9, 173.9 217.7 L 174.6 219.6 Q 173.7 220.2, 172.3 220.6 Q 170.9 220.9, 169.3 220.9 Q 165.5 220.9, 163.4 218.6 Q 161.4 216.2, 161.4 211.8 " fill="#000000"/>
<path class="atom-21" d="M 177.3 206.3 Q 178.0 204.7, 179.5 203.7 Q 181.1 202.8, 183.2 202.8 Q 185.9 202.8, 187.4 204.2 Q 188.9 205.7, 188.9 208.3 Q 188.9 210.9, 186.9 213.3 Q 185.0 215.8, 181.0 218.7 L 189.2 218.7 L 189.2 220.7 L 177.3 220.7 L 177.3 219.0 Q 180.6 216.7, 182.5 214.9 Q 184.5 213.2, 185.4 211.6 Q 186.4 210.0, 186.4 208.4 Q 186.4 206.7, 185.5 205.7 Q 184.7 204.8, 183.2 204.8 Q 181.8 204.8, 180.8 205.4 Q 179.9 205.9, 179.2 207.2 L 177.3 206.3 " fill="#000000"/>
<path class="atom-21" d="M 192.0 206.3 Q 192.6 204.7, 194.2 203.7 Q 195.7 202.8, 197.9 202.8 Q 200.6 202.8, 202.1 204.2 Q 203.6 205.7, 203.6 208.3 Q 203.6 210.9, 201.6 213.3 Q 199.7 215.8, 195.7 218.7 L 203.9 218.7 L 203.9 220.7 L 191.9 220.7 L 191.9 219.0 Q 195.2 216.7, 197.2 214.9 Q 199.2 213.2, 200.1 211.6 Q 201.1 210.0, 201.1 208.4 Q 201.1 206.7, 200.2 205.7 Q 199.4 204.8, 197.9 204.8 Q 196.5 204.8, 195.5 205.4 Q 194.6 205.9, 193.9 207.2 L 192.0 206.3 " fill="#000000"/>
<text x="1000" y="50" font-size="8" font-family="Verdana" font-weight="normal" letter-spacing="0" text-anchor="start" fill="black">Highlighted Atoms:
Primary SOM: Red
Secondary SOM: Green
Tertiary SOM: Cyan
</text></svg>
