<?xml version='1.0' encoding='ASCII' standalone='yes'?>
<svg xmlns="http://www.w3.org/2000/svg" xmlns:rdkit="http://www.rdkit.org/xml" xmlns:xlink="http://www.w3.org/1999/xlink" style="background-color: white;" version="1.1" baseProfile="full" xml:space="preserve" width="1000px" height="1000px" viewBox="0 0 1000 1000">
<!-- END OF HEADER -->
<rect style="opacity:1.0;fill:#FFFFFF;stroke:none" width="1000.0" height="1000.0" x="0.0" y="0.0"> </rect>
<ellipse cx="138.6" cy="290.4" rx="30.0" ry="20.3" class="atom-31" style="fill:#B20000;fill-rule:evenodd;stroke:#B20000;stroke-width:1.0px;stroke-linecap:butt;stroke-linejoin:miter;stroke-opacity:1"/>
<ellipse cx="104.7" cy="231.8" rx="30.0" ry="20.3" class="atom-32" style="fill:#B20000;fill-rule:evenodd;stroke:#B20000;stroke-width:1.0px;stroke-linecap:butt;stroke-linejoin:miter;stroke-opacity:1"/>
<ellipse cx="202.9" cy="164.1" rx="31.3" ry="20.3" class="atom-33" style="fill:#B20000;fill-rule:evenodd;stroke:#B20000;stroke-width:1.0px;stroke-linecap:butt;stroke-linejoin:miter;stroke-opacity:1"/>
<path class="bond-0 atom-1 atom-0" d="M 722.0,682.4 L 743.0,718.6" style="fill:none;fill-rule:evenodd;stroke:#000000;stroke-width:2.0px;stroke-linecap:butt;stroke-linejoin:miter;stroke-opacity:1"/>
<path class="bond-1 atom-2 atom-1" d="M 688.2,718.7 L 698.6,700.6" style="fill:none;fill-rule:evenodd;stroke:#FF0000;stroke-width:2.0px;stroke-linecap:butt;stroke-linejoin:miter;stroke-opacity:1"/>
<path class="bond-1 atom-2 atom-1" d="M 698.6,700.6 L 709.0,682.6" style="fill:none;fill-rule:evenodd;stroke:#000000;stroke-width:2.0px;stroke-linecap:butt;stroke-linejoin:miter;stroke-opacity:1"/>
<path class="bond-2 atom-3 atom-1" d="M 754.4,648.7 L 731.7,661.9" style="fill:none;fill-rule:evenodd;stroke:#000000;stroke-width:2.0px;stroke-linecap:butt;stroke-linejoin:miter;stroke-opacity:1"/>
<path class="bond-3 atom-4 atom-1" d="M 673.1,646.7 L 699.4,661.9" style="fill:none;fill-rule:evenodd;stroke:#000000;stroke-width:2.0px;stroke-linecap:butt;stroke-linejoin:miter;stroke-opacity:1"/>
<path class="bond-4 atom-5 atom-0" d="M 722.1,777.3 L 742.9,741.2" style="fill:none;fill-rule:evenodd;stroke:#000000;stroke-width:2.0px;stroke-linecap:butt;stroke-linejoin:miter;stroke-opacity:1"/>
<path class="bond-4 atom-5 atom-0" d="M 730.9,782.3 L 751.7,746.3" style="fill:none;fill-rule:evenodd;stroke:#000000;stroke-width:2.0px;stroke-linecap:butt;stroke-linejoin:miter;stroke-opacity:1"/>
<path class="bond-5 atom-6 atom-5" d="M 743.1,835.9 L 722.2,799.8" style="fill:none;fill-rule:evenodd;stroke:#000000;stroke-width:2.0px;stroke-linecap:butt;stroke-linejoin:miter;stroke-opacity:1"/>
<path class="bond-6 atom-7 atom-6" d="M 808.2,847.0 L 757.7,847.0" style="fill:none;fill-rule:evenodd;stroke:#000000;stroke-width:2.0px;stroke-linecap:butt;stroke-linejoin:miter;stroke-opacity:1"/>
<path class="bond-6 atom-7 atom-6" d="M 808.2,836.8 L 757.6,836.9" style="fill:none;fill-rule:evenodd;stroke:#000000;stroke-width:2.0px;stroke-linecap:butt;stroke-linejoin:miter;stroke-opacity:1"/>
<path class="bond-7 atom-8 atom-7" d="M 844.5,799.7 L 823.7,835.8" style="fill:none;fill-rule:evenodd;stroke:#000000;stroke-width:2.0px;stroke-linecap:butt;stroke-linejoin:miter;stroke-opacity:1"/>
<path class="bond-8 atom-9 atom-0" d="M 808.1,729.7 L 757.0,729.8" style="fill:none;fill-rule:evenodd;stroke:#000000;stroke-width:2.0px;stroke-linecap:butt;stroke-linejoin:miter;stroke-opacity:1"/>
<path class="bond-9 atom-9 atom-8" d="M 823.7,741.1 L 844.6,777.2" style="fill:none;fill-rule:evenodd;stroke:#000000;stroke-width:2.0px;stroke-linecap:butt;stroke-linejoin:miter;stroke-opacity:1"/>
<path class="bond-9 atom-9 atom-8" d="M 814.9,746.2 L 835.8,782.2" style="fill:none;fill-rule:evenodd;stroke:#000000;stroke-width:2.0px;stroke-linecap:butt;stroke-linejoin:miter;stroke-opacity:1"/>
<path class="bond-10 atom-10 atom-3" d="M 813.4,659.9 L 783.2,642.5" style="fill:none;fill-rule:evenodd;stroke:#000000;stroke-width:2.0px;stroke-linecap:butt;stroke-linejoin:miter;stroke-opacity:1"/>
<path class="bond-10 atom-10 atom-3" d="M 818.4,651.1 L 788.3,633.7" style="fill:none;fill-rule:evenodd;stroke:#000000;stroke-width:2.0px;stroke-linecap:butt;stroke-linejoin:miter;stroke-opacity:1"/>
<path class="bond-11 atom-11 atom-10" d="M 882.3,642.5 L 852.0,660.0" style="fill:none;fill-rule:evenodd;stroke:#000000;stroke-width:2.0px;stroke-linecap:butt;stroke-linejoin:miter;stroke-opacity:1"/>
<path class="bond-12 atom-12 atom-11" d="M 891.3,580.9 L 891.4,626.0" style="fill:none;fill-rule:evenodd;stroke:#000000;stroke-width:2.0px;stroke-linecap:butt;stroke-linejoin:miter;stroke-opacity:1"/>
<path class="bond-12 atom-12 atom-11" d="M 881.2,580.9 L 881.2,626.1" style="fill:none;fill-rule:evenodd;stroke:#000000;stroke-width:2.0px;stroke-linecap:butt;stroke-linejoin:miter;stroke-opacity:1"/>
<path class="bond-13 atom-13 atom-12" d="M 852.1,546.9 L 882.3,564.3" style="fill:none;fill-rule:evenodd;stroke:#000000;stroke-width:2.0px;stroke-linecap:butt;stroke-linejoin:miter;stroke-opacity:1"/>
<path class="bond-14 atom-14 atom-3" d="M 774.1,581.0 L 774.1,626.3" style="fill:none;fill-rule:evenodd;stroke:#000000;stroke-width:2.0px;stroke-linecap:butt;stroke-linejoin:miter;stroke-opacity:1"/>
<path class="bond-15 atom-14 atom-13" d="M 782.3,564.9 L 813.0,547.1" style="fill:none;fill-rule:evenodd;stroke:#000000;stroke-width:2.0px;stroke-linecap:butt;stroke-linejoin:miter;stroke-opacity:1"/>
<path class="bond-15 atom-14 atom-13" d="M 787.4,573.7 L 818.0,555.9" style="fill:none;fill-rule:evenodd;stroke:#000000;stroke-width:2.0px;stroke-linecap:butt;stroke-linejoin:miter;stroke-opacity:1"/>
<path class="bond-16 atom-15 atom-4" d="M 656.9,581.1 L 656.9,626.2" style="fill:none;fill-rule:evenodd;stroke:#000000;stroke-width:2.0px;stroke-linecap:butt;stroke-linejoin:miter;stroke-opacity:1"/>
<path class="bond-17 atom-16 atom-4" d="M 617.3,660.3 L 640.7,646.8" style="fill:none;fill-rule:evenodd;stroke:#000000;stroke-width:2.0px;stroke-linecap:butt;stroke-linejoin:miter;stroke-opacity:1"/>
<path class="bond-18 atom-17 atom-16" d="M 548.2,642.4 L 578.9,660.1" style="fill:none;fill-rule:evenodd;stroke:#000000;stroke-width:2.0px;stroke-linecap:butt;stroke-linejoin:miter;stroke-opacity:1"/>
<path class="bond-19 atom-18 atom-15" d="M 618.0,547.3 L 647.8,564.5" style="fill:none;fill-rule:evenodd;stroke:#000000;stroke-width:2.0px;stroke-linecap:butt;stroke-linejoin:miter;stroke-opacity:1"/>
<path class="bond-20 atom-19 atom-17" d="M 539.6,581.2 L 539.6,603.8" style="fill:none;fill-rule:evenodd;stroke:#0000FF;stroke-width:2.0px;stroke-linecap:butt;stroke-linejoin:miter;stroke-opacity:1"/>
<path class="bond-20 atom-19 atom-17" d="M 539.6,603.8 L 539.7,626.3" style="fill:none;fill-rule:evenodd;stroke:#000000;stroke-width:2.0px;stroke-linecap:butt;stroke-linejoin:miter;stroke-opacity:1"/>
<path class="bond-21 atom-19 atom-18" d="M 548.3,564.8 L 563.4,556.1" style="fill:none;fill-rule:evenodd;stroke:#0000FF;stroke-width:2.0px;stroke-linecap:butt;stroke-linejoin:miter;stroke-opacity:1"/>
<path class="bond-21 atom-19 atom-18" d="M 563.4,556.1 L 578.5,547.3" style="fill:none;fill-rule:evenodd;stroke:#000000;stroke-width:2.0px;stroke-linecap:butt;stroke-linejoin:miter;stroke-opacity:1"/>
<path class="bond-22 atom-20 atom-19" d="M 488.6,540.4 L 504.4,549.5" style="fill:none;fill-rule:evenodd;stroke:#000000;stroke-width:2.0px;stroke-linecap:butt;stroke-linejoin:miter;stroke-opacity:1"/>
<path class="bond-22 atom-20 atom-19" d="M 504.4,549.5 L 520.2,558.6" style="fill:none;fill-rule:evenodd;stroke:#0000FF;stroke-width:2.0px;stroke-linecap:butt;stroke-linejoin:miter;stroke-opacity:1"/>
<path class="bond-23 atom-21 atom-20" d="M 480.9,479.7 L 481.0,524.9" style="fill:none;fill-rule:evenodd;stroke:#000000;stroke-width:2.0px;stroke-linecap:butt;stroke-linejoin:miter;stroke-opacity:1"/>
<path class="bond-24 atom-22 atom-21" d="M 430.5,439.2 L 471.9,463.1" style="fill:none;fill-rule:evenodd;stroke:#000000;stroke-width:2.0px;stroke-linecap:butt;stroke-linejoin:miter;stroke-opacity:1"/>
<path class="bond-25 atom-23 atom-22" d="M 422.2,378.0 L 422.3,423.3" style="fill:none;fill-rule:evenodd;stroke:#000000;stroke-width:2.0px;stroke-linecap:butt;stroke-linejoin:miter;stroke-opacity:1"/>
<path class="bond-26 atom-24 atom-23" d="M 383.4,344.4 L 402.8,355.7" style="fill:none;fill-rule:evenodd;stroke:#000000;stroke-width:2.0px;stroke-linecap:butt;stroke-linejoin:miter;stroke-opacity:1"/>
<path class="bond-27 atom-25 atom-24" d="M 363.5,276.8 L 363.6,321.9" style="fill:none;fill-rule:evenodd;stroke:#000000;stroke-width:2.0px;stroke-linecap:butt;stroke-linejoin:miter;stroke-opacity:1"/>
<path class="bond-27 atom-25 atom-24" d="M 353.4,276.8 L 353.4,321.9" style="fill:none;fill-rule:evenodd;stroke:#000000;stroke-width:2.0px;stroke-linecap:butt;stroke-linejoin:miter;stroke-opacity:1"/>
<path class="bond-28 atom-26 atom-25" d="M 324.3,242.7 L 354.5,260.1" style="fill:none;fill-rule:evenodd;stroke:#000000;stroke-width:2.0px;stroke-linecap:butt;stroke-linejoin:miter;stroke-opacity:1"/>
<path class="bond-29 atom-27 atom-26" d="M 265.6,254.3 L 285.2,243.0" style="fill:none;fill-rule:evenodd;stroke:#000000;stroke-width:2.0px;stroke-linecap:butt;stroke-linejoin:miter;stroke-opacity:1"/>
<path class="bond-29 atom-27 atom-26" d="M 270.7,263.1 L 290.3,251.8" style="fill:none;fill-rule:evenodd;stroke:#000000;stroke-width:2.0px;stroke-linecap:butt;stroke-linejoin:miter;stroke-opacity:1"/>
<path class="bond-30 atom-28 atom-27" d="M 246.3,322.0 L 246.3,276.6" style="fill:none;fill-rule:evenodd;stroke:#000000;stroke-width:2.0px;stroke-linecap:butt;stroke-linejoin:miter;stroke-opacity:1"/>
<path class="bond-31 atom-29 atom-24" d="M 324.3,355.7 L 343.9,344.5" style="fill:none;fill-rule:evenodd;stroke:#000000;stroke-width:2.0px;stroke-linecap:butt;stroke-linejoin:miter;stroke-opacity:1"/>
<path class="bond-32 atom-29 atom-28" d="M 285.6,355.7 L 254.7,338.0" style="fill:none;fill-rule:evenodd;stroke:#000000;stroke-width:2.0px;stroke-linecap:butt;stroke-linejoin:miter;stroke-opacity:1"/>
<path class="bond-32 atom-29 atom-28" d="M 290.7,346.9 L 259.8,329.2" style="fill:none;fill-rule:evenodd;stroke:#000000;stroke-width:2.0px;stroke-linecap:butt;stroke-linejoin:miter;stroke-opacity:1"/>
<path class="bond-33 atom-30 atom-27" d="M 207.5,243.1 L 226.9,254.3" style="fill:none;fill-rule:evenodd;stroke:#000000;stroke-width:2.0px;stroke-linecap:butt;stroke-linejoin:miter;stroke-opacity:1"/>
<path class="bond-34 atom-31 atom-30" d="M 160.3,279.1 L 181.1,243.1" style="fill:none;fill-rule:evenodd;stroke:#000000;stroke-width:2.0px;stroke-linecap:butt;stroke-linejoin:miter;stroke-opacity:1"/>
<path class="bond-35 atom-32 atom-30" d="M 128.2,231.7 L 178.6,231.7" style="fill:none;fill-rule:evenodd;stroke:#000000;stroke-width:2.0px;stroke-linecap:butt;stroke-linejoin:miter;stroke-opacity:1"/>
<path class="bond-36 atom-33 atom-30" d="M 187.6,175.4 L 187.7,220.5" style="fill:none;fill-rule:evenodd;stroke:#000000;stroke-width:2.0px;stroke-linecap:butt;stroke-linejoin:miter;stroke-opacity:1"/>
<path class="bond-37 atom-34 atom-23" d="M 470.5,339.0 L 455.8,347.4" style="fill:none;fill-rule:evenodd;stroke:#FF0000;stroke-width:2.0px;stroke-linecap:butt;stroke-linejoin:miter;stroke-opacity:1"/>
<path class="bond-37 atom-34 atom-23" d="M 455.8,347.4 L 441.2,355.9" style="fill:none;fill-rule:evenodd;stroke:#000000;stroke-width:2.0px;stroke-linecap:butt;stroke-linejoin:miter;stroke-opacity:1"/>
<path class="atom-0" d="M 728.2 729.9 Q 728.2 725.5, 730.3 723.2 Q 732.4 720.8, 736.3 720.8 Q 739.9 720.8, 741.9 723.4 L 740.2 724.8 Q 738.8 722.9, 736.3 722.9 Q 733.6 722.9, 732.2 724.7 Q 730.8 726.5, 730.8 729.9 Q 730.8 733.4, 732.2 735.2 Q 733.7 737.0, 736.6 737.0 Q 738.5 737.0, 740.8 735.8 L 741.5 737.7 Q 740.6 738.3, 739.2 738.6 Q 737.8 739.0, 736.2 739.0 Q 732.4 739.0, 730.3 736.6 Q 728.2 734.3, 728.2 729.9 " fill="#000000"/>
<path class="atom-0" d="M 745.1 736.7 L 749.0 736.7 L 749.0 723.5 L 744.7 724.8 L 744.1 723.4 L 749.5 720.9 L 751.3 721.2 L 751.3 736.7 L 754.8 736.7 L 754.8 738.7 L 745.1 738.7 L 745.1 736.7 " fill="#000000"/>
<path class="atom-1" d="M 701.6 671.3 Q 701.6 666.9, 703.7 664.6 Q 705.8 662.3, 709.7 662.3 Q 713.3 662.3, 715.3 664.8 L 713.6 666.2 Q 712.2 664.3, 709.7 664.3 Q 707.0 664.3, 705.6 666.1 Q 704.2 667.9, 704.2 671.3 Q 704.2 674.8, 705.6 676.6 Q 707.1 678.4, 710.0 678.4 Q 711.9 678.4, 714.2 677.2 L 714.9 679.1 Q 714.0 679.7, 712.6 680.0 Q 711.2 680.4, 709.6 680.4 Q 705.8 680.4, 703.7 678.0 Q 701.6 675.7, 701.6 671.3 " fill="#000000"/>
<path class="atom-1" d="M 717.6 665.8 Q 718.3 664.1, 719.8 663.2 Q 721.4 662.3, 723.5 662.3 Q 726.2 662.3, 727.7 663.7 Q 729.2 665.2, 729.2 667.7 Q 729.2 670.4, 727.2 672.8 Q 725.3 675.3, 721.3 678.2 L 729.5 678.2 L 729.5 680.2 L 717.6 680.2 L 717.6 678.5 Q 720.9 676.1, 722.8 674.4 Q 724.8 672.6, 725.7 671.1 Q 726.7 669.5, 726.7 667.9 Q 726.7 666.2, 725.8 665.2 Q 725.0 664.3, 723.5 664.3 Q 722.1 664.3, 721.1 664.8 Q 720.2 665.4, 719.5 666.7 L 717.6 665.8 " fill="#000000"/>
<path class="atom-2" d="M 656.9 729.9 Q 656.9 725.7, 659.0 723.3 Q 661.1 720.9, 665.0 720.9 Q 669.0 720.9, 671.1 723.3 Q 673.2 725.7, 673.2 729.9 Q 673.2 734.2, 671.0 736.7 Q 668.9 739.1, 665.0 739.1 Q 661.1 739.1, 659.0 736.7 Q 656.9 734.2, 656.9 729.9 M 665.0 737.1 Q 667.7 737.1, 669.2 735.3 Q 670.7 733.5, 670.7 729.9 Q 670.7 726.4, 669.2 724.7 Q 667.7 722.9, 665.0 722.9 Q 662.3 722.9, 660.9 724.7 Q 659.4 726.4, 659.4 729.9 Q 659.4 733.5, 660.9 735.3 Q 662.3 737.1, 665.0 737.1 " fill="#FF0000"/>
<path class="atom-2" d="M 684.3 729.5 Q 686.0 730.0, 686.9 731.1 Q 687.7 732.2, 687.7 734.0 Q 687.7 735.5, 687.0 736.6 Q 686.2 737.8, 684.8 738.4 Q 683.5 739.1, 681.7 739.1 Q 679.8 739.1, 678.3 738.4 Q 676.9 737.7, 675.8 736.4 L 677.2 734.9 Q 678.3 736.1, 679.3 736.6 Q 680.2 737.1, 681.7 737.1 Q 683.3 737.1, 684.2 736.2 Q 685.2 735.3, 685.2 733.9 Q 685.2 732.1, 684.2 731.3 Q 683.2 730.5, 681.0 730.5 L 679.7 730.5 L 679.7 728.7 L 680.9 728.7 Q 682.8 728.7, 683.8 727.9 Q 684.8 727.0, 684.8 725.4 Q 684.8 724.3, 684.0 723.6 Q 683.1 722.9, 681.7 722.9 Q 680.2 722.9, 679.3 723.4 Q 678.4 724.0, 677.7 725.3 L 676.0 724.4 Q 676.6 722.9, 678.1 721.9 Q 679.6 720.9, 681.7 720.9 Q 684.3 720.9, 685.8 722.1 Q 687.3 723.4, 687.3 725.4 Q 687.3 726.9, 686.6 727.9 Q 685.8 728.9, 684.3 729.5 " fill="#FF0000"/>
<path class="atom-3" d="M 751.3 637.4 Q 751.3 633.0, 753.4 630.7 Q 755.4 628.4, 759.4 628.4 Q 763.0 628.4, 765.0 630.9 L 763.3 632.3 Q 761.9 630.4, 759.4 630.4 Q 756.7 630.4, 755.3 632.2 Q 753.9 634.0, 753.9 637.4 Q 753.9 640.9, 755.3 642.7 Q 756.8 644.5, 759.6 644.5 Q 761.6 644.5, 763.9 643.3 L 764.6 645.2 Q 763.6 645.8, 762.2 646.1 Q 760.8 646.5, 759.3 646.5 Q 755.4 646.5, 753.4 644.1 Q 751.3 641.8, 751.3 637.4 " fill="#000000"/>
<path class="atom-3" d="M 778.8 640.2 L 781.0 640.2 L 781.0 642.2 L 778.8 642.2 L 778.8 646.3 L 776.5 646.3 L 776.5 642.2 L 767.3 642.2 L 767.3 640.6 L 775.1 628.6 L 778.8 628.6 L 778.8 640.2 M 770.2 640.2 L 776.5 640.2 L 776.5 630.2 L 770.2 640.2 " fill="#000000"/>
<path class="atom-4" d="M 643.0 637.5 Q 643.0 633.1, 645.0 630.8 Q 647.1 628.5, 651.0 628.5 Q 654.7 628.5, 656.6 631.0 L 655.0 632.4 Q 653.5 630.5, 651.0 630.5 Q 648.3 630.5, 646.9 632.3 Q 645.5 634.1, 645.5 637.5 Q 645.5 641.0, 647.0 642.8 Q 648.4 644.6, 651.3 644.6 Q 653.2 644.6, 655.5 643.4 L 656.2 645.3 Q 655.3 645.9, 653.9 646.2 Q 652.5 646.6, 650.9 646.6 Q 647.1 646.6, 645.0 644.2 Q 643.0 641.9, 643.0 637.5 " fill="#000000"/>
<path class="atom-4" d="M 665.3 635.3 Q 666.9 635.3, 668.2 636.0 Q 669.4 636.6, 670.2 637.9 Q 670.9 639.1, 670.9 640.8 Q 670.9 642.6, 670.0 643.9 Q 669.1 645.2, 667.7 645.9 Q 666.2 646.6, 664.6 646.6 Q 662.9 646.6, 661.4 646.0 Q 659.9 645.4, 658.9 644.2 L 660.4 642.7 Q 661.2 643.6, 662.4 644.1 Q 663.5 644.5, 664.6 644.5 Q 666.2 644.5, 667.3 643.6 Q 668.4 642.6, 668.4 640.8 Q 668.4 638.9, 667.3 638.1 Q 666.2 637.2, 664.5 637.2 Q 662.9 637.2, 661.2 637.8 L 659.8 637.2 L 660.7 628.7 L 669.8 628.7 L 669.5 630.7 L 662.7 630.7 L 662.2 635.9 Q 663.8 635.3, 665.3 635.3 " fill="#000000"/>
<path class="atom-5" d="M 693.6 788.5 Q 693.6 784.1, 695.6 781.8 Q 697.7 779.5, 701.6 779.5 Q 705.3 779.5, 707.2 782.1 L 705.6 783.4 Q 704.2 781.5, 701.6 781.5 Q 699.0 781.5, 697.5 783.3 Q 696.1 785.1, 696.1 788.5 Q 696.1 792.0, 697.6 793.8 Q 699.1 795.6, 701.9 795.6 Q 703.9 795.6, 706.1 794.4 L 706.8 796.3 Q 705.9 796.9, 704.5 797.3 Q 703.1 797.6, 701.6 797.6 Q 697.7 797.6, 695.6 795.3 Q 693.6 792.9, 693.6 788.5 " fill="#000000"/>
<path class="atom-5" d="M 716.5 786.3 Q 718.0 786.3, 719.2 787.0 Q 720.5 787.7, 721.1 788.9 Q 721.8 790.1, 721.8 791.7 Q 721.8 793.4, 721.0 794.8 Q 720.3 796.1, 718.9 796.8 Q 717.6 797.6, 715.9 797.6 Q 712.7 797.6, 711.1 795.5 Q 709.5 793.3, 709.5 789.1 Q 709.5 784.4, 711.5 781.9 Q 713.5 779.5, 717.2 779.5 Q 718.3 779.5, 719.3 779.7 Q 720.2 780.0, 721.1 780.5 L 720.1 782.2 Q 718.8 781.5, 717.3 781.5 Q 714.8 781.5, 713.5 783.1 Q 712.2 784.7, 712.1 788.0 Q 713.0 787.2, 714.1 786.8 Q 715.2 786.3, 716.5 786.3 M 715.9 795.5 Q 716.8 795.5, 717.6 795.0 Q 718.4 794.5, 718.9 793.7 Q 719.3 792.8, 719.3 791.7 Q 719.3 790.1, 718.4 789.2 Q 717.6 788.3, 716.0 788.3 Q 714.9 788.3, 713.9 788.8 Q 712.8 789.2, 712.1 790.0 Q 712.2 792.9, 713.1 794.2 Q 714.0 795.5, 715.9 795.5 " fill="#000000"/>
<path class="atom-6" d="M 727.8 847.1 Q 727.8 842.7, 729.8 840.4 Q 731.9 838.1, 735.8 838.1 Q 739.5 838.1, 741.4 840.7 L 739.8 842.0 Q 738.3 840.1, 735.8 840.1 Q 733.1 840.1, 731.7 841.9 Q 730.3 843.7, 730.3 847.1 Q 730.3 850.6, 731.8 852.4 Q 733.2 854.2, 736.1 854.2 Q 738.0 854.2, 740.3 853.0 L 741.0 854.9 Q 740.1 855.5, 738.7 855.9 Q 737.3 856.2, 735.7 856.2 Q 731.9 856.2, 729.8 853.9 Q 727.8 851.5, 727.8 847.1 " fill="#000000"/>
<path class="atom-6" d="M 752.9 840.3 L 743.7 840.3 L 743.7 838.3 L 755.4 838.3 L 755.4 840.1 L 748.3 856.0 L 745.9 856.0 L 752.9 840.3 " fill="#000000"/>
<path class="atom-7" d="M 810.4 847.1 Q 810.4 842.7, 812.5 840.4 Q 814.5 838.0, 818.5 838.0 Q 822.1 838.0, 824.1 840.6 L 822.4 842.0 Q 821.0 840.1, 818.5 840.1 Q 815.8 840.1, 814.4 841.9 Q 813.0 843.7, 813.0 847.1 Q 813.0 850.6, 814.4 852.4 Q 815.9 854.2, 818.7 854.2 Q 820.7 854.2, 823.0 853.0 L 823.7 854.9 Q 822.7 855.5, 821.3 855.8 Q 819.9 856.2, 818.4 856.2 Q 814.5 856.2, 812.5 853.8 Q 810.4 851.5, 810.4 847.1 " fill="#000000"/>
<path class="atom-7" d="M 835.4 846.6 Q 837.0 847.3, 837.9 848.3 Q 838.9 849.3, 838.9 851.1 Q 838.9 852.6, 838.1 853.8 Q 837.3 854.9, 835.9 855.6 Q 834.5 856.2, 832.7 856.2 Q 829.8 856.2, 828.1 854.8 Q 826.4 853.5, 826.4 851.1 Q 826.4 849.6, 827.1 848.6 Q 827.9 847.5, 829.4 846.6 Q 828.3 846.0, 827.6 845.0 Q 827.0 844.1, 827.0 842.6 Q 827.0 840.5, 828.5 839.3 Q 830.0 838.0, 832.6 838.0 Q 835.2 838.0, 836.7 839.3 Q 838.2 840.5, 838.2 842.6 Q 838.2 843.9, 837.5 844.8 Q 836.8 845.8, 835.4 846.6 M 832.6 839.9 Q 831.1 839.9, 830.3 840.6 Q 829.5 841.3, 829.5 842.6 Q 829.5 843.5, 830.1 844.1 Q 830.6 844.7, 831.4 845.1 Q 832.2 845.4, 833.7 845.9 Q 834.8 845.2, 835.2 844.4 Q 835.7 843.6, 835.7 842.6 Q 835.7 841.3, 834.9 840.6 Q 834.1 839.9, 832.6 839.9 M 832.7 854.3 Q 834.4 854.3, 835.4 853.4 Q 836.4 852.5, 836.4 851.1 Q 836.4 850.1, 835.8 849.5 Q 835.3 848.9, 834.5 848.6 Q 833.7 848.2, 832.3 847.8 L 831.2 847.4 Q 830.0 848.1, 829.4 849.0 Q 828.9 849.9, 828.9 851.1 Q 828.9 852.5, 829.9 853.4 Q 831.0 854.3, 832.7 854.3 " fill="#000000"/>
<path class="atom-8" d="M 844.2 788.4 Q 844.2 784.0, 846.3 781.7 Q 848.3 779.4, 852.3 779.4 Q 855.9 779.4, 857.9 782.0 L 856.2 783.3 Q 854.8 781.4, 852.3 781.4 Q 849.6 781.4, 848.2 783.2 Q 846.8 785.0, 846.8 788.4 Q 846.8 791.9, 848.2 793.7 Q 849.7 795.5, 852.5 795.5 Q 854.5 795.5, 856.8 794.3 L 857.5 796.2 Q 856.5 796.8, 855.1 797.2 Q 853.7 797.5, 852.2 797.5 Q 848.3 797.5, 846.3 795.2 Q 844.2 792.8, 844.2 788.4 " fill="#000000"/>
<path class="atom-8" d="M 866.1 779.4 Q 869.2 779.4, 870.8 781.5 Q 872.4 783.7, 872.4 787.9 Q 872.4 792.6, 870.4 795.1 Q 868.5 797.5, 864.7 797.5 Q 863.6 797.5, 862.7 797.2 Q 861.7 797.0, 860.8 796.5 L 861.8 794.8 Q 863.1 795.5, 864.7 795.5 Q 867.2 795.5, 868.5 793.9 Q 869.7 792.3, 869.9 788.9 Q 869.0 789.8, 867.8 790.2 Q 866.7 790.6, 865.5 790.6 Q 863.9 790.6, 862.7 790.0 Q 861.5 789.3, 860.8 788.1 Q 860.1 786.8, 860.1 785.3 Q 860.1 783.6, 860.9 782.2 Q 861.7 780.9, 863.0 780.1 Q 864.4 779.4, 866.1 779.4 M 862.6 785.3 Q 862.6 786.8, 863.5 787.7 Q 864.4 788.6, 865.9 788.6 Q 867.0 788.6, 868.1 788.2 Q 869.1 787.8, 869.9 787.0 Q 869.8 784.1, 868.9 782.8 Q 867.9 781.4, 866.1 781.4 Q 865.1 781.4, 864.3 781.9 Q 863.5 782.4, 863.1 783.3 Q 862.6 784.2, 862.6 785.3 " fill="#000000"/>
<path class="atom-9" d="M 810.3 729.8 Q 810.3 725.4, 812.4 723.1 Q 814.4 720.8, 818.4 720.8 Q 822.0 720.8, 824.0 723.4 L 822.3 724.7 Q 820.9 722.8, 818.4 722.8 Q 815.7 722.8, 814.3 724.6 Q 812.9 726.4, 812.9 729.8 Q 812.9 733.3, 814.3 735.1 Q 815.8 736.9, 818.6 736.9 Q 820.6 736.9, 822.9 735.7 L 823.6 737.6 Q 822.6 738.2, 821.2 738.6 Q 819.8 738.9, 818.3 738.9 Q 814.4 738.9, 812.4 736.6 Q 810.3 734.2, 810.3 729.8 " fill="#000000"/>
<path class="atom-9" d="M 827.2 736.7 L 831.1 736.7 L 831.1 723.5 L 826.8 724.8 L 826.2 723.3 L 831.6 720.9 L 833.4 721.2 L 833.4 736.7 L 836.9 736.7 L 836.9 738.7 L 827.2 738.7 L 827.2 736.7 " fill="#000000"/>
<path class="atom-9" d="M 845.7 738.9 Q 842.4 738.9, 840.8 736.5 Q 839.2 734.1, 839.2 729.8 Q 839.2 725.5, 840.8 723.2 Q 842.4 720.8, 845.7 720.8 Q 848.9 720.8, 850.5 723.2 Q 852.1 725.5, 852.1 729.8 Q 852.1 734.1, 850.5 736.5 Q 848.9 738.9, 845.7 738.9 M 845.7 736.9 Q 847.6 736.9, 848.6 735.1 Q 849.6 733.3, 849.6 729.8 Q 849.6 726.3, 848.6 724.6 Q 847.6 722.8, 845.7 722.8 Q 843.8 722.8, 842.7 724.6 Q 841.7 726.3, 841.7 729.8 Q 841.7 733.3, 842.7 735.1 Q 843.8 736.9, 845.7 736.9 " fill="#000000"/>
<path class="atom-10" d="M 813.1 671.2 Q 813.1 666.8, 815.2 664.5 Q 817.2 662.2, 821.2 662.2 Q 824.8 662.2, 826.8 664.7 L 825.1 666.1 Q 823.7 664.2, 821.2 664.2 Q 818.5 664.2, 817.1 666.0 Q 815.7 667.8, 815.7 671.2 Q 815.7 674.7, 817.1 676.5 Q 818.6 678.3, 821.4 678.3 Q 823.4 678.3, 825.7 677.1 L 826.4 679.0 Q 825.4 679.6, 824.0 679.9 Q 822.6 680.3, 821.1 680.3 Q 817.2 680.3, 815.2 677.9 Q 813.1 675.6, 813.1 671.2 " fill="#000000"/>
<path class="atom-10" d="M 829.9 678.1 L 833.8 678.1 L 833.8 664.8 L 829.5 666.2 L 828.9 664.7 L 834.4 662.3 L 836.1 662.6 L 836.1 678.1 L 839.6 678.1 L 839.6 680.1 L 829.9 680.1 L 829.9 678.1 " fill="#000000"/>
<path class="atom-10" d="M 842.8 678.1 L 846.7 678.1 L 846.7 664.8 L 842.4 666.2 L 841.8 664.7 L 847.2 662.3 L 849.0 662.6 L 849.0 678.1 L 852.5 678.1 L 852.5 680.1 L 842.8 680.1 L 842.8 678.1 " fill="#000000"/>
<path class="atom-11" d="M 884.6 637.3 Q 884.6 632.9, 886.6 630.6 Q 888.7 628.3, 892.6 628.3 Q 896.3 628.3, 898.2 630.9 L 896.6 632.2 Q 895.1 630.3, 892.6 630.3 Q 889.9 630.3, 888.5 632.1 Q 887.1 633.9, 887.1 637.3 Q 887.1 640.8, 888.6 642.6 Q 890.0 644.4, 892.9 644.4 Q 894.8 644.4, 897.1 643.2 L 897.8 645.1 Q 896.9 645.7, 895.5 646.1 Q 894.1 646.4, 892.5 646.4 Q 888.7 646.4, 886.6 644.1 Q 884.6 641.7, 884.6 637.3 " fill="#000000"/>
<path class="atom-11" d="M 901.4 644.2 L 905.3 644.2 L 905.3 631.0 L 901.0 632.3 L 900.4 630.8 L 905.9 628.4 L 907.6 628.7 L 907.6 644.2 L 911.1 644.2 L 911.1 646.2 L 901.4 646.2 L 901.4 644.2 " fill="#000000"/>
<path class="atom-11" d="M 913.4 631.8 Q 914.1 630.2, 915.6 629.2 Q 917.2 628.3, 919.3 628.3 Q 922.0 628.3, 923.5 629.7 Q 925.0 631.2, 925.0 633.8 Q 925.0 636.4, 923.0 638.8 Q 921.1 641.3, 917.1 644.2 L 925.3 644.2 L 925.3 646.2 L 913.4 646.2 L 913.4 644.5 Q 916.7 642.2, 918.6 640.4 Q 920.6 638.7, 921.5 637.1 Q 922.5 635.5, 922.5 633.9 Q 922.5 632.2, 921.6 631.2 Q 920.8 630.3, 919.3 630.3 Q 917.9 630.3, 916.9 630.9 Q 916.0 631.4, 915.3 632.7 L 913.4 631.8 " fill="#000000"/>
<path class="atom-12" d="M 884.5 569.6 Q 884.5 565.2, 886.6 562.9 Q 888.6 560.6, 892.6 560.6 Q 896.2 560.6, 898.2 563.2 L 896.5 564.5 Q 895.1 562.6, 892.6 562.6 Q 889.9 562.6, 888.5 564.4 Q 887.1 566.2, 887.1 569.6 Q 887.1 573.1, 888.5 574.9 Q 890.0 576.7, 892.8 576.7 Q 894.8 576.7, 897.1 575.5 L 897.8 577.4 Q 896.8 578.0, 895.4 578.4 Q 894.0 578.7, 892.5 578.7 Q 888.6 578.7, 886.6 576.4 Q 884.5 574.0, 884.5 569.6 " fill="#000000"/>
<path class="atom-12" d="M 901.3 576.5 L 905.2 576.5 L 905.2 563.3 L 900.9 564.6 L 900.4 563.1 L 905.8 560.7 L 907.6 561.0 L 907.6 576.5 L 911.0 576.5 L 911.0 578.5 L 901.3 578.5 L 901.3 576.5 " fill="#000000"/>
<path class="atom-12" d="M 921.8 569.2 Q 923.5 569.7, 924.4 570.8 Q 925.2 571.9, 925.2 573.6 Q 925.2 575.1, 924.5 576.3 Q 923.7 577.5, 922.3 578.1 Q 921.0 578.7, 919.2 578.7 Q 917.3 578.7, 915.8 578.1 Q 914.4 577.4, 913.3 576.1 L 914.7 574.6 Q 915.8 575.8, 916.8 576.3 Q 917.7 576.7, 919.2 576.7 Q 920.8 576.7, 921.7 575.9 Q 922.7 575.0, 922.7 573.6 Q 922.7 571.8, 921.7 571.0 Q 920.7 570.2, 918.5 570.2 L 917.2 570.2 L 917.2 568.4 L 918.4 568.4 Q 920.3 568.4, 921.3 567.5 Q 922.3 566.7, 922.3 565.1 Q 922.3 564.0, 921.5 563.3 Q 920.6 562.6, 919.2 562.6 Q 917.7 562.6, 916.8 563.1 Q 915.9 563.6, 915.2 565.0 L 913.5 564.0 Q 914.1 562.6, 915.6 561.6 Q 917.1 560.6, 919.2 560.6 Q 921.8 560.6, 923.3 561.8 Q 924.8 563.0, 924.8 565.1 Q 924.8 566.5, 924.1 567.6 Q 923.3 568.6, 921.8 569.2 " fill="#000000"/>
<path class="atom-13" d="M 811.4 535.8 Q 811.4 531.4, 813.5 529.1 Q 815.6 526.8, 819.5 526.8 Q 823.1 526.8, 825.1 529.4 L 823.4 530.7 Q 822.0 528.8, 819.5 528.8 Q 816.8 528.8, 815.4 530.6 Q 814.0 532.4, 814.0 535.8 Q 814.0 539.3, 815.4 541.1 Q 816.9 542.9, 819.8 542.9 Q 821.7 542.9, 824.0 541.7 L 824.7 543.6 Q 823.8 544.2, 822.4 544.6 Q 821.0 544.9, 819.4 544.9 Q 815.6 544.9, 813.5 542.6 Q 811.4 540.2, 811.4 535.8 " fill="#000000"/>
<path class="atom-13" d="M 828.3 542.7 L 832.2 542.7 L 832.2 529.5 L 827.9 530.8 L 827.3 529.3 L 832.8 526.9 L 834.5 527.2 L 834.5 542.7 L 838.0 542.7 L 838.0 544.7 L 828.3 544.7 L 828.3 542.7 " fill="#000000"/>
<path class="atom-13" d="M 851.8 538.6 L 854.0 538.6 L 854.0 540.6 L 851.8 540.6 L 851.8 544.7 L 849.5 544.7 L 849.5 540.6 L 840.3 540.6 L 840.3 539.0 L 848.1 527.0 L 851.8 527.0 L 851.8 538.6 M 843.2 538.6 L 849.5 538.6 L 849.5 528.6 L 843.2 538.6 " fill="#000000"/>
<path class="atom-14" d="M 739.3 569.7 Q 739.3 565.3, 741.4 563.0 Q 743.4 560.7, 747.4 560.7 Q 751.0 560.7, 753.0 563.2 L 751.3 564.6 Q 749.9 562.7, 747.4 562.7 Q 744.7 562.7, 743.3 564.5 Q 741.9 566.3, 741.9 569.7 Q 741.9 573.2, 743.3 575.0 Q 744.8 576.8, 747.6 576.8 Q 749.6 576.8, 751.9 575.6 L 752.6 577.5 Q 751.6 578.1, 750.2 578.4 Q 748.8 578.8, 747.3 578.8 Q 743.4 578.8, 741.4 576.4 Q 739.3 574.1, 739.3 569.7 " fill="#000000"/>
<path class="atom-14" d="M 756.1 576.6 L 760.0 576.6 L 760.0 563.3 L 755.7 564.7 L 755.2 563.2 L 760.6 560.8 L 762.4 561.1 L 762.4 576.6 L 765.8 576.6 L 765.8 578.6 L 756.1 578.6 L 756.1 576.6 " fill="#000000"/>
<path class="atom-14" d="M 774.5 567.5 Q 776.1 567.5, 777.4 568.2 Q 778.6 568.8, 779.4 570.1 Q 780.1 571.3, 780.1 573.0 Q 780.1 574.8, 779.2 576.1 Q 778.3 577.4, 776.9 578.1 Q 775.4 578.8, 773.8 578.8 Q 772.1 578.8, 770.6 578.2 Q 769.1 577.6, 768.1 576.4 L 769.6 574.9 Q 770.4 575.8, 771.6 576.3 Q 772.7 576.7, 773.8 576.7 Q 775.4 576.7, 776.5 575.8 Q 777.6 574.8, 777.6 573.0 Q 777.6 571.1, 776.5 570.3 Q 775.4 569.4, 773.7 569.4 Q 772.1 569.4, 770.4 570.0 L 769.0 569.4 L 769.9 560.9 L 779.0 560.9 L 778.7 562.9 L 771.9 562.9 L 771.4 568.1 Q 773.0 567.5, 774.5 567.5 " fill="#000000"/>
<path class="atom-15" d="M 650.0 569.8 Q 650.0 565.4, 652.1 563.1 Q 654.2 560.8, 658.1 560.8 Q 661.7 560.8, 663.7 563.3 L 662.0 564.7 Q 660.6 562.8, 658.1 562.8 Q 655.4 562.8, 654.0 564.6 Q 652.6 566.4, 652.6 569.8 Q 652.6 573.3, 654.0 575.1 Q 655.5 576.9, 658.4 576.9 Q 660.3 576.9, 662.6 575.7 L 663.3 577.6 Q 662.4 578.2, 661.0 578.5 Q 659.6 578.9, 658.0 578.9 Q 654.2 578.9, 652.1 576.5 Q 650.0 574.2, 650.0 569.8 " fill="#000000"/>
<path class="atom-15" d="M 666.9 576.7 L 670.8 576.7 L 670.8 563.4 L 666.5 564.8 L 665.9 563.3 L 671.3 560.9 L 673.1 561.2 L 673.1 576.7 L 676.6 576.7 L 676.6 578.7 L 666.9 578.7 L 666.9 576.7 " fill="#000000"/>
<path class="atom-15" d="M 685.8 567.6 Q 687.3 567.6, 688.6 568.3 Q 689.8 569.0, 690.5 570.2 Q 691.1 571.4, 691.1 573.0 Q 691.1 574.7, 690.4 576.0 Q 689.6 577.4, 688.3 578.1 Q 686.9 578.9, 685.2 578.9 Q 682.0 578.9, 680.4 576.7 Q 678.9 574.6, 678.9 570.3 Q 678.9 565.6, 680.8 563.2 Q 682.8 560.8, 686.6 560.8 Q 687.7 560.8, 688.6 561.0 Q 689.5 561.3, 690.4 561.8 L 689.5 563.5 Q 688.2 562.8, 686.6 562.8 Q 684.1 562.8, 682.8 564.4 Q 681.5 566.0, 681.4 569.3 Q 682.3 568.5, 683.4 568.1 Q 684.6 567.6, 685.8 567.6 M 685.2 576.8 Q 686.2 576.8, 686.9 576.3 Q 687.7 575.8, 688.2 574.9 Q 688.6 574.1, 688.6 573.0 Q 688.6 571.4, 687.8 570.5 Q 686.9 569.6, 685.3 569.6 Q 684.3 569.6, 683.2 570.1 Q 682.1 570.5, 681.4 571.2 Q 681.5 574.2, 682.4 575.5 Q 683.3 576.8, 685.2 576.8 " fill="#000000"/>
<path class="atom-16" d="M 578.1 671.4 Q 578.1 667.0, 580.1 664.7 Q 582.2 662.3, 586.1 662.3 Q 589.8 662.3, 591.7 664.9 L 590.1 666.3 Q 588.6 664.4, 586.1 664.4 Q 583.4 664.4, 582.0 666.2 Q 580.6 668.0, 580.6 671.4 Q 580.6 674.9, 582.1 676.7 Q 583.5 678.5, 586.4 678.5 Q 588.3 678.5, 590.6 677.3 L 591.3 679.2 Q 590.4 679.8, 589.0 680.1 Q 587.6 680.5, 586.0 680.5 Q 582.2 680.5, 580.1 678.1 Q 578.1 675.8, 578.1 671.4 " fill="#000000"/>
<path class="atom-16" d="M 594.9 678.2 L 598.8 678.2 L 598.8 665.0 L 594.5 666.3 L 593.9 664.9 L 599.3 662.4 L 601.1 662.7 L 601.1 678.2 L 604.6 678.2 L 604.6 680.2 L 594.9 680.2 L 594.9 678.2 " fill="#000000"/>
<path class="atom-16" d="M 616.1 664.5 L 606.8 664.5 L 606.8 662.5 L 618.6 662.5 L 618.6 664.3 L 611.4 680.2 L 609.0 680.2 L 616.1 664.5 " fill="#000000"/>
<path class="atom-17" d="M 504.6 637.6 Q 504.6 633.2, 506.6 630.9 Q 508.7 628.6, 512.6 628.6 Q 516.3 628.6, 518.2 631.1 L 516.6 632.5 Q 515.2 630.6, 512.6 630.6 Q 510.0 630.6, 508.5 632.4 Q 507.1 634.2, 507.1 637.6 Q 507.1 641.1, 508.6 642.9 Q 510.1 644.7, 512.9 644.7 Q 514.9 644.7, 517.1 643.5 L 517.8 645.4 Q 516.9 646.0, 515.5 646.3 Q 514.1 646.7, 512.6 646.7 Q 508.7 646.7, 506.6 644.3 Q 504.6 642.0, 504.6 637.6 " fill="#000000"/>
<path class="atom-17" d="M 521.4 644.5 L 525.3 644.5 L 525.3 631.2 L 521.0 632.6 L 520.5 631.1 L 525.9 628.7 L 527.7 629.0 L 527.7 644.5 L 531.1 644.5 L 531.1 646.5 L 521.4 646.5 L 521.4 644.5 " fill="#000000"/>
<path class="atom-17" d="M 542.5 637.1 Q 544.1 637.8, 545.0 638.8 Q 545.9 639.9, 545.9 641.6 Q 545.9 643.1, 545.2 644.3 Q 544.4 645.4, 543.0 646.1 Q 541.6 646.7, 539.8 646.7 Q 536.8 646.7, 535.1 645.4 Q 533.4 644.0, 533.4 641.6 Q 533.4 640.2, 534.2 639.1 Q 534.9 638.0, 536.5 637.2 Q 535.3 636.5, 534.7 635.6 Q 534.1 634.6, 534.1 633.1 Q 534.1 631.0, 535.6 629.8 Q 537.1 628.6, 539.7 628.6 Q 542.3 628.6, 543.8 629.8 Q 545.3 631.0, 545.3 633.1 Q 545.3 634.4, 544.6 635.4 Q 543.9 636.3, 542.5 637.1 M 539.7 630.4 Q 538.2 630.4, 537.4 631.1 Q 536.6 631.8, 536.6 633.1 Q 536.6 634.0, 537.1 634.6 Q 537.7 635.2, 538.5 635.6 Q 539.3 635.9, 540.8 636.5 Q 541.9 635.7, 542.3 634.9 Q 542.8 634.1, 542.8 633.1 Q 542.8 631.8, 542.0 631.1 Q 541.2 630.4, 539.7 630.4 M 539.8 644.8 Q 541.4 644.8, 542.4 644.0 Q 543.4 643.1, 543.4 641.6 Q 543.4 640.6, 542.9 640.0 Q 542.4 639.4, 541.6 639.1 Q 540.8 638.7, 539.4 638.3 L 538.3 637.9 Q 537.0 638.7, 536.5 639.6 Q 535.9 640.4, 535.9 641.6 Q 535.9 643.1, 537.0 644.0 Q 538.0 644.8, 539.8 644.8 " fill="#000000"/>
<path class="atom-18" d="M 577.7 536.0 Q 577.7 531.6, 579.7 529.3 Q 581.8 527.0, 585.7 527.0 Q 589.4 527.0, 591.3 529.6 L 589.7 530.9 Q 588.3 529.0, 585.7 529.0 Q 583.1 529.0, 581.6 530.8 Q 580.2 532.6, 580.2 536.0 Q 580.2 539.5, 581.7 541.3 Q 583.2 543.1, 586.0 543.1 Q 588.0 543.1, 590.2 541.9 L 590.9 543.8 Q 590.0 544.4, 588.6 544.8 Q 587.2 545.1, 585.7 545.1 Q 581.8 545.1, 579.7 542.8 Q 577.7 540.4, 577.7 536.0 " fill="#000000"/>
<path class="atom-18" d="M 594.5 542.9 L 598.4 542.9 L 598.4 529.7 L 594.1 531.0 L 593.6 529.5 L 599.0 527.1 L 600.8 527.4 L 600.8 542.9 L 604.2 542.9 L 604.2 544.9 L 594.5 544.9 L 594.5 542.9 " fill="#000000"/>
<path class="atom-18" d="M 612.4 527.0 Q 615.6 527.0, 617.2 529.1 Q 618.8 531.3, 618.8 535.5 Q 618.8 540.2, 616.8 542.7 Q 614.8 545.1, 611.1 545.1 Q 610.0 545.1, 609.0 544.8 Q 608.1 544.6, 607.2 544.1 L 608.2 542.4 Q 609.5 543.1, 611.0 543.1 Q 613.5 543.1, 614.8 541.5 Q 616.1 539.9, 616.2 536.5 Q 615.3 537.4, 614.2 537.8 Q 613.1 538.2, 611.8 538.2 Q 610.3 538.2, 609.1 537.6 Q 607.8 536.9, 607.2 535.7 Q 606.5 534.4, 606.5 532.9 Q 606.5 531.2, 607.2 529.8 Q 608.0 528.5, 609.4 527.7 Q 610.7 527.0, 612.4 527.0 M 609.0 532.9 Q 609.0 534.4, 609.9 535.3 Q 610.7 536.2, 612.3 536.2 Q 613.4 536.2, 614.4 535.8 Q 615.5 535.4, 616.2 534.6 Q 616.1 531.7, 615.2 530.4 Q 614.3 529.0, 612.4 529.0 Q 611.5 529.0, 610.7 529.5 Q 609.9 530.0, 609.4 530.9 Q 609.0 531.8, 609.0 532.9 " fill="#000000"/>
<path class="atom-19" d="M 504.5 561.1 L 510.3 570.4 Q 510.8 571.4, 511.8 573.0 Q 512.7 574.7, 512.7 574.8 L 512.7 561.1 L 515.1 561.1 L 515.1 578.8 L 512.7 578.8 L 506.4 568.5 Q 505.7 567.3, 504.9 565.9 Q 504.2 564.6, 504.0 564.1 L 504.0 578.8 L 501.7 578.8 L 501.7 561.1 L 504.5 561.1 " fill="#0000FF"/>
<path class="atom-19" d="M 518.5 564.4 Q 519.1 562.7, 520.7 561.8 Q 522.2 560.9, 524.4 560.9 Q 527.1 560.9, 528.6 562.3 Q 530.1 563.8, 530.1 566.3 Q 530.1 569.0, 528.1 571.4 Q 526.2 573.9, 522.2 576.8 L 530.4 576.8 L 530.4 578.8 L 518.4 578.8 L 518.4 577.1 Q 521.7 574.7, 523.7 573.0 Q 525.7 571.2, 526.6 569.7 Q 527.6 568.1, 527.6 566.5 Q 527.6 564.8, 526.7 563.8 Q 525.9 562.9, 524.4 562.9 Q 523.0 562.9, 522.0 563.4 Q 521.1 564.0, 520.4 565.3 L 518.5 564.4 " fill="#0000FF"/>
<path class="atom-19" d="M 539.6 579.0 Q 536.4 579.0, 534.7 576.6 Q 533.1 574.2, 533.1 569.9 Q 533.1 565.6, 534.7 563.2 Q 536.3 560.9, 539.6 560.9 Q 542.9 560.9, 544.5 563.2 Q 546.1 565.6, 546.1 569.9 Q 546.1 574.2, 544.5 576.6 Q 542.9 579.0, 539.6 579.0 M 539.6 577.0 Q 541.5 577.0, 542.6 575.2 Q 543.6 573.4, 543.6 569.9 Q 543.6 566.4, 542.6 564.6 Q 541.5 562.9, 539.6 562.9 Q 537.7 562.9, 536.7 564.6 Q 535.6 566.4, 535.6 569.9 Q 535.6 573.4, 536.7 575.2 Q 537.7 577.0, 539.6 577.0 " fill="#0000FF"/>
<path class="atom-20" d="M 445.2 536.1 Q 445.2 531.7, 447.2 529.4 Q 449.3 527.1, 453.2 527.1 Q 456.9 527.1, 458.8 529.6 L 457.2 531.0 Q 455.7 529.1, 453.2 529.1 Q 450.5 529.1, 449.1 530.9 Q 447.7 532.7, 447.7 536.1 Q 447.7 539.6, 449.2 541.4 Q 450.6 543.2, 453.5 543.2 Q 455.4 543.2, 457.7 542.0 L 458.4 543.9 Q 457.5 544.5, 456.1 544.8 Q 454.7 545.2, 453.1 545.2 Q 449.3 545.2, 447.2 542.8 Q 445.2 540.5, 445.2 536.1 " fill="#000000"/>
<path class="atom-20" d="M 461.1 530.6 Q 461.7 528.9, 463.3 528.0 Q 464.8 527.1, 467.0 527.1 Q 469.6 527.1, 471.1 528.5 Q 472.6 530.0, 472.6 532.5 Q 472.6 535.2, 470.7 537.6 Q 468.8 540.1, 464.8 543.0 L 472.9 543.0 L 472.9 545.0 L 461.0 545.0 L 461.0 543.3 Q 464.3 540.9, 466.3 539.2 Q 468.2 537.4, 469.2 535.9 Q 470.1 534.3, 470.1 532.7 Q 470.1 531.0, 469.3 530.0 Q 468.4 529.1, 467.0 529.1 Q 465.5 529.1, 464.6 529.6 Q 463.6 530.2, 463.0 531.5 L 461.1 530.6 " fill="#000000"/>
<path class="atom-20" d="M 476.6 543.0 L 480.5 543.0 L 480.5 529.7 L 476.2 531.1 L 475.7 529.6 L 481.1 527.2 L 482.9 527.5 L 482.9 543.0 L 486.3 543.0 L 486.3 545.0 L 476.6 545.0 L 476.6 543.0 " fill="#000000"/>
<path class="atom-21" d="M 474.1 468.4 Q 474.1 464.0, 476.2 461.7 Q 478.2 459.4, 482.2 459.4 Q 485.8 459.4, 487.8 462.0 L 486.1 463.3 Q 484.7 461.4, 482.2 461.4 Q 479.5 461.4, 478.1 463.2 Q 476.7 465.0, 476.7 468.4 Q 476.7 471.9, 478.1 473.7 Q 479.6 475.5, 482.4 475.5 Q 484.4 475.5, 486.7 474.3 L 487.4 476.2 Q 486.4 476.8, 485.0 477.2 Q 483.6 477.5, 482.1 477.5 Q 478.2 477.5, 476.2 475.2 Q 474.1 472.8, 474.1 468.4 " fill="#000000"/>
<path class="atom-21" d="M 490.1 462.9 Q 490.7 461.3, 492.3 460.3 Q 493.8 459.4, 496.0 459.4 Q 498.6 459.4, 500.1 460.8 Q 501.6 462.3, 501.6 464.9 Q 501.6 467.5, 499.7 469.9 Q 497.8 472.4, 493.8 475.3 L 501.9 475.3 L 501.9 477.3 L 490.0 477.3 L 490.0 475.6 Q 493.3 473.3, 495.3 471.5 Q 497.2 469.8, 498.2 468.2 Q 499.1 466.6, 499.1 465.0 Q 499.1 463.3, 498.3 462.3 Q 497.4 461.4, 496.0 461.4 Q 494.5 461.4, 493.6 462.0 Q 492.6 462.5, 492.0 463.8 L 490.1 462.9 " fill="#000000"/>
<path class="atom-21" d="M 504.7 462.9 Q 505.4 461.3, 506.9 460.3 Q 508.5 459.4, 510.6 459.4 Q 513.3 459.4, 514.8 460.8 Q 516.3 462.3, 516.3 464.9 Q 516.3 467.5, 514.4 469.9 Q 512.4 472.4, 508.4 475.3 L 516.6 475.3 L 516.6 477.3 L 504.7 477.3 L 504.7 475.6 Q 508.0 473.3, 509.9 471.5 Q 511.9 469.8, 512.9 468.2 Q 513.8 466.6, 513.8 465.0 Q 513.8 463.3, 513.0 462.3 Q 512.1 461.4, 510.6 461.4 Q 509.2 461.4, 508.3 462.0 Q 507.3 462.5, 506.6 463.8 L 504.7 462.9 " fill="#000000"/>
<path class="atom-22" d="M 385.8 434.6 Q 385.8 430.2, 387.8 427.9 Q 389.9 425.6, 393.8 425.6 Q 397.5 425.6, 399.4 428.2 L 397.8 429.5 Q 396.3 427.6, 393.8 427.6 Q 391.1 427.6, 389.7 429.4 Q 388.3 431.2, 388.3 434.6 Q 388.3 438.1, 389.8 439.9 Q 391.2 441.7, 394.1 441.7 Q 396.0 441.7, 398.3 440.5 L 399.0 442.4 Q 398.1 443.0, 396.7 443.4 Q 395.3 443.7, 393.7 443.7 Q 389.9 443.7, 387.8 441.4 Q 385.8 439.0, 385.8 434.6 " fill="#000000"/>
<path class="atom-22" d="M 401.7 429.1 Q 402.4 427.5, 403.9 426.5 Q 405.5 425.6, 407.6 425.6 Q 410.3 425.6, 411.8 427.0 Q 413.3 428.5, 413.3 431.1 Q 413.3 433.7, 411.3 436.1 Q 409.4 438.6, 405.4 441.5 L 413.6 441.5 L 413.6 443.5 L 401.7 443.5 L 401.7 441.8 Q 405.0 439.5, 406.9 437.7 Q 408.9 436.0, 409.8 434.4 Q 410.8 432.8, 410.8 431.2 Q 410.8 429.5, 409.9 428.5 Q 409.1 427.6, 407.6 427.6 Q 406.2 427.6, 405.2 428.2 Q 404.3 428.7, 403.6 430.0 L 401.7 429.1 " fill="#000000"/>
<path class="atom-22" d="M 424.8 434.2 Q 426.6 434.7, 427.4 435.8 Q 428.2 436.9, 428.2 438.6 Q 428.2 440.1, 427.5 441.3 Q 426.7 442.5, 425.4 443.1 Q 424.0 443.7, 422.2 443.7 Q 420.3 443.7, 418.9 443.1 Q 417.5 442.4, 416.3 441.1 L 417.8 439.6 Q 418.9 440.8, 419.8 441.3 Q 420.7 441.7, 422.2 441.7 Q 423.8 441.7, 424.8 440.9 Q 425.7 440.0, 425.7 438.6 Q 425.7 436.8, 424.7 436.0 Q 423.7 435.2, 421.5 435.2 L 420.3 435.2 L 420.3 433.4 L 421.4 433.4 Q 423.3 433.4, 424.3 432.5 Q 425.4 431.7, 425.4 430.1 Q 425.4 429.0, 424.5 428.3 Q 423.7 427.6, 422.2 427.6 Q 420.7 427.6, 419.8 428.1 Q 418.9 428.6, 418.2 430.0 L 416.5 429.0 Q 417.1 427.6, 418.6 426.6 Q 420.1 425.6, 422.2 425.6 Q 424.8 425.6, 426.3 426.8 Q 427.9 428.0, 427.9 430.1 Q 427.9 431.5, 427.1 432.6 Q 426.3 433.6, 424.8 434.2 " fill="#000000"/>
<path class="atom-23" d="M 400.1 366.9 Q 400.1 362.5, 402.1 360.2 Q 404.2 357.9, 408.1 357.9 Q 411.8 357.9, 413.7 360.5 L 412.1 361.8 Q 410.7 359.9, 408.1 359.9 Q 405.5 359.9, 404.0 361.7 Q 402.6 363.5, 402.6 366.9 Q 402.6 370.4, 404.1 372.2 Q 405.6 374.0, 408.4 374.0 Q 410.4 374.0, 412.6 372.8 L 413.3 374.7 Q 412.4 375.3, 411.0 375.7 Q 409.6 376.0, 408.1 376.0 Q 404.2 376.0, 402.1 373.7 Q 400.1 371.3, 400.1 366.9 " fill="#000000"/>
<path class="atom-23" d="M 416.1 361.4 Q 416.7 359.8, 418.3 358.8 Q 419.8 357.9, 422.0 357.9 Q 424.7 357.9, 426.2 359.3 Q 427.7 360.8, 427.7 363.4 Q 427.7 366.0, 425.7 368.4 Q 423.8 370.9, 419.8 373.8 L 428.0 373.8 L 428.0 375.8 L 416.0 375.8 L 416.0 374.1 Q 419.3 371.8, 421.3 370.0 Q 423.3 368.3, 424.2 366.7 Q 425.2 365.1, 425.2 363.5 Q 425.2 361.8, 424.3 360.8 Q 423.5 359.9, 422.0 359.9 Q 420.6 359.9, 419.6 360.5 Q 418.7 361.0, 418.0 362.3 L 416.1 361.4 " fill="#000000"/>
<path class="atom-23" d="M 442.3 369.7 L 444.4 369.7 L 444.4 371.7 L 442.3 371.7 L 442.3 375.8 L 439.9 375.8 L 439.9 371.7 L 430.8 371.7 L 430.8 370.1 L 438.5 358.1 L 442.3 358.1 L 442.3 369.7 M 433.7 369.7 L 439.9 369.7 L 439.9 359.7 L 433.7 369.7 " fill="#000000"/>
<path class="atom-24" d="M 342.3 333.1 Q 342.3 328.7, 344.4 326.4 Q 346.4 324.1, 350.4 324.1 Q 354.0 324.1, 356.0 326.7 L 354.3 328.0 Q 352.9 326.2, 350.4 326.2 Q 347.7 326.2, 346.3 328.0 Q 344.9 329.7, 344.9 333.1 Q 344.9 336.6, 346.3 338.4 Q 347.8 340.2, 350.6 340.2 Q 352.6 340.2, 354.9 339.1 L 355.6 340.9 Q 354.6 341.5, 353.2 341.9 Q 351.8 342.2, 350.3 342.2 Q 346.4 342.2, 344.4 339.9 Q 342.3 337.5, 342.3 333.1 " fill="#000000"/>
<path class="atom-24" d="M 358.3 327.7 Q 358.9 326.0, 360.5 325.1 Q 362.0 324.1, 364.2 324.1 Q 366.8 324.1, 368.3 325.6 Q 369.8 327.0, 369.8 329.6 Q 369.8 332.2, 367.9 334.7 Q 366.0 337.1, 362.0 340.0 L 370.1 340.0 L 370.1 342.0 L 358.2 342.0 L 358.2 340.3 Q 361.5 338.0, 363.5 336.2 Q 365.4 334.5, 366.4 332.9 Q 367.3 331.3, 367.3 329.7 Q 367.3 328.0, 366.5 327.1 Q 365.6 326.1, 364.2 326.1 Q 362.7 326.1, 361.8 326.7 Q 360.8 327.3, 360.2 328.5 L 358.3 327.7 " fill="#000000"/>
<path class="atom-24" d="M 379.3 330.9 Q 380.9 330.9, 382.1 331.6 Q 383.4 332.3, 384.1 333.5 Q 384.9 334.7, 384.9 336.4 Q 384.9 338.2, 384.0 339.6 Q 383.1 340.9, 381.6 341.5 Q 380.2 342.2, 378.5 342.2 Q 376.9 342.2, 375.4 341.6 Q 373.9 341.0, 372.9 339.9 L 374.4 338.3 Q 375.2 339.2, 376.3 339.7 Q 377.5 340.2, 378.6 340.2 Q 380.2 340.2, 381.3 339.2 Q 382.4 338.2, 382.4 336.5 Q 382.4 334.6, 381.3 333.7 Q 380.2 332.8, 378.5 332.8 Q 376.9 332.8, 375.2 333.5 L 373.8 332.8 L 374.7 324.3 L 383.8 324.3 L 383.5 326.3 L 376.7 326.3 L 376.2 331.6 Q 377.8 330.9, 379.3 330.9 " fill="#000000"/>
<path class="atom-25" d="M 356.7 265.4 Q 356.7 261.0, 358.8 258.7 Q 360.8 256.4, 364.8 256.4 Q 368.4 256.4, 370.4 259.0 L 368.7 260.3 Q 367.3 258.5, 364.8 258.5 Q 362.1 258.5, 360.7 260.3 Q 359.3 262.0, 359.3 265.4 Q 359.3 268.9, 360.7 270.7 Q 362.2 272.5, 365.0 272.5 Q 367.0 272.5, 369.3 271.4 L 370.0 273.2 Q 369.0 273.8, 367.6 274.2 Q 366.2 274.5, 364.7 274.5 Q 360.8 274.5, 358.8 272.2 Q 356.7 269.8, 356.7 265.4 " fill="#000000"/>
<path class="atom-25" d="M 372.7 260.0 Q 373.3 258.3, 374.9 257.4 Q 376.4 256.4, 378.6 256.4 Q 381.3 256.4, 382.8 257.9 Q 384.3 259.3, 384.3 261.9 Q 384.3 264.5, 382.3 267.0 Q 380.4 269.4, 376.4 272.3 L 384.6 272.3 L 384.6 274.3 L 372.6 274.3 L 372.6 272.6 Q 375.9 270.3, 377.9 268.5 Q 379.9 266.8, 380.8 265.2 Q 381.8 263.6, 381.8 262.0 Q 381.8 260.3, 380.9 259.4 Q 380.1 258.4, 378.6 258.4 Q 377.2 258.4, 376.2 259.0 Q 375.3 259.6, 374.6 260.8 L 372.7 260.0 " fill="#000000"/>
<path class="atom-25" d="M 394.2 263.3 Q 395.8 263.3, 397.0 263.9 Q 398.2 264.6, 398.9 265.8 Q 399.6 267.1, 399.6 268.6 Q 399.6 270.3, 398.8 271.7 Q 398.1 273.0, 396.7 273.8 Q 395.4 274.5, 393.6 274.5 Q 390.5 274.5, 388.9 272.4 Q 387.3 270.2, 387.3 266.0 Q 387.3 261.3, 389.3 258.9 Q 391.2 256.4, 395.0 256.4 Q 396.1 256.4, 397.0 256.7 Q 398.0 256.9, 398.9 257.4 L 397.9 259.1 Q 396.6 258.4, 395.0 258.4 Q 392.5 258.4, 391.3 260.0 Q 390.0 261.6, 389.8 265.0 Q 390.7 264.1, 391.9 263.7 Q 393.0 263.3, 394.2 263.3 M 393.7 272.5 Q 394.6 272.5, 395.4 272.0 Q 396.2 271.5, 396.6 270.6 Q 397.1 269.7, 397.1 268.6 Q 397.1 267.1, 396.2 266.2 Q 395.3 265.3, 393.8 265.3 Q 392.7 265.3, 391.6 265.7 Q 390.6 266.1, 389.8 266.9 Q 389.9 269.8, 390.9 271.1 Q 391.8 272.5, 393.7 272.5 " fill="#000000"/>
<path class="atom-26" d="M 283.7 231.6 Q 283.7 227.2, 285.8 224.9 Q 287.9 222.6, 291.8 222.6 Q 295.4 222.6, 297.4 225.2 L 295.7 226.5 Q 294.3 224.7, 291.8 224.7 Q 289.1 224.7, 287.7 226.5 Q 286.3 228.2, 286.3 231.6 Q 286.3 235.1, 287.7 236.9 Q 289.2 238.7, 292.1 238.7 Q 294.0 238.7, 296.3 237.6 L 297.0 239.4 Q 296.1 240.0, 294.7 240.4 Q 293.3 240.7, 291.7 240.7 Q 287.9 240.7, 285.8 238.4 Q 283.7 236.0, 283.7 231.6 " fill="#000000"/>
<path class="atom-26" d="M 299.7 226.2 Q 300.3 224.5, 301.9 223.6 Q 303.4 222.6, 305.6 222.6 Q 308.3 222.6, 309.8 224.1 Q 311.3 225.5, 311.3 228.1 Q 311.3 230.7, 309.3 233.2 Q 307.4 235.6, 303.4 238.5 L 311.6 238.5 L 311.6 240.5 L 299.6 240.5 L 299.6 238.8 Q 302.9 236.5, 304.9 234.7 Q 306.9 233.0, 307.8 231.4 Q 308.8 229.8, 308.8 228.2 Q 308.8 226.5, 307.9 225.6 Q 307.1 224.6, 305.6 224.6 Q 304.2 224.6, 303.2 225.2 Q 302.3 225.8, 301.6 227.0 L 299.7 226.2 " fill="#000000"/>
<path class="atom-26" d="M 323.6 224.8 L 314.3 224.8 L 314.3 222.8 L 326.1 222.8 L 326.1 224.6 L 318.9 240.5 L 316.5 240.5 L 323.6 224.8 " fill="#000000"/>
<path class="atom-27" d="M 224.7 265.5 Q 224.7 261.1, 226.8 258.8 Q 228.9 256.5, 232.8 256.5 Q 236.4 256.5, 238.4 259.1 L 236.7 260.4 Q 235.3 258.5, 232.8 258.5 Q 230.1 258.5, 228.7 260.3 Q 227.3 262.1, 227.3 265.5 Q 227.3 269.0, 228.7 270.8 Q 230.2 272.6, 233.1 272.6 Q 235.0 272.6, 237.3 271.4 L 238.0 273.3 Q 237.1 273.9, 235.7 274.3 Q 234.3 274.6, 232.7 274.6 Q 228.9 274.6, 226.8 272.3 Q 224.7 269.9, 224.7 265.5 " fill="#000000"/>
<path class="atom-27" d="M 240.7 260.0 Q 241.4 258.4, 242.9 257.4 Q 244.5 256.5, 246.6 256.5 Q 249.3 256.5, 250.8 257.9 Q 252.3 259.4, 252.3 262.0 Q 252.3 264.6, 250.3 267.0 Q 248.4 269.5, 244.4 272.4 L 252.6 272.4 L 252.6 274.4 L 240.7 274.4 L 240.7 272.7 Q 244.0 270.4, 245.9 268.6 Q 247.9 266.9, 248.8 265.3 Q 249.8 263.7, 249.8 262.1 Q 249.8 260.4, 248.9 259.4 Q 248.1 258.5, 246.6 258.5 Q 245.2 258.5, 244.2 259.1 Q 243.3 259.6, 242.6 260.9 L 240.7 260.0 " fill="#000000"/>
<path class="atom-27" d="M 264.4 265.0 Q 266.0 265.7, 266.9 266.8 Q 267.9 267.8, 267.9 269.5 Q 267.9 271.0, 267.1 272.2 Q 266.3 273.4, 264.9 274.0 Q 263.5 274.6, 261.7 274.6 Q 258.8 274.6, 257.1 273.3 Q 255.4 271.9, 255.4 269.5 Q 255.4 268.1, 256.1 267.0 Q 256.9 265.9, 258.4 265.1 Q 257.3 264.4, 256.6 263.5 Q 256.0 262.5, 256.0 261.0 Q 256.0 258.9, 257.5 257.7 Q 259.0 256.5, 261.6 256.5 Q 264.2 256.5, 265.7 257.7 Q 267.2 258.9, 267.2 261.0 Q 267.2 262.3, 266.5 263.3 Q 265.8 264.2, 264.4 265.0 M 261.6 258.4 Q 260.1 258.4, 259.3 259.1 Q 258.5 259.8, 258.5 261.0 Q 258.5 261.9, 259.1 262.6 Q 259.6 263.2, 260.4 263.5 Q 261.2 263.9, 262.7 264.4 Q 263.8 263.6, 264.2 262.8 Q 264.7 262.0, 264.7 261.0 Q 264.7 259.8, 263.9 259.1 Q 263.1 258.4, 261.6 258.4 M 261.7 272.8 Q 263.4 272.8, 264.4 271.9 Q 265.4 271.0, 265.4 269.5 Q 265.4 268.6, 264.8 268.0 Q 264.3 267.4, 263.5 267.0 Q 262.7 266.7, 261.3 266.2 L 260.2 265.8 Q 259.0 266.6, 258.4 267.5 Q 257.9 268.4, 257.9 269.5 Q 257.9 271.0, 258.9 271.9 Q 260.0 272.8, 261.7 272.8 " fill="#000000"/>
<path class="atom-28" d="M 209.6 333.2 Q 209.6 328.8, 211.7 326.5 Q 213.7 324.2, 217.7 324.2 Q 221.3 324.2, 223.3 326.8 L 221.6 328.1 Q 220.2 326.3, 217.7 326.3 Q 215.0 326.3, 213.6 328.1 Q 212.2 329.8, 212.2 333.2 Q 212.2 336.7, 213.6 338.5 Q 215.1 340.3, 217.9 340.3 Q 219.9 340.3, 222.2 339.2 L 222.9 341.0 Q 221.9 341.6, 220.5 342.0 Q 219.1 342.3, 217.6 342.3 Q 213.7 342.3, 211.7 340.0 Q 209.6 337.6, 209.6 333.2 " fill="#000000"/>
<path class="atom-28" d="M 225.6 327.8 Q 226.2 326.1, 227.8 325.2 Q 229.3 324.2, 231.5 324.2 Q 234.2 324.2, 235.7 325.7 Q 237.2 327.1, 237.2 329.7 Q 237.2 332.3, 235.2 334.8 Q 233.3 337.2, 229.3 340.1 L 237.5 340.1 L 237.5 342.1 L 225.5 342.1 L 225.5 340.4 Q 228.8 338.1, 230.8 336.3 Q 232.8 334.6, 233.7 333.0 Q 234.7 331.4, 234.7 329.8 Q 234.7 328.1, 233.8 327.2 Q 233.0 326.2, 231.5 326.2 Q 230.1 326.2, 229.1 326.8 Q 228.2 327.4, 227.5 328.6 L 225.6 327.8 " fill="#000000"/>
<path class="atom-28" d="M 246.2 324.2 Q 249.3 324.2, 250.9 326.4 Q 252.5 328.5, 252.5 332.7 Q 252.5 337.4, 250.5 339.9 Q 248.6 342.3, 244.8 342.3 Q 243.7 342.3, 242.7 342.1 Q 241.8 341.8, 240.9 341.3 L 241.9 339.6 Q 243.2 340.3, 244.8 340.3 Q 247.3 340.3, 248.5 338.7 Q 249.8 337.1, 250.0 333.8 Q 249.1 334.6, 247.9 335.0 Q 246.8 335.5, 245.6 335.5 Q 244.0 335.5, 242.8 334.8 Q 241.6 334.1, 240.9 332.9 Q 240.2 331.7, 240.2 330.1 Q 240.2 328.4, 241.0 327.1 Q 241.7 325.7, 243.1 325.0 Q 244.4 324.2, 246.2 324.2 M 242.7 330.1 Q 242.7 331.7, 243.6 332.6 Q 244.5 333.5, 246.0 333.5 Q 247.1 333.5, 248.1 333.0 Q 249.2 332.6, 250.0 331.8 Q 249.9 328.9, 248.9 327.6 Q 248.0 326.3, 246.1 326.3 Q 245.2 326.3, 244.4 326.8 Q 243.6 327.3, 243.2 328.1 Q 242.7 329.0, 242.7 330.1 " fill="#000000"/>
<path class="atom-29" d="M 283.2 367.0 Q 283.2 362.6, 285.3 360.3 Q 287.4 358.0, 291.3 358.0 Q 294.9 358.0, 296.9 360.6 L 295.2 361.9 Q 293.8 360.0, 291.3 360.0 Q 288.6 360.0, 287.2 361.8 Q 285.8 363.6, 285.8 367.0 Q 285.8 370.5, 287.2 372.3 Q 288.7 374.1, 291.6 374.1 Q 293.5 374.1, 295.8 372.9 L 296.5 374.8 Q 295.6 375.4, 294.2 375.8 Q 292.8 376.1, 291.2 376.1 Q 287.4 376.1, 285.3 373.8 Q 283.2 371.4, 283.2 367.0 " fill="#000000"/>
<path class="atom-29" d="M 307.7 366.6 Q 309.4 367.1, 310.2 368.2 Q 311.1 369.3, 311.1 371.0 Q 311.1 372.5, 310.3 373.7 Q 309.6 374.9, 308.2 375.5 Q 306.8 376.1, 305.0 376.1 Q 303.1 376.1, 301.7 375.5 Q 300.3 374.8, 299.2 373.5 L 300.6 372.0 Q 301.7 373.2, 302.6 373.7 Q 303.5 374.1, 305.0 374.1 Q 306.6 374.1, 307.6 373.3 Q 308.6 372.4, 308.6 371.0 Q 308.6 369.2, 307.5 368.4 Q 306.5 367.6, 304.4 367.6 L 303.1 367.6 L 303.1 365.8 L 304.2 365.8 Q 306.1 365.8, 307.2 364.9 Q 308.2 364.1, 308.2 362.5 Q 308.2 361.4, 307.3 360.7 Q 306.5 360.0, 305.0 360.0 Q 303.6 360.0, 302.6 360.5 Q 301.7 361.0, 301.0 362.4 L 299.3 361.4 Q 299.9 360.0, 301.4 359.0 Q 302.9 358.0, 305.0 358.0 Q 307.6 358.0, 309.2 359.2 Q 310.7 360.4, 310.7 362.5 Q 310.7 363.9, 309.9 365.0 Q 309.1 366.0, 307.7 366.6 " fill="#000000"/>
<path class="atom-29" d="M 320.3 376.1 Q 317.0 376.1, 315.4 373.7 Q 313.8 371.3, 313.8 367.0 Q 313.8 362.7, 315.4 360.4 Q 317.0 358.0, 320.3 358.0 Q 323.6 358.0, 325.2 360.4 Q 326.8 362.7, 326.8 367.0 Q 326.8 371.3, 325.1 373.7 Q 323.5 376.1, 320.3 376.1 M 320.3 374.1 Q 322.2 374.1, 323.2 372.3 Q 324.3 370.5, 324.3 367.0 Q 324.3 363.5, 323.2 361.8 Q 322.2 360.0, 320.3 360.0 Q 318.4 360.0, 317.3 361.8 Q 316.3 363.5, 316.3 367.0 Q 316.3 370.5, 317.3 372.3 Q 318.4 374.1, 320.3 374.1 " fill="#000000"/>
<path class="atom-30" d="M 180.8 231.7 Q 180.8 227.3, 182.9 225.0 Q 185.0 222.7, 188.9 222.7 Q 192.5 222.7, 194.5 225.3 L 192.8 226.6 Q 191.4 224.8, 188.9 224.8 Q 186.2 224.8, 184.8 226.6 Q 183.4 228.3, 183.4 231.7 Q 183.4 235.2, 184.8 237.0 Q 186.3 238.8, 189.2 238.8 Q 191.1 238.8, 193.4 237.7 L 194.1 239.5 Q 193.2 240.1, 191.8 240.5 Q 190.4 240.8, 188.8 240.8 Q 185.0 240.8, 182.9 238.5 Q 180.8 236.1, 180.8 231.7 " fill="#000000"/>
<path class="atom-30" d="M 205.2 231.3 Q 206.9 231.8, 207.7 232.9 Q 208.6 234.0, 208.6 235.8 Q 208.6 237.3, 207.8 238.4 Q 207.1 239.6, 205.7 240.2 Q 204.3 240.9, 202.5 240.9 Q 200.6 240.9, 199.2 240.2 Q 197.8 239.5, 196.7 238.2 L 198.1 236.7 Q 199.2 237.9, 200.1 238.4 Q 201.1 238.9, 202.5 238.9 Q 204.1 238.9, 205.1 238.0 Q 206.1 237.1, 206.1 235.7 Q 206.1 233.9, 205.1 233.1 Q 204.1 232.3, 201.9 232.3 L 200.6 232.3 L 200.6 230.5 L 201.7 230.5 Q 203.7 230.5, 204.7 229.7 Q 205.7 228.8, 205.7 227.2 Q 205.7 226.1, 204.9 225.4 Q 204.0 224.7, 202.6 224.7 Q 201.1 224.7, 200.2 225.2 Q 199.3 225.8, 198.6 227.1 L 196.8 226.2 Q 197.5 224.7, 199.0 223.7 Q 200.5 222.7, 202.6 222.7 Q 205.2 222.7, 206.7 223.9 Q 208.2 225.2, 208.2 227.2 Q 208.2 228.7, 207.4 229.7 Q 206.7 230.7, 205.2 231.3 " fill="#000000"/>
<path class="atom-30" d="M 212.2 238.6 L 216.1 238.6 L 216.1 225.4 L 211.8 226.7 L 211.3 225.2 L 216.7 222.8 L 218.5 223.1 L 218.5 238.6 L 221.9 238.6 L 221.9 240.6 L 212.2 240.6 L 212.2 238.6 " fill="#000000"/>
<path class="atom-31" d="M 117.4 290.4 Q 117.4 286.0, 119.4 283.7 Q 121.5 281.4, 125.4 281.4 Q 129.1 281.4, 131.0 283.9 L 129.4 285.3 Q 127.9 283.4, 125.4 283.4 Q 122.7 283.4, 121.3 285.2 Q 119.9 287.0, 119.9 290.4 Q 119.9 293.9, 121.4 295.7 Q 122.8 297.5, 125.7 297.5 Q 127.6 297.5, 129.9 296.3 L 130.6 298.2 Q 129.7 298.8, 128.3 299.1 Q 126.9 299.5, 125.3 299.5 Q 121.5 299.5, 119.4 297.1 Q 117.4 294.8, 117.4 290.4 " fill="#000000"/>
<path class="atom-31" d="M 141.8 289.9 Q 143.5 290.4, 144.3 291.6 Q 145.2 292.7, 145.2 294.4 Q 145.2 295.9, 144.4 297.1 Q 143.7 298.2, 142.3 298.9 Q 140.9 299.5, 139.1 299.5 Q 137.2 299.5, 135.8 298.9 Q 134.4 298.2, 133.3 296.8 L 134.7 295.4 Q 135.8 296.6, 136.7 297.1 Q 137.6 297.5, 139.1 297.5 Q 140.7 297.5, 141.7 296.7 Q 142.7 295.8, 142.7 294.4 Q 142.7 292.6, 141.6 291.8 Q 140.6 291.0, 138.5 291.0 L 137.2 291.0 L 137.2 289.2 L 138.3 289.2 Q 140.2 289.1, 141.3 288.3 Q 142.3 287.5, 142.3 285.9 Q 142.3 284.7, 141.4 284.1 Q 140.6 283.4, 139.1 283.4 Q 137.7 283.4, 136.7 283.9 Q 135.8 284.4, 135.1 285.7 L 133.4 284.8 Q 134.0 283.3, 135.5 282.4 Q 137.0 281.4, 139.1 281.4 Q 141.7 281.4, 143.3 282.6 Q 144.8 283.8, 144.8 285.9 Q 144.8 287.3, 144.0 288.3 Q 143.2 289.4, 141.8 289.9 " fill="#000000"/>
<path class="atom-31" d="M 147.9 284.9 Q 148.6 283.2, 150.1 282.3 Q 151.7 281.4, 153.8 281.4 Q 156.5 281.4, 158.0 282.8 Q 159.5 284.3, 159.5 286.8 Q 159.5 289.5, 157.6 291.9 Q 155.6 294.4, 151.6 297.3 L 159.8 297.3 L 159.8 299.3 L 147.9 299.3 L 147.9 297.6 Q 151.2 295.2, 153.1 293.5 Q 155.1 291.7, 156.1 290.2 Q 157.0 288.6, 157.0 287.0 Q 157.0 285.3, 156.2 284.3 Q 155.3 283.4, 153.8 283.4 Q 152.4 283.4, 151.5 283.9 Q 150.5 284.5, 149.8 285.8 L 147.9 284.9 " fill="#000000"/>
<path class="atom-32" d="M 83.5 231.8 Q 83.5 227.4, 85.6 225.1 Q 87.6 222.8, 91.6 222.8 Q 95.2 222.8, 97.2 225.3 L 95.5 226.7 Q 94.1 224.8, 91.6 224.8 Q 88.9 224.8, 87.5 226.6 Q 86.1 228.4, 86.1 231.8 Q 86.1 235.3, 87.5 237.1 Q 89.0 238.9, 91.8 238.9 Q 93.8 238.9, 96.1 237.7 L 96.8 239.6 Q 95.8 240.2, 94.4 240.5 Q 93.0 240.9, 91.5 240.9 Q 87.6 240.9, 85.6 238.5 Q 83.5 236.2, 83.5 231.8 " fill="#000000"/>
<path class="atom-32" d="M 107.9 231.3 Q 109.6 231.8, 110.4 233.0 Q 111.3 234.1, 111.3 235.8 Q 111.3 237.3, 110.5 238.5 Q 109.8 239.6, 108.4 240.3 Q 107.0 240.9, 105.2 240.9 Q 103.3 240.9, 101.9 240.3 Q 100.5 239.6, 99.4 238.2 L 100.8 236.8 Q 101.9 238.0, 102.8 238.5 Q 103.8 238.9, 105.2 238.9 Q 106.8 238.9, 107.8 238.1 Q 108.8 237.2, 108.8 235.8 Q 108.8 234.0, 107.8 233.2 Q 106.8 232.4, 104.6 232.4 L 103.3 232.4 L 103.3 230.6 L 104.4 230.6 Q 106.4 230.5, 107.4 229.7 Q 108.4 228.9, 108.4 227.3 Q 108.4 226.1, 107.6 225.5 Q 106.7 224.8, 105.3 224.8 Q 103.8 224.8, 102.9 225.3 Q 102.0 225.8, 101.3 227.1 L 99.5 226.2 Q 100.2 224.7, 101.7 223.8 Q 103.2 222.8, 105.3 222.8 Q 107.9 222.8, 109.4 224.0 Q 110.9 225.2, 110.9 227.3 Q 110.9 228.7, 110.1 229.7 Q 109.4 230.8, 107.9 231.3 " fill="#000000"/>
<path class="atom-32" d="M 122.5 231.3 Q 124.2 231.8, 125.1 233.0 Q 125.9 234.1, 125.9 235.8 Q 125.9 237.3, 125.2 238.5 Q 124.4 239.6, 123.0 240.3 Q 121.7 240.9, 119.9 240.9 Q 118.0 240.9, 116.5 240.3 Q 115.1 239.6, 114.0 238.2 L 115.4 236.8 Q 116.5 238.0, 117.5 238.5 Q 118.4 238.9, 119.9 238.9 Q 121.5 238.9, 122.4 238.1 Q 123.4 237.2, 123.4 235.8 Q 123.4 234.0, 122.4 233.2 Q 121.4 232.4, 119.2 232.4 L 117.9 232.4 L 117.9 230.6 L 119.1 230.6 Q 121.0 230.5, 122.0 229.7 Q 123.0 228.9, 123.0 227.3 Q 123.0 226.1, 122.2 225.5 Q 121.3 224.8, 119.9 224.8 Q 118.4 224.8, 117.5 225.3 Q 116.6 225.8, 115.9 227.1 L 114.2 226.2 Q 114.8 224.7, 116.3 223.8 Q 117.8 222.8, 119.9 222.8 Q 122.5 222.8, 124.0 224.0 Q 125.5 225.2, 125.5 227.3 Q 125.5 228.7, 124.8 229.7 Q 124.0 230.8, 122.5 231.3 " fill="#000000"/>
<path class="atom-33" d="M 180.8 164.0 Q 180.8 159.6, 182.8 157.3 Q 184.9 155.0, 188.8 155.0 Q 192.5 155.0, 194.4 157.6 L 192.8 158.9 Q 191.4 157.1, 188.8 157.1 Q 186.2 157.1, 184.7 158.9 Q 183.3 160.6, 183.3 164.0 Q 183.3 167.5, 184.8 169.3 Q 186.3 171.1, 189.1 171.1 Q 191.1 171.1, 193.3 170.0 L 194.0 171.8 Q 193.1 172.4, 191.7 172.8 Q 190.3 173.1, 188.8 173.1 Q 184.9 173.1, 182.8 170.8 Q 180.8 168.4, 180.8 164.0 " fill="#000000"/>
<path class="atom-33" d="M 205.2 163.6 Q 207.0 164.1, 207.8 165.2 Q 208.6 166.3, 208.6 168.1 Q 208.6 169.6, 207.9 170.7 Q 207.1 171.9, 205.8 172.5 Q 204.4 173.2, 202.6 173.2 Q 200.7 173.2, 199.3 172.5 Q 197.9 171.8, 196.7 170.5 L 198.2 169.0 Q 199.3 170.2, 200.2 170.7 Q 201.1 171.2, 202.6 171.2 Q 204.2 171.2, 205.2 170.3 Q 206.1 169.4, 206.1 168.0 Q 206.1 166.2, 205.1 165.4 Q 204.1 164.6, 201.9 164.6 L 200.7 164.6 L 200.7 162.8 L 201.8 162.8 Q 203.7 162.8, 204.7 162.0 Q 205.8 161.1, 205.8 159.5 Q 205.8 158.4, 204.9 157.7 Q 204.1 157.0, 202.6 157.0 Q 201.1 157.0, 200.2 157.5 Q 199.3 158.1, 198.6 159.4 L 196.9 158.5 Q 197.5 157.0, 199.0 156.0 Q 200.5 155.0, 202.6 155.0 Q 205.2 155.0, 206.7 156.2 Q 208.3 157.5, 208.3 159.5 Q 208.3 161.0, 207.5 162.0 Q 206.7 163.0, 205.2 163.6 " fill="#000000"/>
<path class="atom-33" d="M 222.9 166.8 L 225.0 166.8 L 225.0 168.8 L 222.9 168.8 L 222.9 172.9 L 220.6 172.9 L 220.6 168.8 L 211.4 168.8 L 211.4 167.3 L 219.2 155.2 L 222.9 155.2 L 222.9 166.8 M 214.3 166.8 L 220.6 166.8 L 220.6 156.8 L 214.3 166.8 " fill="#000000"/>
<path class="atom-34" d="M 472.7 333.0 Q 472.7 328.8, 474.8 326.4 Q 476.9 324.0, 480.8 324.0 Q 484.8 324.0, 486.9 326.4 Q 489.0 328.8, 489.0 333.0 Q 489.0 337.3, 486.8 339.8 Q 484.7 342.2, 480.8 342.2 Q 476.9 342.2, 474.8 339.8 Q 472.7 337.3, 472.7 333.0 M 480.8 340.2 Q 483.5 340.2, 485.0 338.4 Q 486.5 336.6, 486.5 333.0 Q 486.5 329.5, 485.0 327.8 Q 483.5 326.0, 480.8 326.0 Q 478.1 326.0, 476.7 327.8 Q 475.2 329.5, 475.2 333.0 Q 475.2 336.6, 476.7 338.4 Q 478.1 340.2, 480.8 340.2 " fill="#FF0000"/>
<path class="atom-34" d="M 500.0 332.6 Q 501.8 333.1, 502.6 334.2 Q 503.4 335.3, 503.4 337.1 Q 503.4 338.6, 502.7 339.7 Q 501.9 340.9, 500.6 341.5 Q 499.2 342.2, 497.4 342.2 Q 495.5 342.2, 494.1 341.5 Q 492.7 340.8, 491.5 339.5 L 493.0 338.0 Q 494.1 339.2, 495.0 339.7 Q 495.9 340.2, 497.4 340.2 Q 499.0 340.2, 500.0 339.3 Q 500.9 338.4, 500.9 337.0 Q 500.9 335.2, 499.9 334.4 Q 498.9 333.6, 496.7 333.6 L 495.5 333.6 L 495.5 331.8 L 496.6 331.8 Q 498.5 331.8, 499.5 331.0 Q 500.6 330.1, 500.6 328.5 Q 500.6 327.4, 499.7 326.7 Q 498.9 326.0, 497.4 326.0 Q 495.9 326.0, 495.0 326.5 Q 494.1 327.1, 493.4 328.4 L 491.7 327.5 Q 492.3 326.0, 493.8 325.0 Q 495.3 324.0, 497.4 324.0 Q 500.0 324.0, 501.5 325.2 Q 503.1 326.5, 503.1 328.5 Q 503.1 330.0, 502.3 331.0 Q 501.5 332.0, 500.0 332.6 " fill="#FF0000"/>
<path class="atom-34" d="M 512.7 330.8 Q 514.2 330.8, 515.5 331.5 Q 516.8 332.2, 517.5 333.4 Q 518.2 334.6, 518.2 336.3 Q 518.2 338.1, 517.3 339.5 Q 516.5 340.8, 515.0 341.4 Q 513.6 342.1, 511.9 342.1 Q 510.3 342.1, 508.8 341.5 Q 507.3 340.9, 506.3 339.8 L 507.8 338.2 Q 508.6 339.1, 509.7 339.6 Q 510.8 340.1, 512.0 340.1 Q 513.6 340.1, 514.6 339.1 Q 515.7 338.1, 515.7 336.4 Q 515.7 334.5, 514.6 333.6 Q 513.6 332.7, 511.8 332.7 Q 510.3 332.7, 508.6 333.4 L 507.2 332.7 L 508.0 324.2 L 517.1 324.2 L 516.9 326.2 L 510.1 326.2 L 509.6 331.5 Q 511.1 330.8, 512.7 330.8 " fill="#FF0000"/>
<text x="1000" y="50" font-size="8" font-family="Verdana" font-weight="normal" letter-spacing="0" text-anchor="start" fill="black">Highlighted Atoms:
Primary SOM: Red
Secondary SOM: Green
Tertiary SOM: Cyan
</text></svg>
