<?xml version='1.0' encoding='ASCII' standalone='yes'?>
<svg xmlns="http://www.w3.org/2000/svg" xmlns:rdkit="http://www.rdkit.org/xml" xmlns:xlink="http://www.w3.org/1999/xlink" style="background-color: white;" version="1.1" baseProfile="full" xml:space="preserve" width="1000px" height="1000px" viewBox="0 0 1000 1000">
<!-- END OF HEADER -->
<rect style="opacity:1.0;fill:#FFFFFF;stroke:none" width="1000.0" height="1000.0" x="0.0" y="0.0"> </rect>
<ellipse cx="513.0" cy="715.2" rx="31.8" ry="31.8" class="atom-6" style="fill:#B20000;fill-rule:evenodd;stroke:#B20000;stroke-width:1.0px;stroke-linecap:butt;stroke-linejoin:miter;stroke-opacity:1"/>
<path class="bond-0 atom-1 atom-0" d="M 237.1,650.6 L 236.8,569.4" style="fill:none;fill-rule:evenodd;stroke:#000000;stroke-width:2.0px;stroke-linecap:butt;stroke-linejoin:miter;stroke-opacity:1"/>
<path class="bond-1 atom-2 atom-1" d="M 311.8,705.8 L 254.5,673.0" style="fill:none;fill-rule:evenodd;stroke:#000000;stroke-width:2.0px;stroke-linecap:butt;stroke-linejoin:miter;stroke-opacity:1"/>
<path class="bond-2 atom-3 atom-2" d="M 402.6,673.1 L 346.6,705.6" style="fill:none;fill-rule:evenodd;stroke:#000000;stroke-width:2.0px;stroke-linecap:butt;stroke-linejoin:miter;stroke-opacity:1"/>
<path class="bond-2 atom-3 atom-2" d="M 394.6,659.3 L 338.6,691.9" style="fill:none;fill-rule:evenodd;stroke:#000000;stroke-width:2.0px;stroke-linecap:butt;stroke-linejoin:miter;stroke-opacity:1"/>
<path class="bond-3 atom-4 atom-3" d="M 420.6,568.9 L 420.9,649.9" style="fill:none;fill-rule:evenodd;stroke:#000000;stroke-width:2.0px;stroke-linecap:butt;stroke-linejoin:miter;stroke-opacity:1"/>
<path class="bond-4 atom-5 atom-0" d="M 310.8,513.8 L 245.6,551.8" style="fill:none;fill-rule:evenodd;stroke:#000000;stroke-width:2.0px;stroke-linecap:butt;stroke-linejoin:miter;stroke-opacity:1"/>
<path class="bond-5 atom-5 atom-4" d="M 346.1,513.6 L 403.1,546.3" style="fill:none;fill-rule:evenodd;stroke:#000000;stroke-width:2.0px;stroke-linecap:butt;stroke-linejoin:miter;stroke-opacity:1"/>
<path class="bond-6 atom-6 atom-3" d="M 495.7,705.2 L 439.2,672.9" style="fill:none;fill-rule:evenodd;stroke:#000000;stroke-width:2.0px;stroke-linecap:butt;stroke-linejoin:miter;stroke-opacity:1"/>
<path class="bond-7 atom-7 atom-6" d="M 594.4,667.7 L 530.4,705.0" style="fill:none;fill-rule:evenodd;stroke:#000000;stroke-width:2.0px;stroke-linecap:butt;stroke-linejoin:miter;stroke-opacity:1"/>
<path class="bond-8 atom-8 atom-7" d="M 604.4,568.3 L 604.7,649.3" style="fill:none;fill-rule:evenodd;stroke:#000000;stroke-width:2.0px;stroke-linecap:butt;stroke-linejoin:miter;stroke-opacity:1"/>
<path class="bond-9 atom-9 atom-4" d="M 490.5,515.5 L 438.0,546.1" style="fill:none;fill-rule:evenodd;stroke:#000000;stroke-width:2.0px;stroke-linecap:butt;stroke-linejoin:miter;stroke-opacity:1"/>
<path class="bond-10 atom-9 atom-8" d="M 534.4,515.5 L 586.7,545.5" style="fill:none;fill-rule:evenodd;stroke:#000000;stroke-width:2.0px;stroke-linecap:butt;stroke-linejoin:miter;stroke-opacity:1"/>
<path class="bond-11 atom-10 atom-8" d="M 674.3,514.9 L 622.0,545.4" style="fill:none;fill-rule:evenodd;stroke:#000000;stroke-width:2.0px;stroke-linecap:butt;stroke-linejoin:miter;stroke-opacity:1"/>
<path class="bond-12 atom-11 atom-10" d="M 695.7,408.5 L 696.0,489.9" style="fill:none;fill-rule:evenodd;stroke:#000000;stroke-width:2.0px;stroke-linecap:butt;stroke-linejoin:miter;stroke-opacity:1"/>
<path class="bond-13 atom-12 atom-11" d="M 625.8,356.1 L 673.9,383.6" style="fill:none;fill-rule:evenodd;stroke:#000000;stroke-width:2.0px;stroke-linecap:butt;stroke-linejoin:miter;stroke-opacity:1"/>
<path class="bond-14 atom-13 atom-9" d="M 511.9,409.2 L 512.2,490.5" style="fill:none;fill-rule:evenodd;stroke:#000000;stroke-width:2.0px;stroke-linecap:butt;stroke-linejoin:miter;stroke-opacity:1"/>
<path class="bond-15 atom-13 atom-12" d="M 522.2,390.8 L 581.8,356.0" style="fill:none;fill-rule:evenodd;stroke:#000000;stroke-width:2.0px;stroke-linecap:butt;stroke-linejoin:miter;stroke-opacity:1"/>
<path class="bond-16 atom-14 atom-10" d="M 773.2,527.0 L 704.9,505.0" style="fill:none;fill-rule:evenodd;stroke:#000000;stroke-width:2.0px;stroke-linecap:butt;stroke-linejoin:miter;stroke-opacity:1"/>
<path class="bond-17 atom-15 atom-14" d="M 850.0,461.3 L 806.0,522.3" style="fill:none;fill-rule:evenodd;stroke:#000000;stroke-width:2.0px;stroke-linecap:butt;stroke-linejoin:miter;stroke-opacity:1"/>
<path class="bond-18 atom-16 atom-11" d="M 772.7,370.7 L 719.5,388.2" style="fill:none;fill-rule:evenodd;stroke:#000000;stroke-width:2.0px;stroke-linecap:butt;stroke-linejoin:miter;stroke-opacity:1"/>
<path class="bond-19 atom-16 atom-15" d="M 805.6,375.4 L 850.1,436.1" style="fill:none;fill-rule:evenodd;stroke:#000000;stroke-width:2.0px;stroke-linecap:butt;stroke-linejoin:miter;stroke-opacity:1"/>
<path class="bond-20 atom-17 atom-4" d="M 420.2,462.8 L 420.5,543.8" style="fill:none;fill-rule:evenodd;stroke:#000000;stroke-width:2.0px;stroke-linecap:butt;stroke-linejoin:miter;stroke-opacity:1"/>
<path class="bond-21 atom-18 atom-11" d="M 705.1,303.2 L 696.9,383.7" style="fill:none;fill-rule:evenodd;stroke:#000000;stroke-width:2.0px;stroke-linecap:butt;stroke-linejoin:miter;stroke-opacity:1"/>
<path class="bond-22 atom-19 atom-16" d="M 824.9,274.6 L 812.7,312.6" style="fill:none;fill-rule:evenodd;stroke:#FF0000;stroke-width:2.0px;stroke-linecap:butt;stroke-linejoin:miter;stroke-opacity:1"/>
<path class="bond-22 atom-19 atom-16" d="M 812.7,312.6 L 800.5,350.6" style="fill:none;fill-rule:evenodd;stroke:#000000;stroke-width:2.0px;stroke-linecap:butt;stroke-linejoin:miter;stroke-opacity:1"/>
<path class="bond-23 atom-20 atom-1" d="M 150.2,704.4 L 183.0,685.4" style="fill:none;fill-rule:evenodd;stroke:#FF0000;stroke-width:2.0px;stroke-linecap:butt;stroke-linejoin:miter;stroke-opacity:1"/>
<path class="bond-23 atom-20 atom-1" d="M 183.0,685.4 L 215.7,666.3" style="fill:none;fill-rule:evenodd;stroke:#000000;stroke-width:2.0px;stroke-linecap:butt;stroke-linejoin:miter;stroke-opacity:1"/>
<path class="bond-23 atom-20 atom-1" d="M 158.3,718.2 L 191.0,699.1" style="fill:none;fill-rule:evenodd;stroke:#FF0000;stroke-width:2.0px;stroke-linecap:butt;stroke-linejoin:miter;stroke-opacity:1"/>
<path class="bond-23 atom-20 atom-1" d="M 191.0,699.1 L 223.7,680.1" style="fill:none;fill-rule:evenodd;stroke:#000000;stroke-width:2.0px;stroke-linecap:butt;stroke-linejoin:miter;stroke-opacity:1"/>
<path class="atom-0" d="M 215.5 557.0 Q 215.5 552.6, 217.6 550.3 Q 219.7 548.0, 223.6 548.0 Q 227.2 548.0, 229.2 550.6 L 227.5 551.9 Q 226.1 550.0, 223.6 550.0 Q 220.9 550.0, 219.5 551.8 Q 218.1 553.6, 218.1 557.0 Q 218.1 560.5, 219.5 562.3 Q 221.0 564.1, 223.9 564.1 Q 225.8 564.1, 228.1 562.9 L 228.8 564.8 Q 227.9 565.4, 226.5 565.8 Q 225.1 566.1, 223.5 566.1 Q 219.7 566.1, 217.6 563.8 Q 215.5 561.4, 215.5 557.0 " fill="#000000"/>
<path class="atom-0" d="M 232.4 563.9 L 236.3 563.9 L 236.3 550.7 L 232.0 552.0 L 231.4 550.5 L 236.8 548.1 L 238.6 548.4 L 238.6 563.9 L 242.1 563.9 L 242.1 565.9 L 232.4 565.9 L 232.4 563.9 " fill="#000000"/>
<path class="atom-1" d="M 223.2 663.1 Q 223.2 658.7, 225.2 656.4 Q 227.3 654.1, 231.2 654.1 Q 234.9 654.1, 236.8 656.7 L 235.2 658.0 Q 233.8 656.2, 231.2 656.2 Q 228.6 656.2, 227.1 658.0 Q 225.7 659.7, 225.7 663.1 Q 225.7 666.6, 227.2 668.4 Q 228.7 670.2, 231.5 670.2 Q 233.5 670.2, 235.7 669.1 L 236.4 670.9 Q 235.5 671.5, 234.1 671.9 Q 232.7 672.2, 231.2 672.2 Q 227.3 672.2, 225.2 669.9 Q 223.2 667.5, 223.2 663.1 " fill="#000000"/>
<path class="atom-1" d="M 239.2 657.7 Q 239.8 656.0, 241.4 655.1 Q 242.9 654.1, 245.1 654.1 Q 247.7 654.1, 249.2 655.6 Q 250.7 657.0, 250.7 659.6 Q 250.7 662.2, 248.8 664.7 Q 246.9 667.1, 242.9 670.0 L 251.0 670.0 L 251.0 672.0 L 239.1 672.0 L 239.1 670.3 Q 242.4 668.0, 244.4 666.2 Q 246.3 664.5, 247.3 662.9 Q 248.2 661.3, 248.2 659.7 Q 248.2 658.0, 247.4 657.1 Q 246.5 656.1, 245.1 656.1 Q 243.6 656.1, 242.7 656.7 Q 241.7 657.3, 241.1 658.5 L 239.2 657.7 " fill="#000000"/>
<path class="atom-2" d="M 315.3 715.9 Q 315.3 711.5, 317.4 709.2 Q 319.4 706.8, 323.4 706.8 Q 327.0 706.8, 329.0 709.4 L 327.3 710.8 Q 325.9 708.9, 323.4 708.9 Q 320.7 708.9, 319.3 710.7 Q 317.9 712.5, 317.9 715.9 Q 317.9 719.4, 319.3 721.2 Q 320.8 723.0, 323.6 723.0 Q 325.6 723.0, 327.9 721.8 L 328.6 723.7 Q 327.6 724.3, 326.2 724.6 Q 324.8 725.0, 323.3 725.0 Q 319.4 725.0, 317.4 722.6 Q 315.3 720.3, 315.3 715.9 " fill="#000000"/>
<path class="atom-2" d="M 339.7 715.4 Q 341.5 715.9, 342.3 717.0 Q 343.1 718.1, 343.1 719.9 Q 343.1 721.4, 342.4 722.6 Q 341.6 723.7, 340.3 724.4 Q 338.9 725.0, 337.1 725.0 Q 335.2 725.0, 333.8 724.3 Q 332.4 723.7, 331.2 722.3 L 332.7 720.9 Q 333.8 722.1, 334.7 722.5 Q 335.6 723.0, 337.1 723.0 Q 338.7 723.0, 339.7 722.1 Q 340.6 721.3, 340.6 719.9 Q 340.6 718.1, 339.6 717.3 Q 338.6 716.4, 336.4 716.4 L 335.2 716.4 L 335.2 714.6 L 336.3 714.6 Q 338.2 714.6, 339.2 713.8 Q 340.3 712.9, 340.3 711.4 Q 340.3 710.2, 339.4 709.5 Q 338.6 708.8, 337.1 708.8 Q 335.6 708.8, 334.7 709.4 Q 333.8 709.9, 333.1 711.2 L 331.4 710.3 Q 332.0 708.8, 333.5 707.8 Q 335.0 706.8, 337.1 706.8 Q 339.7 706.8, 341.2 708.1 Q 342.8 709.3, 342.8 711.4 Q 342.8 712.8, 342.0 713.8 Q 341.2 714.8, 339.7 715.4 " fill="#000000"/>
<path class="atom-3" d="M 406.1 662.5 Q 406.1 658.1, 408.2 655.8 Q 410.2 653.4, 414.2 653.4 Q 417.8 653.4, 419.8 656.0 L 418.1 657.4 Q 416.7 655.5, 414.2 655.5 Q 411.5 655.5, 410.1 657.3 Q 408.7 659.1, 408.7 662.5 Q 408.7 666.0, 410.1 667.8 Q 411.6 669.6, 414.4 669.6 Q 416.4 669.6, 418.7 668.4 L 419.4 670.3 Q 418.4 670.9, 417.0 671.2 Q 415.6 671.6, 414.1 671.6 Q 410.2 671.6, 408.2 669.2 Q 406.1 666.9, 406.1 662.5 " fill="#000000"/>
<path class="atom-3" d="M 433.6 665.3 L 435.7 665.3 L 435.7 667.3 L 433.6 667.3 L 433.6 671.3 L 431.3 671.3 L 431.3 667.3 L 422.1 667.3 L 422.1 665.7 L 429.9 653.6 L 433.6 653.6 L 433.6 665.3 M 425.0 665.3 L 431.3 665.3 L 431.3 655.2 L 425.0 665.3 " fill="#000000"/>
<path class="atom-4" d="M 406.6 556.3 Q 406.6 551.9, 408.6 549.6 Q 410.7 547.3, 414.6 547.3 Q 418.3 547.3, 420.2 549.9 L 418.6 551.2 Q 417.2 549.4, 414.6 549.4 Q 412.0 549.4, 410.5 551.2 Q 409.1 552.9, 409.1 556.3 Q 409.1 559.8, 410.6 561.6 Q 412.1 563.4, 414.9 563.4 Q 416.9 563.4, 419.1 562.3 L 419.8 564.1 Q 418.9 564.7, 417.5 565.1 Q 416.1 565.4, 414.6 565.4 Q 410.7 565.4, 408.6 563.1 Q 406.6 560.7, 406.6 556.3 " fill="#000000"/>
<path class="atom-4" d="M 428.9 554.1 Q 430.5 554.1, 431.8 554.8 Q 433.0 555.5, 433.8 556.7 Q 434.5 557.9, 434.5 559.6 Q 434.5 561.4, 433.6 562.8 Q 432.7 564.1, 431.3 564.7 Q 429.8 565.4, 428.2 565.4 Q 426.5 565.4, 425.0 564.8 Q 423.5 564.2, 422.5 563.1 L 424.0 561.5 Q 424.8 562.4, 426.0 562.9 Q 427.1 563.4, 428.2 563.4 Q 429.8 563.4, 430.9 562.4 Q 432.0 561.4, 432.0 559.7 Q 432.0 557.8, 430.9 556.9 Q 429.8 556.0, 428.1 556.0 Q 426.5 556.0, 424.8 556.7 L 423.4 556.0 L 424.3 547.5 L 433.4 547.5 L 433.1 549.5 L 426.3 549.5 L 425.8 554.8 Q 427.4 554.1, 428.9 554.1 " fill="#000000"/>
<path class="atom-5" d="M 314.3 503.6 Q 314.3 499.2, 316.4 496.9 Q 318.5 494.6, 322.4 494.6 Q 326.0 494.6, 328.0 497.2 L 326.3 498.5 Q 324.9 496.6, 322.4 496.6 Q 319.7 496.6, 318.3 498.4 Q 316.9 500.2, 316.9 503.6 Q 316.9 507.1, 318.3 508.9 Q 319.8 510.7, 322.7 510.7 Q 324.6 510.7, 326.9 509.5 L 327.6 511.4 Q 326.7 512.0, 325.3 512.4 Q 323.9 512.7, 322.3 512.7 Q 318.5 512.7, 316.4 510.4 Q 314.3 508.0, 314.3 503.6 " fill="#000000"/>
<path class="atom-5" d="M 337.2 501.4 Q 338.8 501.4, 340.0 502.1 Q 341.2 502.8, 341.9 504.0 Q 342.6 505.2, 342.6 506.8 Q 342.6 508.5, 341.8 509.9 Q 341.0 511.2, 339.7 511.9 Q 338.3 512.7, 336.6 512.7 Q 333.5 512.7, 331.9 510.6 Q 330.3 508.4, 330.3 504.2 Q 330.3 499.5, 332.2 497.0 Q 334.2 494.6, 338.0 494.6 Q 339.1 494.6, 340.0 494.8 Q 341.0 495.1, 341.9 495.6 L 340.9 497.3 Q 339.6 496.6, 338.0 496.6 Q 335.5 496.6, 334.2 498.2 Q 333.0 499.8, 332.8 503.1 Q 333.7 502.3, 334.8 501.9 Q 336.0 501.4, 337.2 501.4 M 336.6 510.6 Q 337.6 510.6, 338.4 510.1 Q 339.2 509.6, 339.6 508.8 Q 340.1 507.9, 340.1 506.8 Q 340.1 505.2, 339.2 504.3 Q 338.3 503.4, 336.8 503.4 Q 335.7 503.4, 334.6 503.9 Q 333.6 504.3, 332.8 505.1 Q 332.9 508.0, 333.8 509.3 Q 334.8 510.6, 336.6 510.6 " fill="#000000"/>
<path class="atom-6" d="M 499.2 715.2 Q 499.2 710.8, 501.2 708.5 Q 503.3 706.2, 507.2 706.2 Q 510.9 706.2, 512.8 708.7 L 511.2 710.1 Q 509.8 708.2, 507.2 708.2 Q 504.6 708.2, 503.1 710.0 Q 501.7 711.8, 501.7 715.2 Q 501.7 718.7, 503.2 720.5 Q 504.7 722.3, 507.5 722.3 Q 509.5 722.3, 511.7 721.1 L 512.4 723.0 Q 511.5 723.6, 510.1 723.9 Q 508.7 724.3, 507.2 724.3 Q 503.3 724.3, 501.2 721.9 Q 499.2 719.6, 499.2 715.2 " fill="#000000"/>
<path class="atom-6" d="M 524.4 708.4 L 515.1 708.4 L 515.1 706.4 L 526.9 706.4 L 526.9 708.1 L 519.7 724.1 L 517.3 724.1 L 524.4 708.4 " fill="#000000"/>
<path class="atom-7" d="M 597.9 661.8 Q 597.9 657.4, 600.0 655.1 Q 602.0 652.8, 606.0 652.8 Q 609.6 652.8, 611.6 655.4 L 609.9 656.7 Q 608.5 654.8, 606.0 654.8 Q 603.3 654.8, 601.9 656.6 Q 600.5 658.4, 600.5 661.8 Q 600.5 665.3, 601.9 667.1 Q 603.4 668.9, 606.2 668.9 Q 608.2 668.9, 610.5 667.7 L 611.2 669.6 Q 610.2 670.2, 608.8 670.6 Q 607.4 670.9, 605.9 670.9 Q 602.0 670.9, 600.0 668.6 Q 597.9 666.2, 597.9 661.8 " fill="#000000"/>
<path class="atom-7" d="M 622.9 661.3 Q 624.5 662.0, 625.4 663.1 Q 626.4 664.1, 626.4 665.8 Q 626.4 667.3, 625.6 668.5 Q 624.8 669.7, 623.4 670.3 Q 622.0 670.9, 620.2 670.9 Q 617.3 670.9, 615.6 669.6 Q 613.9 668.2, 613.9 665.8 Q 613.9 664.4, 614.6 663.3 Q 615.4 662.2, 616.9 661.4 Q 615.8 660.7, 615.1 659.8 Q 614.5 658.8, 614.5 657.3 Q 614.5 655.2, 616.0 654.0 Q 617.5 652.8, 620.1 652.8 Q 622.7 652.8, 624.2 654.0 Q 625.7 655.2, 625.7 657.3 Q 625.7 658.6, 625.0 659.6 Q 624.3 660.5, 622.9 661.3 M 620.1 654.7 Q 618.6 654.7, 617.8 655.4 Q 617.0 656.1, 617.0 657.3 Q 617.0 658.2, 617.6 658.9 Q 618.1 659.5, 618.9 659.8 Q 619.7 660.2, 621.2 660.7 Q 622.3 659.9, 622.7 659.1 Q 623.2 658.3, 623.2 657.3 Q 623.2 656.1, 622.4 655.4 Q 621.6 654.7, 620.1 654.7 M 620.2 669.1 Q 621.9 669.1, 622.9 668.2 Q 623.9 667.3, 623.9 665.8 Q 623.9 664.9, 623.3 664.3 Q 622.8 663.7, 622.0 663.3 Q 621.2 663.0, 619.8 662.5 L 618.7 662.1 Q 617.5 662.9, 616.9 663.8 Q 616.4 664.7, 616.4 665.8 Q 616.4 667.3, 617.4 668.2 Q 618.5 669.1, 620.2 669.1 " fill="#000000"/>
<path class="atom-8" d="M 590.2 555.7 Q 590.2 551.3, 592.3 549.0 Q 594.4 546.7, 598.3 546.7 Q 601.9 546.7, 603.9 549.2 L 602.2 550.6 Q 600.8 548.7, 598.3 548.7 Q 595.6 548.7, 594.2 550.5 Q 592.8 552.3, 592.8 555.7 Q 592.8 559.2, 594.2 561.0 Q 595.7 562.8, 598.6 562.8 Q 600.5 562.8, 602.8 561.6 L 603.5 563.5 Q 602.6 564.1, 601.2 564.4 Q 599.8 564.8, 598.2 564.8 Q 594.4 564.8, 592.3 562.4 Q 590.2 560.1, 590.2 555.7 " fill="#000000"/>
<path class="atom-8" d="M 612.1 546.7 Q 615.3 546.7, 616.9 548.8 Q 618.5 550.9, 618.5 555.2 Q 618.5 559.9, 616.5 562.3 Q 614.5 564.8, 610.8 564.8 Q 609.7 564.8, 608.7 564.5 Q 607.8 564.3, 606.9 563.7 L 607.9 562.1 Q 609.2 562.8, 610.7 562.8 Q 613.2 562.8, 614.5 561.2 Q 615.8 559.5, 615.9 556.2 Q 615.0 557.0, 613.9 557.5 Q 612.8 557.9, 611.5 557.9 Q 610.0 557.9, 608.8 557.2 Q 607.5 556.6, 606.9 555.3 Q 606.2 554.1, 606.2 552.6 Q 606.2 550.8, 606.9 549.5 Q 607.7 548.2, 609.1 547.4 Q 610.4 546.7, 612.1 546.7 M 608.7 552.5 Q 608.7 554.1, 609.6 555.0 Q 610.4 555.9, 612.0 555.9 Q 613.1 555.9, 614.1 555.5 Q 615.2 555.0, 615.9 554.3 Q 615.8 551.4, 614.9 550.0 Q 614.0 548.7, 612.1 548.7 Q 611.2 548.7, 610.4 549.2 Q 609.6 549.7, 609.1 550.6 Q 608.7 551.5, 608.7 552.5 " fill="#000000"/>
<path class="atom-9" d="M 491.4 502.9 Q 491.4 498.5, 493.4 496.2 Q 495.5 493.9, 499.4 493.9 Q 503.1 493.9, 505.0 496.5 L 503.4 497.8 Q 501.9 496.0, 499.4 496.0 Q 496.7 496.0, 495.3 497.8 Q 493.9 499.5, 493.9 502.9 Q 493.9 506.4, 495.4 508.2 Q 496.8 510.0, 499.7 510.0 Q 501.6 510.0, 503.9 508.9 L 504.6 510.7 Q 503.7 511.3, 502.3 511.7 Q 500.9 512.0, 499.3 512.0 Q 495.5 512.0, 493.4 509.7 Q 491.4 507.3, 491.4 502.9 " fill="#000000"/>
<path class="atom-9" d="M 508.2 509.8 L 512.1 509.8 L 512.1 496.6 L 507.8 497.9 L 507.2 496.4 L 512.7 494.0 L 514.4 494.3 L 514.4 509.8 L 517.9 509.8 L 517.9 511.8 L 508.2 511.8 L 508.2 509.8 " fill="#000000"/>
<path class="atom-9" d="M 526.7 512.0 Q 523.4 512.0, 521.8 509.6 Q 520.2 507.2, 520.2 502.9 Q 520.2 498.7, 521.8 496.3 Q 523.4 493.9, 526.7 493.9 Q 530.0 493.9, 531.6 496.3 Q 533.2 498.7, 533.2 502.9 Q 533.2 507.2, 531.5 509.6 Q 529.9 512.0, 526.7 512.0 M 526.7 510.0 Q 528.6 510.0, 529.6 508.2 Q 530.7 506.4, 530.7 502.9 Q 530.7 499.5, 529.6 497.7 Q 528.6 495.9, 526.7 495.9 Q 524.8 495.9, 523.7 497.7 Q 522.7 499.5, 522.7 502.9 Q 522.7 506.4, 523.7 508.2 Q 524.8 510.0, 526.7 510.0 " fill="#000000"/>
<path class="atom-10" d="M 662.0 502.3 Q 662.0 497.9, 664.1 495.6 Q 666.1 493.3, 670.1 493.3 Q 673.7 493.3, 675.7 495.8 L 674.0 497.2 Q 672.6 495.3, 670.1 495.3 Q 667.4 495.3, 666.0 497.1 Q 664.6 498.9, 664.6 502.3 Q 664.6 505.8, 666.0 507.6 Q 667.5 509.4, 670.3 509.4 Q 672.3 509.4, 674.6 508.2 L 675.3 510.1 Q 674.3 510.7, 672.9 511.0 Q 671.5 511.4, 670.0 511.4 Q 666.1 511.4, 664.1 509.0 Q 662.0 506.7, 662.0 502.3 " fill="#000000"/>
<path class="atom-10" d="M 678.8 509.2 L 682.7 509.2 L 682.7 495.9 L 678.4 497.3 L 677.8 495.8 L 683.3 493.4 L 685.0 493.7 L 685.0 509.2 L 688.5 509.2 L 688.5 511.2 L 678.8 511.2 L 678.8 509.2 " fill="#000000"/>
<path class="atom-10" d="M 691.7 509.2 L 695.6 509.2 L 695.6 495.9 L 691.3 497.3 L 690.7 495.8 L 696.2 493.4 L 697.9 493.7 L 697.9 509.2 L 701.4 509.2 L 701.4 511.2 L 691.7 511.2 L 691.7 509.2 " fill="#000000"/>
<path class="atom-11" d="M 675.3 396.2 Q 675.3 391.8, 677.4 389.5 Q 679.5 387.1, 683.4 387.1 Q 687.0 387.1, 689.0 389.7 L 687.3 391.1 Q 685.9 389.2, 683.4 389.2 Q 680.7 389.2, 679.3 391.0 Q 677.9 392.8, 677.9 396.2 Q 677.9 399.7, 679.3 401.5 Q 680.8 403.3, 683.7 403.3 Q 685.6 403.3, 687.9 402.1 L 688.6 404.0 Q 687.7 404.6, 686.3 404.9 Q 684.9 405.3, 683.3 405.3 Q 679.5 405.3, 677.4 402.9 Q 675.3 400.6, 675.3 396.2 " fill="#000000"/>
<path class="atom-11" d="M 692.2 403.0 L 696.0 403.0 L 696.0 389.8 L 691.8 391.1 L 691.2 389.7 L 696.6 387.2 L 698.4 387.5 L 698.4 403.0 L 701.9 403.0 L 701.9 405.0 L 692.2 405.0 L 692.2 403.0 " fill="#000000"/>
<path class="atom-11" d="M 704.2 390.7 Q 704.8 389.0, 706.4 388.1 Q 707.9 387.1, 710.1 387.1 Q 712.7 387.1, 714.2 388.6 Q 715.7 390.0, 715.7 392.6 Q 715.7 395.2, 713.8 397.7 Q 711.9 400.1, 707.9 403.0 L 716.0 403.0 L 716.0 405.0 L 704.1 405.0 L 704.1 403.4 Q 707.4 401.0, 709.4 399.3 Q 711.3 397.5, 712.3 395.9 Q 713.2 394.4, 713.2 392.7 Q 713.2 391.0, 712.4 390.1 Q 711.5 389.1, 710.1 389.1 Q 708.6 389.1, 707.7 389.7 Q 706.7 390.3, 706.1 391.6 L 704.2 390.7 " fill="#000000"/>
<path class="atom-12" d="M 583.2 343.4 Q 583.2 339.0, 585.3 336.7 Q 587.4 334.4, 591.3 334.4 Q 594.9 334.4, 596.9 337.0 L 595.2 338.3 Q 593.8 336.5, 591.3 336.5 Q 588.6 336.5, 587.2 338.3 Q 585.8 340.0, 585.8 343.4 Q 585.8 346.9, 587.2 348.7 Q 588.7 350.5, 591.6 350.5 Q 593.5 350.5, 595.8 349.4 L 596.5 351.2 Q 595.6 351.8, 594.2 352.2 Q 592.8 352.5, 591.2 352.5 Q 587.4 352.5, 585.3 350.2 Q 583.2 347.8, 583.2 343.4 " fill="#000000"/>
<path class="atom-12" d="M 600.1 350.3 L 604.0 350.3 L 604.0 337.1 L 599.7 338.4 L 599.1 336.9 L 604.5 334.5 L 606.3 334.8 L 606.3 350.3 L 609.8 350.3 L 609.8 352.3 L 600.1 352.3 L 600.1 350.3 " fill="#000000"/>
<path class="atom-12" d="M 620.5 343.0 Q 622.3 343.5, 623.1 344.6 Q 623.9 345.7, 623.9 347.5 Q 623.9 349.0, 623.2 350.1 Q 622.4 351.3, 621.1 351.9 Q 619.7 352.6, 617.9 352.6 Q 616.0 352.6, 614.6 351.9 Q 613.2 351.2, 612.0 349.9 L 613.5 348.4 Q 614.6 349.6, 615.5 350.1 Q 616.4 350.6, 617.9 350.6 Q 619.5 350.6, 620.5 349.7 Q 621.4 348.8, 621.4 347.4 Q 621.4 345.6, 620.4 344.8 Q 619.4 344.0, 617.2 344.0 L 616.0 344.0 L 616.0 342.2 L 617.1 342.2 Q 619.0 342.2, 620.0 341.4 Q 621.1 340.5, 621.1 338.9 Q 621.1 337.8, 620.2 337.1 Q 619.4 336.4, 617.9 336.4 Q 616.4 336.4, 615.5 336.9 Q 614.6 337.5, 613.9 338.8 L 612.2 337.9 Q 612.8 336.4, 614.3 335.4 Q 615.8 334.4, 617.9 334.4 Q 620.5 334.4, 622.0 335.6 Q 623.6 336.9, 623.6 338.9 Q 623.6 340.4, 622.8 341.4 Q 622.0 342.4, 620.5 343.0 " fill="#000000"/>
<path class="atom-13" d="M 476.2 396.8 Q 476.2 392.4, 478.2 390.1 Q 480.3 387.8, 484.2 387.8 Q 487.9 387.8, 489.8 390.4 L 488.2 391.7 Q 486.7 389.9, 484.2 389.9 Q 481.5 389.9, 480.1 391.7 Q 478.7 393.4, 478.7 396.8 Q 478.7 400.3, 480.2 402.1 Q 481.6 403.9, 484.5 403.9 Q 486.4 403.9, 488.7 402.8 L 489.4 404.6 Q 488.5 405.2, 487.1 405.6 Q 485.7 405.9, 484.1 405.9 Q 480.3 405.9, 478.2 403.6 Q 476.2 401.2, 476.2 396.8 " fill="#000000"/>
<path class="atom-13" d="M 493.0 403.7 L 496.9 403.7 L 496.9 390.5 L 492.6 391.8 L 492.1 390.3 L 497.5 387.9 L 499.3 388.2 L 499.3 403.7 L 502.7 403.7 L 502.7 405.7 L 493.0 405.7 L 493.0 403.7 " fill="#000000"/>
<path class="atom-13" d="M 516.6 399.6 L 518.7 399.6 L 518.7 401.6 L 516.6 401.6 L 516.6 405.7 L 514.2 405.7 L 514.2 401.6 L 505.1 401.6 L 505.1 400.1 L 512.8 388.0 L 516.6 388.0 L 516.6 399.6 M 508.0 399.6 L 514.2 399.6 L 514.2 389.6 L 508.0 399.6 " fill="#000000"/>
<path class="atom-14" d="M 776.7 534.7 Q 776.7 530.3, 778.8 528.0 Q 780.9 525.7, 784.8 525.7 Q 788.4 525.7, 790.4 528.3 L 788.7 529.6 Q 787.3 527.7, 784.8 527.7 Q 782.1 527.7, 780.7 529.5 Q 779.3 531.3, 779.3 534.7 Q 779.3 538.2, 780.7 540.0 Q 782.2 541.8, 785.1 541.8 Q 787.0 541.8, 789.3 540.6 L 790.0 542.5 Q 789.1 543.1, 787.7 543.5 Q 786.3 543.8, 784.7 543.8 Q 780.9 543.8, 778.8 541.5 Q 776.7 539.1, 776.7 534.7 " fill="#000000"/>
<path class="atom-14" d="M 793.6 541.6 L 797.4 541.6 L 797.4 528.4 L 793.2 529.7 L 792.6 528.2 L 798.0 525.8 L 799.8 526.1 L 799.8 541.6 L 803.3 541.6 L 803.3 543.6 L 793.6 543.6 L 793.6 541.6 " fill="#000000"/>
<path class="atom-14" d="M 812.0 532.5 Q 813.5 532.5, 814.8 533.2 Q 816.1 533.8, 816.8 535.1 Q 817.5 536.3, 817.5 538.0 Q 817.5 539.8, 816.6 541.1 Q 815.7 542.4, 814.3 543.1 Q 812.8 543.8, 811.2 543.8 Q 809.6 543.8, 808.1 543.2 Q 806.6 542.6, 805.5 541.4 L 807.0 539.9 Q 807.9 540.8, 809.0 541.3 Q 810.1 541.8, 811.3 541.8 Q 812.8 541.8, 813.9 540.8 Q 815.0 539.8, 815.0 538.0 Q 815.0 536.2, 813.9 535.3 Q 812.8 534.4, 811.1 534.4 Q 809.6 534.4, 807.8 535.1 L 806.5 534.4 L 807.3 525.9 L 816.4 525.9 L 816.2 527.9 L 809.4 527.9 L 808.8 533.1 Q 810.4 532.5, 812.0 532.5 " fill="#000000"/>
<path class="atom-15" d="M 852.4 448.7 Q 852.4 444.3, 854.4 442.0 Q 856.5 439.6, 860.4 439.6 Q 864.1 439.6, 866.0 442.2 L 864.4 443.6 Q 862.9 441.7, 860.4 441.7 Q 857.7 441.7, 856.3 443.5 Q 854.9 445.3, 854.9 448.7 Q 854.9 452.2, 856.4 454.0 Q 857.8 455.8, 860.7 455.8 Q 862.6 455.8, 864.9 454.6 L 865.6 456.5 Q 864.7 457.1, 863.3 457.4 Q 861.9 457.8, 860.3 457.8 Q 856.5 457.8, 854.4 455.4 Q 852.4 453.1, 852.4 448.7 " fill="#000000"/>
<path class="atom-15" d="M 869.2 455.5 L 873.1 455.5 L 873.1 442.3 L 868.8 443.6 L 868.2 442.2 L 873.6 439.7 L 875.4 440.0 L 875.4 455.5 L 878.9 455.5 L 878.9 457.5 L 869.2 457.5 L 869.2 455.5 " fill="#000000"/>
<path class="atom-15" d="M 888.1 446.5 Q 889.6 446.5, 890.9 447.2 Q 892.1 447.8, 892.8 449.1 Q 893.4 450.3, 893.4 451.8 Q 893.4 453.6, 892.7 454.9 Q 891.9 456.2, 890.6 457.0 Q 889.2 457.7, 887.5 457.7 Q 884.3 457.7, 882.7 455.6 Q 881.2 453.5, 881.2 449.2 Q 881.2 444.5, 883.1 442.1 Q 885.1 439.6, 888.9 439.6 Q 890.0 439.6, 890.9 439.9 Q 891.8 440.1, 892.7 440.7 L 891.8 442.3 Q 890.5 441.6, 888.9 441.6 Q 886.4 441.6, 885.1 443.3 Q 883.8 444.9, 883.7 448.2 Q 884.6 447.4, 885.7 446.9 Q 886.9 446.5, 888.1 446.5 M 887.5 455.7 Q 888.5 455.7, 889.2 455.2 Q 890.0 454.7, 890.5 453.8 Q 890.9 452.9, 890.9 451.9 Q 890.9 450.3, 890.1 449.4 Q 889.2 448.5, 887.6 448.5 Q 886.6 448.5, 885.5 448.9 Q 884.4 449.4, 883.7 450.1 Q 883.8 453.0, 884.7 454.4 Q 885.6 455.7, 887.5 455.7 " fill="#000000"/>
<path class="atom-16" d="M 776.2 363.0 Q 776.2 358.6, 778.3 356.3 Q 780.4 354.0, 784.3 354.0 Q 787.9 354.0, 789.9 356.6 L 788.2 357.9 Q 786.8 356.0, 784.3 356.0 Q 781.6 356.0, 780.2 357.8 Q 778.8 359.6, 778.8 363.0 Q 778.8 366.5, 780.2 368.3 Q 781.7 370.1, 784.6 370.1 Q 786.5 370.1, 788.8 368.9 L 789.5 370.8 Q 788.6 371.4, 787.2 371.8 Q 785.8 372.1, 784.2 372.1 Q 780.4 372.1, 778.3 369.8 Q 776.2 367.4, 776.2 363.0 " fill="#000000"/>
<path class="atom-16" d="M 793.1 369.9 L 796.9 369.9 L 796.9 356.7 L 792.7 358.0 L 792.1 356.5 L 797.5 354.1 L 799.3 354.4 L 799.3 369.9 L 802.8 369.9 L 802.8 371.9 L 793.1 371.9 L 793.1 369.9 " fill="#000000"/>
<path class="atom-16" d="M 814.3 356.2 L 805.0 356.2 L 805.0 354.2 L 816.8 354.2 L 816.8 356.0 L 809.6 371.9 L 807.2 371.9 L 814.3 356.2 " fill="#000000"/>
<path class="atom-17" d="M 413.3 450.2 Q 413.3 445.8, 415.4 443.5 Q 417.5 441.2, 421.4 441.2 Q 425.0 441.2, 427.0 443.8 L 425.3 445.1 Q 423.9 443.2, 421.4 443.2 Q 418.7 443.2, 417.3 445.0 Q 415.9 446.8, 415.9 450.2 Q 415.9 453.7, 417.3 455.5 Q 418.8 457.3, 421.7 457.3 Q 423.6 457.3, 425.9 456.1 L 426.6 458.0 Q 425.7 458.6, 424.3 459.0 Q 422.9 459.3, 421.3 459.3 Q 417.5 459.3, 415.4 457.0 Q 413.3 454.6, 413.3 450.2 " fill="#000000"/>
<path class="atom-17" d="M 430.2 457.1 L 434.1 457.1 L 434.1 443.9 L 429.8 445.2 L 429.2 443.7 L 434.6 441.3 L 436.4 441.6 L 436.4 457.1 L 439.9 457.1 L 439.9 459.1 L 430.2 459.1 L 430.2 457.1 " fill="#000000"/>
<path class="atom-17" d="M 451.2 449.7 Q 452.8 450.4, 453.7 451.5 Q 454.7 452.5, 454.7 454.2 Q 454.7 455.7, 453.9 456.9 Q 453.1 458.1, 451.7 458.7 Q 450.3 459.3, 448.5 459.3 Q 445.6 459.3, 443.9 458.0 Q 442.2 456.6, 442.2 454.2 Q 442.2 452.8, 442.9 451.7 Q 443.7 450.6, 445.2 449.8 Q 444.1 449.1, 443.4 448.2 Q 442.8 447.2, 442.8 445.7 Q 442.8 443.6, 444.3 442.4 Q 445.8 441.2, 448.4 441.2 Q 451.0 441.2, 452.5 442.4 Q 454.0 443.6, 454.0 445.7 Q 454.0 447.0, 453.3 448.0 Q 452.6 448.9, 451.2 449.7 M 448.4 443.1 Q 446.9 443.1, 446.1 443.8 Q 445.3 444.5, 445.3 445.7 Q 445.3 446.6, 445.9 447.3 Q 446.4 447.9, 447.2 448.2 Q 448.0 448.6, 449.5 449.1 Q 450.6 448.3, 451.0 447.5 Q 451.5 446.7, 451.5 445.7 Q 451.5 444.5, 450.7 443.8 Q 449.9 443.1, 448.4 443.1 M 448.5 457.5 Q 450.2 457.5, 451.2 456.6 Q 452.2 455.7, 452.2 454.2 Q 452.2 453.3, 451.6 452.7 Q 451.1 452.1, 450.3 451.7 Q 449.5 451.4, 448.1 450.9 L 447.0 450.5 Q 445.8 451.3, 445.2 452.2 Q 444.7 453.1, 444.7 454.2 Q 444.7 455.7, 445.7 456.6 Q 446.8 457.5, 448.5 457.5 " fill="#000000"/>
<path class="atom-18" d="M 699.6 290.6 Q 699.6 286.2, 701.6 283.9 Q 703.7 281.6, 707.6 281.6 Q 711.3 281.6, 713.2 284.1 L 711.6 285.5 Q 710.2 283.6, 707.6 283.6 Q 705.0 283.6, 703.5 285.4 Q 702.1 287.2, 702.1 290.6 Q 702.1 294.1, 703.6 295.9 Q 705.1 297.7, 707.9 297.7 Q 709.9 297.7, 712.1 296.5 L 712.8 298.4 Q 711.9 299.0, 710.5 299.3 Q 709.1 299.7, 707.6 299.7 Q 703.7 299.7, 701.6 297.3 Q 699.6 295.0, 699.6 290.6 " fill="#000000"/>
<path class="atom-18" d="M 716.4 297.5 L 720.3 297.5 L 720.3 284.2 L 716.0 285.6 L 715.4 284.1 L 720.9 281.7 L 722.6 282.0 L 722.6 297.5 L 726.1 297.5 L 726.1 299.5 L 716.4 299.5 L 716.4 297.5 " fill="#000000"/>
<path class="atom-18" d="M 734.3 281.6 Q 737.5 281.6, 739.1 283.7 Q 740.7 285.8, 740.7 290.1 Q 740.7 294.8, 738.7 297.2 Q 736.7 299.7, 733.0 299.7 Q 731.9 299.7, 730.9 299.4 Q 730.0 299.2, 729.1 298.6 L 730.1 297.0 Q 731.4 297.7, 732.9 297.7 Q 735.4 297.7, 736.7 296.1 Q 738.0 294.4, 738.1 291.1 Q 737.2 291.9, 736.1 292.4 Q 735.0 292.8, 733.7 292.8 Q 732.2 292.8, 731.0 292.1 Q 729.7 291.5, 729.1 290.2 Q 728.4 289.0, 728.4 287.5 Q 728.4 285.7, 729.1 284.4 Q 729.9 283.1, 731.3 282.3 Q 732.6 281.6, 734.3 281.6 M 730.9 287.4 Q 730.9 289.0, 731.8 289.9 Q 732.6 290.8, 734.2 290.8 Q 735.3 290.8, 736.3 290.4 Q 737.4 289.9, 738.1 289.2 Q 738.0 286.3, 737.1 284.9 Q 736.2 283.6, 734.3 283.6 Q 733.4 283.6, 732.6 284.1 Q 731.8 284.6, 731.3 285.5 Q 730.9 286.4, 730.9 287.4 " fill="#000000"/>
<path class="atom-19" d="M 820.8 261.9 Q 820.8 257.7, 822.9 255.3 Q 825.0 252.9, 829.0 252.9 Q 832.9 252.9, 835.0 255.3 Q 837.1 257.7, 837.1 261.9 Q 837.1 266.2, 835.0 268.7 Q 832.8 271.1, 829.0 271.1 Q 825.1 271.1, 822.9 268.7 Q 820.8 266.3, 820.8 261.9 M 829.0 269.1 Q 831.7 269.1, 833.1 267.3 Q 834.6 265.5, 834.6 261.9 Q 834.6 258.5, 833.1 256.7 Q 831.7 254.9, 829.0 254.9 Q 826.3 254.9, 824.8 256.7 Q 823.3 258.4, 823.3 261.9 Q 823.3 265.5, 824.8 267.3 Q 826.3 269.1, 829.0 269.1 " fill="#FF0000"/>
<path class="atom-19" d="M 839.8 256.5 Q 840.4 254.8, 842.0 253.9 Q 843.5 252.9, 845.7 252.9 Q 848.3 252.9, 849.8 254.4 Q 851.3 255.8, 851.3 258.4 Q 851.3 261.0, 849.4 263.5 Q 847.5 265.9, 843.5 268.8 L 851.6 268.8 L 851.6 270.8 L 839.7 270.8 L 839.7 269.2 Q 843.0 266.8, 845.0 265.1 Q 846.9 263.3, 847.9 261.7 Q 848.8 260.2, 848.8 258.5 Q 848.8 256.8, 848.0 255.9 Q 847.1 254.9, 845.7 254.9 Q 844.2 254.9, 843.3 255.5 Q 842.3 256.1, 841.7 257.4 L 839.8 256.5 " fill="#FF0000"/>
<path class="atom-19" d="M 861.0 271.0 Q 857.7 271.0, 856.1 268.6 Q 854.5 266.2, 854.5 262.0 Q 854.5 257.7, 856.1 255.3 Q 857.7 252.9, 861.0 252.9 Q 864.2 252.9, 865.8 255.3 Q 867.4 257.7, 867.4 262.0 Q 867.4 266.2, 865.8 268.6 Q 864.2 271.0, 861.0 271.0 M 861.0 269.0 Q 862.9 269.0, 863.9 267.3 Q 864.9 265.5, 864.9 262.0 Q 864.9 258.5, 863.9 256.7 Q 862.9 254.9, 861.0 254.9 Q 859.1 254.9, 858.0 256.7 Q 857.0 258.5, 857.0 262.0 Q 857.0 265.5, 858.0 267.3 Q 859.1 269.0, 861.0 269.0 " fill="#FF0000"/>
<path class="atom-20" d="M 106.6 716.5 Q 106.6 712.2, 108.7 709.9 Q 110.8 707.5, 114.7 707.5 Q 118.6 707.5, 120.7 709.9 Q 122.8 712.2, 122.8 716.5 Q 122.8 720.8, 120.7 723.2 Q 118.6 725.7, 114.7 725.7 Q 110.8 725.7, 108.7 723.2 Q 106.6 720.8, 106.6 716.5 M 114.7 723.7 Q 117.4 723.7, 118.8 721.9 Q 120.3 720.0, 120.3 716.5 Q 120.3 713.0, 118.8 711.3 Q 117.4 709.5, 114.7 709.5 Q 112.0 709.5, 110.5 711.2 Q 109.1 713.0, 109.1 716.5 Q 109.1 720.1, 110.5 721.9 Q 112.0 723.7, 114.7 723.7 " fill="#FF0000"/>
<path class="atom-20" d="M 125.4 711.0 Q 126.1 709.4, 127.6 708.4 Q 129.2 707.5, 131.3 707.5 Q 134.0 707.5, 135.5 708.9 Q 137.0 710.4, 137.0 713.0 Q 137.0 715.6, 135.0 718.0 Q 133.1 720.5, 129.1 723.4 L 137.3 723.4 L 137.3 725.4 L 125.4 725.4 L 125.4 723.7 Q 128.7 721.4, 130.6 719.6 Q 132.6 717.9, 133.5 716.3 Q 134.5 714.7, 134.5 713.1 Q 134.5 711.4, 133.6 710.4 Q 132.8 709.5, 131.3 709.5 Q 129.9 709.5, 128.9 710.1 Q 128.0 710.6, 127.3 711.9 L 125.4 711.0 " fill="#FF0000"/>
<path class="atom-20" d="M 141.0 723.4 L 144.9 723.4 L 144.9 710.2 L 140.6 711.5 L 140.1 710.0 L 145.5 707.6 L 147.3 707.9 L 147.3 723.4 L 150.7 723.4 L 150.7 725.4 L 141.0 725.4 L 141.0 723.4 " fill="#FF0000"/>
<text x="1000" y="50" font-size="8" font-family="Verdana" font-weight="normal" letter-spacing="0" text-anchor="start" fill="black">Highlighted Atoms:
Primary SOM: Red
Secondary SOM: Green
Tertiary SOM: Cyan
</text></svg>
