<?xml version='1.0' encoding='ASCII' standalone='yes'?>
<svg xmlns="http://www.w3.org/2000/svg" xmlns:rdkit="http://www.rdkit.org/xml" xmlns:xlink="http://www.w3.org/1999/xlink" style="background-color: white;" version="1.1" baseProfile="full" xml:space="preserve" width="1000px" height="1000px" viewBox="0 0 1000 1000">
<!-- END OF HEADER -->
<rect style="opacity:1.0;fill:#FFFFFF;stroke:none" width="1000.0" height="1000.0" x="0.0" y="0.0"> </rect>
<ellipse cx="463.3" cy="594.4" rx="28.8" ry="17.3" class="atom-12" style="fill:#B20000;fill-rule:evenodd;stroke:#B20000;stroke-width:1.0px;stroke-linecap:butt;stroke-linejoin:miter;stroke-opacity:1"/>
<path class="bond-0 atom-1 atom-0" d="M 207.6,445.1 L 234.6,429.6" style="fill:none;fill-rule:evenodd;stroke:#000000;stroke-width:2.0px;stroke-linecap:butt;stroke-linejoin:miter;stroke-opacity:1"/>
<path class="bond-0 atom-1 atom-0" d="M 211.9,452.6 L 239.0,437.1" style="fill:none;fill-rule:evenodd;stroke:#000000;stroke-width:2.0px;stroke-linecap:butt;stroke-linejoin:miter;stroke-opacity:1"/>
<path class="bond-1 atom-2 atom-1" d="M 199.7,496.6 L 199.7,460.5" style="fill:none;fill-rule:evenodd;stroke:#000000;stroke-width:2.0px;stroke-linecap:butt;stroke-linejoin:miter;stroke-opacity:1"/>
<path class="bond-2 atom-3 atom-2" d="M 233.0,526.7 L 207.6,512.0" style="fill:none;fill-rule:evenodd;stroke:#000000;stroke-width:2.0px;stroke-linecap:butt;stroke-linejoin:miter;stroke-opacity:1"/>
<path class="bond-2 atom-3 atom-2" d="M 237.3,519.2 L 211.9,504.5" style="fill:none;fill-rule:evenodd;stroke:#000000;stroke-width:2.0px;stroke-linecap:butt;stroke-linejoin:miter;stroke-opacity:1"/>
<path class="bond-3 atom-6 atom-2" d="M 166.9,526.3 L 173.7,522.4" style="fill:none;fill-rule:evenodd;stroke:#FF0000;stroke-width:2.0px;stroke-linecap:butt;stroke-linejoin:miter;stroke-opacity:1"/>
<path class="bond-3 atom-6 atom-2" d="M 173.7,522.4 L 180.5,518.5" style="fill:none;fill-rule:evenodd;stroke:#000000;stroke-width:2.0px;stroke-linecap:butt;stroke-linejoin:miter;stroke-opacity:1"/>
<path class="bond-4 atom-7 atom-1" d="M 157.9,425.5 L 169.4,432.1" style="fill:none;fill-rule:evenodd;stroke:#FF0000;stroke-width:2.0px;stroke-linecap:butt;stroke-linejoin:miter;stroke-opacity:1"/>
<path class="bond-4 atom-7 atom-1" d="M 169.4,432.1 L 181.0,438.8" style="fill:none;fill-rule:evenodd;stroke:#000000;stroke-width:2.0px;stroke-linecap:butt;stroke-linejoin:miter;stroke-opacity:1"/>
<path class="bond-5 atom-10 atom-9" d="M 643.6,625.9 L 627.4,597.7" style="fill:none;fill-rule:evenodd;stroke:#000000;stroke-width:2.0px;stroke-linecap:butt;stroke-linejoin:miter;stroke-opacity:1"/>
<path class="bond-6 atom-11 atom-9" d="M 571.1,586.6 L 583.7,586.6" style="fill:none;fill-rule:evenodd;stroke:#000000;stroke-width:2.0px;stroke-linecap:butt;stroke-linejoin:miter;stroke-opacity:1"/>
<path class="bond-7 atom-13 atom-4" d="M 818.8,518.8 L 825.7,522.8" style="fill:none;fill-rule:evenodd;stroke:#000000;stroke-width:2.0px;stroke-linecap:butt;stroke-linejoin:miter;stroke-opacity:1"/>
<path class="bond-7 atom-13 atom-4" d="M 825.7,522.8 L 832.7,526.8" style="fill:none;fill-rule:evenodd;stroke:#FF0000;stroke-width:2.0px;stroke-linecap:butt;stroke-linejoin:miter;stroke-opacity:1"/>
<path class="bond-8 atom-14 atom-5" d="M 818.6,439.5 L 829.3,433.3" style="fill:none;fill-rule:evenodd;stroke:#000000;stroke-width:2.0px;stroke-linecap:butt;stroke-linejoin:miter;stroke-opacity:1"/>
<path class="bond-8 atom-14 atom-5" d="M 829.3,433.3 L 840.1,427.1" style="fill:none;fill-rule:evenodd;stroke:#FF0000;stroke-width:2.0px;stroke-linecap:butt;stroke-linejoin:miter;stroke-opacity:1"/>
<path class="bond-9 atom-14 atom-13" d="M 800.1,461.0 L 800.0,497.2" style="fill:none;fill-rule:evenodd;stroke:#000000;stroke-width:2.0px;stroke-linecap:butt;stroke-linejoin:miter;stroke-opacity:1"/>
<path class="bond-9 atom-14 atom-13" d="M 791.4,461.0 L 791.4,497.2" style="fill:none;fill-rule:evenodd;stroke:#000000;stroke-width:2.0px;stroke-linecap:butt;stroke-linejoin:miter;stroke-opacity:1"/>
<path class="bond-10 atom-15 atom-14" d="M 769.2,432.3 L 781.3,439.3" style="fill:none;fill-rule:evenodd;stroke:#000000;stroke-width:2.0px;stroke-linecap:butt;stroke-linejoin:miter;stroke-opacity:1"/>
<path class="bond-11 atom-16 atom-15" d="M 707.8,445.6 L 730.8,432.3" style="fill:none;fill-rule:evenodd;stroke:#000000;stroke-width:2.0px;stroke-linecap:butt;stroke-linejoin:miter;stroke-opacity:1"/>
<path class="bond-11 atom-16 atom-15" d="M 712.1,453.1 L 735.2,439.8" style="fill:none;fill-rule:evenodd;stroke:#000000;stroke-width:2.0px;stroke-linecap:butt;stroke-linejoin:miter;stroke-opacity:1"/>
<path class="bond-12 atom-17 atom-16" d="M 700.0,497.0 L 700.0,460.9" style="fill:none;fill-rule:evenodd;stroke:#000000;stroke-width:2.0px;stroke-linecap:butt;stroke-linejoin:miter;stroke-opacity:1"/>
<path class="bond-13 atom-18 atom-13" d="M 768.8,525.9 L 780.8,519.0" style="fill:none;fill-rule:evenodd;stroke:#000000;stroke-width:2.0px;stroke-linecap:butt;stroke-linejoin:miter;stroke-opacity:1"/>
<path class="bond-14 atom-18 atom-17" d="M 731.2,525.9 L 708.1,512.6" style="fill:none;fill-rule:evenodd;stroke:#000000;stroke-width:2.0px;stroke-linecap:butt;stroke-linejoin:miter;stroke-opacity:1"/>
<path class="bond-14 atom-18 atom-17" d="M 735.5,518.4 L 712.5,505.0" style="fill:none;fill-rule:evenodd;stroke:#000000;stroke-width:2.0px;stroke-linecap:butt;stroke-linejoin:miter;stroke-opacity:1"/>
<path class="bond-15 atom-19 atom-8" d="M 656.2,547.5 L 672.5,575.9" style="fill:none;fill-rule:evenodd;stroke:#000000;stroke-width:2.0px;stroke-linecap:butt;stroke-linejoin:miter;stroke-opacity:1"/>
<path class="bond-16 atom-19 atom-9" d="M 643.5,547.8 L 627.3,575.8" style="fill:none;fill-rule:evenodd;stroke:#000000;stroke-width:2.0px;stroke-linecap:butt;stroke-linejoin:miter;stroke-opacity:1"/>
<path class="bond-17 atom-19 atom-17" d="M 668.8,525.8 L 681.1,518.7" style="fill:none;fill-rule:evenodd;stroke:#000000;stroke-width:2.0px;stroke-linecap:butt;stroke-linejoin:miter;stroke-opacity:1"/>
<path class="bond-18 atom-20 atom-19" d="M 618.7,518.6 L 631.1,525.8" style="fill:none;fill-rule:evenodd;stroke:#000000;stroke-width:2.0px;stroke-linecap:butt;stroke-linejoin:miter;stroke-opacity:1"/>
<path class="bond-19 atom-21 atom-20" d="M 568.7,525.7 L 580.7,518.8" style="fill:none;fill-rule:evenodd;stroke:#000000;stroke-width:2.0px;stroke-linecap:butt;stroke-linejoin:miter;stroke-opacity:1"/>
<path class="bond-20 atom-22 atom-21" d="M 519.1,518.8 L 531.1,525.7" style="fill:none;fill-rule:evenodd;stroke:#000000;stroke-width:2.0px;stroke-linecap:butt;stroke-linejoin:miter;stroke-opacity:1"/>
<path class="bond-21 atom-23 atom-12" d="M 449.8,547.4 L 449.8,565.4" style="fill:none;fill-rule:evenodd;stroke:#0000FF;stroke-width:2.0px;stroke-linecap:butt;stroke-linejoin:miter;stroke-opacity:1"/>
<path class="bond-21 atom-23 atom-12" d="M 449.8,565.4 L 449.8,583.4" style="fill:none;fill-rule:evenodd;stroke:#000000;stroke-width:2.0px;stroke-linecap:butt;stroke-linejoin:miter;stroke-opacity:1"/>
<path class="bond-22 atom-23 atom-22" d="M 468.3,525.9 L 474.5,522.3" style="fill:none;fill-rule:evenodd;stroke:#0000FF;stroke-width:2.0px;stroke-linecap:butt;stroke-linejoin:miter;stroke-opacity:1"/>
<path class="bond-22 atom-23 atom-22" d="M 474.5,522.3 L 480.6,518.8" style="fill:none;fill-rule:evenodd;stroke:#000000;stroke-width:2.0px;stroke-linecap:butt;stroke-linejoin:miter;stroke-opacity:1"/>
<path class="bond-23 atom-24 atom-23" d="M 418.9,518.6 L 425.2,522.3" style="fill:none;fill-rule:evenodd;stroke:#000000;stroke-width:2.0px;stroke-linecap:butt;stroke-linejoin:miter;stroke-opacity:1"/>
<path class="bond-23 atom-24 atom-23" d="M 425.2,522.3 L 431.4,525.9" style="fill:none;fill-rule:evenodd;stroke:#0000FF;stroke-width:2.0px;stroke-linecap:butt;stroke-linejoin:miter;stroke-opacity:1"/>
<path class="bond-24 atom-25 atom-24" d="M 368.6,525.6 L 380.6,518.7" style="fill:none;fill-rule:evenodd;stroke:#000000;stroke-width:2.0px;stroke-linecap:butt;stroke-linejoin:miter;stroke-opacity:1"/>
<path class="bond-25 atom-26 atom-3" d="M 280.5,518.6 L 266.4,526.7" style="fill:none;fill-rule:evenodd;stroke:#000000;stroke-width:2.0px;stroke-linecap:butt;stroke-linejoin:miter;stroke-opacity:1"/>
<path class="bond-26 atom-26 atom-25" d="M 318.5,518.4 L 331.0,525.6" style="fill:none;fill-rule:evenodd;stroke:#000000;stroke-width:2.0px;stroke-linecap:butt;stroke-linejoin:miter;stroke-opacity:1"/>
<path class="bond-27 atom-27 atom-0" d="M 291.1,444.7 L 265.0,429.6" style="fill:none;fill-rule:evenodd;stroke:#000000;stroke-width:2.0px;stroke-linecap:butt;stroke-linejoin:miter;stroke-opacity:1"/>
<path class="bond-28 atom-27 atom-26" d="M 299.8,460.8 L 299.8,496.7" style="fill:none;fill-rule:evenodd;stroke:#000000;stroke-width:2.0px;stroke-linecap:butt;stroke-linejoin:miter;stroke-opacity:1"/>
<path class="bond-28 atom-27 atom-26" d="M 291.1,460.8 L 291.1,496.6" style="fill:none;fill-rule:evenodd;stroke:#000000;stroke-width:2.0px;stroke-linecap:butt;stroke-linejoin:miter;stroke-opacity:1"/>
<path class="bond-29 atom-28 atom-4" d="M 891.3,513.0 L 879.4,519.9" style="fill:none;fill-rule:evenodd;stroke:#000000;stroke-width:2.0px;stroke-linecap:butt;stroke-linejoin:miter;stroke-opacity:1"/>
<path class="bond-29 atom-28 atom-4" d="M 879.4,519.9 L 867.4,526.8" style="fill:none;fill-rule:evenodd;stroke:#FF0000;stroke-width:2.0px;stroke-linecap:butt;stroke-linejoin:miter;stroke-opacity:1"/>
<path class="bond-30 atom-29 atom-5" d="M 850.2,374.6 L 850.1,392.5" style="fill:none;fill-rule:evenodd;stroke:#000000;stroke-width:2.0px;stroke-linecap:butt;stroke-linejoin:miter;stroke-opacity:1"/>
<path class="bond-30 atom-29 atom-5" d="M 850.1,392.5 L 850.1,410.4" style="fill:none;fill-rule:evenodd;stroke:#FF0000;stroke-width:2.0px;stroke-linecap:butt;stroke-linejoin:miter;stroke-opacity:1"/>
<path class="bond-31 atom-30 atom-6" d="M 106.9,511.5 L 119.7,518.9" style="fill:none;fill-rule:evenodd;stroke:#000000;stroke-width:2.0px;stroke-linecap:butt;stroke-linejoin:miter;stroke-opacity:1"/>
<path class="bond-31 atom-30 atom-6" d="M 119.7,518.9 L 132.4,526.3" style="fill:none;fill-rule:evenodd;stroke:#FF0000;stroke-width:2.0px;stroke-linecap:butt;stroke-linejoin:miter;stroke-opacity:1"/>
<path class="bond-32 atom-31 atom-7" d="M 149.8,374.1 L 149.8,392.0" style="fill:none;fill-rule:evenodd;stroke:#000000;stroke-width:2.0px;stroke-linecap:butt;stroke-linejoin:miter;stroke-opacity:1"/>
<path class="bond-32 atom-31 atom-7" d="M 149.8,392.0 L 149.8,409.9" style="fill:none;fill-rule:evenodd;stroke:#FF0000;stroke-width:2.0px;stroke-linecap:butt;stroke-linejoin:miter;stroke-opacity:1"/>
<path class="bond-33 atom-32 atom-8" d="M 701.5,626.1 L 693.3,611.9" style="fill:none;fill-rule:evenodd;stroke:#0000FF;stroke-width:2.0px;stroke-linecap:butt;stroke-linejoin:miter;stroke-opacity:1"/>
<path class="bond-33 atom-32 atom-8" d="M 693.3,611.9 L 685.1,597.8" style="fill:none;fill-rule:evenodd;stroke:#000000;stroke-width:2.0px;stroke-linecap:butt;stroke-linejoin:miter;stroke-opacity:1"/>
<path class="bond-33 atom-32 atom-8" d="M 694.0,630.4 L 685.8,616.3" style="fill:none;fill-rule:evenodd;stroke:#0000FF;stroke-width:2.0px;stroke-linecap:butt;stroke-linejoin:miter;stroke-opacity:1"/>
<path class="bond-33 atom-32 atom-8" d="M 685.8,616.3 L 677.6,602.1" style="fill:none;fill-rule:evenodd;stroke:#000000;stroke-width:2.0px;stroke-linecap:butt;stroke-linejoin:miter;stroke-opacity:1"/>
<path class="bond-33 atom-32 atom-8" d="M 709.0,621.8 L 700.8,607.6" style="fill:none;fill-rule:evenodd;stroke:#0000FF;stroke-width:2.0px;stroke-linecap:butt;stroke-linejoin:miter;stroke-opacity:1"/>
<path class="bond-33 atom-32 atom-8" d="M 700.8,607.6 L 692.6,593.5" style="fill:none;fill-rule:evenodd;stroke:#000000;stroke-width:2.0px;stroke-linecap:butt;stroke-linejoin:miter;stroke-opacity:1"/>
<path class="atom-0" d="M 236.5 420.9 Q 236.5 416.5, 238.6 414.2 Q 240.7 411.9, 244.6 411.9 Q 248.2 411.9, 250.2 414.5 L 248.5 415.8 Q 247.1 413.9, 244.6 413.9 Q 241.9 413.9, 240.5 415.7 Q 239.1 417.5, 239.1 420.9 Q 239.1 424.4, 240.5 426.2 Q 242.0 428.0, 244.9 428.0 Q 246.8 428.0, 249.1 426.8 L 249.8 428.7 Q 248.9 429.3, 247.5 429.7 Q 246.1 430.0, 244.5 430.0 Q 240.7 430.0, 238.6 427.7 Q 236.5 425.3, 236.5 420.9 " fill="#000000"/>
<path class="atom-0" d="M 253.4 427.8 L 257.2 427.8 L 257.2 414.6 L 253.0 415.9 L 252.4 414.4 L 257.8 412.0 L 259.6 412.3 L 259.6 427.8 L 263.1 427.8 L 263.1 429.8 L 253.4 429.8 L 253.4 427.8 " fill="#000000"/>
<path class="atom-1" d="M 177.9 449.7 Q 177.9 445.3, 179.9 443.0 Q 182.0 440.7, 185.9 440.7 Q 189.6 440.7, 191.5 443.3 L 189.9 444.6 Q 188.4 442.8, 185.9 442.8 Q 183.2 442.8, 181.8 444.6 Q 180.4 446.3, 180.4 449.7 Q 180.4 453.2, 181.9 455.0 Q 183.3 456.8, 186.2 456.8 Q 188.1 456.8, 190.4 455.7 L 191.1 457.5 Q 190.2 458.1, 188.8 458.5 Q 187.4 458.8, 185.8 458.8 Q 182.0 458.8, 179.9 456.5 Q 177.9 454.1, 177.9 449.7 " fill="#000000"/>
<path class="atom-1" d="M 193.8 444.3 Q 194.5 442.6, 196.0 441.7 Q 197.6 440.7, 199.7 440.7 Q 202.4 440.7, 203.9 442.2 Q 205.4 443.6, 205.4 446.2 Q 205.4 448.8, 203.5 451.3 Q 201.5 453.7, 197.5 456.6 L 205.7 456.6 L 205.7 458.6 L 193.8 458.6 L 193.8 456.9 Q 197.1 454.6, 199.0 452.8 Q 201.0 451.1, 202.0 449.5 Q 202.9 447.9, 202.9 446.3 Q 202.9 444.6, 202.1 443.7 Q 201.2 442.7, 199.7 442.7 Q 198.3 442.7, 197.4 443.3 Q 196.4 443.9, 195.7 445.1 L 193.8 444.3 " fill="#000000"/>
<path class="atom-2" d="M 177.8 507.5 Q 177.8 503.1, 179.9 500.8 Q 181.9 498.5, 185.9 498.5 Q 189.5 498.5, 191.5 501.1 L 189.8 502.4 Q 188.4 500.5, 185.9 500.5 Q 183.2 500.5, 181.8 502.3 Q 180.4 504.1, 180.4 507.5 Q 180.4 511.0, 181.8 512.8 Q 183.3 514.6, 186.1 514.6 Q 188.1 514.6, 190.4 513.4 L 191.1 515.3 Q 190.1 515.9, 188.7 516.3 Q 187.3 516.6, 185.8 516.6 Q 181.9 516.6, 179.9 514.3 Q 177.8 511.9, 177.8 507.5 " fill="#000000"/>
<path class="atom-2" d="M 202.2 507.1 Q 204.0 507.6, 204.8 508.7 Q 205.6 509.8, 205.6 511.5 Q 205.6 513.0, 204.9 514.2 Q 204.1 515.4, 202.8 516.0 Q 201.4 516.6, 199.6 516.6 Q 197.7 516.6, 196.3 516.0 Q 194.9 515.3, 193.7 514.0 L 195.2 512.5 Q 196.3 513.7, 197.2 514.2 Q 198.1 514.6, 199.6 514.6 Q 201.2 514.6, 202.2 513.8 Q 203.1 512.9, 203.1 511.5 Q 203.1 509.7, 202.1 508.9 Q 201.1 508.1, 198.9 508.1 L 197.7 508.1 L 197.7 506.3 L 198.8 506.3 Q 200.7 506.3, 201.7 505.4 Q 202.8 504.6, 202.8 503.0 Q 202.8 501.9, 201.9 501.2 Q 201.1 500.5, 199.6 500.5 Q 198.1 500.5, 197.2 501.0 Q 196.3 501.5, 195.6 502.9 L 193.9 501.9 Q 194.5 500.5, 196.0 499.5 Q 197.5 498.5, 199.6 498.5 Q 202.2 498.5, 203.7 499.7 Q 205.3 500.9, 205.3 503.0 Q 205.3 504.4, 204.5 505.5 Q 203.7 506.5, 202.2 507.1 " fill="#000000"/>
<path class="atom-3" d="M 234.9 536.4 Q 234.9 532.0, 236.9 529.7 Q 239.0 527.4, 242.9 527.4 Q 246.6 527.4, 248.5 530.0 L 246.9 531.3 Q 245.5 529.4, 242.9 529.4 Q 240.3 529.4, 238.8 531.2 Q 237.4 533.0, 237.4 536.4 Q 237.4 539.9, 238.9 541.7 Q 240.4 543.5, 243.2 543.5 Q 245.2 543.5, 247.4 542.3 L 248.1 544.2 Q 247.2 544.8, 245.8 545.2 Q 244.4 545.5, 242.9 545.5 Q 239.0 545.5, 236.9 543.2 Q 234.9 540.8, 234.9 536.4 " fill="#000000"/>
<path class="atom-3" d="M 262.4 539.2 L 264.5 539.2 L 264.5 541.2 L 262.4 541.2 L 262.4 545.3 L 260.1 545.3 L 260.1 541.2 L 250.9 541.2 L 250.9 539.6 L 258.7 527.6 L 262.4 527.6 L 262.4 539.2 M 253.8 539.2 L 260.1 539.2 L 260.1 529.2 L 253.8 539.2 " fill="#000000"/>
<path class="atom-4" d="M 834.6 536.9 Q 834.6 532.6, 836.7 530.3 Q 838.8 527.9, 842.7 527.9 Q 846.6 527.9, 848.7 530.3 Q 850.8 532.6, 850.8 536.9 Q 850.8 541.2, 848.7 543.6 Q 846.6 546.1, 842.7 546.1 Q 838.8 546.1, 836.7 543.6 Q 834.6 541.2, 834.6 536.9 M 842.7 544.1 Q 845.4 544.1, 846.9 542.3 Q 848.3 540.4, 848.3 536.9 Q 848.3 533.4, 846.9 531.7 Q 845.4 529.9, 842.7 529.9 Q 840.0 529.9, 838.5 531.6 Q 837.1 533.4, 837.1 536.9 Q 837.1 540.5, 838.5 542.3 Q 840.0 544.1, 842.7 544.1 " fill="#FF0000"/>
<path class="atom-4" d="M 859.9 534.7 Q 861.5 534.7, 862.7 535.4 Q 864.0 536.0, 864.7 537.3 Q 865.5 538.5, 865.5 540.2 Q 865.5 542.0, 864.6 543.3 Q 863.7 544.6, 862.2 545.3 Q 860.8 546.0, 859.1 546.0 Q 857.5 546.0, 856.0 545.4 Q 854.5 544.8, 853.5 543.6 L 855.0 542.1 Q 855.8 543.0, 856.9 543.5 Q 858.1 544.0, 859.2 544.0 Q 860.8 544.0, 861.9 543.0 Q 863.0 542.0, 863.0 540.2 Q 863.0 538.4, 861.9 537.5 Q 860.8 536.6, 859.1 536.6 Q 857.5 536.6, 855.8 537.3 L 854.4 536.6 L 855.3 528.1 L 864.4 528.1 L 864.1 530.1 L 857.3 530.1 L 856.8 535.3 Q 858.4 534.7, 859.9 534.7 " fill="#FF0000"/>
<path class="atom-5" d="M 842.0 421.4 Q 842.0 417.1, 844.1 414.7 Q 846.2 412.4, 850.1 412.4 Q 854.0 412.4, 856.1 414.7 Q 858.2 417.1, 858.2 421.4 Q 858.2 425.7, 856.1 428.1 Q 854.0 430.5, 850.1 430.5 Q 846.2 430.5, 844.1 428.1 Q 842.0 425.7, 842.0 421.4 M 850.1 428.5 Q 852.8 428.5, 854.3 426.7 Q 855.7 424.9, 855.7 421.4 Q 855.7 417.9, 854.3 416.1 Q 852.8 414.4, 850.1 414.4 Q 847.4 414.4, 845.9 416.1 Q 844.5 417.9, 844.5 421.4 Q 844.5 424.9, 845.9 426.7 Q 847.4 428.5, 850.1 428.5 " fill="#FF0000"/>
<path class="atom-5" d="M 867.8 419.2 Q 869.4 419.2, 870.6 419.9 Q 871.8 420.6, 872.5 421.8 Q 873.2 423.0, 873.2 424.6 Q 873.2 426.3, 872.4 427.6 Q 871.7 429.0, 870.3 429.7 Q 869.0 430.5, 867.2 430.5 Q 864.1 430.5, 862.5 428.3 Q 860.9 426.2, 860.9 421.9 Q 860.9 417.2, 862.9 414.8 Q 864.8 412.4, 868.6 412.4 Q 869.7 412.4, 870.6 412.6 Q 871.6 412.9, 872.5 413.4 L 871.5 415.1 Q 870.2 414.4, 868.6 414.4 Q 866.1 414.4, 864.9 416.0 Q 863.6 417.6, 863.4 420.9 Q 864.3 420.1, 865.5 419.7 Q 866.6 419.2, 867.8 419.2 M 867.3 428.4 Q 868.2 428.4, 869.0 427.9 Q 869.8 427.4, 870.2 426.5 Q 870.7 425.7, 870.7 424.6 Q 870.7 423.0, 869.8 422.1 Q 868.9 421.2, 867.4 421.2 Q 866.3 421.2, 865.2 421.7 Q 864.2 422.1, 863.4 422.8 Q 863.5 425.8, 864.5 427.1 Q 865.4 428.4, 867.3 428.4 " fill="#FF0000"/>
<path class="atom-6" d="M 134.3 536.3 Q 134.3 532.1, 136.4 529.7 Q 138.5 527.3, 142.5 527.3 Q 146.4 527.3, 148.5 529.7 Q 150.6 532.1, 150.6 536.3 Q 150.6 540.6, 148.5 543.1 Q 146.3 545.5, 142.5 545.5 Q 138.6 545.5, 136.4 543.1 Q 134.3 540.7, 134.3 536.3 M 142.5 543.5 Q 145.2 543.5, 146.6 541.7 Q 148.1 539.9, 148.1 536.3 Q 148.1 532.9, 146.6 531.1 Q 145.2 529.3, 142.5 529.3 Q 139.8 529.3, 138.3 531.1 Q 136.8 532.8, 136.8 536.3 Q 136.8 539.9, 138.3 541.7 Q 139.8 543.5, 142.5 543.5 " fill="#FF0000"/>
<path class="atom-6" d="M 162.5 529.5 L 153.2 529.5 L 153.2 527.5 L 165.0 527.5 L 165.0 529.3 L 157.8 545.2 L 155.4 545.2 L 162.5 529.5 " fill="#FF0000"/>
<path class="atom-7" d="M 124.6 420.8 Q 124.6 416.5, 126.7 414.2 Q 128.8 411.8, 132.7 411.8 Q 136.6 411.8, 138.7 414.2 Q 140.8 416.5, 140.8 420.8 Q 140.8 425.1, 138.7 427.5 Q 136.6 430.0, 132.7 430.0 Q 128.8 430.0, 126.7 427.5 Q 124.6 425.1, 124.6 420.8 M 132.7 428.0 Q 135.4 428.0, 136.8 426.2 Q 138.3 424.3, 138.3 420.8 Q 138.3 417.3, 136.8 415.6 Q 135.4 413.8, 132.7 413.8 Q 130.0 413.8, 128.5 415.5 Q 127.1 417.3, 127.1 420.8 Q 127.1 424.4, 128.5 426.2 Q 130.0 428.0, 132.7 428.0 " fill="#FF0000"/>
<path class="atom-7" d="M 152.5 420.3 Q 154.2 421.0, 155.1 422.1 Q 156.0 423.1, 156.0 424.8 Q 156.0 426.3, 155.2 427.5 Q 154.5 428.7, 153.1 429.3 Q 151.7 429.9, 149.9 429.9 Q 146.9 429.9, 145.2 428.6 Q 143.5 427.2, 143.5 424.8 Q 143.5 423.4, 144.3 422.3 Q 145.0 421.2, 146.6 420.4 Q 145.4 419.7, 144.8 418.8 Q 144.2 417.8, 144.2 416.3 Q 144.2 414.2, 145.7 413.0 Q 147.2 411.8, 149.8 411.8 Q 152.3 411.8, 153.8 413.0 Q 155.4 414.2, 155.4 416.3 Q 155.4 417.6, 154.6 418.6 Q 153.9 419.5, 152.5 420.3 M 149.8 413.7 Q 148.3 413.7, 147.5 414.4 Q 146.7 415.1, 146.7 416.3 Q 146.7 417.2, 147.2 417.9 Q 147.8 418.5, 148.5 418.8 Q 149.3 419.2, 150.9 419.7 Q 151.9 418.9, 152.4 418.1 Q 152.9 417.3, 152.9 416.3 Q 152.9 415.1, 152.0 414.4 Q 151.2 413.7, 149.8 413.7 M 149.9 428.1 Q 151.5 428.1, 152.5 427.2 Q 153.5 426.3, 153.5 424.8 Q 153.5 423.9, 153.0 423.3 Q 152.5 422.7, 151.7 422.3 Q 150.9 422.0, 149.5 421.5 L 148.4 421.1 Q 147.1 421.9, 146.6 422.8 Q 146.0 423.7, 146.0 424.8 Q 146.0 426.3, 147.1 427.2 Q 148.1 428.1, 149.9 428.1 " fill="#FF0000"/>
<path class="atom-8" d="M 656.7 586.8 Q 656.7 582.4, 658.7 580.1 Q 660.8 577.8, 664.7 577.8 Q 668.4 577.8, 670.3 580.3 L 668.7 581.7 Q 667.2 579.8, 664.7 579.8 Q 662.0 579.8, 660.6 581.6 Q 659.2 583.4, 659.2 586.8 Q 659.2 590.3, 660.7 592.1 Q 662.1 593.9, 665.0 593.9 Q 666.9 593.9, 669.2 592.7 L 669.9 594.6 Q 669.0 595.2, 667.6 595.5 Q 666.2 595.9, 664.6 595.9 Q 660.8 595.9, 658.7 593.5 Q 656.7 591.2, 656.7 586.8 " fill="#000000"/>
<path class="atom-8" d="M 678.6 577.8 Q 681.7 577.8, 683.3 579.9 Q 684.9 582.0, 684.9 586.3 Q 684.9 591.0, 682.9 593.4 Q 681.0 595.9, 677.2 595.9 Q 676.1 595.9, 675.1 595.6 Q 674.2 595.4, 673.3 594.8 L 674.3 593.2 Q 675.6 593.9, 677.2 593.9 Q 679.7 593.9, 680.9 592.3 Q 682.2 590.6, 682.4 587.3 Q 681.5 588.1, 680.3 588.6 Q 679.2 589.0, 678.0 589.0 Q 676.4 589.0, 675.2 588.3 Q 674.0 587.7, 673.3 586.4 Q 672.6 585.2, 672.6 583.7 Q 672.6 581.9, 673.4 580.6 Q 674.1 579.3, 675.5 578.5 Q 676.8 577.8, 678.6 577.8 M 675.1 583.6 Q 675.1 585.2, 676.0 586.1 Q 676.9 587.0, 678.4 587.0 Q 679.5 587.0, 680.5 586.6 Q 681.6 586.1, 682.4 585.4 Q 682.3 582.5, 681.3 581.1 Q 680.4 579.8, 678.5 579.8 Q 677.6 579.8, 676.8 580.3 Q 676.0 580.8, 675.6 581.7 Q 675.1 582.6, 675.1 583.6 " fill="#000000"/>
<path class="atom-9" d="M 585.7 586.8 Q 585.7 582.4, 587.7 580.1 Q 589.8 577.7, 593.7 577.7 Q 597.4 577.7, 599.3 580.3 L 597.7 581.7 Q 596.2 579.8, 593.7 579.8 Q 591.0 579.8, 589.6 581.6 Q 588.2 583.4, 588.2 586.8 Q 588.2 590.3, 589.7 592.1 Q 591.1 593.9, 594.0 593.9 Q 595.9 593.9, 598.2 592.7 L 598.9 594.6 Q 598.0 595.2, 596.6 595.5 Q 595.2 595.9, 593.6 595.9 Q 589.8 595.9, 587.7 593.5 Q 585.7 591.2, 585.7 586.8 " fill="#000000"/>
<path class="atom-9" d="M 602.5 593.6 L 606.4 593.6 L 606.4 580.4 L 602.1 581.7 L 601.5 580.3 L 607.0 577.8 L 608.7 578.1 L 608.7 593.6 L 612.2 593.6 L 612.2 595.6 L 602.5 595.6 L 602.5 593.6 " fill="#000000"/>
<path class="atom-9" d="M 621.0 595.8 Q 617.7 595.8, 616.1 593.4 Q 614.5 591.0, 614.5 586.8 Q 614.5 582.5, 616.1 580.1 Q 617.7 577.7, 621.0 577.7 Q 624.3 577.7, 625.9 580.1 Q 627.5 582.5, 627.5 586.8 Q 627.5 591.0, 625.8 593.4 Q 624.2 595.8, 621.0 595.8 M 621.0 593.8 Q 622.9 593.8, 623.9 592.1 Q 625.0 590.3, 625.0 586.8 Q 625.0 583.3, 623.9 581.5 Q 622.9 579.7, 621.0 579.7 Q 619.1 579.7, 618.0 581.5 Q 617.0 583.3, 617.0 586.8 Q 617.0 590.3, 618.0 592.1 Q 619.1 593.8, 621.0 593.8 " fill="#000000"/>
<path class="atom-10" d="M 643.0 636.8 Q 643.0 632.4, 645.1 630.1 Q 647.1 627.8, 651.1 627.8 Q 654.7 627.8, 656.7 630.4 L 655.0 631.7 Q 653.6 629.8, 651.1 629.8 Q 648.4 629.8, 647.0 631.6 Q 645.6 633.4, 645.6 636.8 Q 645.6 640.3, 647.0 642.1 Q 648.5 643.9, 651.3 643.9 Q 653.3 643.9, 655.6 642.7 L 656.3 644.6 Q 655.3 645.2, 653.9 645.6 Q 652.5 645.9, 651.0 645.9 Q 647.1 645.9, 645.1 643.6 Q 643.0 641.2, 643.0 636.8 " fill="#000000"/>
<path class="atom-10" d="M 659.8 643.7 L 663.7 643.7 L 663.7 630.5 L 659.4 631.8 L 658.8 630.3 L 664.3 627.9 L 666.0 628.2 L 666.0 643.7 L 669.5 643.7 L 669.5 645.7 L 659.8 645.7 L 659.8 643.7 " fill="#000000"/>
<path class="atom-10" d="M 672.7 643.7 L 676.6 643.7 L 676.6 630.5 L 672.3 631.8 L 671.7 630.3 L 677.1 627.9 L 678.9 628.2 L 678.9 643.7 L 682.4 643.7 L 682.4 645.7 L 672.7 645.7 L 672.7 643.7 " fill="#000000"/>
<path class="atom-11" d="M 528.5 586.7 Q 528.5 582.3, 530.5 580.0 Q 532.6 577.7, 536.5 577.7 Q 540.2 577.7, 542.1 580.3 L 540.5 581.6 Q 539.0 579.7, 536.5 579.7 Q 533.8 579.7, 532.4 581.5 Q 531.0 583.3, 531.0 586.7 Q 531.0 590.2, 532.5 592.0 Q 533.9 593.8, 536.8 593.8 Q 538.7 593.8, 541.0 592.6 L 541.7 594.5 Q 540.8 595.1, 539.4 595.5 Q 538.0 595.8, 536.4 595.8 Q 532.6 595.8, 530.5 593.5 Q 528.5 591.1, 528.5 586.7 " fill="#000000"/>
<path class="atom-11" d="M 545.3 593.6 L 549.2 593.6 L 549.2 580.4 L 544.9 581.7 L 544.3 580.2 L 549.8 577.8 L 551.5 578.1 L 551.5 593.6 L 555.0 593.6 L 555.0 595.6 L 545.3 595.6 L 545.3 593.6 " fill="#000000"/>
<path class="atom-11" d="M 557.3 581.2 Q 558.0 579.6, 559.5 578.6 Q 561.1 577.7, 563.2 577.7 Q 565.9 577.7, 567.4 579.1 Q 568.9 580.6, 568.9 583.2 Q 568.9 585.8, 566.9 588.2 Q 565.0 590.7, 561.0 593.6 L 569.2 593.6 L 569.2 595.6 L 557.3 595.6 L 557.3 593.9 Q 560.6 591.6, 562.5 589.8 Q 564.5 588.1, 565.4 586.5 Q 566.4 584.9, 566.4 583.3 Q 566.4 581.6, 565.5 580.6 Q 564.7 579.7, 563.2 579.7 Q 561.8 579.7, 560.8 580.3 Q 559.9 580.8, 559.2 582.1 L 557.3 581.2 " fill="#000000"/>
<path class="atom-12" d="M 442.9 594.4 Q 442.9 590.0, 445.0 587.7 Q 447.1 585.3, 451.0 585.3 Q 454.6 585.3, 456.6 587.9 L 454.9 589.3 Q 453.5 587.4, 451.0 587.4 Q 448.3 587.4, 446.9 589.2 Q 445.5 591.0, 445.5 594.4 Q 445.5 597.9, 446.9 599.7 Q 448.4 601.5, 451.3 601.5 Q 453.2 601.5, 455.5 600.3 L 456.2 602.2 Q 455.3 602.8, 453.9 603.1 Q 452.5 603.5, 450.9 603.5 Q 447.1 603.5, 445.0 601.1 Q 442.9 598.8, 442.9 594.4 " fill="#000000"/>
<path class="atom-12" d="M 459.8 601.2 L 463.7 601.2 L 463.7 588.0 L 459.4 589.3 L 458.8 587.9 L 464.2 585.4 L 466.0 585.7 L 466.0 601.2 L 469.5 601.2 L 469.5 603.2 L 459.8 603.2 L 459.8 601.2 " fill="#000000"/>
<path class="atom-12" d="M 480.2 593.9 Q 482.0 594.4, 482.8 595.5 Q 483.6 596.6, 483.6 598.4 Q 483.6 599.9, 482.9 601.1 Q 482.1 602.2, 480.8 602.9 Q 479.4 603.5, 477.6 603.5 Q 475.7 603.5, 474.3 602.8 Q 472.9 602.2, 471.7 600.8 L 473.2 599.4 Q 474.3 600.6, 475.2 601.0 Q 476.1 601.5, 477.6 601.5 Q 479.2 601.5, 480.2 600.6 Q 481.1 599.8, 481.1 598.4 Q 481.1 596.6, 480.1 595.8 Q 479.1 594.9, 476.9 594.9 L 475.7 594.9 L 475.7 593.1 L 476.8 593.1 Q 478.7 593.1, 479.7 592.3 Q 480.8 591.4, 480.8 589.9 Q 480.8 588.7, 479.9 588.0 Q 479.1 587.3, 477.6 587.3 Q 476.1 587.3, 475.2 587.9 Q 474.3 588.4, 473.6 589.7 L 471.9 588.8 Q 472.5 587.3, 474.0 586.3 Q 475.5 585.3, 477.6 585.3 Q 480.2 585.3, 481.7 586.6 Q 483.3 587.8, 483.3 589.9 Q 483.3 591.3, 482.5 592.3 Q 481.7 593.3, 480.2 593.9 " fill="#000000"/>
<path class="atom-13" d="M 778.8 508.0 Q 778.8 503.6, 780.8 501.3 Q 782.9 499.0, 786.8 499.0 Q 790.5 499.0, 792.4 501.5 L 790.8 502.9 Q 789.3 501.0, 786.8 501.0 Q 784.1 501.0, 782.7 502.8 Q 781.3 504.6, 781.3 508.0 Q 781.3 511.5, 782.8 513.3 Q 784.2 515.1, 787.1 515.1 Q 789.0 515.1, 791.3 513.9 L 792.0 515.8 Q 791.1 516.4, 789.7 516.7 Q 788.3 517.1, 786.7 517.1 Q 782.9 517.1, 780.8 514.7 Q 778.8 512.4, 778.8 508.0 " fill="#000000"/>
<path class="atom-13" d="M 795.6 514.9 L 799.5 514.9 L 799.5 501.6 L 795.2 503.0 L 794.7 501.5 L 800.1 499.1 L 801.9 499.4 L 801.9 514.9 L 805.3 514.9 L 805.3 516.9 L 795.6 516.9 L 795.6 514.9 " fill="#000000"/>
<path class="atom-13" d="M 819.2 510.8 L 821.3 510.8 L 821.3 512.8 L 819.2 512.8 L 819.2 516.9 L 816.8 516.9 L 816.8 512.8 L 807.7 512.8 L 807.7 511.2 L 815.4 499.2 L 819.2 499.2 L 819.2 510.8 M 810.6 510.8 L 816.8 510.8 L 816.8 500.8 L 810.6 510.8 " fill="#000000"/>
<path class="atom-14" d="M 779.7 450.2 Q 779.7 445.8, 781.7 443.5 Q 783.8 441.2, 787.7 441.2 Q 791.4 441.2, 793.3 443.8 L 791.7 445.1 Q 790.3 443.2, 787.7 443.2 Q 785.1 443.2, 783.6 445.0 Q 782.2 446.8, 782.2 450.2 Q 782.2 453.7, 783.7 455.5 Q 785.2 457.3, 788.0 457.3 Q 790.0 457.3, 792.2 456.1 L 792.9 458.0 Q 792.0 458.6, 790.6 459.0 Q 789.2 459.3, 787.7 459.3 Q 783.8 459.3, 781.7 457.0 Q 779.7 454.6, 779.7 450.2 " fill="#000000"/>
<path class="atom-14" d="M 796.5 457.1 L 800.4 457.1 L 800.4 443.9 L 796.1 445.2 L 795.5 443.7 L 801.0 441.3 L 802.7 441.6 L 802.7 457.1 L 806.2 457.1 L 806.2 459.1 L 796.5 459.1 L 796.5 457.1 " fill="#000000"/>
<path class="atom-14" d="M 814.9 448.0 Q 816.5 448.0, 817.7 448.7 Q 819.0 449.3, 819.7 450.6 Q 820.5 451.8, 820.5 453.5 Q 820.5 455.3, 819.6 456.6 Q 818.7 457.9, 817.2 458.6 Q 815.8 459.3, 814.1 459.3 Q 812.5 459.3, 811.0 458.7 Q 809.5 458.1, 808.5 456.9 L 810.0 455.4 Q 810.8 456.3, 811.9 456.8 Q 813.1 457.3, 814.2 457.3 Q 815.8 457.3, 816.9 456.3 Q 818.0 455.3, 818.0 453.5 Q 818.0 451.7, 816.9 450.8 Q 815.8 449.9, 814.1 449.9 Q 812.5 449.9, 810.8 450.6 L 809.4 449.9 L 810.3 441.4 L 819.4 441.4 L 819.1 443.4 L 812.3 443.4 L 811.8 448.6 Q 813.4 448.0, 814.9 448.0 " fill="#000000"/>
<path class="atom-15" d="M 729.5 421.3 Q 729.5 416.9, 731.6 414.6 Q 733.6 412.3, 737.6 412.3 Q 741.2 412.3, 743.2 414.9 L 741.5 416.2 Q 740.1 414.3, 737.6 414.3 Q 734.9 414.3, 733.5 416.1 Q 732.1 417.9, 732.1 421.3 Q 732.1 424.8, 733.5 426.6 Q 735.0 428.4, 737.8 428.4 Q 739.8 428.4, 742.1 427.2 L 742.8 429.1 Q 741.8 429.7, 740.4 430.1 Q 739.0 430.4, 737.5 430.4 Q 733.6 430.4, 731.6 428.1 Q 729.5 425.7, 729.5 421.3 " fill="#000000"/>
<path class="atom-15" d="M 746.4 428.2 L 750.2 428.2 L 750.2 415.0 L 746.0 416.3 L 745.4 414.8 L 750.8 412.4 L 752.6 412.7 L 752.6 428.2 L 756.1 428.2 L 756.1 430.2 L 746.4 430.2 L 746.4 428.2 " fill="#000000"/>
<path class="atom-15" d="M 765.3 419.1 Q 766.8 419.1, 768.0 419.8 Q 769.3 420.5, 769.9 421.7 Q 770.6 422.9, 770.6 424.5 Q 770.6 426.2, 769.8 427.6 Q 769.1 428.9, 767.7 429.6 Q 766.4 430.4, 764.7 430.4 Q 761.5 430.4, 759.9 428.3 Q 758.3 426.1, 758.3 421.9 Q 758.3 417.2, 760.3 414.7 Q 762.3 412.3, 766.0 412.3 Q 767.1 412.3, 768.1 412.5 Q 769.0 412.8, 769.9 413.3 L 768.9 415.0 Q 767.6 414.3, 766.1 414.3 Q 763.6 414.3, 762.3 415.9 Q 761.0 417.5, 760.9 420.8 Q 761.8 420.0, 762.9 419.6 Q 764.0 419.1, 765.3 419.1 M 764.7 428.3 Q 765.6 428.3, 766.4 427.8 Q 767.2 427.3, 767.7 426.5 Q 768.1 425.6, 768.1 424.5 Q 768.1 422.9, 767.2 422.0 Q 766.4 421.1, 764.8 421.1 Q 763.7 421.1, 762.7 421.6 Q 761.6 422.0, 760.9 422.8 Q 761.0 425.7, 761.9 427.0 Q 762.8 428.3, 764.7 428.3 " fill="#000000"/>
<path class="atom-16" d="M 665.3 450.1 Q 665.3 445.7, 667.4 443.4 Q 669.5 441.1, 673.4 441.1 Q 677.0 441.1, 679.0 443.7 L 677.3 445.0 Q 675.9 443.2, 673.4 443.2 Q 670.7 443.2, 669.3 445.0 Q 667.9 446.7, 667.9 450.1 Q 667.9 453.6, 669.3 455.4 Q 670.8 457.2, 673.7 457.2 Q 675.6 457.2, 677.9 456.1 L 678.6 457.9 Q 677.7 458.5, 676.3 458.9 Q 674.9 459.2, 673.3 459.2 Q 669.5 459.2, 667.4 456.9 Q 665.3 454.5, 665.3 450.1 " fill="#000000"/>
<path class="atom-16" d="M 682.2 457.0 L 686.1 457.0 L 686.1 443.8 L 681.8 445.1 L 681.2 443.6 L 686.6 441.2 L 688.4 441.5 L 688.4 457.0 L 691.9 457.0 L 691.9 459.0 L 682.2 459.0 L 682.2 457.0 " fill="#000000"/>
<path class="atom-16" d="M 703.4 443.3 L 694.1 443.3 L 694.1 441.3 L 705.9 441.3 L 705.9 443.1 L 698.7 459.0 L 696.3 459.0 L 703.4 443.3 " fill="#000000"/>
<path class="atom-17" d="M 664.9 507.9 Q 664.9 503.5, 666.9 501.2 Q 669.0 498.9, 672.9 498.9 Q 676.6 498.9, 678.5 501.5 L 676.9 502.8 Q 675.5 500.9, 672.9 500.9 Q 670.3 500.9, 668.8 502.7 Q 667.4 504.5, 667.4 507.9 Q 667.4 511.4, 668.9 513.2 Q 670.4 515.0, 673.2 515.0 Q 675.2 515.0, 677.4 513.8 L 678.1 515.7 Q 677.2 516.3, 675.8 516.7 Q 674.4 517.0, 672.9 517.0 Q 669.0 517.0, 666.9 514.7 Q 664.9 512.3, 664.9 507.9 " fill="#000000"/>
<path class="atom-17" d="M 681.7 514.8 L 685.6 514.8 L 685.6 501.6 L 681.3 502.9 L 680.8 501.4 L 686.2 499.0 L 688.0 499.3 L 688.0 514.8 L 691.4 514.8 L 691.4 516.8 L 681.7 516.8 L 681.7 514.8 " fill="#000000"/>
<path class="atom-17" d="M 702.7 507.4 Q 704.4 508.1, 705.3 509.2 Q 706.2 510.2, 706.2 511.9 Q 706.2 513.4, 705.4 514.6 Q 704.7 515.8, 703.3 516.4 Q 701.9 517.0, 700.1 517.0 Q 697.1 517.0, 695.4 515.7 Q 693.7 514.3, 693.7 511.9 Q 693.7 510.5, 694.5 509.4 Q 695.2 508.3, 696.8 507.5 Q 695.6 506.8, 695.0 505.9 Q 694.4 504.9, 694.4 503.4 Q 694.4 501.3, 695.9 500.1 Q 697.4 498.9, 700.0 498.9 Q 702.5 498.9, 704.0 500.1 Q 705.6 501.3, 705.6 503.4 Q 705.6 504.7, 704.8 505.7 Q 704.1 506.6, 702.7 507.4 M 700.0 500.8 Q 698.5 500.8, 697.7 501.5 Q 696.9 502.2, 696.9 503.4 Q 696.9 504.3, 697.4 505.0 Q 698.0 505.6, 698.7 505.9 Q 699.5 506.3, 701.1 506.8 Q 702.1 506.0, 702.6 505.2 Q 703.1 504.4, 703.1 503.4 Q 703.1 502.2, 702.2 501.5 Q 701.4 500.8, 700.0 500.8 M 700.1 515.2 Q 701.7 515.2, 702.7 514.3 Q 703.7 513.4, 703.7 511.9 Q 703.7 511.0, 703.2 510.4 Q 702.7 509.8, 701.9 509.4 Q 701.1 509.1, 699.7 508.6 L 698.6 508.2 Q 697.3 509.0, 696.8 509.9 Q 696.2 510.8, 696.2 511.9 Q 696.2 513.4, 697.3 514.3 Q 698.3 515.2, 700.1 515.2 " fill="#000000"/>
<path class="atom-18" d="M 729.4 536.8 Q 729.4 532.4, 731.5 530.1 Q 733.6 527.8, 737.5 527.8 Q 741.1 527.8, 743.1 530.4 L 741.4 531.7 Q 740.0 529.9, 737.5 529.9 Q 734.8 529.9, 733.4 531.7 Q 732.0 533.4, 732.0 536.8 Q 732.0 540.3, 733.4 542.1 Q 734.9 543.9, 737.8 543.9 Q 739.7 543.9, 742.0 542.8 L 742.7 544.6 Q 741.8 545.2, 740.4 545.6 Q 739.0 545.9, 737.4 545.9 Q 733.6 545.9, 731.5 543.6 Q 729.4 541.2, 729.4 536.8 " fill="#000000"/>
<path class="atom-18" d="M 746.3 543.7 L 750.1 543.7 L 750.1 530.5 L 745.9 531.8 L 745.3 530.3 L 750.7 527.9 L 752.5 528.2 L 752.5 543.7 L 756.0 543.7 L 756.0 545.7 L 746.3 545.7 L 746.3 543.7 " fill="#000000"/>
<path class="atom-18" d="M 764.2 527.8 Q 767.3 527.8, 768.9 530.0 Q 770.5 532.1, 770.5 536.3 Q 770.5 541.0, 768.5 543.5 Q 766.6 545.9, 762.8 545.9 Q 761.7 545.9, 760.8 545.7 Q 759.8 545.4, 758.9 544.9 L 759.9 543.2 Q 761.2 543.9, 762.8 543.9 Q 765.3 543.9, 766.6 542.3 Q 767.8 540.7, 768.0 537.4 Q 767.1 538.2, 765.9 538.6 Q 764.8 539.1, 763.6 539.1 Q 762.0 539.1, 760.8 538.4 Q 759.6 537.7, 758.9 536.5 Q 758.2 535.3, 758.2 533.7 Q 758.2 532.0, 759.0 530.7 Q 759.8 529.3, 761.1 528.6 Q 762.5 527.8, 764.2 527.8 M 760.7 533.7 Q 760.7 535.3, 761.6 536.2 Q 762.5 537.1, 764.0 537.1 Q 765.1 537.1, 766.2 536.6 Q 767.2 536.2, 768.0 535.4 Q 767.9 532.5, 767.0 531.2 Q 766.0 529.9, 764.2 529.9 Q 763.2 529.9, 762.4 530.4 Q 761.6 530.9, 761.2 531.7 Q 760.7 532.6, 760.7 533.7 " fill="#000000"/>
<path class="atom-19" d="M 628.1 536.7 Q 628.1 532.3, 630.2 530.0 Q 632.2 527.7, 636.2 527.7 Q 639.8 527.7, 641.8 530.3 L 640.1 531.6 Q 638.7 529.8, 636.2 529.8 Q 633.5 529.8, 632.1 531.6 Q 630.7 533.3, 630.7 536.7 Q 630.7 540.2, 632.1 542.0 Q 633.6 543.8, 636.4 543.8 Q 638.4 543.8, 640.7 542.7 L 641.4 544.5 Q 640.4 545.1, 639.0 545.5 Q 637.6 545.8, 636.1 545.8 Q 632.2 545.8, 630.2 543.5 Q 628.1 541.1, 628.1 536.7 " fill="#000000"/>
<path class="atom-19" d="M 644.1 531.3 Q 644.8 529.6, 646.3 528.7 Q 647.9 527.7, 650.0 527.7 Q 652.7 527.7, 654.2 529.2 Q 655.7 530.6, 655.7 533.2 Q 655.7 535.8, 653.7 538.3 Q 651.8 540.7, 647.8 543.6 L 656.0 543.6 L 656.0 545.6 L 644.1 545.6 L 644.1 543.9 Q 647.4 541.6, 649.3 539.8 Q 651.3 538.1, 652.2 536.5 Q 653.2 534.9, 653.2 533.3 Q 653.2 531.6, 652.3 530.7 Q 651.5 529.7, 650.0 529.7 Q 648.6 529.7, 647.6 530.3 Q 646.7 530.9, 646.0 532.1 L 644.1 531.3 " fill="#000000"/>
<path class="atom-19" d="M 665.2 545.8 Q 662.0 545.8, 660.4 543.4 Q 658.8 541.0, 658.8 536.7 Q 658.8 532.5, 660.4 530.1 Q 662.0 527.7, 665.2 527.7 Q 668.5 527.7, 670.1 530.1 Q 671.7 532.5, 671.7 536.7 Q 671.7 541.0, 670.1 543.4 Q 668.5 545.8, 665.2 545.8 M 665.2 543.8 Q 667.2 543.8, 668.2 542.0 Q 669.2 540.2, 669.2 536.7 Q 669.2 533.3, 668.2 531.5 Q 667.2 529.7, 665.2 529.7 Q 663.3 529.7, 662.3 531.5 Q 661.3 533.3, 661.3 536.7 Q 661.3 540.2, 662.3 542.0 Q 663.3 543.8, 665.2 543.8 " fill="#000000"/>
<path class="atom-20" d="M 579.3 507.8 Q 579.3 503.4, 581.4 501.1 Q 583.5 498.8, 587.4 498.8 Q 591.0 498.8, 593.0 501.4 L 591.3 502.7 Q 589.9 500.9, 587.4 500.9 Q 584.7 500.9, 583.3 502.7 Q 581.9 504.4, 581.9 507.8 Q 581.9 511.3, 583.3 513.1 Q 584.8 514.9, 587.7 514.9 Q 589.6 514.9, 591.9 513.8 L 592.6 515.6 Q 591.7 516.2, 590.3 516.6 Q 588.9 516.9, 587.3 516.9 Q 583.5 516.9, 581.4 514.6 Q 579.3 512.2, 579.3 507.8 " fill="#000000"/>
<path class="atom-20" d="M 595.2 502.4 Q 595.9 500.7, 597.4 499.8 Q 599.0 498.8, 601.1 498.8 Q 603.8 498.8, 605.3 500.3 Q 606.8 501.7, 606.8 504.3 Q 606.8 506.9, 604.9 509.4 Q 602.9 511.8, 598.9 514.7 L 607.1 514.7 L 607.1 516.7 L 595.2 516.7 L 595.2 515.0 Q 598.5 512.7, 600.4 510.9 Q 602.4 509.2, 603.4 507.6 Q 604.3 506.0, 604.3 504.4 Q 604.3 502.7, 603.5 501.8 Q 602.6 500.8, 601.1 500.8 Q 599.7 500.8, 598.8 501.4 Q 597.8 502.0, 597.1 503.2 L 595.2 502.4 " fill="#000000"/>
<path class="atom-20" d="M 610.8 514.7 L 614.7 514.7 L 614.7 501.5 L 610.4 502.8 L 609.8 501.3 L 615.3 498.9 L 617.0 499.2 L 617.0 514.7 L 620.5 514.7 L 620.5 516.7 L 610.8 516.7 L 610.8 514.7 " fill="#000000"/>
<path class="atom-21" d="M 528.6 536.7 Q 528.6 532.3, 530.7 530.0 Q 532.7 527.6, 536.7 527.6 Q 540.3 527.6, 542.3 530.2 L 540.6 531.6 Q 539.2 529.7, 536.7 529.7 Q 534.0 529.7, 532.6 531.5 Q 531.2 533.3, 531.2 536.7 Q 531.2 540.2, 532.6 542.0 Q 534.1 543.8, 536.9 543.8 Q 538.9 543.8, 541.2 542.6 L 541.9 544.5 Q 540.9 545.1, 539.5 545.4 Q 538.1 545.8, 536.6 545.8 Q 532.7 545.8, 530.7 543.4 Q 528.6 541.1, 528.6 536.7 " fill="#000000"/>
<path class="atom-21" d="M 544.6 531.2 Q 545.2 529.5, 546.8 528.6 Q 548.3 527.6, 550.5 527.6 Q 553.1 527.6, 554.6 529.1 Q 556.1 530.5, 556.1 533.1 Q 556.1 535.7, 554.2 538.2 Q 552.3 540.6, 548.3 543.5 L 556.4 543.5 L 556.4 545.5 L 544.5 545.5 L 544.5 543.9 Q 547.8 541.5, 549.8 539.8 Q 551.7 538.0, 552.7 536.4 Q 553.6 534.9, 553.6 533.2 Q 553.6 531.5, 552.8 530.6 Q 551.9 529.6, 550.5 529.6 Q 549.0 529.6, 548.1 530.2 Q 547.1 530.8, 546.5 532.1 L 544.6 531.2 " fill="#000000"/>
<path class="atom-21" d="M 559.2 531.2 Q 559.9 529.5, 561.4 528.6 Q 563.0 527.6, 565.1 527.6 Q 567.8 527.6, 569.3 529.1 Q 570.8 530.5, 570.8 533.1 Q 570.8 535.7, 568.9 538.2 Q 566.9 540.6, 562.9 543.5 L 571.1 543.5 L 571.1 545.5 L 559.2 545.5 L 559.2 543.9 Q 562.5 541.5, 564.4 539.8 Q 566.4 538.0, 567.4 536.4 Q 568.3 534.9, 568.3 533.2 Q 568.3 531.5, 567.5 530.6 Q 566.6 529.6, 565.1 529.6 Q 563.7 529.6, 562.8 530.2 Q 561.8 530.8, 561.1 532.1 L 559.2 531.2 " fill="#000000"/>
<path class="atom-22" d="M 478.6 507.7 Q 478.6 503.3, 480.7 501.0 Q 482.8 498.7, 486.7 498.7 Q 490.3 498.7, 492.3 501.3 L 490.6 502.6 Q 489.2 500.8, 486.7 500.8 Q 484.0 500.8, 482.6 502.6 Q 481.2 504.3, 481.2 507.7 Q 481.2 511.2, 482.6 513.0 Q 484.1 514.8, 487.0 514.8 Q 488.9 514.8, 491.2 513.7 L 491.9 515.5 Q 491.0 516.1, 489.6 516.5 Q 488.2 516.8, 486.6 516.8 Q 482.8 516.8, 480.7 514.5 Q 478.6 512.1, 478.6 507.7 " fill="#000000"/>
<path class="atom-22" d="M 494.6 502.3 Q 495.2 500.6, 496.8 499.7 Q 498.3 498.7, 500.5 498.7 Q 503.2 498.7, 504.7 500.2 Q 506.2 501.6, 506.2 504.2 Q 506.2 506.8, 504.2 509.3 Q 502.3 511.7, 498.3 514.6 L 506.5 514.6 L 506.5 516.6 L 494.5 516.6 L 494.5 514.9 Q 497.8 512.6, 499.8 510.8 Q 501.8 509.1, 502.7 507.5 Q 503.7 505.9, 503.7 504.3 Q 503.7 502.6, 502.8 501.7 Q 502.0 500.7, 500.5 500.7 Q 499.1 500.7, 498.1 501.3 Q 497.2 501.9, 496.5 503.1 L 494.6 502.3 " fill="#000000"/>
<path class="atom-22" d="M 517.7 507.3 Q 519.4 507.8, 520.3 508.9 Q 521.1 510.0, 521.1 511.8 Q 521.1 513.3, 520.4 514.4 Q 519.6 515.6, 518.2 516.2 Q 516.9 516.9, 515.1 516.9 Q 513.2 516.9, 511.7 516.2 Q 510.3 515.5, 509.2 514.2 L 510.6 512.7 Q 511.7 513.9, 512.7 514.4 Q 513.6 514.9, 515.1 514.9 Q 516.7 514.9, 517.6 514.0 Q 518.6 513.1, 518.6 511.7 Q 518.6 509.9, 517.6 509.1 Q 516.6 508.3, 514.4 508.3 L 513.1 508.3 L 513.1 506.5 L 514.3 506.5 Q 516.2 506.5, 517.2 505.7 Q 518.2 504.8, 518.2 503.2 Q 518.2 502.1, 517.4 501.4 Q 516.5 500.7, 515.1 500.7 Q 513.6 500.7, 512.7 501.2 Q 511.8 501.8, 511.1 503.1 L 509.4 502.2 Q 510.0 500.7, 511.5 499.7 Q 513.0 498.7, 515.1 498.7 Q 517.7 498.7, 519.2 499.9 Q 520.7 501.2, 520.7 503.2 Q 520.7 504.7, 520.0 505.7 Q 519.2 506.7, 517.7 507.3 " fill="#000000"/>
<path class="atom-23" d="M 430.0 527.8 L 435.8 537.1 Q 436.4 538.1, 437.3 539.7 Q 438.3 541.4, 438.3 541.5 L 438.3 527.8 L 440.7 527.8 L 440.7 545.5 L 438.2 545.5 L 432.0 535.2 Q 431.3 534.0, 430.5 532.6 Q 429.8 531.3, 429.5 530.8 L 429.5 545.5 L 427.2 545.5 L 427.2 527.8 L 430.0 527.8 " fill="#0000FF"/>
<path class="atom-23" d="M 444.1 531.1 Q 444.7 529.4, 446.3 528.5 Q 447.8 527.6, 450.0 527.6 Q 452.7 527.6, 454.2 529.0 Q 455.7 530.5, 455.7 533.0 Q 455.7 535.7, 453.7 538.1 Q 451.8 540.6, 447.8 543.5 L 456.0 543.5 L 456.0 545.5 L 444.0 545.5 L 444.0 543.8 Q 447.3 541.4, 449.3 539.7 Q 451.3 537.9, 452.2 536.4 Q 453.2 534.8, 453.2 533.2 Q 453.2 531.5, 452.3 530.5 Q 451.5 529.6, 450.0 529.6 Q 448.6 529.6, 447.6 530.1 Q 446.7 530.7, 446.0 532.0 L 444.1 531.1 " fill="#0000FF"/>
<path class="atom-23" d="M 470.3 539.4 L 472.4 539.4 L 472.4 541.4 L 470.3 541.4 L 470.3 545.5 L 467.9 545.5 L 467.9 541.4 L 458.8 541.4 L 458.8 539.8 L 466.5 527.8 L 470.3 527.8 L 470.3 539.4 M 461.7 539.4 L 467.9 539.4 L 467.9 529.4 L 461.7 539.4 " fill="#0000FF"/>
<path class="atom-24" d="M 378.5 507.7 Q 378.5 503.3, 380.6 501.0 Q 382.7 498.6, 386.6 498.6 Q 390.2 498.6, 392.2 501.2 L 390.5 502.6 Q 389.1 500.7, 386.6 500.7 Q 383.9 500.7, 382.5 502.5 Q 381.1 504.3, 381.1 507.7 Q 381.1 511.2, 382.5 513.0 Q 384.0 514.8, 386.9 514.8 Q 388.8 514.8, 391.1 513.6 L 391.8 515.5 Q 390.9 516.1, 389.5 516.4 Q 388.1 516.8, 386.5 516.8 Q 382.7 516.8, 380.6 514.4 Q 378.5 512.1, 378.5 507.7 " fill="#000000"/>
<path class="atom-24" d="M 394.5 502.2 Q 395.1 500.5, 396.7 499.6 Q 398.2 498.6, 400.4 498.6 Q 403.1 498.6, 404.6 500.1 Q 406.1 501.5, 406.1 504.1 Q 406.1 506.7, 404.1 509.2 Q 402.2 511.6, 398.2 514.5 L 406.4 514.5 L 406.4 516.5 L 394.4 516.5 L 394.4 514.9 Q 397.7 512.5, 399.7 510.8 Q 401.7 509.0, 402.6 507.4 Q 403.6 505.9, 403.6 504.2 Q 403.6 502.5, 402.7 501.6 Q 401.9 500.6, 400.4 500.6 Q 399.0 500.6, 398.0 501.2 Q 397.1 501.8, 396.4 503.1 L 394.5 502.2 " fill="#000000"/>
<path class="atom-24" d="M 415.5 505.5 Q 417.1 505.5, 418.4 506.1 Q 419.6 506.8, 420.4 508.0 Q 421.1 509.3, 421.1 510.9 Q 421.1 512.8, 420.2 514.1 Q 419.3 515.4, 417.9 516.1 Q 416.4 516.7, 414.8 516.7 Q 413.1 516.7, 411.6 516.1 Q 410.1 515.5, 409.1 514.4 L 410.6 512.8 Q 411.4 513.7, 412.6 514.2 Q 413.7 514.7, 414.8 514.7 Q 416.4 514.7, 417.5 513.7 Q 418.6 512.8, 418.6 511.0 Q 418.6 509.1, 417.5 508.2 Q 416.4 507.3, 414.7 507.3 Q 413.1 507.3, 411.4 508.0 L 410.0 507.4 L 410.9 498.8 L 420.0 498.8 L 419.7 500.8 L 412.9 500.8 L 412.4 506.1 Q 414.0 505.5, 415.5 505.5 " fill="#000000"/>
<path class="atom-25" d="M 328.3 536.5 Q 328.3 532.1, 330.4 529.8 Q 332.5 527.5, 336.4 527.5 Q 340.0 527.5, 342.0 530.1 L 340.3 531.4 Q 338.9 529.5, 336.4 529.5 Q 333.7 529.5, 332.3 531.3 Q 330.9 533.1, 330.9 536.5 Q 330.9 540.0, 332.3 541.8 Q 333.8 543.6, 336.7 543.6 Q 338.6 543.6, 340.9 542.4 L 341.6 544.3 Q 340.7 544.9, 339.3 545.3 Q 337.9 545.6, 336.3 545.6 Q 332.5 545.6, 330.4 543.3 Q 328.3 540.9, 328.3 536.5 " fill="#000000"/>
<path class="atom-25" d="M 344.3 531.0 Q 344.9 529.4, 346.5 528.4 Q 348.0 527.5, 350.2 527.5 Q 352.9 527.5, 354.4 528.9 Q 355.9 530.4, 355.9 533.0 Q 355.9 535.6, 353.9 538.0 Q 352.0 540.5, 348.0 543.4 L 356.2 543.4 L 356.2 545.4 L 344.2 545.4 L 344.2 543.7 Q 347.5 541.4, 349.5 539.6 Q 351.5 537.9, 352.4 536.3 Q 353.4 534.7, 353.4 533.1 Q 353.4 531.4, 352.5 530.4 Q 351.7 529.5, 350.2 529.5 Q 348.8 529.5, 347.8 530.1 Q 346.9 530.6, 346.2 531.9 L 344.3 531.0 " fill="#000000"/>
<path class="atom-25" d="M 365.8 534.3 Q 367.4 534.3, 368.6 535.0 Q 369.8 535.7, 370.5 536.9 Q 371.2 538.1, 371.2 539.7 Q 371.2 541.4, 370.4 542.8 Q 369.7 544.1, 368.3 544.8 Q 367.0 545.6, 365.2 545.6 Q 362.1 545.6, 360.5 543.5 Q 358.9 541.3, 358.9 537.1 Q 358.9 532.4, 360.9 529.9 Q 362.8 527.5, 366.6 527.5 Q 367.7 527.5, 368.6 527.7 Q 369.6 528.0, 370.5 528.5 L 369.5 530.2 Q 368.2 529.5, 366.6 529.5 Q 364.1 529.5, 362.9 531.1 Q 361.6 532.7, 361.4 536.0 Q 362.3 535.2, 363.5 534.8 Q 364.6 534.3, 365.8 534.3 M 365.3 543.5 Q 366.2 543.5, 367.0 543.0 Q 367.8 542.5, 368.2 541.7 Q 368.7 540.8, 368.7 539.7 Q 368.7 538.1, 367.8 537.2 Q 366.9 536.3, 365.4 536.3 Q 364.3 536.3, 363.2 536.8 Q 362.2 537.2, 361.4 538.0 Q 361.5 540.9, 362.5 542.2 Q 363.4 543.5, 365.3 543.5 " fill="#000000"/>
<path class="atom-26" d="M 278.6 507.6 Q 278.6 503.2, 280.7 500.9 Q 282.7 498.6, 286.7 498.6 Q 290.3 498.6, 292.3 501.1 L 290.6 502.5 Q 289.2 500.6, 286.7 500.6 Q 284.0 500.6, 282.6 502.4 Q 281.2 504.2, 281.2 507.6 Q 281.2 511.1, 282.6 512.9 Q 284.1 514.7, 286.9 514.7 Q 288.9 514.7, 291.2 513.5 L 291.9 515.4 Q 290.9 516.0, 289.5 516.3 Q 288.1 516.7, 286.6 516.7 Q 282.7 516.7, 280.7 514.3 Q 278.6 512.0, 278.6 507.6 " fill="#000000"/>
<path class="atom-26" d="M 294.5 502.1 Q 295.2 500.4, 296.7 499.5 Q 298.3 498.6, 300.4 498.6 Q 303.1 498.6, 304.6 500.0 Q 306.1 501.5, 306.1 504.0 Q 306.1 506.7, 304.2 509.1 Q 302.2 511.6, 298.2 514.5 L 306.4 514.5 L 306.4 516.5 L 294.5 516.5 L 294.5 514.8 Q 297.8 512.4, 299.7 510.7 Q 301.7 508.9, 302.7 507.4 Q 303.6 505.8, 303.6 504.2 Q 303.6 502.5, 302.8 501.5 Q 301.9 500.6, 300.4 500.6 Q 299.0 500.6, 298.1 501.1 Q 297.1 501.7, 296.4 503.0 L 294.5 502.1 " fill="#000000"/>
<path class="atom-26" d="M 318.4 500.8 L 309.2 500.8 L 309.2 498.8 L 320.9 498.8 L 320.9 500.5 L 313.8 516.5 L 311.4 516.5 L 318.4 500.8 " fill="#000000"/>
<path class="atom-27" d="M 293.0 449.8 Q 293.0 445.4, 295.0 443.1 Q 297.1 440.8, 301.0 440.8 Q 304.7 440.8, 306.6 443.4 L 305.0 444.7 Q 303.6 442.8, 301.0 442.8 Q 298.4 442.8, 296.9 444.6 Q 295.5 446.4, 295.5 449.8 Q 295.5 453.3, 297.0 455.1 Q 298.5 456.9, 301.3 456.9 Q 303.3 456.9, 305.5 455.7 L 306.2 457.6 Q 305.3 458.2, 303.9 458.6 Q 302.5 458.9, 301.0 458.9 Q 297.1 458.9, 295.0 456.6 Q 293.0 454.2, 293.0 449.8 " fill="#000000"/>
<path class="atom-27" d="M 308.9 444.3 Q 309.6 442.7, 311.1 441.7 Q 312.7 440.8, 314.8 440.8 Q 317.5 440.8, 319.0 442.2 Q 320.5 443.7, 320.5 446.3 Q 320.5 448.9, 318.6 451.3 Q 316.6 453.8, 312.6 456.7 L 320.8 456.7 L 320.8 458.7 L 308.9 458.7 L 308.9 457.0 Q 312.2 454.7, 314.1 452.9 Q 316.1 451.2, 317.1 449.6 Q 318.0 448.0, 318.0 446.4 Q 318.0 444.7, 317.2 443.7 Q 316.3 442.8, 314.8 442.8 Q 313.4 442.8, 312.5 443.4 Q 311.5 443.9, 310.8 445.2 L 308.9 444.3 " fill="#000000"/>
<path class="atom-27" d="M 332.6 449.3 Q 334.2 450.0, 335.2 451.1 Q 336.1 452.1, 336.1 453.8 Q 336.1 455.3, 335.3 456.5 Q 334.5 457.7, 333.1 458.3 Q 331.8 458.9, 329.9 458.9 Q 327.0 458.9, 325.3 457.6 Q 323.6 456.2, 323.6 453.8 Q 323.6 452.4, 324.3 451.3 Q 325.1 450.2, 326.6 449.4 Q 325.5 448.7, 324.9 447.8 Q 324.2 446.8, 324.2 445.3 Q 324.2 443.2, 325.7 442.0 Q 327.3 440.8, 329.8 440.8 Q 332.4 440.8, 333.9 442.0 Q 335.4 443.2, 335.4 445.3 Q 335.4 446.6, 334.7 447.6 Q 334.0 448.5, 332.6 449.3 M 329.8 442.7 Q 328.4 442.7, 327.5 443.4 Q 326.7 444.1, 326.7 445.3 Q 326.7 446.2, 327.3 446.9 Q 327.8 447.5, 328.6 447.8 Q 329.4 448.2, 330.9 448.7 Q 332.0 447.9, 332.5 447.1 Q 332.9 446.3, 332.9 445.3 Q 332.9 444.1, 332.1 443.4 Q 331.3 442.7, 329.8 442.7 M 329.9 457.1 Q 331.6 457.1, 332.6 456.2 Q 333.6 455.3, 333.6 453.8 Q 333.6 452.9, 333.1 452.3 Q 332.5 451.7, 331.7 451.3 Q 331.0 451.0, 329.6 450.5 L 328.4 450.1 Q 327.2 450.9, 326.6 451.8 Q 326.1 452.7, 326.1 453.8 Q 326.1 455.3, 327.1 456.2 Q 328.2 457.1, 329.9 457.1 " fill="#000000"/>
<path class="atom-28" d="M 893.2 508.1 Q 893.2 503.7, 895.3 501.4 Q 897.4 499.0, 901.3 499.0 Q 904.9 499.0, 906.9 501.6 L 905.2 503.0 Q 903.8 501.1, 901.3 501.1 Q 898.6 501.1, 897.2 502.9 Q 895.8 504.7, 895.8 508.1 Q 895.8 511.6, 897.2 513.4 Q 898.7 515.2, 901.6 515.2 Q 903.5 515.2, 905.8 514.0 L 906.5 515.9 Q 905.6 516.5, 904.2 516.8 Q 902.8 517.2, 901.2 517.2 Q 897.4 517.2, 895.3 514.8 Q 893.2 512.5, 893.2 508.1 " fill="#000000"/>
<path class="atom-28" d="M 909.2 502.6 Q 909.9 500.9, 911.4 500.0 Q 913.0 499.0, 915.1 499.0 Q 917.8 499.0, 919.3 500.5 Q 920.8 501.9, 920.8 504.5 Q 920.8 507.1, 918.8 509.6 Q 916.9 512.0, 912.9 514.9 L 921.1 514.9 L 921.1 516.9 L 909.2 516.9 L 909.2 515.3 Q 912.5 512.9, 914.4 511.2 Q 916.4 509.4, 917.3 507.8 Q 918.3 506.3, 918.3 504.6 Q 918.3 502.9, 917.4 502.0 Q 916.6 501.0, 915.1 501.0 Q 913.7 501.0, 912.7 501.6 Q 911.8 502.2, 911.1 503.5 L 909.2 502.6 " fill="#000000"/>
<path class="atom-28" d="M 929.8 499.0 Q 932.9 499.0, 934.5 501.2 Q 936.1 503.3, 936.1 507.6 Q 936.1 512.3, 934.1 514.7 Q 932.2 517.1, 928.4 517.1 Q 927.3 517.1, 926.4 516.9 Q 925.4 516.6, 924.5 516.1 L 925.5 514.4 Q 926.8 515.1, 928.4 515.1 Q 930.9 515.1, 932.2 513.5 Q 933.4 511.9, 933.6 508.6 Q 932.7 509.4, 931.5 509.9 Q 930.4 510.3, 929.2 510.3 Q 927.6 510.3, 926.4 509.6 Q 925.2 508.9, 924.5 507.7 Q 923.8 506.5, 923.8 504.9 Q 923.8 503.2, 924.6 501.9 Q 925.4 500.5, 926.7 499.8 Q 928.1 499.0, 929.8 499.0 M 926.3 504.9 Q 926.3 506.5, 927.2 507.4 Q 928.1 508.3, 929.6 508.3 Q 930.7 508.3, 931.8 507.9 Q 932.8 507.4, 933.6 506.7 Q 933.5 503.7, 932.6 502.4 Q 931.6 501.1, 929.8 501.1 Q 928.8 501.1, 928.0 501.6 Q 927.2 502.1, 926.8 503.0 Q 926.3 503.8, 926.3 504.9 " fill="#000000"/>
<path class="atom-29" d="M 843.3 363.6 Q 843.3 359.2, 845.4 356.9 Q 847.5 354.6, 851.4 354.6 Q 855.0 354.6, 857.0 357.2 L 855.3 358.5 Q 853.9 356.6, 851.4 356.6 Q 848.7 356.6, 847.3 358.4 Q 845.9 360.2, 845.9 363.6 Q 845.9 367.1, 847.3 368.9 Q 848.8 370.7, 851.7 370.7 Q 853.6 370.7, 855.9 369.5 L 856.6 371.4 Q 855.7 372.0, 854.3 372.4 Q 852.9 372.7, 851.3 372.7 Q 847.5 372.7, 845.4 370.4 Q 843.3 368.0, 843.3 363.6 " fill="#000000"/>
<path class="atom-29" d="M 867.8 363.2 Q 869.5 363.7, 870.3 364.8 Q 871.2 365.9, 871.2 367.6 Q 871.2 369.1, 870.4 370.3 Q 869.7 371.5, 868.3 372.1 Q 866.9 372.7, 865.1 372.7 Q 863.2 372.7, 861.8 372.1 Q 860.4 371.4, 859.3 370.1 L 860.7 368.6 Q 861.8 369.8, 862.7 370.3 Q 863.6 370.7, 865.1 370.7 Q 866.7 370.7, 867.7 369.9 Q 868.7 369.0, 868.7 367.6 Q 868.7 365.8, 867.6 365.0 Q 866.6 364.2, 864.5 364.2 L 863.2 364.2 L 863.2 362.4 L 864.3 362.4 Q 866.2 362.4, 867.3 361.5 Q 868.3 360.7, 868.3 359.1 Q 868.3 358.0, 867.4 357.3 Q 866.6 356.6, 865.1 356.6 Q 863.7 356.6, 862.7 357.1 Q 861.8 357.6, 861.1 359.0 L 859.4 358.0 Q 860.0 356.6, 861.5 355.6 Q 863.0 354.6, 865.1 354.6 Q 867.7 354.6, 869.3 355.8 Q 870.8 357.0, 870.8 359.1 Q 870.8 360.5, 870.0 361.6 Q 869.2 362.6, 867.8 363.2 " fill="#000000"/>
<path class="atom-29" d="M 880.4 372.7 Q 877.2 372.7, 875.5 370.3 Q 873.9 367.9, 873.9 363.6 Q 873.9 359.3, 875.5 357.0 Q 877.1 354.6, 880.4 354.6 Q 883.7 354.6, 885.3 357.0 Q 886.9 359.3, 886.9 363.6 Q 886.9 367.9, 885.3 370.3 Q 883.7 372.7, 880.4 372.7 M 880.4 370.7 Q 882.3 370.7, 883.4 368.9 Q 884.4 367.1, 884.4 363.6 Q 884.4 360.1, 883.4 358.4 Q 882.3 356.6, 880.4 356.6 Q 878.5 356.6, 877.5 358.4 Q 876.4 360.1, 876.4 363.6 Q 876.4 367.1, 877.5 368.9 Q 878.5 370.7, 880.4 370.7 " fill="#000000"/>
<path class="atom-30" d="M 63.9 507.4 Q 63.9 503.0, 65.9 500.7 Q 68.0 498.4, 71.9 498.4 Q 75.6 498.4, 77.5 501.0 L 75.9 502.3 Q 74.5 500.5, 71.9 500.5 Q 69.3 500.5, 67.8 502.3 Q 66.4 504.0, 66.4 507.4 Q 66.4 510.9, 67.9 512.7 Q 69.4 514.5, 72.2 514.5 Q 74.2 514.5, 76.4 513.4 L 77.1 515.2 Q 76.2 515.8, 74.8 516.2 Q 73.4 516.5, 71.9 516.5 Q 68.0 516.5, 65.9 514.2 Q 63.9 511.8, 63.9 507.4 " fill="#000000"/>
<path class="atom-30" d="M 88.2 507.0 Q 90.0 507.5, 90.8 508.6 Q 91.6 509.7, 91.6 511.5 Q 91.6 513.0, 90.9 514.1 Q 90.1 515.3, 88.8 515.9 Q 87.4 516.6, 85.6 516.6 Q 83.7 516.6, 82.3 515.9 Q 80.9 515.2, 79.7 513.9 L 81.2 512.4 Q 82.3 513.6, 83.2 514.1 Q 84.1 514.6, 85.6 514.6 Q 87.2 514.6, 88.2 513.7 Q 89.1 512.8, 89.1 511.4 Q 89.1 509.6, 88.1 508.8 Q 87.1 508.0, 84.9 508.0 L 83.7 508.0 L 83.7 506.2 L 84.8 506.2 Q 86.7 506.2, 87.7 505.4 Q 88.8 504.5, 88.8 502.9 Q 88.8 501.8, 87.9 501.1 Q 87.1 500.4, 85.6 500.4 Q 84.1 500.4, 83.2 500.9 Q 82.3 501.5, 81.6 502.8 L 79.9 501.9 Q 80.5 500.4, 82.0 499.4 Q 83.5 498.4, 85.6 498.4 Q 88.2 498.4, 89.7 499.6 Q 91.3 500.9, 91.3 502.9 Q 91.3 504.4, 90.5 505.4 Q 89.7 506.4, 88.2 507.0 " fill="#000000"/>
<path class="atom-30" d="M 95.3 514.3 L 99.2 514.3 L 99.2 501.1 L 94.9 502.4 L 94.3 500.9 L 99.7 498.5 L 101.5 498.8 L 101.5 514.3 L 105.0 514.3 L 105.0 516.3 L 95.3 516.3 L 95.3 514.3 " fill="#000000"/>
<path class="atom-31" d="M 143.0 363.1 Q 143.0 358.7, 145.0 356.4 Q 147.1 354.0, 151.0 354.0 Q 154.7 354.0, 156.6 356.6 L 155.0 358.0 Q 153.5 356.1, 151.0 356.1 Q 148.3 356.1, 146.9 357.9 Q 145.5 359.7, 145.5 363.1 Q 145.5 366.6, 147.0 368.4 Q 148.4 370.2, 151.3 370.2 Q 153.2 370.2, 155.5 369.0 L 156.2 370.9 Q 155.3 371.5, 153.9 371.8 Q 152.5 372.2, 150.9 372.2 Q 147.1 372.2, 145.0 369.8 Q 143.0 367.5, 143.0 363.1 " fill="#000000"/>
<path class="atom-31" d="M 167.4 362.6 Q 169.1 363.1, 169.9 364.2 Q 170.8 365.3, 170.8 367.1 Q 170.8 368.6, 170.0 369.8 Q 169.3 370.9, 167.9 371.6 Q 166.5 372.2, 164.7 372.2 Q 162.8 372.2, 161.4 371.5 Q 160.0 370.9, 158.9 369.5 L 160.3 368.1 Q 161.4 369.3, 162.3 369.7 Q 163.2 370.2, 164.7 370.2 Q 166.3 370.2, 167.3 369.3 Q 168.3 368.5, 168.3 367.1 Q 168.3 365.3, 167.2 364.5 Q 166.2 363.6, 164.1 363.6 L 162.8 363.6 L 162.8 361.8 L 163.9 361.8 Q 165.8 361.8, 166.9 361.0 Q 167.9 360.1, 167.9 358.6 Q 167.9 357.4, 167.0 356.7 Q 166.2 356.0, 164.7 356.0 Q 163.3 356.0, 162.3 356.6 Q 161.4 357.1, 160.7 358.4 L 159.0 357.5 Q 159.6 356.0, 161.1 355.0 Q 162.6 354.0, 164.7 354.0 Q 167.3 354.0, 168.9 355.3 Q 170.4 356.5, 170.4 358.6 Q 170.4 360.0, 169.6 361.0 Q 168.8 362.0, 167.4 362.6 " fill="#000000"/>
<path class="atom-31" d="M 173.5 357.6 Q 174.2 355.9, 175.7 355.0 Q 177.3 354.0, 179.4 354.0 Q 182.1 354.0, 183.6 355.5 Q 185.1 356.9, 185.1 359.5 Q 185.1 362.1, 183.2 364.6 Q 181.2 367.0, 177.2 369.9 L 185.4 369.9 L 185.4 371.9 L 173.5 371.9 L 173.5 370.3 Q 176.8 367.9, 178.7 366.2 Q 180.7 364.4, 181.7 362.8 Q 182.6 361.3, 182.6 359.6 Q 182.6 357.9, 181.8 357.0 Q 180.9 356.0, 179.4 356.0 Q 178.0 356.0, 177.1 356.6 Q 176.1 357.2, 175.4 358.5 L 173.5 357.6 " fill="#000000"/>
<path class="atom-32" d="M 703.7 628.0 L 709.5 637.4 Q 710.1 638.3, 711.0 640.0 Q 711.9 641.7, 712.0 641.8 L 712.0 628.0 L 714.3 628.0 L 714.3 645.7 L 711.9 645.7 L 705.7 635.5 Q 704.9 634.3, 704.2 632.9 Q 703.4 631.5, 703.2 631.1 L 703.2 645.7 L 700.9 645.7 L 700.9 628.0 L 703.7 628.0 " fill="#0000FF"/>
<path class="atom-32" d="M 726.1 636.4 Q 727.9 636.9, 728.7 638.0 Q 729.5 639.1, 729.5 640.9 Q 729.5 642.4, 728.8 643.5 Q 728.0 644.7, 726.7 645.3 Q 725.3 646.0, 723.5 646.0 Q 721.6 646.0, 720.2 645.3 Q 718.8 644.6, 717.6 643.3 L 719.1 641.8 Q 720.2 643.0, 721.1 643.5 Q 722.0 644.0, 723.5 644.0 Q 725.1 644.0, 726.1 643.1 Q 727.0 642.2, 727.0 640.8 Q 727.0 639.0, 726.0 638.2 Q 725.0 637.4, 722.8 637.4 L 721.6 637.4 L 721.6 635.6 L 722.7 635.6 Q 724.6 635.6, 725.6 634.8 Q 726.7 633.9, 726.7 632.3 Q 726.7 631.2, 725.8 630.5 Q 725.0 629.8, 723.5 629.8 Q 722.0 629.8, 721.1 630.3 Q 720.2 630.9, 719.5 632.2 L 717.8 631.3 Q 718.4 629.8, 719.9 628.8 Q 721.4 627.8, 723.5 627.8 Q 726.1 627.8, 727.6 629.0 Q 729.2 630.3, 729.2 632.3 Q 729.2 633.8, 728.4 634.8 Q 727.6 635.8, 726.1 636.4 " fill="#0000FF"/>
<path class="atom-32" d="M 740.8 636.4 Q 742.5 636.9, 743.3 638.0 Q 744.2 639.1, 744.2 640.9 Q 744.2 642.4, 743.4 643.5 Q 742.7 644.7, 741.3 645.3 Q 739.9 646.0, 738.1 646.0 Q 736.2 646.0, 734.8 645.3 Q 733.4 644.6, 732.3 643.3 L 733.7 641.8 Q 734.8 643.0, 735.7 643.5 Q 736.6 644.0, 738.1 644.0 Q 739.7 644.0, 740.7 643.1 Q 741.7 642.2, 741.7 640.8 Q 741.7 639.0, 740.6 638.2 Q 739.6 637.4, 737.5 637.4 L 736.2 637.4 L 736.2 635.6 L 737.3 635.6 Q 739.2 635.6, 740.3 634.8 Q 741.3 633.9, 741.3 632.3 Q 741.3 631.2, 740.4 630.5 Q 739.6 629.8, 738.1 629.8 Q 736.7 629.8, 735.7 630.3 Q 734.8 630.9, 734.1 632.2 L 732.4 631.3 Q 733.0 629.8, 734.5 628.8 Q 736.0 627.8, 738.1 627.8 Q 740.7 627.8, 742.3 629.0 Q 743.8 630.3, 743.8 632.3 Q 743.8 633.8, 743.0 634.8 Q 742.2 635.8, 740.8 636.4 " fill="#0000FF"/>
<text x="1000" y="50" font-size="8" font-family="Verdana" font-weight="normal" letter-spacing="0" text-anchor="start" fill="black">Highlighted Atoms:
Primary SOM: Red
Secondary SOM: Green
Tertiary SOM: Cyan
</text></svg>
